{
 "cells": [
  {
   "cell_type": "code",
   "execution_count": 17,
   "id": "b5b171b7-74a5-4d34-86cb-20a0695512d1",
   "metadata": {},
   "outputs": [
    {
     "name": "stdout",
     "output_type": "stream",
     "text": [
      "The autoreload extension is already loaded. To reload it, use:\n",
      "  %reload_ext autoreload\n"
     ]
    },
    {
     "data": {
      "text/plain": [
       "MidiFile(type=1, ticks_per_beat=384, tracks=[\n",
       "  MidiTrack([\n",
       "    MetaMessage('set_tempo', tempo=500000, time=0),\n",
       "    MetaMessage('time_signature', numerator=4, denominator=4, clocks_per_click=24, notated_32nd_notes_per_beat=8, time=0),\n",
       "    MetaMessage('end_of_track', time=1)]),\n",
       "  MidiTrack([\n",
       "    Message('note_on', channel=0, note=72, velocity=71, time=702),\n",
       "    Message('note_on', channel=0, note=60, velocity=76, time=0),\n",
       "    Message('control_change', channel=0, control=64, value=127, time=104),\n",
       "    Message('note_on', channel=0, note=60, velocity=0, time=322),\n",
       "    Message('note_on', channel=0, note=62, velocity=74, time=3),\n",
       "    Message('note_on', channel=0, note=60, velocity=61, time=2),\n",
       "    Message('control_change', channel=0, control=64, value=0, time=31),\n",
       "    Message('note_on', channel=0, note=60, velocity=0, time=8),\n",
       "    Message('note_on', channel=0, note=72, velocity=0, time=18),\n",
       "    Message('note_on', channel=0, note=72, velocity=70, time=359),\n",
       "    Message('note_on', channel=0, note=60, velocity=76, time=3),\n",
       "    Message('note_on', channel=0, note=62, velocity=0, time=34),\n",
       "    Message('control_change', channel=0, control=64, value=127, time=157),\n",
       "    Message('note_on', channel=0, note=72, velocity=0, time=223),\n",
       "    Message('note_on', channel=0, note=59, velocity=76, time=13),\n",
       "    Message('note_on', channel=0, note=71, velocity=68, time=1),\n",
       "    Message('control_change', channel=0, control=64, value=0, time=24),\n",
       "    Message('note_on', channel=0, note=60, velocity=0, time=4),\n",
       "    Message('note_on', channel=0, note=72, velocity=70, time=375),\n",
       "    Message('note_on', channel=0, note=60, velocity=76, time=1),\n",
       "    Message('note_on', channel=0, note=59, velocity=0, time=23),\n",
       "    Message('note_on', channel=0, note=71, velocity=0, time=4),\n",
       "    Message('control_change', channel=0, control=64, value=127, time=46),\n",
       "    Message('note_on', channel=0, note=72, velocity=0, time=169),\n",
       "    Message('control_change', channel=0, control=64, value=0, time=328),\n",
       "    Message('note_on', channel=0, note=60, velocity=0, time=19),\n",
       "    Message('note_on', channel=0, note=72, velocity=73, time=213),\n",
       "    Message('note_on', channel=0, note=60, velocity=79, time=2),\n",
       "    Message('control_change', channel=0, control=64, value=127, time=68),\n",
       "    Message('note_on', channel=0, note=72, velocity=0, time=299),\n",
       "    Message('control_change', channel=0, control=64, value=0, time=214),\n",
       "    Message('note_on', channel=0, note=60, velocity=0, time=14),\n",
       "    Message('note_on', channel=0, note=72, velocity=76, time=195),\n",
       "    Message('note_on', channel=0, note=60, velocity=79, time=1),\n",
       "    Message('control_change', channel=0, control=64, value=127, time=45),\n",
       "    Message('note_on', channel=0, note=60, velocity=0, time=361),\n",
       "    Message('note_on', channel=0, note=62, velocity=75, time=6),\n",
       "    Message('note_on', channel=0, note=74, velocity=65, time=4),\n",
       "    Message('note_on', channel=0, note=60, velocity=63, time=1),\n",
       "    Message('note_on', channel=0, note=74, velocity=0, time=4),\n",
       "    Message('control_change', channel=0, control=64, value=0, time=2),\n",
       "    Message('note_on', channel=0, note=72, velocity=0, time=29),\n",
       "    Message('note_on', channel=0, note=60, velocity=0, time=4),\n",
       "    Message('note_on', channel=0, note=72, velocity=72, time=381),\n",
       "    Message('note_on', channel=0, note=60, velocity=78, time=2),\n",
       "    Message('note_on', channel=0, note=62, velocity=0, time=40),\n",
       "    Message('control_change', channel=0, control=64, value=127, time=126),\n",
       "    Message('control_change', channel=0, control=64, value=0, time=235),\n",
       "    Message('note_on', channel=0, note=59, velocity=78, time=11),\n",
       "    Message('note_on', channel=0, note=71, velocity=66, time=2),\n",
       "    Message('control_change', channel=0, control=64, value=127, time=21),\n",
       "    Message('control_change', channel=0, control=64, value=0, time=15),\n",
       "    Message('note_on', channel=0, note=60, velocity=0, time=2),\n",
       "    Message('note_on', channel=0, note=72, velocity=0, time=13),\n",
       "    Message('note_on', channel=0, note=72, velocity=69, time=350),\n",
       "    Message('note_on', channel=0, note=60, velocity=76, time=1),\n",
       "    Message('note_on', channel=0, note=59, velocity=0, time=33),\n",
       "    Message('note_on', channel=0, note=71, velocity=0, time=0),\n",
       "    Message('control_change', channel=0, control=64, value=127, time=215),\n",
       "    Message('note_on', channel=0, note=72, velocity=0, time=607),\n",
       "    Message('control_change', channel=0, control=64, value=0, time=516),\n",
       "    Message('note_on', channel=0, note=60, velocity=0, time=9),\n",
       "    Message('note_on', channel=0, note=72, velocity=72, time=179),\n",
       "    Message('note_on', channel=0, note=60, velocity=76, time=0),\n",
       "    Message('control_change', channel=0, control=64, value=127, time=56),\n",
       "    Message('note_on', channel=0, note=60, velocity=0, time=354),\n",
       "    Message('note_on', channel=0, note=62, velocity=74, time=5),\n",
       "    Message('note_on', channel=0, note=60, velocity=62, time=3),\n",
       "    Message('control_change', channel=0, control=64, value=0, time=21),\n",
       "    Message('note_on', channel=0, note=72, velocity=0, time=24),\n",
       "    Message('note_on', channel=0, note=60, velocity=0, time=31),\n",
       "    Message('note_on', channel=0, note=72, velocity=69, time=328),\n",
       "    Message('note_on', channel=0, note=60, velocity=76, time=1),\n",
       "    Message('note_on', channel=0, note=62, velocity=0, time=43),\n",
       "    Message('control_change', channel=0, control=64, value=127, time=120),\n",
       "    Message('note_on', channel=0, note=71, velocity=67, time=254),\n",
       "    Message('note_on', channel=0, note=59, velocity=75, time=0),\n",
       "    Message('note_on', channel=0, note=72, velocity=0, time=15),\n",
       "    Message('note_on', channel=0, note=60, velocity=0, time=11),\n",
       "    Message('control_change', channel=0, control=64, value=0, time=7),\n",
       "    Message('note_on', channel=0, note=72, velocity=70, time=363),\n",
       "    Message('note_on', channel=0, note=60, velocity=77, time=0),\n",
       "    Message('note_on', channel=0, note=59, velocity=0, time=22),\n",
       "    Message('note_on', channel=0, note=71, velocity=0, time=4),\n",
       "    Message('control_change', channel=0, control=64, value=127, time=30),\n",
       "    Message('note_on', channel=0, note=72, velocity=0, time=185),\n",
       "    Message('control_change', channel=0, control=64, value=0, time=304),\n",
       "    Message('note_on', channel=0, note=60, velocity=0, time=20),\n",
       "    Message('note_on', channel=0, note=72, velocity=72, time=218),\n",
       "    Message('note_on', channel=0, note=60, velocity=80, time=0),\n",
       "    Message('control_change', channel=0, control=64, value=127, time=57),\n",
       "    Message('note_on', channel=0, note=72, velocity=0, time=238),\n",
       "    Message('control_change', channel=0, control=64, value=0, time=211),\n",
       "    Message('note_on', channel=0, note=60, velocity=0, time=17),\n",
       "    Message('note_on', channel=0, note=72, velocity=72, time=289),\n",
       "    Message('note_on', channel=0, note=60, velocity=76, time=1),\n",
       "    Message('control_change', channel=0, control=64, value=127, time=58),\n",
       "    Message('note_on', channel=0, note=60, velocity=0, time=361),\n",
       "    Message('control_change', channel=0, control=64, value=0, time=3),\n",
       "    Message('note_on', channel=0, note=74, velocity=65, time=2),\n",
       "    Message('note_on', channel=0, note=62, velocity=74, time=2),\n",
       "    Message('note_on', channel=0, note=60, velocity=61, time=3),\n",
       "    Message('note_on', channel=0, note=72, velocity=0, time=28),\n",
       "    Message('note_on', channel=0, note=60, velocity=0, time=31),\n",
       "    Message('note_on', channel=0, note=74, velocity=0, time=199),\n",
       "    Message('note_on', channel=0, note=72, velocity=69, time=150),\n",
       "    Message('note_on', channel=0, note=60, velocity=77, time=1),\n",
       "    Message('note_on', channel=0, note=62, velocity=0, time=37),\n",
       "    Message('note_on', channel=0, note=72, velocity=0, time=365),\n",
       "    Message('note_on', channel=0, note=71, velocity=70, time=12),\n",
       "    Message('note_on', channel=0, note=59, velocity=78, time=0),\n",
       "    Message('note_on', channel=0, note=60, velocity=0, time=37),\n",
       "    Message('note_on', channel=0, note=72, velocity=69, time=370),\n",
       "    Message('note_on', channel=0, note=60, velocity=78, time=1),\n",
       "    Message('note_on', channel=0, note=71, velocity=0, time=18),\n",
       "    Message('note_on', channel=0, note=59, velocity=0, time=10),\n",
       "    Message('control_change', channel=0, control=64, value=127, time=67),\n",
       "    Message('note_on', channel=0, note=72, velocity=0, time=1260),\n",
       "    Message('control_change', channel=0, control=64, value=0, time=276),\n",
       "    Message('note_on', channel=0, note=60, velocity=0, time=9),\n",
       "    Message('note_on', channel=0, note=72, velocity=72, time=2815),\n",
       "    Message('note_on', channel=0, note=60, velocity=77, time=1),\n",
       "    Message('control_change', channel=0, control=64, value=127, time=78),\n",
       "    Message('note_on', channel=0, note=72, velocity=0, time=169),\n",
       "    Message('note_on', channel=0, note=60, velocity=0, time=138),\n",
       "    Message('note_on', channel=0, note=62, velocity=79, time=6),\n",
       "    Message('note_on', channel=0, note=60, velocity=67, time=1),\n",
       "    Message('control_change', channel=0, control=64, value=0, time=20),\n",
       "    Message('note_on', channel=0, note=60, velocity=0, time=12),\n",
       "    Message('note_on', channel=0, note=72, velocity=73, time=365),\n",
       "    Message('note_on', channel=0, note=60, velocity=79, time=1),\n",
       "    Message('note_on', channel=0, note=62, velocity=0, time=40),\n",
       "    Message('control_change', channel=0, control=64, value=127, time=124),\n",
       "    Message('control_change', channel=0, control=64, value=0, time=202),\n",
       "    Message('note_on', channel=0, note=60, velocity=0, time=20),\n",
       "    Message('note_on', channel=0, note=62, velocity=73, time=7),\n",
       "    Message('note_on', channel=0, note=60, velocity=64, time=2),\n",
       "    Message('note_on', channel=0, note=74, velocity=66, time=0),\n",
       "    Message('note_on', channel=0, note=74, velocity=0, time=7),\n",
       "    Message('note_on', channel=0, note=72, velocity=0, time=15),\n",
       "    Message('note_on', channel=0, note=60, velocity=0, time=14),\n",
       "    Message('note_on', channel=0, note=72, velocity=73, time=358),\n",
       "    Message('note_on', channel=0, note=60, velocity=78, time=0),\n",
       "    Message('note_on', channel=0, note=62, velocity=0, time=49),\n",
       "    Message('control_change', channel=0, control=64, value=127, time=78),\n",
       "    Message('note_on', channel=0, note=72, velocity=0, time=238),\n",
       "    Message('control_change', channel=0, control=64, value=0, time=208),\n",
       "    Message('note_on', channel=0, note=60, velocity=0, time=17),\n",
       "    Message('note_on', channel=0, note=72, velocity=71, time=186),\n",
       "    Message('note_on', channel=0, note=60, velocity=77, time=1),\n",
       "    Message('control_change', channel=0, control=64, value=127, time=57),\n",
       "    Message('control_change', channel=0, control=64, value=0, time=521),\n",
       "    Message('note_on', channel=0, note=72, velocity=0, time=1),\n",
       "    Message('note_on', channel=0, note=60, velocity=0, time=12),\n",
       "    Message('note_on', channel=0, note=72, velocity=73, time=183),\n",
       "    Message('note_on', channel=0, note=60, velocity=78, time=0),\n",
       "    Message('control_change', channel=0, control=64, value=127, time=74),\n",
       "    Message('note_on', channel=0, note=72, velocity=0, time=130),\n",
       "    Message('note_on', channel=0, note=59, velocity=78, time=190),\n",
       "    Message('note_on', channel=0, note=71, velocity=70, time=1),\n",
       "    Message('note_on', channel=0, note=60, velocity=0, time=51),\n",
       "    Message('control_change', channel=0, control=64, value=0, time=3),\n",
       "    Message('note_on', channel=0, note=72, velocity=72, time=342),\n",
       "    Message('note_on', channel=0, note=60, velocity=78, time=1),\n",
       "    Message('note_on', channel=0, note=59, velocity=0, time=27),\n",
       "    Message('note_on', channel=0, note=71, velocity=0, time=7),\n",
       "    Message('control_change', channel=0, control=64, value=127, time=131),\n",
       "    Message('note_on', channel=0, note=72, velocity=0, time=46),\n",
       "    Message('note_on', channel=0, note=59, velocity=76, time=180),\n",
       "    Message('note_on', channel=0, note=71, velocity=68, time=0),\n",
       "    Message('note_on', channel=0, note=60, velocity=0, time=31),\n",
       "    Message('control_change', channel=0, control=64, value=0, time=9),\n",
       "    Message('control_change', channel=0, control=64, value=127, time=179),\n",
       "    Message('control_change', channel=0, control=64, value=0, time=135),\n",
       "    Message('note_on', channel=0, note=72, velocity=71, time=49),\n",
       "    Message('note_on', channel=0, note=60, velocity=77, time=1),\n",
       "    Message('note_on', channel=0, note=59, velocity=0, time=27),\n",
       "    Message('note_on', channel=0, note=71, velocity=0, time=3),\n",
       "    Message('control_change', channel=0, control=64, value=127, time=123),\n",
       "    Message('note_on', channel=0, note=72, velocity=0, time=384),\n",
       "    Message('control_change', channel=0, control=64, value=0, time=872),\n",
       "    Message('note_on', channel=0, note=60, velocity=0, time=1),\n",
       "    Message('note_on', channel=0, note=60, velocity=71, time=114),\n",
       "    Message('note_on', channel=0, note=72, velocity=69, time=0),\n",
       "    Message('control_change', channel=0, control=64, value=127, time=89),\n",
       "    Message('control_change', channel=0, control=64, value=0, time=288),\n",
       "    Message('note_on', channel=0, note=60, velocity=0, time=11),\n",
       "    Message('note_on', channel=0, note=62, velocity=78, time=5),\n",
       "    Message('note_on', channel=0, note=74, velocity=71, time=0),\n",
       "    Message('note_on', channel=0, note=60, velocity=67, time=2),\n",
       "    Message('note_on', channel=0, note=72, velocity=0, time=16),\n",
       "    Message('note_on', channel=0, note=60, velocity=0, time=18),\n",
       "    Message('control_change', channel=0, control=64, value=127, time=105),\n",
       "    Message('note_on', channel=0, note=74, velocity=0, time=46),\n",
       "    Message('control_change', channel=0, control=64, value=0, time=154),\n",
       "    Message('note_on', channel=0, note=72, velocity=74, time=34),\n",
       "    Message('note_on', channel=0, note=60, velocity=80, time=1),\n",
       "    Message('note_on', channel=0, note=62, velocity=0, time=95),\n",
       "    Message('control_change', channel=0, control=64, value=127, time=77),\n",
       "    Message('control_change', channel=0, control=64, value=0, time=190),\n",
       "    Message('note_on', channel=0, note=60, velocity=0, time=33),\n",
       "    Message('note_on', channel=0, note=62, velocity=74, time=4),\n",
       "    Message('note_on', channel=0, note=74, velocity=67, time=0),\n",
       "    Message('note_on', channel=0, note=60, velocity=64, time=5),\n",
       "    Message('note_on', channel=0, note=72, velocity=0, time=37),\n",
       "    Message('note_on', channel=0, note=60, velocity=0, time=38),\n",
       "    Message('control_change', channel=0, control=64, value=127, time=92),\n",
       "    Message('note_on', channel=0, note=74, velocity=0, time=77),\n",
       "    Message('control_change', channel=0, control=64, value=0, time=108),\n",
       "    Message('note_on', channel=0, note=72, velocity=74, time=40),\n",
       "    Message('note_on', channel=0, note=60, velocity=80, time=0),\n",
       "    Message('note_on', channel=0, note=62, velocity=0, time=46),\n",
       "    Message('control_change', channel=0, control=64, value=127, time=106),\n",
       "    Message('note_on', channel=0, note=72, velocity=0, time=176),\n",
       "    Message('control_change', channel=0, control=64, value=0, time=187),\n",
       "    Message('note_on', channel=0, note=60, velocity=0, time=17),\n",
       "    Message('note_on', channel=0, note=72, velocity=71, time=244),\n",
       "    Message('note_on', channel=0, note=60, velocity=74, time=0),\n",
       "    Message('control_change', channel=0, control=64, value=127, time=59),\n",
       "    Message('note_on', channel=0, note=72, velocity=0, time=453),\n",
       "    Message('control_change', channel=0, control=64, value=0, time=108),\n",
       "    Message('note_on', channel=0, note=60, velocity=0, time=11),\n",
       "    Message('note_on', channel=0, note=72, velocity=75, time=170),\n",
       "    Message('note_on', channel=0, note=60, velocity=81, time=0),\n",
       "    Message('control_change', channel=0, control=64, value=127, time=72),\n",
       "    Message('note_on', channel=0, note=72, velocity=0, time=308),\n",
       "    Message('note_on', channel=0, note=59, velocity=77, time=24),\n",
       "    Message('note_on', channel=0, note=71, velocity=70, time=1),\n",
       "    Message('note_on', channel=0, note=60, velocity=0, time=36),\n",
       "    Message('control_change', channel=0, control=64, value=0, time=4),\n",
       "    Message('note_on', channel=0, note=72, velocity=71, time=368),\n",
       "    Message('note_on', channel=0, note=60, velocity=79, time=0),\n",
       "    Message('note_on', channel=0, note=71, velocity=0, time=35),\n",
       "    Message('note_on', channel=0, note=59, velocity=0, time=3),\n",
       "    Message('control_change', channel=0, control=64, value=127, time=74),\n",
       "    Message('note_on', channel=0, note=72, velocity=0, time=115),\n",
       "    Message('note_on', channel=0, note=59, velocity=77, time=173),\n",
       "    Message('note_on', channel=0, note=71, velocity=70, time=0),\n",
       "    Message('note_on', channel=0, note=60, velocity=0, time=42),\n",
       "    Message('control_change', channel=0, control=64, value=0, time=4),\n",
       "    Message('note_on', channel=0, note=72, velocity=73, time=354),\n",
       "    Message('note_on', channel=0, note=60, velocity=77, time=1),\n",
       "    Message('note_on', channel=0, note=71, velocity=0, time=25),\n",
       "    Message('note_on', channel=0, note=59, velocity=0, time=1),\n",
       "    Message('control_change', channel=0, control=64, value=127, time=299),\n",
       "    Message('control_change', channel=0, control=64, value=0, time=453),\n",
       "    Message('note_on', channel=0, note=72, velocity=0, time=568),\n",
       "    Message('note_on', channel=0, note=60, velocity=0, time=257),\n",
       "    Message('note_on', channel=0, note=72, velocity=76, time=5270),\n",
       "    Message('note_on', channel=0, note=60, velocity=81, time=2),\n",
       "    Message('control_change', channel=0, control=64, value=127, time=93),\n",
       "    Message('note_on', channel=0, note=72, velocity=0, time=130),\n",
       "    Message('note_on', channel=0, note=60, velocity=0, time=162),\n",
       "    Message('note_on', channel=0, note=62, velocity=76, time=3),\n",
       "    Message('note_on', channel=0, note=60, velocity=64, time=1),\n",
       "    Message('control_change', channel=0, control=64, value=0, time=23),\n",
       "    Message('note_on', channel=0, note=60, velocity=0, time=40),\n",
       "    Message('control_change', channel=0, control=64, value=127, time=209),\n",
       "    Message('note_on', channel=0, note=64, velocity=85, time=108),\n",
       "    Message('control_change', channel=0, control=64, value=0, time=37),\n",
       "    Message('note_on', channel=0, note=62, velocity=0, time=62),\n",
       "    Message('note_on', channel=0, note=72, velocity=64, time=285),\n",
       "    Message('note_on', channel=0, note=60, velocity=69, time=1),\n",
       "    Message('note_on', channel=0, note=64, velocity=0, time=40),\n",
       "    Message('control_change', channel=0, control=64, value=127, time=135),\n",
       "    Message('note_on', channel=0, note=72, velocity=0, time=185),\n",
       "    Message('note_on', channel=0, note=74, velocity=66, time=25),\n",
       "    Message('note_on', channel=0, note=62, velocity=74, time=1),\n",
       "    Message('control_change', channel=0, control=64, value=0, time=17),\n",
       "    Message('note_on', channel=0, note=60, velocity=0, time=20),\n",
       "    Message('note_on', channel=0, note=74, velocity=0, time=98),\n",
       "    Message('note_on', channel=0, note=64, velocity=86, time=244),\n",
       "    Message('note_on', channel=0, note=76, velocity=72, time=3),\n",
       "    Message('note_on', channel=0, note=62, velocity=0, time=65),\n",
       "    Message('note_on', channel=0, note=62, velocity=73, time=318),\n",
       "    Message('note_on', channel=0, note=74, velocity=65, time=1),\n",
       "    Message('note_on', channel=0, note=64, velocity=0, time=50),\n",
       "    Message('note_on', channel=0, note=76, velocity=0, time=2),\n",
       "    Message('note_on', channel=0, note=74, velocity=0, time=31),\n",
       "    Message('control_change', channel=0, control=64, value=127, time=261),\n",
       "    Message('control_change', channel=0, control=64, value=0, time=8),\n",
       "    Message('control_change', channel=0, control=64, value=127, time=84),\n",
       "    Message('control_change', channel=0, control=64, value=0, time=268),\n",
       "    Message('note_on', channel=0, note=72, velocity=67, time=14),\n",
       "    Message('note_on', channel=0, note=60, velocity=73, time=1),\n",
       "    Message('note_on', channel=0, note=62, velocity=0, time=44),\n",
       "    Message('control_change', channel=0, control=64, value=127, time=126),\n",
       "    Message('note_on', channel=0, note=72, velocity=0, time=8),\n",
       "    Message('note_on', channel=0, note=59, velocity=79, time=196),\n",
       "    Message('note_on', channel=0, note=71, velocity=65, time=1),\n",
       "    Message('control_change', channel=0, control=64, value=0, time=11),\n",
       "    Message('note_on', channel=0, note=60, velocity=0, time=16),\n",
       "    Message('note_on', channel=0, note=57, velocity=71, time=360),\n",
       "    Message('note_on', channel=0, note=59, velocity=0, time=46),\n",
       "    Message('note_on', channel=0, note=71, velocity=0, time=61),\n",
       "    Message('control_change', channel=0, control=64, value=127, time=77),\n",
       "    Message('control_change', channel=0, control=64, value=0, time=131),\n",
       "    Message('note_on', channel=0, note=59, velocity=79, time=50),\n",
       "    Message('note_on', channel=0, note=71, velocity=68, time=1),\n",
       "    Message('note_on', channel=0, note=57, velocity=0, time=35),\n",
       "    Message('note_on', channel=0, note=72, velocity=68, time=348),\n",
       "    Message('note_on', channel=0, note=60, velocity=74, time=0),\n",
       "    Message('note_on', channel=0, note=59, velocity=0, time=37),\n",
       "    Message('note_on', channel=0, note=71, velocity=0, time=5),\n",
       "    Message('control_change', channel=0, control=64, value=127, time=130),\n",
       "    Message('note_on', channel=0, note=72, velocity=0, time=308),\n",
       "    Message('control_change', channel=0, control=64, value=0, time=871),\n",
       "    Message('note_on', channel=0, note=60, velocity=0, time=8),\n",
       "    Message('note_on', channel=0, note=72, velocity=66, time=131),\n",
       "    Message('note_on', channel=0, note=60, velocity=72, time=1),\n",
       "    Message('control_change', channel=0, control=64, value=127, time=87),\n",
       "    Message('note_on', channel=0, note=62, velocity=78, time=305),\n",
       "    Message('control_change', channel=0, control=64, value=0, time=5),\n",
       "    Message('note_on', channel=0, note=72, velocity=0, time=35),\n",
       "    Message('note_on', channel=0, note=60, velocity=0, time=3),\n",
       "    Message('control_change', channel=0, control=64, value=127, time=113),\n",
       "    Message('note_on', channel=0, note=64, velocity=86, time=220),\n",
       "    Message('note_on', channel=0, note=76, velocity=73, time=3),\n",
       "    Message('control_change', channel=0, control=64, value=0, time=35),\n",
       "    Message('note_on', channel=0, note=62, velocity=0, time=60),\n",
       "    Message('control_change', channel=0, control=64, value=127, time=142),\n",
       "    Message('note_on', channel=0, note=76, velocity=0, time=108),\n",
       "    Message('control_change', channel=0, control=64, value=0, time=18),\n",
       "    Message('note_on', channel=0, note=72, velocity=68, time=18),\n",
       "    Message('note_on', channel=0, note=60, velocity=74, time=3),\n",
       "    Message('note_on', channel=0, note=64, velocity=0, time=36),\n",
       "    Message('control_change', channel=0, control=64, value=127, time=102),\n",
       "    Message('note_on', channel=0, note=62, velocity=76, time=235),\n",
       "    Message('note_on', channel=0, note=74, velocity=66, time=1),\n",
       "    Message('control_change', channel=0, control=64, value=0, time=23),\n",
       "    Message('note_on', channel=0, note=72, velocity=0, time=9),\n",
       "    Message('note_on', channel=0, note=60, velocity=0, time=6),\n",
       "    Message('note_on', channel=0, note=74, velocity=0, time=102),\n",
       "    Message('control_change', channel=0, control=64, value=127, time=8),\n",
       "    Message('note_on', channel=0, note=64, velocity=83, time=221),\n",
       "    Message('note_on', channel=0, note=76, velocity=71, time=3),\n",
       "    Message('control_change', channel=0, control=64, value=0, time=43),\n",
       "    Message('note_on', channel=0, note=62, velocity=0, time=9),\n",
       "    Message('control_change', channel=0, control=64, value=127, time=161),\n",
       "    Message('note_on', channel=0, note=76, velocity=0, time=154),\n",
       "    Message('note_on', channel=0, note=62, velocity=73, time=25),\n",
       "    Message('note_on', channel=0, note=74, velocity=65, time=0),\n",
       "    Message('control_change', channel=0, control=64, value=0, time=40),\n",
       "    Message('note_on', channel=0, note=64, velocity=0, time=27),\n",
       "    Message('note_on', channel=0, note=74, velocity=0, time=46),\n",
       "    Message('control_change', channel=0, control=64, value=127, time=77),\n",
       "    Message('note_on', channel=0, note=72, velocity=66, time=557),\n",
       "    Message('note_on', channel=0, note=60, velocity=73, time=0),\n",
       "    Message('control_change', channel=0, control=64, value=0, time=37),\n",
       "    Message('note_on', channel=0, note=62, velocity=0, time=5),\n",
       "    Message('control_change', channel=0, control=64, value=127, time=131),\n",
       "    Message('note_on', channel=0, note=72, velocity=0, time=61),\n",
       "    Message('note_on', channel=0, note=59, velocity=77, time=149),\n",
       "    Message('note_on', channel=0, note=71, velocity=65, time=1),\n",
       "    Message('note_on', channel=0, note=60, velocity=0, time=43),\n",
       "    Message('control_change', channel=0, control=64, value=0, time=3),\n",
       "    Message('control_change', channel=0, control=64, value=127, time=134),\n",
       "    Message('control_change', channel=0, control=64, value=0, time=116),\n",
       "    Message('note_on', channel=0, note=57, velocity=74, time=74),\n",
       "    Message('note_on', channel=0, note=59, velocity=0, time=64),\n",
       "    Message('note_on', channel=0, note=71, velocity=0, time=30),\n",
       "    Message('note_on', channel=0, note=59, velocity=77, time=289),\n",
       "    Message('note_on', channel=0, note=71, velocity=67, time=1),\n",
       "    Message('note_on', channel=0, note=57, velocity=0, time=55),\n",
       "    Message('note_on', channel=0, note=72, velocity=67, time=343),\n",
       "    Message('note_on', channel=0, note=60, velocity=71, time=1),\n",
       "    Message('note_on', channel=0, note=59, velocity=0, time=22),\n",
       "    Message('note_on', channel=0, note=71, velocity=0, time=19),\n",
       "    Message('control_change', channel=0, control=64, value=127, time=330),\n",
       "    Message('note_on', channel=0, note=72, velocity=0, time=907),\n",
       "    Message('control_change', channel=0, control=64, value=0, time=117),\n",
       "    Message('note_on', channel=0, note=60, velocity=0, time=9),\n",
       "    Message('note_on', channel=0, note=72, velocity=70, time=2289),\n",
       "    Message('note_on', channel=0, note=60, velocity=73, time=1),\n",
       "    Message('control_change', channel=0, control=64, value=127, time=80),\n",
       "    Message('note_on', channel=0, note=60, velocity=0, time=284),\n",
       "    Message('control_change', channel=0, control=64, value=0, time=4),\n",
       "    Message('note_on', channel=0, note=60, velocity=65, time=7),\n",
       "    Message('note_on', channel=0, note=62, velocity=76, time=1),\n",
       "    Message('note_on', channel=0, note=72, velocity=0, time=49),\n",
       "    Message('note_on', channel=0, note=60, velocity=0, time=39),\n",
       "    Message('control_change', channel=0, control=64, value=127, time=107),\n",
       "    Message('note_on', channel=0, note=64, velocity=86, time=190),\n",
       "    Message('note_on', channel=0, note=76, velocity=71, time=3),\n",
       "    Message('control_change', channel=0, control=64, value=0, time=50),\n",
       "    Message('note_on', channel=0, note=62, velocity=0, time=9),\n",
       "    Message('note_on', channel=0, note=76, velocity=0, time=263),\n",
       "    Message('note_on', channel=0, note=62, velocity=73, time=34),\n",
       "    Message('note_on', channel=0, note=64, velocity=0, time=67),\n",
       "    Message('note_on', channel=0, note=72, velocity=68, time=295),\n",
       "    Message('note_on', channel=0, note=60, velocity=74, time=2),\n",
       "    Message('note_on', channel=0, note=62, velocity=0, time=108),\n",
       "    Message('control_change', channel=0, control=64, value=127, time=62),\n",
       "    Message('note_on', channel=0, note=72, velocity=0, time=261),\n",
       "    Message('control_change', channel=0, control=64, value=0, time=272),\n",
       "    Message('note_on', channel=0, note=64, velocity=84, time=9),\n",
       "    Message('note_on', channel=0, note=76, velocity=69, time=1),\n",
       "    Message('note_on', channel=0, note=60, velocity=0, time=53),\n",
       "    Message('control_change', channel=0, control=64, value=127, time=157),\n",
       "    Message('note_on', channel=0, note=76, velocity=0, time=92),\n",
       "    Message('note_on', channel=0, note=69, velocity=62, time=454),\n",
       "    Message('note_on', channel=0, note=57, velocity=73, time=1),\n",
       "    Message('note_on', channel=0, note=69, velocity=0, time=6),\n",
       "    Message('control_change', channel=0, control=64, value=0, time=44),\n",
       "    Message('note_on', channel=0, note=64, velocity=0, time=28),\n",
       "    Message('control_change', channel=0, control=64, value=127, time=181),\n",
       "    Message('note_on', channel=0, note=59, velocity=82, time=476),\n",
       "    Message('note_on', channel=0, note=71, velocity=72, time=1),\n",
       "    Message('control_change', channel=0, control=64, value=0, time=9),\n",
       "    Message('note_on', channel=0, note=57, velocity=0, time=136),\n",
       "    Message('note_on', channel=0, note=59, velocity=0, time=41),\n",
       "    Message('note_on', channel=0, note=71, velocity=0, time=44),\n",
       "    Message('note_on', channel=0, note=59, velocity=80, time=136),\n",
       "    Message('note_on', channel=0, note=71, velocity=73, time=1),\n",
       "    Message('note_on', channel=0, note=72, velocity=68, time=389),\n",
       "    Message('note_on', channel=0, note=60, velocity=74, time=1),\n",
       "    Message('note_on', channel=0, note=59, velocity=0, time=52),\n",
       "    Message('note_on', channel=0, note=71, velocity=0, time=12),\n",
       "    Message('control_change', channel=0, control=64, value=127, time=246),\n",
       "    Message('note_on', channel=0, note=72, velocity=0, time=199),\n",
       "    Message('note_on', channel=0, note=60, velocity=0, time=833),\n",
       "    Message('control_change', channel=0, control=64, value=0, time=4),\n",
       "    Message('note_on', channel=0, note=72, velocity=68, time=182),\n",
       "    Message('note_on', channel=0, note=60, velocity=72, time=1),\n",
       "    Message('control_change', channel=0, control=64, value=127, time=63),\n",
       "    Message('note_on', channel=0, note=60, velocity=0, time=300),\n",
       "    Message('note_on', channel=0, note=62, velocity=77, time=6),\n",
       "    Message('note_on', channel=0, note=60, velocity=65, time=0),\n",
       "    Message('note_on', channel=0, note=74, velocity=70, time=1),\n",
       "    Message('note_on', channel=0, note=72, velocity=0, time=31),\n",
       "    Message('control_change', channel=0, control=64, value=0, time=11),\n",
       "    Message('note_on', channel=0, note=60, velocity=0, time=1),\n",
       "    Message('control_change', channel=0, control=64, value=127, time=126),\n",
       "    Message('note_on', channel=0, note=74, velocity=0, time=108),\n",
       "    Message('note_on', channel=0, note=64, velocity=84, time=92),\n",
       "    Message('note_on', channel=0, note=76, velocity=70, time=2),\n",
       "    Message('control_change', channel=0, control=64, value=0, time=60),\n",
       "    Message('note_on', channel=0, note=62, velocity=0, time=28),\n",
       "    Message('note_on', channel=0, note=62, velocity=75, time=289),\n",
       "    Message('note_on', channel=0, note=74, velocity=69, time=0),\n",
       "    Message('note_on', channel=0, note=76, velocity=0, time=74),\n",
       "    Message('note_on', channel=0, note=64, velocity=0, time=11),\n",
       "    Message('note_on', channel=0, note=74, velocity=0, time=74),\n",
       "    Message('note_on', channel=0, note=72, velocity=68, time=226),\n",
       "    Message('note_on', channel=0, note=60, velocity=74, time=1),\n",
       "    Message('note_on', channel=0, note=62, velocity=0, time=101),\n",
       "    Message('control_change', channel=0, control=64, value=127, time=209),\n",
       "    Message('note_on', channel=0, note=72, velocity=0, time=192),\n",
       "    Message('note_on', channel=0, note=64, velocity=84, time=242),\n",
       "    Message('note_on', channel=0, note=76, velocity=71, time=1),\n",
       "    Message('control_change', channel=0, control=64, value=0, time=46),\n",
       "    Message('note_on', channel=0, note=60, velocity=0, time=10),\n",
       "    Message('control_change', channel=0, control=64, value=127, time=170),\n",
       "    Message('note_on', channel=0, note=76, velocity=0, time=69),\n",
       "    Message('note_on', channel=0, note=57, velocity=74, time=473),\n",
       "    Message('control_change', channel=0, control=64, value=0, time=62),\n",
       "    Message('note_on', channel=0, note=64, velocity=0, time=13),\n",
       "    Message('control_change', channel=0, control=64, value=127, time=174),\n",
       "    Message('note_on', channel=0, note=59, velocity=81, time=483),\n",
       "    Message('note_on', channel=0, note=71, velocity=71, time=3),\n",
       "    Message('note_on', channel=0, note=57, velocity=0, time=29),\n",
       "    Message('control_change', channel=0, control=64, value=0, time=35),\n",
       "    Message('note_on', channel=0, note=59, velocity=0, time=145),\n",
       "    Message('note_on', channel=0, note=71, velocity=0, time=34),\n",
       "    Message('note_on', channel=0, note=59, velocity=81, time=129),\n",
       "    Message('note_on', channel=0, note=71, velocity=73, time=1),\n",
       "    Message('note_on', channel=0, note=72, velocity=72, time=382),\n",
       "    Message('note_on', channel=0, note=60, velocity=76, time=1),\n",
       "    Message('note_on', channel=0, note=59, velocity=0, time=31),\n",
       "    Message('note_on', channel=0, note=71, velocity=0, time=17),\n",
       "    Message('control_change', channel=0, control=64, value=127, time=246),\n",
       "    Message('control_change', channel=0, control=64, value=0, time=31),\n",
       "    Message('control_change', channel=0, control=64, value=127, time=84),\n",
       "    Message('control_change', channel=0, control=64, value=0, time=1055),\n",
       "    Message('note_on', channel=0, note=60, velocity=0, time=8),\n",
       "    Message('note_on', channel=0, note=72, velocity=0, time=5),\n",
       "    Message('note_on', channel=0, note=72, velocity=75, time=2094),\n",
       "    Message('note_on', channel=0, note=60, velocity=81, time=4),\n",
       "    Message('control_change', channel=0, control=64, value=127, time=106),\n",
       "    Message('note_on', channel=0, note=72, velocity=0, time=100),\n",
       "    Message('note_on', channel=0, note=62, velocity=78, time=150),\n",
       "    Message('control_change', channel=0, control=64, value=0, time=33),\n",
       "    Message('note_on', channel=0, note=60, velocity=0, time=4),\n",
       "    Message('note_on', channel=0, note=64, velocity=83, time=322),\n",
       "    Message('note_on', channel=0, note=62, velocity=0, time=79),\n",
       "    Message('note_on', channel=0, note=65, velocity=78, time=301),\n",
       "    Message('note_on', channel=0, note=64, velocity=0, time=74),\n",
       "    Message('control_change', channel=0, control=64, value=127, time=296),\n",
       "    Message('note_on', channel=0, note=55, velocity=76, time=683),\n",
       "    Message('control_change', channel=0, control=64, value=0, time=43),\n",
       "    Message('note_on', channel=0, note=65, velocity=0, time=88),\n",
       "    Message('note_on', channel=0, note=57, velocity=76, time=235),\n",
       "    Message('note_on', channel=0, note=55, velocity=0, time=63),\n",
       "    Message('note_on', channel=0, note=59, velocity=81, time=277),\n",
       "    Message('note_on', channel=0, note=57, velocity=0, time=57),\n",
       "    Message('note_on', channel=0, note=60, velocity=74, time=301),\n",
       "    Message('note_on', channel=0, note=59, velocity=0, time=31),\n",
       "    Message('control_change', channel=0, control=64, value=127, time=288),\n",
       "    Message('control_change', channel=0, control=64, value=0, time=625),\n",
       "    Message('note_on', channel=0, note=60, velocity=0, time=5),\n",
       "    Message('note_on', channel=0, note=72, velocity=70, time=158),\n",
       "    Message('note_on', channel=0, note=60, velocity=72, time=2),\n",
       "    Message('control_change', channel=0, control=64, value=127, time=55),\n",
       "    Message('note_on', channel=0, note=62, velocity=78, time=308),\n",
       "    Message('control_change', channel=0, control=64, value=0, time=34),\n",
       "    Message('note_on', channel=0, note=60, velocity=0, time=0),\n",
       "    Message('note_on', channel=0, note=72, velocity=0, time=19),\n",
       "    Message('note_on', channel=0, note=64, velocity=81, time=297),\n",
       "    Message('note_on', channel=0, note=62, velocity=0, time=89),\n",
       "    Message('control_change', channel=0, control=64, value=127, time=159),\n",
       "    Message('note_on', channel=0, note=65, velocity=79, time=135),\n",
       "    Message('control_change', channel=0, control=64, value=0, time=55),\n",
       "    Message('note_on', channel=0, note=64, velocity=0, time=27),\n",
       "    Message('control_change', channel=0, control=64, value=127, time=298),\n",
       "    Message('note_on', channel=0, note=55, velocity=67, time=697),\n",
       "    Message('control_change', channel=0, control=64, value=0, time=46),\n",
       "    Message('note_on', channel=0, note=65, velocity=0, time=2),\n",
       "    Message('control_change', channel=0, control=64, value=127, time=222),\n",
       "    Message('note_on', channel=0, note=57, velocity=74, time=95),\n",
       "    Message('control_change', channel=0, control=64, value=0, time=43),\n",
       "    Message('note_on', channel=0, note=55, velocity=0, time=26),\n",
       "    Message('control_change', channel=0, control=64, value=127, time=143),\n",
       "    Message('note_on', channel=0, note=59, velocity=81, time=135),\n",
       "    Message('note_on', channel=0, note=57, velocity=0, time=46),\n",
       "    Message('control_change', channel=0, control=64, value=0, time=4),\n",
       "    Message('note_on', channel=0, note=60, velocity=76, time=304),\n",
       "    Message('note_on', channel=0, note=59, velocity=0, time=52),\n",
       "    Message('control_change', channel=0, control=64, value=127, time=82),\n",
       "    Message('note_on', channel=0, note=60, velocity=0, time=948),\n",
       "    Message('control_change', channel=0, control=64, value=0, time=4),\n",
       "    Message('note_on', channel=0, note=72, velocity=76, time=2179),\n",
       "    Message('note_on', channel=0, note=60, velocity=82, time=5),\n",
       "    Message('note_on', channel=0, note=72, velocity=0, time=5),\n",
       "    Message('control_change', channel=0, control=64, value=127, time=69),\n",
       "    Message('note_on', channel=0, note=59, velocity=83, time=284),\n",
       "    Message('note_on', channel=0, note=60, velocity=0, time=43),\n",
       "    Message('control_change', channel=0, control=64, value=0, time=13),\n",
       "    Message('note_on', channel=0, note=57, velocity=78, time=298),\n",
       "    Message('note_on', channel=0, note=59, velocity=0, time=71),\n",
       "    Message('note_on', channel=0, note=55, velocity=77, time=298),\n",
       "    Message('note_on', channel=0, note=57, velocity=0, time=45),\n",
       "    Message('control_change', channel=0, control=64, value=127, time=261),\n",
       "    Message('note_on', channel=0, note=65, velocity=76, time=788),\n",
       "    Message('control_change', channel=0, control=64, value=0, time=50),\n",
       "    Message('note_on', channel=0, note=55, velocity=0, time=27),\n",
       "    Message('note_on', channel=0, note=64, velocity=89, time=289),\n",
       "    Message('note_on', channel=0, note=65, velocity=0, time=71),\n",
       "    Message('note_on', channel=0, note=62, velocity=80, time=288),\n",
       "    Message('note_on', channel=0, note=64, velocity=0, time=50),\n",
       "    Message('note_on', channel=0, note=72, velocity=67, time=300),\n",
       "    Message('note_on', channel=0, note=60, velocity=77, time=1),\n",
       "    Message('note_on', channel=0, note=62, velocity=0, time=102),\n",
       "    Message('control_change', channel=0, control=64, value=127, time=46),\n",
       "    Message('note_on', channel=0, note=72, velocity=0, time=277),\n",
       "    Message('control_change', channel=0, control=64, value=0, time=522),\n",
       "    Message('note_on', channel=0, note=60, velocity=0, time=5),\n",
       "    Message('note_on', channel=0, note=60, velocity=75, time=143),\n",
       "    Message('note_on', channel=0, note=72, velocity=71, time=0),\n",
       "    Message('control_change', channel=0, control=64, value=127, time=90),\n",
       "    Message('note_on', channel=0, note=72, velocity=0, time=253),\n",
       "    Message('note_on', channel=0, note=59, velocity=79, time=12),\n",
       "    Message('note_on', channel=0, note=71, velocity=69, time=2),\n",
       "    Message('control_change', channel=0, control=64, value=0, time=23),\n",
       "    Message('note_on', channel=0, note=60, velocity=0, time=37),\n",
       "    Message('note_on', channel=0, note=57, velocity=76, time=293),\n",
       "    Message('note_on', channel=0, note=59, velocity=0, time=59),\n",
       "    Message('note_on', channel=0, note=71, velocity=0, time=20),\n",
       "    Message('note_on', channel=0, note=55, velocity=72, time=301),\n",
       "    Message('note_on', channel=0, note=57, velocity=0, time=42),\n",
       "    Message('control_change', channel=0, control=64, value=127, time=248),\n",
       "    Message('note_on', channel=0, note=65, velocity=84, time=758),\n",
       "    Message('control_change', channel=0, control=64, value=0, time=31),\n",
       "    Message('note_on', channel=0, note=55, velocity=0, time=20),\n",
       "    Message('control_change', channel=0, control=64, value=127, time=121),\n",
       "    Message('note_on', channel=0, note=64, velocity=86, time=208),\n",
       "    Message('control_change', channel=0, control=64, value=0, time=37),\n",
       "    Message('note_on', channel=0, note=65, velocity=0, time=35),\n",
       "    Message('note_on', channel=0, note=62, velocity=75, time=302),\n",
       "    Message('note_on', channel=0, note=64, velocity=0, time=64),\n",
       "    Message('note_on', channel=0, note=72, velocity=66, time=290),\n",
       "    Message('note_on', channel=0, note=60, velocity=72, time=2),\n",
       "    Message('note_on', channel=0, note=62, velocity=0, time=86),\n",
       "    Message('control_change', channel=0, control=64, value=127, time=81),\n",
       "    Message('note_on', channel=0, note=72, velocity=0, time=400),\n",
       "    Message('note_on', channel=0, note=60, velocity=0, time=592),\n",
       "    Message('control_change', channel=0, control=64, value=0, time=7),\n",
       "    Message('note_on', channel=0, note=72, velocity=78, time=5979),\n",
       "    Message('note_on', channel=0, note=60, velocity=82, time=1),\n",
       "    Message('control_change', channel=0, control=64, value=127, time=102),\n",
       "    Message('note_on', channel=0, note=72, velocity=0, time=108),\n",
       "    Message('note_on', channel=0, note=74, velocity=73, time=118),\n",
       "    Message('note_on', channel=0, note=62, velocity=80, time=0),\n",
       "    Message('control_change', channel=0, control=64, value=0, time=32),\n",
       "    Message('note_on', channel=0, note=60, velocity=0, time=4),\n",
       "    Message('note_on', channel=0, note=74, velocity=0, time=115),\n",
       "    Message('note_on', channel=0, note=64, velocity=90, time=193),\n",
       "    Message('note_on', channel=0, note=76, velocity=78, time=1),\n",
       "    Message('note_on', channel=0, note=62, velocity=0, time=99),\n",
       "    Message('note_on', channel=0, note=76, velocity=0, time=75),\n",
       "    Message('note_on', channel=0, note=65, velocity=83, time=166),\n",
       "    Message('note_on', channel=0, note=64, velocity=0, time=59),\n",
       "    Message('note_on', channel=0, note=79, velocity=81, time=286),\n",
       "    Message('note_on', channel=0, note=67, velocity=92, time=1),\n",
       "    Message('note_on', channel=0, note=65, velocity=0, time=38),\n",
       "    Message('note_on', channel=0, note=79, velocity=0, time=19),\n",
       "    Message('note_on', channel=0, note=65, velocity=80, time=290),\n",
       "    Message('note_on', channel=0, note=77, velocity=69, time=1),\n",
       "    Message('control_change', channel=0, control=64, value=127, time=8),\n",
       "    Message('control_change', channel=0, control=64, value=0, time=35),\n",
       "    Message('note_on', channel=0, note=77, velocity=0, time=11),\n",
       "    Message('note_on', channel=0, note=67, velocity=0, time=26),\n",
       "    Message('note_on', channel=0, note=64, velocity=85, time=262),\n",
       "    Message('note_on', channel=0, note=76, velocity=71, time=2),\n",
       "    Message('note_on', channel=0, note=65, velocity=0, time=84),\n",
       "    Message('note_on', channel=0, note=62, velocity=74, time=270),\n",
       "    Message('note_on', channel=0, note=74, velocity=66, time=0),\n",
       "    Message('note_on', channel=0, note=76, velocity=0, time=17),\n",
       "    Message('note_on', channel=0, note=64, velocity=0, time=39),\n",
       "    Message('note_on', channel=0, note=74, velocity=0, time=253),\n",
       "    Message('note_on', channel=0, note=72, velocity=73, time=24),\n",
       "    Message('note_on', channel=0, note=60, velocity=79, time=2),\n",
       "    Message('note_on', channel=0, note=62, velocity=0, time=98),\n",
       "    Message('control_change', channel=0, control=64, value=127, time=229),\n",
       "    Message('note_on', channel=0, note=55, velocity=74, time=383),\n",
       "    Message('control_change', channel=0, control=64, value=0, time=59),\n",
       "    Message('note_on', channel=0, note=60, velocity=0, time=7),\n",
       "    Message('note_on', channel=0, note=72, velocity=0, time=27),\n",
       "    Message('control_change', channel=0, control=64, value=127, time=138),\n",
       "    Message('note_on', channel=0, note=72, velocity=74, time=436),\n",
       "    Message('note_on', channel=0, note=60, velocity=79, time=1),\n",
       "    Message('note_on', channel=0, note=55, velocity=0, time=41),\n",
       "    Message('control_change', channel=0, control=64, value=0, time=1),\n",
       "    Message('control_change', channel=0, control=64, value=127, time=128),\n",
       "    Message('note_on', channel=0, note=55, velocity=69, time=539),\n",
       "    Message('control_change', channel=0, control=64, value=0, time=57),\n",
       "    Message('note_on', channel=0, note=60, velocity=0, time=7),\n",
       "    Message('note_on', channel=0, note=72, velocity=0, time=4),\n",
       "    Message('control_change', channel=0, control=64, value=127, time=153),\n",
       "    Message('note_on', channel=0, note=72, velocity=71, time=434),\n",
       "    Message('note_on', channel=0, note=60, velocity=74, time=1),\n",
       "    Message('control_change', channel=0, control=64, value=0, time=33),\n",
       "    Message('note_on', channel=0, note=55, velocity=0, time=35),\n",
       "    Message('control_change', channel=0, control=64, value=127, time=96),\n",
       "    Message('note_on', channel=0, note=62, velocity=77, time=151),\n",
       "    Message('control_change', channel=0, control=64, value=0, time=30),\n",
       "    Message('note_on', channel=0, note=72, velocity=0, time=27),\n",
       "    Message('note_on', channel=0, note=60, velocity=0, time=10),\n",
       "    Message('control_change', channel=0, control=64, value=127, time=74),\n",
       "    Message('control_change', channel=0, control=64, value=0, time=161),\n",
       "    Message('note_on', channel=0, note=64, velocity=87, time=22),\n",
       "    Message('note_on', channel=0, note=76, velocity=72, time=3),\n",
       "    Message('note_on', channel=0, note=62, velocity=0, time=79),\n",
       "    Message('note_on', channel=0, note=76, velocity=0, time=219),\n",
       "    Message('note_on', channel=0, note=65, velocity=79, time=43),\n",
       "    Message('note_on', channel=0, note=64, velocity=0, time=69),\n",
       "    Message('note_on', channel=0, note=79, velocity=78, time=269),\n",
       "    Message('note_on', channel=0, note=67, velocity=90, time=0),\n",
       "    Message('note_on', channel=0, note=65, velocity=0, time=72),\n",
       "    Message('note_on', channel=0, note=79, velocity=0, time=161),\n",
       "    Message('note_on', channel=0, note=65, velocity=81, time=89),\n",
       "    Message('note_on', channel=0, note=77, velocity=73, time=0),\n",
       "    Message('note_on', channel=0, note=77, velocity=0, time=57),\n",
       "    Message('note_on', channel=0, note=67, velocity=0, time=22),\n",
       "    Message('note_on', channel=0, note=64, velocity=85, time=252),\n",
       "    Message('note_on', channel=0, note=76, velocity=71, time=2),\n",
       "    Message('note_on', channel=0, note=65, velocity=0, time=81),\n",
       "    Message('note_on', channel=0, note=76, velocity=0, time=235),\n",
       "    Message('note_on', channel=0, note=74, velocity=67, time=28),\n",
       "    Message('note_on', channel=0, note=62, velocity=74, time=0),\n",
       "    Message('note_on', channel=0, note=64, velocity=0, time=80),\n",
       "    Message('note_on', channel=0, note=74, velocity=0, time=45),\n",
       "    Message('note_on', channel=0, note=72, velocity=69, time=217),\n",
       "    Message('note_on', channel=0, note=60, velocity=74, time=2),\n",
       "    Message('note_on', channel=0, note=62, velocity=0, time=46),\n",
       "    Message('control_change', channel=0, control=64, value=127, time=127),\n",
       "    Message('note_on', channel=0, note=72, velocity=0, time=369),\n",
       "    Message('note_on', channel=0, note=59, velocity=79, time=163),\n",
       "    Message('note_on', channel=0, note=71, velocity=68, time=1),\n",
       "    Message('control_change', channel=0, control=64, value=0, time=41),\n",
       "    Message('note_on', channel=0, note=60, velocity=0, time=35),\n",
       "    Message('control_change', channel=0, control=64, value=127, time=359),\n",
       "    Message('control_change', channel=0, control=64, value=0, time=169),\n",
       "    Message('note_on', channel=0, note=72, velocity=73, time=58),\n",
       "    Message('note_on', channel=0, note=60, velocity=74, time=1),\n",
       "    Message('note_on', channel=0, note=71, velocity=0, time=25),\n",
       "    Message('note_on', channel=0, note=59, velocity=0, time=77),\n",
       "    Message('control_change', channel=0, control=64, value=127, time=154),\n",
       "    Message('control_change', channel=0, control=64, value=0, time=629),\n",
       "    Message('control_change', channel=0, control=64, value=127, time=185),\n",
       "    Message('note_on', channel=0, note=72, velocity=0, time=122),\n",
       "    Message('control_change', channel=0, control=64, value=0, time=8),\n",
       "    Message('note_on', channel=0, note=60, velocity=0, time=1),\n",
       "    Message('note_on', channel=0, note=72, velocity=72, time=2317),\n",
       "    Message('note_on', channel=0, note=60, velocity=78, time=3),\n",
       "    Message('control_change', channel=0, control=64, value=127, time=83),\n",
       "    Message('note_on', channel=0, note=72, velocity=0, time=223),\n",
       "    Message('note_on', channel=0, note=59, velocity=80, time=24),\n",
       "    Message('note_on', channel=0, note=71, velocity=70, time=1),\n",
       "    Message('control_change', channel=0, control=64, value=0, time=45),\n",
       "    Message('note_on', channel=0, note=60, velocity=0, time=37),\n",
       "    Message('note_on', channel=0, note=57, velocity=75, time=252),\n",
       "    Message('note_on', channel=0, note=71, velocity=0, time=63),\n",
       "    Message('note_on', channel=0, note=59, velocity=0, time=7),\n",
       "    Message('note_on', channel=0, note=55, velocity=71, time=266),\n",
       "    Message('note_on', channel=0, note=57, velocity=0, time=45),\n",
       "    Message('note_on', channel=0, note=53, velocity=77, time=281),\n",
       "    Message('note_on', channel=0, note=55, velocity=0, time=42),\n",
       "    Message('note_on', channel=0, note=55, velocity=73, time=283),\n",
       "    Message('note_on', channel=0, note=53, velocity=0, time=46),\n",
       "    Message('note_on', channel=0, note=57, velocity=72, time=302),\n",
       "    Message('note_on', channel=0, note=55, velocity=0, time=65),\n",
       "    Message('note_on', channel=0, note=59, velocity=80, time=257),\n",
       "    Message('note_on', channel=0, note=71, velocity=71, time=0),\n",
       "    Message('note_on', channel=0, note=57, velocity=0, time=45),\n",
       "    Message('note_on', channel=0, note=72, velocity=72, time=280),\n",
       "    Message('note_on', channel=0, note=60, velocity=79, time=0),\n",
       "    Message('note_on', channel=0, note=59, velocity=0, time=29),\n",
       "    Message('note_on', channel=0, note=71, velocity=0, time=11),\n",
       "    Message('control_change', channel=0, control=64, value=127, time=61),\n",
       "    Message('note_on', channel=0, note=72, velocity=0, time=399),\n",
       "    Message('control_change', channel=0, control=64, value=0, time=148),\n",
       "    Message('note_on', channel=0, note=64, velocity=86, time=24),\n",
       "    Message('note_on', channel=0, note=60, velocity=0, time=56),\n",
       "    Message('note_on', channel=0, note=64, velocity=0, time=392),\n",
       "    Message('note_on', channel=0, note=64, velocity=87, time=209),\n",
       "    Message('note_on', channel=0, note=76, velocity=74, time=3),\n",
       "    Message('control_change', channel=0, control=64, value=127, time=343),\n",
       "    Message('note_on', channel=0, note=62, velocity=69, time=310),\n",
       "    Message('control_change', channel=0, control=64, value=0, time=45),\n",
       "    Message('note_on', channel=0, note=64, velocity=0, time=10),\n",
       "    Message('note_on', channel=0, note=76, velocity=0, time=4),\n",
       "    Message('control_change', channel=0, control=64, value=127, time=131),\n",
       "    Message('note_on', channel=0, note=72, velocity=72, time=434),\n",
       "    Message('note_on', channel=0, note=60, velocity=76, time=0),\n",
       "    Message('control_change', channel=0, control=64, value=0, time=14),\n",
       "    Message('note_on', channel=0, note=62, velocity=0, time=17),\n",
       "    Message('control_change', channel=0, control=64, value=127, time=80),\n",
       "    Message('note_on', channel=0, note=59, velocity=78, time=230),\n",
       "    Message('note_on', channel=0, note=71, velocity=68, time=2),\n",
       "    Message('note_on', channel=0, note=72, velocity=0, time=21),\n",
       "    Message('control_change', channel=0, control=64, value=0, time=19),\n",
       "    Message('note_on', channel=0, note=60, velocity=0, time=2),\n",
       "    Message('note_on', channel=0, note=57, velocity=70, time=268),\n",
       "    Message('note_on', channel=0, note=59, velocity=0, time=45),\n",
       "    Message('note_on', channel=0, note=71, velocity=0, time=35),\n",
       "    Message('note_on', channel=0, note=55, velocity=69, time=249),\n",
       "    Message('note_on', channel=0, note=57, velocity=0, time=39),\n",
       "    Message('control_change', channel=0, control=64, value=127, time=58),\n",
       "    Message('control_change', channel=0, control=64, value=0, time=107),\n",
       "    Message('note_on', channel=0, note=53, velocity=79, time=137),\n",
       "    Message('note_on', channel=0, note=55, velocity=0, time=42),\n",
       "    Message('control_change', channel=0, control=64, value=127, time=59),\n",
       "    Message('note_on', channel=0, note=55, velocity=75, time=218),\n",
       "    Message('control_change', channel=0, control=64, value=0, time=31),\n",
       "    Message('note_on', channel=0, note=53, velocity=0, time=9),\n",
       "    Message('note_on', channel=0, note=57, velocity=73, time=286),\n",
       "    Message('note_on', channel=0, note=55, velocity=0, time=65),\n",
       "    Message('control_change', channel=0, control=64, value=127, time=113),\n",
       "    Message('note_on', channel=0, note=59, velocity=79, time=149),\n",
       "    Message('note_on', channel=0, note=57, velocity=0, time=44),\n",
       "    Message('control_change', channel=0, control=64, value=0, time=2),\n",
       "    Message('note_on', channel=0, note=72, velocity=70, time=293),\n",
       "    Message('note_on', channel=0, note=60, velocity=76, time=1),\n",
       "    Message('note_on', channel=0, note=59, velocity=0, time=34),\n",
       "    Message('control_change', channel=0, control=64, value=127, time=91),\n",
       "    Message('note_on', channel=0, note=72, velocity=0, time=400),\n",
       "    Message('note_on', channel=0, note=64, velocity=83, time=144),\n",
       "    Message('control_change', channel=0, control=64, value=0, time=17),\n",
       "    Message('note_on', channel=0, note=60, velocity=0, time=63),\n",
       "    Message('control_change', channel=0, control=64, value=127, time=106),\n",
       "    Message('note_on', channel=0, note=60, velocity=75, time=463),\n",
       "    Message('note_on', channel=0, note=72, velocity=67, time=0),\n",
       "    Message('control_change', channel=0, control=64, value=0, time=83),\n",
       "    Message('note_on', channel=0, note=64, velocity=0, time=11),\n",
       "    Message('control_change', channel=0, control=64, value=127, time=434),\n",
       "    Message('control_change', channel=0, control=64, value=0, time=138),\n",
       "    Message('note_on', channel=0, note=72, velocity=0, time=399),\n",
       "    Message('note_on', channel=0, note=60, velocity=0, time=214),\n",
       "    Message('note_on', channel=0, note=72, velocity=72, time=5628),\n",
       "    Message('note_on', channel=0, note=60, velocity=78, time=3),\n",
       "    Message('note_on', channel=0, note=72, velocity=0, time=8),\n",
       "    Message('control_change', channel=0, control=64, value=127, time=99),\n",
       "    Message('note_on', channel=0, note=64, velocity=87, time=219),\n",
       "    Message('note_on', channel=0, note=76, velocity=71, time=2),\n",
       "    Message('note_on', channel=0, note=76, velocity=0, time=10),\n",
       "    Message('control_change', channel=0, control=64, value=0, time=36),\n",
       "    Message('note_on', channel=0, note=60, velocity=0, time=4),\n",
       "    Message('note_on', channel=0, note=79, velocity=76, time=266),\n",
       "    Message('note_on', channel=0, note=67, velocity=87, time=2),\n",
       "    Message('note_on', channel=0, note=79, velocity=0, time=37),\n",
       "    Message('note_on', channel=0, note=64, velocity=0, time=3),\n",
       "    Message('note_on', channel=0, note=65, velocity=78, time=287),\n",
       "    Message('note_on', channel=0, note=67, velocity=0, time=76),\n",
       "    Message('control_change', channel=0, control=64, value=127, time=210),\n",
       "    Message('note_on', channel=0, note=64, velocity=85, time=57),\n",
       "    Message('note_on', channel=0, note=76, velocity=72, time=1),\n",
       "    Message('control_change', channel=0, control=64, value=0, time=66),\n",
       "    Message('note_on', channel=0, note=65, velocity=0, time=10),\n",
       "    Message('note_on', channel=0, note=76, velocity=0, time=174),\n",
       "    Message('note_on', channel=0, note=62, velocity=74, time=92),\n",
       "    Message('note_on', channel=0, note=64, velocity=0, time=71),\n",
       "    Message('note_on', channel=0, note=60, velocity=77, time=270),\n",
       "    Message('note_on', channel=0, note=72, velocity=69, time=0),\n",
       "    Message('note_on', channel=0, note=62, velocity=0, time=104),\n",
       "    Message('control_change', channel=0, control=64, value=127, time=131),\n",
       "    Message('note_on', channel=0, note=57, velocity=70, time=407),\n",
       "    Message('note_on', channel=0, note=72, velocity=0, time=46),\n",
       "    Message('control_change', channel=0, control=64, value=0, time=4),\n",
       "    Message('note_on', channel=0, note=60, velocity=0, time=6),\n",
       "    Message('control_change', channel=0, control=64, value=127, time=105),\n",
       "    Message('note_on', channel=0, note=55, velocity=71, time=203),\n",
       "    Message('control_change', channel=0, control=64, value=0, time=63),\n",
       "    Message('note_on', channel=0, note=57, velocity=0, time=0),\n",
       "    Message('control_change', channel=0, control=64, value=127, time=256),\n",
       "    Message('note_on', channel=0, note=55, velocity=0, time=699),\n",
       "    Message('note_on', channel=0, note=55, velocity=55, time=6),\n",
       "    Message('note_on', channel=0, note=62, velocity=84, time=2),\n",
       "    Message('control_change', channel=0, control=64, value=0, time=43),\n",
       "    Message('note_on', channel=0, note=55, velocity=0, time=6),\n",
       "    Message('control_change', channel=0, control=64, value=127, time=174),\n",
       "    Message('note_on', channel=0, note=59, velocity=85, time=470),\n",
       "    Message('control_change', channel=0, control=64, value=0, time=37),\n",
       "    Message('note_on', channel=0, note=62, velocity=0, time=43),\n",
       "    Message('note_on', channel=0, note=52, velocity=22, time=215),\n",
       "    Message('note_on', channel=0, note=52, velocity=0, time=10),\n",
       "    Message('note_on', channel=0, note=55, velocity=77, time=49),\n",
       "    Message('note_on', channel=0, note=59, velocity=0, time=66),\n",
       "    Message('control_change', channel=0, control=64, value=127, time=192),\n",
       "    Message('note_on', channel=0, note=64, velocity=89, time=730),\n",
       "    Message('control_change', channel=0, control=64, value=0, time=26),\n",
       "    Message('note_on', channel=0, note=55, velocity=0, time=32),\n",
       "    Message('control_change', channel=0, control=64, value=127, time=303),\n",
       "    Message('note_on', channel=0, note=60, velocity=78, time=304),\n",
       "    Message('control_change', channel=0, control=64, value=0, time=31),\n",
       "    Message('note_on', channel=0, note=64, velocity=0, time=35),\n",
       "    Message('control_change', channel=0, control=64, value=127, time=60),\n",
       "    Message('note_on', channel=0, note=55, velocity=75, time=243),\n",
       "    Message('control_change', channel=0, control=64, value=0, time=34),\n",
       "    Message('note_on', channel=0, note=60, velocity=0, time=14),\n",
       "    Message('control_change', channel=0, control=64, value=127, time=216),\n",
       "    Message('control_change', channel=0, control=64, value=0, time=749),\n",
       "    Message('note_on', channel=0, note=72, velocity=72, time=9),\n",
       "    Message('note_on', channel=0, note=60, velocity=74, time=1),\n",
       "    Message('note_on', channel=0, note=55, velocity=0, time=41),\n",
       "    Message('control_change', channel=0, control=64, value=127, time=68),\n",
       "    Message('note_on', channel=0, note=64, velocity=88, time=223),\n",
       "    Message('note_on', channel=0, note=76, velocity=72, time=1),\n",
       "    Message('note_on', channel=0, note=72, velocity=0, time=14),\n",
       "    Message('control_change', channel=0, control=64, value=0, time=27),\n",
       "    Message('note_on', channel=0, note=60, velocity=0, time=9),\n",
       "    Message('note_on', channel=0, note=76, velocity=0, time=210),\n",
       "    Message('note_on', channel=0, note=79, velocity=75, time=74),\n",
       "    Message('note_on', channel=0, note=67, velocity=83, time=1),\n",
       "    Message('note_on', channel=0, note=64, velocity=0, time=36),\n",
       "    Message('note_on', channel=0, note=79, velocity=0, time=19),\n",
       "    Message('note_on', channel=0, note=65, velocity=74, time=266),\n",
       "    Message('note_on', channel=0, note=67, velocity=0, time=69),\n",
       "    Message('control_change', channel=0, control=64, value=127, time=180),\n",
       "    Message('control_change', channel=0, control=64, value=0, time=84),\n",
       "    Message('note_on', channel=0, note=64, velocity=81, time=12),\n",
       "    Message('note_on', channel=0, note=76, velocity=67, time=2),\n",
       "    Message('note_on', channel=0, note=65, velocity=0, time=83),\n",
       "    Message('note_on', channel=0, note=74, velocity=65, time=257),\n",
       "    Message('note_on', channel=0, note=62, velocity=71, time=2),\n",
       "    Message('note_on', channel=0, note=76, velocity=0, time=51),\n",
       "    Message('note_on', channel=0, note=64, velocity=0, time=13),\n",
       "    Message('note_on', channel=0, note=74, velocity=0, time=102),\n",
       "    Message('note_on', channel=0, note=72, velocity=67, time=177),\n",
       "    Message('note_on', channel=0, note=60, velocity=74, time=2),\n",
       "    Message('note_on', channel=0, note=62, velocity=0, time=55),\n",
       "    Message('control_change', channel=0, control=64, value=127, time=120),\n",
       "    Message('note_on', channel=0, note=57, velocity=73, time=476),\n",
       "    Message('control_change', channel=0, control=64, value=0, time=45),\n",
       "    Message('note_on', channel=0, note=72, velocity=0, time=16),\n",
       "    Message('note_on', channel=0, note=60, velocity=0, time=2),\n",
       "    Message('control_change', channel=0, control=64, value=127, time=75),\n",
       "    Message('note_on', channel=0, note=55, velocity=72, time=223),\n",
       "    Message('note_on', channel=0, note=57, velocity=0, time=60),\n",
       "    Message('control_change', channel=0, control=64, value=0, time=5),\n",
       "    Message('control_change', channel=0, control=64, value=127, time=150),\n",
       "    Message('note_on', channel=0, note=55, velocity=0, time=791),\n",
       "    Message('control_change', channel=0, control=64, value=0, time=10),\n",
       "    Message('note_on', channel=0, note=55, velocity=53, time=1),\n",
       "    Message('note_on', channel=0, note=62, velocity=76, time=1),\n",
       "    Message('note_on', channel=0, note=55, velocity=0, time=45),\n",
       "    Message('control_change', channel=0, control=64, value=127, time=127),\n",
       "    Message('note_on', channel=0, note=59, velocity=79, time=475),\n",
       "    Message('control_change', channel=0, control=64, value=0, time=48),\n",
       "    Message('note_on', channel=0, note=62, velocity=0, time=6),\n",
       "    Message('note_on', channel=0, note=55, velocity=71, time=291),\n",
       "    Message('note_on', channel=0, note=59, velocity=0, time=63),\n",
       "    Message('control_change', channel=0, control=64, value=127, time=185),\n",
       "    Message('control_change', channel=0, control=64, value=0, time=370),\n",
       "    Message('note_on', channel=0, note=55, velocity=0, time=14),\n",
       "    Message('note_on', channel=0, note=55, velocity=53, time=10),\n",
       "    Message('note_on', channel=0, note=62, velocity=75, time=1),\n",
       "    Message('note_on', channel=0, note=55, velocity=0, time=57),\n",
       "    Message('note_on', channel=0, note=72, velocity=68, time=284),\n",
       "    Message('note_on', channel=0, note=60, velocity=74, time=1),\n",
       "    Message('note_on', channel=0, note=62, velocity=0, time=41),\n",
       "    Message('control_change', channel=0, control=64, value=127, time=136),\n",
       "    Message('note_on', channel=0, note=72, velocity=0, time=176),\n",
       "    Message('note_on', channel=0, note=60, velocity=0, time=590),\n",
       "    Message('control_change', channel=0, control=64, value=0, time=2),\n",
       "    Message('note_on', channel=0, note=72, velocity=87, time=187),\n",
       "    Message('note_on', channel=0, note=60, velocity=91, time=0),\n",
       "    Message('control_change', channel=0, control=64, value=127, time=66),\n",
       "    Message('control_change', channel=0, control=64, value=0, time=54),\n",
       "    Message('note_on', channel=0, note=60, velocity=0, time=12),\n",
       "    Message('note_on', channel=0, note=72, velocity=0, time=11),\n",
       "    Message('note_on', channel=0, note=60, velocity=81, time=4850),\n",
       "    Message('control_change', channel=0, control=64, value=127, time=65),\n",
       "    Message('note_on', channel=0, note=59, velocity=82, time=266),\n",
       "    Message('note_on', channel=0, note=60, velocity=0, time=45),\n",
       "    Message('control_change', channel=0, control=64, value=0, time=8),\n",
       "    Message('note_on', channel=0, note=57, velocity=80, time=263),\n",
       "    Message('note_on', channel=0, note=59, velocity=0, time=75),\n",
       "    Message('note_on', channel=0, note=55, velocity=80, time=237),\n",
       "    Message('note_on', channel=0, note=57, velocity=0, time=55),\n",
       "    Message('note_on', channel=0, note=53, velocity=83, time=285),\n",
       "    Message('note_on', channel=0, note=55, velocity=0, time=41),\n",
       "    Message('control_change', channel=0, control=64, value=127, time=46),\n",
       "    Message('control_change', channel=0, control=64, value=0, time=246),\n",
       "    Message('note_on', channel=0, note=53, velocity=0, time=9),\n",
       "    Message('note_on', channel=0, note=59, velocity=86, time=879),\n",
       "    Message('note_on', channel=0, note=71, velocity=80, time=1),\n",
       "    Message('control_change', channel=0, control=64, value=127, time=125),\n",
       "    Message('control_change', channel=0, control=64, value=0, time=157),\n",
       "    Message('control_change', channel=0, control=64, value=127, time=4),\n",
       "    Message('note_on', channel=0, note=57, velocity=83, time=32),\n",
       "    Message('control_change', channel=0, control=64, value=0, time=18),\n",
       "    Message('note_on', channel=0, note=59, velocity=0, time=24),\n",
       "    Message('note_on', channel=0, note=71, velocity=0, time=10),\n",
       "    Message('note_on', channel=0, note=55, velocity=83, time=265),\n",
       "    Message('note_on', channel=0, note=57, velocity=0, time=44),\n",
       "    Message('note_on', channel=0, note=53, velocity=78, time=263),\n",
       "    Message('note_on', channel=0, note=55, velocity=0, time=56),\n",
       "    Message('note_on', channel=0, note=52, velocity=78, time=271),\n",
       "    Message('note_on', channel=0, note=53, velocity=0, time=31),\n",
       "    Message('note_on', channel=0, note=52, velocity=0, time=284),\n",
       "    Message('note_on', channel=0, note=57, velocity=72, time=880),\n",
       "    Message('note_on', channel=0, note=55, velocity=83, time=318),\n",
       "    Message('note_on', channel=0, note=57, velocity=0, time=44),\n",
       "    Message('note_on', channel=0, note=53, velocity=81, time=252),\n",
       "    Message('note_on', channel=0, note=55, velocity=0, time=40),\n",
       "    Message('control_change', channel=0, control=64, value=127, time=79),\n",
       "    Message('control_change', channel=0, control=64, value=0, time=115),\n",
       "    Message('note_on', channel=0, note=52, velocity=80, time=84),\n",
       "    Message('note_on', channel=0, note=53, velocity=0, time=15),\n",
       "    Message('note_on', channel=0, note=50, velocity=73, time=310),\n",
       "    Message('note_on', channel=0, note=62, velocity=64, time=1),\n",
       "    Message('note_on', channel=0, note=52, velocity=0, time=1),\n",
       "    Message('note_on', channel=0, note=62, velocity=0, time=265),\n",
       "    Message('note_on', channel=0, note=50, velocity=0, time=23),\n",
       "    Message('note_on', channel=0, note=55, velocity=77, time=895),\n",
       "    Message('note_on', channel=0, note=53, velocity=86, time=312),\n",
       "    Message('note_on', channel=0, note=55, velocity=0, time=42),\n",
       "    Message('control_change', channel=0, control=64, value=127, time=79),\n",
       "    Message('note_on', channel=0, note=52, velocity=87, time=179),\n",
       "    Message('note_on', channel=0, note=53, velocity=0, time=27),\n",
       "    Message('control_change', channel=0, control=64, value=0, time=5),\n",
       "    Message('note_on', channel=0, note=50, velocity=76, time=279),\n",
       "    Message('note_on', channel=0, note=52, velocity=0, time=19),\n",
       "    Message('note_on', channel=0, note=48, velocity=74, time=300),\n",
       "    Message('note_on', channel=0, note=50, velocity=0, time=32),\n",
       "    Message('note_on', channel=0, note=48, velocity=0, time=315),\n",
       "    Message('note_on', channel=0, note=72, velocity=81, time=5378),\n",
       "    Message('note_on', channel=0, note=60, velocity=85, time=2),\n",
       "    Message('note_on', channel=0, note=72, velocity=0, time=92),\n",
       "    Message('control_change', channel=0, control=64, value=127, time=100),\n",
       "    Message('note_on', channel=0, note=59, velocity=86, time=134),\n",
       "    Message('note_on', channel=0, note=71, velocity=75, time=0),\n",
       "    Message('note_on', channel=0, note=60, velocity=0, time=31),\n",
       "    Message('control_change', channel=0, control=64, value=0, time=9),\n",
       "    Message('note_on', channel=0, note=71, velocity=0, time=118),\n",
       "    Message('note_on', channel=0, note=57, velocity=78, time=169),\n",
       "    Message('note_on', channel=0, note=59, velocity=0, time=65),\n",
       "    Message('note_on', channel=0, note=55, velocity=76, time=241),\n",
       "    Message('note_on', channel=0, note=57, velocity=0, time=52),\n",
       "    Message('control_change', channel=0, control=64, value=127, time=72),\n",
       "    Message('note_on', channel=0, note=53, velocity=82, time=195),\n",
       "    Message('control_change', channel=0, control=64, value=0, time=46),\n",
       "    Message('note_on', channel=0, note=55, velocity=0, time=26),\n",
       "    Message('control_change', channel=0, control=64, value=127, time=163),\n",
       "    Message('note_on', channel=0, note=62, velocity=63, time=77),\n",
       "    Message('note_on', channel=0, note=64, velocity=73, time=327),\n",
       "    Message('note_on', channel=0, note=76, velocity=60, time=1),\n",
       "    Message('control_change', channel=0, control=64, value=0, time=17),\n",
       "    Message('note_on', channel=0, note=62, velocity=0, time=50),\n",
       "    Message('control_change', channel=0, control=64, value=127, time=20),\n",
       "    Message('note_on', channel=0, note=76, velocity=0, time=138),\n",
       "    Message('note_on', channel=0, note=65, velocity=67, time=95),\n",
       "    Message('note_on', channel=0, note=77, velocity=58, time=6),\n",
       "    Message('note_on', channel=0, note=77, velocity=0, time=6),\n",
       "    Message('control_change', channel=0, control=64, value=0, time=29),\n",
       "    Message('note_on', channel=0, note=64, velocity=0, time=6),\n",
       "    Message('note_on', channel=0, note=59, velocity=84, time=251),\n",
       "    Message('note_on', channel=0, note=71, velocity=73, time=1),\n",
       "    Message('note_on', channel=0, note=53, velocity=0, time=17),\n",
       "    Message('note_on', channel=0, note=65, velocity=0, time=76),\n",
       "    Message('note_on', channel=0, note=57, velocity=81, time=225),\n",
       "    Message('note_on', channel=0, note=71, velocity=0, time=33),\n",
       "    Message('note_on', channel=0, note=59, velocity=0, time=15),\n",
       "    Message('note_on', channel=0, note=55, velocity=78, time=279),\n",
       "    Message('note_on', channel=0, note=57, velocity=0, time=45),\n",
       "    Message('note_on', channel=0, note=53, velocity=76, time=254),\n",
       "    Message('note_on', channel=0, note=55, velocity=0, time=41),\n",
       "    Message('note_on', channel=0, note=52, velocity=75, time=278),\n",
       "    Message('note_on', channel=0, note=53, velocity=0, time=37),\n",
       "    Message('control_change', channel=0, control=64, value=127, time=111),\n",
       "    Message('control_change', channel=0, control=64, value=0, time=79),\n",
       "    Message('control_change', channel=0, control=64, value=127, time=5),\n",
       "    Message('note_on', channel=0, note=60, velocity=67, time=74),\n",
       "    Message('note_on', channel=0, note=72, velocity=62, time=1),\n",
       "    Message('note_on', channel=0, note=72, velocity=0, time=10),\n",
       "    Message('control_change', channel=0, control=64, value=0, time=245),\n",
       "    Message('note_on', channel=0, note=52, velocity=0, time=54),\n",
       "    Message('note_on', channel=0, note=52, velocity=46, time=10),\n",
       "    Message('note_on', channel=0, note=62, velocity=61, time=1),\n",
       "    Message('note_on', channel=0, note=60, velocity=0, time=33),\n",
       "    Message('note_on', channel=0, note=64, velocity=62, time=297),\n",
       "    Message('note_on', channel=0, note=76, velocity=52, time=8),\n",
       "    Message('note_on', channel=0, note=76, velocity=0, time=4),\n",
       "    Message('note_on', channel=0, note=62, velocity=0, time=73),\n",
       "    Message('note_on', channel=0, note=57, velocity=72, time=188),\n",
       "    Message('note_on', channel=0, note=52, velocity=0, time=40),\n",
       "    Message('note_on', channel=0, note=64, velocity=0, time=30),\n",
       "    Message('note_on', channel=0, note=55, velocity=83, time=225),\n",
       "    Message('note_on', channel=0, note=57, velocity=0, time=38),\n",
       "    Message('note_on', channel=0, note=53, velocity=84, time=277),\n",
       "    Message('note_on', channel=0, note=55, velocity=0, time=48),\n",
       "    Message('note_on', channel=0, note=52, velocity=80, time=246),\n",
       "    Message('note_on', channel=0, note=64, velocity=65, time=1),\n",
       "    Message('note_on', channel=0, note=64, velocity=0, time=9),\n",
       "    Message('note_on', channel=0, note=53, velocity=0, time=5),\n",
       "    Message('note_on', channel=0, note=50, velocity=77, time=297),\n",
       "    Message('note_on', channel=0, note=62, velocity=67, time=1),\n",
       "    Message('note_on', channel=0, note=52, velocity=0, time=26),\n",
       "    Message('note_on', channel=0, note=65, velocity=79, time=284),\n",
       "    Message('note_on', channel=0, note=64, velocity=75, time=321),\n",
       "    Message('note_on', channel=0, note=65, velocity=0, time=55),\n",
       "    Message('note_on', channel=0, note=62, velocity=0, time=10),\n",
       "    Message('note_on', channel=0, note=62, velocity=61, time=259),\n",
       "    Message('note_on', channel=0, note=64, velocity=0, time=37),\n",
       "    Message('note_on', channel=0, note=55, velocity=77, time=251),\n",
       "    Message('note_on', channel=0, note=50, velocity=0, time=45),\n",
       "    Message('note_on', channel=0, note=62, velocity=0, time=34),\n",
       "    Message('note_on', channel=0, note=53, velocity=82, time=224),\n",
       "    Message('note_on', channel=0, note=55, velocity=0, time=62),\n",
       "    Message('note_on', channel=0, note=52, velocity=81, time=242),\n",
       "    Message('note_on', channel=0, note=53, velocity=0, time=29),\n",
       "    Message('note_on', channel=0, note=50, velocity=72, time=270),\n",
       "    Message('note_on', channel=0, note=62, velocity=63, time=1),\n",
       "    Message('note_on', channel=0, note=62, velocity=0, time=5),\n",
       "    Message('note_on', channel=0, note=52, velocity=0, time=11),\n",
       "    Message('note_on', channel=0, note=48, velocity=77, time=293),\n",
       "    Message('note_on', channel=0, note=50, velocity=0, time=33),\n",
       "    Message('note_on', channel=0, note=62, velocity=62, time=291),\n",
       "    Message('note_on', channel=0, note=60, velocity=68, time=341),\n",
       "    Message('note_on', channel=0, note=62, velocity=0, time=49),\n",
       "    Message('control_change', channel=0, control=64, value=127, time=265),\n",
       "    Message('control_change', channel=0, control=64, value=0, time=338),\n",
       "    Message('note_on', channel=0, note=60, velocity=0, time=55),\n",
       "    Message('note_on', channel=0, note=48, velocity=0, time=3),\n",
       "    Message('note_on', channel=0, note=64, velocity=96, time=3416),\n",
       "    Message('control_change', channel=0, control=64, value=127, time=327),\n",
       "    Message('note_on', channel=0, note=48, velocity=47, time=50),\n",
       "    Message('note_on', channel=0, note=55, velocity=62, time=361),\n",
       "    Message('note_on', channel=0, note=48, velocity=0, time=88),\n",
       "    Message('note_on', channel=0, note=55, velocity=0, time=238),\n",
       "    Message('note_on', channel=0, note=55, velocity=57, time=9),\n",
       "    Message('note_on', channel=0, note=79, velocity=80, time=1),\n",
       "    Message('note_on', channel=0, note=67, velocity=88, time=1),\n",
       "    Message('control_change', channel=0, control=64, value=0, time=15),\n",
       "    Message('note_on', channel=0, note=64, velocity=0, time=18),\n",
       "    Message('note_on', channel=0, note=55, velocity=0, time=6),\n",
       "    Message('note_on', channel=0, note=79, velocity=0, time=42),\n",
       "    Message('control_change', channel=0, control=64, value=127, time=116),\n",
       "    Message('note_on', channel=0, note=52, velocity=57, time=155),\n",
       "    Message('control_change', channel=0, control=64, value=0, time=211),\n",
       "    Message('note_on', channel=0, note=55, velocity=60, time=130),\n",
       "    Message('note_on', channel=0, note=52, velocity=0, time=47),\n",
       "    Message('control_change', channel=0, control=64, value=127, time=63),\n",
       "    Message('note_on', channel=0, note=65, velocity=84, time=220),\n",
       "    Message('control_change', channel=0, control=64, value=0, time=34),\n",
       "    Message('note_on', channel=0, note=55, velocity=0, time=42),\n",
       "    Message('note_on', channel=0, note=67, velocity=0, time=46),\n",
       "    Message('note_on', channel=0, note=50, velocity=61, time=222),\n",
       "    Message('note_on', channel=0, note=55, velocity=51, time=367),\n",
       "    Message('note_on', channel=0, note=50, velocity=0, time=39),\n",
       "    Message('note_on', channel=0, note=64, velocity=85, time=295),\n",
       "    Message('note_on', channel=0, note=55, velocity=0, time=44),\n",
       "    Message('note_on', channel=0, note=65, velocity=0, time=118),\n",
       "    Message('note_on', channel=0, note=48, velocity=62, time=178),\n",
       "    Message('control_change', channel=0, control=64, value=127, time=100),\n",
       "    Message('note_on', channel=0, note=48, velocity=0, time=246),\n",
       "    Message('note_on', channel=0, note=48, velocity=40, time=8),\n",
       "    Message('note_on', channel=0, note=55, velocity=51, time=4),\n",
       "    Message('control_change', channel=0, control=64, value=0, time=10),\n",
       "    Message('note_on', channel=0, note=48, velocity=0, time=24),\n",
       "    Message('control_change', channel=0, control=64, value=127, time=54),\n",
       "    Message('note_on', channel=0, note=62, velocity=71, time=250),\n",
       "    Message('note_on', channel=0, note=55, velocity=0, time=37),\n",
       "    Message('note_on', channel=0, note=64, velocity=0, time=87),\n",
       "    Message('control_change', channel=0, control=64, value=0, time=4),\n",
       "    Message('note_on', channel=0, note=53, velocity=71, time=201),\n",
       "    Message('control_change', channel=0, control=64, value=127, time=74),\n",
       "    Message('control_change', channel=0, control=64, value=0, time=266),\n",
       "    Message('note_on', channel=0, note=55, velocity=60, time=10),\n",
       "    Message('note_on', channel=0, note=53, velocity=0, time=30),\n",
       "    Message('control_change', channel=0, control=64, value=127, time=85),\n",
       "    Message('note_on', channel=0, note=64, velocity=89, time=237),\n",
       "    Message('note_on', channel=0, note=76, velocity=75, time=2),\n",
       "    Message('control_change', channel=0, control=64, value=0, time=20),\n",
       "    Message('note_on', channel=0, note=55, velocity=0, time=14),\n",
       "    Message('note_on', channel=0, note=62, velocity=0, time=115),\n",
       "    Message('note_on', channel=0, note=48, velocity=61, time=178),\n",
       "    Message('control_change', channel=0, control=64, value=127, time=64),\n",
       "    Message('note_on', channel=0, note=76, velocity=0, time=69),\n",
       "    Message('control_change', channel=0, control=64, value=0, time=200),\n",
       "    Message('note_on', channel=0, note=55, velocity=53, time=30),\n",
       "    Message('note_on', channel=0, note=48, velocity=0, time=34),\n",
       "    Message('control_change', channel=0, control=64, value=127, time=97),\n",
       "    Message('note_on', channel=0, note=65, velocity=81, time=211),\n",
       "    Message('note_on', channel=0, note=77, velocity=71, time=1),\n",
       "    Message('control_change', channel=0, control=64, value=0, time=10),\n",
       "    Message('note_on', channel=0, note=77, velocity=0, time=1),\n",
       "    Message('note_on', channel=0, note=55, velocity=0, time=28),\n",
       "    Message('note_on', channel=0, note=64, velocity=0, time=91),\n",
       "    Message('control_change', channel=0, control=64, value=127, time=181),\n",
       "    Message('control_change', channel=0, control=64, value=0, time=15),\n",
       "    Message('note_on', channel=0, note=62, velocity=56, time=1),\n",
       "    Message('note_on', channel=0, note=50, velocity=59, time=0),\n",
       "    Message('control_change', channel=0, control=64, value=127, time=91),\n",
       "    Message('control_change', channel=0, control=64, value=0, time=200),\n",
       "    Message('note_on', channel=0, note=55, velocity=61, time=61),\n",
       "    Message('note_on', channel=0, note=50, velocity=0, time=6),\n",
       "    Message('control_change', channel=0, control=64, value=127, time=163),\n",
       "    Message('note_on', channel=0, note=53, velocity=61, time=197),\n",
       "    Message('note_on', channel=0, note=62, velocity=0, time=72),\n",
       "    Message('note_on', channel=0, note=55, velocity=0, time=18),\n",
       "    Message('control_change', channel=0, control=64, value=0, time=3),\n",
       "    Message('note_on', channel=0, note=55, velocity=59, time=249),\n",
       "    Message('note_on', channel=0, note=53, velocity=0, time=4),\n",
       "    Message('control_change', channel=0, control=64, value=127, time=141),\n",
       "    Message('note_on', channel=0, note=53, velocity=61, time=201),\n",
       "    Message('control_change', channel=0, control=64, value=0, time=75),\n",
       "    Message('note_on', channel=0, note=55, velocity=0, time=41),\n",
       "    Message('control_change', channel=0, control=64, value=127, time=44),\n",
       "    Message('control_change', channel=0, control=64, value=0, time=115),\n",
       "    Message('note_on', channel=0, note=53, velocity=0, time=31),\n",
       "    Message('note_on', channel=0, note=64, velocity=89, time=2),\n",
       "    Message('note_on', channel=0, note=65, velocity=0, time=19),\n",
       "    Message('note_on', channel=0, note=48, velocity=62, time=314),\n",
       "    Message('control_change', channel=0, control=64, value=127, time=87),\n",
       "    Message('control_change', channel=0, control=64, value=0, time=223),\n",
       "    Message('note_on', channel=0, note=55, velocity=52, time=36),\n",
       "    Message('note_on', channel=0, note=48, velocity=0, time=45),\n",
       "    Message('control_change', channel=0, control=64, value=127, time=157),\n",
       "    Message('note_on', channel=0, note=79, velocity=80, time=135),\n",
       "    Message('note_on', channel=0, note=67, velocity=88, time=2),\n",
       "    Message('control_change', channel=0, control=64, value=0, time=27),\n",
       "    Message('note_on', channel=0, note=64, velocity=0, time=3),\n",
       "    Message('note_on', channel=0, note=55, velocity=0, time=5),\n",
       "    Message('note_on', channel=0, note=79, velocity=0, time=20),\n",
       "    Message('control_change', channel=0, control=64, value=127, time=138),\n",
       "    Message('note_on', channel=0, note=52, velocity=57, time=131),\n",
       "    Message('control_change', channel=0, control=64, value=0, time=292),\n",
       "    Message('note_on', channel=0, note=55, velocity=54, time=50),\n",
       "    Message('note_on', channel=0, note=52, velocity=0, time=74),\n",
       "    Message('control_change', channel=0, control=64, value=127, time=75),\n",
       "    Message('note_on', channel=0, note=65, velocity=77, time=205),\n",
       "    Message('control_change', channel=0, control=64, value=0, time=64),\n",
       "    Message('note_on', channel=0, note=55, velocity=0, time=8),\n",
       "    Message('note_on', channel=0, note=67, velocity=0, time=56),\n",
       "    Message('note_on', channel=0, note=50, velocity=54, time=209),\n",
       "    Message('note_on', channel=0, note=55, velocity=44, time=390),\n",
       "    Message('note_on', channel=0, note=50, velocity=0, time=23),\n",
       "    Message('note_on', channel=0, note=64, velocity=77, time=289),\n",
       "    Message('note_on', channel=0, note=55, velocity=0, time=43),\n",
       "    Message('note_on', channel=0, note=65, velocity=0, time=93),\n",
       "    Message('note_on', channel=0, note=48, velocity=57, time=222),\n",
       "    Message('control_change', channel=0, control=64, value=127, time=80),\n",
       "    Message('note_on', channel=0, note=55, velocity=47, time=274),\n",
       "    Message('note_on', channel=0, note=48, velocity=0, time=24),\n",
       "    Message('control_change', channel=0, control=64, value=0, time=0),\n",
       "    Message('control_change', channel=0, control=64, value=127, time=55),\n",
       "    Message('note_on', channel=0, note=62, velocity=68, time=251),\n",
       "    Message('control_change', channel=0, control=64, value=0, time=23),\n",
       "    Message('note_on', channel=0, note=55, velocity=0, time=12),\n",
       "    Message('note_on', channel=0, note=64, velocity=0, time=92),\n",
       "    Message('control_change', channel=0, control=64, value=127, time=52),\n",
       "    Message('note_on', channel=0, note=53, velocity=56, time=159),\n",
       "    Message('control_change', channel=0, control=64, value=0, time=343),\n",
       "    Message('note_on', channel=0, note=55, velocity=55, time=23),\n",
       "    Message('note_on', channel=0, note=53, velocity=0, time=86),\n",
       "    Message('control_change', channel=0, control=64, value=127, time=165),\n",
       "    Message('note_on', channel=0, note=64, velocity=80, time=65),\n",
       "    Message('control_change', channel=0, control=64, value=0, time=27),\n",
       "    Message('note_on', channel=0, note=55, velocity=0, time=27),\n",
       "    Message('note_on', channel=0, note=62, velocity=0, time=78),\n",
       "    Message('note_on', channel=0, note=53, velocity=60, time=214),\n",
       "    Message('control_change', channel=0, control=64, value=127, time=111),\n",
       "    Message('control_change', channel=0, control=64, value=0, time=193),\n",
       "    Message('note_on', channel=0, note=55, velocity=52, time=54),\n",
       "    Message('note_on', channel=0, note=53, velocity=0, time=56),\n",
       "    Message('control_change', channel=0, control=64, value=127, time=143),\n",
       "    Message('note_on', channel=0, note=60, velocity=75, time=110),\n",
       "    Message('control_change', channel=0, control=64, value=0, time=28),\n",
       "    Message('note_on', channel=0, note=55, velocity=0, time=5),\n",
       "    Message('control_change', channel=0, control=64, value=127, time=79),\n",
       "    Message('note_on', channel=0, note=64, velocity=0, time=35),\n",
       "    Message('control_change', channel=0, control=64, value=0, time=4),\n",
       "    Message('note_on', channel=0, note=52, velocity=44, time=216),\n",
       "    Message('note_on', channel=0, note=52, velocity=0, time=356),\n",
       "    Message('note_on', channel=0, note=55, velocity=49, time=4),\n",
       "    Message('control_change', channel=0, control=64, value=127, time=77),\n",
       "    Message('note_on', channel=0, note=48, velocity=51, time=294),\n",
       "    Message('control_change', channel=0, control=64, value=0, time=97),\n",
       "    Message('note_on', channel=0, note=55, velocity=0, time=46),\n",
       "    Message('note_on', channel=0, note=48, velocity=0, time=1065),\n",
       "    Message('note_on', channel=0, note=60, velocity=0, time=57),\n",
       "    Message('note_on', channel=0, note=79, velocity=86, time=5749),\n",
       "    Message('note_on', channel=0, note=67, velocity=92, time=1),\n",
       "    Message('note_on', channel=0, note=48, velocity=79, time=1),\n",
       "    Message('control_change', channel=0, control=64, value=127, time=124),\n",
       "    Message('note_on', channel=0, note=79, velocity=0, time=176),\n",
       "    Message('note_on', channel=0, note=62, velocity=66, time=8),\n",
       "    Message('note_on', channel=0, note=50, velocity=74, time=0),\n",
       "    Message('note_on', channel=0, note=48, velocity=0, time=49),\n",
       "    Message('control_change', channel=0, control=64, value=0, time=1),\n",
       "    Message('note_on', channel=0, note=52, velocity=87, time=237),\n",
       "    Message('note_on', channel=0, note=50, velocity=0, time=39),\n",
       "    Message('note_on', channel=0, note=62, velocity=0, time=20),\n",
       "    Message('note_on', channel=0, note=53, velocity=86, time=218),\n",
       "    Message('note_on', channel=0, note=52, velocity=0, time=16),\n",
       "    Message('control_change', channel=0, control=64, value=127, time=96),\n",
       "    Message('note_on', channel=0, note=60, velocity=80, time=189),\n",
       "    Message('note_on', channel=0, note=55, velocity=75, time=6),\n",
       "    Message('control_change', channel=0, control=64, value=0, time=22),\n",
       "    Message('note_on', channel=0, note=53, velocity=0, time=10),\n",
       "    Message('note_on', channel=0, note=67, velocity=0, time=3),\n",
       "    Message('note_on', channel=0, note=53, velocity=74, time=241),\n",
       "    Message('note_on', channel=0, note=55, velocity=0, time=32),\n",
       "    Message('note_on', channel=0, note=53, velocity=0, time=260),\n",
       "    Message('note_on', channel=0, note=52, velocity=68, time=3),\n",
       "    Message('note_on', channel=0, note=62, velocity=57, time=258),\n",
       "    Message('note_on', channel=0, note=50, velocity=66, time=0),\n",
       "    Message('note_on', channel=0, note=62, velocity=0, time=5),\n",
       "    Message('note_on', channel=0, note=52, velocity=0, time=6),\n",
       "    Message('note_on', channel=0, note=60, velocity=0, time=263),\n",
       "    Message('note_on', channel=0, note=79, velocity=81, time=7),\n",
       "    Message('note_on', channel=0, note=67, velocity=87, time=0),\n",
       "    Message('note_on', channel=0, note=60, velocity=74, time=2),\n",
       "    Message('note_on', channel=0, note=48, velocity=76, time=1),\n",
       "    Message('note_on', channel=0, note=50, velocity=0, time=21),\n",
       "    Message('note_on', channel=0, note=60, velocity=0, time=57),\n",
       "    Message('note_on', channel=0, note=79, velocity=0, time=81),\n",
       "    Message('note_on', channel=0, note=65, velocity=78, time=129),\n",
       "    Message('note_on', channel=0, note=67, velocity=0, time=69),\n",
       "    Message('note_on', channel=0, note=64, velocity=83, time=213),\n",
       "    Message('note_on', channel=0, note=76, velocity=71, time=1),\n",
       "    Message('note_on', channel=0, note=65, velocity=0, time=75),\n",
       "    Message('note_on', channel=0, note=74, velocity=64, time=210),\n",
       "    Message('note_on', channel=0, note=62, velocity=70, time=3),\n",
       "    Message('note_on', channel=0, note=76, velocity=0, time=60),\n",
       "    Message('note_on', channel=0, note=64, velocity=0, time=21),\n",
       "    Message('note_on', channel=0, note=72, velocity=73, time=186),\n",
       "    Message('note_on', channel=0, note=60, velocity=78, time=4),\n",
       "    Message('note_on', channel=0, note=55, velocity=74, time=1),\n",
       "    Message('note_on', channel=0, note=74, velocity=0, time=3),\n",
       "    Message('note_on', channel=0, note=48, velocity=0, time=40),\n",
       "    Message('note_on', channel=0, note=62, velocity=0, time=46),\n",
       "    Message('note_on', channel=0, note=62, velocity=72, time=202),\n",
       "    Message('note_on', channel=0, note=60, velocity=0, time=53),\n",
       "    Message('note_on', channel=0, note=72, velocity=0, time=43),\n",
       "    Message('control_change', channel=0, control=64, value=127, time=39),\n",
       "    Message('note_on', channel=0, note=64, velocity=84, time=137),\n",
       "    Message('note_on', channel=0, note=76, velocity=71, time=2),\n",
       "    Message('control_change', channel=0, control=64, value=0, time=64),\n",
       "    Message('note_on', channel=0, note=62, velocity=0, time=47),\n",
       "    Message('note_on', channel=0, note=65, velocity=79, time=176),\n",
       "    Message('note_on', channel=0, note=77, velocity=69, time=2),\n",
       "    Message('note_on', channel=0, note=77, velocity=0, time=9),\n",
       "    Message('note_on', channel=0, note=64, velocity=0, time=52),\n",
       "    Message('note_on', channel=0, note=67, velocity=84, time=206),\n",
       "    Message('note_on', channel=0, note=79, velocity=81, time=0),\n",
       "    Message('note_on', channel=0, note=48, velocity=70, time=2),\n",
       "    Message('note_on', channel=0, note=55, velocity=0, time=38),\n",
       "    Message('note_on', channel=0, note=65, velocity=0, time=5),\n",
       "    Message('note_on', channel=0, note=76, velocity=0, time=81),\n",
       "    Message('note_on', channel=0, note=62, velocity=59, time=164),\n",
       "    Message('note_on', channel=0, note=50, velocity=70, time=0),\n",
       "    Message('note_on', channel=0, note=48, velocity=0, time=19),\n",
       "    Message('note_on', channel=0, note=52, velocity=80, time=259),\n",
       "    Message('note_on', channel=0, note=50, velocity=0, time=31),\n",
       "    Message('note_on', channel=0, note=62, velocity=0, time=19),\n",
       "    Message('note_on', channel=0, note=53, velocity=80, time=217),\n",
       "    Message('note_on', channel=0, note=52, velocity=0, time=26),\n",
       "    Message('note_on', channel=0, note=79, velocity=0, time=3),\n",
       "    Message('note_on', channel=0, note=60, velocity=77, time=257),\n",
       "    Message('note_on', channel=0, note=55, velocity=72, time=0),\n",
       "    Message('note_on', channel=0, note=53, velocity=0, time=15),\n",
       "    Message('note_on', channel=0, note=67, velocity=0, time=1),\n",
       "    Message('control_change', channel=0, control=64, value=127, time=126),\n",
       "    Message('control_change', channel=0, control=64, value=0, time=69),\n",
       "    Message('note_on', channel=0, note=53, velocity=68, time=58),\n",
       "    Message('control_change', channel=0, control=64, value=127, time=27),\n",
       "    Message('control_change', channel=0, control=64, value=0, time=75),\n",
       "    Message('note_on', channel=0, note=55, velocity=0, time=21),\n",
       "    Message('note_on', channel=0, note=52, velocity=71, time=160),\n",
       "    Message('note_on', channel=0, note=53, velocity=0, time=16),\n",
       "    Message('note_on', channel=0, note=50, velocity=65, time=247),\n",
       "    Message('note_on', channel=0, note=62, velocity=57, time=1),\n",
       "    Message('note_on', channel=0, note=52, velocity=0, time=13),\n",
       "    Message('note_on', channel=0, note=48, velocity=72, time=237),\n",
       "    Message('note_on', channel=0, note=60, velocity=0, time=13),\n",
       "    Message('note_on', channel=0, note=60, velocity=70, time=4),\n",
       "    Message('note_on', channel=0, note=79, velocity=75, time=8),\n",
       "    Message('note_on', channel=0, note=67, velocity=80, time=2),\n",
       "    Message('note_on', channel=0, note=50, velocity=0, time=31),\n",
       "    Message('note_on', channel=0, note=62, velocity=0, time=24),\n",
       "    Message('note_on', channel=0, note=79, velocity=0, time=215),\n",
       "    Message('note_on', channel=0, note=65, velocity=76, time=16),\n",
       "    Message('note_on', channel=0, note=67, velocity=0, time=80),\n",
       "    Message('note_on', channel=0, note=60, velocity=0, time=12),\n",
       "    Message('note_on', channel=0, note=64, velocity=82, time=179),\n",
       "    Message('note_on', channel=0, note=76, velocity=72, time=1),\n",
       "    Message('note_on', channel=0, note=65, velocity=0, time=78),\n",
       "    Message('note_on', channel=0, note=74, velocity=64, time=195),\n",
       "    Message('note_on', channel=0, note=62, velocity=69, time=2),\n",
       "    Message('note_on', channel=0, note=64, velocity=0, time=72),\n",
       "    Message('note_on', channel=0, note=76, velocity=0, time=3),\n",
       "    Message('note_on', channel=0, note=72, velocity=63, time=226),\n",
       "    Message('note_on', channel=0, note=60, velocity=66, time=1),\n",
       "    Message('note_on', channel=0, note=74, velocity=0, time=126),\n",
       "    Message('note_on', channel=0, note=62, velocity=0, time=3),\n",
       "    Message('control_change', channel=0, control=64, value=127, time=327),\n",
       "    Message('control_change', channel=0, control=64, value=0, time=23),\n",
       "    Message('control_change', channel=0, control=64, value=127, time=85),\n",
       "    Message('control_change', channel=0, control=64, value=0, time=660),\n",
       "    Message('note_on', channel=0, note=48, velocity=0, time=18),\n",
       "    Message('note_on', channel=0, note=60, velocity=0, time=47),\n",
       "    Message('note_on', channel=0, note=72, velocity=0, time=12),\n",
       "    Message('note_on', channel=0, note=72, velocity=82, time=2072),\n",
       "    Message('note_on', channel=0, note=60, velocity=86, time=2),\n",
       "    Message('control_change', channel=0, control=64, value=127, time=69),\n",
       "    Message('note_on', channel=0, note=64, velocity=70, time=192),\n",
       "    Message('note_on', channel=0, note=55, velocity=76, time=251),\n",
       "    Message('note_on', channel=0, note=64, velocity=0, time=44),\n",
       "    Message('control_change', channel=0, control=64, value=0, time=9),\n",
       "    Message('note_on', channel=0, note=60, velocity=0, time=8),\n",
       "    Message('note_on', channel=0, note=72, velocity=0, time=10),\n",
       "    Message('control_change', channel=0, control=64, value=127, time=131),\n",
       "    Message('note_on', channel=0, note=64, velocity=65, time=71),\n",
       "    Message('note_on', channel=0, note=60, velocity=80, time=246),\n",
       "    Message('control_change', channel=0, control=64, value=0, time=18),\n",
       "    Message('note_on', channel=0, note=64, velocity=0, time=9),\n",
       "    Message('note_on', channel=0, note=55, velocity=0, time=40),\n",
       "    Message('control_change', channel=0, control=64, value=127, time=138),\n",
       "    Message('note_on', channel=0, note=64, velocity=69, time=52),\n",
       "    Message('note_on', channel=0, note=55, velocity=72, time=262),\n",
       "    Message('note_on', channel=0, note=64, velocity=0, time=50),\n",
       "    Message('control_change', channel=0, control=64, value=0, time=9),\n",
       "    Message('note_on', channel=0, note=60, velocity=0, time=0),\n",
       "    Message('control_change', channel=0, control=64, value=127, time=195),\n",
       "    Message('note_on', channel=0, note=64, velocity=70, time=5),\n",
       "    Message('note_on', channel=0, note=59, velocity=77, time=271),\n",
       "    Message('note_on', channel=0, note=74, velocity=64, time=3),\n",
       "    Message('note_on', channel=0, note=71, velocity=72, time=1),\n",
       "    Message('note_on', channel=0, note=62, velocity=69, time=1),\n",
       "    Message('note_on', channel=0, note=55, velocity=0, time=84),\n",
       "    Message('note_on', channel=0, note=64, velocity=0, time=2),\n",
       "    Message('control_change', channel=0, control=64, value=0, time=11),\n",
       "    Message('note_on', channel=0, note=74, velocity=0, time=6),\n",
       "    Message('note_on', channel=0, note=64, velocity=85, time=143),\n",
       "    Message('note_on', channel=0, note=76, velocity=74, time=1),\n",
       "    Message('note_on', channel=0, note=62, velocity=0, time=136),\n",
       "    Message('note_on', channel=0, note=71, velocity=0, time=89),\n",
       "    Message('note_on', channel=0, note=77, velocity=69, time=56),\n",
       "    Message('note_on', channel=0, note=65, velocity=75, time=0),\n",
       "    Message('note_on', channel=0, note=55, velocity=63, time=2),\n",
       "    Message('note_on', channel=0, note=76, velocity=0, time=19),\n",
       "    Message('note_on', channel=0, note=59, velocity=0, time=49),\n",
       "    Message('note_on', channel=0, note=64, velocity=0, time=29),\n",
       "    Message('note_on', channel=0, note=77, velocity=0, time=83),\n",
       "    Message('note_on', channel=0, note=62, velocity=68, time=82),\n",
       "    Message('note_on', channel=0, note=65, velocity=0, time=83),\n",
       "    Message('note_on', channel=0, note=64, velocity=85, time=183),\n",
       "    Message('note_on', channel=0, note=60, velocity=73, time=6),\n",
       "    Message('note_on', channel=0, note=55, velocity=0, time=33),\n",
       "    Message('note_on', channel=0, note=62, velocity=0, time=69),\n",
       "    Message('note_on', channel=0, note=65, velocity=79, time=146),\n",
       "    Message('note_on', channel=0, note=64, velocity=0, time=85),\n",
       "    Message('note_on', channel=0, note=79, velocity=79, time=176),\n",
       "    Message('note_on', channel=0, note=67, velocity=83, time=2),\n",
       "    Message('note_on', channel=0, note=55, velocity=55, time=20),\n",
       "    Message('note_on', channel=0, note=65, velocity=0, time=30),\n",
       "    Message('note_on', channel=0, note=79, velocity=0, time=7),\n",
       "    Message('note_on', channel=0, note=60, velocity=0, time=42),\n",
       "    Message('control_change', channel=0, control=64, value=127, time=104),\n",
       "    Message('note_on', channel=0, note=72, velocity=73, time=332),\n",
       "    Message('note_on', channel=0, note=60, velocity=77, time=0),\n",
       "    Message('control_change', channel=0, control=64, value=0, time=4),\n",
       "    Message('note_on', channel=0, note=67, velocity=0, time=74),\n",
       "    Message('note_on', channel=0, note=55, velocity=0, time=12),\n",
       "    Message('control_change', channel=0, control=64, value=127, time=131),\n",
       "    Message('note_on', channel=0, note=64, velocity=67, time=32),\n",
       "    Message('note_on', channel=0, note=55, velocity=68, time=259),\n",
       "    Message('note_on', channel=0, note=64, velocity=0, time=41),\n",
       "    Message('control_change', channel=0, control=64, value=0, time=7),\n",
       "    Message('note_on', channel=0, note=60, velocity=0, time=26),\n",
       "    Message('note_on', channel=0, note=72, velocity=0, time=3),\n",
       "    Message('note_on', channel=0, note=64, velocity=66, time=172),\n",
       "    Message('control_change', channel=0, control=64, value=127, time=12),\n",
       "    Message('note_on', channel=0, note=72, velocity=68, time=254),\n",
       "    Message('note_on', channel=0, note=60, velocity=74, time=2),\n",
       "    Message('note_on', channel=0, note=55, velocity=0, time=34),\n",
       "    Message('note_on', channel=0, note=64, velocity=0, time=5),\n",
       "    Message('control_change', channel=0, control=64, value=0, time=9),\n",
       "    Message('note_on', channel=0, note=64, velocity=71, time=202),\n",
       "    Message('control_change', channel=0, control=64, value=127, time=32),\n",
       "    Message('note_on', channel=0, note=55, velocity=62, time=234),\n",
       "    Message('note_on', channel=0, note=64, velocity=0, time=31),\n",
       "    Message('control_change', channel=0, control=64, value=0, time=4),\n",
       "    Message('note_on', channel=0, note=72, velocity=0, time=50),\n",
       "    Message('note_on', channel=0, note=60, velocity=0, time=11),\n",
       "    Message('note_on', channel=0, note=64, velocity=63, time=151),\n",
       "    Message('control_change', channel=0, control=64, value=127, time=11),\n",
       "    Message('note_on', channel=0, note=55, velocity=0, time=253),\n",
       "    Message('note_on', channel=0, note=55, velocity=52, time=4),\n",
       "    Message('note_on', channel=0, note=59, velocity=74, time=0),\n",
       "    Message('note_on', channel=0, note=62, velocity=68, time=1),\n",
       "    Message('note_on', channel=0, note=55, velocity=0, time=58),\n",
       "    Message('note_on', channel=0, note=64, velocity=0, time=5),\n",
       "    Message('control_change', channel=0, control=64, value=0, time=20),\n",
       "    Message('note_on', channel=0, note=59, velocity=0, time=168),\n",
       "    Message('note_on', channel=0, note=64, velocity=84, time=1),\n",
       "    Message('note_on', channel=0, note=62, velocity=0, time=141),\n",
       "    Message('note_on', channel=0, note=65, velocity=78, time=118),\n",
       "    Message('note_on', channel=0, note=55, velocity=66, time=8),\n",
       "    Message('note_on', channel=0, note=59, velocity=62, time=1),\n",
       "    Message('note_on', channel=0, note=64, velocity=0, time=48),\n",
       "    Message('note_on', channel=0, note=59, velocity=0, time=37),\n",
       "    Message('note_on', channel=0, note=55, velocity=0, time=143),\n",
       "    Message('note_on', channel=0, note=55, velocity=55, time=10),\n",
       "    Message('note_on', channel=0, note=62, velocity=73, time=1),\n",
       "    Message('note_on', channel=0, note=65, velocity=0, time=78),\n",
       "    Message('note_on', channel=0, note=64, velocity=78, time=216),\n",
       "    Message('note_on', channel=0, note=60, velocity=64, time=7),\n",
       "    Message('note_on', channel=0, note=55, velocity=0, time=79),\n",
       "    Message('note_on', channel=0, note=62, velocity=0, time=22),\n",
       "    Message('control_change', channel=0, control=64, value=127, time=347),\n",
       "    Message('control_change', channel=0, control=64, value=0, time=625),\n",
       "    Message('note_on', channel=0, note=60, velocity=0, time=1),\n",
       "    Message('note_on', channel=0, note=64, velocity=0, time=0),\n",
       "    Message('note_on', channel=0, note=48, velocity=77, time=5107),\n",
       "    Message('note_on', channel=0, note=79, velocity=84, time=2),\n",
       "    Message('note_on', channel=0, note=67, velocity=87, time=2),\n",
       "    Message('note_on', channel=0, note=79, velocity=0, time=100),\n",
       "    Message('note_on', channel=0, note=64, velocity=78, time=193),\n",
       "    Message('note_on', channel=0, note=76, velocity=67, time=2),\n",
       "    Message('note_on', channel=0, note=67, velocity=0, time=66),\n",
       "    Message('note_on', channel=0, note=76, velocity=0, time=200),\n",
       "    Message('note_on', channel=0, note=72, velocity=71, time=16),\n",
       "    Message('note_on', channel=0, note=60, velocity=76, time=2),\n",
       "    Message('note_on', channel=0, note=64, velocity=0, time=45),\n",
       "    Message('note_on', channel=0, note=72, velocity=0, time=221),\n",
       "    Message('note_on', channel=0, note=74, velocity=60, time=0),\n",
       "    Message('note_on', channel=0, note=53, velocity=62, time=3),\n",
       "    Message('note_on', channel=0, note=62, velocity=68, time=0),\n",
       "    Message('note_on', channel=0, note=72, velocity=60, time=1),\n",
       "    Message('note_on', channel=0, note=48, velocity=0, time=46),\n",
       "    Message('note_on', channel=0, note=60, velocity=0, time=1),\n",
       "    Message('note_on', channel=0, note=55, velocity=53, time=215),\n",
       "    Message('note_on', channel=0, note=67, velocity=41, time=5),\n",
       "    Message('note_on', channel=0, note=53, velocity=0, time=41),\n",
       "    Message('note_on', channel=0, note=74, velocity=0, time=10),\n",
       "    Message('note_on', channel=0, note=72, velocity=0, time=39),\n",
       "    Message('note_on', channel=0, note=53, velocity=69, time=191),\n",
       "    Message('note_on', channel=0, note=65, velocity=50, time=4),\n",
       "    Message('note_on', channel=0, note=55, velocity=0, time=31),\n",
       "    Message('note_on', channel=0, note=67, velocity=0, time=35),\n",
       "    Message('control_change', channel=0, control=64, value=127, time=8),\n",
       "    Message('control_change', channel=0, control=64, value=0, time=140),\n",
       "    Message('control_change', channel=0, control=64, value=127, time=21),\n",
       "    Message('control_change', channel=0, control=64, value=0, time=23),\n",
       "    Message('note_on', channel=0, note=48, velocity=70, time=6),\n",
       "    Message('note_on', channel=0, note=67, velocity=81, time=1),\n",
       "    Message('note_on', channel=0, note=79, velocity=80, time=0),\n",
       "    Message('note_on', channel=0, note=62, velocity=0, time=32),\n",
       "    Message('note_on', channel=0, note=53, velocity=0, time=5),\n",
       "    Message('note_on', channel=0, note=65, velocity=0, time=33),\n",
       "    Message('note_on', channel=0, note=64, velocity=74, time=204),\n",
       "    Message('note_on', channel=0, note=79, velocity=0, time=3),\n",
       "    Message('note_on', channel=0, note=67, velocity=0, time=81),\n",
       "    Message('note_on', channel=0, note=60, velocity=67, time=185),\n",
       "    Message('note_on', channel=0, note=64, velocity=0, time=61),\n",
       "    Message('note_on', channel=0, note=48, velocity=0, time=203),\n",
       "    Message('note_on', channel=0, note=62, velocity=63, time=5),\n",
       "    Message('note_on', channel=0, note=48, velocity=46, time=1),\n",
       "    Message('note_on', channel=0, note=53, velocity=54, time=13),\n",
       "    Message('note_on', channel=0, note=48, velocity=0, time=24),\n",
       "    Message('note_on', channel=0, note=60, velocity=0, time=5),\n",
       "    Message('note_on', channel=0, note=55, velocity=55, time=250),\n",
       "    Message('note_on', channel=0, note=53, velocity=0, time=21),\n",
       "    Message('note_on', channel=0, note=53, velocity=68, time=245),\n",
       "    Message('note_on', channel=0, note=55, velocity=0, time=47),\n",
       "    Message('note_on', channel=0, note=72, velocity=66, time=224),\n",
       "    Message('note_on', channel=0, note=60, velocity=68, time=5),\n",
       "    Message('note_on', channel=0, note=53, velocity=0, time=14),\n",
       "    Message('note_on', channel=0, note=52, velocity=60, time=4),\n",
       "    Message('note_on', channel=0, note=62, velocity=0, time=76),\n",
       "    Message('note_on', channel=0, note=52, velocity=0, time=172),\n",
       "    Message('note_on', channel=0, note=52, velocity=48, time=11),\n",
       "    Message('note_on', channel=0, note=62, velocity=69, time=1),\n",
       "    Message('note_on', channel=0, note=60, velocity=0, time=83),\n",
       "    Message('note_on', channel=0, note=72, velocity=0, time=7),\n",
       "    Message('note_on', channel=0, note=64, velocity=79, time=161),\n",
       "    Message('note_on', channel=0, note=62, velocity=0, time=125),\n",
       "    Message('note_on', channel=0, note=53, velocity=70, time=156),\n",
       "    Message('note_on', channel=0, note=62, velocity=71, time=11),\n",
       "    Message('note_on', channel=0, note=52, velocity=0, time=52),\n",
       "    Message('note_on', channel=0, note=64, velocity=0, time=31),\n",
       "    Message('note_on', channel=0, note=72, velocity=67, time=170),\n",
       "    Message('note_on', channel=0, note=60, velocity=71, time=2),\n",
       "    Message('note_on', channel=0, note=62, velocity=0, time=110),\n",
       "    Message('note_on', channel=0, note=60, velocity=0, time=163),\n",
       "    Message('note_on', channel=0, note=62, velocity=76, time=6),\n",
       "    Message('note_on', channel=0, note=60, velocity=61, time=1),\n",
       "    Message('note_on', channel=0, note=60, velocity=0, time=47),\n",
       "    Message('note_on', channel=0, note=72, velocity=0, time=15),\n",
       "    Message('control_change', channel=0, control=64, value=127, time=69),\n",
       "    Message('note_on', channel=0, note=64, velocity=86, time=156),\n",
       "    Message('note_on', channel=0, note=48, velocity=69, time=1),\n",
       "    Message('control_change', channel=0, control=64, value=0, time=57),\n",
       "    Message('note_on', channel=0, note=53, velocity=0, time=12),\n",
       "    Message('note_on', channel=0, note=62, velocity=0, time=2),\n",
       "    Message('control_change', channel=0, control=64, value=127, time=310),\n",
       "    Message('control_change', channel=0, control=64, value=0, time=502),\n",
       "    Message('note_on', channel=0, note=48, velocity=0, time=4),\n",
       "    Message('note_on', channel=0, note=48, velocity=34, time=8),\n",
       "    Message('note_on', channel=0, note=55, velocity=53, time=5),\n",
       "    Message('note_on', channel=0, note=48, velocity=0, time=52),\n",
       "    Message('control_change', channel=0, control=64, value=127, time=227),\n",
       "    Message('note_on', channel=0, note=48, velocity=69, time=549),\n",
       "    Message('note_on', channel=0, note=79, velocity=73, time=1),\n",
       "    Message('note_on', channel=0, note=67, velocity=77, time=1),\n",
       "    Message('note_on', channel=0, note=64, velocity=0, time=45),\n",
       "    Message('control_change', channel=0, control=64, value=0, time=1),\n",
       "    Message('note_on', channel=0, note=55, velocity=0, time=5),\n",
       "    Message('control_change', channel=0, control=64, value=127, time=89),\n",
       "    Message('note_on', channel=0, note=79, velocity=0, time=16),\n",
       "    Message('control_change', channel=0, control=64, value=0, time=77),\n",
       "    Message('note_on', channel=0, note=64, velocity=83, time=42),\n",
       "    Message('note_on', channel=0, note=76, velocity=71, time=0),\n",
       "    Message('note_on', channel=0, note=67, velocity=0, time=85),\n",
       "    Message('note_on', channel=0, note=76, velocity=0, time=188),\n",
       "    Message('note_on', channel=0, note=72, velocity=74, time=9),\n",
       "    Message('note_on', channel=0, note=60, velocity=78, time=2),\n",
       "    Message('note_on', channel=0, note=64, velocity=0, time=61),\n",
       "    Message('note_on', channel=0, note=74, velocity=63, time=201),\n",
       "    Message('note_on', channel=0, note=62, velocity=71, time=0),\n",
       "    Message('note_on', channel=0, note=72, velocity=0, time=3),\n",
       "    Message('note_on', channel=0, note=53, velocity=61, time=5),\n",
       "    Message('note_on', channel=0, note=72, velocity=63, time=5),\n",
       "    Message('note_on', channel=0, note=60, velocity=0, time=41),\n",
       "    Message('note_on', channel=0, note=48, velocity=0, time=0),\n",
       "    Message('note_on', channel=0, note=55, velocity=63, time=237),\n",
       "    Message('note_on', channel=0, note=67, velocity=49, time=2),\n",
       "    Message('note_on', channel=0, note=74, velocity=0, time=10),\n",
       "    Message('note_on', channel=0, note=53, velocity=0, time=4),\n",
       "    Message('note_on', channel=0, note=72, velocity=0, time=42),\n",
       "    Message('note_on', channel=0, note=53, velocity=69, time=207),\n",
       "    Message('note_on', channel=0, note=65, velocity=52, time=3),\n",
       "    Message('note_on', channel=0, note=55, velocity=0, time=42),\n",
       "    Message('note_on', channel=0, note=67, velocity=0, time=47),\n",
       "    Message('control_change', channel=0, control=64, value=127, time=92),\n",
       "    Message('note_on', channel=0, note=79, velocity=80, time=91),\n",
       "    Message('note_on', channel=0, note=67, velocity=84, time=1),\n",
       "    Message('note_on', channel=0, note=48, velocity=71, time=3),\n",
       "    Message('control_change', channel=0, control=64, value=0, time=26),\n",
       "    Message('note_on', channel=0, note=53, velocity=0, time=8),\n",
       "    Message('note_on', channel=0, note=65, velocity=0, time=56),\n",
       "    Message('note_on', channel=0, note=62, velocity=0, time=14),\n",
       "    Message('note_on', channel=0, note=64, velocity=78, time=158),\n",
       "    Message('note_on', channel=0, note=76, velocity=67, time=1),\n",
       "    Message('note_on', channel=0, note=79, velocity=0, time=11),\n",
       "    Message('note_on', channel=0, note=67, velocity=0, time=62),\n",
       "    Message('note_on', channel=0, note=72, velocity=63, time=198),\n",
       "    Message('note_on', channel=0, note=60, velocity=70, time=3),\n",
       "    Message('note_on', channel=0, note=76, velocity=0, time=67),\n",
       "    Message('note_on', channel=0, note=64, velocity=0, time=6),\n",
       "    Message('note_on', channel=0, note=72, velocity=0, time=202),\n",
       "    Message('note_on', channel=0, note=74, velocity=56, time=1),\n",
       "    Message('note_on', channel=0, note=53, velocity=56, time=2),\n",
       "    Message('note_on', channel=0, note=81, velocity=63, time=0),\n",
       "    Message('note_on', channel=0, note=62, velocity=61, time=1),\n",
       "    Message('note_on', channel=0, note=74, velocity=0, time=3),\n",
       "    Message('note_on', channel=0, note=81, velocity=0, time=0),\n",
       "    Message('note_on', channel=0, note=72, velocity=56, time=1),\n",
       "    Message('note_on', channel=0, note=48, velocity=0, time=29),\n",
       "    Message('note_on', channel=0, note=60, velocity=0, time=4),\n",
       "    Message('note_on', channel=0, note=72, velocity=0, time=74),\n",
       "    Message('note_on', channel=0, note=55, velocity=54, time=150),\n",
       "    Message('note_on', channel=0, note=53, velocity=0, time=20),\n",
       "    Message('note_on', channel=0, note=53, velocity=66, time=255),\n",
       "    Message('note_on', channel=0, note=55, velocity=0, time=59),\n",
       "    Message('control_change', channel=0, control=64, value=127, time=84),\n",
       "    Message('control_change', channel=0, control=64, value=0, time=61),\n",
       "    Message('note_on', channel=0, note=72, velocity=65, time=60),\n",
       "    Message('note_on', channel=0, note=53, velocity=0, time=1),\n",
       "    Message('note_on', channel=0, note=60, velocity=69, time=1),\n",
       "    Message('note_on', channel=0, note=52, velocity=65, time=3),\n",
       "    Message('note_on', channel=0, note=62, velocity=0, time=74),\n",
       "    Message('control_change', channel=0, control=64, value=127, time=84),\n",
       "    Message('note_on', channel=0, note=52, velocity=0, time=16),\n",
       "    Message('note_on', channel=0, note=62, velocity=67, time=110),\n",
       "    Message('note_on', channel=0, note=52, velocity=45, time=1),\n",
       "    Message('note_on', channel=0, note=60, velocity=0, time=21),\n",
       "    Message('control_change', channel=0, control=64, value=0, time=29),\n",
       "    Message('note_on', channel=0, note=72, velocity=0, time=49),\n",
       "    Message('note_on', channel=0, note=64, velocity=84, time=164),\n",
       "    Message('note_on', channel=0, note=76, velocity=68, time=3),\n",
       "    Message('note_on', channel=0, note=62, velocity=0, time=93),\n",
       "    Message('note_on', channel=0, note=52, velocity=0, time=152),\n",
       "    Message('note_on', channel=0, note=74, velocity=62, time=48),\n",
       "    Message('note_on', channel=0, note=62, velocity=69, time=0),\n",
       "    Message('note_on', channel=0, note=53, velocity=59, time=1),\n",
       "    Message('note_on', channel=0, note=52, velocity=54, time=0),\n",
       "    Message('note_on', channel=0, note=76, velocity=0, time=81),\n",
       "    Message('note_on', channel=0, note=52, velocity=0, time=9),\n",
       "    Message('note_on', channel=0, note=64, velocity=0, time=2),\n",
       "    Message('note_on', channel=0, note=72, velocity=63, time=165),\n",
       "    Message('note_on', channel=0, note=60, velocity=66, time=3),\n",
       "    Message('note_on', channel=0, note=74, velocity=0, time=6),\n",
       "    Message('note_on', channel=0, note=62, velocity=0, time=98),\n",
       "    Message('note_on', channel=0, note=53, velocity=0, time=170),\n",
       "    Message('note_on', channel=0, note=74, velocity=54, time=4),\n",
       "    Message('note_on', channel=0, note=62, velocity=59, time=0),\n",
       "    Message('note_on', channel=0, note=53, velocity=43, time=0),\n",
       "    Message('note_on', channel=0, note=60, velocity=0, time=30),\n",
       "    Message('note_on', channel=0, note=72, velocity=0, time=12),\n",
       "    Message('control_change', channel=0, control=64, value=127, time=123),\n",
       "    Message('control_change', channel=0, control=64, value=0, time=46),\n",
       "    Message('note_on', channel=0, note=74, velocity=0, time=31),\n",
       "    Message('note_on', channel=0, note=53, velocity=0, time=34),\n",
       "    Message('note_on', channel=0, note=72, velocity=60, time=0),\n",
       "    Message('note_on', channel=0, note=60, velocity=67, time=1),\n",
       "    Message('note_on', channel=0, note=52, velocity=57, time=23),\n",
       "    Message('note_on', channel=0, note=62, velocity=0, time=42),\n",
       "    Message('control_change', channel=0, control=64, value=127, time=77),\n",
       "    Message('note_on', channel=0, note=48, velocity=51, time=757),\n",
       "    Message('control_change', channel=0, control=64, value=0, time=36),\n",
       "    Message('note_on', channel=0, note=52, velocity=0, time=36),\n",
       "    Message('note_on', channel=0, note=72, velocity=0, time=653),\n",
       "    Message('note_on', channel=0, note=48, velocity=0, time=295),\n",
       "    Message('note_on', channel=0, note=60, velocity=0, time=16),\n",
       "    Message('note_on', channel=0, note=72, velocity=75, time=3293),\n",
       "    Message('note_on', channel=0, note=60, velocity=81, time=7),\n",
       "    Message('note_on', channel=0, note=48, velocity=72, time=2),\n",
       "    Message('note_on', channel=0, note=60, velocity=0, time=265),\n",
       "    Message('note_on', channel=0, note=62, velocity=65, time=2),\n",
       "    Message('note_on', channel=0, note=60, velocity=57, time=5),\n",
       "    Message('note_on', channel=0, note=60, velocity=0, time=35),\n",
       "    Message('note_on', channel=0, note=72, velocity=0, time=4),\n",
       "    Message('note_on', channel=0, note=72, velocity=65, time=207),\n",
       "    Message('note_on', channel=0, note=60, velocity=73, time=3),\n",
       "    Message('note_on', channel=0, note=62, velocity=0, time=74),\n",
       "    Message('note_on', channel=0, note=72, velocity=0, time=170),\n",
       "    Message('note_on', channel=0, note=62, velocity=72, time=3),\n",
       "    Message('note_on', channel=0, note=72, velocity=60, time=4),\n",
       "    Message('note_on', channel=0, note=60, velocity=0, time=35),\n",
       "    Message('note_on', channel=0, note=72, velocity=0, time=188),\n",
       "    Message('note_on', channel=0, note=72, velocity=69, time=22),\n",
       "    Message('note_on', channel=0, note=60, velocity=74, time=3),\n",
       "    Message('note_on', channel=0, note=62, velocity=0, time=79),\n",
       "    Message('note_on', channel=0, note=72, velocity=0, time=180),\n",
       "    Message('note_on', channel=0, note=74, velocity=64, time=3),\n",
       "    Message('note_on', channel=0, note=62, velocity=68, time=0),\n",
       "    Message('note_on', channel=0, note=72, velocity=55, time=2),\n",
       "    Message('note_on', channel=0, note=60, velocity=0, time=47),\n",
       "    Message('note_on', channel=0, note=72, velocity=0, time=202),\n",
       "    Message('note_on', channel=0, note=72, velocity=64, time=10),\n",
       "    Message('note_on', channel=0, note=60, velocity=70, time=1),\n",
       "    Message('note_on', channel=0, note=62, velocity=0, time=111),\n",
       "    Message('note_on', channel=0, note=74, velocity=0, time=0),\n",
       "    Message('control_change', channel=0, control=64, value=127, time=62),\n",
       "    Message('note_on', channel=0, note=48, velocity=0, time=369),\n",
       "    Message('note_on', channel=0, note=74, velocity=72, time=17),\n",
       "    Message('note_on', channel=0, note=50, velocity=72, time=0),\n",
       "    Message('note_on', channel=0, note=62, velocity=82, time=1),\n",
       "    Message('note_on', channel=0, note=60, velocity=0, time=50),\n",
       "    Message('control_change', channel=0, control=64, value=0, time=4),\n",
       "    Message('note_on', channel=0, note=72, velocity=0, time=20),\n",
       "    Message('note_on', channel=0, note=74, velocity=0, time=153),\n",
       "    Message('note_on', channel=0, note=76, velocity=70, time=18),\n",
       "    Message('note_on', channel=0, note=64, velocity=83, time=0),\n",
       "    Message('note_on', channel=0, note=62, velocity=0, time=50),\n",
       "    Message('note_on', channel=0, note=74, velocity=63, time=199),\n",
       "    Message('note_on', channel=0, note=62, velocity=70, time=1),\n",
       "    Message('note_on', channel=0, note=64, velocity=0, time=62),\n",
       "    Message('note_on', channel=0, note=76, velocity=0, time=1),\n",
       "    Message('note_on', channel=0, note=74, velocity=0, time=76),\n",
       "    Message('note_on', channel=0, note=50, velocity=0, time=92),\n",
       "    Message('note_on', channel=0, note=50, velocity=52, time=8),\n",
       "    Message('note_on', channel=0, note=64, velocity=84, time=2),\n",
       "    Message('note_on', channel=0, note=76, velocity=68, time=2),\n",
       "    Message('note_on', channel=0, note=62, velocity=0, time=54),\n",
       "    Message('note_on', channel=0, note=74, velocity=70, time=220),\n",
       "    Message('note_on', channel=0, note=62, velocity=79, time=1),\n",
       "    Message('note_on', channel=0, note=76, velocity=0, time=51),\n",
       "    Message('note_on', channel=0, note=64, velocity=0, time=4),\n",
       "    Message('note_on', channel=0, note=64, velocity=88, time=193),\n",
       "    Message('note_on', channel=0, note=76, velocity=77, time=0),\n",
       "    Message('note_on', channel=0, note=74, velocity=0, time=3),\n",
       "    Message('note_on', channel=0, note=62, velocity=0, time=45),\n",
       "    Message('note_on', channel=0, note=50, velocity=0, time=93),\n",
       "    Message('note_on', channel=0, note=74, velocity=69, time=118),\n",
       "    Message('note_on', channel=0, note=62, velocity=75, time=1),\n",
       "    Message('note_on', channel=0, note=76, velocity=0, time=43),\n",
       "    Message('note_on', channel=0, note=64, velocity=0, time=7),\n",
       "    Message('control_change', channel=0, control=64, value=127, time=131),\n",
       "    Message('note_on', channel=0, note=64, velocity=89, time=338),\n",
       "    Message('note_on', channel=0, note=52, velocity=78, time=3),\n",
       "    Message('note_on', channel=0, note=74, velocity=0, time=27),\n",
       "    Message('control_change', channel=0, control=64, value=0, time=19),\n",
       "    Message('note_on', channel=0, note=62, velocity=0, time=9),\n",
       "    Message('control_change', channel=0, control=64, value=127, time=88),\n",
       "    Message('note_on', channel=0, note=65, velocity=79, time=125),\n",
       "    Message('note_on', channel=0, note=77, velocity=71, time=1),\n",
       "    Message('note_on', channel=0, note=77, velocity=0, time=4),\n",
       "    Message('control_change', channel=0, control=64, value=0, time=31),\n",
       "    Message('note_on', channel=0, note=64, velocity=0, time=11),\n",
       "    Message('note_on', channel=0, note=64, velocity=86, time=208),\n",
       "    Message('note_on', channel=0, note=76, velocity=71, time=1),\n",
       "    Message('note_on', channel=0, note=65, velocity=0, time=68),\n",
       "    Message('note_on', channel=0, note=76, velocity=0, time=165),\n",
       "    Message('note_on', channel=0, note=65, velocity=77, time=8),\n",
       "    Message('note_on', channel=0, note=77, velocity=70, time=1),\n",
       "    Message('note_on', channel=0, note=77, velocity=0, time=6),\n",
       "    Message('note_on', channel=0, note=64, velocity=0, time=57),\n",
       "    Message('note_on', channel=0, note=52, velocity=0, time=20),\n",
       "    Message('note_on', channel=0, note=64, velocity=85, time=181),\n",
       "    Message('note_on', channel=0, note=76, velocity=69, time=1),\n",
       "    Message('note_on', channel=0, note=65, velocity=0, time=84),\n",
       "    Message('note_on', channel=0, note=76, velocity=0, time=172),\n",
       "    Message('note_on', channel=0, note=65, velocity=78, time=3),\n",
       "    Message('note_on', channel=0, note=77, velocity=71, time=0),\n",
       "    Message('note_on', channel=0, note=77, velocity=0, time=5),\n",
       "    Message('note_on', channel=0, note=64, velocity=0, time=55),\n",
       "    Message('note_on', channel=0, note=64, velocity=80, time=202),\n",
       "    Message('note_on', channel=0, note=76, velocity=66, time=1),\n",
       "    Message('note_on', channel=0, note=65, velocity=0, time=81),\n",
       "    Message('control_change', channel=0, control=64, value=127, time=160),\n",
       "    Message('note_on', channel=0, note=76, velocity=0, time=184),\n",
       "    Message('note_on', channel=0, note=53, velocity=78, time=115),\n",
       "    Message('note_on', channel=0, note=65, velocity=77, time=2),\n",
       "    Message('control_change', channel=0, control=64, value=0, time=33),\n",
       "    Message('note_on', channel=0, note=64, velocity=0, time=37),\n",
       "    Message('note_on', channel=0, note=79, velocity=77, time=194),\n",
       "    Message('note_on', channel=0, note=67, velocity=84, time=3),\n",
       "    Message('note_on', channel=0, note=65, velocity=0, time=23),\n",
       "    Message('note_on', channel=0, note=79, velocity=0, time=23),\n",
       "    Message('note_on', channel=0, note=65, velocity=75, time=228),\n",
       "    Message('note_on', channel=0, note=77, velocity=68, time=1),\n",
       "    Message('note_on', channel=0, note=77, velocity=0, time=9),\n",
       "    Message('note_on', channel=0, note=67, velocity=0, time=52),\n",
       "    Message('control_change', channel=0, control=64, value=127, time=110),\n",
       "    Message('note_on', channel=0, note=79, velocity=76, time=96),\n",
       "    Message('note_on', channel=0, note=67, velocity=80, time=1),\n",
       "    Message('note_on', channel=0, note=53, velocity=0, time=18),\n",
       "    Message('note_on', channel=0, note=53, velocity=50, time=7),\n",
       "    Message('note_on', channel=0, note=65, velocity=0, time=20),\n",
       "    Message('control_change', channel=0, control=64, value=0, time=4),\n",
       "    Message('note_on', channel=0, note=79, velocity=0, time=7),\n",
       "    Message('note_on', channel=0, note=65, velocity=74, time=201),\n",
       "    Message('note_on', channel=0, note=77, velocity=67, time=2),\n",
       "    Message('note_on', channel=0, note=67, velocity=0, time=46),\n",
       "    Message('note_on', channel=0, note=77, velocity=0, time=158),\n",
       "    Message('note_on', channel=0, note=79, velocity=72, time=43),\n",
       "    Message('note_on', channel=0, note=67, velocity=81, time=0),\n",
       "    Message('note_on', channel=0, note=65, velocity=0, time=46),\n",
       "    Message('note_on', channel=0, note=79, velocity=0, time=26),\n",
       "    Message('note_on', channel=0, note=65, velocity=76, time=212),\n",
       "    Message('note_on', channel=0, note=77, velocity=68, time=0),\n",
       "    Message('note_on', channel=0, note=67, velocity=0, time=55),\n",
       "    Message('control_change', channel=0, control=64, value=127, time=217),\n",
       "    Message('note_on', channel=0, note=77, velocity=0, time=46),\n",
       "    Message('note_on', channel=0, note=64, velocity=84, time=206),\n",
       "    Message('note_on', channel=0, note=76, velocity=70, time=1),\n",
       "    Message('note_on', channel=0, note=52, velocity=66, time=7),\n",
       "    Message('note_on', channel=0, note=76, velocity=0, time=1),\n",
       "    Message('control_change', channel=0, control=64, value=0, time=42),\n",
       "    Message('note_on', channel=0, note=65, velocity=0, time=0),\n",
       "    Message('note_on', channel=0, note=53, velocity=0, time=12),\n",
       "    Message('note_on', channel=0, note=65, velocity=69, time=203),\n",
       "    Message('note_on', channel=0, note=77, velocity=63, time=2),\n",
       "    Message('note_on', channel=0, note=64, velocity=0, time=52),\n",
       "    Message('note_on', channel=0, note=64, velocity=81, time=194),\n",
       "    Message('note_on', channel=0, note=76, velocity=67, time=0),\n",
       "    Message('note_on', channel=0, note=65, velocity=0, time=83),\n",
       "    Message('note_on', channel=0, note=77, velocity=0, time=19),\n",
       "    Message('note_on', channel=0, note=65, velocity=69, time=163),\n",
       "    Message('note_on', channel=0, note=77, velocity=62, time=1),\n",
       "    Message('note_on', channel=0, note=76, velocity=0, time=41),\n",
       "    Message('note_on', channel=0, note=64, velocity=0, time=10),\n",
       "    Message('note_on', channel=0, note=64, velocity=77, time=227),\n",
       "    Message('note_on', channel=0, note=76, velocity=63, time=2),\n",
       "    Message('note_on', channel=0, note=77, velocity=0, time=71),\n",
       "    Message('note_on', channel=0, note=65, velocity=0, time=10),\n",
       "    Message('control_change', channel=0, control=64, value=127, time=105),\n",
       "    Message('note_on', channel=0, note=65, velocity=76, time=63),\n",
       "    Message('note_on', channel=0, note=77, velocity=67, time=1),\n",
       "    Message('control_change', channel=0, control=64, value=0, time=20),\n",
       "    Message('note_on', channel=0, note=64, velocity=0, time=30),\n",
       "    Message('note_on', channel=0, note=76, velocity=0, time=13),\n",
       "    Message('note_on', channel=0, note=52, velocity=0, time=3),\n",
       "    Message('note_on', channel=0, note=77, velocity=0, time=100),\n",
       "    Message('note_on', channel=0, note=76, velocity=67, time=91),\n",
       "    Message('note_on', channel=0, note=64, velocity=78, time=0),\n",
       "    Message('note_on', channel=0, note=65, velocity=0, time=83),\n",
       "    Message('control_change', channel=0, control=64, value=127, time=172),\n",
       "    Message('note_on', channel=0, note=76, velocity=0, time=230),\n",
       "    Message('note_on', channel=0, note=62, velocity=72, time=59),\n",
       "    Message('note_on', channel=0, note=50, velocity=61, time=6),\n",
       "    Message('control_change', channel=0, control=64, value=0, time=67),\n",
       "    Message('note_on', channel=0, note=64, velocity=0, time=7),\n",
       "    Message('note_on', channel=0, note=64, velocity=81, time=173),\n",
       "    Message('note_on', channel=0, note=76, velocity=68, time=0),\n",
       "    Message('note_on', channel=0, note=62, velocity=0, time=55),\n",
       "    Message('note_on', channel=0, note=76, velocity=0, time=186),\n",
       "    Message('note_on', channel=0, note=74, velocity=56, time=20),\n",
       "    Message('note_on', channel=0, note=62, velocity=62, time=1),\n",
       "    Message('note_on', channel=0, note=64, velocity=0, time=83),\n",
       "    Message('note_on', channel=0, note=74, velocity=0, time=27),\n",
       "    Message('note_on', channel=0, note=64, velocity=78, time=134),\n",
       "    Message('note_on', channel=0, note=76, velocity=63, time=1),\n",
       "    Message('note_on', channel=0, note=62, velocity=0, time=32),\n",
       "    Message('note_on', channel=0, note=74, velocity=61, time=237),\n",
       "    Message('note_on', channel=0, note=62, velocity=68, time=0),\n",
       "    Message('note_on', channel=0, note=76, velocity=0, time=34),\n",
       "    Message('note_on', channel=0, note=64, velocity=0, time=25),\n",
       "    Message('note_on', channel=0, note=74, velocity=0, time=59),\n",
       "    Message('note_on', channel=0, note=64, velocity=78, time=121),\n",
       "    Message('note_on', channel=0, note=76, velocity=65, time=3),\n",
       "    Message('note_on', channel=0, note=62, velocity=0, time=49),\n",
       "    Message('note_on', channel=0, note=74, velocity=62, time=231),\n",
       "    Message('note_on', channel=0, note=62, velocity=68, time=1),\n",
       "    Message('note_on', channel=0, note=50, velocity=0, time=25),\n",
       "    Message('note_on', channel=0, note=76, velocity=0, time=23),\n",
       "    Message('note_on', channel=0, note=64, velocity=0, time=13),\n",
       "    Message('control_change', channel=0, control=64, value=127, time=110),\n",
       "    Message('note_on', channel=0, note=74, velocity=0, time=38),\n",
       "    Message('note_on', channel=0, note=48, velocity=70, time=314),\n",
       "    Message('note_on', channel=0, note=60, velocity=71, time=5),\n",
       "    Message('note_on', channel=0, note=72, velocity=64, time=2),\n",
       "    Message('note_on', channel=0, note=72, velocity=0, time=10),\n",
       "    Message('note_on', channel=0, note=62, velocity=0, time=65),\n",
       "    Message('control_change', channel=0, control=64, value=0, time=4),\n",
       "    Message('note_on', channel=0, note=60, velocity=0, time=184),\n",
       "    Message('note_on', channel=0, note=62, velocity=65, time=2),\n",
       "    Message('note_on', channel=0, note=60, velocity=56, time=2),\n",
       "    Message('note_on', channel=0, note=60, velocity=0, time=48),\n",
       "    Message('note_on', channel=0, note=72, velocity=65, time=204),\n",
       "    Message('note_on', channel=0, note=60, velocity=69, time=2),\n",
       "    Message('note_on', channel=0, note=62, velocity=0, time=105),\n",
       "    Message('note_on', channel=0, note=48, velocity=0, time=144),\n",
       "    Message('note_on', channel=0, note=60, velocity=0, time=0),\n",
       "    Message('note_on', channel=0, note=62, velocity=67, time=3),\n",
       "    Message('note_on', channel=0, note=48, velocity=47, time=2),\n",
       "    Message('note_on', channel=0, note=60, velocity=56, time=1),\n",
       "    Message('note_on', channel=0, note=72, velocity=0, time=32),\n",
       "    Message('note_on', channel=0, note=60, velocity=0, time=3),\n",
       "    Message('note_on', channel=0, note=72, velocity=60, time=229),\n",
       "    Message('note_on', channel=0, note=60, velocity=65, time=2),\n",
       "    Message('note_on', channel=0, note=62, velocity=0, time=78),\n",
       "    Message('note_on', channel=0, note=60, velocity=0, time=165),\n",
       "    Message('note_on', channel=0, note=74, velocity=59, time=6),\n",
       "    Message('note_on', channel=0, note=62, velocity=65, time=2),\n",
       "    Message('note_on', channel=0, note=60, velocity=54, time=2),\n",
       "    Message('note_on', channel=0, note=60, velocity=0, time=37),\n",
       "    Message('note_on', channel=0, note=72, velocity=0, time=29),\n",
       "    Message('note_on', channel=0, note=74, velocity=0, time=70),\n",
       "    Message('note_on', channel=0, note=72, velocity=64, time=139),\n",
       "    Message('note_on', channel=0, note=60, velocity=68, time=2),\n",
       "    Message('note_on', channel=0, note=62, velocity=0, time=70),\n",
       "    Message('note_on', channel=0, note=58, velocity=20, time=201),\n",
       "    Message('note_on', channel=0, note=48, velocity=0, time=463),\n",
       "    Message('note_on', channel=0, note=48, velocity=25, time=8),\n",
       "    Message('note_on', channel=0, note=58, velocity=0, time=25),\n",
       "    Message('note_on', channel=0, note=60, velocity=0, time=17),\n",
       "    Message('note_on', channel=0, note=72, velocity=0, time=4),\n",
       "    Message('note_on', channel=0, note=48, velocity=0, time=23),\n",
       "    Message('note_on', channel=0, note=60, velocity=79, time=1976),\n",
       "    Message('note_on', channel=0, note=48, velocity=73, time=1),\n",
       "    Message('note_on', channel=0, note=50, velocity=71, time=238),\n",
       "    Message('note_on', channel=0, note=62, velocity=65, time=1),\n",
       "    Message('note_on', channel=0, note=48, velocity=0, time=15),\n",
       "    Message('note_on', channel=0, note=60, velocity=0, time=34),\n",
       "    Message('note_on', channel=0, note=48, velocity=75, time=221),\n",
       "    Message('note_on', channel=0, note=60, velocity=66, time=1),\n",
       "    Message('note_on', channel=0, note=50, velocity=0, time=30),\n",
       "    Message('note_on', channel=0, note=62, velocity=0, time=33),\n",
       "    Message('note_on', channel=0, note=50, velocity=74, time=193),\n",
       "    Message('note_on', channel=0, note=62, velocity=66, time=1),\n",
       "    Message('note_on', channel=0, note=48, velocity=0, time=33),\n",
       "    Message('note_on', channel=0, note=60, velocity=0, time=26),\n",
       "    Message('note_on', channel=0, note=48, velocity=76, time=195),\n",
       "    Message('note_on', channel=0, note=60, velocity=66, time=3),\n",
       "    Message('note_on', channel=0, note=50, velocity=0, time=8),\n",
       "    Message('note_on', channel=0, note=62, velocity=0, time=32),\n",
       "    Message('note_on', channel=0, note=50, velocity=71, time=212),\n",
       "    Message('note_on', channel=0, note=62, velocity=62, time=0),\n",
       "    Message('note_on', channel=0, note=48, velocity=0, time=30),\n",
       "    Message('note_on', channel=0, note=60, velocity=0, time=42),\n",
       "    Message('note_on', channel=0, note=48, velocity=77, time=195),\n",
       "    Message('note_on', channel=0, note=60, velocity=66, time=1),\n",
       "    Message('note_on', channel=0, note=50, velocity=0, time=32),\n",
       "    Message('note_on', channel=0, note=62, velocity=0, time=26),\n",
       "    Message('control_change', channel=0, control=64, value=127, time=169),\n",
       "    Message('note_on', channel=0, note=50, velocity=71, time=301),\n",
       "    Message('note_on', channel=0, note=62, velocity=78, time=1),\n",
       "    Message('control_change', channel=0, control=64, value=0, time=39),\n",
       "    Message('note_on', channel=0, note=48, velocity=0, time=2),\n",
       "    Message('note_on', channel=0, note=60, velocity=0, time=6),\n",
       "    Message('note_on', channel=0, note=52, velocity=78, time=194),\n",
       "    Message('note_on', channel=0, note=50, velocity=0, time=34),\n",
       "    Message('note_on', channel=0, note=62, velocity=0, time=4),\n",
       "    Message('control_change', channel=0, control=64, value=127, time=102),\n",
       "    Message('control_change', channel=0, control=64, value=0, time=100),\n",
       "    Message('note_on', channel=0, note=50, velocity=71, time=27),\n",
       "    Message('note_on', channel=0, note=62, velocity=62, time=2),\n",
       "    Message('note_on', channel=0, note=52, velocity=0, time=28),\n",
       "    Message('note_on', channel=0, note=52, velocity=79, time=233),\n",
       "    Message('note_on', channel=0, note=50, velocity=0, time=53),\n",
       "    Message('note_on', channel=0, note=62, velocity=0, time=8),\n",
       "    Message('control_change', channel=0, control=64, value=127, time=71),\n",
       "    Message('note_on', channel=0, note=50, velocity=70, time=120),\n",
       "    Message('note_on', channel=0, note=62, velocity=60, time=1),\n",
       "    Message('control_change', channel=0, control=64, value=0, time=10),\n",
       "    Message('note_on', channel=0, note=52, velocity=0, time=12),\n",
       "    Message('note_on', channel=0, note=52, velocity=77, time=238),\n",
       "    Message('note_on', channel=0, note=64, velocity=61, time=0),\n",
       "    Message('note_on', channel=0, note=50, velocity=0, time=38),\n",
       "    Message('note_on', channel=0, note=62, velocity=0, time=42),\n",
       "    Message('control_change', channel=0, control=64, value=127, time=69),\n",
       "    Message('note_on', channel=0, note=64, velocity=0, time=23),\n",
       "    Message('control_change', channel=0, control=64, value=0, time=67),\n",
       "    Message('note_on', channel=0, note=50, velocity=69, time=45),\n",
       "    Message('note_on', channel=0, note=62, velocity=57, time=0),\n",
       "    Message('note_on', channel=0, note=52, velocity=0, time=15),\n",
       "    Message('control_change', channel=0, control=64, value=127, time=327),\n",
       "    Message('control_change', channel=0, control=64, value=0, time=69),\n",
       "    Message('note_on', channel=0, note=64, velocity=84, time=113),\n",
       "    Message('note_on', channel=0, note=52, velocity=72, time=3),\n",
       "    Message('note_on', channel=0, note=50, velocity=0, time=14),\n",
       "    Message('note_on', channel=0, note=62, velocity=0, time=31),\n",
       "    Message('note_on', channel=0, note=53, velocity=79, time=186),\n",
       "    Message('note_on', channel=0, note=65, velocity=60, time=1),\n",
       "    Message('note_on', channel=0, note=65, velocity=0, time=5),\n",
       "    Message('note_on', channel=0, note=52, velocity=0, time=26),\n",
       "    Message('note_on', channel=0, note=64, velocity=0, time=28),\n",
       "    Message('control_change', channel=0, control=64, value=127, time=15),\n",
       "    Message('note_on', channel=0, note=52, velocity=79, time=203),\n",
       "    Message('note_on', channel=0, note=64, velocity=66, time=0),\n",
       "    Message('control_change', channel=0, control=64, value=0, time=12),\n",
       "    Message('note_on', channel=0, note=53, velocity=0, time=14),\n",
       "    Message('note_on', channel=0, note=53, velocity=82, time=237),\n",
       "    Message('note_on', channel=0, note=65, velocity=59, time=4),\n",
       "    Message('note_on', channel=0, note=52, velocity=0, time=16),\n",
       "    Message('note_on', channel=0, note=64, velocity=0, time=13),\n",
       "    Message('control_change', channel=0, control=64, value=127, time=54),\n",
       "    Message('note_on', channel=0, note=64, velocity=65, time=170),\n",
       "    Message('note_on', channel=0, note=52, velocity=79, time=1),\n",
       "    Message('control_change', channel=0, control=64, value=0, time=21),\n",
       "    Message('note_on', channel=0, note=53, velocity=0, time=5),\n",
       "    Message('note_on', channel=0, note=65, velocity=0, time=3),\n",
       "    Message('note_on', channel=0, note=53, velocity=77, time=219),\n",
       "    Message('note_on', channel=0, note=52, velocity=0, time=22),\n",
       "    Message('note_on', channel=0, note=64, velocity=0, time=27),\n",
       "    Message('control_change', channel=0, control=64, value=127, time=70),\n",
       "    Message('control_change', channel=0, control=64, value=0, time=115),\n",
       "    Message('note_on', channel=0, note=64, velocity=55, time=42),\n",
       "    Message('note_on', channel=0, note=52, velocity=75, time=0),\n",
       "    Message('note_on', channel=0, note=53, velocity=0, time=31),\n",
       "    Message('note_on', channel=0, note=53, velocity=77, time=486),\n",
       "    Message('note_on', channel=0, note=65, velocity=77, time=6),\n",
       "    Message('note_on', channel=0, note=64, velocity=0, time=18),\n",
       "    Message('note_on', channel=0, note=52, velocity=0, time=10),\n",
       "    Message('note_on', channel=0, note=65, velocity=0, time=213),\n",
       "    Message('note_on', channel=0, note=55, velocity=68, time=5),\n",
       "    Message('note_on', channel=0, note=67, velocity=53, time=0),\n",
       "    Message('note_on', channel=0, note=65, velocity=46, time=2),\n",
       "    Message('note_on', channel=0, note=53, velocity=0, time=28),\n",
       "    Message('note_on', channel=0, note=65, velocity=0, time=226),\n",
       "    Message('note_on', channel=0, note=53, velocity=76, time=5),\n",
       "    Message('note_on', channel=0, note=65, velocity=58, time=2),\n",
       "    Message('note_on', channel=0, note=55, velocity=0, time=53),\n",
       "    Message('note_on', channel=0, note=67, velocity=0, time=17),\n",
       "    Message('note_on', channel=0, note=65, velocity=0, time=169),\n",
       "    Message('note_on', channel=0, note=55, velocity=73, time=1),\n",
       "    Message('note_on', channel=0, note=67, velocity=58, time=1),\n",
       "    Message('note_on', channel=0, note=65, velocity=48, time=2),\n",
       "    Message('note_on', channel=0, note=53, velocity=0, time=31),\n",
       "    Message('note_on', channel=0, note=65, velocity=0, time=211),\n",
       "    Message('note_on', channel=0, note=53, velocity=75, time=7),\n",
       "    Message('note_on', channel=0, note=65, velocity=58, time=4),\n",
       "    Message('note_on', channel=0, note=55, velocity=0, time=64),\n",
       "    Message('note_on', channel=0, note=67, velocity=0, time=32),\n",
       "    Message('note_on', channel=0, note=55, velocity=71, time=156),\n",
       "    Message('note_on', channel=0, note=53, velocity=0, time=40),\n",
       "    Message('note_on', channel=0, note=53, velocity=76, time=221),\n",
       "    Message('note_on', channel=0, note=55, velocity=0, time=54),\n",
       "    Message('control_change', channel=0, control=64, value=127, time=75),\n",
       "    Message('note_on', channel=0, note=64, velocity=85, time=357),\n",
       "    Message('note_on', channel=0, note=52, velocity=71, time=6),\n",
       "    Message('note_on', channel=0, note=53, velocity=0, time=30),\n",
       "    Message('note_on', channel=0, note=65, velocity=0, time=1),\n",
       "    Message('control_change', channel=0, control=64, value=0, time=0),\n",
       "    Message('note_on', channel=0, note=53, velocity=66, time=211),\n",
       "    Message('note_on', channel=0, note=52, velocity=0, time=21),\n",
       "    Message('note_on', channel=0, note=52, velocity=75, time=224),\n",
       "    Message('note_on', channel=0, note=53, velocity=0, time=33),\n",
       "    Message('note_on', channel=0, note=64, velocity=0, time=192),\n",
       "    Message('note_on', channel=0, note=53, velocity=80, time=40),\n",
       "    Message('note_on', channel=0, note=52, velocity=0, time=19),\n",
       "    Message('control_change', channel=0, control=64, value=127, time=64),\n",
       "    Message('control_change', channel=0, control=64, value=0, time=138),\n",
       "    Message('note_on', channel=0, note=64, velocity=64, time=45),\n",
       "    Message('note_on', channel=0, note=52, velocity=83, time=0),\n",
       "    Message('note_on', channel=0, note=53, velocity=0, time=28),\n",
       "    Message('note_on', channel=0, note=53, velocity=78, time=219),\n",
       "    Message('note_on', channel=0, note=52, velocity=0, time=17),\n",
       "    Message('note_on', channel=0, note=64, velocity=0, time=14),\n",
       "    Message('control_change', channel=0, control=64, value=127, time=161),\n",
       "    Message('control_change', channel=0, control=64, value=0, time=7),\n",
       "    Message('note_on', channel=0, note=52, velocity=76, time=63),\n",
       "    Message('note_on', channel=0, note=64, velocity=60, time=1),\n",
       "    Message('note_on', channel=0, note=53, velocity=0, time=26),\n",
       "    Message('control_change', channel=0, control=64, value=127, time=87),\n",
       "    Message('note_on', channel=0, note=50, velocity=66, time=401),\n",
       "    Message('note_on', channel=0, note=62, velocity=76, time=1),\n",
       "    Message('note_on', channel=0, note=64, velocity=0, time=21),\n",
       "    Message('note_on', channel=0, note=52, velocity=0, time=12),\n",
       "    Message('control_change', channel=0, control=64, value=0, time=0),\n",
       "    Message('note_on', channel=0, note=52, velocity=76, time=191),\n",
       "    Message('note_on', channel=0, note=64, velocity=62, time=1),\n",
       "    Message('note_on', channel=0, note=50, velocity=0, time=27),\n",
       "    Message('note_on', channel=0, note=62, velocity=0, time=4),\n",
       "    Message('note_on', channel=0, note=62, velocity=54, time=244),\n",
       "    Message('note_on', channel=0, note=50, velocity=64, time=0),\n",
       "    Message('note_on', channel=0, note=64, velocity=0, time=27),\n",
       "    Message('note_on', channel=0, note=52, velocity=0, time=4),\n",
       "    Message('note_on', channel=0, note=52, velocity=80, time=206),\n",
       "    Message('note_on', channel=0, note=64, velocity=60, time=1),\n",
       "    Message('note_on', channel=0, note=50, velocity=0, time=39),\n",
       "    Message('note_on', channel=0, note=62, velocity=0, time=27),\n",
       "    Message('control_change', channel=0, control=64, value=127, time=77),\n",
       "    Message('control_change', channel=0, control=64, value=0, time=76),\n",
       "    Message('note_on', channel=0, note=50, velocity=70, time=44),\n",
       "    Message('note_on', channel=0, note=62, velocity=61, time=0),\n",
       "    Message('note_on', channel=0, note=64, velocity=0, time=10),\n",
       "    Message('note_on', channel=0, note=52, velocity=0, time=21),\n",
       "    Message('note_on', channel=0, note=52, velocity=81, time=221),\n",
       "    Message('note_on', channel=0, note=64, velocity=61, time=1),\n",
       "    Message('note_on', channel=0, note=50, velocity=0, time=31),\n",
       "    Message('note_on', channel=0, note=62, velocity=0, time=18),\n",
       "    Message('note_on', channel=0, note=64, velocity=0, time=161),\n",
       "    Message('note_on', channel=0, note=50, velocity=72, time=51),\n",
       "    Message('note_on', channel=0, note=62, velocity=62, time=0),\n",
       "    Message('note_on', channel=0, note=52, velocity=0, time=29),\n",
       "    Message('note_on', channel=0, note=48, velocity=75, time=470),\n",
       "    Message('note_on', channel=0, note=60, velocity=76, time=10),\n",
       "    Message('note_on', channel=0, note=50, velocity=0, time=13),\n",
       "    Message('note_on', channel=0, note=62, velocity=0, time=26),\n",
       "    Message('note_on', channel=0, note=50, velocity=71, time=195),\n",
       "    Message('note_on', channel=0, note=62, velocity=63, time=1),\n",
       "    Message('note_on', channel=0, note=48, velocity=0, time=23),\n",
       "    Message('note_on', channel=0, note=60, velocity=0, time=12),\n",
       "    Message('note_on', channel=0, note=48, velocity=76, time=222),\n",
       "    Message('note_on', channel=0, note=60, velocity=67, time=3),\n",
       "    Message('note_on', channel=0, note=50, velocity=0, time=26),\n",
       "    Message('note_on', channel=0, note=62, velocity=0, time=18),\n",
       "    Message('note_on', channel=0, note=62, velocity=66, time=193),\n",
       "    Message('note_on', channel=0, note=50, velocity=73, time=0),\n",
       "    Message('note_on', channel=0, note=48, velocity=0, time=19),\n",
       "    Message('note_on', channel=0, note=60, velocity=0, time=18),\n",
       "    Message('note_on', channel=0, note=48, velocity=75, time=210),\n",
       "    Message('note_on', channel=0, note=67, velocity=60, time=2),\n",
       "    Message('note_on', channel=0, note=60, velocity=66, time=0),\n",
       "    Message('note_on', channel=0, note=67, velocity=0, time=11),\n",
       "    Message('note_on', channel=0, note=50, velocity=0, time=25),\n",
       "    Message('note_on', channel=0, note=62, velocity=0, time=5),\n",
       "    Message('note_on', channel=0, note=50, velocity=70, time=204),\n",
       "    Message('note_on', channel=0, note=62, velocity=61, time=0),\n",
       "    Message('note_on', channel=0, note=48, velocity=0, time=39),\n",
       "    Message('note_on', channel=0, note=60, velocity=0, time=34),\n",
       "    Message('note_on', channel=0, note=60, velocity=67, time=194),\n",
       "    Message('note_on', channel=0, note=48, velocity=77, time=0),\n",
       "    Message('note_on', channel=0, note=50, velocity=0, time=31),\n",
       "    Message('note_on', channel=0, note=62, velocity=0, time=21),\n",
       "    Message('note_on', channel=0, note=48, velocity=0, time=732),\n",
       "    Message('note_on', channel=0, note=60, velocity=0, time=26),\n",
       "    Message('note_on', channel=0, note=72, velocity=79, time=5372),\n",
       "    Message('note_on', channel=0, note=60, velocity=83, time=3),\n",
       "    Message('note_on', channel=0, note=72, velocity=0, time=3),\n",
       "    Message('control_change', channel=0, control=64, value=127, time=100),\n",
       "    Message('note_on', channel=0, note=63, velocity=81, time=235),\n",
       "    Message('note_on', channel=0, note=75, velocity=73, time=2),\n",
       "    Message('control_change', channel=0, control=64, value=0, time=5),\n",
       "    Message('note_on', channel=0, note=60, velocity=0, time=31),\n",
       "    Message('note_on', channel=0, note=75, velocity=0, time=180),\n",
       "    Message('note_on', channel=0, note=64, velocity=89, time=98),\n",
       "    Message('note_on', channel=0, note=76, velocity=74, time=3),\n",
       "    Message('note_on', channel=0, note=63, velocity=0, time=56),\n",
       "    Message('note_on', channel=0, note=76, velocity=0, time=142),\n",
       "    Message('note_on', channel=0, note=79, velocity=76, time=112),\n",
       "    Message('note_on', channel=0, note=67, velocity=85, time=1),\n",
       "    Message('note_on', channel=0, note=64, velocity=0, time=37),\n",
       "    Message('note_on', channel=0, note=79, velocity=0, time=4),\n",
       "    Message('note_on', channel=0, note=72, velocity=72, time=281),\n",
       "    Message('note_on', channel=0, note=60, velocity=76, time=0),\n",
       "    Message('note_on', channel=0, note=67, velocity=0, time=47),\n",
       "    Message('note_on', channel=0, note=72, velocity=0, time=156),\n",
       "    Message('note_on', channel=0, note=63, velocity=80, time=104),\n",
       "    Message('note_on', channel=0, note=75, velocity=73, time=3),\n",
       "    Message('note_on', channel=0, note=60, velocity=0, time=68),\n",
       "    Message('note_on', channel=0, note=64, velocity=84, time=251),\n",
       "    Message('note_on', channel=0, note=76, velocity=68, time=1),\n",
       "    Message('note_on', channel=0, note=63, velocity=0, time=41),\n",
       "    Message('note_on', channel=0, note=75, velocity=0, time=0),\n",
       "    Message('note_on', channel=0, note=76, velocity=0, time=331),\n",
       "    Message('note_on', channel=0, note=53, velocity=82, time=251),\n",
       "    Message('note_on', channel=0, note=64, velocity=0, time=114),\n",
       "    Message('note_on', channel=0, note=56, velocity=77, time=200),\n",
       "    Message('note_on', channel=0, note=68, velocity=66, time=2),\n",
       "    Message('note_on', channel=0, note=53, velocity=0, time=42),\n",
       "    Message('note_on', channel=0, note=56, velocity=0, time=151),\n",
       "    Message('note_on', channel=0, note=57, velocity=74, time=111),\n",
       "    Message('note_on', channel=0, note=68, velocity=0, time=35),\n",
       "    Message('note_on', channel=0, note=60, velocity=70, time=272),\n",
       "    Message('note_on', channel=0, note=72, velocity=64, time=0),\n",
       "    Message('note_on', channel=0, note=57, velocity=0, time=33),\n",
       "    Message('note_on', channel=0, note=72, velocity=0, time=271),\n",
       "    Message('note_on', channel=0, note=60, velocity=0, time=4),\n",
       "    Message('note_on', channel=0, note=53, velocity=75, time=4),\n",
       "    Message('control_change', channel=0, control=64, value=127, time=145),\n",
       "    Message('control_change', channel=0, control=64, value=0, time=70),\n",
       "    Message('note_on', channel=0, note=48, velocity=49, time=80),\n",
       "    Message('note_on', channel=0, note=56, velocity=72, time=5),\n",
       "    Message('note_on', channel=0, note=68, velocity=58, time=2),\n",
       "    Message('note_on', channel=0, note=48, velocity=0, time=5),\n",
       "    Message('note_on', channel=0, note=53, velocity=0, time=21),\n",
       "    Message('note_on', channel=0, note=69, velocity=61, time=276),\n",
       "    Message('note_on', channel=0, note=57, velocity=74, time=0),\n",
       "    Message('note_on', channel=0, note=68, velocity=0, time=18),\n",
       "    Message('note_on', channel=0, note=56, velocity=0, time=7),\n",
       "    Message('note_on', channel=0, note=69, velocity=0, time=553),\n",
       "    Message('note_on', channel=0, note=55, velocity=80, time=12),\n",
       "    Message('note_on', channel=0, note=67, velocity=65, time=4),\n",
       "    Message('note_on', channel=0, note=67, velocity=0, time=7),\n",
       "    Message('control_change', channel=0, control=64, value=127, time=0),\n",
       "    Message('control_change', channel=0, control=64, value=0, time=27),\n",
       "    Message('note_on', channel=0, note=57, velocity=0, time=10),\n",
       "    Message('note_on', channel=0, note=58, velocity=81, time=252),\n",
       "    Message('note_on', channel=0, note=70, velocity=71, time=1),\n",
       "    Message('note_on', channel=0, note=55, velocity=0, time=57),\n",
       "    Message('note_on', channel=0, note=59, velocity=83, time=211),\n",
       "    Message('note_on', channel=0, note=71, velocity=75, time=1),\n",
       "    Message('note_on', channel=0, note=58, velocity=0, time=27),\n",
       "    Message('note_on', channel=0, note=70, velocity=0, time=21),\n",
       "    Message('note_on', channel=0, note=59, velocity=0, time=238),\n",
       "    Message('note_on', channel=0, note=74, velocity=76, time=4),\n",
       "    Message('note_on', channel=0, note=62, velocity=86, time=1),\n",
       "    Message('note_on', channel=0, note=59, velocity=76, time=0),\n",
       "    Message('note_on', channel=0, note=59, velocity=0, time=43),\n",
       "    Message('note_on', channel=0, note=71, velocity=0, time=29),\n",
       "    Message('note_on', channel=0, note=74, velocity=0, time=177),\n",
       "    Message('note_on', channel=0, note=55, velocity=80, time=58),\n",
       "    Message('note_on', channel=0, note=62, velocity=0, time=100),\n",
       "    Message('control_change', channel=0, control=64, value=127, time=141),\n",
       "    Message('note_on', channel=0, note=58, velocity=84, time=53),\n",
       "    Message('note_on', channel=0, note=70, velocity=75, time=1),\n",
       "    Message('control_change', channel=0, control=64, value=0, time=0),\n",
       "    Message('note_on', channel=0, note=55, velocity=0, time=47),\n",
       "    Message('control_change', channel=0, control=64, value=127, time=153),\n",
       "    Message('note_on', channel=0, note=59, velocity=85, time=110),\n",
       "    Message('note_on', channel=0, note=71, velocity=76, time=1),\n",
       "    Message('note_on', channel=0, note=70, velocity=0, time=4),\n",
       "    Message('control_change', channel=0, control=64, value=0, time=28),\n",
       "    Message('note_on', channel=0, note=58, velocity=0, time=16),\n",
       "    Message('control_change', channel=0, control=64, value=127, time=217),\n",
       "    Message('control_change', channel=0, control=64, value=0, time=342),\n",
       "    Message('note_on', channel=0, note=72, velocity=79, time=22),\n",
       "    Message('note_on', channel=0, note=60, velocity=84, time=1),\n",
       "    Message('note_on', channel=0, note=71, velocity=0, time=73),\n",
       "    Message('note_on', channel=0, note=59, velocity=0, time=38),\n",
       "    Message('control_change', channel=0, control=64, value=127, time=92),\n",
       "    Message('note_on', channel=0, note=55, velocity=74, time=418),\n",
       "    Message('control_change', channel=0, control=64, value=0, time=28),\n",
       "    Message('note_on', channel=0, note=60, velocity=0, time=69),\n",
       "    Message('control_change', channel=0, control=64, value=127, time=123),\n",
       "    Message('control_change', channel=0, control=64, value=0, time=397),\n",
       "    Message('note_on', channel=0, note=72, velocity=0, time=2),\n",
       "    Message('note_on', channel=0, note=72, velocity=74, time=8),\n",
       "    Message('note_on', channel=0, note=60, velocity=78, time=1),\n",
       "    Message('note_on', channel=0, note=55, velocity=0, time=101),\n",
       "    Message('control_change', channel=0, control=64, value=127, time=67),\n",
       "    Message('control_change', channel=0, control=64, value=0, time=922),\n",
       "    Message('note_on', channel=0, note=72, velocity=0, time=11),\n",
       "    Message('note_on', channel=0, note=60, velocity=0, time=4),\n",
       "    Message('note_on', channel=0, note=79, velocity=88, time=2442),\n",
       "    Message('note_on', channel=0, note=51, velocity=79, time=1),\n",
       "    Message('note_on', channel=0, note=67, velocity=93, time=0),\n",
       "    Message('note_on', channel=0, note=79, velocity=0, time=68),\n",
       "    Message('control_change', channel=0, control=64, value=127, time=77),\n",
       "    Message('note_on', channel=0, note=77, velocity=75, time=172),\n",
       "    Message('note_on', channel=0, note=65, velocity=81, time=0),\n",
       "    Message('note_on', channel=0, note=77, velocity=0, time=4),\n",
       "    Message('control_change', channel=0, control=64, value=0, time=46),\n",
       "    Message('note_on', channel=0, note=67, velocity=0, time=4),\n",
       "    Message('note_on', channel=0, note=63, velocity=82, time=257),\n",
       "    Message('note_on', channel=0, note=75, velocity=71, time=3),\n",
       "    Message('note_on', channel=0, note=65, velocity=0, time=55),\n",
       "    Message('control_change', channel=0, control=64, value=127, time=81),\n",
       "    Message('note_on', channel=0, note=75, velocity=0, time=146),\n",
       "    Message('note_on', channel=0, note=62, velocity=75, time=24),\n",
       "    Message('control_change', channel=0, control=64, value=0, time=60),\n",
       "    Message('note_on', channel=0, note=63, velocity=0, time=8),\n",
       "    Message('note_on', channel=0, note=51, velocity=0, time=15),\n",
       "    Message('control_change', channel=0, control=64, value=127, time=146),\n",
       "    Message('control_change', channel=0, control=64, value=0, time=39),\n",
       "    Message('note_on', channel=0, note=48, velocity=71, time=27),\n",
       "    Message('note_on', channel=0, note=75, velocity=75, time=16),\n",
       "    Message('note_on', channel=0, note=63, velocity=80, time=2),\n",
       "    Message('note_on', channel=0, note=62, velocity=0, time=54),\n",
       "    Message('control_change', channel=0, control=64, value=127, time=146),\n",
       "    Message('note_on', channel=0, note=75, velocity=0, time=377),\n",
       "    Message('note_on', channel=0, note=72, velocity=68, time=11),\n",
       "    Message('note_on', channel=0, note=60, velocity=72, time=2),\n",
       "    Message('note_on', channel=0, note=72, velocity=0, time=2),\n",
       "    Message('control_change', channel=0, control=64, value=0, time=54),\n",
       "    Message('control_change', channel=0, control=64, value=127, time=84),\n",
       "    Message('note_on', channel=0, note=48, velocity=0, time=369),\n",
       "    Message('note_on', channel=0, note=63, velocity=0, time=100),\n",
       "    Message('note_on', channel=0, note=62, velocity=72, time=1),\n",
       "    Message('control_change', channel=0, control=64, value=0, time=25),\n",
       "    Message('note_on', channel=0, note=60, velocity=0, time=63),\n",
       "    Message('control_change', channel=0, control=64, value=127, time=95),\n",
       "    Message('note_on', channel=0, note=55, velocity=70, time=401),\n",
       "    Message('control_change', channel=0, control=64, value=0, time=1),\n",
       "    Message('control_change', channel=0, control=64, value=127, time=143),\n",
       "    Message('note_on', channel=0, note=62, velocity=0, time=2),\n",
       "    Message('control_change', channel=0, control=64, value=0, time=425),\n",
       "    Message('note_on', channel=0, note=72, velocity=71, time=8),\n",
       "    Message('note_on', channel=0, note=60, velocity=73, time=3),\n",
       "    Message('note_on', channel=0, note=55, velocity=0, time=97),\n",
       "    Message('control_change', channel=0, control=64, value=127, time=72),\n",
       "    Message('note_on', channel=0, note=72, velocity=0, time=484),\n",
       "    Message('note_on', channel=0, note=60, velocity=0, time=484),\n",
       "    Message('note_on', channel=0, note=62, velocity=70, time=4),\n",
       "    Message('note_on', channel=0, note=60, velocity=59, time=3),\n",
       "    Message('note_on', channel=0, note=53, velocity=66, time=1),\n",
       "    Message('control_change', channel=0, control=64, value=0, time=87),\n",
       "    Message('control_change', channel=0, control=64, value=127, time=5),\n",
       "    Message('note_on', channel=0, note=53, velocity=0, time=192),\n",
       "    Message('note_on', channel=0, note=53, velocity=55, time=4),\n",
       "    Message('note_on', channel=0, note=63, velocity=82, time=1),\n",
       "    Message('control_change', channel=0, control=64, value=0, time=48),\n",
       "    Message('note_on', channel=0, note=60, velocity=0, time=39),\n",
       "    Message('note_on', channel=0, note=62, velocity=0, time=19),\n",
       "    Message('control_change', channel=0, control=64, value=127, time=34),\n",
       "    Message('note_on', channel=0, note=53, velocity=0, time=154),\n",
       "    Message('note_on', channel=0, note=65, velocity=84, time=5),\n",
       "    Message('note_on', channel=0, note=53, velocity=54, time=1),\n",
       "    Message('control_change', channel=0, control=64, value=0, time=76),\n",
       "    Message('note_on', channel=0, note=63, velocity=0, time=7),\n",
       "    Message('note_on', channel=0, note=62, velocity=81, time=197),\n",
       "    Message('note_on', channel=0, note=53, velocity=0, time=55),\n",
       "    Message('note_on', channel=0, note=65, velocity=0, time=22),\n",
       "    Message('note_on', channel=0, note=48, velocity=72, time=202),\n",
       "    Message('note_on', channel=0, note=63, velocity=84, time=7),\n",
       "    Message('note_on', channel=0, note=75, velocity=76, time=0),\n",
       "    Message('note_on', channel=0, note=62, velocity=0, time=109),\n",
       "    Message('control_change', channel=0, control=64, value=127, time=102),\n",
       "    Message('note_on', channel=0, note=72, velocity=72, time=372),\n",
       "    Message('note_on', channel=0, note=60, velocity=77, time=1),\n",
       "    Message('control_change', channel=0, control=64, value=0, time=40),\n",
       "    Message('note_on', channel=0, note=75, velocity=0, time=71),\n",
       "    Message('control_change', channel=0, control=64, value=127, time=23),\n",
       "    Message('note_on', channel=0, note=60, velocity=0, time=423),\n",
       "    Message('note_on', channel=0, note=62, velocity=75, time=5),\n",
       "    Message('note_on', channel=0, note=60, velocity=66, time=1),\n",
       "    Message('note_on', channel=0, note=63, velocity=0, time=24),\n",
       "    Message('control_change', channel=0, control=64, value=0, time=23),\n",
       "    Message('note_on', channel=0, note=48, velocity=0, time=10),\n",
       "    Message('note_on', channel=0, note=60, velocity=0, time=0),\n",
       "    Message('note_on', channel=0, note=72, velocity=0, time=6),\n",
       "    Message('control_change', channel=0, control=64, value=127, time=200),\n",
       "    Message('note_on', channel=0, note=55, velocity=71, time=328),\n",
       "    Message('control_change', channel=0, control=64, value=0, time=57),\n",
       "    Message('note_on', channel=0, note=62, velocity=0, time=42),\n",
       "    Message('control_change', channel=0, control=64, value=127, time=110),\n",
       "    Message('note_on', channel=0, note=60, velocity=73, time=366),\n",
       "    Message('note_on', channel=0, note=55, velocity=0, time=3),\n",
       "    Message('note_on', channel=0, note=55, velocity=55, time=6),\n",
       "    Message('note_on', channel=0, note=51, velocity=68, time=6),\n",
       "    Message('control_change', channel=0, control=64, value=0, time=31),\n",
       "    Message('note_on', channel=0, note=55, velocity=0, time=119),\n",
       "    Message('control_change', channel=0, control=64, value=127, time=598),\n",
       "    Message('control_change', channel=0, control=64, value=0, time=92),\n",
       "    Message('note_on', channel=0, note=51, velocity=0, time=276),\n",
       "    Message('note_on', channel=0, note=60, velocity=0, time=20),\n",
       "    Message('note_on', channel=0, note=79, velocity=85, time=4571),\n",
       "    Message('note_on', channel=0, note=52, velocity=86, time=0),\n",
       "    Message('note_on', channel=0, note=67, velocity=92, time=2),\n",
       "    Message('note_on', channel=0, note=79, velocity=0, time=8),\n",
       "    Message('control_change', channel=0, control=64, value=127, time=146),\n",
       "    Message('note_on', channel=0, note=65, velocity=86, time=417),\n",
       "    Message('control_change', channel=0, control=64, value=0, time=32),\n",
       "    Message('note_on', channel=0, note=67, velocity=0, time=23),\n",
       "    Message('control_change', channel=0, control=64, value=127, time=173),\n",
       "    Message('note_on', channel=0, note=64, velocity=89, time=305),\n",
       "    Message('note_on', channel=0, note=55, velocity=77, time=2),\n",
       "    Message('note_on', channel=0, note=76, velocity=78, time=0),\n",
       "    Message('control_change', channel=0, control=64, value=0, time=65),\n",
       "    Message('note_on', channel=0, note=52, velocity=0, time=11),\n",
       "    Message('note_on', channel=0, note=65, velocity=0, time=5),\n",
       "    Message('control_change', channel=0, control=64, value=127, time=157),\n",
       "    Message('note_on', channel=0, note=76, velocity=0, time=162),\n",
       "    Message('note_on', channel=0, note=65, velocity=80, time=180),\n",
       "    Message('note_on', channel=0, note=77, velocity=70, time=0),\n",
       "    Message('control_change', channel=0, control=64, value=0, time=51),\n",
       "    Message('note_on', channel=0, note=64, velocity=0, time=1),\n",
       "    Message('note_on', channel=0, note=77, velocity=0, time=182),\n",
       "    Message('control_change', channel=0, control=64, value=127, time=23),\n",
       "    Message('note_on', channel=0, note=63, velocity=75, time=319),\n",
       "    Message('note_on', channel=0, note=75, velocity=70, time=1),\n",
       "    Message('note_on', channel=0, note=48, velocity=63, time=24),\n",
       "    Message('note_on', channel=0, note=55, velocity=0, time=36),\n",
       "    Message('note_on', channel=0, note=65, velocity=0, time=4),\n",
       "    Message('control_change', channel=0, control=64, value=0, time=14),\n",
       "    Message('note_on', channel=0, note=64, velocity=89, time=198),\n",
       "    Message('note_on', channel=0, note=76, velocity=76, time=0),\n",
       "    Message('note_on', channel=0, note=63, velocity=0, time=37),\n",
       "    Message('note_on', channel=0, note=75, velocity=0, time=5),\n",
       "    Message('note_on', channel=0, note=63, velocity=83, time=227),\n",
       "    Message('note_on', channel=0, note=75, velocity=77, time=1),\n",
       "    Message('note_on', channel=0, note=48, velocity=0, time=44),\n",
       "    Message('note_on', channel=0, note=64, velocity=0, time=39),\n",
       "    Message('note_on', channel=0, note=76, velocity=0, time=4),\n",
       "    Message('note_on', channel=0, note=64, velocity=85, time=180),\n",
       "    Message('note_on', channel=0, note=76, velocity=70, time=5),\n",
       "    Message('note_on', channel=0, note=76, velocity=0, time=7),\n",
       "    Message('note_on', channel=0, note=75, velocity=0, time=192),\n",
       "    Message('note_on', channel=0, note=63, velocity=0, time=7),\n",
       "    Message('note_on', channel=0, note=72, velocity=66, time=69),\n",
       "    Message('note_on', channel=0, note=60, velocity=73, time=3),\n",
       "    Message('note_on', channel=0, note=52, velocity=61, time=2),\n",
       "    Message('note_on', channel=0, note=52, velocity=0, time=1050),\n",
       "    Message('note_on', channel=0, note=64, velocity=0, time=13),\n",
       "    Message('note_on', channel=0, note=60, velocity=0, time=10),\n",
       "    Message('note_on', channel=0, note=72, velocity=0, time=13),\n",
       "    Message('note_on', channel=0, note=79, velocity=70, time=3335),\n",
       "    Message('note_on', channel=0, note=67, velocity=76, time=1),\n",
       "    Message('note_on', channel=0, note=81, velocity=80, time=276),\n",
       "    Message('note_on', channel=0, note=69, velocity=85, time=1),\n",
       "    Message('note_on', channel=0, note=67, velocity=0, time=37),\n",
       "    Message('note_on', channel=0, note=79, velocity=0, time=36),\n",
       "    Message('note_on', channel=0, note=71, velocity=91, time=183),\n",
       "    Message('note_on', channel=0, note=69, velocity=0, time=37),\n",
       "    Message('note_on', channel=0, note=81, velocity=0, time=88),\n",
       "    Message('note_on', channel=0, note=72, velocity=89, time=126),\n",
       "    Message('note_on', channel=0, note=71, velocity=0, time=48),\n",
       "    Message('note_on', channel=0, note=74, velocity=85, time=215),\n",
       "    Message('note_on', channel=0, note=72, velocity=0, time=43),\n",
       "    Message('note_on', channel=0, note=72, velocity=85, time=208),\n",
       "    Message('note_on', channel=0, note=74, velocity=0, time=57),\n",
       "    Message('note_on', channel=0, note=71, velocity=81, time=221),\n",
       "    Message('note_on', channel=0, note=72, velocity=0, time=86),\n",
       "    Message('note_on', channel=0, note=81, velocity=68, time=189),\n",
       "    Message('note_on', channel=0, note=69, velocity=72, time=1),\n",
       "    Message('note_on', channel=0, note=71, velocity=0, time=58),\n",
       "    Message('note_on', channel=0, note=79, velocity=73, time=204),\n",
       "    Message('note_on', channel=0, note=67, velocity=79, time=1),\n",
       "    Message('note_on', channel=0, note=55, velocity=60, time=5),\n",
       "    Message('note_on', channel=0, note=69, velocity=0, time=39),\n",
       "    Message('note_on', channel=0, note=81, velocity=0, time=27),\n",
       "    Message('note_on', channel=0, note=57, velocity=68, time=181),\n",
       "    Message('note_on', channel=0, note=55, velocity=0, time=61),\n",
       "    Message('note_on', channel=0, note=59, velocity=82, time=208),\n",
       "    Message('note_on', channel=0, note=71, velocity=75, time=0),\n",
       "    Message('note_on', channel=0, note=57, velocity=0, time=50),\n",
       "    Message('note_on', channel=0, note=79, velocity=0, time=176),\n",
       "    Message('note_on', channel=0, note=72, velocity=79, time=19),\n",
       "    Message('note_on', channel=0, note=60, velocity=83, time=0),\n",
       "    Message('note_on', channel=0, note=59, velocity=0, time=38),\n",
       "    Message('note_on', channel=0, note=71, velocity=0, time=58),\n",
       "    Message('note_on', channel=0, note=74, velocity=89, time=157),\n",
       "    Message('note_on', channel=0, note=62, velocity=73, time=7),\n",
       "    Message('note_on', channel=0, note=67, velocity=0, time=39),\n",
       "    Message('note_on', channel=0, note=60, velocity=0, time=24),\n",
       "    Message('note_on', channel=0, note=72, velocity=0, time=11),\n",
       "    Message('note_on', channel=0, note=72, velocity=69, time=184),\n",
       "    Message('note_on', channel=0, note=60, velocity=77, time=2),\n",
       "    Message('note_on', channel=0, note=62, velocity=0, time=81),\n",
       "    Message('note_on', channel=0, note=59, velocity=75, time=176),\n",
       "    Message('note_on', channel=0, note=71, velocity=67, time=1),\n",
       "    Message('note_on', channel=0, note=60, velocity=0, time=42),\n",
       "    Message('note_on', channel=0, note=72, velocity=0, time=36),\n",
       "    Message('note_on', channel=0, note=57, velocity=64, time=171),\n",
       "    Message('note_on', channel=0, note=59, velocity=0, time=40),\n",
       "    Message('note_on', channel=0, note=79, velocity=69, time=219),\n",
       "    Message('note_on', channel=0, note=67, velocity=74, time=1),\n",
       "    Message('note_on', channel=0, note=55, velocity=61, time=5),\n",
       "    Message('note_on', channel=0, note=57, velocity=0, time=50),\n",
       "    Message('note_on', channel=0, note=71, velocity=0, time=44),\n",
       "    Message('note_on', channel=0, note=81, velocity=68, time=170),\n",
       "    Message('note_on', channel=0, note=69, velocity=72, time=2),\n",
       "    Message('note_on', channel=0, note=74, velocity=0, time=43),\n",
       "    Message('note_on', channel=0, note=67, velocity=0, time=28),\n",
       "    Message('note_on', channel=0, note=79, velocity=0, time=26),\n",
       "    Message('note_on', channel=0, note=55, velocity=0, time=58),\n",
       "    Message('note_on', channel=0, note=71, velocity=86, time=99),\n",
       "    Message('note_on', channel=0, note=69, velocity=0, time=82),\n",
       "    Message('note_on', channel=0, note=81, velocity=0, time=160),\n",
       "    Message('note_on', channel=0, note=72, velocity=89, time=17),\n",
       "    Message('note_on', channel=0, note=71, velocity=0, time=48),\n",
       "    Message('note_on', channel=0, note=74, velocity=90, time=198),\n",
       "    Message('note_on', channel=0, note=72, velocity=0, time=57),\n",
       "    Message('note_on', channel=0, note=72, velocity=85, time=212),\n",
       "    Message('note_on', channel=0, note=74, velocity=0, time=74),\n",
       "    Message('note_on', channel=0, note=71, velocity=87, time=166),\n",
       "    Message('note_on', channel=0, note=72, velocity=0, time=86),\n",
       "    Message('note_on', channel=0, note=81, velocity=79, time=182),\n",
       "    Message('note_on', channel=0, note=69, velocity=87, time=1),\n",
       "    Message('note_on', channel=0, note=71, velocity=0, time=63),\n",
       "    Message('note_on', channel=0, note=79, velocity=78, time=189),\n",
       "    Message('note_on', channel=0, note=67, velocity=85, time=2),\n",
       "    Message('note_on', channel=0, note=62, velocity=66, time=21),\n",
       "    Message('note_on', channel=0, note=69, velocity=0, time=12),\n",
       "    Message('note_on', channel=0, note=81, velocity=0, time=201),\n",
       "    Message('note_on', channel=0, note=60, velocity=74, time=24),\n",
       "    Message('note_on', channel=0, note=62, velocity=0, time=83),\n",
       "    Message('note_on', channel=0, note=59, velocity=75, time=158),\n",
       "    Message('note_on', channel=0, note=60, velocity=0, time=45),\n",
       "    Message('note_on', channel=0, note=57, velocity=67, time=227),\n",
       "    Message('note_on', channel=0, note=59, velocity=0, time=36),\n",
       "    Message('note_on', channel=0, note=55, velocity=63, time=251),\n",
       "    Message('note_on', channel=0, note=57, velocity=0, time=34),\n",
       "    Message('note_on', channel=0, note=79, velocity=0, time=140),\n",
       "    Message('note_on', channel=0, note=55, velocity=0, time=746),\n",
       "    Message('note_on', channel=0, note=67, velocity=0, time=10),\n",
       "    Message('note_on', channel=0, note=74, velocity=93, time=1858),\n",
       "    Message('note_on', channel=0, note=71, velocity=81, time=2),\n",
       "    Message('note_on', channel=0, note=59, velocity=82, time=3),\n",
       "    Message('note_on', channel=0, note=71, velocity=0, time=8),\n",
       "    Message('note_on', channel=0, note=71, velocity=77, time=272),\n",
       "    Message('note_on', channel=0, note=74, velocity=0, time=54),\n",
       "    Message('note_on', channel=0, note=71, velocity=0, time=16),\n",
       "    Message('note_on', channel=0, note=59, velocity=0, time=226),\n",
       "    Message('note_on', channel=0, note=59, velocity=60, time=5),\n",
       "    Message('note_on', channel=0, note=71, velocity=86, time=2),\n",
       "    Message('note_on', channel=0, note=62, velocity=66, time=8),\n",
       "    Message('control_change', channel=0, control=64, value=127, time=54),\n",
       "    Message('control_change', channel=0, control=64, value=0, time=85),\n",
       "    Message('note_on', channel=0, note=59, velocity=0, time=23),\n",
       "    Message('note_on', channel=0, note=67, velocity=63, time=116),\n",
       "    Message('note_on', channel=0, note=67, velocity=0, time=94),\n",
       "    Message('note_on', channel=0, note=71, velocity=0, time=28),\n",
       "    Message('note_on', channel=0, note=81, velocity=74, time=171),\n",
       "    Message('note_on', channel=0, note=69, velocity=79, time=2),\n",
       "    Message('note_on', channel=0, note=60, velocity=73, time=1),\n",
       "    Message('note_on', channel=0, note=62, velocity=0, time=79),\n",
       "    Message('note_on', channel=0, note=81, velocity=0, time=23),\n",
       "    Message('note_on', channel=0, note=71, velocity=88, time=167),\n",
       "    Message('note_on', channel=0, note=69, velocity=0, time=48),\n",
       "    Message('note_on', channel=0, note=72, velocity=79, time=248),\n",
       "    Message('note_on', channel=0, note=71, velocity=0, time=62),\n",
       "    Message('note_on', channel=0, note=72, velocity=0, time=292),\n",
       "    Message('note_on', channel=0, note=72, velocity=88, time=208),\n",
       "    Message('note_on', channel=0, note=57, velocity=65, time=2),\n",
       "    Message('note_on', channel=0, note=60, velocity=0, time=24),\n",
       "    Message('note_on', channel=0, note=72, velocity=0, time=263),\n",
       "    Message('note_on', channel=0, note=69, velocity=61, time=3),\n",
       "    Message('note_on', channel=0, note=72, velocity=49, time=2),\n",
       "    Message('note_on', channel=0, note=69, velocity=0, time=45),\n",
       "    Message('note_on', channel=0, note=72, velocity=0, time=11),\n",
       "    Message('note_on', channel=0, note=72, velocity=44, time=9),\n",
       "    Message('note_on', channel=0, note=72, velocity=0, time=18),\n",
       "    Message('note_on', channel=0, note=57, velocity=0, time=180),\n",
       "    Message('note_on', channel=0, note=57, velocity=53, time=9),\n",
       "    Message('note_on', channel=0, note=81, velocity=75, time=2),\n",
       "    Message('note_on', channel=0, note=60, velocity=66, time=1),\n",
       "    Message('note_on', channel=0, note=69, velocity=79, time=0),\n",
       "    Message('note_on', channel=0, note=57, velocity=0, time=28),\n",
       "    Message('control_change', channel=0, control=64, value=127, time=152),\n",
       "    Message('note_on', channel=0, note=72, velocity=60, time=104),\n",
       "    Message('control_change', channel=0, control=64, value=0, time=66),\n",
       "    Message('note_on', channel=0, note=69, velocity=0, time=9),\n",
       "    Message('note_on', channel=0, note=72, velocity=0, time=10),\n",
       "    Message('note_on', channel=0, note=81, velocity=0, time=72),\n",
       "    Message('note_on', channel=0, note=71, velocity=76, time=135),\n",
       "    Message('note_on', channel=0, note=60, velocity=0, time=27),\n",
       "    Message('note_on', channel=0, note=60, velocity=45, time=7),\n",
       "    Message('note_on', channel=0, note=62, velocity=46, time=6),\n",
       "    Message('note_on', channel=0, note=60, velocity=0, time=71),\n",
       "    Message('note_on', channel=0, note=72, velocity=87, time=167),\n",
       "    Message('note_on', channel=0, note=71, velocity=0, time=52),\n",
       "    Message('note_on', channel=0, note=74, velocity=79, time=231),\n",
       "    Message('note_on', channel=0, note=72, velocity=0, time=84),\n",
       "    Message('note_on', channel=0, note=74, velocity=0, time=234),\n",
       "    Message('note_on', channel=0, note=74, velocity=35, time=11),\n",
       "    Message('note_on', channel=0, note=74, velocity=0, time=43),\n",
       "    Message('note_on', channel=0, note=74, velocity=87, time=173),\n",
       "    Message('note_on', channel=0, note=59, velocity=70, time=1),\n",
       "    Message('note_on', channel=0, note=71, velocity=61, time=289),\n",
       "    Message('note_on', channel=0, note=74, velocity=0, time=40),\n",
       "    Message('note_on', channel=0, note=71, velocity=0, time=21),\n",
       "    Message('note_on', channel=0, note=62, velocity=0, time=52),\n",
       "    Message('note_on', channel=0, note=71, velocity=73, time=165),\n",
       "    Message('note_on', channel=0, note=62, velocity=57, time=1),\n",
       "    Message('note_on', channel=0, note=59, velocity=0, time=135),\n",
       "    Message('note_on', channel=0, note=67, velocity=59, time=135),\n",
       "    Message('note_on', channel=0, note=67, velocity=0, time=97),\n",
       "    Message('note_on', channel=0, note=71, velocity=0, time=8),\n",
       "    Message('note_on', channel=0, note=69, velocity=75, time=174),\n",
       "    Message('note_on', channel=0, note=60, velocity=67, time=3),\n",
       "    Message('note_on', channel=0, note=62, velocity=0, time=42),\n",
       "    Message('control_change', channel=0, control=64, value=127, time=23),\n",
       "    Message('note_on', channel=0, note=71, velocity=85, time=189),\n",
       "    Message('control_change', channel=0, control=64, value=0, time=11),\n",
       "    Message('note_on', channel=0, note=69, velocity=0, time=19),\n",
       "    Message('note_on', channel=0, note=72, velocity=76, time=272),\n",
       "    Message('note_on', channel=0, note=71, velocity=0, time=107),\n",
       "    Message('note_on', channel=0, note=72, velocity=0, time=236),\n",
       "    Message('note_on', channel=0, note=72, velocity=81, time=230),\n",
       "    Message('note_on', channel=0, note=57, velocity=58, time=4),\n",
       "    Message('note_on', channel=0, note=60, velocity=0, time=35),\n",
       "    Message('control_change', channel=0, control=64, value=127, time=34),\n",
       "    Message('note_on', channel=0, note=69, velocity=66, time=187),\n",
       "    Message('control_change', channel=0, control=64, value=0, time=81),\n",
       "    Message('note_on', channel=0, note=69, velocity=0, time=9),\n",
       "    Message('note_on', channel=0, note=72, velocity=0, time=4),\n",
       "    Message('note_on', channel=0, note=69, velocity=74, time=184),\n",
       "    Message('note_on', channel=0, note=60, velocity=63, time=5),\n",
       "    Message('note_on', channel=0, note=57, velocity=0, time=33),\n",
       "    Message('control_change', channel=0, control=64, value=127, time=27),\n",
       "    Message('note_on', channel=0, note=71, velocity=56, time=206),\n",
       "    Message('note_on', channel=0, note=69, velocity=0, time=59),\n",
       "    Message('control_change', channel=0, control=64, value=0, time=10),\n",
       "    Message('note_on', channel=0, note=71, velocity=0, time=42),\n",
       "    Message('note_on', channel=0, note=67, velocity=66, time=202),\n",
       "    Message('note_on', channel=0, note=59, velocity=49, time=6),\n",
       "    Message('note_on', channel=0, note=60, velocity=0, time=105),\n",
       "    Message('control_change', channel=0, control=64, value=127, time=192),\n",
       "    Message('note_on', channel=0, note=59, velocity=0, time=912),\n",
       "    Message('control_change', channel=0, control=64, value=0, time=4),\n",
       "    Message('note_on', channel=0, note=67, velocity=0, time=0),\n",
       "    Message('note_on', channel=0, note=74, velocity=92, time=5413),\n",
       "    Message('note_on', channel=0, note=55, velocity=63, time=7),\n",
       "    Message('note_on', channel=0, note=59, velocity=72, time=288),\n",
       "    Message('note_on', channel=0, note=71, velocity=59, time=1),\n",
       "    Message('note_on', channel=0, note=55, velocity=0, time=140),\n",
       "    Message('note_on', channel=0, note=62, velocity=59, time=132),\n",
       "    Message('note_on', channel=0, note=59, velocity=0, time=31),\n",
       "    Message('note_on', channel=0, note=71, velocity=0, time=22),\n",
       "    Message('note_on', channel=0, note=71, velocity=72, time=195),\n",
       "    Message('note_on', channel=0, note=55, velocity=45, time=10),\n",
       "    Message('note_on', channel=0, note=62, velocity=0, time=129),\n",
       "    Message('note_on', channel=0, note=74, velocity=0, time=38),\n",
       "    Message('note_on', channel=0, note=71, velocity=0, time=73),\n",
       "    Message('note_on', channel=0, note=59, velocity=62, time=10),\n",
       "    Message('note_on', channel=0, note=71, velocity=56, time=1),\n",
       "    Message('note_on', channel=0, note=55, velocity=0, time=131),\n",
       "    Message('note_on', channel=0, note=71, velocity=0, time=50),\n",
       "    Message('note_on', channel=0, note=71, velocity=37, time=6),\n",
       "    Message('note_on', channel=0, note=71, velocity=0, time=48),\n",
       "    Message('note_on', channel=0, note=62, velocity=52, time=27),\n",
       "    Message('note_on', channel=0, note=59, velocity=0, time=96),\n",
       "    Message('note_on', channel=0, note=57, velocity=56, time=161),\n",
       "    Message('note_on', channel=0, note=72, velocity=87, time=20),\n",
       "    Message('note_on', channel=0, note=62, velocity=0, time=93),\n",
       "    Message('note_on', channel=0, note=59, velocity=71, time=150),\n",
       "    Message('note_on', channel=0, note=57, velocity=0, time=49),\n",
       "    Message('note_on', channel=0, note=60, velocity=76, time=215),\n",
       "    Message('note_on', channel=0, note=59, velocity=0, time=27),\n",
       "    Message('note_on', channel=0, note=71, velocity=77, time=211),\n",
       "    Message('note_on', channel=0, note=60, velocity=0, time=19),\n",
       "    Message('note_on', channel=0, note=60, velocity=52, time=5),\n",
       "    Message('note_on', channel=0, note=62, velocity=53, time=7),\n",
       "    Message('note_on', channel=0, note=60, velocity=0, time=54),\n",
       "    Message('note_on', channel=0, note=72, velocity=0, time=14),\n",
       "    Message('note_on', channel=0, note=69, velocity=61, time=428),\n",
       "    Message('note_on', channel=0, note=60, velocity=47, time=40),\n",
       "    Message('note_on', channel=0, note=71, velocity=0, time=57),\n",
       "    Message('note_on', channel=0, note=62, velocity=0, time=28),\n",
       "    Message('note_on', channel=0, note=74, velocity=84, time=161),\n",
       "    Message('note_on', channel=0, note=55, velocity=57, time=2),\n",
       "    Message('note_on', channel=0, note=60, velocity=0, time=43),\n",
       "    Message('note_on', channel=0, note=69, velocity=0, time=5),\n",
       "    Message('note_on', channel=0, note=59, velocity=62, time=215),\n",
       "    Message('note_on', channel=0, note=71, velocity=49, time=3),\n",
       "    Message('note_on', channel=0, note=55, velocity=0, time=107),\n",
       "    Message('note_on', channel=0, note=59, velocity=0, time=167),\n",
       "    Message('note_on', channel=0, note=62, velocity=56, time=3),\n",
       "    Message('note_on', channel=0, note=59, velocity=45, time=6),\n",
       "    Message('note_on', channel=0, note=59, velocity=0, time=51),\n",
       "    Message('note_on', channel=0, note=71, velocity=0, time=32),\n",
       "    Message('note_on', channel=0, note=71, velocity=67, time=167),\n",
       "    Message('note_on', channel=0, note=62, velocity=0, time=2),\n",
       "    Message('note_on', channel=0, note=55, velocity=44, time=4),\n",
       "    Message('note_on', channel=0, note=62, velocity=41, time=7),\n",
       "    Message('note_on', channel=0, note=62, velocity=0, time=99),\n",
       "    Message('note_on', channel=0, note=74, velocity=0, time=42),\n",
       "    Message('note_on', channel=0, note=59, velocity=55, time=120),\n",
       "    Message('note_on', channel=0, note=55, velocity=0, time=150),\n",
       "    Message('note_on', channel=0, note=47, velocity=32, time=118),\n",
       "    Message('note_on', channel=0, note=47, velocity=0, time=5),\n",
       "    Message('note_on', channel=0, note=71, velocity=0, time=1),\n",
       "    Message('note_on', channel=0, note=59, velocity=0, time=0),\n",
       "    Message('note_on', channel=0, note=62, velocity=46, time=3),\n",
       "    Message('note_on', channel=0, note=72, velocity=71, time=269),\n",
       "    Message('note_on', channel=0, note=57, velocity=53, time=0),\n",
       "    Message('note_on', channel=0, note=62, velocity=0, time=93),\n",
       "    Message('note_on', channel=0, note=57, velocity=0, time=134),\n",
       "    Message('note_on', channel=0, note=57, velocity=58, time=7),\n",
       "    Message('note_on', channel=0, note=71, velocity=83, time=4),\n",
       "    Message('note_on', channel=0, note=59, velocity=65, time=2),\n",
       "    Message('note_on', channel=0, note=72, velocity=0, time=28),\n",
       "    Message('note_on', channel=0, note=57, velocity=0, time=43),\n",
       "    Message('note_on', channel=0, note=69, velocity=80, time=182),\n",
       "    Message('note_on', channel=0, note=60, velocity=67, time=29),\n",
       "    Message('note_on', channel=0, note=59, velocity=0, time=40),\n",
       "    Message('note_on', channel=0, note=71, velocity=0, time=13),\n",
       "    Message('note_on', channel=0, note=67, velocity=65, time=210),\n",
       "    Message('note_on', channel=0, note=59, velocity=50, time=18),\n",
       "    Message('note_on', channel=0, note=60, velocity=0, time=63),\n",
       "    Message('note_on', channel=0, note=69, velocity=0, time=1),\n",
       "    Message('control_change', channel=0, control=64, value=127, time=166),\n",
       "    Message('note_on', channel=0, note=67, velocity=0, time=411),\n",
       "    Message('control_change', channel=0, control=64, value=0, time=11),\n",
       "    Message('note_on', channel=0, note=62, velocity=78, time=217),\n",
       "    Message('note_on', channel=0, note=74, velocity=71, time=1),\n",
       "    Message('note_on', channel=0, note=67, velocity=82, time=3),\n",
       "    Message('note_on', channel=0, note=59, velocity=0, time=18),\n",
       "    Message('note_on', channel=0, note=74, velocity=0, time=99),\n",
       "    Message('note_on', channel=0, note=71, velocity=59, time=158),\n",
       "    Message('note_on', channel=0, note=67, velocity=0, time=234),\n",
       "    Message('note_on', channel=0, note=74, velocity=64, time=17),\n",
       "    Message('note_on', channel=0, note=71, velocity=0, time=67),\n",
       "    Message('note_on', channel=0, note=74, velocity=0, time=162),\n",
       "    Message('note_on', channel=0, note=67, velocity=79, time=34),\n",
       "    Message('note_on', channel=0, note=59, velocity=79, time=5),\n",
       "    Message('note_on', channel=0, note=71, velocity=72, time=1),\n",
       "    Message('note_on', channel=0, note=62, velocity=0, time=99),\n",
       "    Message('note_on', channel=0, note=71, velocity=0, time=145),\n",
       "    Message('note_on', channel=0, note=73, velocity=54, time=5),\n",
       "    Message('note_on', channel=0, note=71, velocity=63, time=6),\n",
       "    Message('note_on', channel=0, note=73, velocity=0, time=104),\n",
       "    Message('note_on', channel=0, note=67, velocity=0, time=112),\n",
       "    Message('note_on', channel=0, note=71, velocity=0, time=42),\n",
       "    Message('note_on', channel=0, note=74, velocity=68, time=14),\n",
       "    Message('note_on', channel=0, note=71, velocity=31, time=29),\n",
       "    Message('note_on', channel=0, note=71, velocity=0, time=210),\n",
       "    Message('note_on', channel=0, note=60, velocity=79, time=15),\n",
       "    Message('note_on', channel=0, note=72, velocity=73, time=0),\n",
       "    Message('note_on', channel=0, note=69, velocity=82, time=2),\n",
       "    Message('note_on', channel=0, note=59, velocity=0, time=38),\n",
       "    Message('note_on', channel=0, note=74, velocity=0, time=2),\n",
       "    Message('note_on', channel=0, note=71, velocity=73, time=200),\n",
       "    Message('note_on', channel=0, note=69, velocity=0, time=108),\n",
       "    Message('note_on', channel=0, note=72, velocity=0, time=19),\n",
       "    Message('note_on', channel=0, note=72, velocity=82, time=144),\n",
       "    Message('note_on', channel=0, note=71, velocity=0, time=40),\n",
       "    Message('note_on', channel=0, note=74, velocity=82, time=222),\n",
       "    Message('note_on', channel=0, note=59, velocity=75, time=2),\n",
       "    Message('note_on', channel=0, note=71, velocity=73, time=1),\n",
       "    Message('note_on', channel=0, note=72, velocity=0, time=56),\n",
       "    Message('note_on', channel=0, note=60, velocity=0, time=32),\n",
       "    Message('note_on', channel=0, note=72, velocity=64, time=434),\n",
       "    Message('note_on', channel=0, note=60, velocity=45, time=33),\n",
       "    Message('note_on', channel=0, note=57, velocity=56, time=1),\n",
       "    Message('note_on', channel=0, note=74, velocity=0, time=17),\n",
       "    Message('note_on', channel=0, note=59, velocity=0, time=29),\n",
       "    Message('note_on', channel=0, note=71, velocity=0, time=18),\n",
       "    Message('note_on', channel=0, note=67, velocity=76, time=178),\n",
       "    Message('note_on', channel=0, note=74, velocity=64, time=2),\n",
       "    Message('note_on', channel=0, note=62, velocity=70, time=1),\n",
       "    Message('note_on', channel=0, note=72, velocity=0, time=38),\n",
       "    Message('note_on', channel=0, note=57, velocity=0, time=4),\n",
       "    Message('note_on', channel=0, note=60, velocity=0, time=131),\n",
       "    Message('note_on', channel=0, note=71, velocity=54, time=101),\n",
       "    Message('note_on', channel=0, note=74, velocity=0, time=22),\n",
       "    Message('note_on', channel=0, note=67, velocity=0, time=78),\n",
       "    Message('note_on', channel=0, note=74, velocity=60, time=163),\n",
       "    Message('note_on', channel=0, note=71, velocity=0, time=53),\n",
       "    Message('note_on', channel=0, note=67, velocity=78, time=197),\n",
       "    Message('note_on', channel=0, note=59, velocity=75, time=12),\n",
       "    Message('note_on', channel=0, note=71, velocity=70, time=6),\n",
       "    Message('note_on', channel=0, note=74, velocity=0, time=75),\n",
       "    Message('note_on', channel=0, note=62, velocity=0, time=4),\n",
       "    Message('note_on', channel=0, note=71, velocity=0, time=195),\n",
       "    Message('note_on', channel=0, note=71, velocity=42, time=4),\n",
       "    Message('note_on', channel=0, note=67, velocity=0, time=121),\n",
       "    Message('note_on', channel=0, note=74, velocity=62, time=117),\n",
       "    Message('note_on', channel=0, note=81, velocity=62, time=254),\n",
       "    Message('note_on', channel=0, note=69, velocity=69, time=5),\n",
       "    Message('note_on', channel=0, note=81, velocity=0, time=6),\n",
       "    Message('note_on', channel=0, note=72, velocity=54, time=13),\n",
       "    Message('note_on', channel=0, note=60, velocity=63, time=5),\n",
       "    Message('note_on', channel=0, note=71, velocity=0, time=28),\n",
       "    Message('note_on', channel=0, note=74, velocity=0, time=5),\n",
       "    Message('note_on', channel=0, note=59, velocity=0, time=12),\n",
       "    Message('note_on', channel=0, note=72, velocity=0, time=144),\n",
       "    Message('note_on', channel=0, note=59, velocity=72, time=27),\n",
       "    Message('note_on', channel=0, note=71, velocity=78, time=3),\n",
       "    Message('note_on', channel=0, note=60, velocity=0, time=38),\n",
       "    Message('note_on', channel=0, note=69, velocity=0, time=52),\n",
       "    Message('note_on', channel=0, note=72, velocity=79, time=176),\n",
       "    Message('note_on', channel=0, note=57, velocity=65, time=2),\n",
       "    Message('note_on', channel=0, note=71, velocity=0, time=38),\n",
       "    Message('note_on', channel=0, note=59, velocity=0, time=3),\n",
       "    Message('note_on', channel=0, note=55, velocity=58, time=239),\n",
       "    Message('note_on', channel=0, note=71, velocity=67, time=3),\n",
       "    Message('note_on', channel=0, note=57, velocity=0, time=30),\n",
       "    Message('note_on', channel=0, note=72, velocity=0, time=64),\n",
       "    Message('note_on', channel=0, note=55, velocity=0, time=696),\n",
       "    Message('note_on', channel=0, note=71, velocity=0, time=61),\n",
       "    Message('note_on', channel=0, note=55, velocity=77, time=5482),\n",
       "    Message('note_on', channel=0, note=57, velocity=79, time=196),\n",
       "    Message('note_on', channel=0, note=55, velocity=0, time=56),\n",
       "    Message('note_on', channel=0, note=59, velocity=87, time=136),\n",
       "    Message('note_on', channel=0, note=57, velocity=0, time=52),\n",
       "    Message('note_on', channel=0, note=72, velocity=76, time=117),\n",
       "    Message('note_on', channel=0, note=60, velocity=82, time=3),\n",
       "    Message('note_on', channel=0, note=72, velocity=0, time=6),\n",
       "    Message('note_on', channel=0, note=59, velocity=0, time=58),\n",
       "    Message('note_on', channel=0, note=62, velocity=50, time=174),\n",
       "    Message('note_on', channel=0, note=60, velocity=0, time=65),\n",
       "    Message('note_on', channel=0, note=62, velocity=0, time=170),\n",
       "    Message('note_on', channel=0, note=79, velocity=76, time=159),\n",
       "    Message('note_on', channel=0, note=67, velocity=87, time=0),\n",
       "    Message('note_on', channel=0, note=81, velocity=80, time=185),\n",
       "    Message('note_on', channel=0, note=69, velocity=86, time=0),\n",
       "    Message('note_on', channel=0, note=67, velocity=0, time=56),\n",
       "    Message('note_on', channel=0, note=79, velocity=0, time=93),\n",
       "    Message('note_on', channel=0, note=71, velocity=92, time=42),\n",
       "    Message('note_on', channel=0, note=83, velocity=79, time=1),\n",
       "    Message('note_on', channel=0, note=83, velocity=0, time=11),\n",
       "    Message('note_on', channel=0, note=69, velocity=0, time=26),\n",
       "    Message('note_on', channel=0, note=81, velocity=0, time=89),\n",
       "    Message('note_on', channel=0, note=72, velocity=85, time=49),\n",
       "    Message('note_on', channel=0, note=71, velocity=0, time=27),\n",
       "    Message('note_on', channel=0, note=74, velocity=72, time=188),\n",
       "    Message('note_on', channel=0, note=72, velocity=0, time=63),\n",
       "    Message('note_on', channel=0, note=74, velocity=0, time=58),\n",
       "    Message('note_on', channel=0, note=81, velocity=76, time=272),\n",
       "    Message('note_on', channel=0, note=69, velocity=85, time=3),\n",
       "    Message('note_on', channel=0, note=60, velocity=71, time=13),\n",
       "    Message('control_change', channel=0, control=64, value=127, time=172),\n",
       "    Message('note_on', channel=0, note=81, velocity=0, time=192),\n",
       "    Message('note_on', channel=0, note=71, velocity=89, time=3),\n",
       "    Message('note_on', channel=0, note=62, velocity=70, time=2),\n",
       "    Message('note_on', channel=0, note=81, velocity=73, time=0),\n",
       "    Message('control_change', channel=0, control=64, value=0, time=13),\n",
       "    Message('note_on', channel=0, note=69, velocity=0, time=10),\n",
       "    Message('note_on', channel=0, note=60, velocity=0, time=2),\n",
       "    Message('note_on', channel=0, note=81, velocity=0, time=316),\n",
       "    Message('note_on', channel=0, note=81, velocity=77, time=43),\n",
       "    Message('note_on', channel=0, note=69, velocity=84, time=5),\n",
       "    Message('note_on', channel=0, note=72, velocity=68, time=2),\n",
       "    Message('note_on', channel=0, note=60, velocity=74, time=2),\n",
       "    Message('note_on', channel=0, note=71, velocity=0, time=76),\n",
       "    Message('note_on', channel=0, note=62, velocity=0, time=3),\n",
       "    Message('control_change', channel=0, control=64, value=127, time=130),\n",
       "    Message('control_change', channel=0, control=64, value=0, time=123),\n",
       "    Message('note_on', channel=0, note=79, velocity=73, time=48),\n",
       "    Message('note_on', channel=0, note=67, velocity=77, time=1),\n",
       "    Message('note_on', channel=0, note=59, velocity=66, time=7),\n",
       "    Message('note_on', channel=0, note=60, velocity=0, time=23),\n",
       "    Message('note_on', channel=0, note=72, velocity=0, time=5),\n",
       "    Message('note_on', channel=0, note=69, velocity=0, time=5),\n",
       "    Message('note_on', channel=0, note=81, velocity=0, time=11),\n",
       "    Message('control_change', channel=0, control=64, value=127, time=192),\n",
       "    Message('control_change', channel=0, control=64, value=0, time=148),\n",
       "    Message('note_on', channel=0, note=74, velocity=66, time=14),\n",
       "    Message('note_on', channel=0, note=79, velocity=0, time=58),\n",
       "    Message('note_on', channel=0, note=67, velocity=0, time=4),\n",
       "    Message('note_on', channel=0, note=74, velocity=0, time=78),\n",
       "    Message('note_on', channel=0, note=74, velocity=46, time=283),\n",
       "    Message('note_on', channel=0, note=74, velocity=0, time=46),\n",
       "    Message('note_on', channel=0, note=55, velocity=45, time=363),\n",
       "    Message('note_on', channel=0, note=59, velocity=0, time=18),\n",
       "    Message('note_on', channel=0, note=69, velocity=45, time=156),\n",
       "    Message('note_on', channel=0, note=57, velocity=56, time=0),\n",
       "    Message('note_on', channel=0, note=55, velocity=0, time=4),\n",
       "    Message('note_on', channel=0, note=69, velocity=0, time=3),\n",
       "    Message('note_on', channel=0, note=59, velocity=79, time=184),\n",
       "    Message('note_on', channel=0, note=71, velocity=72, time=2),\n",
       "    Message('note_on', channel=0, note=57, velocity=0, time=86),\n",
       "    Message('note_on', channel=0, note=72, velocity=71, time=80),\n",
       "    Message('note_on', channel=0, note=60, velocity=76, time=2),\n",
       "    Message('note_on', channel=0, note=59, velocity=0, time=109),\n",
       "    Message('note_on', channel=0, note=71, velocity=0, time=28),\n",
       "    Message('note_on', channel=0, note=62, velocity=53, time=105),\n",
       "    Message('note_on', channel=0, note=60, velocity=0, time=53),\n",
       "    Message('note_on', channel=0, note=72, velocity=0, time=11),\n",
       "    Message('note_on', channel=0, note=62, velocity=0, time=119),\n",
       "    Message('note_on', channel=0, note=79, velocity=65, time=193),\n",
       "    Message('note_on', channel=0, note=67, velocity=72, time=0),\n",
       "    Message('note_on', channel=0, note=81, velocity=78, time=184),\n",
       "    Message('note_on', channel=0, note=69, velocity=84, time=1),\n",
       "    Message('note_on', channel=0, note=67, velocity=0, time=93),\n",
       "    Message('note_on', channel=0, note=79, velocity=0, time=40),\n",
       "    Message('note_on', channel=0, note=71, velocity=92, time=55),\n",
       "    Message('note_on', channel=0, note=69, velocity=0, time=40),\n",
       "    Message('note_on', channel=0, note=81, velocity=0, time=97),\n",
       "    Message('note_on', channel=0, note=72, velocity=87, time=41),\n",
       "    Message('note_on', channel=0, note=71, velocity=0, time=21),\n",
       "    Message('note_on', channel=0, note=74, velocity=71, time=178),\n",
       "    Message('note_on', channel=0, note=72, velocity=0, time=79),\n",
       "    Message('note_on', channel=0, note=74, velocity=0, time=45),\n",
       "    Message('note_on', channel=0, note=81, velocity=72, time=248),\n",
       "    Message('note_on', channel=0, note=69, velocity=80, time=2),\n",
       "    Message('note_on', channel=0, note=60, velocity=62, time=29),\n",
       "    Message('control_change', channel=0, control=64, value=127, time=140),\n",
       "    Message('note_on', channel=0, note=71, velocity=90, time=205),\n",
       "    Message('note_on', channel=0, note=62, velocity=66, time=6),\n",
       "    Message('control_change', channel=0, control=64, value=0, time=16),\n",
       "    Message('note_on', channel=0, note=60, velocity=0, time=9),\n",
       "    Message('note_on', channel=0, note=69, velocity=0, time=7),\n",
       "    Message('note_on', channel=0, note=81, velocity=0, time=26),\n",
       "    Message('control_change', channel=0, control=64, value=127, time=123),\n",
       "    Message('control_change', channel=0, control=64, value=0, time=124),\n",
       "    Message('control_change', channel=0, control=64, value=127, time=22),\n",
       "    Message('note_on', channel=0, note=81, velocity=74, time=41),\n",
       "    Message('note_on', channel=0, note=72, velocity=65, time=0),\n",
       "    Message('note_on', channel=0, note=69, velocity=77, time=1),\n",
       "    Message('note_on', channel=0, note=60, velocity=66, time=1),\n",
       "    Message('note_on', channel=0, note=72, velocity=0, time=3),\n",
       "    Message('note_on', channel=0, note=62, velocity=0, time=76),\n",
       "    Message('control_change', channel=0, control=64, value=0, time=1),\n",
       "    Message('note_on', channel=0, note=71, velocity=0, time=38),\n",
       "    Message('control_change', channel=0, control=64, value=127, time=123),\n",
       "    Message('note_on', channel=0, note=79, velocity=67, time=127),\n",
       "    Message('note_on', channel=0, note=67, velocity=69, time=1),\n",
       "    Message('note_on', channel=0, note=81, velocity=0, time=18),\n",
       "    Message('note_on', channel=0, note=59, velocity=49, time=10),\n",
       "    Message('control_change', channel=0, control=64, value=0, time=28),\n",
       "    Message('note_on', channel=0, note=60, velocity=0, time=34),\n",
       "    Message('note_on', channel=0, note=69, velocity=0, time=6),\n",
       "    Message('control_change', channel=0, control=64, value=127, time=229),\n",
       "    Message('control_change', channel=0, control=64, value=0, time=530),\n",
       "    Message('note_on', channel=0, note=67, velocity=0, time=6),\n",
       "    Message('note_on', channel=0, note=79, velocity=0, time=32),\n",
       "    Message('note_on', channel=0, note=59, velocity=0, time=85),\n",
       "    Message('note_on', channel=0, note=74, velocity=87, time=104),\n",
       "    Message('note_on', channel=0, note=72, velocity=85, time=192),\n",
       "    Message('note_on', channel=0, note=74, velocity=0, time=82),\n",
       "    Message('note_on', channel=0, note=71, velocity=79, time=92),\n",
       "    Message('note_on', channel=0, note=72, velocity=0, time=24),\n",
       "    Message('note_on', channel=0, note=69, velocity=69, time=163),\n",
       "    Message('note_on', channel=0, note=71, velocity=0, time=87),\n",
       "    Message('note_on', channel=0, note=67, velocity=53, time=133),\n",
       "    Message('note_on', channel=0, note=69, velocity=0, time=75),\n",
       "    Message('note_on', channel=0, note=67, velocity=0, time=67),\n",
       "    Message('note_on', channel=0, note=62, velocity=57, time=215),\n",
       "    Message('note_on', channel=0, note=72, velocity=68, time=199),\n",
       "    Message('note_on', channel=0, note=60, velocity=72, time=0),\n",
       "    Message('note_on', channel=0, note=62, velocity=0, time=47),\n",
       "    Message('note_on', channel=0, note=59, velocity=78, time=141),\n",
       "    Message('note_on', channel=0, note=71, velocity=68, time=2),\n",
       "    Message('note_on', channel=0, note=72, velocity=0, time=44),\n",
       "    Message('note_on', channel=0, note=60, velocity=0, time=11),\n",
       "    Message('note_on', channel=0, note=57, velocity=60, time=137),\n",
       "    Message('note_on', channel=0, note=59, velocity=0, time=67),\n",
       "    Message('note_on', channel=0, note=71, velocity=0, time=7),\n",
       "    Message('note_on', channel=0, note=55, velocity=53, time=140),\n",
       "    Message('note_on', channel=0, note=57, velocity=0, time=40),\n",
       "    Message('note_on', channel=0, note=55, velocity=0, time=109),\n",
       "    Message('note_on', channel=0, note=69, velocity=78, time=227),\n",
       "    Message('note_on', channel=0, note=60, velocity=66, time=34),\n",
       "    Message('control_change', channel=0, control=64, value=127, time=134),\n",
       "    Message('note_on', channel=0, note=71, velocity=88, time=214),\n",
       "    Message('note_on', channel=0, note=62, velocity=66, time=5),\n",
       "    Message('control_change', channel=0, control=64, value=0, time=15),\n",
       "    Message('note_on', channel=0, note=60, velocity=0, time=2),\n",
       "    Message('note_on', channel=0, note=69, velocity=0, time=1),\n",
       "    Message('note_on', channel=0, note=81, velocity=73, time=343),\n",
       "    Message('note_on', channel=0, note=69, velocity=80, time=6),\n",
       "    Message('note_on', channel=0, note=60, velocity=72, time=3),\n",
       "    Message('note_on', channel=0, note=81, velocity=0, time=2),\n",
       "    Message('note_on', channel=0, note=71, velocity=0, time=7),\n",
       "    Message('note_on', channel=0, note=62, velocity=0, time=50),\n",
       "    Message('note_on', channel=0, note=79, velocity=75, time=314),\n",
       "    Message('note_on', channel=0, note=67, velocity=78, time=1),\n",
       "    Message('note_on', channel=0, note=59, velocity=69, time=1),\n",
       "    Message('note_on', channel=0, note=60, velocity=0, time=34),\n",
       "    Message('note_on', channel=0, note=69, velocity=0, time=14),\n",
       "    Message('note_on', channel=0, note=79, velocity=0, time=240),\n",
       "    Message('note_on', channel=0, note=74, velocity=64, time=90),\n",
       "    Message('note_on', channel=0, note=67, velocity=0, time=96),\n",
       "    Message('note_on', channel=0, note=74, velocity=0, time=65),\n",
       "    Message('note_on', channel=0, note=74, velocity=70, time=218),\n",
       "    Message('note_on', channel=0, note=74, velocity=0, time=57),\n",
       "    Message('note_on', channel=0, note=59, velocity=0, time=290),\n",
       "    Message('note_on', channel=0, note=74, velocity=81, time=25),\n",
       "    Message('note_on', channel=0, note=72, velocity=89, time=191),\n",
       "    Message('note_on', channel=0, note=74, velocity=0, time=88),\n",
       "    Message('note_on', channel=0, note=71, velocity=88, time=84),\n",
       "    Message('note_on', channel=0, note=72, velocity=0, time=98),\n",
       "    Message('note_on', channel=0, note=69, velocity=75, time=88),\n",
       "    Message('note_on', channel=0, note=71, velocity=0, time=89),\n",
       "    Message('note_on', channel=0, note=67, velocity=60, time=133),\n",
       "    Message('note_on', channel=0, note=69, velocity=0, time=80),\n",
       "    Message('note_on', channel=0, note=67, velocity=0, time=102),\n",
       "    Message('note_on', channel=0, note=62, velocity=63, time=191),\n",
       "    Message('note_on', channel=0, note=60, velocity=76, time=192),\n",
       "    Message('note_on', channel=0, note=62, velocity=0, time=33),\n",
       "    Message('note_on', channel=0, note=59, velocity=78, time=144),\n",
       "    Message('note_on', channel=0, note=60, velocity=0, time=60),\n",
       "    Message('note_on', channel=0, note=57, velocity=66, time=134),\n",
       "    Message('note_on', channel=0, note=59, velocity=0, time=57),\n",
       "    Message('note_on', channel=0, note=55, velocity=49, time=186),\n",
       "    Message('note_on', channel=0, note=57, velocity=0, time=56),\n",
       "    Message('note_on', channel=0, note=55, velocity=0, time=91),\n",
       "    Message('note_on', channel=0, note=69, velocity=75, time=213),\n",
       "    Message('note_on', channel=0, note=60, velocity=67, time=51),\n",
       "    Message('note_on', channel=0, note=71, velocity=87, time=347),\n",
       "    Message('note_on', channel=0, note=62, velocity=64, time=3),\n",
       "    Message('note_on', channel=0, note=69, velocity=0, time=23),\n",
       "    Message('note_on', channel=0, note=60, velocity=0, time=4),\n",
       "    Message('note_on', channel=0, note=69, velocity=77, time=351),\n",
       "    Message('note_on', channel=0, note=60, velocity=64, time=4),\n",
       "    Message('note_on', channel=0, note=62, velocity=0, time=84),\n",
       "    Message('note_on', channel=0, note=71, velocity=0, time=15),\n",
       "    Message('control_change', channel=0, control=64, value=127, time=106),\n",
       "    Message('note_on', channel=0, note=67, velocity=67, time=182),\n",
       "    Message('note_on', channel=0, note=59, velocity=51, time=22),\n",
       "    Message('control_change', channel=0, control=64, value=0, time=42),\n",
       "    Message('note_on', channel=0, note=69, velocity=0, time=41),\n",
       "    Message('note_on', channel=0, note=60, velocity=0, time=13),\n",
       "    Message('control_change', channel=0, control=64, value=127, time=161),\n",
       "    Message('control_change', channel=0, control=64, value=0, time=779),\n",
       "    Message('note_on', channel=0, note=59, velocity=0, time=7),\n",
       "    Message('note_on', channel=0, note=67, velocity=0, time=2),\n",
       "    Message('note_on', channel=0, note=62, velocity=71, time=4068),\n",
       "    Message('control_change', channel=0, control=64, value=127, time=136),\n",
       "    Message('control_change', channel=0, control=64, value=0, time=146),\n",
       "    Message('note_on', channel=0, note=59, velocity=78, time=79),\n",
       "    Message('note_on', channel=0, note=67, velocity=83, time=1),\n",
       "    Message('control_change', channel=0, control=64, value=127, time=4),\n",
       "    Message('control_change', channel=0, control=64, value=0, time=26),\n",
       "    Message('note_on', channel=0, note=62, velocity=0, time=75),\n",
       "    Message('control_change', channel=0, control=64, value=127, time=268),\n",
       "    Message('control_change', channel=0, control=64, value=0, time=138),\n",
       "    Message('note_on', channel=0, note=67, velocity=0, time=30),\n",
       "    Message('note_on', channel=0, note=79, velocity=67, time=290),\n",
       "    Message('note_on', channel=0, note=67, velocity=73, time=1),\n",
       "    Message('note_on', channel=0, note=79, velocity=0, time=86),\n",
       "    Message('note_on', channel=0, note=59, velocity=0, time=90),\n",
       "    Message('note_on', channel=0, note=81, velocity=77, time=7),\n",
       "    Message('note_on', channel=0, note=69, velocity=82, time=1),\n",
       "    Message('note_on', channel=0, note=67, velocity=0, time=74),\n",
       "    Message('note_on', channel=0, note=71, velocity=91, time=101),\n",
       "    Message('note_on', channel=0, note=69, velocity=0, time=36),\n",
       "    Message('note_on', channel=0, note=81, velocity=0, time=121),\n",
       "    Message('note_on', channel=0, note=72, velocity=90, time=10),\n",
       "    Message('note_on', channel=0, note=71, velocity=0, time=23),\n",
       "    Message('control_change', channel=0, control=64, value=127, time=29),\n",
       "    Message('control_change', channel=0, control=64, value=0, time=130),\n",
       "    Message('note_on', channel=0, note=74, velocity=88, time=21),\n",
       "    Message('note_on', channel=0, note=55, velocity=57, time=5),\n",
       "    Message('note_on', channel=0, note=72, velocity=0, time=52),\n",
       "    Message('control_change', channel=0, control=64, value=127, time=283),\n",
       "    Message('note_on', channel=0, note=71, velocity=67, time=396),\n",
       "    Message('control_change', channel=0, control=64, value=0, time=47),\n",
       "    Message('note_on', channel=0, note=74, velocity=0, time=0),\n",
       "    Message('note_on', channel=0, note=55, velocity=0, time=84),\n",
       "    Message('note_on', channel=0, note=71, velocity=0, time=84),\n",
       "    Message('note_on', channel=0, note=71, velocity=72, time=170),\n",
       "    Message('note_on', channel=0, note=71, velocity=0, time=129),\n",
       "    Message('note_on', channel=0, note=69, velocity=81, time=224),\n",
       "    Message('note_on', channel=0, note=60, velocity=69, time=23),\n",
       "    Message('note_on', channel=0, note=72, velocity=58, time=1),\n",
       "    Message('control_change', channel=0, control=64, value=127, time=109),\n",
       "    Message('note_on', channel=0, note=74, velocity=65, time=225),\n",
       "    Message('control_change', channel=0, control=64, value=0, time=156),\n",
       "    Message('note_on', channel=0, note=60, velocity=0, time=6),\n",
       "    Message('note_on', channel=0, note=69, velocity=0, time=0),\n",
       "    Message('note_on', channel=0, note=74, velocity=0, time=5),\n",
       "    Message('note_on', channel=0, note=72, velocity=0, time=8),\n",
       "    Message('note_on', channel=0, note=81, velocity=78, time=190),\n",
       "    Message('note_on', channel=0, note=69, velocity=86, time=2),\n",
       "    Message('note_on', channel=0, note=72, velocity=59, time=28),\n",
       "    Message('note_on', channel=0, note=60, velocity=72, time=3),\n",
       "    Message('control_change', channel=0, control=64, value=127, time=138),\n",
       "    Message('note_on', channel=0, note=74, velocity=68, time=179),\n",
       "    Message('note_on', channel=0, note=81, velocity=0, time=20),\n",
       "    Message('control_change', channel=0, control=64, value=0, time=120),\n",
       "    Message('note_on', channel=0, note=69, velocity=0, time=7),\n",
       "    Message('note_on', channel=0, note=74, velocity=0, time=24),\n",
       "    Message('note_on', channel=0, note=72, velocity=0, time=41),\n",
       "    Message('note_on', channel=0, note=71, velocity=78, time=166),\n",
       "    Message('note_on', channel=0, note=62, velocity=55, time=32),\n",
       "    Message('note_on', channel=0, note=60, velocity=0, time=14),\n",
       "    Message('control_change', channel=0, control=64, value=127, time=65),\n",
       "    Message('note_on', channel=0, note=72, velocity=89, time=70),\n",
       "    Message('note_on', channel=0, note=71, velocity=0, time=22),\n",
       "    Message('control_change', channel=0, control=64, value=0, time=115),\n",
       "    Message('note_on', channel=0, note=71, velocity=82, time=29),\n",
       "    Message('note_on', channel=0, note=72, velocity=0, time=19),\n",
       "    Message('note_on', channel=0, note=69, velocity=75, time=171),\n",
       "    Message('note_on', channel=0, note=71, velocity=0, time=104),\n",
       "    Message('note_on', channel=0, note=67, velocity=64, time=103),\n",
       "    Message('note_on', channel=0, note=69, velocity=0, time=105),\n",
       "    Message('note_on', channel=0, note=62, velocity=0, time=53),\n",
       "    Message('note_on', channel=0, note=67, velocity=0, time=34),\n",
       "    Message('note_on', channel=0, note=62, velocity=66, time=145),\n",
       "    Message('control_change', channel=0, control=64, value=127, time=236),\n",
       "    Message('control_change', channel=0, control=64, value=0, time=84),\n",
       "    Message('note_on', channel=0, note=67, velocity=75, time=30),\n",
       "    Message('note_on', channel=0, note=59, velocity=69, time=11),\n",
       "    Message('note_on', channel=0, note=62, velocity=0, time=139),\n",
       "    Message('control_change', channel=0, control=64, value=127, time=150),\n",
       "    Message('note_on', channel=0, note=67, velocity=0, time=207),\n",
       "    Message('control_change', channel=0, control=64, value=0, time=8),\n",
       "    Message('note_on', channel=0, note=79, velocity=67, time=199),\n",
       "    Message('note_on', channel=0, note=67, velocity=73, time=0),\n",
       "    Message('note_on', channel=0, note=79, velocity=0, time=9),\n",
       "    Message('note_on', channel=0, note=59, velocity=0, time=68),\n",
       "    Message('note_on', channel=0, note=81, velocity=81, time=95),\n",
       "    Message('note_on', channel=0, note=69, velocity=87, time=1),\n",
       "    Message('note_on', channel=0, note=67, velocity=0, time=75),\n",
       "    Message('note_on', channel=0, note=71, velocity=90, time=96),\n",
       "    Message('note_on', channel=0, note=69, velocity=0, time=123),\n",
       "    Message('note_on', channel=0, note=72, velocity=89, time=42),\n",
       "    Message('note_on', channel=0, note=81, velocity=0, time=53),\n",
       "    Message('note_on', channel=0, note=71, velocity=0, time=107),\n",
       "    Message('note_on', channel=0, note=74, velocity=87, time=29),\n",
       "    Message('note_on', channel=0, note=55, velocity=46, time=46),\n",
       "    Message('note_on', channel=0, note=72, velocity=0, time=48),\n",
       "    Message('note_on', channel=0, note=74, velocity=0, time=363),\n",
       "    Message('note_on', channel=0, note=71, velocity=62, time=248),\n",
       "    Message('note_on', channel=0, note=55, velocity=0, time=25),\n",
       "    Message('note_on', channel=0, note=71, velocity=0, time=143),\n",
       "    Message('note_on', channel=0, note=71, velocity=65, time=173),\n",
       "    Message('note_on', channel=0, note=71, velocity=0, time=133),\n",
       "    Message('note_on', channel=0, note=69, velocity=81, time=207),\n",
       "    Message('note_on', channel=0, note=60, velocity=68, time=18),\n",
       "    Message('note_on', channel=0, note=72, velocity=57, time=0),\n",
       "    Message('control_change', channel=0, control=64, value=127, time=65),\n",
       "    Message('note_on', channel=0, note=74, velocity=66, time=287),\n",
       "    Message('note_on', channel=0, note=60, velocity=0, time=79),\n",
       "    Message('control_change', channel=0, control=64, value=0, time=9),\n",
       "    Message('note_on', channel=0, note=69, velocity=0, time=14),\n",
       "    Message('note_on', channel=0, note=74, velocity=0, time=16),\n",
       "    Message('note_on', channel=0, note=72, velocity=0, time=2),\n",
       "    Message('note_on', channel=0, note=81, velocity=78, time=234),\n",
       "    Message('note_on', channel=0, note=69, velocity=86, time=2),\n",
       "    Message('note_on', channel=0, note=72, velocity=69, time=1),\n",
       "    Message('note_on', channel=0, note=60, velocity=74, time=2),\n",
       "    Message('control_change', channel=0, control=64, value=127, time=60),\n",
       "    Message('note_on', channel=0, note=74, velocity=53, time=313),\n",
       "    Message('note_on', channel=0, note=60, velocity=0, time=85),\n",
       "    Message('note_on', channel=0, note=81, velocity=0, time=10),\n",
       "    Message('note_on', channel=0, note=69, velocity=0, time=6),\n",
       "    Message('control_change', channel=0, control=64, value=0, time=2),\n",
       "    Message('note_on', channel=0, note=72, velocity=0, time=7),\n",
       "    Message('note_on', channel=0, note=74, velocity=0, time=4),\n",
       "    Message('note_on', channel=0, note=79, velocity=65, time=245),\n",
       "    Message('note_on', channel=0, note=67, velocity=70, time=1),\n",
       "    Message('note_on', channel=0, note=59, velocity=62, time=11),\n",
       "    Message('control_change', channel=0, control=64, value=127, time=292),\n",
       "    Message('note_on', channel=0, note=79, velocity=0, time=123),\n",
       "    Message('control_change', channel=0, control=64, value=0, time=469),\n",
       "    Message('note_on', channel=0, note=59, velocity=0, time=6),\n",
       "    Message('note_on', channel=0, note=67, velocity=0, time=5),\n",
       "    Message('note_on', channel=0, note=74, velocity=64, time=145),\n",
       "    Message('note_on', channel=0, note=62, velocity=71, time=0),\n",
       "    Message('note_on', channel=0, note=74, velocity=0, time=66),\n",
       "    Message('control_change', channel=0, control=64, value=127, time=15),\n",
       "    Message('control_change', channel=0, control=64, value=0, time=237),\n",
       "    Message('note_on', channel=0, note=79, velocity=76, time=43),\n",
       "    Message('note_on', channel=0, note=67, velocity=87, time=1),\n",
       "    Message('note_on', channel=0, note=59, velocity=84, time=1),\n",
       "    Message('note_on', channel=0, note=79, velocity=0, time=2),\n",
       "    Message('note_on', channel=0, note=71, velocity=78, time=1),\n",
       "    Message('note_on', channel=0, note=62, velocity=0, time=111),\n",
       "    Message('control_change', channel=0, control=64, value=127, time=180),\n",
       "    Message('note_on', channel=0, note=59, velocity=0, time=569),\n",
       "    Message('note_on', channel=0, note=59, velocity=35, time=11),\n",
       "    Message('control_change', channel=0, control=64, value=0, time=18),\n",
       "    Message('note_on', channel=0, note=59, velocity=0, time=12),\n",
       "    Message('note_on', channel=0, note=71, velocity=0, time=2),\n",
       "    Message('note_on', channel=0, note=67, velocity=0, time=14),\n",
       "    Message('note_on', channel=0, note=62, velocity=45, time=184),\n",
       "    Message('note_on', channel=0, note=59, velocity=53, time=400),\n",
       "    Message('note_on', channel=0, note=67, velocity=53, time=1),\n",
       "    Message('note_on', channel=0, note=62, velocity=0, time=184),\n",
       "    Message('control_change', channel=0, control=64, value=127, time=57),\n",
       "    Message('control_change', channel=0, control=64, value=0, time=596),\n",
       "    Message('note_on', channel=0, note=67, velocity=0, time=24),\n",
       "    Message('note_on', channel=0, note=59, velocity=0, time=14),\n",
       "    Message('note_on', channel=0, note=62, velocity=50, time=237),\n",
       "    Message('note_on', channel=0, note=62, velocity=0, time=94),\n",
       "    Message('note_on', channel=0, note=62, velocity=47, time=104),\n",
       "    Message('note_on', channel=0, note=59, velocity=54, time=241),\n",
       "    Message('note_on', channel=0, note=67, velocity=62, time=0),\n",
       "    Message('note_on', channel=0, note=62, velocity=0, time=104),\n",
       "    Message('control_change', channel=0, control=64, value=127, time=260),\n",
       "    Message('control_change', channel=0, control=64, value=0, time=661),\n",
       "    Message('note_on', channel=0, note=59, velocity=0, time=1166),\n",
       "    Message('note_on', channel=0, note=67, velocity=0, time=2420),\n",
       "    Message('note_on', channel=0, note=79, velocity=77, time=3320),\n",
       "    Message('note_on', channel=0, note=67, velocity=83, time=1),\n",
       "    Message('note_on', channel=0, note=48, velocity=57, time=23),\n",
       "    Message('control_change', channel=0, control=64, value=127, time=97),\n",
       "    Message('note_on', channel=0, note=67, velocity=0, time=67),\n",
       "    Message('note_on', channel=0, note=79, velocity=0, time=2),\n",
       "    Message('control_change', channel=0, control=64, value=0, time=0),\n",
       "    Message('note_on', channel=0, note=79, velocity=75, time=174),\n",
       "    Message('note_on', channel=0, note=67, velocity=83, time=1),\n",
       "    Message('note_on', channel=0, note=79, velocity=0, time=240),\n",
       "    Message('note_on', channel=0, note=64, velocity=89, time=104),\n",
       "    Message('note_on', channel=0, note=76, velocity=76, time=1),\n",
       "    Message('note_on', channel=0, note=67, velocity=0, time=60),\n",
       "    Message('note_on', channel=0, note=79, velocity=83, time=285),\n",
       "    Message('note_on', channel=0, note=67, velocity=88, time=1),\n",
       "    Message('note_on', channel=0, note=52, velocity=74, time=2),\n",
       "    Message('note_on', channel=0, note=48, velocity=0, time=33),\n",
       "    Message('note_on', channel=0, note=64, velocity=0, time=2),\n",
       "    Message('note_on', channel=0, note=76, velocity=0, time=49),\n",
       "    Message('control_change', channel=0, control=64, value=127, time=131),\n",
       "    Message('note_on', channel=0, note=79, velocity=0, time=407),\n",
       "    Message('note_on', channel=0, note=64, velocity=86, time=26),\n",
       "    Message('note_on', channel=0, note=76, velocity=75, time=1),\n",
       "    Message('control_change', channel=0, control=64, value=0, time=50),\n",
       "    Message('note_on', channel=0, note=67, velocity=0, time=17),\n",
       "    Message('control_change', channel=0, control=64, value=127, time=82),\n",
       "    Message('note_on', channel=0, note=55, velocity=72, time=197),\n",
       "    Message('note_on', channel=0, note=79, velocity=77, time=6),\n",
       "    Message('note_on', channel=0, note=67, velocity=84, time=2),\n",
       "    Message('note_on', channel=0, note=64, velocity=0, time=69),\n",
       "    Message('control_change', channel=0, control=64, value=0, time=5),\n",
       "    Message('note_on', channel=0, note=52, velocity=0, time=2),\n",
       "    Message('note_on', channel=0, note=76, velocity=0, time=4),\n",
       "    Message('control_change', channel=0, control=64, value=127, time=169),\n",
       "    Message('note_on', channel=0, note=79, velocity=0, time=215),\n",
       "    Message('note_on', channel=0, note=64, velocity=78, time=181),\n",
       "    Message('note_on', channel=0, note=76, velocity=66, time=2),\n",
       "    Message('control_change', channel=0, control=64, value=0, time=58),\n",
       "    Message('control_change', channel=0, control=64, value=127, time=104),\n",
       "    Message('note_on', channel=0, note=53, velocity=55, time=191),\n",
       "    Message('note_on', channel=0, note=74, velocity=54, time=5),\n",
       "    Message('note_on', channel=0, note=62, velocity=61, time=0),\n",
       "    Message('note_on', channel=0, note=76, velocity=0, time=4),\n",
       "    Message('control_change', channel=0, control=64, value=0, time=79),\n",
       "    Message('note_on', channel=0, note=55, velocity=0, time=2),\n",
       "    Message('note_on', channel=0, note=67, velocity=0, time=3),\n",
       "    Message('note_on', channel=0, note=64, velocity=0, time=1),\n",
       "    Message('note_on', channel=0, note=74, velocity=0, time=122),\n",
       "    Message('control_change', channel=0, control=64, value=127, time=31),\n",
       "    Message('control_change', channel=0, control=64, value=0, time=223),\n",
       "    Message('note_on', channel=0, note=62, velocity=0, time=26),\n",
       "    Message('note_on', channel=0, note=74, velocity=60, time=169),\n",
       "    Message('note_on', channel=0, note=62, velocity=63, time=0),\n",
       "    Message('control_change', channel=0, control=64, value=127, time=112),\n",
       "    Message('note_on', channel=0, note=72, velocity=67, time=253),\n",
       "    Message('note_on', channel=0, note=60, velocity=71, time=2),\n",
       "    Message('note_on', channel=0, note=52, velocity=61, time=2),\n",
       "    Message('note_on', channel=0, note=74, velocity=0, time=12),\n",
       "    Message('control_change', channel=0, control=64, value=0, time=28),\n",
       "    Message('note_on', channel=0, note=53, velocity=0, time=13),\n",
       "    Message('note_on', channel=0, note=62, velocity=0, time=56),\n",
       "    Message('control_change', channel=0, control=64, value=127, time=87),\n",
       "    Message('note_on', channel=0, note=64, velocity=81, time=143),\n",
       "    Message('note_on', channel=0, note=76, velocity=70, time=1),\n",
       "    Message('control_change', channel=0, control=64, value=0, time=17),\n",
       "    Message('note_on', channel=0, note=60, velocity=0, time=35),\n",
       "    Message('note_on', channel=0, note=72, velocity=0, time=34),\n",
       "    Message('control_change', channel=0, control=64, value=127, time=77),\n",
       "    Message('control_change', channel=0, control=64, value=0, time=16),\n",
       "    Message('note_on', channel=0, note=52, velocity=0, time=115),\n",
       "    Message('note_on', channel=0, note=76, velocity=0, time=23),\n",
       "    Message('note_on', channel=0, note=62, velocity=76, time=26),\n",
       "    Message('note_on', channel=0, note=52, velocity=50, time=0),\n",
       "    Message('note_on', channel=0, note=64, velocity=0, time=71),\n",
       "    Message('control_change', channel=0, control=64, value=127, time=56),\n",
       "    Message('note_on', channel=0, note=64, velocity=80, time=196),\n",
       "    Message('note_on', channel=0, note=76, velocity=69, time=1),\n",
       "    Message('note_on', channel=0, note=55, velocity=65, time=5),\n",
       "    Message('control_change', channel=0, control=64, value=0, time=52),\n",
       "    Message('note_on', channel=0, note=52, velocity=0, time=3),\n",
       "    Message('note_on', channel=0, note=62, velocity=0, time=67),\n",
       "    Message('note_on', channel=0, note=64, velocity=0, time=347),\n",
       "    Message('note_on', channel=0, note=76, velocity=0, time=5),\n",
       "    Message('note_on', channel=0, note=65, velocity=82, time=209),\n",
       "    Message('note_on', channel=0, note=55, velocity=0, time=49),\n",
       "    Message('note_on', channel=0, note=79, velocity=74, time=120),\n",
       "    Message('note_on', channel=0, note=67, velocity=82, time=2),\n",
       "    Message('note_on', channel=0, note=65, velocity=0, time=90),\n",
       "    Message('note_on', channel=0, note=81, velocity=82, time=102),\n",
       "    Message('note_on', channel=0, note=69, velocity=87, time=4),\n",
       "    Message('note_on', channel=0, note=53, velocity=66, time=4),\n",
       "    Message('note_on', channel=0, note=65, velocity=59, time=1),\n",
       "    Message('note_on', channel=0, note=67, velocity=0, time=52),\n",
       "    Message('note_on', channel=0, note=79, velocity=0, time=5),\n",
       "    Message('control_change', channel=0, control=64, value=127, time=153),\n",
       "    Message('note_on', channel=0, note=79, velocity=75, time=480),\n",
       "    Message('note_on', channel=0, note=67, velocity=80, time=0),\n",
       "    Message('control_change', channel=0, control=64, value=0, time=33),\n",
       "    Message('note_on', channel=0, note=69, velocity=0, time=6),\n",
       "    Message('note_on', channel=0, note=81, velocity=0, time=27),\n",
       "    Message('control_change', channel=0, control=64, value=127, time=76),\n",
       "    Message('note_on', channel=0, note=65, velocity=0, time=108),\n",
       "    Message('control_change', channel=0, control=64, value=0, time=58),\n",
       "    Message('note_on', channel=0, note=64, velocity=67, time=46),\n",
       "    Message('note_on', channel=0, note=76, velocity=58, time=2),\n",
       "    Message('note_on', channel=0, note=55, velocity=52, time=5),\n",
       "    Message('note_on', channel=0, note=53, velocity=0, time=75),\n",
       "    Message('note_on', channel=0, note=67, velocity=0, time=31),\n",
       "    Message('note_on', channel=0, note=79, velocity=0, time=221),\n",
       "    Message('note_on', channel=0, note=81, velocity=46, time=15),\n",
       "    Message('note_on', channel=0, note=74, velocity=42, time=1),\n",
       "    Message('note_on', channel=0, note=62, velocity=49, time=0),\n",
       "    Message('note_on', channel=0, note=74, velocity=0, time=7),\n",
       "    Message('note_on', channel=0, note=64, velocity=0, time=77),\n",
       "    Message('note_on', channel=0, note=76, velocity=0, time=30),\n",
       "    Message('note_on', channel=0, note=81, velocity=0, time=31),\n",
       "    Message('note_on', channel=0, note=62, velocity=0, time=31),\n",
       "    Message('note_on', channel=0, note=72, velocity=63, time=169),\n",
       "    Message('note_on', channel=0, note=60, velocity=67, time=1),\n",
       "    Message('note_on', channel=0, note=60, velocity=0, time=171),\n",
       "    Message('note_on', channel=0, note=72, velocity=0, time=66),\n",
       "    Message('note_on', channel=0, note=72, velocity=71, time=120),\n",
       "    Message('note_on', channel=0, note=60, velocity=72, time=3),\n",
       "    Message('note_on', channel=0, note=52, velocity=70, time=2),\n",
       "    Message('note_on', channel=0, note=55, velocity=0, time=51),\n",
       "    Message('control_change', channel=0, control=64, value=127, time=39),\n",
       "    Message('note_on', channel=0, note=64, velocity=90, time=257),\n",
       "    Message('note_on', channel=0, note=76, velocity=76, time=2),\n",
       "    Message('control_change', channel=0, control=64, value=0, time=39),\n",
       "    Message('note_on', channel=0, note=60, velocity=0, time=11),\n",
       "    Message('note_on', channel=0, note=72, velocity=0, time=6),\n",
       "    Message('note_on', channel=0, note=52, velocity=0, time=76),\n",
       "    Message('note_on', channel=0, note=52, velocity=54, time=212),\n",
       "    Message('note_on', channel=0, note=62, velocity=78, time=1),\n",
       "    Message('note_on', channel=0, note=74, velocity=71, time=0),\n",
       "    Message('note_on', channel=0, note=76, velocity=0, time=56),\n",
       "    Message('note_on', channel=0, note=64, velocity=0, time=31),\n",
       "    Message('control_change', channel=0, control=64, value=127, time=61),\n",
       "    Message('note_on', channel=0, note=64, velocity=80, time=180),\n",
       "    Message('note_on', channel=0, note=76, velocity=64, time=0),\n",
       "    Message('note_on', channel=0, note=52, velocity=0, time=5),\n",
       "    Message('note_on', channel=0, note=55, velocity=61, time=0),\n",
       "    Message('note_on', channel=0, note=74, velocity=0, time=7),\n",
       "    Message('control_change', channel=0, control=64, value=0, time=0),\n",
       "    Message('note_on', channel=0, note=52, velocity=44, time=2),\n",
       "    Message('note_on', channel=0, note=52, velocity=0, time=46),\n",
       "    Message('note_on', channel=0, note=62, velocity=0, time=77),\n",
       "    Message('note_on', channel=0, note=64, velocity=0, time=315),\n",
       "    Message('note_on', channel=0, note=76, velocity=0, time=6),\n",
       "    Message('note_on', channel=0, note=65, velocity=81, time=244),\n",
       "    Message('note_on', channel=0, note=77, velocity=73, time=2),\n",
       "    Message('control_change', channel=0, control=64, value=127, time=61),\n",
       "    Message('note_on', channel=0, note=55, velocity=0, time=48),\n",
       "    Message('note_on', channel=0, note=79, velocity=69, time=82),\n",
       "    Message('note_on', channel=0, note=67, velocity=77, time=2),\n",
       "    Message('control_change', channel=0, control=64, value=0, time=6),\n",
       "    Message('note_on', channel=0, note=77, velocity=0, time=69),\n",
       "    Message('note_on', channel=0, note=79, velocity=0, time=16),\n",
       "    Message('note_on', channel=0, note=65, velocity=0, time=18),\n",
       "    Message('note_on', channel=0, note=81, velocity=80, time=99),\n",
       "    Message('note_on', channel=0, note=69, velocity=84, time=2),\n",
       "    Message('note_on', channel=0, note=53, velocity=64, time=7),\n",
       "    Message('note_on', channel=0, note=67, velocity=0, time=52),\n",
       "    Message('control_change', channel=0, control=64, value=127, time=129),\n",
       "    Message('note_on', channel=0, note=81, velocity=0, time=614),\n",
       "    Message('note_on', channel=0, note=79, velocity=74, time=11),\n",
       "    Message('note_on', channel=0, note=67, velocity=79, time=0),\n",
       "    Message('note_on', channel=0, note=79, velocity=0, time=5),\n",
       "    Message('control_change', channel=0, control=64, value=0, time=23),\n",
       "    Message('note_on', channel=0, note=69, velocity=0, time=3),\n",
       "    Message('note_on', channel=0, note=64, velocity=78, time=209),\n",
       "    Message('note_on', channel=0, note=76, velocity=65, time=0),\n",
       "    Message('note_on', channel=0, note=67, velocity=0, time=90),\n",
       "    Message('note_on', channel=0, note=79, velocity=68, time=218),\n",
       "    Message('note_on', channel=0, note=67, velocity=74, time=3),\n",
       "    Message('note_on', channel=0, note=52, velocity=56, time=3),\n",
       "    Message('note_on', channel=0, note=76, velocity=0, time=4),\n",
       "    Message('note_on', channel=0, note=64, velocity=0, time=112),\n",
       "    Message('note_on', channel=0, note=53, velocity=0, time=6),\n",
       "    Message('note_on', channel=0, note=79, velocity=0, time=35),\n",
       "    Message('note_on', channel=0, note=52, velocity=0, time=1658),\n",
       "    Message('note_on', channel=0, note=67, velocity=0, time=62),\n",
       "    Message('note_on', channel=0, note=65, velocity=74, time=5924),\n",
       "    Message('note_on', channel=0, note=57, velocity=40, time=53),\n",
       "    Message('note_on', channel=0, note=60, velocity=59, time=205),\n",
       "    Message('note_on', channel=0, note=57, velocity=0, time=40),\n",
       "    Message('note_on', channel=0, note=60, velocity=0, time=214),\n",
       "    Message('note_on', channel=0, note=60, velocity=40, time=7),\n",
       "    Message('note_on', channel=0, note=57, velocity=61, time=2),\n",
       "    Message('note_on', channel=0, note=60, velocity=0, time=64),\n",
       "    Message('note_on', channel=0, note=81, velocity=76, time=129),\n",
       "    Message('note_on', channel=0, note=69, velocity=82, time=2),\n",
       "    Message('note_on', channel=0, note=60, velocity=71, time=35),\n",
       "    Message('note_on', channel=0, note=65, velocity=0, time=15),\n",
       "    Message('note_on', channel=0, note=57, velocity=0, time=3),\n",
       "    Message('note_on', channel=0, note=65, velocity=75, time=214),\n",
       "    Message('note_on', channel=0, note=84, velocity=63, time=0),\n",
       "    Message('note_on', channel=0, note=77, velocity=68, time=1),\n",
       "    Message('note_on', channel=0, note=81, velocity=0, time=5),\n",
       "    Message('note_on', channel=0, note=84, velocity=0, time=0),\n",
       "    Message('note_on', channel=0, note=81, velocity=60, time=8),\n",
       "    Message('note_on', channel=0, note=57, velocity=67, time=11),\n",
       "    Message('note_on', channel=0, note=60, velocity=0, time=51),\n",
       "    Message('note_on', channel=0, note=69, velocity=0, time=29),\n",
       "    Message('note_on', channel=0, note=60, velocity=63, time=157),\n",
       "    Message('note_on', channel=0, note=81, velocity=0, time=20),\n",
       "    Message('note_on', channel=0, note=57, velocity=0, time=31),\n",
       "    Message('note_on', channel=0, note=60, velocity=0, time=215),\n",
       "    Message('note_on', channel=0, note=60, velocity=31, time=10),\n",
       "    Message('note_on', channel=0, note=57, velocity=42, time=3),\n",
       "    Message('note_on', channel=0, note=60, velocity=0, time=63),\n",
       "    Message('note_on', channel=0, note=81, velocity=65, time=138),\n",
       "    Message('note_on', channel=0, note=69, velocity=72, time=4),\n",
       "    Message('note_on', channel=0, note=60, velocity=58, time=4),\n",
       "    Message('note_on', channel=0, note=57, velocity=0, time=30),\n",
       "    Message('note_on', channel=0, note=77, velocity=0, time=24),\n",
       "    Message('note_on', channel=0, note=65, velocity=0, time=13),\n",
       "    Message('note_on', channel=0, note=65, velocity=72, time=175),\n",
       "    Message('note_on', channel=0, note=77, velocity=63, time=2),\n",
       "    Message('note_on', channel=0, note=60, velocity=0, time=2),\n",
       "    Message('note_on', channel=0, note=60, velocity=47, time=5),\n",
       "    Message('note_on', channel=0, note=57, velocity=59, time=2),\n",
       "    Message('note_on', channel=0, note=81, velocity=0, time=47),\n",
       "    Message('note_on', channel=0, note=60, velocity=0, time=2),\n",
       "    Message('note_on', channel=0, note=69, velocity=0, time=29),\n",
       "    Message('note_on', channel=0, note=81, velocity=74, time=149),\n",
       "    Message('note_on', channel=0, note=60, velocity=72, time=0),\n",
       "    Message('note_on', channel=0, note=69, velocity=79, time=1),\n",
       "    Message('note_on', channel=0, note=57, velocity=0, time=17),\n",
       "    Message('note_on', channel=0, note=65, velocity=0, time=81),\n",
       "    Message('note_on', channel=0, note=77, velocity=0, time=28),\n",
       "    Message('note_on', channel=0, note=65, velocity=76, time=108),\n",
       "    Message('note_on', channel=0, note=57, velocity=71, time=2),\n",
       "    Message('note_on', channel=0, note=77, velocity=69, time=0),\n",
       "    Message('note_on', channel=0, note=81, velocity=0, time=28),\n",
       "    Message('note_on', channel=0, note=60, velocity=0, time=28),\n",
       "    Message('note_on', channel=0, note=69, velocity=0, time=39),\n",
       "    Message('note_on', channel=0, note=81, velocity=79, time=129),\n",
       "    Message('note_on', channel=0, note=69, velocity=86, time=5),\n",
       "    Message('note_on', channel=0, note=60, velocity=80, time=2),\n",
       "    Message('note_on', channel=0, note=57, velocity=0, time=17),\n",
       "    Message('note_on', channel=0, note=65, velocity=0, time=51),\n",
       "    Message('note_on', channel=0, note=77, velocity=0, time=29),\n",
       "    Message('note_on', channel=0, note=72, velocity=95, time=113),\n",
       "    Message('note_on', channel=0, note=81, velocity=0, time=25),\n",
       "    Message('note_on', channel=0, note=60, velocity=0, time=8),\n",
       "    Message('note_on', channel=0, note=57, velocity=65, time=4),\n",
       "    Message('note_on', channel=0, note=69, velocity=0, time=3),\n",
       "    Message('note_on', channel=0, note=60, velocity=50, time=1),\n",
       "    Message('note_on', channel=0, note=60, velocity=0, time=58),\n",
       "    Message('note_on', channel=0, note=60, velocity=71, time=155),\n",
       "    Message('note_on', channel=0, note=57, velocity=0, time=61),\n",
       "    Message('note_on', channel=0, note=57, velocity=64, time=184),\n",
       "    Message('note_on', channel=0, note=60, velocity=0, time=70),\n",
       "    Message('note_on', channel=0, note=72, velocity=0, time=86),\n",
       "    Message('note_on', channel=0, note=60, velocity=70, time=64),\n",
       "    Message('note_on', channel=0, note=57, velocity=0, time=56),\n",
       "    Message('note_on', channel=0, note=79, velocity=79, time=183),\n",
       "    Message('note_on', channel=0, note=67, velocity=85, time=1),\n",
       "    Message('note_on', channel=0, note=48, velocity=58, time=1),\n",
       "    Message('note_on', channel=0, note=60, velocity=0, time=2),\n",
       "    Message('note_on', channel=0, note=60, velocity=58, time=4),\n",
       "    Message('note_on', channel=0, note=48, velocity=0, time=4),\n",
       "    Message('note_on', channel=0, note=58, velocity=69, time=11),\n",
       "    Message('note_on', channel=0, note=60, velocity=0, time=75),\n",
       "    Message('note_on', channel=0, note=60, velocity=57, time=143),\n",
       "    Message('note_on', channel=0, note=58, velocity=0, time=61),\n",
       "    Message('note_on', channel=0, note=60, velocity=0, time=171),\n",
       "    Message('note_on', channel=0, note=58, velocity=56, time=9),\n",
       "    Message('note_on', channel=0, note=60, velocity=45, time=0),\n",
       "    Message('note_on', channel=0, note=60, velocity=0, time=86),\n",
       "    Message('note_on', channel=0, note=81, velocity=76, time=140),\n",
       "    Message('note_on', channel=0, note=60, velocity=61, time=0),\n",
       "    Message('note_on', channel=0, note=69, velocity=82, time=2),\n",
       "    Message('note_on', channel=0, note=79, velocity=0, time=47),\n",
       "    Message('note_on', channel=0, note=58, velocity=0, time=2),\n",
       "    Message('note_on', channel=0, note=67, velocity=0, time=43),\n",
       "    Message('note_on', channel=0, note=48, velocity=57, time=150),\n",
       "    Message('note_on', channel=0, note=79, velocity=75, time=1),\n",
       "    Message('note_on', channel=0, note=67, velocity=81, time=0),\n",
       "    Message('note_on', channel=0, note=81, velocity=0, time=3),\n",
       "    Message('note_on', channel=0, note=58, velocity=60, time=36),\n",
       "    Message('note_on', channel=0, note=60, velocity=0, time=38),\n",
       "    Message('note_on', channel=0, note=48, velocity=0, time=26),\n",
       "    Message('note_on', channel=0, note=69, velocity=0, time=1),\n",
       "    Message('note_on', channel=0, note=60, velocity=52, time=125),\n",
       "    Message('note_on', channel=0, note=58, velocity=0, time=58),\n",
       "    Message('note_on', channel=0, note=58, velocity=63, time=212),\n",
       "    Message('note_on', channel=0, note=60, velocity=0, time=81),\n",
       "    Message('note_on', channel=0, note=79, velocity=0, time=30),\n",
       "    Message('note_on', channel=0, note=60, velocity=54, time=104),\n",
       "    Message('note_on', channel=0, note=67, velocity=0, time=3),\n",
       "    Message('note_on', channel=0, note=58, velocity=0, time=61),\n",
       "    Message('note_on', channel=0, note=60, velocity=0, time=185),\n",
       "    Message('note_on', channel=0, note=79, velocity=76, time=5),\n",
       "    Message('note_on', channel=0, note=67, velocity=83, time=1),\n",
       "    Message('note_on', channel=0, note=60, velocity=58, time=0),\n",
       "    Message('note_on', channel=0, note=58, velocity=66, time=3),\n",
       "    Message('note_on', channel=0, note=77, velocity=64, time=5),\n",
       "    Message('note_on', channel=0, note=60, velocity=0, time=83),\n",
       "    Message('note_on', channel=0, note=60, velocity=55, time=140),\n",
       "    Message('note_on', channel=0, note=58, velocity=0, time=52),\n",
       "    Message('note_on', channel=0, note=77, velocity=0, time=95),\n",
       "    Message('note_on', channel=0, note=58, velocity=59, time=88),\n",
       "    Message('note_on', channel=0, note=60, velocity=0, time=86),\n",
       "    Message('note_on', channel=0, note=81, velocity=72, time=145),\n",
       "    Message('note_on', channel=0, note=69, velocity=76, time=1),\n",
       "    Message('note_on', channel=0, note=60, velocity=58, time=0),\n",
       "    Message('note_on', channel=0, note=58, velocity=0, time=29),\n",
       "    Message('note_on', channel=0, note=79, velocity=0, time=5),\n",
       "    Message('note_on', channel=0, note=67, velocity=0, time=30),\n",
       "    Message('note_on', channel=0, note=81, velocity=0, time=123),\n",
       "    Message('note_on', channel=0, note=79, velocity=75, time=57),\n",
       "    Message('note_on', channel=0, note=67, velocity=81, time=1),\n",
       "    Message('note_on', channel=0, note=58, velocity=67, time=1),\n",
       "    Message('note_on', channel=0, note=60, velocity=0, time=89),\n",
       "    Message('note_on', channel=0, note=69, velocity=0, time=7),\n",
       "    Message('note_on', channel=0, note=79, velocity=0, time=68),\n",
       "    Message('note_on', channel=0, note=60, velocity=56, time=53),\n",
       "    Message('note_on', channel=0, note=58, velocity=0, time=57),\n",
       "    Message('note_on', channel=0, note=58, velocity=61, time=212),\n",
       "    Message('note_on', channel=0, note=60, velocity=0, time=87),\n",
       "    Message('note_on', channel=0, note=67, velocity=0, time=129),\n",
       "    Message('note_on', channel=0, note=60, velocity=64, time=2),\n",
       "    Message('note_on', channel=0, note=58, velocity=0, time=33),\n",
       "    Message('note_on', channel=0, note=65, velocity=76, time=188),\n",
       "    Message('note_on', channel=0, note=77, velocity=71, time=1),\n",
       "    Message('note_on', channel=0, note=57, velocity=62, time=26),\n",
       "    Message('note_on', channel=0, note=60, velocity=0, time=63),\n",
       "    Message('note_on', channel=0, note=60, velocity=55, time=153),\n",
       "    Message('note_on', channel=0, note=57, velocity=0, time=67),\n",
       "    Message('note_on', channel=0, note=77, velocity=0, time=143),\n",
       "    Message('note_on', channel=0, note=57, velocity=51, time=50),\n",
       "    Message('note_on', channel=0, note=60, velocity=0, time=60),\n",
       "    Message('note_on', channel=0, note=69, velocity=74, time=141),\n",
       "    Message('note_on', channel=0, note=60, velocity=59, time=0),\n",
       "    Message('note_on', channel=0, note=57, velocity=0, time=28),\n",
       "    Message('note_on', channel=0, note=65, velocity=0, time=71),\n",
       "    Message('note_on', channel=0, note=65, velocity=68, time=152),\n",
       "    Message('note_on', channel=0, note=57, velocity=58, time=18),\n",
       "    Message('note_on', channel=0, note=60, velocity=0, time=66),\n",
       "    Message('note_on', channel=0, note=69, velocity=0, time=24),\n",
       "    Message('note_on', channel=0, note=60, velocity=54, time=130),\n",
       "    Message('note_on', channel=0, note=57, velocity=0, time=78),\n",
       "    Message('note_on', channel=0, note=60, velocity=0, time=142),\n",
       "    Message('note_on', channel=0, note=60, velocity=38, time=8),\n",
       "    Message('note_on', channel=0, note=57, velocity=50, time=2),\n",
       "    Message('note_on', channel=0, note=60, velocity=0, time=71),\n",
       "    Message('note_on', channel=0, note=60, velocity=54, time=153),\n",
       "    Message('note_on', channel=0, note=81, velocity=68, time=0),\n",
       "    Message('note_on', channel=0, note=69, velocity=71, time=2),\n",
       "    Message('note_on', channel=0, note=57, velocity=0, time=31),\n",
       "    Message('note_on', channel=0, note=65, velocity=0, time=70),\n",
       "    Message('note_on', channel=0, note=57, velocity=59, time=122),\n",
       "    Message('note_on', channel=0, note=65, velocity=65, time=5),\n",
       "    Message('note_on', channel=0, note=60, velocity=0, time=38),\n",
       "    Message('note_on', channel=0, note=81, velocity=0, time=43),\n",
       "    Message('note_on', channel=0, note=69, velocity=0, time=4),\n",
       "    Message('note_on', channel=0, note=81, velocity=73, time=132),\n",
       "    Message('note_on', channel=0, note=69, velocity=79, time=5),\n",
       "    Message('note_on', channel=0, note=60, velocity=69, time=2),\n",
       "    Message('note_on', channel=0, note=57, velocity=0, time=39),\n",
       "    Message('note_on', channel=0, note=65, velocity=0, time=19),\n",
       "    Message('note_on', channel=0, note=65, velocity=77, time=163),\n",
       "    Message('note_on', channel=0, note=57, velocity=67, time=7),\n",
       "    Message('note_on', channel=0, note=60, velocity=0, time=41),\n",
       "    Message('note_on', channel=0, note=69, velocity=0, time=21),\n",
       "    Message('note_on', channel=0, note=81, velocity=0, time=20),\n",
       "    Message('note_on', channel=0, note=72, velocity=68, time=126),\n",
       "    Message('note_on', channel=0, note=72, velocity=0, time=4),\n",
       "    Message('note_on', channel=0, note=60, velocity=72, time=2),\n",
       "    Message('note_on', channel=0, note=81, velocity=79, time=7),\n",
       "    Message('note_on', channel=0, note=69, velocity=85, time=1),\n",
       "    Message('note_on', channel=0, note=57, velocity=0, time=23),\n",
       "    Message('note_on', channel=0, note=65, velocity=0, time=62),\n",
       "    Message('note_on', channel=0, note=72, velocity=92, time=139),\n",
       "    Message('note_on', channel=0, note=57, velocity=64, time=24),\n",
       "    Message('note_on', channel=0, note=81, velocity=0, time=27),\n",
       "    Message('note_on', channel=0, note=69, velocity=0, time=6),\n",
       "    Message('note_on', channel=0, note=60, velocity=0, time=29),\n",
       "    Message('note_on', channel=0, note=60, velocity=68, time=161),\n",
       "    Message('note_on', channel=0, note=57, velocity=0, time=47),\n",
       "    Message('note_on', channel=0, note=60, velocity=0, time=187),\n",
       "    Message('note_on', channel=0, note=57, velocity=64, time=10),\n",
       "    Message('note_on', channel=0, note=60, velocity=49, time=1),\n",
       "    Message('note_on', channel=0, note=60, velocity=0, time=62),\n",
       "    Message('note_on', channel=0, note=60, velocity=76, time=154),\n",
       "    Message('note_on', channel=0, note=57, velocity=0, time=38),\n",
       "    Message('note_on', channel=0, note=67, velocity=84, time=201),\n",
       "    Message('note_on', channel=0, note=58, velocity=64, time=35),\n",
       "    Message('note_on', channel=0, note=60, velocity=0, time=65),\n",
       "    Message('note_on', channel=0, note=72, velocity=0, time=1),\n",
       "    Message('note_on', channel=0, note=60, velocity=57, time=132),\n",
       "    Message('note_on', channel=0, note=58, velocity=0, time=41),\n",
       "    Message('note_on', channel=0, note=58, velocity=61, time=198),\n",
       "    Message('note_on', channel=0, note=60, velocity=0, time=82),\n",
       "    Message('note_on', channel=0, note=69, velocity=71, time=128),\n",
       "    Message('note_on', channel=0, note=60, velocity=57, time=0),\n",
       "    Message('note_on', channel=0, note=58, velocity=0, time=61),\n",
       "    Message('note_on', channel=0, note=67, velocity=0, time=5),\n",
       "    Message('note_on', channel=0, note=60, velocity=0, time=160),\n",
       "    Message('note_on', channel=0, note=79, velocity=74, time=7),\n",
       "    Message('note_on', channel=0, note=67, velocity=80, time=2),\n",
       "    Message('note_on', channel=0, note=60, velocity=54, time=2),\n",
       "    Message('note_on', channel=0, note=58, velocity=63, time=2),\n",
       "    Message('note_on', channel=0, note=60, velocity=0, time=89),\n",
       "    Message('note_on', channel=0, note=69, velocity=0, time=2),\n",
       "    Message('note_on', channel=0, note=60, velocity=58, time=117),\n",
       "    Message('note_on', channel=0, note=58, velocity=0, time=52),\n",
       "    Message('note_on', channel=0, note=60, velocity=0, time=181),\n",
       "    Message('note_on', channel=0, note=81, velocity=74, time=1),\n",
       "    Message('note_on', channel=0, note=69, velocity=78, time=2),\n",
       "    Message('note_on', channel=0, note=58, velocity=60, time=2),\n",
       "    Message('note_on', channel=0, note=60, velocity=52, time=4),\n",
       "    Message('note_on', channel=0, note=67, velocity=0, time=81),\n",
       "    Message('note_on', channel=0, note=60, velocity=0, time=5),\n",
       "    Message('note_on', channel=0, note=79, velocity=0, time=2),\n",
       "    Message('note_on', channel=0, note=60, velocity=51, time=129),\n",
       "    Message('note_on', channel=0, note=58, velocity=0, time=27),\n",
       "    Message('note_on', channel=0, note=65, velocity=65, time=188),\n",
       "    Message('note_on', channel=0, note=77, velocity=61, time=1),\n",
       "    Message('note_on', channel=0, note=57, velocity=44, time=23),\n",
       "    Message('note_on', channel=0, note=60, velocity=0, time=54),\n",
       "    Message('note_on', channel=0, note=69, velocity=0, time=8),\n",
       "    Message('note_on', channel=0, note=81, velocity=0, time=10),\n",
       "    Message('note_on', channel=0, note=60, velocity=54, time=140),\n",
       "    Message('note_on', channel=0, note=57, velocity=0, time=50),\n",
       "    Message('note_on', channel=0, note=57, velocity=44, time=215),\n",
       "    Message('note_on', channel=0, note=60, velocity=0, time=28),\n",
       "    Message('note_on', channel=0, note=60, velocity=54, time=171),\n",
       "    Message('note_on', channel=0, note=57, velocity=0, time=18),\n",
       "    Message('note_on', channel=0, note=57, velocity=49, time=299),\n",
       "    Message('note_on', channel=0, note=60, velocity=0, time=102),\n",
       "    Message('note_on', channel=0, note=77, velocity=0, time=290),\n",
       "    Message('note_on', channel=0, note=57, velocity=0, time=238),\n",
       "    Message('note_on', channel=0, note=65, velocity=0, time=42),\n",
       "    Message('note_on', channel=0, note=60, velocity=78, time=2070),\n",
       "    Message('control_change', channel=0, control=64, value=127, time=70),\n",
       "    Message('note_on', channel=0, note=60, velocity=0, time=253),\n",
       "    Message('note_on', channel=0, note=60, velocity=67, time=11),\n",
       "    Message('note_on', channel=0, note=74, velocity=73, time=0),\n",
       "    Message('note_on', channel=0, note=62, velocity=78, time=1),\n",
       "    Message('note_on', channel=0, note=60, velocity=0, time=29),\n",
       "    Message('control_change', channel=0, control=64, value=0, time=2),\n",
       "    Message('note_on', channel=0, note=74, velocity=0, time=134),\n",
       "    Message('note_on', channel=0, note=72, velocity=78, time=158),\n",
       "    Message('note_on', channel=0, note=60, velocity=82, time=2),\n",
       "    Message('note_on', channel=0, note=62, velocity=0, time=41),\n",
       "    Message('note_on', channel=0, note=72, velocity=0, time=267),\n",
       "    Message('note_on', channel=0, note=62, velocity=76, time=4),\n",
       "    Message('note_on', channel=0, note=72, velocity=64, time=0),\n",
       "    Message('note_on', channel=0, note=74, velocity=66, time=0),\n",
       "    Message('note_on', channel=0, note=74, velocity=0, time=27),\n",
       "    Message('note_on', channel=0, note=60, velocity=0, time=11),\n",
       "    Message('note_on', channel=0, note=72, velocity=0, time=50),\n",
       "    Message('note_on', channel=0, note=62, velocity=0, time=93),\n",
       "    Message('note_on', channel=0, note=74, velocity=74, time=170),\n",
       "    Message('note_on', channel=0, note=72, velocity=76, time=1),\n",
       "    Message('note_on', channel=0, note=60, velocity=80, time=2),\n",
       "    Message('note_on', channel=0, note=62, velocity=79, time=1),\n",
       "    Message('control_change', channel=0, control=64, value=127, time=102),\n",
       "    Message('note_on', channel=0, note=74, velocity=0, time=77),\n",
       "    Message('note_on', channel=0, note=60, velocity=0, time=954),\n",
       "    Message('control_change', channel=0, control=64, value=0, time=6),\n",
       "    Message('note_on', channel=0, note=72, velocity=0, time=15),\n",
       "    Message('note_on', channel=0, note=62, velocity=0, time=46),\n",
       "    Message('note_on', channel=0, note=72, velocity=65, time=51),\n",
       "    Message('note_on', channel=0, note=60, velocity=73, time=1),\n",
       "    Message('control_change', channel=0, control=64, value=127, time=71),\n",
       "    Message('note_on', channel=0, note=64, velocity=85, time=221),\n",
       "    Message('note_on', channel=0, note=76, velocity=74, time=3),\n",
       "    Message('control_change', channel=0, control=64, value=0, time=33),\n",
       "    Message('note_on', channel=0, note=72, velocity=0, time=20),\n",
       "    Message('note_on', channel=0, note=60, velocity=0, time=19),\n",
       "    Message('note_on', channel=0, note=72, velocity=70, time=237),\n",
       "    Message('note_on', channel=0, note=60, velocity=77, time=0),\n",
       "    Message('note_on', channel=0, note=76, velocity=0, time=43),\n",
       "    Message('note_on', channel=0, note=64, velocity=0, time=19),\n",
       "    Message('note_on', channel=0, note=64, velocity=82, time=231),\n",
       "    Message('note_on', channel=0, note=76, velocity=69, time=1),\n",
       "    Message('note_on', channel=0, note=60, velocity=0, time=83),\n",
       "    Message('note_on', channel=0, note=72, velocity=0, time=12),\n",
       "    Message('note_on', channel=0, note=76, velocity=0, time=53),\n",
       "    Message('note_on', channel=0, note=64, velocity=0, time=12),\n",
       "    Message('note_on', channel=0, note=64, velocity=89, time=150),\n",
       "    Message('note_on', channel=0, note=60, velocity=82, time=2),\n",
       "    Message('note_on', channel=0, note=76, velocity=80, time=0),\n",
       "    Message('note_on', channel=0, note=76, velocity=0, time=90),\n",
       "    Message('control_change', channel=0, control=64, value=127, time=84),\n",
       "    Message('control_change', channel=0, control=64, value=0, time=871),\n",
       "    Message('note_on', channel=0, note=60, velocity=0, time=1),\n",
       "    Message('note_on', channel=0, note=64, velocity=0, time=6),\n",
       "    Message('note_on', channel=0, note=60, velocity=78, time=138),\n",
       "    Message('control_change', channel=0, control=64, value=127, time=83),\n",
       "    Message('note_on', channel=0, note=65, velocity=79, time=213),\n",
       "    Message('control_change', channel=0, control=64, value=0, time=42),\n",
       "    Message('note_on', channel=0, note=60, velocity=0, time=36),\n",
       "    Message('note_on', channel=0, note=72, velocity=72, time=217),\n",
       "    Message('note_on', channel=0, note=60, velocity=78, time=1),\n",
       "    Message('note_on', channel=0, note=65, velocity=0, time=69),\n",
       "    Message('note_on', channel=0, note=65, velocity=76, time=222),\n",
       "    Message('note_on', channel=0, note=77, velocity=70, time=1),\n",
       "    Message('note_on', channel=0, note=60, velocity=0, time=78),\n",
       "    Message('note_on', channel=0, note=72, velocity=0, time=19),\n",
       "    Message('note_on', channel=0, note=65, velocity=0, time=43),\n",
       "    Message('note_on', channel=0, note=77, velocity=0, time=11),\n",
       "    Message('note_on', channel=0, note=60, velocity=85, time=166),\n",
       "    Message('note_on', channel=0, note=72, velocity=79, time=0),\n",
       "    Message('note_on', channel=0, note=77, velocity=83, time=1),\n",
       "    Message('note_on', channel=0, note=65, velocity=89, time=0),\n",
       "    Message('note_on', channel=0, note=77, velocity=0, time=86),\n",
       "    Message('control_change', channel=0, control=64, value=127, time=200),\n",
       "    Message('note_on', channel=0, note=60, velocity=0, time=856),\n",
       "    Message('control_change', channel=0, control=64, value=0, time=4),\n",
       "    Message('note_on', channel=0, note=72, velocity=0, time=23),\n",
       "    Message('note_on', channel=0, note=60, velocity=80, time=30),\n",
       "    Message('note_on', channel=0, note=65, velocity=0, time=35),\n",
       "    Message('note_on', channel=0, note=79, velocity=76, time=262),\n",
       "    Message('note_on', channel=0, note=67, velocity=84, time=1),\n",
       "    Message('note_on', channel=0, note=60, velocity=0, time=45),\n",
       "    Message('note_on', channel=0, note=79, velocity=0, time=19),\n",
       "    Message('note_on', channel=0, note=72, velocity=69, time=227),\n",
       "    Message('note_on', channel=0, note=60, velocity=77, time=0),\n",
       "    Message('note_on', channel=0, note=67, velocity=0, time=44),\n",
       "    Message('note_on', channel=0, note=79, velocity=69, time=249),\n",
       "    Message('note_on', channel=0, note=67, velocity=76, time=1),\n",
       "    Message('note_on', channel=0, note=79, velocity=0, time=55),\n",
       "    Message('note_on', channel=0, note=60, velocity=0, time=30),\n",
       "    Message('note_on', channel=0, note=72, velocity=0, time=8),\n",
       "    Message('note_on', channel=0, note=67, velocity=0, time=34),\n",
       "    Message('note_on', channel=0, note=72, velocity=77, time=193),\n",
       "    Message('note_on', channel=0, note=60, velocity=82, time=0),\n",
       "    Message('note_on', channel=0, note=67, velocity=86, time=0),\n",
       "    Message('control_change', channel=0, control=64, value=127, time=111),\n",
       "    Message('control_change', channel=0, control=64, value=0, time=1033),\n",
       "    Message('note_on', channel=0, note=60, velocity=0, time=6),\n",
       "    Message('note_on', channel=0, note=67, velocity=0, time=2),\n",
       "    Message('note_on', channel=0, note=72, velocity=0, time=4),\n",
       "    Message('note_on', channel=0, note=72, velocity=78, time=1412),\n",
       "    Message('note_on', channel=0, note=60, velocity=83, time=1),\n",
       "    Message('control_change', channel=0, control=64, value=127, time=69),\n",
       "    Message('note_on', channel=0, note=72, velocity=0, time=161),\n",
       "    Message('note_on', channel=0, note=60, velocity=0, time=39),\n",
       "    Message('note_on', channel=0, note=62, velocity=76, time=11),\n",
       "    Message('note_on', channel=0, note=60, velocity=66, time=0),\n",
       "    Message('note_on', channel=0, note=60, velocity=0, time=48),\n",
       "    Message('control_change', channel=0, control=64, value=0, time=3),\n",
       "    Message('note_on', channel=0, note=72, velocity=74, time=243),\n",
       "    Message('note_on', channel=0, note=60, velocity=78, time=4),\n",
       "    Message('note_on', channel=0, note=62, velocity=0, time=128),\n",
       "    Message('note_on', channel=0, note=74, velocity=68, time=136),\n",
       "    Message('note_on', channel=0, note=62, velocity=73, time=0),\n",
       "    Message('note_on', channel=0, note=60, velocity=0, time=54),\n",
       "    Message('note_on', channel=0, note=72, velocity=0, time=10),\n",
       "    Message('note_on', channel=0, note=62, velocity=0, time=80),\n",
       "    Message('note_on', channel=0, note=74, velocity=0, time=5),\n",
       "    Message('note_on', channel=0, note=74, velocity=68, time=157),\n",
       "    Message('note_on', channel=0, note=62, velocity=76, time=1),\n",
       "    Message('note_on', channel=0, note=72, velocity=65, time=7),\n",
       "    Message('note_on', channel=0, note=60, velocity=64, time=20),\n",
       "    Message('control_change', channel=0, control=64, value=127, time=145),\n",
       "    Message('note_on', channel=0, note=74, velocity=0, time=138),\n",
       "    Message('note_on', channel=0, note=60, velocity=0, time=702),\n",
       "    Message('control_change', channel=0, control=64, value=0, time=1),\n",
       "    Message('note_on', channel=0, note=72, velocity=0, time=4),\n",
       "    Message('note_on', channel=0, note=62, velocity=0, time=39),\n",
       "    Message('note_on', channel=0, note=59, velocity=85, time=94),\n",
       "    Message('note_on', channel=0, note=71, velocity=75, time=1),\n",
       "    Message('note_on', channel=0, note=59, velocity=0, time=265),\n",
       "    Message('note_on', channel=0, note=74, velocity=61, time=8),\n",
       "    Message('note_on', channel=0, note=62, velocity=70, time=0),\n",
       "    Message('note_on', channel=0, note=59, velocity=66, time=1),\n",
       "    Message('note_on', channel=0, note=59, velocity=0, time=41),\n",
       "    Message('note_on', channel=0, note=71, velocity=0, time=42),\n",
       "    Message('note_on', channel=0, note=74, velocity=0, time=39),\n",
       "    Message('note_on', channel=0, note=59, velocity=82, time=142),\n",
       "    Message('note_on', channel=0, note=71, velocity=72, time=2),\n",
       "    Message('note_on', channel=0, note=62, velocity=0, time=86),\n",
       "    Message('note_on', channel=0, note=74, velocity=65, time=174),\n",
       "    Message('note_on', channel=0, note=62, velocity=73, time=2),\n",
       "    Message('note_on', channel=0, note=71, velocity=0, time=76),\n",
       "    Message('note_on', channel=0, note=59, velocity=0, time=8),\n",
       "    Message('note_on', channel=0, note=74, velocity=0, time=47),\n",
       "    Message('note_on', channel=0, note=62, velocity=0, time=6),\n",
       "    Message('note_on', channel=0, note=59, velocity=86, time=150),\n",
       "    Message('note_on', channel=0, note=74, velocity=74, time=2),\n",
       "    Message('note_on', channel=0, note=71, velocity=79, time=0),\n",
       "    Message('note_on', channel=0, note=62, velocity=76, time=1),\n",
       "    Message('note_on', channel=0, note=74, velocity=0, time=133),\n",
       "    Message('control_change', channel=0, control=64, value=127, time=131),\n",
       "    Message('note_on', channel=0, note=57, velocity=73, time=920),\n",
       "    Message('control_change', channel=0, control=64, value=0, time=60),\n",
       "    Message('note_on', channel=0, note=59, velocity=0, time=11),\n",
       "    Message('note_on', channel=0, note=71, velocity=0, time=15),\n",
       "    Message('note_on', channel=0, note=62, velocity=0, time=1),\n",
       "    Message('note_on', channel=0, note=62, velocity=75, time=189),\n",
       "    Message('note_on', channel=0, note=57, velocity=0, time=59),\n",
       "    Message('note_on', channel=0, note=57, velocity=76, time=211),\n",
       "    Message('note_on', channel=0, note=62, velocity=0, time=97),\n",
       "    Message('note_on', channel=0, note=62, velocity=73, time=161),\n",
       "    Message('note_on', channel=0, note=57, velocity=0, time=49),\n",
       "    Message('note_on', channel=0, note=62, velocity=0, time=81),\n",
       "    Message('note_on', channel=0, note=62, velocity=80, time=154),\n",
       "    Message('note_on', channel=0, note=57, velocity=75, time=2),\n",
       "    Message('control_change', channel=0, control=64, value=127, time=409),\n",
       "    Message('note_on', channel=0, note=55, velocity=76, time=717),\n",
       "    Message('note_on', channel=0, note=57, velocity=0, time=47),\n",
       "    Message('control_change', channel=0, control=64, value=0, time=8),\n",
       "    Message('note_on', channel=0, note=62, velocity=0, time=38),\n",
       "    Message('note_on', channel=0, note=55, velocity=0, time=173),\n",
       "    Message('note_on', channel=0, note=55, velocity=59, time=5),\n",
       "    Message('note_on', channel=0, note=62, velocity=75, time=0),\n",
       "    Message('note_on', channel=0, note=55, velocity=0, time=37),\n",
       "    Message('note_on', channel=0, note=55, velocity=75, time=230),\n",
       "    Message('note_on', channel=0, note=62, velocity=0, time=110),\n",
       "    Message('note_on', channel=0, note=55, velocity=0, time=148),\n",
       "    Message('note_on', channel=0, note=62, velocity=75, time=10),\n",
       "    Message('note_on', channel=0, note=55, velocity=59, time=1),\n",
       "    Message('note_on', channel=0, note=55, velocity=0, time=43),\n",
       "    Message('note_on', channel=0, note=62, velocity=0, time=97),\n",
       "    Message('note_on', channel=0, note=55, velocity=79, time=160),\n",
       "    Message('note_on', channel=0, note=62, velocity=81, time=0),\n",
       "    Message('control_change', channel=0, control=64, value=127, time=249),\n",
       "    Message('control_change', channel=0, control=64, value=0, time=1089),\n",
       "    Message('note_on', channel=0, note=55, velocity=0, time=6),\n",
       "    Message('note_on', channel=0, note=62, velocity=0, time=8),\n",
       "    Message('note_on', channel=0, note=79, velocity=76, time=2056),\n",
       "    Message('note_on', channel=0, note=67, velocity=85, time=1),\n",
       "    Message('note_on', channel=0, note=81, velocity=84, time=156),\n",
       "    Message('note_on', channel=0, note=69, velocity=88, time=3),\n",
       "    Message('note_on', channel=0, note=67, velocity=0, time=64),\n",
       "    Message('note_on', channel=0, note=79, velocity=0, time=89),\n",
       "    Message('note_on', channel=0, note=71, velocity=90, time=24),\n",
       "    Message('note_on', channel=0, note=83, velocity=77, time=0),\n",
       "    Message('note_on', channel=0, note=83, velocity=0, time=6),\n",
       "    Message('note_on', channel=0, note=69, velocity=0, time=31),\n",
       "    Message('note_on', channel=0, note=72, velocity=93, time=113),\n",
       "    Message('note_on', channel=0, note=71, velocity=0, time=87),\n",
       "    Message('note_on', channel=0, note=81, velocity=0, time=0),\n",
       "    Message('note_on', channel=0, note=74, velocity=95, time=94),\n",
       "    Message('note_on', channel=0, note=71, velocity=75, time=26),\n",
       "    Message('note_on', channel=0, note=62, velocity=78, time=1),\n",
       "    Message('note_on', channel=0, note=59, velocity=83, time=2),\n",
       "    Message('note_on', channel=0, note=72, velocity=0, time=61),\n",
       "    Message('note_on', channel=0, note=71, velocity=0, time=269),\n",
       "    Message('note_on', channel=0, note=71, velocity=75, time=6),\n",
       "    Message('note_on', channel=0, note=74, velocity=0, time=54),\n",
       "    Message('note_on', channel=0, note=71, velocity=0, time=47),\n",
       "    Message('note_on', channel=0, note=59, velocity=0, time=223),\n",
       "    Message('note_on', channel=0, note=62, velocity=0, time=0),\n",
       "    Message('note_on', channel=0, note=72, velocity=90, time=3),\n",
       "    Message('note_on', channel=0, note=59, velocity=73, time=1),\n",
       "    Message('note_on', channel=0, note=57, velocity=73, time=7),\n",
       "    Message('note_on', channel=0, note=62, velocity=75, time=0),\n",
       "    Message('note_on', channel=0, note=59, velocity=0, time=43),\n",
       "    Message('note_on', channel=0, note=69, velocity=64, time=272),\n",
       "    Message('note_on', channel=0, note=69, velocity=0, time=70),\n",
       "    Message('note_on', channel=0, note=72, velocity=0, time=15),\n",
       "    Message('note_on', channel=0, note=62, velocity=0, time=65),\n",
       "    Message('note_on', channel=0, note=71, velocity=75, time=158),\n",
       "    Message('note_on', channel=0, note=62, velocity=55, time=14),\n",
       "    Message('note_on', channel=0, note=55, velocity=53, time=1),\n",
       "    Message('note_on', channel=0, note=57, velocity=0, time=27),\n",
       "    Message('note_on', channel=0, note=67, velocity=62, time=265),\n",
       "    Message('note_on', channel=0, note=62, velocity=0, time=97),\n",
       "    Message('note_on', channel=0, note=55, velocity=0, time=2),\n",
       "    Message('note_on', channel=0, note=71, velocity=0, time=1),\n",
       "    Message('note_on', channel=0, note=67, velocity=0, time=0),\n",
       "    Message('note_on', channel=0, note=79, velocity=71, time=200),\n",
       "    Message('note_on', channel=0, note=67, velocity=78, time=1),\n",
       "    Message('note_on', channel=0, note=81, velocity=77, time=159),\n",
       "    Message('note_on', channel=0, note=69, velocity=80, time=1),\n",
       "    Message('note_on', channel=0, note=67, velocity=0, time=85),\n",
       "    Message('note_on', channel=0, note=79, velocity=0, time=26),\n",
       "    Message('note_on', channel=0, note=71, velocity=87, time=36),\n",
       "    Message('note_on', channel=0, note=69, velocity=0, time=35),\n",
       "    Message('note_on', channel=0, note=81, velocity=0, time=83),\n",
       "    Message('note_on', channel=0, note=72, velocity=88, time=51),\n",
       "    Message('note_on', channel=0, note=71, velocity=0, time=24),\n",
       "    Message('note_on', channel=0, note=74, velocity=88, time=150),\n",
       "    Message('note_on', channel=0, note=59, velocity=67, time=16),\n",
       "    Message('note_on', channel=0, note=62, velocity=56, time=7),\n",
       "    Message('note_on', channel=0, note=72, velocity=0, time=29),\n",
       "    Message('note_on', channel=0, note=71, velocity=64, time=279),\n",
       "    Message('note_on', channel=0, note=74, velocity=0, time=84),\n",
       "    Message('note_on', channel=0, note=71, velocity=0, time=24),\n",
       "    Message('note_on', channel=0, note=62, velocity=0, time=13),\n",
       "    Message('note_on', channel=0, note=72, velocity=86, time=179),\n",
       "    Message('note_on', channel=0, note=60, velocity=51, time=14),\n",
       "    Message('note_on', channel=0, note=57, velocity=61, time=1),\n",
       "    Message('note_on', channel=0, note=60, velocity=0, time=4),\n",
       "    Message('note_on', channel=0, note=62, velocity=58, time=1),\n",
       "    Message('note_on', channel=0, note=59, velocity=0, time=120),\n",
       "    Message('note_on', channel=0, note=72, velocity=0, time=171),\n",
       "    Message('note_on', channel=0, note=69, velocity=63, time=5),\n",
       "    Message('note_on', channel=0, note=72, velocity=52, time=3),\n",
       "    Message('note_on', channel=0, note=72, velocity=0, time=61),\n",
       "    Message('note_on', channel=0, note=62, velocity=0, time=41),\n",
       "    Message('note_on', channel=0, note=71, velocity=72, time=234),\n",
       "    Message('note_on', channel=0, note=62, velocity=44, time=16),\n",
       "    Message('note_on', channel=0, note=55, velocity=43, time=2),\n",
       "    Message('note_on', channel=0, note=67, velocity=44, time=3),\n",
       "    Message('note_on', channel=0, note=69, velocity=0, time=81),\n",
       "    Message('note_on', channel=0, note=57, velocity=0, time=22),\n",
       "    Message('note_on', channel=0, note=67, velocity=0, time=70),\n",
       "    Message('control_change', channel=0, control=64, value=127, time=130),\n",
       "    Message('control_change', channel=0, control=64, value=0, time=46),\n",
       "    Message('note_on', channel=0, note=71, velocity=0, time=146),\n",
       "    Message('note_on', channel=0, note=71, velocity=34, time=6),\n",
       "    Message('note_on', channel=0, note=71, velocity=0, time=48),\n",
       "    Message('note_on', channel=0, note=79, velocity=68, time=112),\n",
       "    Message('note_on', channel=0, note=67, velocity=74, time=0),\n",
       "    Message('note_on', channel=0, note=79, velocity=0, time=11),\n",
       "    Message('note_on', channel=0, note=55, velocity=0, time=18),\n",
       "    Message('note_on', channel=0, note=62, velocity=0, time=0),\n",
       "    Message('note_on', channel=0, note=81, velocity=78, time=103),\n",
       "    Message('note_on', channel=0, note=69, velocity=84, time=1),\n",
       "    Message('note_on', channel=0, note=67, velocity=0, time=65),\n",
       "    Message('note_on', channel=0, note=71, velocity=90, time=85),\n",
       "    Message('note_on', channel=0, note=83, velocity=75, time=1),\n",
       "    Message('note_on', channel=0, note=83, velocity=0, time=11),\n",
       "    Message('note_on', channel=0, note=69, velocity=0, time=27),\n",
       "    Message('note_on', channel=0, note=81, velocity=0, time=19),\n",
       "    Message('note_on', channel=0, note=72, velocity=88, time=101),\n",
       "    Message('note_on', channel=0, note=71, velocity=0, time=27),\n",
       "    Message('note_on', channel=0, note=74, velocity=87, time=150),\n",
       "    Message('note_on', channel=0, note=59, velocity=64, time=18),\n",
       "    Message('note_on', channel=0, note=62, velocity=57, time=5),\n",
       "    Message('note_on', channel=0, note=72, velocity=0, time=72),\n",
       "    Message('note_on', channel=0, note=71, velocity=71, time=219),\n",
       "    Message('note_on', channel=0, note=74, velocity=0, time=65),\n",
       "    Message('note_on', channel=0, note=71, velocity=0, time=11),\n",
       "    Message('note_on', channel=0, note=62, velocity=0, time=13),\n",
       "    Message('note_on', channel=0, note=72, velocity=80, time=223),\n",
       "    Message('note_on', channel=0, note=62, velocity=57, time=7),\n",
       "    Message('note_on', channel=0, note=57, velocity=53, time=6),\n",
       "    Message('note_on', channel=0, note=59, velocity=0, time=7),\n",
       "    Message('note_on', channel=0, note=69, velocity=54, time=280),\n",
       "    Message('note_on', channel=0, note=57, velocity=0, time=83),\n",
       "    Message('note_on', channel=0, note=69, velocity=0, time=6),\n",
       "    Message('note_on', channel=0, note=72, velocity=0, time=16),\n",
       "    Message('note_on', channel=0, note=62, velocity=0, time=8),\n",
       "    Message('note_on', channel=0, note=71, velocity=67, time=199),\n",
       "    Message('note_on', channel=0, note=62, velocity=40, time=19),\n",
       "    Message('note_on', channel=0, note=55, velocity=42, time=3),\n",
       "    Message('note_on', channel=0, note=67, velocity=57, time=277),\n",
       "    Message('note_on', channel=0, note=55, velocity=0, time=80),\n",
       "    Message('note_on', channel=0, note=71, velocity=0, time=6),\n",
       "    Message('note_on', channel=0, note=67, velocity=0, time=6),\n",
       "    Message('note_on', channel=0, note=67, velocity=70, time=187),\n",
       "    Message('note_on', channel=0, note=62, velocity=0, time=36),\n",
       "    Message('note_on', channel=0, note=81, velocity=75, time=107),\n",
       "    Message('note_on', channel=0, note=69, velocity=78, time=2),\n",
       "    Message('note_on', channel=0, note=67, velocity=0, time=79),\n",
       "    Message('note_on', channel=0, note=71, velocity=88, time=75),\n",
       "    Message('note_on', channel=0, note=69, velocity=0, time=101),\n",
       "    Message('note_on', channel=0, note=72, velocity=87, time=60),\n",
       "    Message('note_on', channel=0, note=81, velocity=0, time=11),\n",
       "    Message('note_on', channel=0, note=71, velocity=0, time=12),\n",
       "    Message('note_on', channel=0, note=74, velocity=88, time=161),\n",
       "    Message('note_on', channel=0, note=59, velocity=65, time=1),\n",
       "    Message('note_on', channel=0, note=62, velocity=57, time=5),\n",
       "    Message('note_on', channel=0, note=72, velocity=0, time=79),\n",
       "    Message('note_on', channel=0, note=71, velocity=70, time=229),\n",
       "    Message('note_on', channel=0, note=74, velocity=0, time=69),\n",
       "    Message('note_on', channel=0, note=71, velocity=0, time=18),\n",
       "    Message('note_on', channel=0, note=62, velocity=0, time=22),\n",
       "    Message('note_on', channel=0, note=72, velocity=81, time=194),\n",
       "    Message('note_on', channel=0, note=60, velocity=51, time=5),\n",
       "    Message('note_on', channel=0, note=62, velocity=58, time=4),\n",
       "    Message('note_on', channel=0, note=57, velocity=57, time=1),\n",
       "    Message('note_on', channel=0, note=59, velocity=0, time=11),\n",
       "    Message('note_on', channel=0, note=72, velocity=0, time=311),\n",
       "    Message('note_on', channel=0, note=69, velocity=63, time=8),\n",
       "    Message('note_on', channel=0, note=72, velocity=52, time=1),\n",
       "    Message('note_on', channel=0, note=72, velocity=0, time=62),\n",
       "    Message('note_on', channel=0, note=60, velocity=0, time=13),\n",
       "    Message('note_on', channel=0, note=79, velocity=61, time=271),\n",
       "    Message('note_on', channel=0, note=67, velocity=68, time=1),\n",
       "    Message('note_on', channel=0, note=59, velocity=53, time=38),\n",
       "    Message('note_on', channel=0, note=55, velocity=39, time=5),\n",
       "    Message('note_on', channel=0, note=69, velocity=0, time=5),\n",
       "    Message('note_on', channel=0, note=62, velocity=0, time=3),\n",
       "    Message('note_on', channel=0, note=57, velocity=0, time=1),\n",
       "    Message('note_on', channel=0, note=79, velocity=0, time=444),\n",
       "    Message('note_on', channel=0, note=55, velocity=0, time=433),\n",
       "    Message('note_on', channel=0, note=59, velocity=0, time=0),\n",
       "    Message('note_on', channel=0, note=67, velocity=0, time=3),\n",
       "    Message('note_on', channel=0, note=72, velocity=75, time=5220),\n",
       "    Message('note_on', channel=0, note=60, velocity=79, time=1),\n",
       "    Message('note_on', channel=0, note=72, velocity=0, time=3),\n",
       "    Message('control_change', channel=0, control=64, value=127, time=92),\n",
       "    Message('control_change', channel=0, control=64, value=0, time=236),\n",
       "    Message('note_on', channel=0, note=74, velocity=73, time=20),\n",
       "    Message('note_on', channel=0, note=62, velocity=80, time=1),\n",
       "    Message('note_on', channel=0, note=60, velocity=0, time=35),\n",
       "    Message('note_on', channel=0, note=74, velocity=0, time=100),\n",
       "    Message('note_on', channel=0, note=64, velocity=90, time=205),\n",
       "    Message('note_on', channel=0, note=76, velocity=76, time=2),\n",
       "    Message('note_on', channel=0, note=62, velocity=0, time=69),\n",
       "    Message('note_on', channel=0, note=76, velocity=0, time=254),\n",
       "    Message('note_on', channel=0, note=72, velocity=60, time=27),\n",
       "    Message('note_on', channel=0, note=60, velocity=72, time=1),\n",
       "    Message('note_on', channel=0, note=64, velocity=0, time=88),\n",
       "    Message('note_on', channel=0, note=72, velocity=0, time=76),\n",
       "    Message('note_on', channel=0, note=60, velocity=0, time=4),\n",
       "    Message('note_on', channel=0, note=72, velocity=71, time=173),\n",
       "    Message('note_on', channel=0, note=60, velocity=75, time=2),\n",
       "    Message('control_change', channel=0, control=64, value=127, time=90),\n",
       "    Message('control_change', channel=0, control=64, value=0, time=250),\n",
       "    Message('note_on', channel=0, note=74, velocity=66, time=7),\n",
       "    Message('note_on', channel=0, note=62, velocity=74, time=0),\n",
       "    Message('note_on', channel=0, note=74, velocity=0, time=4),\n",
       "    Message('note_on', channel=0, note=72, velocity=0, time=8),\n",
       "    Message('note_on', channel=0, note=60, velocity=0, time=7),\n",
       "    Message('control_change', channel=0, control=64, value=127, time=123),\n",
       "    Message('control_change', channel=0, control=64, value=0, time=177),\n",
       "    Message('note_on', channel=0, note=64, velocity=83, time=27),\n",
       "    Message('note_on', channel=0, note=76, velocity=71, time=2),\n",
       "    Message('note_on', channel=0, note=62, velocity=0, time=114),\n",
       "    Message('note_on', channel=0, note=76, velocity=0, time=126),\n",
       "    Message('note_on', channel=0, note=60, velocity=62, time=87),\n",
       "    Message('note_on', channel=0, note=64, velocity=0, time=116),\n",
       "    Message('note_on', channel=0, note=60, velocity=0, time=32),\n",
       "    Message('note_on', channel=0, note=64, velocity=74, time=189),\n",
       "    Message('note_on', channel=0, note=76, velocity=64, time=2),\n",
       "    Message('note_on', channel=0, note=48, velocity=63, time=0),\n",
       "    Message('note_on', channel=0, note=76, velocity=0, time=4),\n",
       "    Message('control_change', channel=0, control=64, value=127, time=30),\n",
       "    Message('note_on', channel=0, note=62, velocity=66, time=287),\n",
       "    Message('note_on', channel=0, note=50, velocity=74, time=1),\n",
       "    Message('note_on', channel=0, note=62, velocity=0, time=4),\n",
       "    Message('note_on', channel=0, note=65, velocity=81, time=7),\n",
       "    Message('note_on', channel=0, note=48, velocity=0, time=19),\n",
       "    Message('note_on', channel=0, note=64, velocity=0, time=1),\n",
       "    Message('control_change', channel=0, control=64, value=0, time=14),\n",
       "    Message('note_on', channel=0, note=79, velocity=80, time=286),\n",
       "    Message('note_on', channel=0, note=52, velocity=83, time=1),\n",
       "    Message('note_on', channel=0, note=67, velocity=88, time=3),\n",
       "    Message('note_on', channel=0, note=79, velocity=0, time=7),\n",
       "    Message('note_on', channel=0, note=50, velocity=0, time=30),\n",
       "    Message('note_on', channel=0, note=65, velocity=0, time=43),\n",
       "    Message('note_on', channel=0, note=48, velocity=68, time=255),\n",
       "    Message('note_on', channel=0, note=52, velocity=0, time=34),\n",
       "    Message('note_on', channel=0, note=48, velocity=0, time=57),\n",
       "    Message('note_on', channel=0, note=64, velocity=76, time=223),\n",
       "    Message('note_on', channel=0, note=48, velocity=63, time=23),\n",
       "    Message('note_on', channel=0, note=67, velocity=0, time=34),\n",
       "    Message('note_on', channel=0, note=48, velocity=0, time=259),\n",
       "    Message('note_on', channel=0, note=50, velocity=71, time=4),\n",
       "    Message('note_on', channel=0, note=65, velocity=80, time=4),\n",
       "    Message('note_on', channel=0, note=64, velocity=0, time=68),\n",
       "    Message('note_on', channel=0, note=52, velocity=76, time=256),\n",
       "    Message('note_on', channel=0, note=79, velocity=79, time=3),\n",
       "    Message('note_on', channel=0, note=67, velocity=85, time=1),\n",
       "    Message('note_on', channel=0, note=79, velocity=0, time=4),\n",
       "    Message('note_on', channel=0, note=50, velocity=0, time=32),\n",
       "    Message('note_on', channel=0, note=65, velocity=0, time=81),\n",
       "    Message('note_on', channel=0, note=48, velocity=71, time=198),\n",
       "    Message('note_on', channel=0, note=52, velocity=0, time=4),\n",
       "    Message('note_on', channel=0, note=67, velocity=0, time=5),\n",
       "    Message('note_on', channel=0, note=52, velocity=71, time=308),\n",
       "    Message('note_on', channel=0, note=67, velocity=81, time=3),\n",
       "    Message('note_on', channel=0, note=48, velocity=0, time=18),\n",
       "    Message('note_on', channel=0, note=81, velocity=85, time=145),\n",
       "    Message('note_on', channel=0, note=69, velocity=86, time=1),\n",
       "    Message('note_on', channel=0, note=67, velocity=0, time=61),\n",
       "    Message('note_on', channel=0, note=67, velocity=77, time=94),\n",
       "    Message('note_on', channel=0, note=79, velocity=76, time=1),\n",
       "    Message('note_on', channel=0, note=53, velocity=73, time=4),\n",
       "    Message('note_on', channel=0, note=52, velocity=0, time=44),\n",
       "    Message('note_on', channel=0, note=69, velocity=0, time=24),\n",
       "    Message('note_on', channel=0, note=81, velocity=0, time=22),\n",
       "    Message('note_on', channel=0, note=77, velocity=79, time=62),\n",
       "    Message('note_on', channel=0, note=65, velocity=90, time=0),\n",
       "    Message('note_on', channel=0, note=79, velocity=0, time=14),\n",
       "    Message('note_on', channel=0, note=67, velocity=0, time=61),\n",
       "    Message('note_on', channel=0, note=55, velocity=64, time=110),\n",
       "    Message('note_on', channel=0, note=64, velocity=77, time=1),\n",
       "    Message('note_on', channel=0, note=76, velocity=71, time=0),\n",
       "    Message('note_on', channel=0, note=53, velocity=0, time=60),\n",
       "    Message('note_on', channel=0, note=77, velocity=0, time=22),\n",
       "    Message('note_on', channel=0, note=65, velocity=0, time=7),\n",
       "    Message('note_on', channel=0, note=60, velocity=53, time=234),\n",
       "    Message('note_on', channel=0, note=60, velocity=0, time=78),\n",
       "    Message('note_on', channel=0, note=64, velocity=0, time=12),\n",
       "    Message('note_on', channel=0, note=76, velocity=0, time=130),\n",
       "    Message('note_on', channel=0, note=79, velocity=74, time=80),\n",
       "    Message('note_on', channel=0, note=67, velocity=80, time=2),\n",
       "    Message('note_on', channel=0, note=52, velocity=67, time=0),\n",
       "    Message('note_on', channel=0, note=55, velocity=0, time=22),\n",
       "    Message('note_on', channel=0, note=81, velocity=84, time=139),\n",
       "    Message('note_on', channel=0, note=69, velocity=86, time=2),\n",
       "    Message('note_on', channel=0, note=67, velocity=0, time=55),\n",
       "    Message('note_on', channel=0, note=79, velocity=0, time=7),\n",
       "    Message('note_on', channel=0, note=79, velocity=78, time=91),\n",
       "    Message('note_on', channel=0, note=67, velocity=83, time=3),\n",
       "    Message('note_on', channel=0, note=53, velocity=73, time=4),\n",
       "    Message('note_on', channel=0, note=52, velocity=0, time=40),\n",
       "    Message('note_on', channel=0, note=69, velocity=0, time=29),\n",
       "    Message('note_on', channel=0, note=81, velocity=0, time=32),\n",
       "    Message('note_on', channel=0, note=65, velocity=86, time=48),\n",
       "    Message('note_on', channel=0, note=77, velocity=79, time=1),\n",
       "    Message('note_on', channel=0, note=67, velocity=0, time=70),\n",
       "    Message('note_on', channel=0, note=79, velocity=0, time=20),\n",
       "    Message('note_on', channel=0, note=64, velocity=83, time=94),\n",
       "    Message('note_on', channel=0, note=76, velocity=73, time=1),\n",
       "    Message('note_on', channel=0, note=55, velocity=65, time=3),\n",
       "    Message('note_on', channel=0, note=53, velocity=0, time=45),\n",
       "    Message('note_on', channel=0, note=65, velocity=0, time=12),\n",
       "    Message('note_on', channel=0, note=77, velocity=0, time=21),\n",
       "    Message('note_on', channel=0, note=60, velocity=66, time=230),\n",
       "    Message('note_on', channel=0, note=55, velocity=0, time=45),\n",
       "    Message('note_on', channel=0, note=64, velocity=0, time=45),\n",
       "    Message('note_on', channel=0, note=60, velocity=0, time=14),\n",
       "    Message('note_on', channel=0, note=76, velocity=0, time=12),\n",
       "    Message('note_on', channel=0, note=72, velocity=74, time=217),\n",
       "    Message('note_on', channel=0, note=60, velocity=79, time=1),\n",
       "    Message('control_change', channel=0, control=64, value=127, time=66),\n",
       "    Message('note_on', channel=0, note=55, velocity=59, time=264),\n",
       "    Message('note_on', channel=0, note=67, velocity=48, time=1),\n",
       "    Message('control_change', channel=0, control=64, value=0, time=27),\n",
       "    Message('note_on', channel=0, note=60, velocity=0, time=16),\n",
       "    Message('note_on', channel=0, note=72, velocity=0, time=15),\n",
       "    Message('note_on', channel=0, note=72, velocity=70, time=272),\n",
       "    Message('note_on', channel=0, note=60, velocity=75, time=1),\n",
       "    Message('note_on', channel=0, note=55, velocity=0, time=37),\n",
       "    Message('note_on', channel=0, note=67, velocity=0, time=5),\n",
       "    Message('control_change', channel=0, control=64, value=127, time=30),\n",
       "    Message('control_change', channel=0, control=64, value=0, time=348),\n",
       "    Message('note_on', channel=0, note=72, velocity=0, time=52),\n",
       "    Message('note_on', channel=0, note=60, velocity=0, time=3),\n",
       "    Message('note_on', channel=0, note=72, velocity=73, time=169),\n",
       "    Message('note_on', channel=0, note=60, velocity=74, time=0),\n",
       "    Message('control_change', channel=0, control=64, value=127, time=81),\n",
       "    Message('note_on', channel=0, note=55, velocity=69, time=227),\n",
       "    Message('note_on', channel=0, note=60, velocity=0, time=13),\n",
       "    Message('control_change', channel=0, control=64, value=0, time=64),\n",
       "    Message('note_on', channel=0, note=72, velocity=0, time=42),\n",
       "    Message('note_on', channel=0, note=72, velocity=64, time=244),\n",
       "    Message('note_on', channel=0, note=60, velocity=66, time=5),\n",
       "    Message('note_on', channel=0, note=55, velocity=0, time=11),\n",
       "    Message('note_on', channel=0, note=48, velocity=43, time=13),\n",
       "    Message('note_on', channel=0, note=52, velocity=47, time=5),\n",
       "    Message('note_on', channel=0, note=52, velocity=0, time=739),\n",
       "    Message('note_on', channel=0, note=48, velocity=0, time=17),\n",
       "    Message('note_on', channel=0, note=60, velocity=0, time=16),\n",
       "    Message('note_on', channel=0, note=72, velocity=0, time=9),\n",
       "    Message('note_on', channel=0, note=79, velocity=73, time=2032),\n",
       "    Message('note_on', channel=0, note=67, velocity=81, time=2),\n",
       "    Message('note_on', channel=0, note=47, velocity=55, time=14),\n",
       "    Message('note_on', channel=0, note=74, velocity=59, time=1),\n",
       "    Message('note_on', channel=0, note=59, velocity=69, time=4),\n",
       "    Message('note_on', channel=0, note=71, velocity=62, time=3),\n",
       "    Message('note_on', channel=0, note=62, velocity=60, time=1),\n",
       "    Message('note_on', channel=0, note=79, velocity=0, time=40),\n",
       "    Message('note_on', channel=0, note=47, velocity=0, time=15),\n",
       "    Message('note_on', channel=0, note=67, velocity=0, time=87),\n",
       "    Message('note_on', channel=0, note=79, velocity=68, time=194),\n",
       "    Message('note_on', channel=0, note=67, velocity=75, time=0),\n",
       "    Message('note_on', channel=0, note=74, velocity=0, time=11),\n",
       "    Message('note_on', channel=0, note=79, velocity=0, time=23),\n",
       "    Message('note_on', channel=0, note=71, velocity=0, time=23),\n",
       "    Message('note_on', channel=0, note=67, velocity=0, time=90),\n",
       "    Message('note_on', channel=0, note=79, velocity=76, time=184),\n",
       "    Message('note_on', channel=0, note=67, velocity=82, time=2),\n",
       "    Message('note_on', channel=0, note=72, velocity=59, time=5),\n",
       "    Message('note_on', channel=0, note=60, velocity=69, time=3),\n",
       "    Message('note_on', channel=0, note=52, velocity=53, time=3),\n",
       "    Message('note_on', channel=0, note=52, velocity=0, time=5),\n",
       "    Message('note_on', channel=0, note=57, velocity=56, time=8),\n",
       "    Message('note_on', channel=0, note=59, velocity=0, time=14),\n",
       "    Message('note_on', channel=0, note=62, velocity=0, time=127),\n",
       "    Message('note_on', channel=0, note=79, velocity=0, time=20),\n",
       "    Message('note_on', channel=0, note=67, velocity=0, time=17),\n",
       "    Message('note_on', channel=0, note=79, velocity=62, time=127),\n",
       "    Message('note_on', channel=0, note=67, velocity=67, time=2),\n",
       "    Message('note_on', channel=0, note=79, velocity=0, time=123),\n",
       "    Message('note_on', channel=0, note=67, velocity=0, time=6),\n",
       "    Message('note_on', channel=0, note=79, velocity=77, time=193),\n",
       "    Message('note_on', channel=0, note=67, velocity=82, time=4),\n",
       "    Message('note_on', channel=0, note=59, velocity=74, time=3),\n",
       "    Message('note_on', channel=0, note=71, velocity=71, time=3),\n",
       "    Message('note_on', channel=0, note=74, velocity=58, time=4),\n",
       "    Message('note_on', channel=0, note=62, velocity=63, time=4),\n",
       "    Message('note_on', channel=0, note=74, velocity=0, time=6),\n",
       "    Message('note_on', channel=0, note=60, velocity=0, time=13),\n",
       "    Message('note_on', channel=0, note=72, velocity=0, time=10),\n",
       "    Message('note_on', channel=0, note=57, velocity=0, time=7),\n",
       "    Message('note_on', channel=0, note=74, velocity=80, time=588),\n",
       "    Message('note_on', channel=0, note=79, velocity=0, time=61),\n",
       "    Message('note_on', channel=0, note=67, velocity=0, time=1),\n",
       "    Message('note_on', channel=0, note=71, velocity=0, time=34),\n",
       "    Message('note_on', channel=0, note=59, velocity=0, time=346),\n",
       "    Message('note_on', channel=0, note=71, velocity=70, time=198),\n",
       "    Message('note_on', channel=0, note=59, velocity=56, time=25),\n",
       "    Message('note_on', channel=0, note=62, velocity=0, time=22),\n",
       "    Message('note_on', channel=0, note=62, velocity=42, time=7),\n",
       "    Message('note_on', channel=0, note=74, velocity=0, time=22),\n",
       "    Message('note_on', channel=0, note=71, velocity=0, time=263),\n",
       "    Message('note_on', channel=0, note=71, velocity=82, time=4),\n",
       "    Message('note_on', channel=0, note=62, velocity=0, time=31),\n",
       "    Message('note_on', channel=0, note=72, velocity=83, time=284),\n",
       "    Message('note_on', channel=0, note=59, velocity=0, time=4),\n",
       "    Message('note_on', channel=0, note=59, velocity=56, time=4),\n",
       "    Message('note_on', channel=0, note=57, velocity=56, time=2),\n",
       "    Message('note_on', channel=0, note=62, velocity=61, time=4),\n",
       "    Message('note_on', channel=0, note=71, velocity=0, time=43),\n",
       "    Message('note_on', channel=0, note=59, velocity=0, time=108),\n",
       "    Message('note_on', channel=0, note=81, velocity=72, time=148),\n",
       "    Message('note_on', channel=0, note=69, velocity=77, time=1),\n",
       "    Message('note_on', channel=0, note=72, velocity=0, time=85),\n",
       "    Message('note_on', channel=0, note=62, velocity=0, time=12),\n",
       "    Message('note_on', channel=0, note=81, velocity=0, time=107),\n",
       "    Message('note_on', channel=0, note=71, velocity=78, time=133),\n",
       "    Message('note_on', channel=0, note=62, velocity=53, time=11),\n",
       "    Message('note_on', channel=0, note=67, velocity=52, time=5),\n",
       "    Message('note_on', channel=0, note=55, velocity=51, time=1),\n",
       "    Message('note_on', channel=0, note=57, velocity=0, time=35),\n",
       "    Message('note_on', channel=0, note=69, velocity=0, time=15),\n",
       "    Message('control_change', channel=0, control=64, value=127, time=107),\n",
       "    Message('control_change', channel=0, control=64, value=0, time=880),\n",
       "    Message('note_on', channel=0, note=55, velocity=0, time=3),\n",
       "    Message('note_on', channel=0, note=67, velocity=0, time=1),\n",
       "    Message('note_on', channel=0, note=62, velocity=0, time=7),\n",
       "    Message('note_on', channel=0, note=71, velocity=0, time=35),\n",
       "    Message('note_on', channel=0, note=79, velocity=64, time=175),\n",
       "    Message('note_on', channel=0, note=67, velocity=70, time=1),\n",
       "    Message('note_on', channel=0, note=59, velocity=52, time=42),\n",
       "    Message('note_on', channel=0, note=62, velocity=43, time=4),\n",
       "    Message('note_on', channel=0, note=79, velocity=0, time=35),\n",
       "    Message('note_on', channel=0, note=67, velocity=0, time=120),\n",
       "    Message('note_on', channel=0, note=79, velocity=64, time=119),\n",
       "    Message('note_on', channel=0, note=67, velocity=67, time=1),\n",
       "    Message('note_on', channel=0, note=79, velocity=0, time=60),\n",
       "    Message('note_on', channel=0, note=67, velocity=0, time=88),\n",
       "    Message('note_on', channel=0, note=79, velocity=71, time=152),\n",
       "    Message('note_on', channel=0, note=67, velocity=76, time=2),\n",
       "    Message('note_on', channel=0, note=60, velocity=68, time=7),\n",
       "    Message('note_on', channel=0, note=72, velocity=58, time=0),\n",
       "    Message('note_on', channel=0, note=57, velocity=53, time=14),\n",
       "    Message('note_on', channel=0, note=59, velocity=0, time=13),\n",
       "    Message('note_on', channel=0, note=62, velocity=0, time=16),\n",
       "    Message('note_on', channel=0, note=67, velocity=0, time=136),\n",
       "    Message('note_on', channel=0, note=79, velocity=0, time=17),\n",
       "    Message('note_on', channel=0, note=79, velocity=66, time=126),\n",
       "    Message('note_on', channel=0, note=67, velocity=68, time=1),\n",
       "    Message('note_on', channel=0, note=72, velocity=0, time=73),\n",
       "    Message('control_change', channel=0, control=64, value=127, time=8),\n",
       "    Message('note_on', channel=0, note=67, velocity=0, time=41),\n",
       "    Message('control_change', channel=0, control=64, value=0, time=12),\n",
       "    Message('note_on', channel=0, note=79, velocity=0, time=162),\n",
       "    Message('note_on', channel=0, note=79, velocity=75, time=4),\n",
       "    Message('note_on', channel=0, note=67, velocity=80, time=4),\n",
       "    Message('note_on', channel=0, note=59, velocity=64, time=17),\n",
       "    Message('note_on', channel=0, note=62, velocity=52, time=2),\n",
       "    Message('note_on', channel=0, note=71, velocity=60, time=3),\n",
       "    Message('note_on', channel=0, note=74, velocity=49, time=2),\n",
       "    Message('note_on', channel=0, note=57, velocity=0, time=52),\n",
       "    Message('note_on', channel=0, note=60, velocity=0, time=49),\n",
       "    Message('control_change', channel=0, control=64, value=127, time=128),\n",
       "    Message('note_on', channel=0, note=74, velocity=0, time=61),\n",
       "    Message('note_on', channel=0, note=74, velocity=76, time=329),\n",
       "    Message('control_change', channel=0, control=64, value=0, time=12),\n",
       "    Message('note_on', channel=0, note=79, velocity=0, time=93),\n",
       "    Message('note_on', channel=0, note=67, velocity=0, time=3),\n",
       "    Message('note_on', channel=0, note=62, velocity=0, time=386),\n",
       "    Message('note_on', channel=0, note=59, velocity=0, time=1),\n",
       "    Message('note_on', channel=0, note=71, velocity=0, time=6),\n",
       "    Message('note_on', channel=0, note=74, velocity=0, time=30),\n",
       "    Message('note_on', channel=0, note=71, velocity=77, time=129),\n",
       "    Message('note_on', channel=0, note=59, velocity=59, time=33),\n",
       "    Message('note_on', channel=0, note=62, velocity=54, time=3),\n",
       "    Message('note_on', channel=0, note=71, velocity=0, time=173),\n",
       "    Message('note_on', channel=0, note=71, velocity=67, time=127),\n",
       "    Message('note_on', channel=0, note=62, velocity=0, time=86),\n",
       "    Message('note_on', channel=0, note=69, velocity=72, time=213),\n",
       "    Message('note_on', channel=0, note=72, velocity=58, time=23),\n",
       "    Message('note_on', channel=0, note=71, velocity=0, time=4),\n",
       "    Message('note_on', channel=0, note=60, velocity=66, time=4),\n",
       "    Message('note_on', channel=0, note=62, velocity=53, time=3),\n",
       "    Message('note_on', channel=0, note=59, velocity=0, time=5),\n",
       "    Message('note_on', channel=0, note=69, velocity=0, time=156),\n",
       "    Message('note_on', channel=0, note=72, velocity=0, time=78),\n",
       "    Message('note_on', channel=0, note=69, velocity=60, time=79),\n",
       "    Message('control_change', channel=0, control=64, value=127, time=21),\n",
       "    Message('control_change', channel=0, control=64, value=0, time=31),\n",
       "    Message('note_on', channel=0, note=62, velocity=0, time=27),\n",
       "    Message('control_change', channel=0, control=64, value=127, time=57),\n",
       "    Message('note_on', channel=0, note=67, velocity=69, time=194),\n",
       "    Message('note_on', channel=0, note=59, velocity=65, time=4),\n",
       "    Message('note_on', channel=0, note=71, velocity=61, time=6),\n",
       "    Message('note_on', channel=0, note=62, velocity=43, time=32),\n",
       "    Message('note_on', channel=0, note=60, velocity=0, time=5),\n",
       "    Message('note_on', channel=0, note=69, velocity=0, time=1),\n",
       "    Message('control_change', channel=0, control=64, value=0, time=4),\n",
       "    Message('control_change', channel=0, control=64, value=127, time=737),\n",
       "    Message('control_change', channel=0, control=64, value=0, time=482),\n",
       "    Message('note_on', channel=0, note=67, velocity=0, time=1),\n",
       "    Message('note_on', channel=0, note=62, velocity=0, time=2),\n",
       "    Message('note_on', channel=0, note=59, velocity=0, time=3),\n",
       "    Message('note_on', channel=0, note=71, velocity=0, time=11),\n",
       "    Message('note_on', channel=0, note=60, velocity=79, time=5315),\n",
       "    Message('note_on', channel=0, note=48, velocity=71, time=3),\n",
       "    Message('control_change', channel=0, control=64, value=127, time=58),\n",
       "    Message('note_on', channel=0, note=64, velocity=92, time=289),\n",
       "    Message('note_on', channel=0, note=52, velocity=81, time=1),\n",
       "    Message('control_change', channel=0, control=64, value=0, time=22),\n",
       "    Message('note_on', channel=0, note=48, velocity=0, time=42),\n",
       "    Message('note_on', channel=0, note=60, velocity=0, time=7),\n",
       "    Message('control_change', channel=0, control=64, value=127, time=100),\n",
       "    Message('note_on', channel=0, note=52, velocity=0, time=146),\n",
       "    Message('note_on', channel=0, note=79, velocity=79, time=4),\n",
       "    Message('note_on', channel=0, note=55, velocity=77, time=0),\n",
       "    Message('note_on', channel=0, note=67, velocity=86, time=0),\n",
       "    Message('note_on', channel=0, note=52, velocity=66, time=1),\n",
       "    Message('note_on', channel=0, note=79, velocity=0, time=33),\n",
       "    Message('note_on', channel=0, note=52, velocity=0, time=5),\n",
       "    Message('control_change', channel=0, control=64, value=0, time=6),\n",
       "    Message('note_on', channel=0, note=64, velocity=0, time=36),\n",
       "    Message('note_on', channel=0, note=55, velocity=0, time=97),\n",
       "    Message('note_on', channel=0, note=67, velocity=0, time=13),\n",
       "    Message('note_on', channel=0, note=64, velocity=88, time=159),\n",
       "    Message('note_on', channel=0, note=76, velocity=79, time=0),\n",
       "    Message('note_on', channel=0, note=55, velocity=82, time=2),\n",
       "    Message('note_on', channel=0, note=52, velocity=77, time=0),\n",
       "    Message('note_on', channel=0, note=67, velocity=86, time=1),\n",
       "    Message('note_on', channel=0, note=60, velocity=81, time=0),\n",
       "    Message('note_on', channel=0, note=48, velocity=77, time=1),\n",
       "    Message('control_change', channel=0, control=64, value=127, time=95),\n",
       "    Message('note_on', channel=0, note=52, velocity=0, time=645),\n",
       "    Message('note_on', channel=0, note=48, velocity=0, time=8),\n",
       "    Message('note_on', channel=0, note=52, velocity=26, time=3),\n",
       "    Message('note_on', channel=0, note=48, velocity=38, time=3),\n",
       "    Message('note_on', channel=0, note=52, velocity=0, time=46),\n",
       "    Message('note_on', channel=0, note=60, velocity=0, time=1),\n",
       "    Message('control_change', channel=0, control=64, value=0, time=1),\n",
       "    Message('note_on', channel=0, note=48, velocity=0, time=0),\n",
       "    Message('note_on', channel=0, note=64, velocity=0, time=1),\n",
       "    Message('note_on', channel=0, note=55, velocity=0, time=1),\n",
       "    Message('note_on', channel=0, note=76, velocity=0, time=5),\n",
       "    Message('note_on', channel=0, note=67, velocity=0, time=16),\n",
       "    Message('note_on', channel=0, note=50, velocity=76, time=159),\n",
       "    Message('note_on', channel=0, note=62, velocity=84, time=0),\n",
       "    Message('note_on', channel=0, note=53, velocity=76, time=328),\n",
       "    Message('note_on', channel=0, note=72, velocity=68, time=0),\n",
       "    Message('note_on', channel=0, note=77, velocity=83, time=1),\n",
       "    Message('note_on', channel=0, note=65, velocity=83, time=3),\n",
       "    Message('note_on', channel=0, note=50, velocity=0, time=97),\n",
       "    Message('note_on', channel=0, note=62, velocity=0, time=3),\n",
       "    Message('control_change', channel=0, control=64, value=127, time=184),\n",
       "    Message('note_on', channel=0, note=81, velocity=74, time=41),\n",
       "    Message('note_on', channel=0, note=57, velocity=69, time=3),\n",
       "    Message('note_on', channel=0, note=69, velocity=76, time=1),\n",
       "    Message('note_on', channel=0, note=72, velocity=0, time=63),\n",
       "    Message('control_change', channel=0, control=64, value=0, time=8),\n",
       "    Message('note_on', channel=0, note=53, velocity=0, time=5),\n",
       "    Message('note_on', channel=0, note=77, velocity=0, time=48),\n",
       "    Message('note_on', channel=0, note=65, velocity=0, time=5),\n",
       "    Message('note_on', channel=0, note=69, velocity=0, time=0),\n",
       "    Message('note_on', channel=0, note=81, velocity=0, time=3),\n",
       "    Message('note_on', channel=0, note=57, velocity=0, time=2),\n",
       "    Message('note_on', channel=0, note=65, velocity=79, time=210),\n",
       "    Message('note_on', channel=0, note=57, velocity=79, time=0),\n",
       "    Message('note_on', channel=0, note=62, velocity=80, time=1),\n",
       "    Message('note_on', channel=0, note=53, velocity=73, time=0),\n",
       "    Message('note_on', channel=0, note=69, velocity=80, time=1),\n",
       "    Message('note_on', channel=0, note=50, velocity=76, time=1),\n",
       "    Message('note_on', channel=0, note=77, velocity=78, time=0),\n",
       "    Message('note_on', channel=0, note=74, velocity=77, time=3),\n",
       "    Message('control_change', channel=0, control=64, value=127, time=450),\n",
       "    Message('note_on', channel=0, note=77, velocity=0, time=100),\n",
       "    Message('note_on', channel=0, note=62, velocity=0, time=184),\n",
       "    Message('note_on', channel=0, note=65, velocity=0, time=0),\n",
       "    Message('control_change', channel=0, control=64, value=0, time=1),\n",
       "    Message('note_on', channel=0, note=65, velocity=44, time=4),\n",
       "    Message('note_on', channel=0, note=62, velocity=44, time=0),\n",
       "    Message('note_on', channel=0, note=50, velocity=0, time=7),\n",
       "    Message('note_on', channel=0, note=69, velocity=0, time=2),\n",
       "    Message('note_on', channel=0, note=53, velocity=0, time=1),\n",
       "    Message('note_on', channel=0, note=57, velocity=0, time=1),\n",
       "    Message('note_on', channel=0, note=74, velocity=0, time=7),\n",
       "    Message('note_on', channel=0, note=62, velocity=0, time=31),\n",
       "    Message('note_on', channel=0, note=65, velocity=0, time=1),\n",
       "    Message('note_on', channel=0, note=64, velocity=81, time=171),\n",
       "    Message('note_on', channel=0, note=52, velocity=74, time=6),\n",
       "    Message('control_change', channel=0, control=64, value=127, time=152),\n",
       "    Message('control_change', channel=0, control=64, value=0, time=156),\n",
       "    Message('note_on', channel=0, note=55, velocity=80, time=2),\n",
       "    Message('note_on', channel=0, note=79, velocity=80, time=1),\n",
       "    Message('note_on', channel=0, note=67, velocity=87, time=1),\n",
       "    Message('note_on', channel=0, note=64, velocity=0, time=77),\n",
       "    Message('note_on', channel=0, note=52, velocity=0, time=9),\n",
       "    Message('note_on', channel=0, note=79, velocity=0, time=100),\n",
       "    Message('control_change', channel=0, control=64, value=127, time=108),\n",
       "    Message('note_on', channel=0, note=59, velocity=74, time=5),\n",
       "    Message('note_on', channel=0, note=71, velocity=71, time=7),\n",
       "    Message('control_change', channel=0, control=64, value=0, time=95),\n",
       "    Message('note_on', channel=0, note=67, velocity=0, time=4),\n",
       "    Message('note_on', channel=0, note=55, velocity=0, time=2),\n",
       "    Message('note_on', channel=0, note=59, velocity=0, time=38),\n",
       "    Message('note_on', channel=0, note=71, velocity=0, time=6),\n",
       "    Message('note_on', channel=0, note=76, velocity=80, time=191),\n",
       "    Message('note_on', channel=0, note=55, velocity=77, time=1),\n",
       "    Message('note_on', channel=0, note=67, velocity=82, time=0),\n",
       "    Message('note_on', channel=0, note=71, velocity=85, time=0),\n",
       "    Message('note_on', channel=0, note=64, velocity=79, time=0),\n",
       "    Message('note_on', channel=0, note=52, velocity=76, time=0),\n",
       "    Message('note_on', channel=0, note=59, velocity=82, time=0),\n",
       "    Message('control_change', channel=0, control=64, value=127, time=204),\n",
       "    Message('note_on', channel=0, note=52, velocity=0, time=555),\n",
       "    Message('note_on', channel=0, note=64, velocity=0, time=1),\n",
       "    Message('control_change', channel=0, control=64, value=0, time=2),\n",
       "    Message('note_on', channel=0, note=59, velocity=0, time=2),\n",
       "    Message('note_on', channel=0, note=71, velocity=0, time=0),\n",
       "    Message('note_on', channel=0, note=55, velocity=0, time=3),\n",
       "    Message('note_on', channel=0, note=67, velocity=0, time=1),\n",
       "    Message('note_on', channel=0, note=76, velocity=0, time=12),\n",
       "    Message('note_on', channel=0, note=65, velocity=84, time=160),\n",
       "    Message('note_on', channel=0, note=53, velocity=80, time=0),\n",
       "    Message('control_change', channel=0, control=64, value=127, time=32),\n",
       "    Message('note_on', channel=0, note=53, velocity=0, time=276),\n",
       "    Message('note_on', channel=0, note=81, velocity=81, time=5),\n",
       "    Message('note_on', channel=0, note=53, velocity=60, time=3),\n",
       "    Message('note_on', channel=0, note=57, velocity=72, time=2),\n",
       "    Message('note_on', channel=0, note=69, velocity=84, time=1),\n",
       "    Message('control_change', channel=0, control=64, value=0, time=23),\n",
       "    Message('note_on', channel=0, note=53, velocity=0, time=85),\n",
       "    Message('note_on', channel=0, note=65, velocity=0, time=0),\n",
       "    Message('control_change', channel=0, control=64, value=127, time=196),\n",
       "    Message('note_on', channel=0, note=72, velocity=78, time=12),\n",
       "    Message('note_on', channel=0, note=60, velocity=67, time=3),\n",
       "    Message('note_on', channel=0, note=69, velocity=0, time=72),\n",
       "    Message('note_on', channel=0, note=81, velocity=0, time=5),\n",
       "    Message('note_on', channel=0, note=57, velocity=0, time=12),\n",
       "    Message('control_change', channel=0, control=64, value=0, time=19),\n",
       "    Message('note_on', channel=0, note=60, velocity=0, time=26),\n",
       "    Message('note_on', channel=0, note=72, velocity=0, time=18),\n",
       "    Message('note_on', channel=0, note=72, velocity=90, time=181),\n",
       "    Message('note_on', channel=0, note=81, velocity=82, time=0),\n",
       "    Message('note_on', channel=0, note=65, velocity=77, time=1),\n",
       "    Message('note_on', channel=0, note=69, velocity=84, time=0),\n",
       "    Message('note_on', channel=0, note=53, velocity=68, time=1),\n",
       "    Message('note_on', channel=0, note=60, velocity=74, time=0),\n",
       "    Message('note_on', channel=0, note=57, velocity=73, time=2),\n",
       "    Message('control_change', channel=0, control=64, value=127, time=124),\n",
       "    Message('note_on', channel=0, note=81, velocity=0, time=553),\n",
       "    Message('control_change', channel=0, control=64, value=0, time=49),\n",
       "    Message('note_on', channel=0, note=69, velocity=0, time=25),\n",
       "    Message('note_on', channel=0, note=60, velocity=0, time=4),\n",
       "    Message('note_on', channel=0, note=57, velocity=0, time=1),\n",
       "    Message('note_on', channel=0, note=72, velocity=0, time=2),\n",
       "    Message('note_on', channel=0, note=53, velocity=0, time=3),\n",
       "    Message('note_on', channel=0, note=65, velocity=0, time=0),\n",
       "    Message('note_on', channel=0, note=67, velocity=89, time=163),\n",
       "    Message('note_on', channel=0, note=79, velocity=80, time=1),\n",
       "    Message('note_on', channel=0, note=55, velocity=77, time=1),\n",
       "    Message('control_change', channel=0, control=64, value=127, time=112),\n",
       "    Message('control_change', channel=0, control=64, value=0, time=153),\n",
       "    Message('note_on', channel=0, note=55, velocity=0, time=31),\n",
       "    Message('note_on', channel=0, note=71, velocity=87, time=5),\n",
       "    Message('note_on', channel=0, note=59, velocity=78, time=0),\n",
       "    Message('note_on', channel=0, note=83, velocity=74, time=1),\n",
       "    Message('note_on', channel=0, note=55, velocity=62, time=1),\n",
       "    Message('control_change', channel=0, control=64, value=127, time=1),\n",
       "    Message('note_on', channel=0, note=83, velocity=0, time=8),\n",
       "    Message('control_change', channel=0, control=64, value=0, time=60),\n",
       "    Message('note_on', channel=0, note=67, velocity=0, time=18),\n",
       "    Message('note_on', channel=0, note=79, velocity=0, time=1),\n",
       "    Message('note_on', channel=0, note=55, velocity=0, time=23),\n",
       "    Message('note_on', channel=0, note=62, velocity=58, time=203),\n",
       "    Message('note_on', channel=0, note=74, velocity=71, time=3),\n",
       "    Message('note_on', channel=0, note=71, velocity=0, time=47),\n",
       "    Message('note_on', channel=0, note=59, velocity=0, time=39),\n",
       "    Message('note_on', channel=0, note=62, velocity=0, time=65),\n",
       "    Message('note_on', channel=0, note=74, velocity=0, time=2),\n",
       "    Message('note_on', channel=0, note=55, velocity=66, time=195),\n",
       "    Message('note_on', channel=0, note=74, velocity=75, time=0),\n",
       "    Message('note_on', channel=0, note=59, velocity=70, time=1),\n",
       "    Message('note_on', channel=0, note=62, velocity=69, time=1),\n",
       "    Message('note_on', channel=0, note=50, velocity=66, time=4),\n",
       "    Message('note_on', channel=0, note=67, velocity=73, time=0),\n",
       "    Message('note_on', channel=0, note=72, velocity=77, time=2),\n",
       "    Message('note_on', channel=0, note=69, velocity=72, time=4),\n",
       "    Message('note_on', channel=0, note=71, velocity=71, time=4),\n",
       "    Message('note_on', channel=0, note=69, velocity=0, time=3),\n",
       "    Message('control_change', channel=0, control=64, value=127, time=85),\n",
       "    Message('note_on', channel=0, note=50, velocity=0, time=107),\n",
       "    Message('note_on', channel=0, note=72, velocity=0, time=54),\n",
       "    Message('note_on', channel=0, note=52, velocity=26, time=460),\n",
       "    Message('note_on', channel=0, note=74, velocity=0, time=1),\n",
       "    Message('note_on', channel=0, note=74, velocity=35, time=7),\n",
       "    Message('note_on', channel=0, note=52, velocity=0, time=1),\n",
       "    Message('note_on', channel=0, note=74, velocity=0, time=41),\n",
       "    Message('note_on', channel=0, note=71, velocity=0, time=0),\n",
       "    Message('note_on', channel=0, note=55, velocity=0, time=1),\n",
       "    Message('note_on', channel=0, note=62, velocity=0, time=0),\n",
       "    Message('control_change', channel=0, control=64, value=0, time=11),\n",
       "    Message('note_on', channel=0, note=59, velocity=0, time=1),\n",
       "    Message('note_on', channel=0, note=67, velocity=0, time=7),\n",
       "    Message('note_on', channel=0, note=81, velocity=82, time=126),\n",
       "    Message('note_on', channel=0, note=69, velocity=89, time=2),\n",
       "    Message('note_on', channel=0, note=57, velocity=77, time=4),\n",
       "    Message('note_on', channel=0, note=72, velocity=90, time=295),\n",
       "    Message('note_on', channel=0, note=60, velocity=73, time=1),\n",
       "    Message('note_on', channel=0, note=81, velocity=0, time=44),\n",
       "    Message('note_on', channel=0, note=57, velocity=0, time=1),\n",
       "    Message('note_on', channel=0, note=69, velocity=0, time=1),\n",
       "    Message('control_change', channel=0, control=64, value=127, time=18),\n",
       "    Message('control_change', channel=0, control=64, value=0, time=81),\n",
       "    Message('note_on', channel=0, note=60, velocity=0, time=157),\n",
       "    Message('note_on', channel=0, note=72, velocity=0, time=7),\n",
       "    Message('note_on', channel=0, note=76, velocity=73, time=2),\n",
       "    Message('note_on', channel=0, note=60, velocity=53, time=2),\n",
       "    Message('note_on', channel=0, note=64, velocity=66, time=3),\n",
       "    Message('note_on', channel=0, note=72, velocity=63, time=4),\n",
       "    Message('control_change', channel=0, control=64, value=127, time=36),\n",
       "    Message('note_on', channel=0, note=60, velocity=0, time=12),\n",
       "    Message('control_change', channel=0, control=64, value=0, time=34),\n",
       "    Message('note_on', channel=0, note=72, velocity=0, time=38),\n",
       "    Message('note_on', channel=0, note=76, velocity=0, time=4),\n",
       "    Message('note_on', channel=0, note=64, velocity=0, time=17),\n",
       "    Message('note_on', channel=0, note=72, velocity=85, time=182),\n",
       "    Message('note_on', channel=0, note=69, velocity=75, time=1),\n",
       "    Message('note_on', channel=0, note=76, velocity=85, time=0),\n",
       "    Message('note_on', channel=0, note=57, velocity=66, time=0),\n",
       "    Message('note_on', channel=0, note=64, velocity=71, time=0),\n",
       "    Message('note_on', channel=0, note=60, velocity=62, time=5),\n",
       "    Message('control_change', channel=0, control=64, value=127, time=236),\n",
       "    Message('note_on', channel=0, note=69, velocity=0, time=515),\n",
       "    Message('note_on', channel=0, note=76, velocity=0, time=1),\n",
       "    Message('note_on', channel=0, note=64, velocity=0, time=1),\n",
       "    Message('note_on', channel=0, note=57, velocity=0, time=1),\n",
       "    Message('note_on', channel=0, note=60, velocity=0, time=2),\n",
       "    Message('note_on', channel=0, note=72, velocity=0, time=0),\n",
       "    Message('control_change', channel=0, control=64, value=0, time=2),\n",
       "    Message('note_on', channel=0, note=59, velocity=76, time=140),\n",
       "    Message('note_on', channel=0, note=71, velocity=84, time=0),\n",
       "    Message('note_on', channel=0, note=74, velocity=85, time=295),\n",
       "    Message('note_on', channel=0, note=62, velocity=71, time=2),\n",
       "    Message('note_on', channel=0, note=71, velocity=0, time=35),\n",
       "    Message('note_on', channel=0, note=59, velocity=0, time=74),\n",
       "    Message('note_on', channel=0, note=77, velocity=85, time=221),\n",
       "    Message('note_on', channel=0, note=65, velocity=61, time=3),\n",
       "    Message('note_on', channel=0, note=74, velocity=0, time=95),\n",
       "    Message('note_on', channel=0, note=62, velocity=0, time=1),\n",
       "    Message('note_on', channel=0, note=65, velocity=0, time=38),\n",
       "    Message('note_on', channel=0, note=77, velocity=0, time=21),\n",
       "    Message('note_on', channel=0, note=77, velocity=84, time=180),\n",
       "    Message('note_on', channel=0, note=65, velocity=74, time=2),\n",
       "    Message('note_on', channel=0, note=59, velocity=75, time=2),\n",
       "    Message('note_on', channel=0, note=71, velocity=86, time=1),\n",
       "    Message('note_on', channel=0, note=74, velocity=79, time=0),\n",
       "    Message('note_on', channel=0, note=62, velocity=73, time=1),\n",
       "    Message('control_change', channel=0, control=64, value=127, time=134),\n",
       "    Message('note_on', channel=0, note=65, velocity=0, time=635),\n",
       "    Message('note_on', channel=0, note=71, velocity=0, time=1),\n",
       "    Message('control_change', channel=0, control=64, value=0, time=1),\n",
       "    Message('note_on', channel=0, note=59, velocity=0, time=2),\n",
       "    Message('note_on', channel=0, note=74, velocity=0, time=1),\n",
       "    Message('note_on', channel=0, note=62, velocity=0, time=0),\n",
       "    Message('note_on', channel=0, note=77, velocity=0, time=1),\n",
       "    Message('note_on', channel=0, note=72, velocity=94, time=160),\n",
       "    Message('note_on', channel=0, note=60, velocity=77, time=8),\n",
       "    Message('note_on', channel=0, note=60, velocity=0, time=297),\n",
       "    Message('note_on', channel=0, note=64, velocity=73, time=4),\n",
       "    Message('note_on', channel=0, note=76, velocity=86, time=0),\n",
       "    Message('note_on', channel=0, note=60, velocity=62, time=1),\n",
       "    Message('note_on', channel=0, note=72, velocity=0, time=85),\n",
       "    Message('note_on', channel=0, note=60, velocity=0, time=4),\n",
       "    Message('note_on', channel=0, note=76, velocity=0, time=205),\n",
       "    Message('note_on', channel=0, note=79, velocity=80, time=6),\n",
       "    Message('note_on', channel=0, note=67, velocity=63, time=4),\n",
       "    Message('note_on', channel=0, note=76, velocity=64, time=0),\n",
       "    Message('note_on', channel=0, note=76, velocity=0, time=67),\n",
       "    Message('note_on', channel=0, note=64, velocity=0, time=3),\n",
       "    Message('note_on', channel=0, note=67, velocity=0, time=55),\n",
       "    Message('note_on', channel=0, note=79, velocity=0, time=11),\n",
       "    Message('note_on', channel=0, note=79, velocity=84, time=197),\n",
       "    Message('note_on', channel=0, note=76, velocity=84, time=2),\n",
       "    Message('note_on', channel=0, note=60, velocity=71, time=1),\n",
       "    Message('note_on', channel=0, note=72, velocity=83, time=2),\n",
       "    Message('note_on', channel=0, note=67, velocity=72, time=1),\n",
       "    Message('note_on', channel=0, note=52, velocity=60, time=2),\n",
       "    Message('control_change', channel=0, control=64, value=127, time=49),\n",
       "    Message('note_on', channel=0, note=52, velocity=0, time=23),\n",
       "    Message('note_on', channel=0, note=60, velocity=0, time=856),\n",
       "    Message('control_change', channel=0, control=64, value=0, time=3),\n",
       "    Message('note_on', channel=0, note=72, velocity=0, time=4),\n",
       "    Message('note_on', channel=0, note=79, velocity=0, time=2),\n",
       "    Message('note_on', channel=0, note=76, velocity=0, time=6),\n",
       "    Message('note_on', channel=0, note=67, velocity=0, time=4),\n",
       "    Message('note_on', channel=0, note=48, velocity=74, time=1923),\n",
       "    Message('note_on', channel=0, note=52, velocity=81, time=307),\n",
       "    Message('note_on', channel=0, note=48, velocity=0, time=67),\n",
       "    Message('note_on', channel=0, note=55, velocity=77, time=236),\n",
       "    Message('note_on', channel=0, note=52, velocity=0, time=82),\n",
       "    Message('note_on', channel=0, note=72, velocity=78, time=210),\n",
       "    Message('note_on', channel=0, note=60, velocity=83, time=1),\n",
       "    Message('note_on', channel=0, note=55, velocity=0, time=43),\n",
       "    Message('note_on', channel=0, note=72, velocity=0, time=73),\n",
       "    Message('note_on', channel=0, note=64, velocity=91, time=179),\n",
       "    Message('note_on', channel=0, note=76, velocity=78, time=1),\n",
       "    Message('note_on', channel=0, note=60, velocity=0, time=85),\n",
       "    Message('note_on', channel=0, note=79, velocity=80, time=216),\n",
       "    Message('note_on', channel=0, note=67, velocity=88, time=1),\n",
       "    Message('note_on', channel=0, note=76, velocity=0, time=1),\n",
       "    Message('note_on', channel=0, note=79, velocity=0, time=54),\n",
       "    Message('note_on', channel=0, note=64, velocity=0, time=43),\n",
       "    Message('note_on', channel=0, note=48, velocity=74, time=201),\n",
       "    Message('note_on', channel=0, note=55, velocity=77, time=0),\n",
       "    Message('note_on', channel=0, note=52, velocity=76, time=0),\n",
       "    Message('control_change', channel=0, control=64, value=127, time=156),\n",
       "    Message('note_on', channel=0, note=52, velocity=0, time=737),\n",
       "    Message('note_on', channel=0, note=67, velocity=0, time=0),\n",
       "    Message('note_on', channel=0, note=79, velocity=79, time=3),\n",
       "    Message('note_on', channel=0, note=76, velocity=80, time=1),\n",
       "    Message('note_on', channel=0, note=72, velocity=74, time=0),\n",
       "    Message('note_on', channel=0, note=67, velocity=84, time=1),\n",
       "    Message('note_on', channel=0, note=64, velocity=81, time=0),\n",
       "    Message('note_on', channel=0, note=60, velocity=79, time=1),\n",
       "    Message('note_on', channel=0, note=52, velocity=62, time=1),\n",
       "    Message('note_on', channel=0, note=55, velocity=0, time=54),\n",
       "    Message('control_change', channel=0, control=64, value=0, time=21),\n",
       "    Message('note_on', channel=0, note=48, velocity=0, time=2),\n",
       "    Message('note_on', channel=0, note=72, velocity=0, time=139),\n",
       "    Message('note_on', channel=0, note=79, velocity=0, time=7),\n",
       "    Message('note_on', channel=0, note=52, velocity=0, time=16),\n",
       "    Message('control_change', channel=0, control=64, value=127, time=15),\n",
       "    Message('note_on', channel=0, note=53, velocity=87, time=621),\n",
       "    Message('note_on', channel=0, note=76, velocity=0, time=93),\n",
       "    Message('control_change', channel=0, control=64, value=0, time=6),\n",
       "    Message('note_on', channel=0, note=60, velocity=0, time=2),\n",
       "    Message('note_on', channel=0, note=64, velocity=0, time=8),\n",
       "    Message('note_on', channel=0, note=67, velocity=0, time=15),\n",
       "    Message('note_on', channel=0, note=57, velocity=75, time=166),\n",
       "    Message('note_on', channel=0, note=53, velocity=0, time=107),\n",
       "    Message('note_on', channel=0, note=72, velocity=73, time=177),\n",
       "    Message('note_on', channel=0, note=60, velocity=75, time=1),\n",
       "    Message('note_on', channel=0, note=57, velocity=0, time=122),\n",
       "    Message('control_change', channel=0, control=64, value=127, time=11),\n",
       "    Message('control_change', channel=0, control=64, value=0, time=153),\n",
       "    Message('note_on', channel=0, note=65, velocity=87, time=6),\n",
       "    Message('note_on', channel=0, note=77, velocity=78, time=1),\n",
       "    Message('note_on', channel=0, note=60, velocity=0, time=75),\n",
       "    Message('note_on', channel=0, note=72, velocity=0, time=33),\n",
       "    Message('note_on', channel=0, note=81, velocity=81, time=185),\n",
       "    Message('note_on', channel=0, note=69, velocity=87, time=3),\n",
       "    Message('note_on', channel=0, note=65, velocity=0, time=82),\n",
       "    Message('note_on', channel=0, note=77, velocity=0, time=38),\n",
       "    Message('note_on', channel=0, note=72, velocity=95, time=174),\n",
       "    Message('note_on', channel=0, note=81, velocity=0, time=25),\n",
       "    Message('note_on', channel=0, note=69, velocity=0, time=8),\n",
       "    Message('note_on', channel=0, note=72, velocity=0, time=253),\n",
       "    Message('note_on', channel=0, note=53, velocity=70, time=5),\n",
       "    Message('note_on', channel=0, note=72, velocity=73, time=0),\n",
       "    Message('note_on', channel=0, note=65, velocity=60, time=1),\n",
       "    Message('note_on', channel=0, note=60, velocity=74, time=2),\n",
       "    Message('note_on', channel=0, note=57, velocity=68, time=8),\n",
       "    Message('control_change', channel=0, control=64, value=127, time=215),\n",
       "    Message('note_on', channel=0, note=60, velocity=0, time=645),\n",
       "    Message('note_on', channel=0, note=65, velocity=0, time=0),\n",
       "    Message('note_on', channel=0, note=72, velocity=0, time=0),\n",
       "    Message('note_on', channel=0, note=72, velocity=86, time=4),\n",
       "    Message('note_on', channel=0, note=60, velocity=55, time=1),\n",
       "    Message('note_on', channel=0, note=69, velocity=80, time=2),\n",
       "    Message('note_on', channel=0, note=65, velocity=72, time=0),\n",
       "    Message('control_change', channel=0, control=64, value=0, time=87),\n",
       "    Message('control_change', channel=0, control=64, value=127, time=267),\n",
       "    Message('note_on', channel=0, note=60, velocity=0, time=207),\n",
       "    Message('note_on', channel=0, note=53, velocity=0, time=246),\n",
       "    Message('note_on', channel=0, note=55, velocity=79, time=33),\n",
       "    Message('note_on', channel=0, note=57, velocity=0, time=59),\n",
       "    Message('control_change', channel=0, control=64, value=0, time=29),\n",
       "    Message('note_on', channel=0, note=65, velocity=0, time=6),\n",
       "    Message('note_on', channel=0, note=72, velocity=0, time=5),\n",
       "    Message('note_on', channel=0, note=69, velocity=0, time=3),\n",
       "    Message('note_on', channel=0, note=59, velocity=83, time=184),\n",
       "    Message('note_on', channel=0, note=55, velocity=0, time=161),\n",
       "    Message('note_on', channel=0, note=62, velocity=69, time=114),\n",
       "    Message('note_on', channel=0, note=59, velocity=0, time=110),\n",
       "    Message('note_on', channel=0, note=79, velocity=74, time=167),\n",
       "    Message('note_on', channel=0, note=67, velocity=83, time=1),\n",
       "    Message('note_on', channel=0, note=79, velocity=0, time=119),\n",
       "    Message('note_on', channel=0, note=62, velocity=0, time=7),\n",
       "    Message('note_on', channel=0, note=71, velocity=93, time=157),\n",
       "    Message('note_on', channel=0, note=67, velocity=0, time=84),\n",
       "    Message('note_on', channel=0, note=74, velocity=93, time=193),\n",
       "    Message('note_on', channel=0, note=71, velocity=0, time=100),\n",
       "    Message('note_on', channel=0, note=62, velocity=71, time=197),\n",
       "    Message('note_on', channel=0, note=55, velocity=69, time=1),\n",
       "    Message('note_on', channel=0, note=59, velocity=76, time=0),\n",
       "    Message('control_change', channel=0, control=64, value=127, time=205),\n",
       "    Message('note_on', channel=0, note=62, velocity=0, time=631),\n",
       "    Message('note_on', channel=0, note=55, velocity=0, time=1),\n",
       "    Message('note_on', channel=0, note=59, velocity=0, time=1),\n",
       "    Message('note_on', channel=0, note=74, velocity=0, time=5),\n",
       "    Message('control_change', channel=0, control=64, value=0, time=10),\n",
       "    Message('note_on', channel=0, note=79, velocity=82, time=20),\n",
       "    Message('note_on', channel=0, note=74, velocity=86, time=2),\n",
       "    Message('note_on', channel=0, note=71, velocity=85, time=1),\n",
       "    Message('note_on', channel=0, note=67, velocity=86, time=0),\n",
       "    Message('control_change', channel=0, control=64, value=127, time=128),\n",
       "    Message('note_on', channel=0, note=48, velocity=77, time=699),\n",
       "    Message('note_on', channel=0, note=79, velocity=0, time=61),\n",
       "    Message('control_change', channel=0, control=64, value=0, time=49),\n",
       "    Message('note_on', channel=0, note=74, velocity=0, time=1),\n",
       "    Message('note_on', channel=0, note=71, velocity=0, time=27),\n",
       "    Message('note_on', channel=0, note=67, velocity=0, time=8),\n",
       "    Message('note_on', channel=0, note=52, velocity=78, time=148),\n",
       "    Message('note_on', channel=0, note=48, velocity=0, time=110),\n",
       "    Message('note_on', channel=0, note=55, velocity=74, time=177),\n",
       "    Message('note_on', channel=0, note=52, velocity=0, time=80),\n",
       "    Message('note_on', channel=0, note=72, velocity=75, time=211),\n",
       "    Message('note_on', channel=0, note=60, velocity=82, time=0),\n",
       "    Message('note_on', channel=0, note=55, velocity=0, time=62),\n",
       "    Message('control_change', channel=0, control=64, value=127, time=80),\n",
       "    Message('control_change', channel=0, control=64, value=0, time=7),\n",
       "    Message('note_on', channel=0, note=64, velocity=93, time=143),\n",
       "    Message('note_on', channel=0, note=76, velocity=79, time=0),\n",
       "    Message('note_on', channel=0, note=60, velocity=0, time=92),\n",
       "    Message('note_on', channel=0, note=72, velocity=0, time=2),\n",
       "    Message('note_on', channel=0, note=79, velocity=78, time=191),\n",
       "    Message('note_on', channel=0, note=67, velocity=87, time=0),\n",
       "    Message('note_on', channel=0, note=76, velocity=0, time=26),\n",
       "    Message('note_on', channel=0, note=79, velocity=0, time=0),\n",
       "    Message('note_on', channel=0, note=64, velocity=0, time=9),\n",
       "    Message('note_on', channel=0, note=67, velocity=0, time=252),\n",
       "    Message('note_on', channel=0, note=72, velocity=77, time=2),\n",
       "    Message('note_on', channel=0, note=60, velocity=77, time=2),\n",
       "    Message('note_on', channel=0, note=67, velocity=69, time=3),\n",
       "    Message('note_on', channel=0, note=52, velocity=73, time=3),\n",
       "    Message('note_on', channel=0, note=48, velocity=70, time=2),\n",
       "    Message('note_on', channel=0, note=55, velocity=71, time=1),\n",
       "    Message('control_change', channel=0, control=64, value=127, time=140),\n",
       "    Message('control_change', channel=0, control=64, value=0, time=1544),\n",
       "    Message('note_on', channel=0, note=48, velocity=0, time=3),\n",
       "    Message('note_on', channel=0, note=67, velocity=0, time=2),\n",
       "    Message('note_on', channel=0, note=55, velocity=0, time=2),\n",
       "    Message('note_on', channel=0, note=52, velocity=0, time=5),\n",
       "    Message('note_on', channel=0, note=72, velocity=0, time=34),\n",
       "    Message('note_on', channel=0, note=60, velocity=0, time=10),\n",
       "    Message('note_on', channel=0, note=79, velocity=76, time=3718),\n",
       "    Message('note_on', channel=0, note=67, velocity=82, time=3),\n",
       "    Message('note_on', channel=0, note=79, velocity=0, time=2),\n",
       "    Message('note_on', channel=0, note=59, velocity=75, time=3),\n",
       "    Message('note_on', channel=0, note=71, velocity=71, time=1),\n",
       "    Message('note_on', channel=0, note=62, velocity=61, time=599),\n",
       "    Message('note_on', channel=0, note=59, velocity=0, time=155),\n",
       "    Message('note_on', channel=0, note=71, velocity=0, time=79),\n",
       "    Message('note_on', channel=0, note=69, velocity=77, time=16),\n",
       "    Message('note_on', channel=0, note=67, velocity=0, time=124),\n",
       "    Message('note_on', channel=0, note=71, velocity=80, time=164),\n",
       "    Message('note_on', channel=0, note=55, velocity=54, time=6),\n",
       "    Message('note_on', channel=0, note=69, velocity=0, time=123),\n",
       "    Message('note_on', channel=0, note=62, velocity=0, time=16),\n",
       "    Message('note_on', channel=0, note=62, velocity=47, time=430),\n",
       "    Message('note_on', channel=0, note=55, velocity=0, time=31),\n",
       "    Message('control_change', channel=0, control=64, value=127, time=134),\n",
       "    Message('note_on', channel=0, note=81, velocity=70, time=331),\n",
       "    Message('note_on', channel=0, note=69, velocity=76, time=3),\n",
       "    Message('note_on', channel=0, note=81, velocity=0, time=4),\n",
       "    Message('note_on', channel=0, note=60, velocity=65, time=3),\n",
       "    Message('control_change', channel=0, control=64, value=0, time=11),\n",
       "    Message('note_on', channel=0, note=71, velocity=0, time=17),\n",
       "    Message('note_on', channel=0, note=62, velocity=0, time=2),\n",
       "    Message('note_on', channel=0, note=60, velocity=0, time=489),\n",
       "    Message('note_on', channel=0, note=62, velocity=54, time=5),\n",
       "    Message('note_on', channel=0, note=60, velocity=45, time=0),\n",
       "    Message('note_on', channel=0, note=60, velocity=0, time=66),\n",
       "    Message('note_on', channel=0, note=71, velocity=78, time=181),\n",
       "    Message('control_change', channel=0, control=64, value=127, time=32),\n",
       "    Message('note_on', channel=0, note=69, velocity=0, time=97),\n",
       "    Message('note_on', channel=0, note=72, velocity=81, time=154),\n",
       "    Message('note_on', channel=0, note=57, velocity=53, time=6),\n",
       "    Message('control_change', channel=0, control=64, value=0, time=66),\n",
       "    Message('note_on', channel=0, note=62, velocity=0, time=59),\n",
       "    Message('note_on', channel=0, note=71, velocity=0, time=16),\n",
       "    Message('note_on', channel=0, note=62, velocity=42, time=412),\n",
       "    Message('note_on', channel=0, note=57, velocity=0, time=71),\n",
       "    Message('control_change', channel=0, control=64, value=127, time=118),\n",
       "    Message('control_change', channel=0, control=64, value=0, time=281),\n",
       "    Message('note_on', channel=0, note=55, velocity=57, time=2),\n",
       "    Message('note_on', channel=0, note=71, velocity=78, time=7),\n",
       "    Message('note_on', channel=0, note=72, velocity=0, time=22),\n",
       "    Message('control_change', channel=0, control=64, value=127, time=195),\n",
       "    Message('note_on', channel=0, note=62, velocity=0, time=77),\n",
       "    Message('note_on', channel=0, note=62, velocity=53, time=243),\n",
       "    Message('control_change', channel=0, control=64, value=0, time=71),\n",
       "    Message('note_on', channel=0, note=69, velocity=68, time=147),\n",
       "    Message('note_on', channel=0, note=71, velocity=0, time=142),\n",
       "    Message('note_on', channel=0, note=67, velocity=73, time=139),\n",
       "    Message('note_on', channel=0, note=59, velocity=49, time=45),\n",
       "    Message('note_on', channel=0, note=69, velocity=0, time=39),\n",
       "    Message('note_on', channel=0, note=62, velocity=0, time=68),\n",
       "    Message('note_on', channel=0, note=55, velocity=0, time=119),\n",
       "    Message('control_change', channel=0, control=64, value=127, time=39),\n",
       "    Message('note_on', channel=0, note=59, velocity=0, time=215),\n",
       "    Message('note_on', channel=0, note=59, velocity=51, time=5),\n",
       "    Message('note_on', channel=0, note=71, velocity=67, time=2),\n",
       "    Message('note_on', channel=0, note=62, velocity=57, time=4),\n",
       "    Message('control_change', channel=0, control=64, value=0, time=10),\n",
       "    Message('note_on', channel=0, note=67, velocity=0, time=76),\n",
       "    Message('control_change', channel=0, control=64, value=127, time=164),\n",
       "    Message('note_on', channel=0, note=59, velocity=0, time=107),\n",
       "    Message('note_on', channel=0, note=69, velocity=66, time=149),\n",
       "    Message('note_on', channel=0, note=60, velocity=58, time=26),\n",
       "    Message('note_on', channel=0, note=71, velocity=0, time=29),\n",
       "    Message('control_change', channel=0, control=64, value=0, time=4),\n",
       "    Message('note_on', channel=0, note=62, velocity=0, time=90),\n",
       "    Message('control_change', channel=0, control=64, value=127, time=140),\n",
       "    Message('control_change', channel=0, control=64, value=0, time=242),\n",
       "    Message('note_on', channel=0, note=60, velocity=0, time=12),\n",
       "    Message('note_on', channel=0, note=60, velocity=41, time=5),\n",
       "    Message('note_on', channel=0, note=62, velocity=53, time=0),\n",
       "    Message('note_on', channel=0, note=60, velocity=0, time=108),\n",
       "    Message('control_change', channel=0, control=64, value=127, time=178),\n",
       "    Message('note_on', channel=0, note=74, velocity=74, time=229),\n",
       "    Message('note_on', channel=0, note=60, velocity=32, time=21),\n",
       "    Message('note_on', channel=0, note=57, velocity=47, time=7),\n",
       "    Message('control_change', channel=0, control=64, value=0, time=1),\n",
       "    Message('note_on', channel=0, note=60, velocity=0, time=4),\n",
       "    Message('control_change', channel=0, control=64, value=127, time=69),\n",
       "    Message('note_on', channel=0, note=62, velocity=0, time=64),\n",
       "    Message('control_change', channel=0, control=64, value=0, time=28),\n",
       "    Message('note_on', channel=0, note=69, velocity=0, time=2),\n",
       "    Message('note_on', channel=0, note=48, velocity=25, time=393),\n",
       "    Message('note_on', channel=0, note=62, velocity=47, time=1),\n",
       "    Message('note_on', channel=0, note=48, velocity=0, time=3),\n",
       "    Message('note_on', channel=0, note=57, velocity=0, time=87),\n",
       "    Message('control_change', channel=0, control=64, value=127, time=167),\n",
       "    Message('note_on', channel=0, note=67, velocity=70, time=203),\n",
       "    Message('note_on', channel=0, note=59, velocity=61, time=11),\n",
       "    Message('control_change', channel=0, control=64, value=0, time=10),\n",
       "    Message('note_on', channel=0, note=74, velocity=0, time=106),\n",
       "    Message('note_on', channel=0, note=62, velocity=0, time=6),\n",
       "    Message('control_change', channel=0, control=64, value=127, time=270),\n",
       "    Message('control_change', channel=0, control=64, value=0, time=16),\n",
       "    Message('note_on', channel=0, note=59, velocity=0, time=69),\n",
       "    Message('note_on', channel=0, note=62, velocity=56, time=4),\n",
       "    Message('note_on', channel=0, note=59, velocity=45, time=0),\n",
       "    Message('note_on', channel=0, note=67, velocity=0, time=3),\n",
       "    Message('note_on', channel=0, note=59, velocity=0, time=130),\n",
       "    Message('note_on', channel=0, note=69, velocity=72, time=100),\n",
       "    Message('control_change', channel=0, control=64, value=127, time=116),\n",
       "    Message('control_change', channel=0, control=64, value=0, time=146),\n",
       "    Message('note_on', channel=0, note=71, velocity=76, time=16),\n",
       "    Message('note_on', channel=0, note=55, velocity=44, time=26),\n",
       "    Message('note_on', channel=0, note=69, velocity=0, time=87),\n",
       "    Message('note_on', channel=0, note=62, velocity=0, time=29),\n",
       "    Message('note_on', channel=0, note=62, velocity=47, time=391),\n",
       "    Message('note_on', channel=0, note=55, velocity=0, time=31),\n",
       "    Message('control_change', channel=0, control=64, value=127, time=142),\n",
       "    Message('note_on', channel=0, note=69, velocity=70, time=281),\n",
       "    Message('note_on', channel=0, note=60, velocity=59, time=30),\n",
       "    Message('control_change', channel=0, control=64, value=0, time=67),\n",
       "    Message('note_on', channel=0, note=71, velocity=0, time=11),\n",
       "    Message('note_on', channel=0, note=62, velocity=0, time=3),\n",
       "    Message('note_on', channel=0, note=60, velocity=0, time=407),\n",
       "    Message('note_on', channel=0, note=60, velocity=38, time=11),\n",
       "    Message('note_on', channel=0, note=62, velocity=48, time=1),\n",
       "    Message('note_on', channel=0, note=60, velocity=0, time=123),\n",
       "    Message('note_on', channel=0, note=71, velocity=74, time=105),\n",
       "    Message('control_change', channel=0, control=64, value=127, time=51),\n",
       "    Message('note_on', channel=0, note=69, velocity=0, time=135),\n",
       "    Message('note_on', channel=0, note=72, velocity=79, time=92),\n",
       "    Message('note_on', channel=0, note=57, velocity=45, time=48),\n",
       "    Message('control_change', channel=0, control=64, value=0, time=17),\n",
       "    Message('note_on', channel=0, note=71, velocity=0, time=76),\n",
       "    Message('note_on', channel=0, note=62, velocity=0, time=26),\n",
       "    Message('note_on', channel=0, note=62, velocity=47, time=369),\n",
       "    Message('note_on', channel=0, note=57, velocity=0, time=66),\n",
       "    Message('control_change', channel=0, control=64, value=127, time=93),\n",
       "    Message('note_on', channel=0, note=71, velocity=78, time=302),\n",
       "    Message('note_on', channel=0, note=55, velocity=50, time=25),\n",
       "    Message('note_on', channel=0, note=72, velocity=0, time=80),\n",
       "    Message('control_change', channel=0, control=64, value=0, time=2),\n",
       "    Message('note_on', channel=0, note=62, velocity=0, time=2),\n",
       "    Message('control_change', channel=0, control=64, value=127, time=96),\n",
       "    Message('note_on', channel=0, note=62, velocity=51, time=295),\n",
       "    Message('control_change', channel=0, control=64, value=0, time=41),\n",
       "    Message('note_on', channel=0, note=55, velocity=0, time=63),\n",
       "    Message('note_on', channel=0, note=69, velocity=61, time=130),\n",
       "    Message('note_on', channel=0, note=71, velocity=0, time=126),\n",
       "    Message('note_on', channel=0, note=67, velocity=76, time=127),\n",
       "    Message('note_on', channel=0, note=59, velocity=57, time=35),\n",
       "    Message('note_on', channel=0, note=69, velocity=0, time=64),\n",
       "    Message('note_on', channel=0, note=62, velocity=0, time=34),\n",
       "    Message('control_change', channel=0, control=64, value=127, time=122),\n",
       "    Message('note_on', channel=0, note=71, velocity=74, time=217),\n",
       "    Message('note_on', channel=0, note=59, velocity=0, time=21),\n",
       "    Message('note_on', channel=0, note=59, velocity=46, time=4),\n",
       "    Message('note_on', channel=0, note=62, velocity=56, time=1),\n",
       "    Message('note_on', channel=0, note=67, velocity=0, time=53),\n",
       "    Message('note_on', channel=0, note=59, velocity=0, time=6),\n",
       "    Message('control_change', channel=0, control=64, value=0, time=1),\n",
       "    Message('control_change', channel=0, control=64, value=127, time=88),\n",
       "    Message('note_on', channel=0, note=69, velocity=73, time=308),\n",
       "    Message('note_on', channel=0, note=60, velocity=62, time=34),\n",
       "    Message('control_change', channel=0, control=64, value=0, time=58),\n",
       "    Message('note_on', channel=0, note=71, velocity=0, time=24),\n",
       "    Message('note_on', channel=0, note=62, velocity=0, time=30),\n",
       "    Message('control_change', channel=0, control=64, value=127, time=61),\n",
       "    Message('note_on', channel=0, note=60, velocity=0, time=338),\n",
       "    Message('note_on', channel=0, note=62, velocity=45, time=3),\n",
       "    Message('note_on', channel=0, note=60, velocity=36, time=1),\n",
       "    Message('control_change', channel=0, control=64, value=0, time=11),\n",
       "    Message('note_on', channel=0, note=60, velocity=0, time=44),\n",
       "    Message('control_change', channel=0, control=64, value=127, time=133),\n",
       "    Message('note_on', channel=0, note=67, velocity=59, time=299),\n",
       "    Message('note_on', channel=0, note=59, velocity=45, time=26),\n",
       "    Message('control_change', channel=0, control=64, value=0, time=113),\n",
       "    Message('note_on', channel=0, note=69, velocity=0, time=25),\n",
       "    Message('note_on', channel=0, note=62, velocity=0, time=78),\n",
       "    Message('control_change', channel=0, control=64, value=127, time=680),\n",
       "    Message('control_change', channel=0, control=64, value=0, time=18),\n",
       "    Message('note_on', channel=0, note=59, velocity=0, time=2),\n",
       "    Message('note_on', channel=0, note=67, velocity=0, time=0),\n",
       "    Message('note_on', channel=0, note=48, velocity=76, time=4906),\n",
       "    Message('note_on', channel=0, note=52, velocity=77, time=320),\n",
       "    Message('note_on', channel=0, note=48, velocity=0, time=90),\n",
       "    Message('note_on', channel=0, note=55, velocity=79, time=210),\n",
       "    Message('note_on', channel=0, note=52, velocity=0, time=64),\n",
       "    Message('note_on', channel=0, note=60, velocity=83, time=229),\n",
       "    Message('note_on', channel=0, note=55, velocity=0, time=53),\n",
       "    Message('note_on', channel=0, note=64, velocity=92, time=243),\n",
       "    Message('note_on', channel=0, note=76, velocity=79, time=2),\n",
       "    Message('note_on', channel=0, note=60, velocity=0, time=84),\n",
       "    Message('note_on', channel=0, note=76, velocity=0, time=169),\n",
       "    Message('note_on', channel=0, note=79, velocity=81, time=29),\n",
       "    Message('note_on', channel=0, note=67, velocity=89, time=1),\n",
       "    Message('note_on', channel=0, note=79, velocity=0, time=39),\n",
       "    Message('note_on', channel=0, note=64, velocity=0, time=30),\n",
       "    Message('note_on', channel=0, note=52, velocity=78, time=242),\n",
       "    Message('note_on', channel=0, note=55, velocity=78, time=0),\n",
       "    Message('note_on', channel=0, note=48, velocity=76, time=0),\n",
       "    Message('control_change', channel=0, control=64, value=127, time=181),\n",
       "    Message('note_on', channel=0, note=52, velocity=0, time=707),\n",
       "    Message('note_on', channel=0, note=67, velocity=0, time=7),\n",
       "    Message('note_on', channel=0, note=52, velocity=64, time=4),\n",
       "    Message('note_on', channel=0, note=67, velocity=85, time=1),\n",
       "    Message('note_on', channel=0, note=64, velocity=84, time=1),\n",
       "    Message('note_on', channel=0, note=60, velocity=78, time=1),\n",
       "    Message('control_change', channel=0, control=64, value=0, time=17),\n",
       "    Message('note_on', channel=0, note=48, velocity=0, time=13),\n",
       "    Message('note_on', channel=0, note=55, velocity=0, time=7),\n",
       "    Message('note_on', channel=0, note=52, velocity=0, time=141),\n",
       "    Message('control_change', channel=0, control=64, value=127, time=107),\n",
       "    Message('note_on', channel=0, note=48, velocity=79, time=654),\n",
       "    Message('control_change', channel=0, control=64, value=0, time=84),\n",
       "    Message('note_on', channel=0, note=60, velocity=0, time=14),\n",
       "    Message('note_on', channel=0, note=64, velocity=0, time=1),\n",
       "    Message('note_on', channel=0, note=67, velocity=0, time=15),\n",
       "    Message('note_on', channel=0, note=53, velocity=80, time=185),\n",
       "    Message('note_on', channel=0, note=48, velocity=0, time=57),\n",
       "    Message('note_on', channel=0, note=57, velocity=70, time=241),\n",
       "    Message('note_on', channel=0, note=53, velocity=0, time=79),\n",
       "    Message('note_on', channel=0, note=60, velocity=78, time=205),\n",
       "    Message('note_on', channel=0, note=57, velocity=0, time=78),\n",
       "    Message('control_change', channel=0, control=64, value=127, time=61),\n",
       "    Message('note_on', channel=0, note=65, velocity=85, time=159),\n",
       "    Message('control_change', channel=0, control=64, value=0, time=26),\n",
       "    Message('note_on', channel=0, note=60, velocity=0, time=2),\n",
       "    Message('note_on', channel=0, note=81, velocity=82, time=247),\n",
       "    Message('note_on', channel=0, note=69, velocity=86, time=1),\n",
       "    Message('note_on', channel=0, note=65, velocity=0, time=91),\n",
       "    Message('note_on', channel=0, note=57, velocity=75, time=208),\n",
       "    Message('note_on', channel=0, note=53, velocity=71, time=0),\n",
       "    Message('note_on', channel=0, note=60, velocity=67, time=0),\n",
       "    Message('note_on', channel=0, note=48, velocity=71, time=2),\n",
       "    Message('control_change', channel=0, control=64, value=127, time=178),\n",
       "    Message('note_on', channel=0, note=81, velocity=0, time=492),\n",
       "    Message('note_on', channel=0, note=53, velocity=0, time=246),\n",
       "    Message('note_on', channel=0, note=60, velocity=0, time=0),\n",
       "    Message('note_on', channel=0, note=69, velocity=0, time=0),\n",
       "    Message('note_on', channel=0, note=72, velocity=73, time=7),\n",
       "    Message('note_on', channel=0, note=57, velocity=0, time=0),\n",
       "    Message('note_on', channel=0, note=53, velocity=57, time=1),\n",
       "    Message('note_on', channel=0, note=69, velocity=81, time=2),\n",
       "    Message('note_on', channel=0, note=60, velocity=74, time=0),\n",
       "    Message('note_on', channel=0, note=65, velocity=70, time=1),\n",
       "    Message('note_on', channel=0, note=57, velocity=60, time=1),\n",
       "    Message('control_change', channel=0, control=64, value=0, time=43),\n",
       "    Message('note_on', channel=0, note=48, velocity=0, time=7),\n",
       "    Message('control_change', channel=0, control=64, value=127, time=245),\n",
       "    Message('note_on', channel=0, note=57, velocity=0, time=38),\n",
       "    Message('note_on', channel=0, note=53, velocity=0, time=54),\n",
       "    Message('note_on', channel=0, note=47, velocity=80, time=513),\n",
       "    Message('control_change', channel=0, control=64, value=0, time=71),\n",
       "    Message('note_on', channel=0, note=72, velocity=0, time=7),\n",
       "    Message('note_on', channel=0, note=60, velocity=0, time=23),\n",
       "    Message('note_on', channel=0, note=69, velocity=0, time=146),\n",
       "    Message('note_on', channel=0, note=53, velocity=74, time=52),\n",
       "    Message('note_on', channel=0, note=47, velocity=0, time=86),\n",
       "    Message('note_on', channel=0, note=55, velocity=63, time=195),\n",
       "    Message('note_on', channel=0, note=53, velocity=0, time=65),\n",
       "    Message('note_on', channel=0, note=55, velocity=0, time=220),\n",
       "    Message('note_on', channel=0, note=59, velocity=82, time=3),\n",
       "    Message('note_on', channel=0, note=65, velocity=0, time=109),\n",
       "    Message('note_on', channel=0, note=65, velocity=84, time=185),\n",
       "    Message('note_on', channel=0, note=59, velocity=0, time=115),\n",
       "    Message('note_on', channel=0, note=79, velocity=76, time=162),\n",
       "    Message('note_on', channel=0, note=67, velocity=86, time=2),\n",
       "    Message('note_on', channel=0, note=65, velocity=0, time=95),\n",
       "    Message('note_on', channel=0, note=79, velocity=0, time=124),\n",
       "    Message('note_on', channel=0, note=47, velocity=74, time=81),\n",
       "    Message('note_on', channel=0, note=53, velocity=78, time=0),\n",
       "    Message('note_on', channel=0, note=55, velocity=79, time=1),\n",
       "    Message('control_change', channel=0, control=64, value=127, time=64),\n",
       "    Message('note_on', channel=0, note=55, velocity=0, time=860),\n",
       "    Message('note_on', channel=0, note=67, velocity=0, time=0),\n",
       "    Message('note_on', channel=0, note=71, velocity=78, time=3),\n",
       "    Message('note_on', channel=0, note=59, velocity=85, time=1),\n",
       "    Message('note_on', channel=0, note=55, velocity=61, time=1),\n",
       "    Message('note_on', channel=0, note=50, velocity=70, time=0),\n",
       "    Message('note_on', channel=0, note=67, velocity=82, time=5),\n",
       "    Message('note_on', channel=0, note=65, velocity=73, time=1),\n",
       "    Message('control_change', channel=0, control=64, value=0, time=47),\n",
       "    Message('note_on', channel=0, note=53, velocity=0, time=6),\n",
       "    Message('note_on', channel=0, note=47, velocity=0, time=2),\n",
       "    Message('control_change', channel=0, control=64, value=127, time=188),\n",
       "    Message('note_on', channel=0, note=50, velocity=0, time=31),\n",
       "    Message('note_on', channel=0, note=55, velocity=0, time=192),\n",
       "    Message('note_on', channel=0, note=48, velocity=69, time=456),\n",
       "    Message('note_on', channel=0, note=71, velocity=0, time=74),\n",
       "    Message('note_on', channel=0, note=59, velocity=0, time=8),\n",
       "    Message('control_change', channel=0, control=64, value=0, time=1),\n",
       "    Message('note_on', channel=0, note=65, velocity=0, time=12),\n",
       "    Message('note_on', channel=0, note=52, velocity=73, time=193),\n",
       "    Message('note_on', channel=0, note=48, velocity=0, time=89),\n",
       "    Message('control_change', channel=0, control=64, value=127, time=73),\n",
       "    Message('note_on', channel=0, note=55, velocity=73, time=119),\n",
       "    Message('control_change', channel=0, control=64, value=0, time=111),\n",
       "    Message('note_on', channel=0, note=52, velocity=0, time=48),\n",
       "    Message('note_on', channel=0, note=60, velocity=76, time=136),\n",
       "    Message('note_on', channel=0, note=67, velocity=0, time=70),\n",
       "    Message('note_on', channel=0, note=55, velocity=0, time=21),\n",
       "    Message('note_on', channel=0, note=64, velocity=85, time=203),\n",
       "    Message('note_on', channel=0, note=60, velocity=0, time=126),\n",
       "    Message('note_on', channel=0, note=79, velocity=76, time=164),\n",
       "    Message('note_on', channel=0, note=67, velocity=86, time=2),\n",
       "    Message('note_on', channel=0, note=79, velocity=0, time=6),\n",
       "    Message('note_on', channel=0, note=64, velocity=0, time=70),\n",
       "    Message('note_on', channel=0, note=72, velocity=74, time=236),\n",
       "    Message('note_on', channel=0, note=60, velocity=76, time=0),\n",
       "    Message('note_on', channel=0, note=55, velocity=66, time=3),\n",
       "    Message('note_on', channel=0, note=48, velocity=63, time=2),\n",
       "    Message('note_on', channel=0, note=52, velocity=66, time=0),\n",
       "    Message('control_change', channel=0, control=64, value=127, time=134),\n",
       "    Message('note_on', channel=0, note=52, velocity=0, time=1635),\n",
       "    Message('control_change', channel=0, control=64, value=0, time=0),\n",
       "    Message('note_on', channel=0, note=55, velocity=0, time=2),\n",
       "    Message('note_on', channel=0, note=48, velocity=0, time=1),\n",
       "    Message('note_on', channel=0, note=67, velocity=0, time=14),\n",
       "    Message('note_on', channel=0, note=72, velocity=0, time=15),\n",
       "    Message('note_on', channel=0, note=60, velocity=0, time=8),\n",
       "    Message('control_change', channel=0, control=64, value=127, time=1835),\n",
       "    Message('note_on', channel=0, note=55, velocity=77, time=113),\n",
       "    Message('note_on', channel=0, note=48, velocity=76, time=3),\n",
       "    Message('note_on', channel=0, note=52, velocity=74, time=1),\n",
       "    Message('note_on', channel=0, note=64, velocity=67, time=332),\n",
       "    Message('note_on', channel=0, note=52, velocity=0, time=296),\n",
       "    Message('note_on', channel=0, note=55, velocity=0, time=8),\n",
       "    Message('note_on', channel=0, note=52, velocity=47, time=3),\n",
       "    Message('note_on', channel=0, note=55, velocity=53, time=1),\n",
       "    Message('note_on', channel=0, note=62, velocity=59, time=2),\n",
       "    Message('control_change', channel=0, control=64, value=0, time=2),\n",
       "    Message('control_change', channel=0, control=64, value=127, time=7),\n",
       "    Message('note_on', channel=0, note=64, velocity=0, time=238),\n",
       "    Message('note_on', channel=0, note=60, velocity=55, time=36),\n",
       "    Message('note_on', channel=0, note=48, velocity=0, time=69),\n",
       "    Message('control_change', channel=0, control=64, value=0, time=3),\n",
       "    Message('note_on', channel=0, note=55, velocity=0, time=7),\n",
       "    Message('note_on', channel=0, note=62, velocity=0, time=72),\n",
       "    Message('note_on', channel=0, note=60, velocity=0, time=32),\n",
       "    Message('note_on', channel=0, note=55, velocity=75, time=108),\n",
       "    Message('note_on', channel=0, note=47, velocity=67, time=5),\n",
       "    Message('note_on', channel=0, note=53, velocity=71, time=2),\n",
       "    Message('note_on', channel=0, note=52, velocity=0, time=17),\n",
       "    Message('control_change', channel=0, control=64, value=127, time=87),\n",
       "    Message('note_on', channel=0, note=65, velocity=80, time=214),\n",
       "    Message('note_on', channel=0, note=64, velocity=80, time=282),\n",
       "    Message('control_change', channel=0, control=64, value=0, time=23),\n",
       "    Message('note_on', channel=0, note=65, velocity=0, time=31),\n",
       "    Message('note_on', channel=0, note=53, velocity=0, time=241),\n",
       "    Message('note_on', channel=0, note=48, velocity=45, time=4),\n",
       "    Message('note_on', channel=0, note=53, velocity=50, time=1),\n",
       "    Message('note_on', channel=0, note=62, velocity=60, time=2),\n",
       "    Message('note_on', channel=0, note=55, velocity=0, time=0),\n",
       "    Message('note_on', channel=0, note=47, velocity=0, time=2),\n",
       "    Message('control_change', channel=0, control=64, value=127, time=22),\n",
       "    Message('note_on', channel=0, note=48, velocity=0, time=69),\n",
       "    Message('note_on', channel=0, note=64, velocity=0, time=10),\n",
       "    Message('note_on', channel=0, note=62, velocity=0, time=83),\n",
       "    Message('control_change', channel=0, control=64, value=0, time=7),\n",
       "    Message('note_on', channel=0, note=48, velocity=70, time=102),\n",
       "    Message('note_on', channel=0, note=52, velocity=67, time=1),\n",
       "    Message('note_on', channel=0, note=55, velocity=69, time=0),\n",
       "    Message('note_on', channel=0, note=53, velocity=0, time=44),\n",
       "    Message('control_change', channel=0, control=64, value=127, time=260),\n",
       "    Message('note_on', channel=0, note=67, velocity=74, time=4),\n",
       "    Message('control_change', channel=0, control=64, value=0, time=267),\n",
       "    Message('note_on', channel=0, note=55, velocity=0, time=2),\n",
       "    Message('note_on', channel=0, note=65, velocity=75, time=16),\n",
       "    Message('note_on', channel=0, note=67, velocity=0, time=57),\n",
       "    Message('note_on', channel=0, note=48, velocity=0, time=222),\n",
       "    Message('note_on', channel=0, note=64, velocity=77, time=7),\n",
       "    Message('note_on', channel=0, note=65, velocity=0, time=83),\n",
       "    Message('note_on', channel=0, note=64, velocity=0, time=59),\n",
       "    Message('note_on', channel=0, note=53, velocity=63, time=167),\n",
       "    Message('note_on', channel=0, note=48, velocity=59, time=4),\n",
       "    Message('note_on', channel=0, note=64, velocity=78, time=2),\n",
       "    Message('note_on', channel=0, note=57, velocity=56, time=1),\n",
       "    Message('note_on', channel=0, note=52, velocity=0, time=53),\n",
       "    Message('control_change', channel=0, control=64, value=127, time=62),\n",
       "    Message('control_change', channel=0, control=64, value=0, time=519),\n",
       "    Message('note_on', channel=0, note=48, velocity=0, time=18),\n",
       "    Message('note_on', channel=0, note=53, velocity=0, time=0),\n",
       "    Message('note_on', channel=0, note=48, velocity=35, time=5),\n",
       "    Message('note_on', channel=0, note=62, velocity=50, time=0),\n",
       "    Message('note_on', channel=0, note=53, velocity=40, time=4),\n",
       "    Message('note_on', channel=0, note=64, velocity=0, time=72),\n",
       "    Message('note_on', channel=0, note=48, velocity=0, time=212),\n",
       "    Message('control_change', channel=0, control=64, value=127, time=15),\n",
       "    Message('note_on', channel=0, note=57, velocity=0, time=23),\n",
       "    Message('note_on', channel=0, note=62, velocity=0, time=156),\n",
       "    Message('control_change', channel=0, control=64, value=0, time=5),\n",
       "    Message('note_on', channel=0, note=48, velocity=61, time=114),\n",
       "    Message('note_on', channel=0, note=52, velocity=64, time=3),\n",
       "    Message('note_on', channel=0, note=55, velocity=62, time=1),\n",
       "    Message('control_change', channel=0, control=64, value=127, time=28),\n",
       "    Message('note_on', channel=0, note=53, velocity=0, time=7),\n",
       "    Message('control_change', channel=0, control=64, value=0, time=47),\n",
       "    Message('control_change', channel=0, control=64, value=127, time=115),\n",
       "    Message('note_on', channel=0, note=64, velocity=64, time=125),\n",
       "    Message('note_on', channel=0, note=48, velocity=0, time=274),\n",
       "    Message('note_on', channel=0, note=52, velocity=0, time=8),\n",
       "    Message('note_on', channel=0, note=48, velocity=41, time=2),\n",
       "    Message('note_on', channel=0, note=62, velocity=62, time=3),\n",
       "    Message('note_on', channel=0, note=52, velocity=44, time=2),\n",
       "    Message('note_on', channel=0, note=74, velocity=59, time=4),\n",
       "    Message('note_on', channel=0, note=74, velocity=0, time=4),\n",
       "    Message('control_change', channel=0, control=64, value=0, time=42),\n",
       "    Message('note_on', channel=0, note=64, velocity=0, time=39),\n",
       "    Message('note_on', channel=0, note=48, velocity=0, time=173),\n",
       "    Message('note_on', channel=0, note=52, velocity=0, time=0),\n",
       "    Message('note_on', channel=0, note=48, velocity=40, time=6),\n",
       "    Message('note_on', channel=0, note=52, velocity=38, time=2),\n",
       "    Message('note_on', channel=0, note=60, velocity=55, time=3),\n",
       "    Message('note_on', channel=0, note=55, velocity=0, time=74),\n",
       "    Message('note_on', channel=0, note=48, velocity=0, time=47),\n",
       "    Message('note_on', channel=0, note=60, velocity=0, time=9),\n",
       "    Message('note_on', channel=0, note=62, velocity=0, time=15),\n",
       "    Message('note_on', channel=0, note=55, velocity=71, time=149),\n",
       "    Message('note_on', channel=0, note=53, velocity=72, time=1),\n",
       "    Message('note_on', channel=0, note=47, velocity=69, time=4),\n",
       "    Message('note_on', channel=0, note=52, velocity=0, time=36),\n",
       "    Message('control_change', channel=0, control=64, value=127, time=68),\n",
       "    Message('note_on', channel=0, note=65, velocity=73, time=203),\n",
       "    Message('note_on', channel=0, note=64, velocity=78, time=271),\n",
       "    Message('control_change', channel=0, control=64, value=0, time=33),\n",
       "    Message('note_on', channel=0, note=65, velocity=0, time=44),\n",
       "    Message('note_on', channel=0, note=55, velocity=0, time=194),\n",
       "    Message('note_on', channel=0, note=55, velocity=46, time=7),\n",
       "    Message('control_change', channel=0, control=64, value=127, time=1),\n",
       "    Message('note_on', channel=0, note=62, velocity=63, time=4),\n",
       "    Message('note_on', channel=0, note=47, velocity=0, time=8),\n",
       "    Message('note_on', channel=0, note=55, velocity=0, time=80),\n",
       "    Message('note_on', channel=0, note=64, velocity=0, time=28),\n",
       "    Message('control_change', channel=0, control=64, value=0, time=8),\n",
       "    Message('note_on', channel=0, note=62, velocity=0, time=40),\n",
       "    Message('note_on', channel=0, note=48, velocity=70, time=127),\n",
       "    Message('note_on', channel=0, note=52, velocity=69, time=1),\n",
       "    Message('note_on', channel=0, note=67, velocity=67, time=0),\n",
       "    Message('note_on', channel=0, note=55, velocity=69, time=1),\n",
       "    Message('note_on', channel=0, note=53, velocity=0, time=49),\n",
       "    Message('control_change', channel=0, control=64, value=127, time=122),\n",
       "    Message('control_change', channel=0, control=64, value=0, time=16),\n",
       "    Message('note_on', channel=0, note=67, velocity=0, time=100),\n",
       "    Message('note_on', channel=0, note=67, velocity=72, time=7),\n",
       "    Message('control_change', channel=0, control=64, value=127, time=46),\n",
       "    Message('control_change', channel=0, control=64, value=0, time=236),\n",
       "    Message('note_on', channel=0, note=48, velocity=0, time=15),\n",
       "    Message('note_on', channel=0, note=60, velocity=72, time=5),\n",
       "    Message('note_on', channel=0, note=67, velocity=0, time=29),\n",
       "    Message('note_on', channel=0, note=55, velocity=0, time=17),\n",
       "    Message('control_change', channel=0, control=64, value=127, time=44),\n",
       "    Message('note_on', channel=0, note=53, velocity=71, time=195),\n",
       "    Message('note_on', channel=0, note=55, velocity=70, time=2),\n",
       "    Message('note_on', channel=0, note=47, velocity=65, time=2),\n",
       "    Message('note_on', channel=0, note=62, velocity=69, time=2),\n",
       "    Message('note_on', channel=0, note=52, velocity=0, time=33),\n",
       "    Message('note_on', channel=0, note=60, velocity=0, time=1),\n",
       "    Message('control_change', channel=0, control=64, value=0, time=22),\n",
       "    Message('note_on', channel=0, note=47, velocity=0, time=83),\n",
       "    Message('note_on', channel=0, note=55, velocity=0, time=63),\n",
       "    Message('note_on', channel=0, note=60, velocity=70, time=141),\n",
       "    Message('note_on', channel=0, note=55, velocity=59, time=2),\n",
       "    Message('note_on', channel=0, note=52, velocity=68, time=4),\n",
       "    Message('note_on', channel=0, note=48, velocity=62, time=4),\n",
       "    Message('note_on', channel=0, note=53, velocity=0, time=45),\n",
       "    Message('note_on', channel=0, note=62, velocity=0, time=5),\n",
       "    Message('control_change', channel=0, control=64, value=127, time=402),\n",
       "    Message('control_change', channel=0, control=64, value=0, time=238),\n",
       "    Message('control_change', channel=0, control=64, value=127, time=292),\n",
       "    Message('note_on', channel=0, note=52, velocity=0, time=91),\n",
       "    Message('control_change', channel=0, control=64, value=0, time=3),\n",
       "    Message('note_on', channel=0, note=48, velocity=0, time=2),\n",
       "    Message('note_on', channel=0, note=55, velocity=0, time=5),\n",
       "    Message('note_on', channel=0, note=60, velocity=0, time=10),\n",
       "    Message('note_on', channel=0, note=72, velocity=74, time=2022),\n",
       "    Message('note_on', channel=0, note=60, velocity=80, time=3),\n",
       "    Message('note_on', channel=0, note=62, velocity=58, time=259),\n",
       "    Message('note_on', channel=0, note=72, velocity=0, time=78),\n",
       "    Message('note_on', channel=0, note=60, velocity=0, time=4),\n",
       "    Message('note_on', channel=0, note=64, velocity=72, time=154),\n",
       "    Message('note_on', channel=0, note=62, velocity=0, time=45),\n",
       "    Message('note_on', channel=0, note=72, velocity=77, time=197),\n",
       "    Message('note_on', channel=0, note=60, velocity=84, time=1),\n",
       "    Message('note_on', channel=0, note=64, velocity=0, time=69),\n",
       "    Message('note_on', channel=0, note=62, velocity=62, time=179),\n",
       "    Message('note_on', channel=0, note=60, velocity=0, time=61),\n",
       "    Message('note_on', channel=0, note=72, velocity=0, time=27),\n",
       "    Message('note_on', channel=0, note=64, velocity=65, time=148),\n",
       "    Message('note_on', channel=0, note=62, velocity=0, time=29),\n",
       "    Message('note_on', channel=0, note=62, velocity=78, time=202),\n",
       "    Message('note_on', channel=0, note=64, velocity=0, time=75),\n",
       "    Message('note_on', channel=0, note=64, velocity=58, time=165),\n",
       "    Message('note_on', channel=0, note=62, velocity=0, time=128),\n",
       "    Message('note_on', channel=0, note=65, velocity=60, time=112),\n",
       "    Message('note_on', channel=0, note=64, velocity=0, time=16),\n",
       "    Message('note_on', channel=0, note=62, velocity=76, time=213),\n",
       "    Message('note_on', channel=0, note=65, velocity=0, time=67),\n",
       "    Message('note_on', channel=0, note=64, velocity=63, time=183),\n",
       "    Message('note_on', channel=0, note=62, velocity=0, time=104),\n",
       "    Message('note_on', channel=0, note=65, velocity=66, time=130),\n",
       "    Message('note_on', channel=0, note=64, velocity=0, time=25),\n",
       "    Message('note_on', channel=0, note=64, velocity=86, time=199),\n",
       "    Message('note_on', channel=0, note=65, velocity=0, time=88),\n",
       "    Message('note_on', channel=0, note=65, velocity=68, time=159),\n",
       "    Message('note_on', channel=0, note=64, velocity=0, time=41),\n",
       "    Message('note_on', channel=0, note=67, velocity=64, time=209),\n",
       "    Message('note_on', channel=0, note=65, velocity=0, time=22),\n",
       "    Message('note_on', channel=0, note=64, velocity=84, time=199),\n",
       "    Message('note_on', channel=0, note=67, velocity=0, time=67),\n",
       "    Message('note_on', channel=0, note=65, velocity=64, time=192),\n",
       "    Message('note_on', channel=0, note=64, velocity=0, time=47),\n",
       "    Message('note_on', channel=0, note=67, velocity=66, time=202),\n",
       "    Message('note_on', channel=0, note=65, velocity=0, time=24),\n",
       "    Message('note_on', channel=0, note=65, velocity=81, time=229),\n",
       "    Message('note_on', channel=0, note=67, velocity=0, time=51),\n",
       "    Message('note_on', channel=0, note=64, velocity=66, time=183),\n",
       "    Message('note_on', channel=0, note=65, velocity=0, time=60),\n",
       "    Message('note_on', channel=0, note=62, velocity=58, time=219),\n",
       "    Message('note_on', channel=0, note=64, velocity=0, time=26),\n",
       "    Message('note_on', channel=0, note=60, velocity=71, time=224),\n",
       "    Message('note_on', channel=0, note=72, velocity=65, time=0),\n",
       "    Message('note_on', channel=0, note=62, velocity=0, time=81),\n",
       "    Message('control_change', channel=0, control=64, value=127, time=144),\n",
       "    Message('note_on', channel=0, note=60, velocity=0, time=634),\n",
       "    Message('control_change', channel=0, control=64, value=0, time=0),\n",
       "    Message('note_on', channel=0, note=72, velocity=0, time=11),\n",
       "    Message('note_on', channel=0, note=48, velocity=80, time=1113),\n",
       "    Message('note_on', channel=0, note=50, velocity=57, time=265),\n",
       "    Message('note_on', channel=0, note=48, velocity=0, time=1),\n",
       "    Message('note_on', channel=0, note=62, velocity=50, time=3),\n",
       "    Message('note_on', channel=0, note=62, velocity=0, time=8),\n",
       "    Message('note_on', channel=0, note=52, velocity=66, time=226),\n",
       "    Message('note_on', channel=0, note=50, velocity=0, time=20),\n",
       "    Message('note_on', channel=0, note=48, velocity=80, time=203),\n",
       "    Message('note_on', channel=0, note=52, velocity=0, time=30),\n",
       "    Message('note_on', channel=0, note=50, velocity=57, time=239),\n",
       "    Message('note_on', channel=0, note=62, velocity=48, time=2),\n",
       "    Message('note_on', channel=0, note=62, velocity=0, time=9),\n",
       "    Message('note_on', channel=0, note=48, velocity=0, time=3),\n",
       "    Message('note_on', channel=0, note=52, velocity=55, time=227),\n",
       "    Message('note_on', channel=0, note=50, velocity=0, time=21),\n",
       "    Message('note_on', channel=0, note=50, velocity=77, time=215),\n",
       "    Message('note_on', channel=0, note=62, velocity=65, time=1),\n",
       "    Message('note_on', channel=0, note=52, velocity=0, time=40),\n",
       "    Message('note_on', channel=0, note=52, velocity=64, time=208),\n",
       "    Message('note_on', channel=0, note=50, velocity=0, time=50),\n",
       "    Message('note_on', channel=0, note=62, velocity=0, time=27),\n",
       "    Message('note_on', channel=0, note=52, velocity=0, time=149),\n",
       "    Message('note_on', channel=0, note=53, velocity=60, time=7),\n",
       "    Message('note_on', channel=0, note=50, velocity=73, time=246),\n",
       "    Message('note_on', channel=0, note=62, velocity=63, time=0),\n",
       "    Message('note_on', channel=0, note=53, velocity=0, time=29),\n",
       "    Message('note_on', channel=0, note=52, velocity=67, time=215),\n",
       "    Message('note_on', channel=0, note=50, velocity=0, time=41),\n",
       "    Message('note_on', channel=0, note=62, velocity=0, time=27),\n",
       "    Message('note_on', channel=0, note=53, velocity=55, time=181),\n",
       "    Message('note_on', channel=0, note=52, velocity=0, time=13),\n",
       "    Message('note_on', channel=0, note=64, velocity=66, time=224),\n",
       "    Message('note_on', channel=0, note=52, velocity=82, time=1),\n",
       "    Message('note_on', channel=0, note=53, velocity=0, time=31),\n",
       "    Message('note_on', channel=0, note=64, velocity=0, time=187),\n",
       "    Message('note_on', channel=0, note=53, velocity=64, time=27),\n",
       "    Message('note_on', channel=0, note=52, velocity=0, time=8),\n",
       "    Message('note_on', channel=0, note=55, velocity=53, time=229),\n",
       "    Message('note_on', channel=0, note=67, velocity=45, time=1),\n",
       "    Message('note_on', channel=0, note=53, velocity=0, time=25),\n",
       "    Message('note_on', channel=0, note=64, velocity=59, time=212),\n",
       "    Message('note_on', channel=0, note=52, velocity=75, time=0),\n",
       "    Message('note_on', channel=0, note=64, velocity=0, time=5),\n",
       "    Message('note_on', channel=0, note=55, velocity=0, time=54),\n",
       "    Message('note_on', channel=0, note=67, velocity=0, time=15),\n",
       "    Message('note_on', channel=0, note=53, velocity=58, time=196),\n",
       "    Message('note_on', channel=0, note=52, velocity=0, time=7),\n",
       "    Message('note_on', channel=0, note=55, velocity=52, time=246),\n",
       "    Message('note_on', channel=0, note=67, velocity=45, time=1),\n",
       "    Message('note_on', channel=0, note=53, velocity=0, time=29),\n",
       "    Message('note_on', channel=0, note=53, velocity=79, time=208),\n",
       "    Message('note_on', channel=0, note=65, velocity=62, time=4),\n",
       "    Message('note_on', channel=0, note=55, velocity=0, time=32),\n",
       "    Message('note_on', channel=0, note=67, velocity=0, time=14),\n",
       "    Message('control_change', channel=0, control=64, value=127, time=31),\n",
       "    Message('note_on', channel=0, note=52, velocity=54, time=194),\n",
       "    Message('note_on', channel=0, note=53, velocity=0, time=9),\n",
       "    Message('control_change', channel=0, control=64, value=0, time=5),\n",
       "    Message('note_on', channel=0, note=65, velocity=0, time=7),\n",
       "    Message('note_on', channel=0, note=52, velocity=0, time=211),\n",
       "    Message('note_on', channel=0, note=62, velocity=54, time=6),\n",
       "    Message('note_on', channel=0, note=50, velocity=61, time=0),\n",
       "    Message('note_on', channel=0, note=48, velocity=73, time=264),\n",
       "    Message('note_on', channel=0, note=60, velocity=62, time=0),\n",
       "    Message('note_on', channel=0, note=50, velocity=0, time=10),\n",
       "    Message('note_on', channel=0, note=62, velocity=0, time=16),\n",
       "    Message('note_on', channel=0, note=60, velocity=0, time=69),\n",
       "    Message('note_on', channel=0, note=48, velocity=0, time=772),\n",
       "    Message('note_on', channel=0, note=72, velocity=82, time=1695),\n",
       "    Message('note_on', channel=0, note=60, velocity=85, time=1),\n",
       "    Message('control_change', channel=0, control=64, value=127, time=74),\n",
       "    Message('note_on', channel=0, note=72, velocity=0, time=69),\n",
       "    Message('control_change', channel=0, control=64, value=0, time=304),\n",
       "    Message('note_on', channel=0, note=60, velocity=0, time=13),\n",
       "    Message('note_on', channel=0, note=72, velocity=65, time=136),\n",
       "    Message('note_on', channel=0, note=60, velocity=71, time=2),\n",
       "    Message('control_change', channel=0, control=64, value=127, time=75),\n",
       "    Message('note_on', channel=0, note=74, velocity=74, time=216),\n",
       "    Message('note_on', channel=0, note=62, velocity=81, time=0),\n",
       "    Message('note_on', channel=0, note=72, velocity=0, time=22),\n",
       "    Message('control_change', channel=0, control=64, value=0, time=3),\n",
       "    Message('note_on', channel=0, note=60, velocity=0, time=2),\n",
       "    Message('note_on', channel=0, note=74, velocity=0, time=95),\n",
       "    Message('note_on', channel=0, note=62, velocity=0, time=332),\n",
       "    Message('note_on', channel=0, note=74, velocity=61, time=108),\n",
       "    Message('note_on', channel=0, note=62, velocity=66, time=1),\n",
       "    Message('note_on', channel=0, note=74, velocity=0, time=143),\n",
       "    Message('note_on', channel=0, note=64, velocity=89, time=115),\n",
       "    Message('note_on', channel=0, note=76, velocity=76, time=2),\n",
       "    Message('note_on', channel=0, note=62, velocity=0, time=21),\n",
       "    Message('note_on', channel=0, note=76, velocity=0, time=200),\n",
       "    Message('note_on', channel=0, note=64, velocity=0, time=181),\n",
       "    Message('note_on', channel=0, note=64, velocity=87, time=144),\n",
       "    Message('note_on', channel=0, note=76, velocity=74, time=1),\n",
       "    Message('note_on', channel=0, note=65, velocity=81, time=284),\n",
       "    Message('note_on', channel=0, note=77, velocity=70, time=1),\n",
       "    Message('note_on', channel=0, note=64, velocity=0, time=79),\n",
       "    Message('note_on', channel=0, note=76, velocity=0, time=1),\n",
       "    Message('note_on', channel=0, note=77, velocity=0, time=46),\n",
       "    Message('note_on', channel=0, note=65, velocity=0, time=257),\n",
       "    Message('note_on', channel=0, note=65, velocity=85, time=145),\n",
       "    Message('note_on', channel=0, note=77, velocity=73, time=1),\n",
       "    Message('note_on', channel=0, note=77, velocity=0, time=4),\n",
       "    Message('note_on', channel=0, note=64, velocity=86, time=271),\n",
       "    Message('note_on', channel=0, note=76, velocity=73, time=1),\n",
       "    Message('note_on', channel=0, note=65, velocity=0, time=71),\n",
       "    Message('note_on', channel=0, note=76, velocity=0, time=241),\n",
       "    Message('note_on', channel=0, note=64, velocity=0, time=77),\n",
       "    Message('note_on', channel=0, note=64, velocity=70, time=166),\n",
       "    Message('note_on', channel=0, note=76, velocity=56, time=4),\n",
       "    Message('note_on', channel=0, note=76, velocity=0, time=252),\n",
       "    Message('note_on', channel=0, note=62, velocity=78, time=28),\n",
       "    Message('note_on', channel=0, note=74, velocity=69, time=0),\n",
       "    Message('note_on', channel=0, note=64, velocity=0, time=61),\n",
       "    Message('note_on', channel=0, note=74, velocity=0, time=42),\n",
       "    Message('control_change', channel=0, control=64, value=127, time=138),\n",
       "    Message('control_change', channel=0, control=64, value=0, time=100),\n",
       "    Message('note_on', channel=0, note=62, velocity=0, time=32),\n",
       "    Message('note_on', channel=0, note=62, velocity=66, time=126),\n",
       "    Message('note_on', channel=0, note=74, velocity=58, time=2),\n",
       "    Message('note_on', channel=0, note=74, velocity=0, time=9),\n",
       "    Message('control_change', channel=0, control=64, value=127, time=130),\n",
       "    Message('note_on', channel=0, note=72, velocity=69, time=142),\n",
       "    Message('note_on', channel=0, note=60, velocity=76, time=0),\n",
       "    Message('control_change', channel=0, control=64, value=0, time=42),\n",
       "    Message('note_on', channel=0, note=62, velocity=0, time=71),\n",
       "    Message('control_change', channel=0, control=64, value=127, time=198),\n",
       "    Message('note_on', channel=0, note=72, velocity=0, time=669),\n",
       "    Message('control_change', channel=0, control=64, value=0, time=0),\n",
       "    Message('control_change', channel=0, control=64, value=127, time=230),\n",
       "    Message('control_change', channel=0, control=64, value=0, time=226),\n",
       "    Message('note_on', channel=0, note=60, velocity=0, time=16),\n",
       "    Message('note_on', channel=0, note=48, velocity=78, time=818),\n",
       "    Message('note_on', channel=0, note=48, velocity=0, time=397),\n",
       "    Message('note_on', channel=0, note=48, velocity=73, time=140),\n",
       "    Message('note_on', channel=0, note=62, velocity=69, time=277),\n",
       "    Message('note_on', channel=0, note=50, velocity=79, time=1),\n",
       "    Message('note_on', channel=0, note=48, velocity=0, time=51),\n",
       "    Message('note_on', channel=0, note=50, velocity=0, time=320),\n",
       "    Message('note_on', channel=0, note=62, velocity=0, time=12),\n",
       "    Message('note_on', channel=0, note=50, velocity=78, time=135),\n",
       "    Message('note_on', channel=0, note=62, velocity=64, time=0),\n",
       "    Message('note_on', channel=0, note=52, velocity=90, time=260),\n",
       "    Message('note_on', channel=0, note=50, velocity=0, time=30),\n",
       "    Message('note_on', channel=0, note=62, velocity=0, time=20),\n",
       "    Message('control_change', channel=0, control=64, value=127, time=69),\n",
       "    Message('control_change', channel=0, control=64, value=0, time=234),\n",
       "    Message('note_on', channel=0, note=52, velocity=0, time=1),\n",
       "    Message('note_on', channel=0, note=52, velocity=82, time=178),\n",
       "    Message('control_change', channel=0, control=64, value=127, time=79),\n",
       "    Message('control_change', channel=0, control=64, value=0, time=159),\n",
       "    Message('note_on', channel=0, note=53, velocity=86, time=36),\n",
       "    Message('note_on', channel=0, note=52, velocity=0, time=30),\n",
       "    Message('control_change', channel=0, control=64, value=127, time=105),\n",
       "    Message('control_change', channel=0, control=64, value=0, time=218),\n",
       "    Message('note_on', channel=0, note=53, velocity=0, time=4),\n",
       "    Message('note_on', channel=0, note=53, velocity=80, time=182),\n",
       "    Message('control_change', channel=0, control=64, value=127, time=57),\n",
       "    Message('control_change', channel=0, control=64, value=0, time=199),\n",
       "    Message('note_on', channel=0, note=52, velocity=82, time=5),\n",
       "    Message('note_on', channel=0, note=64, velocity=65, time=0),\n",
       "    Message('note_on', channel=0, note=53, velocity=0, time=49),\n",
       "    Message('note_on', channel=0, note=64, velocity=0, time=285),\n",
       "    Message('note_on', channel=0, note=52, velocity=0, time=25),\n",
       "    Message('note_on', channel=0, note=64, velocity=65, time=167),\n",
       "    Message('note_on', channel=0, note=52, velocity=83, time=1),\n",
       "    Message('note_on', channel=0, note=64, velocity=0, time=6),\n",
       "    Message('control_change', channel=0, control=64, value=127, time=62),\n",
       "    Message('control_change', channel=0, control=64, value=0, time=168),\n",
       "    Message('note_on', channel=0, note=50, velocity=72, time=28),\n",
       "    Message('note_on', channel=0, note=62, velocity=61, time=0),\n",
       "    Message('note_on', channel=0, note=52, velocity=0, time=46),\n",
       "    Message('note_on', channel=0, note=50, velocity=0, time=306),\n",
       "    Message('note_on', channel=0, note=62, velocity=0, time=12),\n",
       "    Message('note_on', channel=0, note=50, velocity=71, time=127),\n",
       "    Message('note_on', channel=0, note=62, velocity=57, time=1),\n",
       "    Message('note_on', channel=0, note=48, velocity=76, time=266),\n",
       "    Message('note_on', channel=0, note=50, velocity=0, time=49),\n",
       "    Message('note_on', channel=0, note=62, velocity=0, time=10),\n",
       "    Message('control_change', channel=0, control=64, value=127, time=477),\n",
       "    Message('control_change', channel=0, control=64, value=0, time=731),\n",
       "    Message('note_on', channel=0, note=48, velocity=0, time=3),\n",
       "    Message('note_on', channel=0, note=48, velocity=53, time=3262),\n",
       "    Message('note_on', channel=0, note=55, velocity=58, time=1),\n",
       "    Message('note_on', channel=0, note=52, velocity=49, time=2),\n",
       "    Message('control_change', channel=0, control=64, value=127, time=155),\n",
       "    Message('control_change', channel=0, control=64, value=0, time=377),\n",
       "    Message('note_on', channel=0, note=67, velocity=71, time=78),\n",
       "    Message('control_change', channel=0, control=64, value=127, time=137),\n",
       "    Message('control_change', channel=0, control=64, value=0, time=245),\n",
       "    Message('note_on', channel=0, note=64, velocity=71, time=3),\n",
       "    Message('note_on', channel=0, note=67, velocity=0, time=68),\n",
       "    Message('control_change', channel=0, control=64, value=127, time=122),\n",
       "    Message('note_on', channel=0, note=48, velocity=0, time=438),\n",
       "    Message('note_on', channel=0, note=67, velocity=70, time=17),\n",
       "    Message('control_change', channel=0, control=64, value=0, time=18),\n",
       "    Message('note_on', channel=0, note=64, velocity=0, time=51),\n",
       "    Message('control_change', channel=0, control=64, value=127, time=113),\n",
       "    Message('control_change', channel=0, control=64, value=0, time=123),\n",
       "    Message('note_on', channel=0, note=55, velocity=0, time=8),\n",
       "    Message('note_on', channel=0, note=47, velocity=61, time=4),\n",
       "    Message('note_on', channel=0, note=55, velocity=58, time=2),\n",
       "    Message('note_on', channel=0, note=53, velocity=66, time=3),\n",
       "    Message('note_on', channel=0, note=67, velocity=0, time=94),\n",
       "    Message('note_on', channel=0, note=52, velocity=0, time=4),\n",
       "    Message('control_change', channel=0, control=64, value=127, time=31),\n",
       "    Message('note_on', channel=0, note=79, velocity=75, time=480),\n",
       "    Message('note_on', channel=0, note=67, velocity=82, time=1),\n",
       "    Message('note_on', channel=0, note=79, velocity=0, time=26),\n",
       "    Message('note_on', channel=0, note=74, velocity=85, time=283),\n",
       "    Message('control_change', channel=0, control=64, value=0, time=54),\n",
       "    Message('note_on', channel=0, note=67, velocity=0, time=6),\n",
       "    Message('control_change', channel=0, control=64, value=127, time=217),\n",
       "    Message('control_change', channel=0, control=64, value=0, time=338),\n",
       "    Message('note_on', channel=0, note=46, velocity=31, time=84),\n",
       "    Message('note_on', channel=0, note=47, velocity=0, time=4),\n",
       "    Message('note_on', channel=0, note=46, velocity=0, time=4),\n",
       "    Message('note_on', channel=0, note=55, velocity=0, time=48),\n",
       "    Message('control_change', channel=0, control=64, value=127, time=83),\n",
       "    Message('note_on', channel=0, note=48, velocity=63, time=134),\n",
       "    Message('note_on', channel=0, note=52, velocity=65, time=0),\n",
       "    Message('note_on', channel=0, note=55, velocity=63, time=2),\n",
       "    Message('control_change', channel=0, control=64, value=0, time=33),\n",
       "    Message('note_on', channel=0, note=53, velocity=0, time=20),\n",
       "    Message('note_on', channel=0, note=52, velocity=0, time=533),\n",
       "    Message('note_on', channel=0, note=67, velocity=74, time=6),\n",
       "    Message('note_on', channel=0, note=52, velocity=48, time=1),\n",
       "    Message('control_change', channel=0, control=64, value=127, time=200),\n",
       "    Message('control_change', channel=0, control=64, value=0, time=77),\n",
       "    Message('note_on', channel=0, note=74, velocity=0, time=38),\n",
       "    Message('note_on', channel=0, note=64, velocity=60, time=13),\n",
       "    Message('note_on', channel=0, note=67, velocity=0, time=38),\n",
       "    Message('control_change', channel=0, control=64, value=127, time=180),\n",
       "    Message('note_on', channel=0, note=67, velocity=67, time=395),\n",
       "    Message('control_change', channel=0, control=64, value=0, time=104),\n",
       "    Message('control_change', channel=0, control=64, value=127, time=15),\n",
       "    Message('note_on', channel=0, note=55, velocity=0, time=16),\n",
       "    Message('note_on', channel=0, note=64, velocity=0, time=146),\n",
       "    Message('note_on', channel=0, note=55, velocity=68, time=19),\n",
       "    Message('note_on', channel=0, note=53, velocity=72, time=3),\n",
       "    Message('note_on', channel=0, note=47, velocity=62, time=5),\n",
       "    Message('control_change', channel=0, control=64, value=0, time=34),\n",
       "    Message('note_on', channel=0, note=48, velocity=0, time=8),\n",
       "    Message('note_on', channel=0, note=52, velocity=0, time=11),\n",
       "    Message('control_change', channel=0, control=64, value=127, time=104),\n",
       "    Message('note_on', channel=0, note=67, velocity=0, time=430),\n",
       "    Message('note_on', channel=0, note=79, velocity=74, time=8),\n",
       "    Message('note_on', channel=0, note=67, velocity=83, time=3),\n",
       "    Message('note_on', channel=0, note=74, velocity=81, time=303),\n",
       "    Message('note_on', channel=0, note=79, velocity=0, time=1),\n",
       "    Message('control_change', channel=0, control=64, value=0, time=58),\n",
       "    Message('note_on', channel=0, note=67, velocity=0, time=25),\n",
       "    Message('control_change', channel=0, control=64, value=127, time=109),\n",
       "    Message('note_on', channel=0, note=47, velocity=0, time=459),\n",
       "    Message('control_change', channel=0, control=64, value=0, time=39),\n",
       "    Message('note_on', channel=0, note=55, velocity=0, time=22),\n",
       "    Message('control_change', channel=0, control=64, value=127, time=79),\n",
       "    Message('note_on', channel=0, note=52, velocity=71, time=151),\n",
       "    Message('note_on', channel=0, note=48, velocity=70, time=3),\n",
       "    Message('note_on', channel=0, note=55, velocity=63, time=1),\n",
       "    Message('note_on', channel=0, note=53, velocity=0, time=49),\n",
       "    Message('control_change', channel=0, control=64, value=0, time=11),\n",
       "    Message('control_change', channel=0, control=64, value=127, time=184),\n",
       "    Message('control_change', channel=0, control=64, value=0, time=338),\n",
       "    Message('note_on', channel=0, note=72, velocity=78, time=27),\n",
       "    Message('note_on', channel=0, note=74, velocity=0, time=12),\n",
       "    Message('control_change', channel=0, control=64, value=127, time=115),\n",
       "    Message('note_on', channel=0, note=72, velocity=0, time=192),\n",
       "    Message('note_on', channel=0, note=79, velocity=64, time=4),\n",
       "    Message('note_on', channel=0, note=67, velocity=68, time=2),\n",
       "    Message('note_on', channel=0, note=79, velocity=0, time=2),\n",
       "    Message('note_on', channel=0, note=72, velocity=55, time=1),\n",
       "    Message('note_on', channel=0, note=72, velocity=0, time=60),\n",
       "    Message('control_change', channel=0, control=64, value=0, time=487),\n",
       "    Message('note_on', channel=0, note=72, velocity=71, time=6),\n",
       "    Message('note_on', channel=0, note=48, velocity=0, time=29),\n",
       "    Message('note_on', channel=0, note=55, velocity=0, time=4),\n",
       "    Message('note_on', channel=0, note=67, velocity=0, time=6),\n",
       "    Message('control_change', channel=0, control=64, value=127, time=67),\n",
       "    Message('note_on', channel=0, note=48, velocity=69, time=196),\n",
       "    Message('note_on', channel=0, note=53, velocity=68, time=3),\n",
       "    Message('control_change', channel=0, control=64, value=0, time=0),\n",
       "    Message('note_on', channel=0, note=57, velocity=67, time=4),\n",
       "    Message('note_on', channel=0, note=52, velocity=0, time=70),\n",
       "    Message('control_change', channel=0, control=64, value=127, time=142),\n",
       "    Message('note_on', channel=0, note=72, velocity=0, time=368),\n",
       "    Message('note_on', channel=0, note=72, velocity=87, time=5),\n",
       "    Message('control_change', channel=0, control=64, value=0, time=7),\n",
       "    Message('control_change', channel=0, control=64, value=127, time=65),\n",
       "    Message('note_on', channel=0, note=65, velocity=62, time=252),\n",
       "    Message('control_change', channel=0, control=64, value=0, time=723),\n",
       "    Message('note_on', channel=0, note=57, velocity=0, time=2),\n",
       "    Message('note_on', channel=0, note=72, velocity=0, time=1),\n",
       "    Message('note_on', channel=0, note=53, velocity=0, time=0),\n",
       "    Message('note_on', channel=0, note=48, velocity=0, time=0),\n",
       "    Message('note_on', channel=0, note=53, velocity=57, time=177),\n",
       "    Message('note_on', channel=0, note=55, velocity=59, time=6),\n",
       "    Message('note_on', channel=0, note=47, velocity=63, time=3),\n",
       "    Message('control_change', channel=0, control=64, value=127, time=34),\n",
       "    Message('control_change', channel=0, control=64, value=0, time=242),\n",
       "    Message('note_on', channel=0, note=79, velocity=70, time=32),\n",
       "    Message('note_on', channel=0, note=67, velocity=73, time=1),\n",
       "    Message('control_change', channel=0, control=64, value=127, time=2),\n",
       "    Message('note_on', channel=0, note=79, velocity=0, time=7),\n",
       "    Message('note_on', channel=0, note=81, velocity=70, time=274),\n",
       "    Message('note_on', channel=0, note=69, velocity=76, time=0),\n",
       "    Message('control_change', channel=0, control=64, value=0, time=8),\n",
       "    Message('note_on', channel=0, note=81, velocity=0, time=3),\n",
       "    Message('note_on', channel=0, note=67, velocity=0, time=16),\n",
       "    Message('control_change', channel=0, control=64, value=127, time=91),\n",
       "    Message('note_on', channel=0, note=71, velocity=83, time=187),\n",
       "    Message('note_on', channel=0, note=69, velocity=0, time=94),\n",
       "    Message('control_change', channel=0, control=64, value=0, time=72),\n",
       "    Message('note_on', channel=0, note=72, velocity=88, time=114),\n",
       "    Message('note_on', channel=0, note=71, velocity=0, time=89),\n",
       "    Message('note_on', channel=0, note=65, velocity=0, time=36),\n",
       "    Message('note_on', channel=0, note=74, velocity=91, time=166),\n",
       "    Message('note_on', channel=0, note=72, velocity=0, time=37),\n",
       "    Message('note_on', channel=0, note=55, velocity=0, time=12),\n",
       "    Message('note_on', channel=0, note=72, velocity=85, time=257),\n",
       "    Message('note_on', channel=0, note=47, velocity=0, time=4),\n",
       "    Message('note_on', channel=0, note=55, velocity=63, time=24),\n",
       "    Message('note_on', channel=0, note=48, velocity=64, time=1),\n",
       "    Message('note_on', channel=0, note=52, velocity=65, time=0),\n",
       "    Message('note_on', channel=0, note=53, velocity=0, time=41),\n",
       "    Message('note_on', channel=0, note=74, velocity=0, time=5),\n",
       "    Message('control_change', channel=0, control=64, value=127, time=1603),\n",
       "    Message('note_on', channel=0, note=55, velocity=0, time=49),\n",
       "    Message('control_change', channel=0, control=64, value=0, time=1),\n",
       "    Message('note_on', channel=0, note=52, velocity=0, time=0),\n",
       "    Message('note_on', channel=0, note=48, velocity=0, time=3),\n",
       "    Message('note_on', channel=0, note=72, velocity=0, time=2),\n",
       "    Message('note_on', channel=0, note=60, velocity=91, time=4219),\n",
       "    Message('note_on', channel=0, note=48, velocity=88, time=0),\n",
       "    Message('control_change', channel=0, control=64, value=127, time=19),\n",
       "    Message('control_change', channel=0, control=64, value=0, time=22),\n",
       "    Message('control_change', channel=0, control=64, value=127, time=9),\n",
       "    Message('note_on', channel=0, note=60, velocity=0, time=23),\n",
       "    Message('control_change', channel=0, control=64, value=0, time=0),\n",
       "    Message('note_on', channel=0, note=48, velocity=0, time=7),\n",
       "    Message('note_on', channel=0, note=50, velocity=84, time=537),\n",
       "    Message('note_on', channel=0, note=62, velocity=91, time=12),\n",
       "    Message('note_on', channel=0, note=52, velocity=68, time=0),\n",
       "    Message('note_on', channel=0, note=52, velocity=0, time=4),\n",
       "    Message('control_change', channel=0, control=64, value=127, time=16),\n",
       "    Message('control_change', channel=0, control=64, value=0, time=15),\n",
       "    Message('note_on', channel=0, note=62, velocity=0, time=13),\n",
       "    Message('note_on', channel=0, note=50, velocity=0, time=0),\n",
       "    Message('note_on', channel=0, note=64, velocity=101, time=536),\n",
       "    Message('note_on', channel=0, note=52, velocity=88, time=0),\n",
       "    Message('note_on', channel=0, note=52, velocity=0, time=49),\n",
       "    Message('note_on', channel=0, note=64, velocity=0, time=47),\n",
       "    Message('note_on', channel=0, note=53, velocity=85, time=499),\n",
       "    Message('note_on', channel=0, note=77, velocity=79, time=2),\n",
       "    Message('note_on', channel=0, note=65, velocity=89, time=0),\n",
       "    Message('note_on', channel=0, note=53, velocity=0, time=72),\n",
       "    Message('note_on', channel=0, note=65, velocity=0, time=8),\n",
       "    Message('note_on', channel=0, note=77, velocity=0, time=3),\n",
       "    Message('note_on', channel=0, note=79, velocity=86, time=519),\n",
       "    Message('note_on', channel=0, note=55, velocity=87, time=1),\n",
       "    Message('note_on', channel=0, note=67, velocity=91, time=0),\n",
       "    Message('note_on', channel=0, note=67, velocity=0, time=94),\n",
       "    Message('note_on', channel=0, note=79, velocity=0, time=0),\n",
       "    Message('note_on', channel=0, note=55, velocity=0, time=4),\n",
       "    Message('note_on', channel=0, note=53, velocity=79, time=515),\n",
       "    Message('note_on', channel=0, note=77, velocity=79, time=0),\n",
       "    Message('note_on', channel=0, note=65, velocity=86, time=1),\n",
       "    Message('note_on', channel=0, note=65, velocity=0, time=53),\n",
       "    Message('note_on', channel=0, note=53, velocity=0, time=1),\n",
       "    Message('note_on', channel=0, note=77, velocity=0, time=41),\n",
       "    Message('note_on', channel=0, note=64, velocity=99, time=511),\n",
       "    Message('note_on', channel=0, note=52, velocity=77, time=0),\n",
       "    Message('note_on', channel=0, note=76, velocity=83, time=2),\n",
       "    Message('note_on', channel=0, note=52, velocity=0, time=43),\n",
       "    Message('note_on', channel=0, note=64, velocity=0, time=1),\n",
       "    Message('note_on', channel=0, note=76, velocity=0, time=49),\n",
       "    Message('note_on', channel=0, note=50, velocity=80, time=488),\n",
       "    Message('note_on', channel=0, note=62, velocity=89, time=0),\n",
       "    Message('note_on', channel=0, note=62, velocity=0, time=55),\n",
       "    Message('note_on', channel=0, note=50, velocity=0, time=1),\n",
       "    Message('note_on', channel=0, note=48, velocity=80, time=519),\n",
       "    Message('note_on', channel=0, note=60, velocity=87, time=1),\n",
       "    Message('note_on', channel=0, note=60, velocity=0, time=42),\n",
       "    Message('note_on', channel=0, note=48, velocity=0, time=4),\n",
       "    Message('control_change', channel=0, control=64, value=127, time=949),\n",
       "    Message('control_change', channel=0, control=64, value=0, time=276),\n",
       "    Message('control_change', channel=0, control=64, value=127, time=346),\n",
       "    Message('control_change', channel=0, control=64, value=0, time=31),\n",
       "    Message('control_change', channel=0, control=64, value=127, time=130),\n",
       "    Message('control_change', channel=0, control=64, value=0, time=131),\n",
       "    Message('control_change', channel=0, control=64, value=127, time=468),\n",
       "    Message('control_change', channel=0, control=64, value=0, time=277),\n",
       "    Message('note_on', channel=0, note=48, velocity=86, time=75),\n",
       "    Message('note_on', channel=0, note=48, velocity=0, time=60),\n",
       "    Message('note_on', channel=0, note=64, velocity=65, time=201),\n",
       "    Message('note_on', channel=0, note=64, velocity=0, time=45),\n",
       "    Message('note_on', channel=0, note=60, velocity=74, time=200),\n",
       "    Message('note_on', channel=0, note=60, velocity=0, time=68),\n",
       "    Message('note_on', channel=0, note=52, velocity=95, time=162),\n",
       "    Message('note_on', channel=0, note=52, velocity=0, time=64),\n",
       "    Message('note_on', channel=0, note=64, velocity=70, time=175),\n",
       "    Message('note_on', channel=0, note=64, velocity=0, time=36),\n",
       "    Message('note_on', channel=0, note=60, velocity=76, time=205),\n",
       "    Message('note_on', channel=0, note=60, velocity=0, time=40),\n",
       "    Message('note_on', channel=0, note=50, velocity=87, time=184),\n",
       "    Message('note_on', channel=0, note=62, velocity=79, time=1),\n",
       "    Message('note_on', channel=0, note=50, velocity=0, time=62),\n",
       "    Message('note_on', channel=0, note=62, velocity=0, time=50),\n",
       "    Message('note_on', channel=0, note=65, velocity=73, time=145),\n",
       "    Message('note_on', channel=0, note=65, velocity=0, time=35),\n",
       "    Message('note_on', channel=0, note=59, velocity=80, time=204),\n",
       "    Message('note_on', channel=0, note=59, velocity=0, time=39),\n",
       "    Message('note_on', channel=0, note=79, velocity=84, time=198),\n",
       "    Message('note_on', channel=0, note=67, velocity=91, time=2),\n",
       "    Message('note_on', channel=0, note=52, velocity=84, time=224),\n",
       "    Message('note_on', channel=0, note=52, velocity=0, time=47),\n",
       "    Message('note_on', channel=0, note=62, velocity=62, time=186),\n",
       "    Message('note_on', channel=0, note=50, velocity=74, time=0),\n",
       "    Message('note_on', channel=0, note=52, velocity=43, time=36),\n",
       "    Message('note_on', channel=0, note=50, velocity=0, time=0),\n",
       "    Message('note_on', channel=0, note=52, velocity=0, time=20),\n",
       "    Message('note_on', channel=0, note=62, velocity=0, time=0),\n",
       "    Message('note_on', channel=0, note=79, velocity=0, time=139),\n",
       "    Message('note_on', channel=0, note=48, velocity=85, time=36),\n",
       "    Message('note_on', channel=0, note=67, velocity=0, time=43),\n",
       "    Message('note_on', channel=0, note=48, velocity=0, time=10),\n",
       "    Message('note_on', channel=0, note=64, velocity=72, time=190),\n",
       "    Message('note_on', channel=0, note=64, velocity=0, time=41),\n",
       "    Message('note_on', channel=0, note=60, velocity=69, time=196),\n",
       "    Message('note_on', channel=0, note=60, velocity=0, time=42),\n",
       "    Message('note_on', channel=0, note=52, velocity=87, time=176),\n",
       "    Message('note_on', channel=0, note=52, velocity=0, time=39),\n",
       "    Message('note_on', channel=0, note=64, velocity=64, time=186),\n",
       "    Message('note_on', channel=0, note=64, velocity=0, time=37),\n",
       "    Message('note_on', channel=0, note=72, velocity=63, time=195),\n",
       "    Message('note_on', channel=0, note=60, velocity=71, time=1),\n",
       "    Message('note_on', channel=0, note=72, velocity=0, time=6),\n",
       "    Message('note_on', channel=0, note=60, velocity=0, time=38),\n",
       "    Message('note_on', channel=0, note=50, velocity=85, time=167),\n",
       "    Message('note_on', channel=0, note=62, velocity=77, time=3),\n",
       "    Message('note_on', channel=0, note=50, velocity=0, time=107),\n",
       "    Message('note_on', channel=0, note=62, velocity=0, time=30),\n",
       "    Message('note_on', channel=0, note=65, velocity=68, time=97),\n",
       "    Message('note_on', channel=0, note=65, velocity=0, time=37),\n",
       "    Message('note_on', channel=0, note=59, velocity=78, time=185),\n",
       "    Message('note_on', channel=0, note=59, velocity=0, time=45),\n",
       "    Message('note_on', channel=0, note=79, velocity=82, time=189),\n",
       "    Message('note_on', channel=0, note=67, velocity=88, time=1),\n",
       "    Message('note_on', channel=0, note=79, velocity=0, time=122),\n",
       "    Message('note_on', channel=0, note=52, velocity=80, time=97),\n",
       "    Message('note_on', channel=0, note=52, velocity=0, time=39),\n",
       "    Message('note_on', channel=0, note=50, velocity=64, time=199),\n",
       "    Message('note_on', channel=0, note=50, velocity=0, time=36),\n",
       "    Message('note_on', channel=0, note=48, velocity=82, time=183),\n",
       "    Message('note_on', channel=0, note=67, velocity=0, time=41),\n",
       "    Message('note_on', channel=0, note=48, velocity=0, time=14),\n",
       "    Message('note_on', channel=0, note=64, velocity=72, time=184),\n",
       "    Message('note_on', channel=0, note=64, velocity=0, time=40),\n",
       "    Message('note_on', channel=0, note=60, velocity=68, time=190),\n",
       "    Message('note_on', channel=0, note=60, velocity=0, time=42),\n",
       "    Message('note_on', channel=0, note=52, velocity=84, time=160),\n",
       "    Message('note_on', channel=0, note=52, velocity=0, time=39),\n",
       "    Message('note_on', channel=0, note=64, velocity=57, time=203),\n",
       "    Message('note_on', channel=0, note=64, velocity=0, time=43),\n",
       "    Message('note_on', channel=0, note=60, velocity=71, time=179),\n",
       "    Message('note_on', channel=0, note=60, velocity=0, time=36),\n",
       "    Message('note_on', channel=0, note=53, velocity=88, time=176),\n",
       "    Message('note_on', channel=0, note=53, velocity=0, time=73),\n",
       "    Message('note_on', channel=0, note=65, velocity=65, time=157),\n",
       "    Message('note_on', channel=0, note=65, velocity=0, time=37),\n",
       "    Message('note_on', channel=0, note=72, velocity=67, time=178),\n",
       "    Message('note_on', channel=0, note=60, velocity=75, time=1),\n",
       "    Message('note_on', channel=0, note=72, velocity=0, time=3),\n",
       "    Message('note_on', channel=0, note=60, velocity=0, time=33),\n",
       "    Message('note_on', channel=0, note=81, velocity=83, time=187),\n",
       "    Message('note_on', channel=0, note=69, velocity=89, time=2),\n",
       "    Message('note_on', channel=0, note=52, velocity=79, time=213),\n",
       "    Message('note_on', channel=0, note=52, velocity=0, time=47),\n",
       "    Message('note_on', channel=0, note=53, velocity=77, time=189),\n",
       "    Message('note_on', channel=0, note=53, velocity=0, time=40),\n",
       "    Message('note_on', channel=0, note=81, velocity=0, time=157),\n",
       "    Message('note_on', channel=0, note=55, velocity=84, time=25),\n",
       "    Message('note_on', channel=0, note=69, velocity=0, time=41),\n",
       "    Message('note_on', channel=0, note=55, velocity=0, time=45),\n",
       "    Message('note_on', channel=0, note=64, velocity=62, time=154),\n",
       "    Message('note_on', channel=0, note=64, velocity=0, time=39),\n",
       "    Message('note_on', channel=0, note=43, velocity=69, time=390),\n",
       "    Message('note_on', channel=0, note=62, velocity=59, time=0),\n",
       "    Message('note_on', channel=0, note=55, velocity=56, time=2),\n",
       "    Message('note_on', channel=0, note=43, velocity=0, time=44),\n",
       "    Message('note_on', channel=0, note=55, velocity=0, time=59),\n",
       "    Message('note_on', channel=0, note=62, velocity=0, time=23),\n",
       "    Message('note_on', channel=0, note=65, velocity=72, time=102),\n",
       "    Message('note_on', channel=0, note=65, velocity=0, time=42),\n",
       "    Message('note_on', channel=0, note=59, velocity=75, time=182),\n",
       "    Message('note_on', channel=0, note=59, velocity=0, time=51),\n",
       "    Message('note_on', channel=0, note=48, velocity=84, time=157),\n",
       "    Message('note_on', channel=0, note=48, velocity=0, time=61),\n",
       "    Message('note_on', channel=0, note=64, velocity=66, time=171),\n",
       "    Message('note_on', channel=0, note=64, velocity=0, time=44),\n",
       "    Message('note_on', channel=0, note=60, velocity=73, time=168),\n",
       "    Message('note_on', channel=0, note=60, velocity=0, time=40),\n",
       "    Message('note_on', channel=0, note=36, velocity=64, time=162),\n",
       "    Message('note_on', channel=0, note=36, velocity=0, time=42),\n",
       "    Message('control_change', channel=0, control=64, value=127, time=1642),\n",
       "    Message('control_change', channel=0, control=64, value=0, time=876),\n",
       "    Message('note_on', channel=0, note=72, velocity=86, time=43),\n",
       "    Message('note_on', channel=0, note=53, velocity=89, time=0),\n",
       "    Message('note_on', channel=0, note=60, velocity=89, time=1),\n",
       "    Message('note_on', channel=0, note=53, velocity=0, time=80),\n",
       "    Message('note_on', channel=0, note=60, velocity=0, time=4),\n",
       "    Message('note_on', channel=0, note=72, velocity=0, time=10),\n",
       "    Message('note_on', channel=0, note=53, velocity=50, time=163),\n",
       "    Message('note_on', channel=0, note=69, velocity=63, time=0),\n",
       "    Message('note_on', channel=0, note=65, velocity=55, time=3),\n",
       "    Message('note_on', channel=0, note=69, velocity=0, time=39),\n",
       "    Message('note_on', channel=0, note=53, velocity=0, time=17),\n",
       "    Message('note_on', channel=0, note=65, velocity=0, time=5),\n",
       "    Message('note_on', channel=0, note=69, velocity=71, time=165),\n",
       "    Message('note_on', channel=0, note=65, velocity=52, time=13),\n",
       "    Message('note_on', channel=0, note=69, velocity=0, time=30),\n",
       "    Message('note_on', channel=0, note=65, velocity=0, time=15),\n",
       "    Message('note_on', channel=0, note=53, velocity=88, time=151),\n",
       "    Message('note_on', channel=0, note=72, velocity=86, time=0),\n",
       "    Message('note_on', channel=0, note=60, velocity=87, time=1),\n",
       "    Message('note_on', channel=0, note=65, velocity=77, time=1),\n",
       "    Message('note_on', channel=0, note=65, velocity=0, time=86),\n",
       "    Message('note_on', channel=0, note=53, velocity=0, time=0),\n",
       "    Message('note_on', channel=0, note=60, velocity=0, time=7),\n",
       "    Message('note_on', channel=0, note=72, velocity=0, time=2),\n",
       "    Message('note_on', channel=0, note=69, velocity=67, time=139),\n",
       "    Message('note_on', channel=0, note=65, velocity=58, time=3),\n",
       "    Message('note_on', channel=0, note=53, velocity=52, time=1),\n",
       "    Message('note_on', channel=0, note=69, velocity=0, time=40),\n",
       "    Message('note_on', channel=0, note=65, velocity=0, time=7),\n",
       "    Message('note_on', channel=0, note=53, velocity=0, time=15),\n",
       "    Message('note_on', channel=0, note=53, velocity=50, time=167),\n",
       "    Message('note_on', channel=0, note=55, velocity=48, time=1),\n",
       "    Message('note_on', channel=0, note=69, velocity=65, time=1),\n",
       "    Message('note_on', channel=0, note=53, velocity=0, time=3),\n",
       "    Message('note_on', channel=0, note=55, velocity=0, time=0),\n",
       "    Message('note_on', channel=0, note=65, velocity=54, time=1),\n",
       "    Message('note_on', channel=0, note=69, velocity=0, time=30),\n",
       "    Message('note_on', channel=0, note=65, velocity=0, time=4),\n",
       "    Message('note_on', channel=0, note=53, velocity=70, time=204),\n",
       "    Message('note_on', channel=0, note=60, velocity=75, time=3),\n",
       "    Message('note_on', channel=0, note=69, velocity=81, time=1),\n",
       "    Message('control_change', channel=0, control=64, value=127, time=42),\n",
       "    Message('note_on', channel=0, note=67, velocity=80, time=181),\n",
       "    Message('note_on', channel=0, note=69, velocity=0, time=63),\n",
       "    Message('control_change', channel=0, control=64, value=0, time=11),\n",
       "    Message('control_change', channel=0, control=64, value=127, time=83),\n",
       "    Message('control_change', channel=0, control=64, value=0, time=46),\n",
       "    Message('note_on', channel=0, note=60, velocity=0, time=7),\n",
       "    Message('note_on', channel=0, note=53, velocity=0, time=31),\n",
       "    Message('note_on', channel=0, note=53, velocity=59, time=6),\n",
       "    Message('note_on', channel=0, note=81, velocity=81, time=2),\n",
       "    Message('note_on', channel=0, note=69, velocity=84, time=2),\n",
       "    Message('note_on', channel=0, note=67, velocity=0, time=63),\n",
       "    Message('note_on', channel=0, note=72, velocity=72, time=187),\n",
       "    Message('note_on', channel=0, note=70, velocity=79, time=3),\n",
       "    Message('note_on', channel=0, note=60, velocity=66, time=5),\n",
       "    Message('note_on', channel=0, note=81, velocity=0, time=1),\n",
       "    Message('note_on', channel=0, note=48, velocity=56, time=1),\n",
       "    Message('note_on', channel=0, note=67, velocity=59, time=2),\n",
       "    Message('note_on', channel=0, note=55, velocity=60, time=1),\n",
       "    Message('note_on', channel=0, note=53, velocity=0, time=27),\n",
       "    Message('note_on', channel=0, note=69, velocity=0, time=3),\n",
       "    Message('control_change', channel=0, control=64, value=127, time=196),\n",
       "    Message('control_change', channel=0, control=64, value=0, time=350),\n",
       "    Message('note_on', channel=0, note=55, velocity=0, time=17),\n",
       "    Message('note_on', channel=0, note=60, velocity=0, time=4),\n",
       "    Message('note_on', channel=0, note=48, velocity=0, time=6),\n",
       "    Message('note_on', channel=0, note=67, velocity=0, time=15),\n",
       "    Message('note_on', channel=0, note=72, velocity=0, time=0),\n",
       "    Message('note_on', channel=0, note=55, velocity=83, time=119),\n",
       "    Message('note_on', channel=0, note=72, velocity=78, time=0),\n",
       "    Message('note_on', channel=0, note=67, velocity=69, time=1),\n",
       "    Message('note_on', channel=0, note=60, velocity=84, time=0),\n",
       "    Message('note_on', channel=0, note=70, velocity=0, time=10),\n",
       "    Message('note_on', channel=0, note=55, velocity=0, time=86),\n",
       "    Message('note_on', channel=0, note=60, velocity=0, time=1),\n",
       "    Message('note_on', channel=0, note=67, velocity=0, time=13),\n",
       "    Message('note_on', channel=0, note=72, velocity=0, time=8),\n",
       "    Message('note_on', channel=0, note=67, velocity=64, time=135),\n",
       "    Message('note_on', channel=0, note=64, velocity=57, time=5),\n",
       "    Message('note_on', channel=0, note=67, velocity=0, time=32),\n",
       "    Message('note_on', channel=0, note=64, velocity=0, time=7),\n",
       "    Message('note_on', channel=0, note=79, velocity=68, time=171),\n",
       "    Message('note_on', channel=0, note=67, velocity=74, time=2),\n",
       "    Message('note_on', channel=0, note=64, velocity=57, time=13),\n",
       "    Message('note_on', channel=0, note=79, velocity=0, time=20),\n",
       "    Message('note_on', channel=0, note=67, velocity=0, time=2),\n",
       "    Message('note_on', channel=0, note=64, velocity=0, time=28),\n",
       "    Message('note_on', channel=0, note=72, velocity=81, time=152),\n",
       "    Message('note_on', channel=0, note=60, velocity=85, time=3),\n",
       "    Message('note_on', channel=0, note=55, velocity=84, time=1),\n",
       "    Message('note_on', channel=0, note=72, velocity=0, time=82),\n",
       "    Message('note_on', channel=0, note=60, velocity=0, time=10),\n",
       "    Message('note_on', channel=0, note=55, velocity=0, time=1),\n",
       "    Message('note_on', channel=0, note=79, velocity=61, time=146),\n",
       "    Message('note_on', channel=0, note=64, velocity=66, time=0),\n",
       "    Message('note_on', channel=0, note=67, velocity=62, time=2),\n",
       "    Message('note_on', channel=0, note=76, velocity=58, time=1),\n",
       "    Message('note_on', channel=0, note=79, velocity=0, time=1),\n",
       "    Message('note_on', channel=0, note=64, velocity=0, time=36),\n",
       "    Message('note_on', channel=0, note=67, velocity=0, time=2),\n",
       "    Message('note_on', channel=0, note=76, velocity=0, time=39),\n",
       "    Message('note_on', channel=0, note=79, velocity=63, time=140),\n",
       "    Message('note_on', channel=0, note=67, velocity=64, time=2),\n",
       "    Message('note_on', channel=0, note=76, velocity=56, time=0),\n",
       "    Message('note_on', channel=0, note=64, velocity=62, time=1),\n",
       "    Message('note_on', channel=0, note=79, velocity=0, time=28),\n",
       "    Message('note_on', channel=0, note=67, velocity=0, time=3),\n",
       "    Message('note_on', channel=0, note=64, velocity=0, time=1),\n",
       "    Message('note_on', channel=0, note=76, velocity=0, time=12),\n",
       "    Message('note_on', channel=0, note=79, velocity=77, time=189),\n",
       "    Message('note_on', channel=0, note=67, velocity=80, time=1),\n",
       "    Message('note_on', channel=0, note=58, velocity=77, time=3),\n",
       "    Message('note_on', channel=0, note=60, velocity=72, time=0),\n",
       "    Message('note_on', channel=0, note=65, velocity=66, time=248),\n",
       "    Message('note_on', channel=0, note=77, velocity=61, time=2),\n",
       "    Message('note_on', channel=0, note=67, velocity=0, time=51),\n",
       "    Message('note_on', channel=0, note=79, velocity=0, time=33),\n",
       "    Message('note_on', channel=0, note=79, velocity=67, time=156),\n",
       "    Message('note_on', channel=0, note=67, velocity=76, time=1),\n",
       "    Message('note_on', channel=0, note=60, velocity=0, time=15),\n",
       "    Message('note_on', channel=0, note=65, velocity=0, time=32),\n",
       "    Message('note_on', channel=0, note=77, velocity=0, time=42),\n",
       "    Message('note_on', channel=0, note=81, velocity=71, time=172),\n",
       "    Message('note_on', channel=0, note=69, velocity=74, time=3),\n",
       "    Message('note_on', channel=0, note=77, velocity=57, time=2),\n",
       "    Message('note_on', channel=0, note=60, velocity=59, time=3),\n",
       "    Message('note_on', channel=0, note=53, velocity=50, time=9),\n",
       "    Message('note_on', channel=0, note=67, velocity=0, time=32),\n",
       "    Message('note_on', channel=0, note=79, velocity=0, time=2),\n",
       "    Message('note_on', channel=0, note=58, velocity=0, time=15),\n",
       "    Message('control_change', channel=0, control=64, value=127, time=130),\n",
       "    Message('control_change', channel=0, control=64, value=0, time=334),\n",
       "    Message('note_on', channel=0, note=81, velocity=0, time=12),\n",
       "    Message('note_on', channel=0, note=53, velocity=0, time=70),\n",
       "    Message('note_on', channel=0, note=77, velocity=0, time=22),\n",
       "    Message('note_on', channel=0, note=60, velocity=0, time=3),\n",
       "    Message('control_change', channel=0, control=64, value=127, time=20),\n",
       "    Message('note_on', channel=0, note=69, velocity=0, time=39),\n",
       "    Message('control_change', channel=0, control=64, value=0, time=15),\n",
       "    Message('note_on', channel=0, note=53, velocity=77, time=51),\n",
       "    Message('note_on', channel=0, note=60, velocity=79, time=1),\n",
       "    Message('note_on', channel=0, note=53, velocity=0, time=42),\n",
       "    Message('note_on', channel=0, note=60, velocity=0, time=53),\n",
       "    Message('note_on', channel=0, note=69, velocity=58, time=155),\n",
       "    Message('note_on', channel=0, note=65, velocity=41, time=20),\n",
       "    Message('note_on', channel=0, note=69, velocity=0, time=18),\n",
       "    Message('note_on', channel=0, note=65, velocity=0, time=30),\n",
       "    Message('note_on', channel=0, note=65, velocity=55, time=157),\n",
       "    Message('note_on', channel=0, note=69, velocity=65, time=0),\n",
       "    Message('note_on', channel=0, note=69, velocity=0, time=34),\n",
       "    Message('note_on', channel=0, note=65, velocity=0, time=2),\n",
       "    Message('note_on', channel=0, note=53, velocity=83, time=178),\n",
       "    Message('note_on', channel=0, note=60, velocity=83, time=0),\n",
       "    Message('note_on', channel=0, note=65, velocity=70, time=1),\n",
       "    Message('note_on', channel=0, note=53, velocity=0, time=39),\n",
       "    Message('note_on', channel=0, note=65, velocity=0, time=6),\n",
       "    Message('note_on', channel=0, note=60, velocity=0, time=43),\n",
       "    Message('note_on', channel=0, note=69, velocity=72, time=149),\n",
       "    Message('note_on', channel=0, note=65, velocity=64, time=1),\n",
       "    Message('note_on', channel=0, note=69, velocity=0, time=35),\n",
       "    Message('note_on', channel=0, note=65, velocity=0, time=1),\n",
       "    Message('note_on', channel=0, note=69, velocity=65, time=204),\n",
       "    Message('note_on', channel=0, note=65, velocity=59, time=2),\n",
       "    Message('note_on', channel=0, note=69, velocity=0, time=31),\n",
       "    Message('note_on', channel=0, note=65, velocity=0, time=2),\n",
       "    Message('note_on', channel=0, note=69, velocity=87, time=207),\n",
       "    Message('note_on', channel=0, note=53, velocity=77, time=1),\n",
       "    Message('note_on', channel=0, note=60, velocity=78, time=2),\n",
       "    Message('note_on', channel=0, note=65, velocity=70, time=0),\n",
       "    Message('control_change', channel=0, control=64, value=127, time=63),\n",
       "    Message('note_on', channel=0, note=67, velocity=79, time=159),\n",
       "    Message('note_on', channel=0, note=69, velocity=0, time=53),\n",
       "    Message('control_change', channel=0, control=64, value=0, time=43),\n",
       "    Message('control_change', channel=0, control=64, value=127, time=22),\n",
       "    Message('note_on', channel=0, note=81, velocity=81, time=121),\n",
       "    Message('note_on', channel=0, note=69, velocity=85, time=3),\n",
       "    Message('note_on', channel=0, note=60, velocity=0, time=42),\n",
       "    Message('control_change', channel=0, control=64, value=0, time=3),\n",
       "    Message('note_on', channel=0, note=67, velocity=0, time=11),\n",
       "    Message('note_on', channel=0, note=70, velocity=77, time=200),\n",
       "    Message('note_on', channel=0, note=72, velocity=67, time=0),\n",
       "    Message('note_on', channel=0, note=67, velocity=63, time=6),\n",
       "    Message('note_on', channel=0, note=55, velocity=63, time=2),\n",
       "    Message('note_on', channel=0, note=60, velocity=66, time=0),\n",
       "    Message('note_on', channel=0, note=65, velocity=0, time=4),\n",
       "    Message('note_on', channel=0, note=81, velocity=0, time=3),\n",
       "    Message('note_on', channel=0, note=53, velocity=0, time=1),\n",
       "    Message('note_on', channel=0, note=69, velocity=0, time=34),\n",
       "    Message('control_change', channel=0, control=64, value=127, time=123),\n",
       "    Message('note_on', channel=0, note=70, velocity=0, time=463),\n",
       "    Message('note_on', channel=0, note=72, velocity=0, time=69),\n",
       "    Message('note_on', channel=0, note=60, velocity=0, time=2),\n",
       "    Message('control_change', channel=0, control=64, value=0, time=0),\n",
       "    Message('note_on', channel=0, note=67, velocity=0, time=3),\n",
       "    Message('note_on', channel=0, note=70, velocity=84, time=35),\n",
       "    Message('note_on', channel=0, note=55, velocity=0, time=14),\n",
       "    Message('control_change', channel=0, control=64, value=127, time=74),\n",
       "    Message('note_on', channel=0, note=48, velocity=67, time=145),\n",
       "    Message('control_change', channel=0, control=64, value=0, time=1),\n",
       "    Message('note_on', channel=0, note=74, velocity=84, time=2),\n",
       "    Message('note_on', channel=0, note=60, velocity=77, time=1),\n",
       "    Message('note_on', channel=0, note=72, velocity=76, time=1),\n",
       "    Message('note_on', channel=0, note=58, velocity=76, time=0),\n",
       "    Message('note_on', channel=0, note=48, velocity=0, time=4),\n",
       "    Message('note_on', channel=0, note=70, velocity=0, time=27),\n",
       "    Message('note_on', channel=0, note=60, velocity=0, time=6),\n",
       "    Message('note_on', channel=0, note=58, velocity=0, time=0),\n",
       "    Message('note_on', channel=0, note=74, velocity=0, time=2),\n",
       "    Message('note_on', channel=0, note=72, velocity=0, time=6),\n",
       "    Message('note_on', channel=0, note=79, velocity=74, time=185),\n",
       "    Message('note_on', channel=0, note=67, velocity=81, time=2),\n",
       "    Message('note_on', channel=0, note=48, velocity=63, time=7),\n",
       "    Message('note_on', channel=0, note=58, velocity=69, time=8),\n",
       "    Message('note_on', channel=0, note=48, velocity=0, time=3),\n",
       "    Message('note_on', channel=0, note=60, velocity=70, time=1),\n",
       "    Message('note_on', channel=0, note=79, velocity=0, time=23),\n",
       "    Message('note_on', channel=0, note=67, velocity=0, time=3),\n",
       "    Message('note_on', channel=0, note=58, velocity=0, time=7),\n",
       "    Message('note_on', channel=0, note=60, velocity=0, time=1),\n",
       "    Message('note_on', channel=0, note=57, velocity=51, time=168),\n",
       "    Message('note_on', channel=0, note=81, velocity=85, time=1),\n",
       "    Message('note_on', channel=0, note=69, velocity=89, time=2),\n",
       "    Message('note_on', channel=0, note=57, velocity=0, time=1),\n",
       "    Message('note_on', channel=0, note=72, velocity=80, time=237),\n",
       "    Message('note_on', channel=0, note=60, velocity=67, time=4),\n",
       "    Message('note_on', channel=0, note=57, velocity=67, time=1),\n",
       "    Message('note_on', channel=0, note=81, velocity=0, time=30),\n",
       "    Message('note_on', channel=0, note=69, velocity=0, time=3),\n",
       "    Message('note_on', channel=0, note=60, velocity=0, time=8),\n",
       "    Message('note_on', channel=0, note=72, velocity=0, time=3),\n",
       "    Message('note_on', channel=0, note=57, velocity=0, time=2),\n",
       "    Message('note_on', channel=0, note=65, velocity=69, time=179),\n",
       "    Message('note_on', channel=0, note=57, velocity=66, time=12),\n",
       "    Message('note_on', channel=0, note=50, velocity=51, time=1),\n",
       "    Message('note_on', channel=0, note=60, velocity=59, time=9),\n",
       "    Message('note_on', channel=0, note=50, velocity=0, time=3),\n",
       "    Message('note_on', channel=0, note=65, velocity=0, time=19),\n",
       "    Message('note_on', channel=0, note=57, velocity=0, time=1),\n",
       "    Message('note_on', channel=0, note=60, velocity=0, time=8),\n",
       "    Message('note_on', channel=0, note=79, velocity=75, time=165),\n",
       "    Message('note_on', channel=0, note=67, velocity=86, time=1),\n",
       "    Message('note_on', channel=0, note=79, velocity=0, time=174),\n",
       "    Message('note_on', channel=0, note=70, velocity=76, time=68),\n",
       "    Message('note_on', channel=0, note=55, velocity=72, time=12),\n",
       "    Message('note_on', channel=0, note=60, velocity=74, time=1),\n",
       "    Message('note_on', channel=0, note=52, velocity=58, time=1),\n",
       "    Message('note_on', channel=0, note=48, velocity=63, time=0),\n",
       "    Message('note_on', channel=0, note=67, velocity=0, time=28),\n",
       "    Message('note_on', channel=0, note=55, velocity=0, time=9),\n",
       "    Message('note_on', channel=0, note=70, velocity=0, time=1),\n",
       "    Message('note_on', channel=0, note=60, velocity=0, time=1),\n",
       "    Message('note_on', channel=0, note=48, velocity=0, time=5),\n",
       "    Message('note_on', channel=0, note=52, velocity=0, time=5),\n",
       "    Message('note_on', channel=0, note=64, velocity=79, time=164),\n",
       "    Message('note_on', channel=0, note=55, velocity=69, time=9),\n",
       "    Message('note_on', channel=0, note=52, velocity=57, time=0),\n",
       "    Message('note_on', channel=0, note=48, velocity=59, time=2),\n",
       "    Message('note_on', channel=0, note=60, velocity=74, time=1),\n",
       "    Message('note_on', channel=0, note=48, velocity=0, time=8),\n",
       "    Message('note_on', channel=0, note=55, velocity=0, time=26),\n",
       "    Message('note_on', channel=0, note=60, velocity=0, time=1),\n",
       "    Message('note_on', channel=0, note=64, velocity=0, time=1),\n",
       "    Message('note_on', channel=0, note=52, velocity=0, time=3),\n",
       "    Message('note_on', channel=0, note=77, velocity=75, time=216),\n",
       "    Message('note_on', channel=0, note=65, velocity=79, time=1),\n",
       "    Message('note_on', channel=0, note=60, velocity=73, time=0),\n",
       "    Message('note_on', channel=0, note=72, velocity=74, time=1),\n",
       "    Message('note_on', channel=0, note=53, velocity=61, time=3),\n",
       "    Message('note_on', channel=0, note=57, velocity=60, time=3),\n",
       "    Message('note_on', channel=0, note=77, velocity=0, time=83),\n",
       "    Message('control_change', channel=0, control=64, value=127, time=38),\n",
       "    Message('note_on', channel=0, note=65, velocity=0, time=645),\n",
       "    Message('note_on', channel=0, note=65, velocity=35, time=4),\n",
       "    Message('control_change', channel=0, control=64, value=0, time=26),\n",
       "    Message('note_on', channel=0, note=53, velocity=0, time=5),\n",
       "    Message('note_on', channel=0, note=60, velocity=0, time=1),\n",
       "    Message('note_on', channel=0, note=57, velocity=0, time=0),\n",
       "    Message('note_on', channel=0, note=72, velocity=0, time=5),\n",
       "    Message('note_on', channel=0, note=65, velocity=0, time=43),\n",
       "    Message('note_on', channel=0, note=79, velocity=76, time=4535),\n",
       "    Message('note_on', channel=0, note=67, velocity=83, time=1),\n",
       "    Message('note_on', channel=0, note=55, velocity=75, time=1),\n",
       "    Message('note_on', channel=0, note=67, velocity=0, time=233),\n",
       "    Message('note_on', channel=0, note=74, velocity=68, time=4),\n",
       "    Message('note_on', channel=0, note=67, velocity=61, time=3),\n",
       "    Message('note_on', channel=0, note=62, velocity=53, time=5),\n",
       "    Message('note_on', channel=0, note=55, velocity=0, time=4),\n",
       "    Message('note_on', channel=0, note=55, velocity=48, time=4),\n",
       "    Message('note_on', channel=0, note=79, velocity=0, time=3),\n",
       "    Message('note_on', channel=0, note=67, velocity=0, time=20),\n",
       "    Message('note_on', channel=0, note=55, velocity=0, time=50),\n",
       "    Message('note_on', channel=0, note=60, velocity=67, time=126),\n",
       "    Message('note_on', channel=0, note=72, velocity=79, time=1),\n",
       "    Message('note_on', channel=0, note=74, velocity=0, time=40),\n",
       "    Message('note_on', channel=0, note=62, velocity=0, time=1),\n",
       "    Message('note_on', channel=0, note=60, velocity=0, time=154),\n",
       "    Message('note_on', channel=0, note=74, velocity=68, time=5),\n",
       "    Message('note_on', channel=0, note=60, velocity=50, time=4),\n",
       "    Message('note_on', channel=0, note=62, velocity=49, time=3),\n",
       "    Message('note_on', channel=0, note=72, velocity=0, time=39),\n",
       "    Message('note_on', channel=0, note=60, velocity=0, time=6),\n",
       "    Message('note_on', channel=0, note=59, velocity=78, time=145),\n",
       "    Message('note_on', channel=0, note=71, velocity=86, time=2),\n",
       "    Message('note_on', channel=0, note=74, velocity=0, time=34),\n",
       "    Message('note_on', channel=0, note=62, velocity=0, time=15),\n",
       "    Message('note_on', channel=0, note=62, velocity=51, time=166),\n",
       "    Message('note_on', channel=0, note=74, velocity=55, time=1),\n",
       "    Message('note_on', channel=0, note=71, velocity=0, time=58),\n",
       "    Message('note_on', channel=0, note=59, velocity=0, time=40),\n",
       "    Message('note_on', channel=0, note=69, velocity=70, time=110),\n",
       "    Message('note_on', channel=0, note=57, velocity=58, time=4),\n",
       "    Message('note_on', channel=0, note=74, velocity=0, time=40),\n",
       "    Message('note_on', channel=0, note=62, velocity=0, time=9),\n",
       "    Message('note_on', channel=0, note=74, velocity=65, time=137),\n",
       "    Message('note_on', channel=0, note=62, velocity=42, time=21),\n",
       "    Message('note_on', channel=0, note=57, velocity=0, time=19),\n",
       "    Message('note_on', channel=0, note=69, velocity=0, time=13),\n",
       "    Message('note_on', channel=0, note=55, velocity=76, time=131),\n",
       "    Message('note_on', channel=0, note=79, velocity=72, time=1),\n",
       "    Message('note_on', channel=0, note=67, velocity=78, time=2),\n",
       "    Message('note_on', channel=0, note=62, velocity=0, time=38),\n",
       "    Message('note_on', channel=0, note=74, velocity=0, time=40),\n",
       "    Message('note_on', channel=0, note=79, velocity=0, time=138),\n",
       "    Message('note_on', channel=0, note=74, velocity=43, time=19),\n",
       "    Message('note_on', channel=0, note=62, velocity=43, time=1),\n",
       "    Message('note_on', channel=0, note=55, velocity=0, time=26),\n",
       "    Message('note_on', channel=0, note=74, velocity=0, time=23),\n",
       "    Message('note_on', channel=0, note=67, velocity=0, time=23),\n",
       "    Message('note_on', channel=0, note=72, velocity=89, time=106),\n",
       "    Message('note_on', channel=0, note=60, velocity=74, time=1),\n",
       "    Message('note_on', channel=0, note=62, velocity=0, time=36),\n",
       "    Message('note_on', channel=0, note=74, velocity=59, time=145),\n",
       "    Message('note_on', channel=0, note=60, velocity=0, time=27),\n",
       "    Message('note_on', channel=0, note=62, velocity=45, time=4),\n",
       "    Message('note_on', channel=0, note=60, velocity=47, time=1),\n",
       "    Message('note_on', channel=0, note=72, velocity=0, time=6),\n",
       "    Message('note_on', channel=0, note=60, velocity=0, time=35),\n",
       "    Message('note_on', channel=0, note=74, velocity=0, time=85),\n",
       "    Message('note_on', channel=0, note=59, velocity=76, time=50),\n",
       "    Message('note_on', channel=0, note=71, velocity=83, time=6),\n",
       "    Message('note_on', channel=0, note=62, velocity=0, time=55),\n",
       "    Message('note_on', channel=0, note=62, velocity=52, time=162),\n",
       "    Message('note_on', channel=0, note=74, velocity=55, time=7),\n",
       "    Message('note_on', channel=0, note=59, velocity=0, time=27),\n",
       "    Message('note_on', channel=0, note=71, velocity=0, time=4),\n",
       "    Message('note_on', channel=0, note=59, velocity=41, time=1),\n",
       "    Message('note_on', channel=0, note=59, velocity=0, time=33),\n",
       "    Message('note_on', channel=0, note=81, velocity=74, time=112),\n",
       "    Message('note_on', channel=0, note=69, velocity=75, time=3),\n",
       "    Message('note_on', channel=0, note=57, velocity=66, time=2),\n",
       "    Message('note_on', channel=0, note=74, velocity=0, time=22),\n",
       "    Message('note_on', channel=0, note=62, velocity=0, time=24),\n",
       "    Message('note_on', channel=0, note=62, velocity=52, time=162),\n",
       "    Message('note_on', channel=0, note=74, velocity=56, time=1),\n",
       "    Message('note_on', channel=0, note=57, velocity=0, time=28),\n",
       "    Message('note_on', channel=0, note=69, velocity=0, time=12),\n",
       "    Message('note_on', channel=0, note=81, velocity=0, time=80),\n",
       "    Message('note_on', channel=0, note=55, velocity=74, time=44),\n",
       "    Message('note_on', channel=0, note=79, velocity=76, time=0),\n",
       "    Message('note_on', channel=0, note=67, velocity=81, time=1),\n",
       "    Message('note_on', channel=0, note=62, velocity=0, time=36),\n",
       "    Message('note_on', channel=0, note=74, velocity=0, time=34),\n",
       "    Message('note_on', channel=0, note=67, velocity=0, time=54),\n",
       "    Message('note_on', channel=0, note=74, velocity=53, time=64),\n",
       "    Message('note_on', channel=0, note=79, velocity=0, time=30),\n",
       "    Message('note_on', channel=0, note=55, velocity=0, time=3),\n",
       "    Message('note_on', channel=0, note=74, velocity=0, time=13),\n",
       "    Message('note_on', channel=0, note=62, velocity=33, time=24),\n",
       "    Message('note_on', channel=0, note=72, velocity=85, time=148),\n",
       "    Message('note_on', channel=0, note=60, velocity=71, time=4),\n",
       "    Message('note_on', channel=0, note=62, velocity=0, time=39),\n",
       "    Message('note_on', channel=0, note=62, velocity=52, time=140),\n",
       "    Message('note_on', channel=0, note=74, velocity=59, time=15),\n",
       "    Message('note_on', channel=0, note=72, velocity=0, time=11),\n",
       "    Message('note_on', channel=0, note=60, velocity=0, time=8),\n",
       "    Message('note_on', channel=0, note=72, velocity=44, time=4),\n",
       "    Message('note_on', channel=0, note=60, velocity=39, time=1),\n",
       "    Message('note_on', channel=0, note=72, velocity=0, time=24),\n",
       "    Message('note_on', channel=0, note=60, velocity=0, time=7),\n",
       "    Message('note_on', channel=0, note=59, velocity=75, time=132),\n",
       "    Message('note_on', channel=0, note=71, velocity=86, time=3),\n",
       "    Message('note_on', channel=0, note=74, velocity=0, time=25),\n",
       "    Message('note_on', channel=0, note=62, velocity=0, time=7),\n",
       "    Message('note_on', channel=0, note=62, velocity=54, time=186),\n",
       "    Message('note_on', channel=0, note=74, velocity=59, time=0),\n",
       "    Message('note_on', channel=0, note=59, velocity=0, time=18),\n",
       "    Message('note_on', channel=0, note=59, velocity=40, time=6),\n",
       "    Message('note_on', channel=0, note=71, velocity=0, time=22),\n",
       "    Message('note_on', channel=0, note=59, velocity=0, time=7),\n",
       "    Message('note_on', channel=0, note=81, velocity=75, time=122),\n",
       "    Message('note_on', channel=0, note=69, velocity=74, time=1),\n",
       "    Message('note_on', channel=0, note=57, velocity=64, time=4),\n",
       "    Message('note_on', channel=0, note=74, velocity=0, time=35),\n",
       "    Message('note_on', channel=0, note=62, velocity=0, time=21),\n",
       "    Message('note_on', channel=0, note=62, velocity=56, time=141),\n",
       "    Message('note_on', channel=0, note=69, velocity=0, time=2),\n",
       "    Message('note_on', channel=0, note=69, velocity=54, time=8),\n",
       "    Message('note_on', channel=0, note=74, velocity=68, time=1),\n",
       "    Message('note_on', channel=0, note=57, velocity=0, time=19),\n",
       "    Message('note_on', channel=0, note=69, velocity=0, time=13),\n",
       "    Message('note_on', channel=0, note=81, velocity=0, time=5),\n",
       "    Message('note_on', channel=0, note=74, velocity=0, time=161),\n",
       "    Message('note_on', channel=0, note=79, velocity=74, time=7),\n",
       "    Message('note_on', channel=0, note=55, velocity=67, time=1),\n",
       "    Message('note_on', channel=0, note=67, velocity=79, time=2),\n",
       "    Message('note_on', channel=0, note=74, velocity=62, time=1),\n",
       "    Message('note_on', channel=0, note=62, velocity=0, time=46),\n",
       "    Message('control_change', channel=0, control=64, value=127, time=281),\n",
       "    Message('note_on', channel=0, note=74, velocity=0, time=1022),\n",
       "    Message('control_change', channel=0, control=64, value=0, time=15),\n",
       "    Message('note_on', channel=0, note=79, velocity=0, time=4),\n",
       "    Message('note_on', channel=0, note=67, velocity=0, time=6),\n",
       "    Message('note_on', channel=0, note=55, velocity=0, time=1),\n",
       "    Message('note_on', channel=0, note=79, velocity=77, time=181),\n",
       "    Message('note_on', channel=0, note=67, velocity=85, time=0),\n",
       "    Message('note_on', channel=0, note=55, velocity=79, time=2),\n",
       "    Message('note_on', channel=0, note=67, velocity=0, time=205),\n",
       "    Message('note_on', channel=0, note=74, velocity=63, time=10),\n",
       "    Message('note_on', channel=0, note=67, velocity=55, time=1),\n",
       "    Message('note_on', channel=0, note=62, velocity=42, time=1),\n",
       "    Message('note_on', channel=0, note=79, velocity=0, time=48),\n",
       "    Message('note_on', channel=0, note=67, velocity=0, time=6),\n",
       "    Message('note_on', channel=0, note=55, velocity=0, time=19),\n",
       "    Message('note_on', channel=0, note=60, velocity=73, time=113),\n",
       "    Message('note_on', channel=0, note=72, velocity=87, time=4),\n",
       "    Message('note_on', channel=0, note=74, velocity=0, time=13),\n",
       "    Message('note_on', channel=0, note=62, velocity=0, time=65),\n",
       "    Message('note_on', channel=0, note=74, velocity=59, time=117),\n",
       "    Message('note_on', channel=0, note=60, velocity=0, time=18),\n",
       "    Message('note_on', channel=0, note=60, velocity=34, time=6),\n",
       "    Message('note_on', channel=0, note=62, velocity=33, time=6),\n",
       "    Message('note_on', channel=0, note=72, velocity=0, time=31),\n",
       "    Message('note_on', channel=0, note=60, velocity=0, time=23),\n",
       "    Message('note_on', channel=0, note=59, velocity=75, time=114),\n",
       "    Message('note_on', channel=0, note=71, velocity=84, time=4),\n",
       "    Message('note_on', channel=0, note=74, velocity=0, time=31),\n",
       "    Message('note_on', channel=0, note=62, velocity=0, time=36),\n",
       "    Message('note_on', channel=0, note=62, velocity=50, time=152),\n",
       "    Message('note_on', channel=0, note=74, velocity=47, time=2),\n",
       "    Message('note_on', channel=0, note=71, velocity=0, time=40),\n",
       "    Message('note_on', channel=0, note=59, velocity=0, time=16),\n",
       "    Message('note_on', channel=0, note=74, velocity=0, time=107),\n",
       "    Message('note_on', channel=0, note=57, velocity=65, time=20),\n",
       "    Message('note_on', channel=0, note=69, velocity=74, time=0),\n",
       "    Message('note_on', channel=0, note=62, velocity=0, time=59),\n",
       "    Message('note_on', channel=0, note=74, velocity=60, time=154),\n",
       "    Message('note_on', channel=0, note=62, velocity=49, time=1),\n",
       "    Message('note_on', channel=0, note=57, velocity=0, time=10),\n",
       "    Message('note_on', channel=0, note=69, velocity=0, time=45),\n",
       "    Message('note_on', channel=0, note=74, velocity=0, time=103),\n",
       "    Message('note_on', channel=0, note=55, velocity=77, time=3),\n",
       "    Message('note_on', channel=0, note=79, velocity=74, time=0),\n",
       "    Message('note_on', channel=0, note=74, velocity=69, time=1),\n",
       "    Message('note_on', channel=0, note=67, velocity=78, time=1),\n",
       "    Message('note_on', channel=0, note=62, velocity=0, time=45),\n",
       "    Message('note_on', channel=0, note=74, velocity=0, time=173),\n",
       "    Message('note_on', channel=0, note=55, velocity=0, time=7),\n",
       "    Message('note_on', channel=0, note=74, velocity=51, time=3),\n",
       "    Message('note_on', channel=0, note=62, velocity=40, time=1),\n",
       "    Message('note_on', channel=0, note=55, velocity=37, time=7),\n",
       "    Message('note_on', channel=0, note=74, velocity=0, time=26),\n",
       "    Message('note_on', channel=0, note=55, velocity=0, time=17),\n",
       "    Message('note_on', channel=0, note=67, velocity=0, time=16),\n",
       "    Message('note_on', channel=0, note=79, velocity=0, time=0),\n",
       "    Message('note_on', channel=0, note=60, velocity=69, time=107),\n",
       "    Message('note_on', channel=0, note=72, velocity=82, time=1),\n",
       "    Message('note_on', channel=0, note=62, velocity=0, time=42),\n",
       "    Message('note_on', channel=0, note=74, velocity=57, time=152),\n",
       "    Message('note_on', channel=0, note=62, velocity=35, time=10),\n",
       "    Message('note_on', channel=0, note=72, velocity=0, time=36),\n",
       "    Message('note_on', channel=0, note=60, velocity=0, time=23),\n",
       "    Message('note_on', channel=0, note=59, velocity=74, time=124),\n",
       "    Message('note_on', channel=0, note=71, velocity=81, time=4),\n",
       "    Message('note_on', channel=0, note=74, velocity=0, time=23),\n",
       "    Message('note_on', channel=0, note=62, velocity=0, time=38),\n",
       "    Message('note_on', channel=0, note=62, velocity=47, time=150),\n",
       "    Message('note_on', channel=0, note=74, velocity=57, time=4),\n",
       "    Message('note_on', channel=0, note=71, velocity=0, time=49),\n",
       "    Message('note_on', channel=0, note=59, velocity=0, time=14),\n",
       "    Message('note_on', channel=0, note=81, velocity=72, time=119),\n",
       "    Message('note_on', channel=0, note=57, velocity=65, time=0),\n",
       "    Message('note_on', channel=0, note=69, velocity=73, time=4),\n",
       "    Message('note_on', channel=0, note=74, velocity=0, time=36),\n",
       "    Message('note_on', channel=0, note=62, velocity=0, time=4),\n",
       "    Message('note_on', channel=0, note=69, velocity=0, time=165),\n",
       "    Message('note_on', channel=0, note=74, velocity=61, time=3),\n",
       "    Message('note_on', channel=0, note=69, velocity=45, time=2),\n",
       "    Message('note_on', channel=0, note=57, velocity=0, time=13),\n",
       "    Message('note_on', channel=0, note=62, velocity=39, time=1),\n",
       "    Message('note_on', channel=0, note=69, velocity=0, time=38),\n",
       "    Message('note_on', channel=0, note=81, velocity=0, time=36),\n",
       "    Message('note_on', channel=0, note=74, velocity=0, time=69),\n",
       "    Message('note_on', channel=0, note=55, velocity=78, time=3),\n",
       "    Message('note_on', channel=0, note=79, velocity=75, time=3),\n",
       "    Message('note_on', channel=0, note=67, velocity=80, time=4),\n",
       "    Message('note_on', channel=0, note=74, velocity=68, time=0),\n",
       "    Message('note_on', channel=0, note=62, velocity=0, time=41),\n",
       "    Message('note_on', channel=0, note=74, velocity=0, time=18),\n",
       "    Message('note_on', channel=0, note=74, velocity=59, time=152),\n",
       "    Message('note_on', channel=0, note=55, velocity=0, time=1),\n",
       "    Message('note_on', channel=0, note=62, velocity=46, time=10),\n",
       "    Message('note_on', channel=0, note=55, velocity=43, time=0),\n",
       "    Message('note_on', channel=0, note=67, velocity=0, time=26),\n",
       "    Message('note_on', channel=0, note=55, velocity=0, time=26),\n",
       "    Message('note_on', channel=0, note=74, velocity=0, time=0),\n",
       "    Message('note_on', channel=0, note=79, velocity=0, time=8),\n",
       "    Message('note_on', channel=0, note=72, velocity=79, time=106),\n",
       "    Message('note_on', channel=0, note=60, velocity=71, time=1),\n",
       "    Message('note_on', channel=0, note=62, velocity=0, time=43),\n",
       "    Message('note_on', channel=0, note=74, velocity=54, time=164),\n",
       "    Message('note_on', channel=0, note=60, velocity=0, time=16),\n",
       "    Message('note_on', channel=0, note=62, velocity=34, time=9),\n",
       "    Message('note_on', channel=0, note=60, velocity=41, time=2),\n",
       "    Message('note_on', channel=0, note=72, velocity=0, time=18),\n",
       "    Message('note_on', channel=0, note=60, velocity=0, time=32),\n",
       "    Message('note_on', channel=0, note=59, velocity=75, time=99),\n",
       "    Message('note_on', channel=0, note=74, velocity=0, time=1),\n",
       "    Message('note_on', channel=0, note=71, velocity=80, time=3),\n",
       "    Message('note_on', channel=0, note=62, velocity=0, time=66),\n",
       "    Message('note_on', channel=0, note=62, velocity=52, time=135),\n",
       "    Message('note_on', channel=0, note=74, velocity=61, time=1),\n",
       "    Message('note_on', channel=0, note=71, velocity=0, time=45),\n",
       "    Message('note_on', channel=0, note=59, velocity=0, time=9),\n",
       "    Message('note_on', channel=0, note=69, velocity=70, time=130),\n",
       "    Message('note_on', channel=0, note=57, velocity=64, time=1),\n",
       "    Message('note_on', channel=0, note=74, velocity=0, time=55),\n",
       "    Message('note_on', channel=0, note=62, velocity=0, time=10),\n",
       "    Message('note_on', channel=0, note=57, velocity=0, time=134),\n",
       "    Message('note_on', channel=0, note=62, velocity=39, time=17),\n",
       "    Message('note_on', channel=0, note=74, velocity=48, time=2),\n",
       "    Message('note_on', channel=0, note=69, velocity=0, time=28),\n",
       "    Message('note_on', channel=0, note=74, velocity=0, time=178),\n",
       "    Message('note_on', channel=0, note=67, velocity=66, time=3),\n",
       "    Message('note_on', channel=0, note=55, velocity=48, time=1),\n",
       "    Message('note_on', channel=0, note=74, velocity=49, time=1),\n",
       "    Message('note_on', channel=0, note=62, velocity=0, time=62),\n",
       "    Message('note_on', channel=0, note=74, velocity=0, time=1193),\n",
       "    Message('note_on', channel=0, note=67, velocity=0, time=335),\n",
       "    Message('note_on', channel=0, note=55, velocity=0, time=0),\n",
       "    Message('note_on', channel=0, note=74, velocity=86, time=1863),\n",
       "    Message('note_on', channel=0, note=59, velocity=61, time=20),\n",
       "    Message('note_on', channel=0, note=60, velocity=40, time=342),\n",
       "    Message('note_on', channel=0, note=62, velocity=46, time=1),\n",
       "    Message('note_on', channel=0, note=60, velocity=0, time=4),\n",
       "    Message('note_on', channel=0, note=59, velocity=0, time=25),\n",
       "    Message('note_on', channel=0, note=57, velocity=57, time=273),\n",
       "    Message('note_on', channel=0, note=72, velocity=84, time=5),\n",
       "    Message('note_on', channel=0, note=62, velocity=0, time=104),\n",
       "    Message('note_on', channel=0, note=74, velocity=0, time=12),\n",
       "    Message('note_on', channel=0, note=62, velocity=54, time=205),\n",
       "    Message('note_on', channel=0, note=57, velocity=0, time=24),\n",
       "    Message('note_on', channel=0, note=55, velocity=52, time=276),\n",
       "    Message('note_on', channel=0, note=71, velocity=75, time=0),\n",
       "    Message('note_on', channel=0, note=62, velocity=0, time=86),\n",
       "    Message('note_on', channel=0, note=72, velocity=0, time=76),\n",
       "    Message('note_on', channel=0, note=62, velocity=34, time=176),\n",
       "    Message('note_on', channel=0, note=55, velocity=0, time=9),\n",
       "    Message('note_on', channel=0, note=71, velocity=0, time=288),\n",
       "    Message('note_on', channel=0, note=59, velocity=56, time=4),\n",
       "    Message('note_on', channel=0, note=71, velocity=47, time=1),\n",
       "    Message('note_on', channel=0, note=62, velocity=0, time=124),\n",
       "    Message('note_on', channel=0, note=59, velocity=0, time=186),\n",
       "    Message('note_on', channel=0, note=62, velocity=50, time=3),\n",
       "    Message('note_on', channel=0, note=59, velocity=42, time=1),\n",
       "    Message('note_on', channel=0, note=59, velocity=0, time=38),\n",
       "    Message('note_on', channel=0, note=69, velocity=75, time=247),\n",
       "    Message('note_on', channel=0, note=60, velocity=62, time=1),\n",
       "    Message('note_on', channel=0, note=81, velocity=72, time=0),\n",
       "    Message('note_on', channel=0, note=81, velocity=0, time=9),\n",
       "    Message('note_on', channel=0, note=71, velocity=0, time=12),\n",
       "    Message('note_on', channel=0, note=62, velocity=0, time=126),\n",
       "    Message('note_on', channel=0, note=71, velocity=85, time=149),\n",
       "    Message('note_on', channel=0, note=69, velocity=0, time=23),\n",
       "    Message('control_change', channel=0, control=64, value=127, time=28),\n",
       "    Message('control_change', channel=0, control=64, value=0, time=39),\n",
       "    Message('note_on', channel=0, note=72, velocity=85, time=213),\n",
       "    Message('note_on', channel=0, note=60, velocity=0, time=2),\n",
       "    Message('note_on', channel=0, note=57, velocity=63, time=9),\n",
       "    Message('note_on', channel=0, note=60, velocity=52, time=2),\n",
       "    Message('note_on', channel=0, note=71, velocity=0, time=92),\n",
       "    Message('note_on', channel=0, note=60, velocity=0, time=7),\n",
       "    Message('note_on', channel=0, note=69, velocity=73, time=206),\n",
       "    Message('note_on', channel=0, note=72, velocity=0, time=106),\n",
       "    Message('note_on', channel=0, note=67, velocity=72, time=189),\n",
       "    Message('note_on', channel=0, note=55, velocity=49, time=3),\n",
       "    Message('note_on', channel=0, note=69, velocity=0, time=88),\n",
       "    Message('note_on', channel=0, note=57, velocity=0, time=12),\n",
       "    Message('note_on', channel=0, note=62, velocity=42, time=231),\n",
       "    Message('note_on', channel=0, note=55, velocity=0, time=40),\n",
       "    Message('note_on', channel=0, note=59, velocity=54, time=239),\n",
       "    Message('note_on', channel=0, note=62, velocity=0, time=123),\n",
       "    Message('note_on', channel=0, note=62, velocity=47, time=193),\n",
       "    Message('note_on', channel=0, note=59, velocity=0, time=9),\n",
       "    Message('note_on', channel=0, note=71, velocity=76, time=252),\n",
       "    Message('note_on', channel=0, note=62, velocity=0, time=26),\n",
       "    Message('note_on', channel=0, note=55, velocity=53, time=5),\n",
       "    Message('note_on', channel=0, note=62, velocity=42, time=5),\n",
       "    Message('control_change', channel=0, control=64, value=127, time=90),\n",
       "    Message('note_on', channel=0, note=62, velocity=0, time=10),\n",
       "    Message('note_on', channel=0, note=67, velocity=0, time=21),\n",
       "    Message('control_change', channel=0, control=64, value=0, time=31),\n",
       "    Message('note_on', channel=0, note=72, velocity=89, time=122),\n",
       "    Message('control_change', channel=0, control=64, value=127, time=16),\n",
       "    Message('note_on', channel=0, note=71, velocity=0, time=15),\n",
       "    Message('control_change', channel=0, control=64, value=0, time=85),\n",
       "    Message('note_on', channel=0, note=74, velocity=87, time=167),\n",
       "    Message('note_on', channel=0, note=59, velocity=70, time=15),\n",
       "    Message('note_on', channel=0, note=55, velocity=0, time=82),\n",
       "    Message('note_on', channel=0, note=72, velocity=0, time=1),\n",
       "    Message('note_on', channel=0, note=71, velocity=78, time=187),\n",
       "    Message('note_on', channel=0, note=74, velocity=0, time=67),\n",
       "    Message('note_on', channel=0, note=69, velocity=80, time=222),\n",
       "    Message('note_on', channel=0, note=60, velocity=72, time=30),\n",
       "    Message('note_on', channel=0, note=59, velocity=0, time=40),\n",
       "    Message('note_on', channel=0, note=71, velocity=0, time=8),\n",
       "    Message('note_on', channel=0, note=71, velocity=86, time=220),\n",
       "    Message('control_change', channel=0, control=64, value=127, time=13),\n",
       "    Message('note_on', channel=0, note=69, velocity=0, time=83),\n",
       "    Message('control_change', channel=0, control=64, value=0, time=25),\n",
       "    Message('note_on', channel=0, note=72, velocity=82, time=170),\n",
       "    Message('note_on', channel=0, note=57, velocity=66, time=5),\n",
       "    Message('note_on', channel=0, note=69, velocity=63, time=5),\n",
       "    Message('note_on', channel=0, note=71, velocity=0, time=50),\n",
       "    Message('note_on', channel=0, note=60, velocity=0, time=11),\n",
       "    Message('note_on', channel=0, note=69, velocity=0, time=212),\n",
       "    Message('note_on', channel=0, note=69, velocity=67, time=4),\n",
       "    Message('note_on', channel=0, note=72, velocity=0, time=135),\n",
       "    Message('note_on', channel=0, note=71, velocity=79, time=157),\n",
       "    Message('note_on', channel=0, note=55, velocity=65, time=3),\n",
       "    Message('note_on', channel=0, note=69, velocity=0, time=72),\n",
       "    Message('note_on', channel=0, note=57, velocity=0, time=13),\n",
       "    Message('note_on', channel=0, note=72, velocity=83, time=199),\n",
       "    Message('note_on', channel=0, note=71, velocity=0, time=0),\n",
       "    Message('note_on', channel=0, note=71, velocity=66, time=4),\n",
       "    Message('note_on', channel=0, note=71, velocity=0, time=78),\n",
       "    Message('note_on', channel=0, note=74, velocity=84, time=185),\n",
       "    Message('note_on', channel=0, note=59, velocity=71, time=16),\n",
       "    Message('note_on', channel=0, note=71, velocity=64, time=4),\n",
       "    Message('note_on', channel=0, note=72, velocity=0, time=23),\n",
       "    Message('note_on', channel=0, note=55, velocity=0, time=82),\n",
       "    Message('note_on', channel=0, note=71, velocity=0, time=161),\n",
       "    Message('note_on', channel=0, note=71, velocity=79, time=9),\n",
       "    Message('note_on', channel=0, note=74, velocity=0, time=62),\n",
       "    Message('note_on', channel=0, note=69, velocity=75, time=234),\n",
       "    Message('note_on', channel=0, note=60, velocity=70, time=9),\n",
       "    Message('note_on', channel=0, note=71, velocity=0, time=76),\n",
       "    Message('note_on', channel=0, note=59, velocity=0, time=0),\n",
       "    Message('note_on', channel=0, note=71, velocity=80, time=193),\n",
       "    Message('control_change', channel=0, control=64, value=127, time=16),\n",
       "    Message('note_on', channel=0, note=69, velocity=0, time=149),\n",
       "    Message('control_change', channel=0, control=64, value=0, time=20),\n",
       "    Message('note_on', channel=0, note=72, velocity=76, time=102),\n",
       "    Message('note_on', channel=0, note=57, velocity=55, time=17),\n",
       "    Message('note_on', channel=0, note=71, velocity=0, time=46),\n",
       "    Message('note_on', channel=0, note=60, velocity=0, time=50),\n",
       "    Message('note_on', channel=0, note=69, velocity=50, time=208),\n",
       "    Message('note_on', channel=0, note=72, velocity=0, time=114),\n",
       "    Message('note_on', channel=0, note=74, velocity=79, time=166),\n",
       "    Message('note_on', channel=0, note=59, velocity=56, time=3),\n",
       "    Message('note_on', channel=0, note=69, velocity=0, time=90),\n",
       "    Message('note_on', channel=0, note=57, velocity=0, time=7),\n",
       "    Message('note_on', channel=0, note=62, velocity=40, time=230),\n",
       "    Message('note_on', channel=0, note=59, velocity=0, time=47),\n",
       "    Message('note_on', channel=0, note=72, velocity=75, time=199),\n",
       "    Message('note_on', channel=0, note=57, velocity=43, time=31),\n",
       "    Message('note_on', channel=0, note=74, velocity=0, time=60),\n",
       "    Message('note_on', channel=0, note=62, velocity=0, time=51),\n",
       "    Message('note_on', channel=0, note=62, velocity=51, time=221),\n",
       "    Message('note_on', channel=0, note=57, velocity=0, time=5),\n",
       "    Message('control_change', channel=0, control=64, value=127, time=173),\n",
       "    Message('control_change', channel=0, control=64, value=0, time=54),\n",
       "    Message('note_on', channel=0, note=55, velocity=48, time=29),\n",
       "    Message('note_on', channel=0, note=71, velocity=68, time=2),\n",
       "    Message('note_on', channel=0, note=62, velocity=0, time=102),\n",
       "    Message('note_on', channel=0, note=72, velocity=0, time=36),\n",
       "    Message('note_on', channel=0, note=55, velocity=0, time=176),\n",
       "    Message('note_on', channel=0, note=62, velocity=37, time=11),\n",
       "    Message('note_on', channel=0, note=59, velocity=51, time=275),\n",
       "    Message('note_on', channel=0, note=62, velocity=0, time=93),\n",
       "    Message('note_on', channel=0, note=60, velocity=37, time=223),\n",
       "    Message('note_on', channel=0, note=62, velocity=44, time=2),\n",
       "    Message('note_on', channel=0, note=60, velocity=0, time=4),\n",
       "    Message('note_on', channel=0, note=71, velocity=0, time=18),\n",
       "    Message('note_on', channel=0, note=59, velocity=0, time=11),\n",
       "    Message('control_change', channel=0, control=64, value=127, time=124),\n",
       "    Message('control_change', channel=0, control=64, value=0, time=92),\n",
       "    Message('note_on', channel=0, note=60, velocity=63, time=27),\n",
       "    Message('note_on', channel=0, note=69, velocity=74, time=0),\n",
       "    Message('note_on', channel=0, note=62, velocity=0, time=139),\n",
       "    Message('note_on', channel=0, note=71, velocity=82, time=153),\n",
       "    Message('note_on', channel=0, note=69, velocity=0, time=107),\n",
       "    Message('note_on', channel=0, note=72, velocity=72, time=175),\n",
       "    Message('note_on', channel=0, note=57, velocity=51, time=18),\n",
       "    Message('note_on', channel=0, note=60, velocity=0, time=77),\n",
       "    Message('note_on', channel=0, note=71, velocity=0, time=1),\n",
       "    Message('note_on', channel=0, note=69, velocity=59, time=220),\n",
       "    Message('note_on', channel=0, note=72, velocity=0, time=87),\n",
       "    Message('note_on', channel=0, note=59, velocity=53, time=205),\n",
       "    Message('note_on', channel=0, note=67, velocity=62, time=8),\n",
       "    Message('note_on', channel=0, note=57, velocity=0, time=61),\n",
       "    Message('note_on', channel=0, note=69, velocity=0, time=15),\n",
       "    Message('note_on', channel=0, note=62, velocity=41, time=242),\n",
       "    Message('note_on', channel=0, note=60, velocity=33, time=3),\n",
       "    Message('note_on', channel=0, note=59, velocity=0, time=20),\n",
       "    Message('note_on', channel=0, note=60, velocity=0, time=262),\n",
       "    Message('note_on', channel=0, note=67, velocity=0, time=8),\n",
       "    Message('note_on', channel=0, note=55, velocity=39, time=4),\n",
       "    Message('note_on', channel=0, note=67, velocity=35, time=2),\n",
       "    Message('note_on', channel=0, note=62, velocity=0, time=142),\n",
       "    Message('note_on', channel=0, note=55, velocity=0, time=554),\n",
       "    Message('note_on', channel=0, note=67, velocity=0, time=8),\n",
       "    Message('control_change', channel=0, control=64, value=127, time=3929),\n",
       "    Message('control_change', channel=0, control=64, value=0, time=15),\n",
       "    Message('control_change', channel=0, control=64, value=127, time=85),\n",
       "    Message('control_change', channel=0, control=64, value=0, time=146),\n",
       "    Message('note_on', channel=0, note=45, velocity=88, time=242),\n",
       "    Message('note_on', channel=0, note=52, velocity=90, time=2),\n",
       "    Message('note_on', channel=0, note=52, velocity=0, time=66),\n",
       "    Message('note_on', channel=0, note=45, velocity=0, time=4),\n",
       "    Message('note_on', channel=0, note=52, velocity=69, time=221),\n",
       "    Message('note_on', channel=0, note=45, velocity=49, time=25),\n",
       "    Message('note_on', channel=0, note=52, velocity=0, time=50),\n",
       "    Message('note_on', channel=0, note=45, velocity=0, time=5),\n",
       "    Message('note_on', channel=0, note=52, velocity=67, time=208),\n",
       "    Message('note_on', channel=0, note=45, velocity=50, time=11),\n",
       "    Message('note_on', channel=0, note=52, velocity=0, time=66),\n",
       "    Message('note_on', channel=0, note=45, velocity=0, time=4),\n",
       "    Message('note_on', channel=0, note=52, velocity=72, time=191),\n",
       "    Message('note_on', channel=0, note=45, velocity=61, time=2),\n",
       "    Message('note_on', channel=0, note=52, velocity=0, time=53),\n",
       "    Message('note_on', channel=0, note=45, velocity=0, time=17),\n",
       "    Message('note_on', channel=0, note=52, velocity=96, time=197),\n",
       "    Message('note_on', channel=0, note=45, velocity=88, time=1),\n",
       "    Message('note_on', channel=0, note=52, velocity=0, time=98),\n",
       "    Message('note_on', channel=0, note=45, velocity=0, time=27),\n",
       "    Message('note_on', channel=0, note=45, velocity=51, time=173),\n",
       "    Message('note_on', channel=0, note=52, velocity=62, time=0),\n",
       "    Message('note_on', channel=0, note=52, velocity=0, time=54),\n",
       "    Message('note_on', channel=0, note=45, velocity=0, time=9),\n",
       "    Message('note_on', channel=0, note=52, velocity=56, time=219),\n",
       "    Message('note_on', channel=0, note=45, velocity=41, time=17),\n",
       "    Message('note_on', channel=0, note=52, velocity=0, time=64),\n",
       "    Message('note_on', channel=0, note=45, velocity=0, time=4),\n",
       "    Message('note_on', channel=0, note=52, velocity=64, time=189),\n",
       "    Message('note_on', channel=0, note=45, velocity=47, time=6),\n",
       "    Message('note_on', channel=0, note=52, velocity=0, time=46),\n",
       "    Message('note_on', channel=0, note=45, velocity=0, time=4),\n",
       "    Message('note_on', channel=0, note=72, velocity=97, time=209),\n",
       "    Message('note_on', channel=0, note=52, velocity=74, time=7),\n",
       "    Message('note_on', channel=0, note=45, velocity=69, time=1),\n",
       "    Message('note_on', channel=0, note=52, velocity=0, time=46),\n",
       "    Message('note_on', channel=0, note=45, velocity=0, time=0),\n",
       "    Message('note_on', channel=0, note=69, velocity=78, time=80),\n",
       "    Message('note_on', channel=0, note=72, velocity=0, time=49),\n",
       "    Message('note_on', channel=0, note=52, velocity=58, time=127),\n",
       "    Message('note_on', channel=0, note=45, velocity=40, time=27),\n",
       "    Message('note_on', channel=0, note=45, velocity=0, time=50),\n",
       "    Message('note_on', channel=0, note=52, velocity=0, time=3),\n",
       "    Message('note_on', channel=0, note=52, velocity=69, time=196),\n",
       "    Message('note_on', channel=0, note=43, velocity=50, time=11),\n",
       "    Message('note_on', channel=0, note=45, velocity=50, time=5),\n",
       "    Message('note_on', channel=0, note=43, velocity=0, time=1),\n",
       "    Message('note_on', channel=0, note=52, velocity=0, time=73),\n",
       "    Message('note_on', channel=0, note=45, velocity=0, time=4),\n",
       "    Message('note_on', channel=0, note=52, velocity=75, time=174),\n",
       "    Message('note_on', channel=0, note=45, velocity=58, time=7),\n",
       "    Message('note_on', channel=0, note=52, velocity=0, time=43),\n",
       "    Message('note_on', channel=0, note=45, velocity=0, time=10),\n",
       "    Message('note_on', channel=0, note=69, velocity=0, time=7),\n",
       "    Message('note_on', channel=0, note=72, velocity=99, time=199),\n",
       "    Message('note_on', channel=0, note=52, velocity=77, time=11),\n",
       "    Message('note_on', channel=0, note=45, velocity=73, time=2),\n",
       "    Message('note_on', channel=0, note=52, velocity=0, time=75),\n",
       "    Message('note_on', channel=0, note=45, velocity=0, time=25),\n",
       "    Message('note_on', channel=0, note=69, velocity=79, time=19),\n",
       "    Message('note_on', channel=0, note=72, velocity=0, time=73),\n",
       "    Message('note_on', channel=0, note=52, velocity=69, time=105),\n",
       "    Message('note_on', channel=0, note=45, velocity=57, time=6),\n",
       "    Message('note_on', channel=0, note=52, velocity=0, time=69),\n",
       "    Message('note_on', channel=0, note=45, velocity=0, time=6),\n",
       "    Message('note_on', channel=0, note=52, velocity=71, time=187),\n",
       "    Message('note_on', channel=0, note=45, velocity=57, time=6),\n",
       "    Message('note_on', channel=0, note=52, velocity=0, time=87),\n",
       "    Message('note_on', channel=0, note=45, velocity=0, time=4),\n",
       "    Message('note_on', channel=0, note=52, velocity=80, time=176),\n",
       "    Message('note_on', channel=0, note=45, velocity=67, time=2),\n",
       "    Message('note_on', channel=0, note=69, velocity=0, time=33),\n",
       "    Message('note_on', channel=0, note=52, velocity=0, time=12),\n",
       "    Message('note_on', channel=0, note=45, velocity=0, time=3),\n",
       "    Message('note_on', channel=0, note=79, velocity=85, time=211),\n",
       "    Message('note_on', channel=0, note=67, velocity=95, time=6),\n",
       "    Message('note_on', channel=0, note=79, velocity=0, time=1),\n",
       "    Message('note_on', channel=0, note=52, velocity=76, time=7),\n",
       "    Message('note_on', channel=0, note=45, velocity=69, time=2),\n",
       "    Message('note_on', channel=0, note=52, velocity=0, time=56),\n",
       "    Message('note_on', channel=0, note=45, velocity=0, time=42),\n",
       "    Message('note_on', channel=0, note=64, velocity=80, time=17),\n",
       "    Message('note_on', channel=0, note=76, velocity=73, time=1),\n",
       "    Message('note_on', channel=0, note=67, velocity=0, time=56),\n",
       "    Message('note_on', channel=0, note=52, velocity=66, time=122),\n",
       "    Message('note_on', channel=0, note=45, velocity=58, time=5),\n",
       "    Message('note_on', channel=0, note=52, velocity=0, time=47),\n",
       "    Message('note_on', channel=0, note=45, velocity=0, time=29),\n",
       "    Message('note_on', channel=0, note=52, velocity=66, time=189),\n",
       "    Message('note_on', channel=0, note=64, velocity=0, time=15),\n",
       "    Message('note_on', channel=0, note=45, velocity=48, time=11),\n",
       "    Message('note_on', channel=0, note=52, velocity=0, time=48),\n",
       "    Message('note_on', channel=0, note=45, velocity=0, time=2),\n",
       "    Message('note_on', channel=0, note=52, velocity=76, time=185),\n",
       "    Message('note_on', channel=0, note=45, velocity=63, time=5),\n",
       "    Message('note_on', channel=0, note=76, velocity=0, time=21),\n",
       "    Message('note_on', channel=0, note=52, velocity=0, time=37),\n",
       "    Message('note_on', channel=0, note=45, velocity=0, time=3),\n",
       "    Message('note_on', channel=0, note=79, velocity=87, time=188),\n",
       "    Message('note_on', channel=0, note=67, velocity=93, time=5),\n",
       "    Message('note_on', channel=0, note=52, velocity=82, time=12),\n",
       "    Message('note_on', channel=0, note=45, velocity=69, time=4),\n",
       "    Message('note_on', channel=0, note=52, velocity=0, time=62),\n",
       "    Message('note_on', channel=0, note=45, velocity=0, time=23),\n",
       "    Message('note_on', channel=0, note=64, velocity=85, time=25),\n",
       "    Message('note_on', channel=0, note=76, velocity=77, time=1),\n",
       "    Message('note_on', channel=0, note=67, velocity=0, time=48),\n",
       "    Message('note_on', channel=0, note=52, velocity=72, time=112),\n",
       "    Message('note_on', channel=0, note=45, velocity=62, time=4),\n",
       "    Message('note_on', channel=0, note=45, velocity=0, time=41),\n",
       "    Message('note_on', channel=0, note=52, velocity=0, time=7),\n",
       "    Message('note_on', channel=0, note=52, velocity=65, time=217),\n",
       "    Message('note_on', channel=0, note=45, velocity=61, time=1),\n",
       "    Message('note_on', channel=0, note=52, velocity=0, time=62),\n",
       "    Message('note_on', channel=0, note=45, velocity=0, time=12),\n",
       "    Message('note_on', channel=0, note=79, velocity=0, time=173),\n",
       "    Message('note_on', channel=0, note=52, velocity=68, time=11),\n",
       "    Message('note_on', channel=0, note=49, velocity=48, time=1),\n",
       "    Message('note_on', channel=0, note=45, velocity=56, time=6),\n",
       "    Message('note_on', channel=0, note=49, velocity=0, time=5),\n",
       "    Message('note_on', channel=0, note=52, velocity=0, time=37),\n",
       "    Message('note_on', channel=0, note=45, velocity=0, time=8),\n",
       "    Message('note_on', channel=0, note=76, velocity=0, time=16),\n",
       "    Message('note_on', channel=0, note=64, velocity=0, time=69),\n",
       "    Message('note_on', channel=0, note=62, velocity=70, time=143),\n",
       "    Message('note_on', channel=0, note=53, velocity=62, time=0),\n",
       "    Message('note_on', channel=0, note=50, velocity=50, time=3),\n",
       "    Message('note_on', channel=0, note=45, velocity=54, time=0),\n",
       "    Message('note_on', channel=0, note=50, velocity=0, time=69),\n",
       "    Message('note_on', channel=0, note=53, velocity=0, time=3),\n",
       "    Message('note_on', channel=0, note=45, velocity=0, time=2),\n",
       "    Message('note_on', channel=0, note=62, velocity=0, time=28),\n",
       "    Message('note_on', channel=0, note=64, velocity=94, time=157),\n",
       "    Message('note_on', channel=0, note=62, velocity=89, time=7),\n",
       "    Message('note_on', channel=0, note=53, velocity=83, time=0),\n",
       "    Message('note_on', channel=0, note=45, velocity=77, time=1),\n",
       "    Message('note_on', channel=0, note=53, velocity=0, time=76),\n",
       "    Message('note_on', channel=0, note=45, velocity=0, time=48),\n",
       "    Message('note_on', channel=0, note=62, velocity=0, time=24),\n",
       "    Message('note_on', channel=0, note=64, velocity=0, time=0),\n",
       "    Message('note_on', channel=0, note=62, velocity=66, time=123),\n",
       "    Message('note_on', channel=0, note=45, velocity=50, time=12),\n",
       "    Message('note_on', channel=0, note=50, velocity=41, time=0),\n",
       "    Message('note_on', channel=0, note=53, velocity=54, time=3),\n",
       "    Message('note_on', channel=0, note=53, velocity=0, time=71),\n",
       "    Message('note_on', channel=0, note=45, velocity=0, time=2),\n",
       "    Message('note_on', channel=0, note=50, velocity=0, time=4),\n",
       "    Message('note_on', channel=0, note=62, velocity=0, time=42),\n",
       "    Message('note_on', channel=0, note=64, velocity=92, time=130),\n",
       "    Message('note_on', channel=0, note=50, velocity=68, time=3),\n",
       "    Message('note_on', channel=0, note=45, velocity=72, time=0),\n",
       "    Message('note_on', channel=0, note=62, velocity=86, time=0),\n",
       "    Message('note_on', channel=0, note=53, velocity=83, time=0),\n",
       "    Message('note_on', channel=0, note=53, velocity=0, time=85),\n",
       "    Message('note_on', channel=0, note=45, velocity=0, time=5),\n",
       "    Message('note_on', channel=0, note=50, velocity=0, time=12),\n",
       "    Message('note_on', channel=0, note=62, velocity=0, time=13),\n",
       "    Message('note_on', channel=0, note=64, velocity=0, time=10),\n",
       "    Message('note_on', channel=0, note=62, velocity=61, time=154),\n",
       "    Message('note_on', channel=0, note=45, velocity=47, time=8),\n",
       "    Message('note_on', channel=0, note=53, velocity=49, time=2),\n",
       "    Message('note_on', channel=0, note=50, velocity=39, time=0),\n",
       "    Message('note_on', channel=0, note=53, velocity=0, time=63),\n",
       "    Message('note_on', channel=0, note=45, velocity=0, time=4),\n",
       "    Message('note_on', channel=0, note=62, velocity=0, time=8),\n",
       "    Message('note_on', channel=0, note=50, velocity=0, time=6),\n",
       "    Message('note_on', channel=0, note=50, velocity=71, time=158),\n",
       "    Message('note_on', channel=0, note=53, velocity=85, time=1),\n",
       "    Message('note_on', channel=0, note=45, velocity=75, time=1),\n",
       "    Message('note_on', channel=0, note=64, velocity=93, time=1),\n",
       "    Message('note_on', channel=0, note=62, velocity=89, time=3),\n",
       "    Message('note_on', channel=0, note=52, velocity=72, time=2),\n",
       "    Message('note_on', channel=0, note=50, velocity=0, time=49),\n",
       "    Message('note_on', channel=0, note=53, velocity=0, time=37),\n",
       "    Message('note_on', channel=0, note=45, velocity=0, time=3),\n",
       "    Message('note_on', channel=0, note=52, velocity=0, time=14),\n",
       "    Message('note_on', channel=0, note=64, velocity=0, time=23),\n",
       "    Message('note_on', channel=0, note=62, velocity=0, time=8),\n",
       "    Message('note_on', channel=0, note=62, velocity=69, time=139),\n",
       "    Message('note_on', channel=0, note=53, velocity=46, time=11),\n",
       "    Message('note_on', channel=0, note=45, velocity=40, time=3),\n",
       "    Message('note_on', channel=0, note=53, velocity=0, time=57),\n",
       "    Message('note_on', channel=0, note=45, velocity=0, time=2),\n",
       "    Message('note_on', channel=0, note=62, velocity=0, time=5),\n",
       "    Message('note_on', channel=0, note=64, velocity=77, time=188),\n",
       "    Message('note_on', channel=0, note=62, velocity=73, time=1),\n",
       "    Message('note_on', channel=0, note=53, velocity=67, time=3),\n",
       "    Message('note_on', channel=0, note=45, velocity=57, time=0),\n",
       "    Message('note_on', channel=0, note=52, velocity=57, time=3),\n",
       "    Message('note_on', channel=0, note=50, velocity=55, time=1),\n",
       "    Message('note_on', channel=0, note=50, velocity=0, time=9),\n",
       "    Message('note_on', channel=0, note=53, velocity=0, time=26),\n",
       "    Message('note_on', channel=0, note=45, velocity=0, time=8),\n",
       "    Message('note_on', channel=0, note=52, velocity=0, time=12),\n",
       "    Message('note_on', channel=0, note=64, velocity=0, time=8),\n",
       "    Message('note_on', channel=0, note=62, velocity=0, time=23),\n",
       "    Message('note_on', channel=0, note=72, velocity=90, time=158),\n",
       "    Message('note_on', channel=0, note=60, velocity=90, time=2),\n",
       "    Message('note_on', channel=0, note=52, velocity=78, time=7),\n",
       "    Message('note_on', channel=0, note=45, velocity=67, time=3),\n",
       "    Message('note_on', channel=0, note=52, velocity=0, time=79),\n",
       "    Message('note_on', channel=0, note=45, velocity=0, time=1),\n",
       "    Message('note_on', channel=0, note=57, velocity=75, time=48),\n",
       "    Message('note_on', channel=0, note=60, velocity=0, time=54),\n",
       "    Message('note_on', channel=0, note=52, velocity=67, time=104),\n",
       "    Message('note_on', channel=0, note=45, velocity=58, time=2),\n",
       "    Message('note_on', channel=0, note=52, velocity=0, time=76),\n",
       "    Message('note_on', channel=0, note=45, velocity=0, time=1),\n",
       "    Message('note_on', channel=0, note=57, velocity=0, time=195),\n",
       "    Message('note_on', channel=0, note=52, velocity=63, time=3),\n",
       "    Message('note_on', channel=0, note=45, velocity=54, time=2),\n",
       "    Message('note_on', channel=0, note=57, velocity=52, time=1),\n",
       "    Message('note_on', channel=0, note=52, velocity=0, time=75),\n",
       "    Message('note_on', channel=0, note=45, velocity=0, time=0),\n",
       "    Message('note_on', channel=0, note=52, velocity=70, time=190),\n",
       "    Message('note_on', channel=0, note=45, velocity=50, time=23),\n",
       "    Message('note_on', channel=0, note=72, velocity=0, time=44),\n",
       "    Message('note_on', channel=0, note=52, velocity=0, time=1),\n",
       "    Message('note_on', channel=0, note=45, velocity=0, time=2),\n",
       "    Message('note_on', channel=0, note=57, velocity=0, time=27),\n",
       "    Message('note_on', channel=0, note=72, velocity=89, time=153),\n",
       "    Message('note_on', channel=0, note=60, velocity=89, time=2),\n",
       "    Message('note_on', channel=0, note=52, velocity=74, time=19),\n",
       "    Message('note_on', channel=0, note=45, velocity=66, time=4),\n",
       "    Message('note_on', channel=0, note=52, velocity=0, time=67),\n",
       "    Message('note_on', channel=0, note=45, velocity=0, time=10),\n",
       "    Message('note_on', channel=0, note=57, velocity=75, time=35),\n",
       "    Message('note_on', channel=0, note=60, velocity=0, time=59),\n",
       "    Message('note_on', channel=0, note=52, velocity=73, time=106),\n",
       "    Message('note_on', channel=0, note=45, velocity=47, time=18),\n",
       "    Message('note_on', channel=0, note=52, velocity=0, time=41),\n",
       "    Message('note_on', channel=0, note=45, velocity=0, time=2),\n",
       "    Message('note_on', channel=0, note=52, velocity=67, time=217),\n",
       "    Message('note_on', channel=0, note=45, velocity=49, time=10),\n",
       "    Message('note_on', channel=0, note=45, velocity=0, time=61),\n",
       "    Message('note_on', channel=0, note=52, velocity=0, time=0),\n",
       "    Message('note_on', channel=0, note=52, velocity=74, time=199),\n",
       "    Message('note_on', channel=0, note=45, velocity=51, time=23),\n",
       "    Message('note_on', channel=0, note=52, velocity=0, time=25),\n",
       "    Message('note_on', channel=0, note=57, velocity=0, time=1),\n",
       "    Message('note_on', channel=0, note=72, velocity=0, time=16),\n",
       "    Message('note_on', channel=0, note=45, velocity=0, time=15),\n",
       "    Message('note_on', channel=0, note=72, velocity=99, time=186),\n",
       "    Message('note_on', channel=0, note=52, velocity=80, time=10),\n",
       "    Message('note_on', channel=0, note=45, velocity=71, time=2),\n",
       "    Message('note_on', channel=0, note=52, velocity=0, time=48),\n",
       "    Message('note_on', channel=0, note=45, velocity=0, time=4),\n",
       "    Message('note_on', channel=0, note=69, velocity=84, time=40),\n",
       "    Message('note_on', channel=0, note=52, velocity=68, time=196),\n",
       "    Message('note_on', channel=0, note=45, velocity=53, time=8),\n",
       "    Message('note_on', channel=0, note=52, velocity=0, time=40),\n",
       "    Message('note_on', channel=0, note=45, velocity=0, time=7),\n",
       "    Message('note_on', channel=0, note=52, velocity=65, time=215),\n",
       "    Message('note_on', channel=0, note=45, velocity=45, time=25),\n",
       "    Message('note_on', channel=0, note=52, velocity=0, time=38),\n",
       "    Message('note_on', channel=0, note=45, velocity=0, time=7),\n",
       "    Message('note_on', channel=0, note=72, velocity=0, time=4),\n",
       "    Message('note_on', channel=0, note=52, velocity=76, time=203),\n",
       "    Message('note_on', channel=0, note=45, velocity=61, time=13),\n",
       "    Message('note_on', channel=0, note=52, velocity=0, time=40),\n",
       "    Message('note_on', channel=0, note=45, velocity=0, time=12),\n",
       "    Message('note_on', channel=0, note=69, velocity=0, time=13),\n",
       "    Message('note_on', channel=0, note=72, velocity=98, time=182),\n",
       "    Message('note_on', channel=0, note=52, velocity=79, time=14),\n",
       "    Message('note_on', channel=0, note=45, velocity=75, time=2),\n",
       "    Message('note_on', channel=0, note=52, velocity=0, time=69),\n",
       "    Message('note_on', channel=0, note=45, velocity=0, time=14),\n",
       "    Message('note_on', channel=0, note=69, velocity=78, time=32),\n",
       "    Message('note_on', channel=0, note=72, velocity=0, time=63),\n",
       "    Message('note_on', channel=0, note=52, velocity=73, time=100),\n",
       "    Message('note_on', channel=0, note=45, velocity=59, time=10),\n",
       "    Message('note_on', channel=0, note=45, velocity=0, time=45),\n",
       "    Message('note_on', channel=0, note=52, velocity=0, time=0),\n",
       "    Message('note_on', channel=0, note=52, velocity=72, time=215),\n",
       "    Message('note_on', channel=0, note=45, velocity=56, time=12),\n",
       "    Message('note_on', channel=0, note=52, velocity=0, time=40),\n",
       "    Message('note_on', channel=0, note=45, velocity=0, time=8),\n",
       "    Message('note_on', channel=0, note=52, velocity=64, time=222),\n",
       "    Message('note_on', channel=0, note=45, velocity=53, time=5),\n",
       "    Message('note_on', channel=0, note=52, velocity=0, time=32),\n",
       "    Message('note_on', channel=0, note=45, velocity=0, time=3),\n",
       "    Message('note_on', channel=0, note=69, velocity=0, time=38),\n",
       "    Message('note_on', channel=0, note=67, velocity=93, time=161),\n",
       "    Message('note_on', channel=0, note=52, velocity=82, time=5),\n",
       "    Message('note_on', channel=0, note=45, velocity=74, time=2),\n",
       "    Message('note_on', channel=0, note=52, velocity=0, time=63),\n",
       "    Message('note_on', channel=0, note=45, velocity=0, time=21),\n",
       "    Message('note_on', channel=0, note=64, velocity=83, time=45),\n",
       "    Message('note_on', channel=0, note=76, velocity=75, time=2),\n",
       "    Message('note_on', channel=0, note=67, velocity=0, time=40),\n",
       "    Message('note_on', channel=0, note=52, velocity=72, time=130),\n",
       "    Message('note_on', channel=0, note=45, velocity=63, time=6),\n",
       "    Message('note_on', channel=0, note=52, velocity=0, time=47),\n",
       "    Message('note_on', channel=0, note=45, velocity=0, time=5),\n",
       "    Message('note_on', channel=0, note=52, velocity=71, time=216),\n",
       "    Message('note_on', channel=0, note=45, velocity=59, time=4),\n",
       "    Message('note_on', channel=0, note=45, velocity=0, time=49),\n",
       "    Message('note_on', channel=0, note=52, velocity=0, time=0),\n",
       "    Message('note_on', channel=0, note=52, velocity=74, time=223),\n",
       "    Message('note_on', channel=0, note=45, velocity=64, time=2),\n",
       "    Message('note_on', channel=0, note=49, velocity=54, time=1),\n",
       "    Message('note_on', channel=0, note=76, velocity=0, time=2),\n",
       "    Message('note_on', channel=0, note=49, velocity=0, time=8),\n",
       "    Message('note_on', channel=0, note=52, velocity=0, time=33),\n",
       "    Message('note_on', channel=0, note=45, velocity=0, time=36),\n",
       "    Message('note_on', channel=0, note=64, velocity=0, time=54),\n",
       "    Message('note_on', channel=0, note=79, velocity=89, time=133),\n",
       "    Message('note_on', channel=0, note=67, velocity=96, time=1),\n",
       "    Message('note_on', channel=0, note=52, velocity=80, time=17),\n",
       "    Message('note_on', channel=0, note=45, velocity=72, time=3),\n",
       "    Message('note_on', channel=0, note=52, velocity=0, time=50),\n",
       "    Message('note_on', channel=0, note=45, velocity=0, time=7),\n",
       "    Message('note_on', channel=0, note=64, velocity=87, time=47),\n",
       "    Message('note_on', channel=0, note=67, velocity=0, time=51),\n",
       "    Message('note_on', channel=0, note=79, velocity=0, time=121),\n",
       "    Message('note_on', channel=0, note=52, velocity=72, time=2),\n",
       "    Message('note_on', channel=0, note=45, velocity=65, time=1),\n",
       "    Message('note_on', channel=0, note=52, velocity=0, time=46),\n",
       "    Message('note_on', channel=0, note=45, velocity=0, time=4),\n",
       "    Message('note_on', channel=0, note=52, velocity=74, time=222),\n",
       "    Message('note_on', channel=0, note=45, velocity=65, time=4),\n",
       "    Message('note_on', channel=0, note=49, velocity=56, time=0),\n",
       "    Message('note_on', channel=0, note=49, velocity=0, time=5),\n",
       "    Message('note_on', channel=0, note=52, velocity=0, time=57),\n",
       "    Message('note_on', channel=0, note=45, velocity=0, time=16),\n",
       "    Message('note_on', channel=0, note=52, velocity=68, time=192),\n",
       "    Message('note_on', channel=0, note=49, velocity=49, time=4),\n",
       "    Message('note_on', channel=0, note=45, velocity=60, time=1),\n",
       "    Message('note_on', channel=0, note=49, velocity=0, time=6),\n",
       "    Message('note_on', channel=0, note=52, velocity=0, time=43),\n",
       "    Message('note_on', channel=0, note=45, velocity=0, time=6),\n",
       "    Message('note_on', channel=0, note=64, velocity=0, time=0),\n",
       "    Message('note_on', channel=0, note=53, velocity=62, time=212),\n",
       "    Message('note_on', channel=0, note=62, velocity=65, time=2),\n",
       "    Message('note_on', channel=0, note=45, velocity=51, time=2),\n",
       "    Message('note_on', channel=0, note=50, velocity=47, time=0),\n",
       "    Message('note_on', channel=0, note=50, velocity=0, time=73),\n",
       "    Message('note_on', channel=0, note=53, velocity=0, time=5),\n",
       "    Message('note_on', channel=0, note=45, velocity=0, time=3),\n",
       "    Message('note_on', channel=0, note=62, velocity=0, time=22),\n",
       "    Message('note_on', channel=0, note=76, velocity=79, time=161),\n",
       "    Message('note_on', channel=0, note=64, velocity=91, time=1),\n",
       "    Message('note_on', channel=0, note=53, velocity=82, time=2),\n",
       "    Message('note_on', channel=0, note=74, velocity=80, time=1),\n",
       "    Message('note_on', channel=0, note=45, velocity=73, time=1),\n",
       "    Message('note_on', channel=0, note=50, velocity=69, time=0),\n",
       "    Message('note_on', channel=0, note=65, velocity=80, time=0),\n",
       "    Message('note_on', channel=0, note=62, velocity=84, time=0),\n",
       "    Message('note_on', channel=0, note=65, velocity=0, time=4),\n",
       "    Message('note_on', channel=0, note=50, velocity=0, time=84),\n",
       "    Message('note_on', channel=0, note=45, velocity=0, time=3),\n",
       "    Message('note_on', channel=0, note=53, velocity=0, time=1),\n",
       "    Message('note_on', channel=0, note=76, velocity=0, time=4),\n",
       "    Message('note_on', channel=0, note=64, velocity=0, time=57),\n",
       "    Message('note_on', channel=0, note=62, velocity=0, time=2),\n",
       "    Message('note_on', channel=0, note=74, velocity=0, time=10),\n",
       "    Message('note_on', channel=0, note=62, velocity=58, time=113),\n",
       "    Message('note_on', channel=0, note=53, velocity=48, time=14),\n",
       "    Message('note_on', channel=0, note=50, velocity=40, time=1),\n",
       "    Message('note_on', channel=0, note=45, velocity=43, time=4),\n",
       "    Message('note_on', channel=0, note=50, velocity=0, time=48),\n",
       "    Message('note_on', channel=0, note=45, velocity=0, time=2),\n",
       "    Message('note_on', channel=0, note=53, velocity=0, time=1),\n",
       "    Message('note_on', channel=0, note=62, velocity=0, time=45),\n",
       "    Message('note_on', channel=0, note=64, velocity=91, time=144),\n",
       "    Message('note_on', channel=0, note=76, velocity=77, time=2),\n",
       "    Message('note_on', channel=0, note=74, velocity=79, time=4),\n",
       "    Message('note_on', channel=0, note=62, velocity=87, time=1),\n",
       "    Message('note_on', channel=0, note=53, velocity=82, time=1),\n",
       "    Message('note_on', channel=0, note=50, velocity=64, time=1),\n",
       "    Message('note_on', channel=0, note=45, velocity=70, time=0),\n",
       "    Message('note_on', channel=0, note=52, velocity=68, time=1),\n",
       "    Message('note_on', channel=0, note=52, velocity=0, time=10),\n",
       "    Message('note_on', channel=0, note=76, velocity=0, time=54),\n",
       "    Message('note_on', channel=0, note=50, velocity=0, time=23),\n",
       "    Message('note_on', channel=0, note=45, velocity=0, time=11),\n",
       "    Message('note_on', channel=0, note=53, velocity=0, time=0),\n",
       "    Message('note_on', channel=0, note=64, velocity=0, time=35),\n",
       "    Message('note_on', channel=0, note=74, velocity=0, time=8),\n",
       "    Message('note_on', channel=0, note=62, velocity=0, time=15),\n",
       "    Message('note_on', channel=0, note=74, velocity=50, time=126),\n",
       "    Message('note_on', channel=0, note=62, velocity=54, time=1),\n",
       "    Message('note_on', channel=0, note=74, velocity=0, time=3),\n",
       "    Message('note_on', channel=0, note=50, velocity=31, time=12),\n",
       "    Message('note_on', channel=0, note=53, velocity=33, time=0),\n",
       "    Message('note_on', channel=0, note=45, velocity=37, time=1),\n",
       "    Message('note_on', channel=0, note=53, velocity=0, time=52),\n",
       "    Message('note_on', channel=0, note=45, velocity=0, time=1),\n",
       "    Message('note_on', channel=0, note=62, velocity=0, time=12),\n",
       "    Message('note_on', channel=0, note=50, velocity=0, time=7),\n",
       "    Message('note_on', channel=0, note=64, velocity=93, time=151),\n",
       "    Message('note_on', channel=0, note=76, velocity=78, time=2),\n",
       "    Message('note_on', channel=0, note=62, velocity=87, time=3),\n",
       "    Message('note_on', channel=0, note=74, velocity=80, time=1),\n",
       "    Message('note_on', channel=0, note=53, velocity=76, time=1),\n",
       "    Message('note_on', channel=0, note=45, velocity=70, time=1),\n",
       "    Message('note_on', channel=0, note=76, velocity=0, time=2),\n",
       "    Message('note_on', channel=0, note=53, velocity=0, time=96),\n",
       "    Message('note_on', channel=0, note=45, velocity=0, time=13),\n",
       "    Message('note_on', channel=0, note=74, velocity=0, time=22),\n",
       "    Message('note_on', channel=0, note=62, velocity=0, time=15),\n",
       "    Message('note_on', channel=0, note=64, velocity=0, time=0),\n",
       "    Message('note_on', channel=0, note=74, velocity=60, time=152),\n",
       "    Message('note_on', channel=0, note=62, velocity=68, time=2),\n",
       "    Message('note_on', channel=0, note=53, velocity=58, time=2),\n",
       "    Message('note_on', channel=0, note=45, velocity=49, time=1),\n",
       "    Message('note_on', channel=0, note=53, velocity=0, time=53),\n",
       "    Message('note_on', channel=0, note=45, velocity=0, time=3),\n",
       "    Message('note_on', channel=0, note=62, velocity=0, time=11),\n",
       "    Message('note_on', channel=0, note=74, velocity=0, time=30),\n",
       "    Message('note_on', channel=0, note=64, velocity=89, time=125),\n",
       "    Message('note_on', channel=0, note=62, velocity=86, time=1),\n",
       "    Message('note_on', channel=0, note=50, velocity=64, time=1),\n",
       "    Message('note_on', channel=0, note=53, velocity=77, time=0),\n",
       "    Message('note_on', channel=0, note=74, velocity=76, time=1),\n",
       "    Message('note_on', channel=0, note=76, velocity=75, time=0),\n",
       "    Message('note_on', channel=0, note=45, velocity=69, time=3),\n",
       "    Message('note_on', channel=0, note=76, velocity=0, time=7),\n",
       "    Message('note_on', channel=0, note=64, velocity=0, time=37),\n",
       "    Message('note_on', channel=0, note=50, velocity=0, time=1),\n",
       "    Message('note_on', channel=0, note=53, velocity=0, time=3),\n",
       "    Message('note_on', channel=0, note=45, velocity=0, time=10),\n",
       "    Message('note_on', channel=0, note=62, velocity=0, time=33),\n",
       "    Message('note_on', channel=0, note=74, velocity=0, time=46),\n",
       "    Message('note_on', channel=0, note=72, velocity=85, time=120),\n",
       "    Message('note_on', channel=0, note=60, velocity=87, time=0),\n",
       "    Message('note_on', channel=0, note=52, velocity=74, time=6),\n",
       "    Message('note_on', channel=0, note=45, velocity=69, time=0),\n",
       "    Message('note_on', channel=0, note=52, velocity=0, time=46),\n",
       "    Message('note_on', channel=0, note=45, velocity=0, time=7),\n",
       "    Message('note_on', channel=0, note=57, velocity=70, time=72),\n",
       "    Message('note_on', channel=0, note=60, velocity=0, time=72),\n",
       "    Message('note_on', channel=0, note=52, velocity=66, time=97),\n",
       "    Message('note_on', channel=0, note=45, velocity=48, time=6),\n",
       "    Message('note_on', channel=0, note=45, velocity=0, time=62),\n",
       "    Message('note_on', channel=0, note=52, velocity=0, time=7),\n",
       "    Message('note_on', channel=0, note=72, velocity=0, time=12),\n",
       "    Message('note_on', channel=0, note=52, velocity=64, time=203),\n",
       "    Message('note_on', channel=0, note=45, velocity=56, time=1),\n",
       "    Message('note_on', channel=0, note=45, velocity=0, time=47),\n",
       "    Message('note_on', channel=0, note=52, velocity=0, time=14),\n",
       "    Message('note_on', channel=0, note=52, velocity=73, time=183),\n",
       "    Message('note_on', channel=0, note=45, velocity=52, time=18),\n",
       "    Message('note_on', channel=0, note=52, velocity=0, time=27),\n",
       "    Message('note_on', channel=0, note=57, velocity=0, time=2),\n",
       "    Message('note_on', channel=0, note=45, velocity=0, time=35),\n",
       "    Message('note_on', channel=0, note=72, velocity=97, time=174),\n",
       "    Message('note_on', channel=0, note=52, velocity=66, time=15),\n",
       "    Message('note_on', channel=0, note=45, velocity=63, time=0),\n",
       "    Message('note_on', channel=0, note=52, velocity=0, time=58),\n",
       "    Message('note_on', channel=0, note=45, velocity=0, time=5),\n",
       "    Message('note_on', channel=0, note=69, velocity=81, time=24),\n",
       "    Message('note_on', channel=0, note=72, velocity=0, time=68),\n",
       "    Message('note_on', channel=0, note=52, velocity=62, time=119),\n",
       "    Message('note_on', channel=0, note=45, velocity=44, time=23),\n",
       "    Message('note_on', channel=0, note=52, velocity=0, time=26),\n",
       "    Message('note_on', channel=0, note=45, velocity=0, time=33),\n",
       "    Message('note_on', channel=0, note=52, velocity=71, time=181),\n",
       "    Message('note_on', channel=0, note=45, velocity=52, time=16),\n",
       "    Message('note_on', channel=0, note=52, velocity=0, time=46),\n",
       "    Message('note_on', channel=0, note=45, velocity=0, time=7),\n",
       "    Message('note_on', channel=0, note=52, velocity=82, time=195),\n",
       "    Message('note_on', channel=0, note=45, velocity=63, time=14),\n",
       "    Message('note_on', channel=0, note=69, velocity=0, time=17),\n",
       "    Message('note_on', channel=0, note=52, velocity=0, time=12),\n",
       "    Message('note_on', channel=0, note=45, velocity=0, time=20),\n",
       "    Message('note_on', channel=0, note=84, velocity=97, time=200),\n",
       "    Message('note_on', channel=0, note=52, velocity=82, time=10),\n",
       "    Message('note_on', channel=0, note=45, velocity=71, time=10),\n",
       "    Message('note_on', channel=0, note=52, velocity=0, time=55),\n",
       "    Message('note_on', channel=0, note=45, velocity=0, time=3),\n",
       "    Message('note_on', channel=0, note=81, velocity=79, time=47),\n",
       "    Message('note_on', channel=0, note=84, velocity=0, time=35),\n",
       "    Message('note_on', channel=0, note=52, velocity=75, time=128),\n",
       "    Message('note_on', channel=0, note=45, velocity=61, time=8),\n",
       "    Message('note_on', channel=0, note=52, velocity=0, time=43),\n",
       "    Message('note_on', channel=0, note=45, velocity=0, time=2),\n",
       "    Message('note_on', channel=0, note=52, velocity=70, time=182),\n",
       "    Message('note_on', channel=0, note=45, velocity=55, time=4),\n",
       "    Message('note_on', channel=0, note=52, velocity=0, time=75),\n",
       "    Message('note_on', channel=0, note=45, velocity=0, time=0),\n",
       "    Message('note_on', channel=0, note=52, velocity=85, time=214),\n",
       "    Message('note_on', channel=0, note=57, velocity=64, time=4),\n",
       "    Message('note_on', channel=0, note=45, velocity=69, time=2),\n",
       "    Message('note_on', channel=0, note=52, velocity=0, time=33),\n",
       "    Message('note_on', channel=0, note=45, velocity=0, time=0),\n",
       "    Message('note_on', channel=0, note=81, velocity=0, time=35),\n",
       "    Message('note_on', channel=0, note=57, velocity=0, time=8),\n",
       "    Message('note_on', channel=0, note=81, velocity=101, time=1185),\n",
       "    Message('note_on', channel=0, note=76, velocity=83, time=0),\n",
       "    Message('note_on', channel=0, note=69, velocity=102, time=1),\n",
       "    Message('note_on', channel=0, note=57, velocity=94, time=1),\n",
       "    Message('note_on', channel=0, note=52, velocity=96, time=2),\n",
       "    Message('control_change', channel=0, control=64, value=127, time=1),\n",
       "    Message('note_on', channel=0, note=45, velocity=97, time=2),\n",
       "    Message('note_on', channel=0, note=52, velocity=0, time=33),\n",
       "    Message('note_on', channel=0, note=45, velocity=0, time=1),\n",
       "    Message('note_on', channel=0, note=69, velocity=0, time=0),\n",
       "    Message('control_change', channel=0, control=64, value=0, time=18),\n",
       "    Message('note_on', channel=0, note=76, velocity=0, time=38),\n",
       "    Message('note_on', channel=0, note=57, velocity=0, time=8),\n",
       "    Message('note_on', channel=0, note=81, velocity=0, time=23),\n",
       "    Message('note_on', channel=0, note=53, velocity=75, time=2902),\n",
       "    Message('note_on', channel=0, note=57, velocity=68, time=295),\n",
       "    Message('note_on', channel=0, note=53, velocity=0, time=23),\n",
       "    Message('note_on', channel=0, note=60, velocity=69, time=238),\n",
       "    Message('note_on', channel=0, note=57, velocity=0, time=104),\n",
       "    Message('control_change', channel=0, control=64, value=127, time=17),\n",
       "    Message('note_on', channel=0, note=65, velocity=79, time=142),\n",
       "    Message('control_change', channel=0, control=64, value=0, time=27),\n",
       "    Message('note_on', channel=0, note=60, velocity=0, time=43),\n",
       "    Message('note_on', channel=0, note=81, velocity=80, time=198),\n",
       "    Message('note_on', channel=0, note=69, velocity=81, time=2),\n",
       "    Message('note_on', channel=0, note=65, velocity=0, time=85),\n",
       "    Message('note_on', channel=0, note=72, velocity=90, time=161),\n",
       "    Message('note_on', channel=0, note=69, velocity=0, time=31),\n",
       "    Message('note_on', channel=0, note=81, velocity=0, time=10),\n",
       "    Message('note_on', channel=0, note=72, velocity=0, time=222),\n",
       "    Message('note_on', channel=0, note=72, velocity=73, time=12),\n",
       "    Message('note_on', channel=0, note=60, velocity=73, time=0),\n",
       "    Message('note_on', channel=0, note=53, velocity=68, time=1),\n",
       "    Message('note_on', channel=0, note=65, velocity=62, time=6),\n",
       "    Message('note_on', channel=0, note=57, velocity=66, time=2),\n",
       "    Message('control_change', channel=0, control=64, value=127, time=110),\n",
       "    Message('note_on', channel=0, note=53, velocity=0, time=714),\n",
       "    Message('note_on', channel=0, note=57, velocity=0, time=8),\n",
       "    Message('note_on', channel=0, note=60, velocity=0, time=0),\n",
       "    Message('note_on', channel=0, note=65, velocity=0, time=0),\n",
       "    Message('note_on', channel=0, note=72, velocity=0, time=0),\n",
       "    Message('note_on', channel=0, note=53, velocity=54, time=1),\n",
       "    Message('note_on', channel=0, note=72, velocity=87, time=3),\n",
       "    Message('note_on', channel=0, note=77, velocity=77, time=2),\n",
       "    Message('note_on', channel=0, note=57, velocity=56, time=1),\n",
       "    Message('note_on', channel=0, note=60, velocity=54, time=1),\n",
       "    Message('note_on', channel=0, note=69, velocity=79, time=0),\n",
       "    Message('note_on', channel=0, note=65, velocity=73, time=2),\n",
       "    Message('control_change', channel=0, control=64, value=0, time=45),\n",
       "    Message('control_change', channel=0, control=64, value=127, time=206),\n",
       "    Message('note_on', channel=0, note=77, velocity=0, time=269),\n",
       "    Message('note_on', channel=0, note=53, velocity=0, time=338),\n",
       "    Message('note_on', channel=0, note=53, velocity=77, time=11),\n",
       "    Message('note_on', channel=0, note=72, velocity=0, time=27),\n",
       "    Message('control_change', channel=0, control=64, value=0, time=3),\n",
       "    Message('note_on', channel=0, note=65, velocity=0, time=4),\n",
       "    Message('note_on', channel=0, note=60, velocity=0, time=1),\n",
       "    Message('note_on', channel=0, note=69, velocity=0, time=5),\n",
       "    Message('note_on', channel=0, note=57, velocity=0, time=2),\n",
       "    Message('control_change', channel=0, control=64, value=127, time=46),\n",
       "    Message('note_on', channel=0, note=58, velocity=78, time=168),\n",
       "    Message('control_change', channel=0, control=64, value=0, time=40),\n",
       "    Message('note_on', channel=0, note=53, velocity=0, time=16),\n",
       "    Message('note_on', channel=0, note=62, velocity=66, time=197),\n",
       "    Message('control_change', channel=0, control=64, value=127, time=109),\n",
       "    Message('note_on', channel=0, note=58, velocity=0, time=36),\n",
       "    Message('control_change', channel=0, control=64, value=0, time=18),\n",
       "    Message('note_on', channel=0, note=65, velocity=81, time=101),\n",
       "    Message('note_on', channel=0, note=62, velocity=0, time=117),\n",
       "    Message('note_on', channel=0, note=77, velocity=62, time=138),\n",
       "    Message('note_on', channel=0, note=70, velocity=85, time=1),\n",
       "    Message('note_on', channel=0, note=65, velocity=0, time=107),\n",
       "    Message('note_on', channel=0, note=77, velocity=0, time=20),\n",
       "    Message('note_on', channel=0, note=74, velocity=91, time=135),\n",
       "    Message('note_on', channel=0, note=70, velocity=0, time=89),\n",
       "    Message('note_on', channel=0, note=62, velocity=73, time=186),\n",
       "    Message('note_on', channel=0, note=53, velocity=69, time=1),\n",
       "    Message('note_on', channel=0, note=58, velocity=72, time=2),\n",
       "    Message('control_change', channel=0, control=64, value=127, time=178),\n",
       "    Message('note_on', channel=0, note=74, velocity=0, time=377),\n",
       "    Message('note_on', channel=0, note=74, velocity=87, time=269),\n",
       "    Message('note_on', channel=0, note=70, velocity=83, time=5),\n",
       "    Message('note_on', channel=0, note=65, velocity=71, time=0),\n",
       "    Message('control_change', channel=0, control=64, value=0, time=30),\n",
       "    Message('control_change', channel=0, control=64, value=127, time=11),\n",
       "    Message('control_change', channel=0, control=64, value=0, time=69),\n",
       "    Message('note_on', channel=0, note=53, velocity=0, time=15),\n",
       "    Message('note_on', channel=0, note=58, velocity=0, time=15),\n",
       "    Message('note_on', channel=0, note=62, velocity=0, time=39),\n",
       "    Message('control_change', channel=0, control=64, value=127, time=69),\n",
       "    Message('note_on', channel=0, note=52, velocity=79, time=583),\n",
       "    Message('note_on', channel=0, note=74, velocity=0, time=103),\n",
       "    Message('control_change', channel=0, control=64, value=0, time=2),\n",
       "    Message('note_on', channel=0, note=70, velocity=0, time=5),\n",
       "    Message('note_on', channel=0, note=65, velocity=0, time=3),\n",
       "    Message('note_on', channel=0, note=70, velocity=62, time=154),\n",
       "    Message('note_on', channel=0, note=58, velocity=70, time=1),\n",
       "    Message('note_on', channel=0, note=52, velocity=0, time=80),\n",
       "    Message('note_on', channel=0, note=72, velocity=64, time=158),\n",
       "    Message('note_on', channel=0, note=60, velocity=70, time=0),\n",
       "    Message('note_on', channel=0, note=70, velocity=0, time=132),\n",
       "    Message('note_on', channel=0, note=58, velocity=0, time=14),\n",
       "    Message('note_on', channel=0, note=64, velocity=83, time=115),\n",
       "    Message('note_on', channel=0, note=76, velocity=69, time=2),\n",
       "    Message('note_on', channel=0, note=72, velocity=0, time=76),\n",
       "    Message('note_on', channel=0, note=60, velocity=0, time=3),\n",
       "    Message('note_on', channel=0, note=70, velocity=83, time=178),\n",
       "    Message('note_on', channel=0, note=64, velocity=0, time=153),\n",
       "    Message('note_on', channel=0, note=72, velocity=89, time=82),\n",
       "    Message('note_on', channel=0, note=70, velocity=0, time=25),\n",
       "    Message('note_on', channel=0, note=76, velocity=0, time=97),\n",
       "    Message('note_on', channel=0, note=72, velocity=0, time=146),\n",
       "    Message('note_on', channel=0, note=60, velocity=78, time=6),\n",
       "    Message('note_on', channel=0, note=72, velocity=72, time=2),\n",
       "    Message('note_on', channel=0, note=52, velocity=72, time=2),\n",
       "    Message('note_on', channel=0, note=58, velocity=79, time=1),\n",
       "    Message('control_change', channel=0, control=64, value=127, time=89),\n",
       "    Message('note_on', channel=0, note=58, velocity=0, time=729),\n",
       "    Message('note_on', channel=0, note=60, velocity=0, time=0),\n",
       "    Message('note_on', channel=0, note=72, velocity=0, time=0),\n",
       "    Message('note_on', channel=0, note=64, velocity=78, time=5),\n",
       "    Message('note_on', channel=0, note=55, velocity=55, time=1),\n",
       "    Message('note_on', channel=0, note=60, velocity=61, time=1),\n",
       "    Message('note_on', channel=0, note=58, velocity=60, time=2),\n",
       "    Message('note_on', channel=0, note=72, velocity=86, time=0),\n",
       "    Message('note_on', channel=0, note=48, velocity=55, time=3),\n",
       "    Message('note_on', channel=0, note=76, velocity=77, time=0),\n",
       "    Message('note_on', channel=0, note=48, velocity=0, time=11),\n",
       "    Message('note_on', channel=0, note=52, velocity=0, time=38),\n",
       "    Message('control_change', channel=0, control=64, value=0, time=6),\n",
       "    Message('note_on', channel=0, note=55, velocity=0, time=171),\n",
       "    Message('note_on', channel=0, note=60, velocity=0, time=39),\n",
       "    Message('note_on', channel=0, note=58, velocity=0, time=115),\n",
       "    Message('control_change', channel=0, control=64, value=127, time=100),\n",
       "    Message('note_on', channel=0, note=53, velocity=78, time=331),\n",
       "    Message('note_on', channel=0, note=64, velocity=0, time=67),\n",
       "    Message('control_change', channel=0, control=64, value=0, time=5),\n",
       "    Message('note_on', channel=0, note=72, velocity=0, time=19),\n",
       "    Message('note_on', channel=0, note=76, velocity=0, time=62),\n",
       "    Message('note_on', channel=0, note=57, velocity=73, time=102),\n",
       "    Message('note_on', channel=0, note=53, velocity=0, time=89),\n",
       "    Message('note_on', channel=0, note=72, velocity=68, time=144),\n",
       "    Message('note_on', channel=0, note=60, velocity=75, time=3),\n",
       "    Message('control_change', channel=0, control=64, value=127, time=130),\n",
       "    Message('note_on', channel=0, note=57, velocity=0, time=13),\n",
       "    Message('control_change', channel=0, control=64, value=0, time=26),\n",
       "    Message('note_on', channel=0, note=65, velocity=83, time=91),\n",
       "    Message('note_on', channel=0, note=72, velocity=0, time=101),\n",
       "    Message('note_on', channel=0, note=60, velocity=0, time=9),\n",
       "    Message('note_on', channel=0, note=81, velocity=79, time=142),\n",
       "    Message('note_on', channel=0, note=69, velocity=86, time=2),\n",
       "    Message('note_on', channel=0, note=65, velocity=0, time=111),\n",
       "    Message('note_on', channel=0, note=81, velocity=0, time=112),\n",
       "    Message('note_on', channel=0, note=72, velocity=91, time=42),\n",
       "    Message('note_on', channel=0, note=69, velocity=0, time=47),\n",
       "    Message('note_on', channel=0, note=65, velocity=79, time=222),\n",
       "    Message('note_on', channel=0, note=77, velocity=71, time=1),\n",
       "    Message('note_on', channel=0, note=72, velocity=0, time=3),\n",
       "    Message('note_on', channel=0, note=72, velocity=68, time=7),\n",
       "    Message('note_on', channel=0, note=77, velocity=0, time=0),\n",
       "    Message('note_on', channel=0, note=53, velocity=62, time=10),\n",
       "    Message('note_on', channel=0, note=60, velocity=63, time=0),\n",
       "    Message('note_on', channel=0, note=57, velocity=58, time=10),\n",
       "    Message('control_change', channel=0, control=64, value=127, time=219),\n",
       "    Message('control_change', channel=0, control=64, value=0, time=1244),\n",
       "    Message('note_on', channel=0, note=60, velocity=0, time=21),\n",
       "    Message('note_on', channel=0, note=72, velocity=0, time=17),\n",
       "    Message('note_on', channel=0, note=57, velocity=0, time=9),\n",
       "    Message('note_on', channel=0, note=53, velocity=0, time=3),\n",
       "    Message('note_on', channel=0, note=65, velocity=0, time=7),\n",
       "    Message('note_on', channel=0, note=65, velocity=84, time=3090),\n",
       "    Message('note_on', channel=0, note=65, velocity=0, time=117),\n",
       "    Message('note_on', channel=0, note=65, velocity=78, time=118),\n",
       "    Message('note_on', channel=0, note=65, velocity=0, time=100),\n",
       "    Message('note_on', channel=0, note=72, velocity=81, time=139),\n",
       "    Message('note_on', channel=0, note=77, velocity=85, time=1),\n",
       "    Message('note_on', channel=0, note=53, velocity=71, time=0),\n",
       "    Message('note_on', channel=0, note=60, velocity=78, time=1),\n",
       "    Message('note_on', channel=0, note=57, velocity=78, time=1),\n",
       "    Message('note_on', channel=0, note=65, velocity=87, time=0),\n",
       "    Message('note_on', channel=0, note=77, velocity=0, time=62),\n",
       "    Message('note_on', channel=0, note=65, velocity=0, time=355),\n",
       "    Message('note_on', channel=0, note=79, velocity=61, time=72),\n",
       "    Message('note_on', channel=0, note=67, velocity=67, time=1),\n",
       "    Message('note_on', channel=0, note=79, velocity=0, time=10),\n",
       "    Message('note_on', channel=0, note=57, velocity=0, time=14),\n",
       "    Message('note_on', channel=0, note=53, velocity=0, time=2),\n",
       "    Message('note_on', channel=0, note=72, velocity=0, time=45),\n",
       "    Message('note_on', channel=0, note=67, velocity=0, time=9),\n",
       "    Message('note_on', channel=0, note=60, velocity=0, time=5),\n",
       "    Message('note_on', channel=0, note=79, velocity=64, time=145),\n",
       "    Message('note_on', channel=0, note=67, velocity=70, time=1),\n",
       "    Message('note_on', channel=0, note=67, velocity=0, time=43),\n",
       "    Message('note_on', channel=0, note=79, velocity=0, time=7),\n",
       "    Message('note_on', channel=0, note=79, velocity=81, time=185),\n",
       "    Message('note_on', channel=0, note=60, velocity=78, time=1),\n",
       "    Message('note_on', channel=0, note=52, velocity=75, time=1),\n",
       "    Message('note_on', channel=0, note=58, velocity=83, time=0),\n",
       "    Message('note_on', channel=0, note=67, velocity=87, time=1),\n",
       "    Message('control_change', channel=0, control=64, value=127, time=109),\n",
       "    Message('note_on', channel=0, note=58, velocity=0, time=300),\n",
       "    Message('note_on', channel=0, note=60, velocity=0, time=7),\n",
       "    Message('note_on', channel=0, note=55, velocity=53, time=3),\n",
       "    Message('note_on', channel=0, note=58, velocity=63, time=1),\n",
       "    Message('note_on', channel=0, note=81, velocity=79, time=0),\n",
       "    Message('note_on', channel=0, note=69, velocity=84, time=1),\n",
       "    Message('note_on', channel=0, note=55, velocity=0, time=3),\n",
       "    Message('note_on', channel=0, note=60, velocity=55, time=2),\n",
       "    Message('control_change', channel=0, control=64, value=0, time=4),\n",
       "    Message('note_on', channel=0, note=67, velocity=0, time=6),\n",
       "    Message('note_on', channel=0, note=52, velocity=0, time=7),\n",
       "    Message('note_on', channel=0, note=79, velocity=0, time=35),\n",
       "    Message('note_on', channel=0, note=60, velocity=0, time=54),\n",
       "    Message('note_on', channel=0, note=58, velocity=0, time=23),\n",
       "    Message('note_on', channel=0, note=81, velocity=0, time=61),\n",
       "    Message('note_on', channel=0, note=82, velocity=75, time=19),\n",
       "    Message('note_on', channel=0, note=70, velocity=85, time=3),\n",
       "    Message('note_on', channel=0, note=82, velocity=0, time=9),\n",
       "    Message('note_on', channel=0, note=69, velocity=0, time=24),\n",
       "    Message('note_on', channel=0, note=72, velocity=90, time=202),\n",
       "    Message('note_on', channel=0, note=70, velocity=0, time=20),\n",
       "    Message('note_on', channel=0, note=60, velocity=67, time=1),\n",
       "    Message('note_on', channel=0, note=57, velocity=66, time=2),\n",
       "    Message('note_on', channel=0, note=53, velocity=58, time=1),\n",
       "    Message('control_change', channel=0, control=64, value=127, time=111),\n",
       "    Message('control_change', channel=0, control=64, value=0, time=84),\n",
       "    Message('note_on', channel=0, note=65, velocity=75, time=12),\n",
       "    Message('note_on', channel=0, note=77, velocity=69, time=1),\n",
       "    Message('note_on', channel=0, note=77, velocity=0, time=10),\n",
       "    Message('note_on', channel=0, note=57, velocity=0, time=31),\n",
       "    Message('control_change', channel=0, control=64, value=127, time=31),\n",
       "    Message('note_on', channel=0, note=72, velocity=0, time=7),\n",
       "    Message('control_change', channel=0, control=64, value=0, time=98),\n",
       "    Message('note_on', channel=0, note=64, velocity=86, time=55),\n",
       "    Message('note_on', channel=0, note=76, velocity=73, time=3),\n",
       "    Message('note_on', channel=0, note=65, velocity=0, time=55),\n",
       "    Message('note_on', channel=0, note=53, velocity=0, time=27),\n",
       "    Message('note_on', channel=0, note=60, velocity=0, time=119),\n",
       "    Message('note_on', channel=0, note=65, velocity=76, time=32),\n",
       "    Message('note_on', channel=0, note=77, velocity=71, time=1),\n",
       "    Message('control_change', channel=0, control=64, value=127, time=17),\n",
       "    Message('note_on', channel=0, note=64, velocity=0, time=60),\n",
       "    Message('note_on', channel=0, note=76, velocity=0, time=17),\n",
       "    Message('control_change', channel=0, control=64, value=0, time=82),\n",
       "    Message('note_on', channel=0, note=79, velocity=79, time=50),\n",
       "    Message('note_on', channel=0, note=52, velocity=70, time=3),\n",
       "    Message('note_on', channel=0, note=58, velocity=77, time=0),\n",
       "    Message('note_on', channel=0, note=67, velocity=82, time=0),\n",
       "    Message('note_on', channel=0, note=60, velocity=70, time=1),\n",
       "    Message('note_on', channel=0, note=79, velocity=0, time=2),\n",
       "    Message('note_on', channel=0, note=48, velocity=65, time=1),\n",
       "    Message('note_on', channel=0, note=77, velocity=0, time=7),\n",
       "    Message('note_on', channel=0, note=65, velocity=0, time=27),\n",
       "    Message('note_on', channel=0, note=60, velocity=0, time=155),\n",
       "    Message('note_on', channel=0, note=48, velocity=0, time=18),\n",
       "    Message('note_on', channel=0, note=60, velocity=76, time=27),\n",
       "    Message('note_on', channel=0, note=52, velocity=0, time=31),\n",
       "    Message('note_on', channel=0, note=67, velocity=0, time=6),\n",
       "    Message('note_on', channel=0, note=58, velocity=0, time=28),\n",
       "    Message('note_on', channel=0, note=65, velocity=71, time=163),\n",
       "    Message('note_on', channel=0, note=77, velocity=65, time=2),\n",
       "    Message('note_on', channel=0, note=60, velocity=0, time=37),\n",
       "    Message('note_on', channel=0, note=77, velocity=0, time=32),\n",
       "    Message('note_on', channel=0, note=65, velocity=0, time=5),\n",
       "    Message('note_on', channel=0, note=65, velocity=77, time=164),\n",
       "    Message('note_on', channel=0, note=65, velocity=0, time=37),\n",
       "    Message('note_on', channel=0, note=65, velocity=84, time=190),\n",
       "    Message('note_on', channel=0, note=77, velocity=76, time=1),\n",
       "    Message('note_on', channel=0, note=72, velocity=70, time=4),\n",
       "    Message('note_on', channel=0, note=77, velocity=0, time=2),\n",
       "    Message('note_on', channel=0, note=60, velocity=67, time=5),\n",
       "    Message('note_on', channel=0, note=53, velocity=64, time=0),\n",
       "    Message('note_on', channel=0, note=57, velocity=69, time=6),\n",
       "    Message('control_change', channel=0, control=64, value=127, time=274),\n",
       "    Message('note_on', channel=0, note=65, velocity=0, time=73),\n",
       "    Message('control_change', channel=0, control=64, value=0, time=6),\n",
       "    Message('note_on', channel=0, note=72, velocity=0, time=36),\n",
       "    Message('note_on', channel=0, note=79, velocity=78, time=62),\n",
       "    Message('note_on', channel=0, note=67, velocity=83, time=1),\n",
       "    Message('note_on', channel=0, note=60, velocity=0, time=20),\n",
       "    Message('note_on', channel=0, note=53, velocity=0, time=3),\n",
       "    Message('note_on', channel=0, note=57, velocity=0, time=21),\n",
       "    Message('note_on', channel=0, note=67, velocity=0, time=58),\n",
       "    Message('note_on', channel=0, note=79, velocity=0, time=7),\n",
       "    Message('note_on', channel=0, note=79, velocity=72, time=115),\n",
       "    Message('note_on', channel=0, note=67, velocity=76, time=1),\n",
       "    Message('note_on', channel=0, note=67, velocity=0, time=45),\n",
       "    Message('note_on', channel=0, note=79, velocity=0, time=5),\n",
       "    Message('note_on', channel=0, note=79, velocity=78, time=185),\n",
       "    Message('note_on', channel=0, note=67, velocity=84, time=4),\n",
       "    Message('note_on', channel=0, note=52, velocity=70, time=1),\n",
       "    Message('note_on', channel=0, note=58, velocity=76, time=4),\n",
       "    Message('note_on', channel=0, note=60, velocity=72, time=0),\n",
       "    Message('note_on', channel=0, note=48, velocity=65, time=0),\n",
       "    Message('note_on', channel=0, note=48, velocity=0, time=5),\n",
       "    Message('control_change', channel=0, control=64, value=127, time=131),\n",
       "    Message('control_change', channel=0, control=64, value=0, time=287),\n",
       "    Message('note_on', channel=0, note=58, velocity=0, time=1),\n",
       "    Message('note_on', channel=0, note=52, velocity=0, time=1),\n",
       "    Message('note_on', channel=0, note=60, velocity=0, time=1),\n",
       "    Message('note_on', channel=0, note=81, velocity=79, time=16),\n",
       "    Message('note_on', channel=0, note=69, velocity=82, time=3),\n",
       "    Message('note_on', channel=0, note=79, velocity=0, time=44),\n",
       "    Message('note_on', channel=0, note=67, velocity=0, time=13),\n",
       "    Message('note_on', channel=0, note=81, velocity=0, time=125),\n",
       "    Message('note_on', channel=0, note=70, velocity=84, time=40),\n",
       "    Message('note_on', channel=0, note=69, velocity=0, time=32),\n",
       "    Message('note_on', channel=0, note=72, velocity=89, time=195),\n",
       "    Message('note_on', channel=0, note=53, velocity=63, time=20),\n",
       "    Message('note_on', channel=0, note=57, velocity=65, time=2),\n",
       "    Message('note_on', channel=0, note=60, velocity=64, time=0),\n",
       "    Message('note_on', channel=0, note=70, velocity=0, time=34),\n",
       "    Message('note_on', channel=0, note=65, velocity=79, time=173),\n",
       "    Message('note_on', channel=0, note=77, velocity=74, time=2),\n",
       "    Message('note_on', channel=0, note=53, velocity=0, time=20),\n",
       "    Message('note_on', channel=0, note=72, velocity=0, time=32),\n",
       "    Message('note_on', channel=0, note=60, velocity=0, time=10),\n",
       "    Message('note_on', channel=0, note=57, velocity=0, time=4),\n",
       "    Message('note_on', channel=0, note=79, velocity=79, time=157),\n",
       "    Message('note_on', channel=0, note=67, velocity=85, time=5),\n",
       "    Message('note_on', channel=0, note=52, velocity=68, time=0),\n",
       "    Message('note_on', channel=0, note=48, velocity=65, time=3),\n",
       "    Message('note_on', channel=0, note=79, velocity=0, time=1),\n",
       "    Message('note_on', channel=0, note=58, velocity=74, time=4),\n",
       "    Message('note_on', channel=0, note=60, velocity=68, time=5),\n",
       "    Message('note_on', channel=0, note=77, velocity=0, time=6),\n",
       "    Message('note_on', channel=0, note=65, velocity=0, time=23),\n",
       "    Message('note_on', channel=0, note=64, velocity=80, time=183),\n",
       "    Message('note_on', channel=0, note=76, velocity=71, time=2),\n",
       "    Message('note_on', channel=0, note=52, velocity=0, time=18),\n",
       "    Message('note_on', channel=0, note=60, velocity=0, time=23),\n",
       "    Message('note_on', channel=0, note=48, velocity=0, time=5),\n",
       "    Message('note_on', channel=0, note=58, velocity=0, time=0),\n",
       "    Message('note_on', channel=0, note=67, velocity=0, time=2),\n",
       "    Message('note_on', channel=0, note=65, velocity=77, time=195),\n",
       "    Message('note_on', channel=0, note=77, velocity=71, time=3),\n",
       "    Message('note_on', channel=0, note=53, velocity=57, time=9),\n",
       "    Message('note_on', channel=0, note=81, velocity=61, time=5),\n",
       "    Message('note_on', channel=0, note=57, velocity=60, time=7),\n",
       "    Message('note_on', channel=0, note=60, velocity=58, time=0),\n",
       "    Message('note_on', channel=0, note=81, velocity=0, time=2),\n",
       "    Message('note_on', channel=0, note=76, velocity=0, time=23),\n",
       "    Message('note_on', channel=0, note=64, velocity=0, time=8),\n",
       "    Message('note_on', channel=0, note=77, velocity=0, time=22),\n",
       "    Message('control_change', channel=0, control=64, value=127, time=77),\n",
       "    Message('note_on', channel=0, note=65, velocity=0, time=104),\n",
       "    Message('note_on', channel=0, note=53, velocity=0, time=1),\n",
       "    Message('control_change', channel=0, control=64, value=0, time=15),\n",
       "    Message('note_on', channel=0, note=60, velocity=0, time=156),\n",
       "    Message('note_on', channel=0, note=57, velocity=0, time=1),\n",
       "    Message('note_on', channel=0, note=65, velocity=73, time=34),\n",
       "    Message('note_on', channel=0, note=77, velocity=64, time=0),\n",
       "    Message('note_on', channel=0, note=77, velocity=0, time=65),\n",
       "    Message('note_on', channel=0, note=65, velocity=0, time=42),\n",
       "    Message('note_on', channel=0, note=65, velocity=76, time=111),\n",
       "    Message('note_on', channel=0, note=77, velocity=66, time=3),\n",
       "    Message('note_on', channel=0, note=77, velocity=0, time=6),\n",
       "    Message('note_on', channel=0, note=65, velocity=0, time=90),\n",
       "    Message('note_on', channel=0, note=53, velocity=63, time=121),\n",
       "    Message('note_on', channel=0, note=65, velocity=76, time=0),\n",
       "    Message('note_on', channel=0, note=60, velocity=66, time=1),\n",
       "    Message('note_on', channel=0, note=57, velocity=64, time=5),\n",
       "    Message('note_on', channel=0, note=65, velocity=0, time=103),\n",
       "    Message('note_on', channel=0, note=65, velocity=74, time=112),\n",
       "    Message('note_on', channel=0, note=77, velocity=67, time=2),\n",
       "    Message('note_on', channel=0, note=77, velocity=0, time=11),\n",
       "    Message('note_on', channel=0, note=60, velocity=0, time=34),\n",
       "    Message('note_on', channel=0, note=65, velocity=0, time=112),\n",
       "    Message('note_on', channel=0, note=53, velocity=0, time=8),\n",
       "    Message('note_on', channel=0, note=57, velocity=0, time=46),\n",
       "    Message('note_on', channel=0, note=79, velocity=81, time=13),\n",
       "    Message('note_on', channel=0, note=67, velocity=87, time=5),\n",
       "    Message('note_on', channel=0, note=58, velocity=81, time=2),\n",
       "    Message('note_on', channel=0, note=52, velocity=70, time=4),\n",
       "    Message('note_on', channel=0, note=60, velocity=73, time=1),\n",
       "    Message('note_on', channel=0, note=79, velocity=0, time=52),\n",
       "    Message('note_on', channel=0, note=52, velocity=0, time=220),\n",
       "    Message('note_on', channel=0, note=60, velocity=0, time=64),\n",
       "    Message('note_on', channel=0, note=65, velocity=63, time=149),\n",
       "    Message('note_on', channel=0, note=60, velocity=54, time=8),\n",
       "    Message('note_on', channel=0, note=53, velocity=54, time=4),\n",
       "    Message('note_on', channel=0, note=57, velocity=57, time=2),\n",
       "    Message('note_on', channel=0, note=58, velocity=0, time=49),\n",
       "    Message('note_on', channel=0, note=67, velocity=0, time=16),\n",
       "    Message('note_on', channel=0, note=65, velocity=0, time=106),\n",
       "    Message('note_on', channel=0, note=65, velocity=71, time=263),\n",
       "    Message('note_on', channel=0, note=53, velocity=0, time=33),\n",
       "    Message('note_on', channel=0, note=57, velocity=0, time=84),\n",
       "    Message('note_on', channel=0, note=60, velocity=0, time=0),\n",
       "    Message('note_on', channel=0, note=65, velocity=0, time=12),\n",
       "    Message('note_on', channel=0, note=65, velocity=69, time=92),\n",
       "    Message('note_on', channel=0, note=65, velocity=0, time=77),\n",
       "    Message('note_on', channel=0, note=65, velocity=65, time=160),\n",
       "    Message('note_on', channel=0, note=60, velocity=56, time=16),\n",
       "    Message('note_on', channel=0, note=57, velocity=54, time=1),\n",
       "    Message('note_on', channel=0, note=53, velocity=47, time=6),\n",
       "    Message('note_on', channel=0, note=65, velocity=0, time=63),\n",
       "    Message('note_on', channel=0, note=60, velocity=0, time=167),\n",
       "    Message('note_on', channel=0, note=65, velocity=60, time=1),\n",
       "    Message('note_on', channel=0, note=79, velocity=73, time=270),\n",
       "    Message('note_on', channel=0, note=67, velocity=79, time=6),\n",
       "    Message('note_on', channel=0, note=58, velocity=67, time=2),\n",
       "    Message('note_on', channel=0, note=79, velocity=0, time=3),\n",
       "    Message('note_on', channel=0, note=52, velocity=54, time=8),\n",
       "    Message('note_on', channel=0, note=60, velocity=55, time=12),\n",
       "    Message('note_on', channel=0, note=57, velocity=0, time=20),\n",
       "    Message('note_on', channel=0, note=65, velocity=0, time=0),\n",
       "    Message('note_on', channel=0, note=53, velocity=0, time=21),\n",
       "    Message('note_on', channel=0, note=52, velocity=0, time=193),\n",
       "    Message('note_on', channel=0, note=60, velocity=0, time=89),\n",
       "    Message('note_on', channel=0, note=65, velocity=65, time=236),\n",
       "    Message('note_on', channel=0, note=60, velocity=53, time=36),\n",
       "    Message('note_on', channel=0, note=53, velocity=42, time=10),\n",
       "    Message('note_on', channel=0, note=58, velocity=0, time=8),\n",
       "    Message('note_on', channel=0, note=67, velocity=0, time=2),\n",
       "    Message('note_on', channel=0, note=57, velocity=43, time=0),\n",
       "    Message('note_on', channel=0, note=53, velocity=0, time=783),\n",
       "    Message('note_on', channel=0, note=57, velocity=0, time=8),\n",
       "    Message('note_on', channel=0, note=60, velocity=0, time=8),\n",
       "    Message('note_on', channel=0, note=65, velocity=0, time=80),\n",
       "    Message('note_on', channel=0, note=60, velocity=78, time=4727),\n",
       "    Message('note_on', channel=0, note=67, velocity=64, time=299),\n",
       "    Message('note_on', channel=0, note=60, velocity=0, time=57),\n",
       "    Message('note_on', channel=0, note=67, velocity=0, time=12),\n",
       "    Message('note_on', channel=0, note=64, velocity=67, time=192),\n",
       "    Message('note_on', channel=0, note=67, velocity=65, time=6),\n",
       "    Message('note_on', channel=0, note=60, velocity=53, time=1),\n",
       "    Message('note_on', channel=0, note=64, velocity=0, time=76),\n",
       "    Message('note_on', channel=0, note=67, velocity=0, time=0),\n",
       "    Message('note_on', channel=0, note=60, velocity=0, time=181),\n",
       "    Message('note_on', channel=0, note=57, velocity=73, time=5),\n",
       "    Message('note_on', channel=0, note=60, velocity=51, time=2),\n",
       "    Message('note_on', channel=0, note=60, velocity=0, time=148),\n",
       "    Message('note_on', channel=0, note=64, velocity=53, time=156),\n",
       "    Message('note_on', channel=0, note=67, velocity=60, time=0),\n",
       "    Message('note_on', channel=0, note=67, velocity=0, time=72),\n",
       "    Message('note_on', channel=0, note=64, velocity=0, time=28),\n",
       "    Message('note_on', channel=0, note=64, velocity=66, time=149),\n",
       "    Message('note_on', channel=0, note=67, velocity=68, time=7),\n",
       "    Message('note_on', channel=0, note=67, velocity=0, time=75),\n",
       "    Message('note_on', channel=0, note=57, velocity=0, time=0),\n",
       "    Message('note_on', channel=0, note=64, velocity=0, time=11),\n",
       "    Message('note_on', channel=0, note=59, velocity=78, time=173),\n",
       "    Message('note_on', channel=0, note=71, velocity=68, time=1),\n",
       "    Message('note_on', channel=0, note=67, velocity=63, time=270),\n",
       "    Message('note_on', channel=0, note=65, velocity=52, time=1),\n",
       "    Message('note_on', channel=0, note=65, velocity=0, time=112),\n",
       "    Message('note_on', channel=0, note=67, velocity=0, time=9),\n",
       "    Message('note_on', channel=0, note=59, velocity=0, time=164),\n",
       "    Message('note_on', channel=0, note=65, velocity=53, time=4),\n",
       "    Message('note_on', channel=0, note=67, velocity=61, time=0),\n",
       "    Message('note_on', channel=0, note=59, velocity=49, time=1),\n",
       "    Message('note_on', channel=0, note=67, velocity=0, time=68),\n",
       "    Message('note_on', channel=0, note=65, velocity=0, time=12),\n",
       "    Message('note_on', channel=0, note=65, velocity=56, time=506),\n",
       "    Message('note_on', channel=0, note=67, velocity=59, time=3),\n",
       "    Message('note_on', channel=0, note=67, velocity=0, time=90),\n",
       "    Message('note_on', channel=0, note=65, velocity=0, time=2),\n",
       "    Message('note_on', channel=0, note=71, velocity=0, time=128),\n",
       "    Message('note_on', channel=0, note=59, velocity=0, time=38),\n",
       "    Message('note_on', channel=0, note=67, velocity=69, time=4),\n",
       "    Message('note_on', channel=0, note=65, velocity=62, time=2),\n",
       "    Message('note_on', channel=0, note=59, velocity=53, time=0),\n",
       "    Message('note_on', channel=0, note=65, velocity=0, time=67),\n",
       "    Message('note_on', channel=0, note=67, velocity=0, time=7),\n",
       "    Message('note_on', channel=0, note=59, velocity=0, time=0),\n",
       "    Message('note_on', channel=0, note=59, velocity=88, time=178),\n",
       "    Message('note_on', channel=0, note=71, velocity=78, time=1),\n",
       "    Message('note_on', channel=0, note=67, velocity=62, time=278),\n",
       "    Message('note_on', channel=0, note=65, velocity=51, time=5),\n",
       "    Message('note_on', channel=0, note=67, velocity=0, time=68),\n",
       "    Message('note_on', channel=0, note=65, velocity=0, time=16),\n",
       "    Message('note_on', channel=0, note=59, velocity=0, time=173),\n",
       "    Message('note_on', channel=0, note=67, velocity=71, time=3),\n",
       "    Message('note_on', channel=0, note=65, velocity=65, time=0),\n",
       "    Message('note_on', channel=0, note=59, velocity=60, time=1),\n",
       "    Message('note_on', channel=0, note=65, velocity=0, time=45),\n",
       "    Message('note_on', channel=0, note=67, velocity=0, time=5),\n",
       "    Message('note_on', channel=0, note=55, velocity=75, time=202),\n",
       "    Message('note_on', channel=0, note=59, velocity=0, time=171),\n",
       "    Message('note_on', channel=0, note=67, velocity=70, time=89),\n",
       "    Message('note_on', channel=0, note=65, velocity=60, time=5),\n",
       "    Message('note_on', channel=0, note=65, velocity=0, time=111),\n",
       "    Message('note_on', channel=0, note=67, velocity=0, time=11),\n",
       "    Message('note_on', channel=0, note=55, velocity=0, time=132),\n",
       "    Message('note_on', channel=0, note=65, velocity=68, time=4),\n",
       "    Message('note_on', channel=0, note=55, velocity=54, time=7),\n",
       "    Message('note_on', channel=0, note=67, velocity=63, time=8),\n",
       "    Message('note_on', channel=0, note=67, velocity=0, time=57),\n",
       "    Message('note_on', channel=0, note=65, velocity=0, time=5),\n",
       "    Message('note_on', channel=0, note=57, velocity=72, time=154),\n",
       "    Message('note_on', channel=0, note=55, velocity=0, time=113),\n",
       "    Message('note_on', channel=0, note=67, velocity=65, time=155),\n",
       "    Message('note_on', channel=0, note=64, velocity=58, time=2),\n",
       "    Message('note_on', channel=0, note=64, velocity=0, time=119),\n",
       "    Message('note_on', channel=0, note=67, velocity=0, time=10),\n",
       "    Message('note_on', channel=0, note=71, velocity=0, time=12),\n",
       "    Message('note_on', channel=0, note=64, velocity=60, time=134),\n",
       "    Message('note_on', channel=0, note=67, velocity=57, time=7),\n",
       "    Message('note_on', channel=0, note=67, velocity=0, time=110),\n",
       "    Message('note_on', channel=0, note=64, velocity=0, time=27),\n",
       "    Message('note_on', channel=0, note=64, velocity=63, time=458),\n",
       "    Message('note_on', channel=0, note=67, velocity=56, time=23),\n",
       "    Message('note_on', channel=0, note=67, velocity=0, time=75),\n",
       "    Message('note_on', channel=0, note=64, velocity=0, time=4),\n",
       "    Message('note_on', channel=0, note=64, velocity=65, time=165),\n",
       "    Message('note_on', channel=0, note=76, velocity=54, time=15),\n",
       "    Message('note_on', channel=0, note=67, velocity=59, time=5),\n",
       "    Message('note_on', channel=0, note=57, velocity=0, time=32),\n",
       "    Message('note_on', channel=0, note=67, velocity=0, time=65),\n",
       "    Message('note_on', channel=0, note=64, velocity=0, time=29),\n",
       "    Message('note_on', channel=0, note=76, velocity=0, time=3),\n",
       "    Message('note_on', channel=0, note=57, velocity=81, time=109),\n",
       "    Message('note_on', channel=0, note=69, velocity=68, time=1),\n",
       "    Message('note_on', channel=0, note=61, velocity=61, time=277),\n",
       "    Message('note_on', channel=0, note=67, velocity=65, time=1),\n",
       "    Message('note_on', channel=0, note=79, velocity=60, time=4),\n",
       "    Message('note_on', channel=0, note=79, velocity=0, time=7),\n",
       "    Message('note_on', channel=0, note=67, velocity=0, time=97),\n",
       "    Message('note_on', channel=0, note=61, velocity=0, time=9),\n",
       "    Message('note_on', channel=0, note=61, velocity=59, time=133),\n",
       "    Message('note_on', channel=0, note=67, velocity=65, time=11),\n",
       "    Message('note_on', channel=0, note=79, velocity=62, time=0),\n",
       "    Message('note_on', channel=0, note=67, velocity=0, time=97),\n",
       "    Message('note_on', channel=0, note=61, velocity=0, time=0),\n",
       "    Message('note_on', channel=0, note=79, velocity=0, time=29),\n",
       "    Message('note_on', channel=0, note=69, velocity=0, time=39),\n",
       "    Message('note_on', channel=0, note=52, velocity=76, time=78),\n",
       "    Message('note_on', channel=0, note=57, velocity=0, time=60),\n",
       "    Message('control_change', channel=0, control=64, value=127, time=100),\n",
       "    Message('control_change', channel=0, control=64, value=0, time=5),\n",
       "    Message('control_change', channel=0, control=64, value=127, time=10),\n",
       "    Message('control_change', channel=0, control=64, value=0, time=54),\n",
       "    Message('note_on', channel=0, note=52, velocity=0, time=31),\n",
       "    Message('note_on', channel=0, note=79, velocity=64, time=4),\n",
       "    Message('note_on', channel=0, note=67, velocity=67, time=1),\n",
       "    Message('note_on', channel=0, note=61, velocity=60, time=4),\n",
       "    Message('note_on', channel=0, note=52, velocity=56, time=1),\n",
       "    Message('note_on', channel=0, note=79, velocity=0, time=66),\n",
       "    Message('note_on', channel=0, note=67, velocity=0, time=28),\n",
       "    Message('note_on', channel=0, note=61, velocity=0, time=5),\n",
       "    Message('note_on', channel=0, note=61, velocity=65, time=148),\n",
       "    Message('note_on', channel=0, note=73, velocity=60, time=0),\n",
       "    Message('note_on', channel=0, note=61, velocity=0, time=75),\n",
       "    Message('note_on', channel=0, note=52, velocity=0, time=6),\n",
       "    Message('note_on', channel=0, note=52, velocity=39, time=4),\n",
       "    Message('note_on', channel=0, note=73, velocity=0, time=103),\n",
       "    Message('note_on', channel=0, note=50, velocity=62, time=55),\n",
       "    Message('note_on', channel=0, note=62, velocity=55, time=1),\n",
       "    Message('note_on', channel=0, note=52, velocity=0, time=87),\n",
       "    Message('note_on', channel=0, note=62, velocity=0, time=157),\n",
       "    Message('note_on', channel=0, note=65, velocity=71, time=3),\n",
       "    Message('note_on', channel=0, note=62, velocity=66, time=3),\n",
       "    Message('note_on', channel=0, note=52, velocity=71, time=5),\n",
       "    Message('note_on', channel=0, note=50, velocity=0, time=38),\n",
       "    Message('note_on', channel=0, note=62, velocity=0, time=58),\n",
       "    Message('note_on', channel=0, note=65, velocity=0, time=34),\n",
       "    Message('note_on', channel=0, note=53, velocity=79, time=106),\n",
       "    Message('note_on', channel=0, note=65, velocity=66, time=21),\n",
       "    Message('note_on', channel=0, note=62, velocity=64, time=8),\n",
       "    Message('note_on', channel=0, note=52, velocity=0, time=17),\n",
       "    Message('note_on', channel=0, note=65, velocity=0, time=116),\n",
       "    Message('note_on', channel=0, note=62, velocity=0, time=9),\n",
       "    Message('note_on', channel=0, note=57, velocity=70, time=98),\n",
       "    Message('note_on', channel=0, note=53, velocity=0, time=61),\n",
       "    Message('note_on', channel=0, note=65, velocity=56, time=187),\n",
       "    Message('note_on', channel=0, note=62, velocity=46, time=21),\n",
       "    Message('note_on', channel=0, note=65, velocity=0, time=71),\n",
       "    Message('note_on', channel=0, note=62, velocity=0, time=54),\n",
       "    Message('note_on', channel=0, note=65, velocity=62, time=109),\n",
       "    Message('note_on', channel=0, note=62, velocity=54, time=11),\n",
       "    Message('note_on', channel=0, note=57, velocity=0, time=56),\n",
       "    Message('note_on', channel=0, note=65, velocity=0, time=44),\n",
       "    Message('note_on', channel=0, note=62, velocity=0, time=1),\n",
       "    Message('note_on', channel=0, note=57, velocity=79, time=157),\n",
       "    Message('note_on', channel=0, note=57, velocity=0, time=240),\n",
       "    Message('note_on', channel=0, note=66, velocity=64, time=5),\n",
       "    Message('note_on', channel=0, note=60, velocity=59, time=5),\n",
       "    Message('note_on', channel=0, note=57, velocity=46, time=1),\n",
       "    Message('note_on', channel=0, note=66, velocity=0, time=124),\n",
       "    Message('note_on', channel=0, note=60, velocity=0, time=3),\n",
       "    Message('note_on', channel=0, note=66, velocity=66, time=141),\n",
       "    Message('note_on', channel=0, note=60, velocity=68, time=2),\n",
       "    Message('note_on', channel=0, note=60, velocity=0, time=67),\n",
       "    Message('note_on', channel=0, note=66, velocity=0, time=6),\n",
       "    Message('note_on', channel=0, note=62, velocity=74, time=180),\n",
       "    Message('note_on', channel=0, note=74, velocity=69, time=0),\n",
       "    Message('note_on', channel=0, note=74, velocity=0, time=11),\n",
       "    Message('note_on', channel=0, note=57, velocity=0, time=77),\n",
       "    Message('note_on', channel=0, note=72, velocity=61, time=158),\n",
       "    Message('note_on', channel=0, note=60, velocity=64, time=1),\n",
       "    Message('note_on', channel=0, note=66, velocity=65, time=3),\n",
       "    Message('note_on', channel=0, note=66, velocity=0, time=90),\n",
       "    Message('note_on', channel=0, note=60, velocity=0, time=5),\n",
       "    Message('note_on', channel=0, note=62, velocity=0, time=181),\n",
       "    Message('note_on', channel=0, note=60, velocity=65, time=3),\n",
       "    Message('note_on', channel=0, note=62, velocity=48, time=1),\n",
       "    Message('note_on', channel=0, note=66, velocity=62, time=0),\n",
       "    Message('note_on', channel=0, note=66, velocity=0, time=85),\n",
       "    Message('note_on', channel=0, note=72, velocity=0, time=18),\n",
       "    Message('note_on', channel=0, note=60, velocity=0, time=3),\n",
       "    Message('note_on', channel=0, note=62, velocity=0, time=21),\n",
       "    Message('note_on', channel=0, note=62, velocity=56, time=117),\n",
       "    Message('note_on', channel=0, note=65, velocity=60, time=272),\n",
       "    Message('note_on', channel=0, note=59, velocity=70, time=5),\n",
       "    Message('note_on', channel=0, note=67, velocity=60, time=2),\n",
       "    Message('note_on', channel=0, note=67, velocity=0, time=83),\n",
       "    Message('note_on', channel=0, note=62, velocity=0, time=33),\n",
       "    Message('note_on', channel=0, note=65, velocity=0, time=12),\n",
       "    Message('note_on', channel=0, note=57, velocity=72, time=106),\n",
       "    Message('note_on', channel=0, note=59, velocity=0, time=7),\n",
       "    Message('note_on', channel=0, note=59, velocity=64, time=4),\n",
       "    Message('note_on', channel=0, note=79, velocity=58, time=8),\n",
       "    Message('note_on', channel=0, note=65, velocity=58, time=2),\n",
       "    Message('note_on', channel=0, note=67, velocity=67, time=4),\n",
       "    Message('note_on', channel=0, note=79, velocity=0, time=5),\n",
       "    Message('note_on', channel=0, note=59, velocity=0, time=42),\n",
       "    Message('note_on', channel=0, note=67, velocity=0, time=62),\n",
       "    Message('note_on', channel=0, note=65, velocity=0, time=13),\n",
       "    Message('note_on', channel=0, note=55, velocity=73, time=114),\n",
       "    Message('note_on', channel=0, note=67, velocity=58, time=0),\n",
       "    Message('note_on', channel=0, note=57, velocity=0, time=81),\n",
       "    Message('note_on', channel=0, note=57, velocity=72, time=169),\n",
       "    Message('note_on', channel=0, note=77, velocity=60, time=17),\n",
       "    Message('note_on', channel=0, note=67, velocity=0, time=1),\n",
       "    Message('note_on', channel=0, note=65, velocity=60, time=4),\n",
       "    Message('note_on', channel=0, note=67, velocity=66, time=3),\n",
       "    Message('note_on', channel=0, note=77, velocity=0, time=1),\n",
       "    Message('note_on', channel=0, note=55, velocity=0, time=73),\n",
       "    Message('note_on', channel=0, note=67, velocity=0, time=31),\n",
       "    Message('note_on', channel=0, note=65, velocity=0, time=19),\n",
       "    Message('note_on', channel=0, note=59, velocity=84, time=98),\n",
       "    Message('note_on', channel=0, note=65, velocity=55, time=36),\n",
       "    Message('note_on', channel=0, note=67, velocity=68, time=0),\n",
       "    Message('note_on', channel=0, note=57, velocity=0, time=39),\n",
       "    Message('note_on', channel=0, note=65, velocity=0, time=52),\n",
       "    Message('note_on', channel=0, note=67, velocity=0, time=1),\n",
       "    Message('note_on', channel=0, note=72, velocity=72, time=139),\n",
       "    Message('note_on', channel=0, note=60, velocity=77, time=1),\n",
       "    Message('note_on', channel=0, note=59, velocity=0, time=82),\n",
       "    Message('note_on', channel=0, note=67, velocity=60, time=192),\n",
       "    Message('note_on', channel=0, note=64, velocity=37, time=24),\n",
       "    Message('note_on', channel=0, note=67, velocity=0, time=54),\n",
       "    Message('note_on', channel=0, note=64, velocity=0, time=8),\n",
       "    Message('note_on', channel=0, note=67, velocity=63, time=161),\n",
       "    Message('note_on', channel=0, note=64, velocity=60, time=0),\n",
       "    Message('note_on', channel=0, note=64, velocity=0, time=85),\n",
       "    Message('note_on', channel=0, note=67, velocity=0, time=5),\n",
       "    Message('note_on', channel=0, note=60, velocity=0, time=167),\n",
       "    Message('note_on', channel=0, note=60, velocity=56, time=5),\n",
       "    Message('note_on', channel=0, note=57, velocity=71, time=1),\n",
       "    Message('note_on', channel=0, note=60, velocity=0, time=101),\n",
       "    Message('note_on', channel=0, note=72, velocity=0, time=162),\n",
       "    Message('note_on', channel=0, note=64, velocity=47, time=11),\n",
       "    Message('note_on', channel=0, note=67, velocity=53, time=1),\n",
       "    Message('note_on', channel=0, note=67, velocity=0, time=68),\n",
       "    Message('note_on', channel=0, note=64, velocity=0, time=14),\n",
       "    Message('note_on', channel=0, note=64, velocity=60, time=156),\n",
       "    Message('note_on', channel=0, note=67, velocity=57, time=6),\n",
       "    Message('note_on', channel=0, note=57, velocity=0, time=55),\n",
       "    Message('note_on', channel=0, note=67, velocity=0, time=6),\n",
       "    Message('note_on', channel=0, note=64, velocity=0, time=1),\n",
       "    Message('note_on', channel=0, note=59, velocity=76, time=199),\n",
       "    Message('note_on', channel=0, note=71, velocity=66, time=1),\n",
       "    Message('note_on', channel=0, note=65, velocity=56, time=254),\n",
       "    Message('note_on', channel=0, note=67, velocity=60, time=1),\n",
       "    Message('note_on', channel=0, note=65, velocity=0, time=84),\n",
       "    Message('note_on', channel=0, note=67, velocity=0, time=1),\n",
       "    Message('note_on', channel=0, note=65, velocity=53, time=197),\n",
       "    Message('note_on', channel=0, note=67, velocity=59, time=0),\n",
       "    Message('note_on', channel=0, note=67, velocity=0, time=67),\n",
       "    Message('note_on', channel=0, note=65, velocity=0, time=16),\n",
       "    Message('note_on', channel=0, note=67, velocity=60, time=496),\n",
       "    Message('note_on', channel=0, note=65, velocity=53, time=5),\n",
       "    Message('note_on', channel=0, note=67, velocity=0, time=85),\n",
       "    Message('note_on', channel=0, note=65, velocity=0, time=7),\n",
       "    Message('note_on', channel=0, note=65, velocity=55, time=162),\n",
       "    Message('note_on', channel=0, note=67, velocity=55, time=9),\n",
       "    Message('note_on', channel=0, note=67, velocity=0, time=67),\n",
       "    Message('note_on', channel=0, note=65, velocity=0, time=2),\n",
       "    Message('note_on', channel=0, note=71, velocity=0, time=12),\n",
       "    Message('note_on', channel=0, note=59, velocity=0, time=3),\n",
       "    Message('note_on', channel=0, note=59, velocity=82, time=155),\n",
       "    Message('note_on', channel=0, note=71, velocity=72, time=3),\n",
       "    Message('note_on', channel=0, note=67, velocity=63, time=261),\n",
       "    Message('note_on', channel=0, note=65, velocity=57, time=1),\n",
       "    Message('note_on', channel=0, note=77, velocity=54, time=4),\n",
       "    Message('note_on', channel=0, note=77, velocity=0, time=9),\n",
       "    Message('note_on', channel=0, note=67, velocity=0, time=56),\n",
       "    Message('note_on', channel=0, note=65, velocity=0, time=1),\n",
       "    Message('note_on', channel=0, note=65, velocity=67, time=186),\n",
       "    Message('note_on', channel=0, note=77, velocity=62, time=2),\n",
       "    Message('note_on', channel=0, note=67, velocity=64, time=5),\n",
       "    Message('note_on', channel=0, note=67, velocity=0, time=53),\n",
       "    Message('note_on', channel=0, note=65, velocity=0, time=5),\n",
       "    Message('note_on', channel=0, note=77, velocity=0, time=14),\n",
       "    Message('note_on', channel=0, note=55, velocity=75, time=185),\n",
       "    Message('note_on', channel=0, note=59, velocity=0, time=125),\n",
       "    Message('note_on', channel=0, note=79, velocity=58, time=120),\n",
       "    Message('note_on', channel=0, note=67, velocity=64, time=4),\n",
       "    Message('note_on', channel=0, note=79, velocity=0, time=4),\n",
       "    Message('note_on', channel=0, note=65, velocity=56, time=1),\n",
       "    Message('note_on', channel=0, note=67, velocity=0, time=96),\n",
       "    Message('note_on', channel=0, note=65, velocity=0, time=8),\n",
       "    Message('note_on', channel=0, note=65, velocity=65, time=168),\n",
       "    Message('note_on', channel=0, note=67, velocity=69, time=1),\n",
       "    Message('note_on', channel=0, note=79, velocity=60, time=0),\n",
       "    Message('note_on', channel=0, note=77, velocity=63, time=3),\n",
       "    Message('note_on', channel=0, note=79, velocity=0, time=7),\n",
       "    Message('note_on', channel=0, note=67, velocity=0, time=52),\n",
       "    Message('note_on', channel=0, note=65, velocity=0, time=0),\n",
       "    Message('note_on', channel=0, note=77, velocity=0, time=10),\n",
       "    Message('note_on', channel=0, note=57, velocity=72, time=152),\n",
       "    Message('note_on', channel=0, note=71, velocity=0, time=40),\n",
       "    Message('note_on', channel=0, note=55, velocity=0, time=60),\n",
       "    Message('note_on', channel=0, note=67, velocity=65, time=169),\n",
       "    Message('note_on', channel=0, note=64, velocity=61, time=3),\n",
       "    Message('note_on', channel=0, note=64, velocity=0, time=91),\n",
       "    Message('note_on', channel=0, note=67, velocity=0, time=36),\n",
       "    Message('note_on', channel=0, note=64, velocity=63, time=129),\n",
       "    Message('note_on', channel=0, note=67, velocity=57, time=6),\n",
       "    Message('note_on', channel=0, note=79, velocity=53, time=1),\n",
       "    Message('note_on', channel=0, note=67, velocity=0, time=62),\n",
       "    Message('note_on', channel=0, note=64, velocity=0, time=1),\n",
       "    Message('note_on', channel=0, note=79, velocity=0, time=10),\n",
       "    Message('note_on', channel=0, note=64, velocity=57, time=498),\n",
       "    Message('note_on', channel=0, note=67, velocity=58, time=4),\n",
       "    Message('note_on', channel=0, note=67, velocity=0, time=81),\n",
       "    Message('note_on', channel=0, note=64, velocity=0, time=14),\n",
       "    Message('note_on', channel=0, note=64, velocity=62, time=154),\n",
       "    Message('note_on', channel=0, note=76, velocity=52, time=11),\n",
       "    Message('note_on', channel=0, note=79, velocity=52, time=2),\n",
       "    Message('note_on', channel=0, note=67, velocity=57, time=1),\n",
       "    Message('note_on', channel=0, note=76, velocity=0, time=3),\n",
       "    Message('note_on', channel=0, note=79, velocity=0, time=8),\n",
       "    Message('note_on', channel=0, note=57, velocity=0, time=4),\n",
       "    Message('note_on', channel=0, note=67, velocity=0, time=77),\n",
       "    Message('note_on', channel=0, note=64, velocity=0, time=12),\n",
       "    Message('note_on', channel=0, note=57, velocity=81, time=139),\n",
       "    Message('note_on', channel=0, note=69, velocity=67, time=2),\n",
       "    Message('note_on', channel=0, note=61, velocity=56, time=242),\n",
       "    Message('note_on', channel=0, note=67, velocity=59, time=13),\n",
       "    Message('note_on', channel=0, note=79, velocity=56, time=0),\n",
       "    Message('note_on', channel=0, note=61, velocity=0, time=88),\n",
       "    Message('note_on', channel=0, note=67, velocity=0, time=2),\n",
       "    Message('note_on', channel=0, note=79, velocity=0, time=4),\n",
       "    Message('note_on', channel=0, note=61, velocity=59, time=141),\n",
       "    Message('note_on', channel=0, note=67, velocity=58, time=18),\n",
       "    Message('note_on', channel=0, note=79, velocity=57, time=0),\n",
       "    Message('note_on', channel=0, note=57, velocity=0, time=39),\n",
       "    Message('note_on', channel=0, note=61, velocity=0, time=16),\n",
       "    Message('note_on', channel=0, note=67, velocity=0, time=10),\n",
       "    Message('note_on', channel=0, note=79, velocity=0, time=61),\n",
       "    Message('note_on', channel=0, note=69, velocity=0, time=23),\n",
       "    Message('note_on', channel=0, note=52, velocity=77, time=80),\n",
       "    Message('note_on', channel=0, note=64, velocity=62, time=1),\n",
       "    Message('note_on', channel=0, note=64, velocity=0, time=42),\n",
       "    Message('note_on', channel=0, note=52, velocity=0, time=7),\n",
       "    Message('control_change', channel=0, control=64, value=127, time=85),\n",
       "    Message('control_change', channel=0, control=64, value=0, time=48),\n",
       "    Message('control_change', channel=0, control=64, value=127, time=5),\n",
       "    Message('control_change', channel=0, control=64, value=0, time=39),\n",
       "    Message('note_on', channel=0, note=61, velocity=58, time=3),\n",
       "    Message('note_on', channel=0, note=52, velocity=53, time=11),\n",
       "    Message('note_on', channel=0, note=79, velocity=62, time=1),\n",
       "    Message('note_on', channel=0, note=67, velocity=61, time=5),\n",
       "    Message('note_on', channel=0, note=67, velocity=0, time=108),\n",
       "    Message('note_on', channel=0, note=79, velocity=0, time=2),\n",
       "    Message('note_on', channel=0, note=61, velocity=0, time=3),\n",
       "    Message('note_on', channel=0, note=61, velocity=61, time=143),\n",
       "    Message('note_on', channel=0, note=52, velocity=0, time=0),\n",
       "    Message('note_on', channel=0, note=52, velocity=53, time=10),\n",
       "    Message('note_on', channel=0, note=79, velocity=58, time=3),\n",
       "    Message('note_on', channel=0, note=67, velocity=59, time=5),\n",
       "    Message('note_on', channel=0, note=79, velocity=0, time=44),\n",
       "    Message('note_on', channel=0, note=67, velocity=0, time=17),\n",
       "    Message('note_on', channel=0, note=61, velocity=0, time=4),\n",
       "    Message('note_on', channel=0, note=62, velocity=58, time=173),\n",
       "    Message('note_on', channel=0, note=50, velocity=66, time=1),\n",
       "    Message('note_on', channel=0, note=52, velocity=0, time=47),\n",
       "    Message('note_on', channel=0, note=52, velocity=80, time=199),\n",
       "    Message('note_on', channel=0, note=64, velocity=69, time=2),\n",
       "    Message('note_on', channel=0, note=65, velocity=73, time=2),\n",
       "    Message('note_on', channel=0, note=77, velocity=70, time=2),\n",
       "    Message('note_on', channel=0, note=64, velocity=0, time=6),\n",
       "    Message('note_on', channel=0, note=77, velocity=0, time=0),\n",
       "    Message('note_on', channel=0, note=50, velocity=0, time=41),\n",
       "    Message('note_on', channel=0, note=62, velocity=0, time=66),\n",
       "    Message('note_on', channel=0, note=65, velocity=0, time=14),\n",
       "    Message('note_on', channel=0, note=53, velocity=82, time=115),\n",
       "    Message('note_on', channel=0, note=65, velocity=61, time=23),\n",
       "    Message('note_on', channel=0, note=62, velocity=48, time=14),\n",
       "    Message('note_on', channel=0, note=52, velocity=0, time=0),\n",
       "    Message('note_on', channel=0, note=65, velocity=0, time=73),\n",
       "    Message('note_on', channel=0, note=53, velocity=0, time=26),\n",
       "    Message('note_on', channel=0, note=62, velocity=0, time=4),\n",
       "    Message('note_on', channel=0, note=53, velocity=78, time=118),\n",
       "    Message('control_change', channel=0, control=64, value=127, time=59),\n",
       "    Message('note_on', channel=0, note=55, velocity=83, time=198),\n",
       "    Message('note_on', channel=0, note=65, velocity=71, time=7),\n",
       "    Message('note_on', channel=0, note=62, velocity=61, time=0),\n",
       "    Message('control_change', channel=0, control=64, value=0, time=3),\n",
       "    Message('note_on', channel=0, note=53, velocity=0, time=30),\n",
       "    Message('note_on', channel=0, note=65, velocity=0, time=101),\n",
       "    Message('note_on', channel=0, note=62, velocity=0, time=3),\n",
       "    Message('note_on', channel=0, note=65, velocity=73, time=108),\n",
       "    Message('note_on', channel=0, note=55, velocity=0, time=3),\n",
       "    Message('note_on', channel=0, note=55, velocity=64, time=5),\n",
       "    Message('note_on', channel=0, note=57, velocity=77, time=0),\n",
       "    Message('note_on', channel=0, note=62, velocity=61, time=10),\n",
       "    Message('note_on', channel=0, note=55, velocity=0, time=55),\n",
       "    Message('note_on', channel=0, note=62, velocity=0, time=39),\n",
       "    Message('note_on', channel=0, note=65, velocity=0, time=7),\n",
       "    Message('note_on', channel=0, note=64, velocity=92, time=173),\n",
       "    Message('note_on', channel=0, note=57, velocity=0, time=55),\n",
       "    Message('note_on', channel=0, note=67, velocity=64, time=212),\n",
       "    Message('note_on', channel=0, note=65, velocity=39, time=25),\n",
       "    Message('note_on', channel=0, note=67, velocity=0, time=40),\n",
       "    Message('note_on', channel=0, note=65, velocity=0, time=8),\n",
       "    Message('note_on', channel=0, note=67, velocity=65, time=185),\n",
       "    Message('note_on', channel=0, note=65, velocity=46, time=26),\n",
       "    Message('note_on', channel=0, note=67, velocity=0, time=24),\n",
       "    Message('note_on', channel=0, note=65, velocity=0, time=11),\n",
       "    Message('note_on', channel=0, note=62, velocity=73, time=199),\n",
       "    Message('note_on', channel=0, note=64, velocity=0, time=145),\n",
       "    Message('note_on', channel=0, note=67, velocity=60, time=112),\n",
       "    Message('note_on', channel=0, note=65, velocity=39, time=34),\n",
       "    Message('note_on', channel=0, note=65, velocity=0, time=69),\n",
       "    Message('note_on', channel=0, note=67, velocity=0, time=6),\n",
       "    Message('note_on', channel=0, note=67, velocity=64, time=180),\n",
       "    Message('note_on', channel=0, note=65, velocity=55, time=1),\n",
       "    Message('note_on', channel=0, note=55, velocity=41, time=4),\n",
       "    Message('note_on', channel=0, note=55, velocity=0, time=11),\n",
       "    Message('note_on', channel=0, note=67, velocity=0, time=53),\n",
       "    Message('note_on', channel=0, note=65, velocity=0, time=11),\n",
       "    Message('note_on', channel=0, note=60, velocity=65, time=177),\n",
       "    Message('note_on', channel=0, note=72, velocity=57, time=2),\n",
       "    Message('control_change', channel=0, control=64, value=127, time=110),\n",
       "    Message('control_change', channel=0, control=64, value=0, time=46),\n",
       "    Message('note_on', channel=0, note=62, velocity=0, time=12),\n",
       "    Message('note_on', channel=0, note=67, velocity=51, time=151),\n",
       "    Message('note_on', channel=0, note=64, velocity=43, time=5),\n",
       "    Message('note_on', channel=0, note=67, velocity=0, time=90),\n",
       "    Message('note_on', channel=0, note=64, velocity=0, time=1),\n",
       "    Message('note_on', channel=0, note=60, velocity=0, time=202),\n",
       "    Message('note_on', channel=0, note=67, velocity=59, time=5),\n",
       "    Message('note_on', channel=0, note=60, velocity=38, time=3),\n",
       "    Message('note_on', channel=0, note=64, velocity=50, time=3),\n",
       "    Message('note_on', channel=0, note=64, velocity=0, time=96),\n",
       "    Message('note_on', channel=0, note=67, velocity=0, time=3),\n",
       "    Message('note_on', channel=0, note=67, velocity=53, time=333),\n",
       "    Message('note_on', channel=0, note=64, velocity=37, time=3),\n",
       "    Message('control_change', channel=0, control=64, value=127, time=975),\n",
       "    Message('note_on', channel=0, note=64, velocity=0, time=34),\n",
       "    Message('note_on', channel=0, note=60, velocity=0, time=0),\n",
       "    Message('note_on', channel=0, note=72, velocity=0, time=1),\n",
       "    Message('note_on', channel=0, note=67, velocity=0, time=1),\n",
       "    Message('control_change', channel=0, control=64, value=0, time=0),\n",
       "    Message('note_on', channel=0, note=55, velocity=82, time=4936),\n",
       "    Message('note_on', channel=0, note=59, velocity=86, time=247),\n",
       "    Message('note_on', channel=0, note=55, velocity=0, time=104),\n",
       "    Message('note_on', channel=0, note=59, velocity=0, time=137),\n",
       "    Message('note_on', channel=0, note=59, velocity=67, time=6),\n",
       "    Message('note_on', channel=0, note=62, velocity=78, time=0),\n",
       "    Message('note_on', channel=0, note=59, velocity=0, time=114),\n",
       "    Message('note_on', channel=0, note=79, velocity=75, time=128),\n",
       "    Message('note_on', channel=0, note=67, velocity=85, time=1),\n",
       "    Message('note_on', channel=0, note=79, velocity=0, time=51),\n",
       "    Message('note_on', channel=0, note=62, velocity=0, time=84),\n",
       "    Message('note_on', channel=0, note=71, velocity=91, time=106),\n",
       "    Message('note_on', channel=0, note=67, velocity=0, time=76),\n",
       "    Message('note_on', channel=0, note=74, velocity=92, time=170),\n",
       "    Message('note_on', channel=0, note=71, velocity=0, time=84),\n",
       "    Message('note_on', channel=0, note=62, velocity=71, time=160),\n",
       "    Message('note_on', channel=0, note=59, velocity=76, time=5),\n",
       "    Message('note_on', channel=0, note=55, velocity=67, time=2),\n",
       "    Message('control_change', channel=0, control=64, value=127, time=219),\n",
       "    Message('note_on', channel=0, note=74, velocity=0, time=622),\n",
       "    Message('note_on', channel=0, note=74, velocity=85, time=4),\n",
       "    Message('note_on', channel=0, note=67, velocity=82, time=1),\n",
       "    Message('note_on', channel=0, note=71, velocity=84, time=1),\n",
       "    Message('control_change', channel=0, control=64, value=0, time=15),\n",
       "    Message('note_on', channel=0, note=59, velocity=0, time=84),\n",
       "    Message('note_on', channel=0, note=55, velocity=0, time=18),\n",
       "    Message('note_on', channel=0, note=62, velocity=0, time=8),\n",
       "    Message('control_change', channel=0, control=64, value=127, time=153),\n",
       "    Message('note_on', channel=0, note=55, velocity=78, time=548),\n",
       "    Message('control_change', channel=0, control=64, value=0, time=88),\n",
       "    Message('note_on', channel=0, note=74, velocity=0, time=3),\n",
       "    Message('note_on', channel=0, note=67, velocity=0, time=2),\n",
       "    Message('note_on', channel=0, note=71, velocity=0, time=2),\n",
       "    Message('note_on', channel=0, note=60, velocity=77, time=145),\n",
       "    Message('note_on', channel=0, note=55, velocity=0, time=116),\n",
       "    Message('note_on', channel=0, note=64, velocity=71, time=110),\n",
       "    Message('note_on', channel=0, note=60, velocity=0, time=146),\n",
       "    Message('note_on', channel=0, note=79, velocity=74, time=95),\n",
       "    Message('note_on', channel=0, note=67, velocity=83, time=1),\n",
       "    Message('note_on', channel=0, note=64, velocity=0, time=101),\n",
       "    Message('note_on', channel=0, note=72, velocity=86, time=128),\n",
       "    Message('note_on', channel=0, note=79, velocity=0, time=51),\n",
       "    Message('note_on', channel=0, note=67, velocity=0, time=58),\n",
       "    Message('note_on', channel=0, note=76, velocity=85, time=124),\n",
       "    Message('note_on', channel=0, note=72, velocity=0, time=114),\n",
       "    Message('note_on', channel=0, note=64, velocity=74, time=120),\n",
       "    Message('note_on', channel=0, note=60, velocity=70, time=3),\n",
       "    Message('note_on', channel=0, note=55, velocity=68, time=6),\n",
       "    Message('control_change', channel=0, control=64, value=127, time=266),\n",
       "    Message('note_on', channel=0, note=60, velocity=0, time=546),\n",
       "    Message('note_on', channel=0, note=76, velocity=0, time=0),\n",
       "    Message('note_on', channel=0, note=76, velocity=84, time=6),\n",
       "    Message('note_on', channel=0, note=60, velocity=59, time=1),\n",
       "    Message('note_on', channel=0, note=67, velocity=75, time=2),\n",
       "    Message('note_on', channel=0, note=72, velocity=78, time=1),\n",
       "    Message('control_change', channel=0, control=64, value=0, time=82),\n",
       "    Message('note_on', channel=0, note=55, velocity=0, time=2),\n",
       "    Message('note_on', channel=0, note=60, velocity=0, time=7),\n",
       "    Message('control_change', channel=0, control=64, value=127, time=98),\n",
       "    Message('note_on', channel=0, note=64, velocity=0, time=46),\n",
       "    Message('note_on', channel=0, note=54, velocity=73, time=565),\n",
       "    Message('note_on', channel=0, note=76, velocity=0, time=71),\n",
       "    Message('control_change', channel=0, control=64, value=0, time=3),\n",
       "    Message('note_on', channel=0, note=67, velocity=0, time=24),\n",
       "    Message('note_on', channel=0, note=72, velocity=0, time=4),\n",
       "    Message('note_on', channel=0, note=60, velocity=75, time=135),\n",
       "    Message('note_on', channel=0, note=54, velocity=0, time=131),\n",
       "    Message('note_on', channel=0, note=62, velocity=68, time=106),\n",
       "    Message('note_on', channel=0, note=60, velocity=0, time=37),\n",
       "    Message('note_on', channel=0, note=60, velocity=35, time=4),\n",
       "    Message('note_on', channel=0, note=60, velocity=0, time=61),\n",
       "    Message('note_on', channel=0, note=66, velocity=77, time=118),\n",
       "    Message('note_on', channel=0, note=62, velocity=0, time=138),\n",
       "    Message('note_on', channel=0, note=72, velocity=82, time=116),\n",
       "    Message('note_on', channel=0, note=66, velocity=0, time=125),\n",
       "    Message('note_on', channel=0, note=74, velocity=84, time=108),\n",
       "    Message('note_on', channel=0, note=72, velocity=0, time=69),\n",
       "    Message('note_on', channel=0, note=74, velocity=0, time=159),\n",
       "    Message('note_on', channel=0, note=74, velocity=68, time=11),\n",
       "    Message('note_on', channel=0, note=72, velocity=68, time=4),\n",
       "    Message('note_on', channel=0, note=62, velocity=71, time=1),\n",
       "    Message('note_on', channel=0, note=60, velocity=72, time=4),\n",
       "    Message('note_on', channel=0, note=54, velocity=67, time=1),\n",
       "    Message('note_on', channel=0, note=50, velocity=54, time=2),\n",
       "    Message('control_change', channel=0, control=64, value=127, time=108),\n",
       "    Message('note_on', channel=0, note=72, velocity=0, time=683),\n",
       "    Message('note_on', channel=0, note=74, velocity=0, time=0),\n",
       "    Message('note_on', channel=0, note=66, velocity=79, time=7),\n",
       "    Message('note_on', channel=0, note=74, velocity=82, time=3),\n",
       "    Message('note_on', channel=0, note=72, velocity=80, time=1),\n",
       "    Message('control_change', channel=0, control=64, value=0, time=77),\n",
       "    Message('note_on', channel=0, note=60, velocity=0, time=7),\n",
       "    Message('note_on', channel=0, note=54, velocity=0, time=1),\n",
       "    Message('note_on', channel=0, note=50, velocity=0, time=66),\n",
       "    Message('control_change', channel=0, control=64, value=127, time=92),\n",
       "    Message('note_on', channel=0, note=62, velocity=0, time=69),\n",
       "    Message('note_on', channel=0, note=55, velocity=70, time=472),\n",
       "    Message('control_change', channel=0, control=64, value=0, time=70),\n",
       "    Message('note_on', channel=0, note=72, velocity=0, time=6),\n",
       "    Message('note_on', channel=0, note=74, velocity=0, time=0),\n",
       "    Message('note_on', channel=0, note=66, velocity=0, time=24),\n",
       "    Message('control_change', channel=0, control=64, value=127, time=73),\n",
       "    Message('note_on', channel=0, note=59, velocity=82, time=52),\n",
       "    Message('control_change', channel=0, control=64, value=0, time=17),\n",
       "    Message('note_on', channel=0, note=55, velocity=0, time=134),\n",
       "    Message('note_on', channel=0, note=62, velocity=74, time=71),\n",
       "    Message('note_on', channel=0, note=59, velocity=0, time=112),\n",
       "    Message('note_on', channel=0, note=79, velocity=72, time=125),\n",
       "    Message('note_on', channel=0, note=67, velocity=81, time=0),\n",
       "    Message('note_on', channel=0, note=62, velocity=0, time=118),\n",
       "    Message('note_on', channel=0, note=79, velocity=0, time=62),\n",
       "    Message('note_on', channel=0, note=71, velocity=89, time=65),\n",
       "    Message('note_on', channel=0, note=67, velocity=0, time=85),\n",
       "    Message('note_on', channel=0, note=74, velocity=87, time=144),\n",
       "    Message('note_on', channel=0, note=71, velocity=0, time=64),\n",
       "    Message('note_on', channel=0, note=79, velocity=79, time=194),\n",
       "    Message('note_on', channel=0, note=74, velocity=0, time=1),\n",
       "    Message('note_on', channel=0, note=67, velocity=87, time=3),\n",
       "    Message('note_on', channel=0, note=59, velocity=75, time=0),\n",
       "    Message('note_on', channel=0, note=55, velocity=66, time=1),\n",
       "    Message('note_on', channel=0, note=74, velocity=67, time=0),\n",
       "    Message('note_on', channel=0, note=50, velocity=61, time=1),\n",
       "    Message('note_on', channel=0, note=71, velocity=69, time=0),\n",
       "    Message('note_on', channel=0, note=62, velocity=67, time=0),\n",
       "    Message('note_on', channel=0, note=47, velocity=63, time=1),\n",
       "    Message('control_change', channel=0, control=64, value=127, time=225),\n",
       "    Message('note_on', channel=0, note=47, velocity=0, time=15),\n",
       "    Message('note_on', channel=0, note=79, velocity=0, time=1152),\n",
       "    Message('note_on', channel=0, note=50, velocity=0, time=31),\n",
       "    Message('control_change', channel=0, control=64, value=0, time=70),\n",
       "    Message('note_on', channel=0, note=55, velocity=0, time=4),\n",
       "    Message('note_on', channel=0, note=71, velocity=0, time=10),\n",
       "    Message('note_on', channel=0, note=74, velocity=0, time=0),\n",
       "    Message('note_on', channel=0, note=62, velocity=0, time=11),\n",
       "    Message('note_on', channel=0, note=67, velocity=0, time=5),\n",
       "    Message('note_on', channel=0, note=59, velocity=0, time=3),\n",
       "    Message('note_on', channel=0, note=74, velocity=92, time=2183),\n",
       "    Message('note_on', channel=0, note=72, velocity=83, time=142),\n",
       "    Message('note_on', channel=0, note=74, velocity=0, time=70),\n",
       "    Message('note_on', channel=0, note=71, velocity=86, time=75),\n",
       "    Message('note_on', channel=0, note=72, velocity=0, time=32),\n",
       "    Message('note_on', channel=0, note=69, velocity=78, time=102),\n",
       "    Message('note_on', channel=0, note=71, velocity=0, time=90),\n",
       "    Message('note_on', channel=0, note=55, velocity=62, time=56),\n",
       "    Message('note_on', channel=0, note=62, velocity=65, time=1),\n",
       "    Message('note_on', channel=0, note=59, velocity=72, time=6),\n",
       "    Message('note_on', channel=0, note=67, velocity=77, time=7),\n",
       "    Message('note_on', channel=0, note=69, velocity=0, time=39),\n",
       "    Message('note_on', channel=0, note=67, velocity=0, time=69),\n",
       "    Message('note_on', channel=0, note=67, velocity=83, time=171),\n",
       "    Message('note_on', channel=0, note=79, velocity=77, time=0),\n",
       "    Message('note_on', channel=0, note=67, velocity=0, time=36),\n",
       "    Message('note_on', channel=0, note=79, velocity=0, time=5),\n",
       "    Message('note_on', channel=0, note=55, velocity=0, time=3),\n",
       "    Message('note_on', channel=0, note=62, velocity=0, time=212),\n",
       "    Message('note_on', channel=0, note=81, velocity=83, time=24),\n",
       "    Message('note_on', channel=0, note=69, velocity=86, time=0),\n",
       "    Message('note_on', channel=0, note=74, velocity=69, time=1),\n",
       "    Message('note_on', channel=0, note=62, velocity=69, time=3),\n",
       "    Message('note_on', channel=0, note=60, velocity=73, time=1),\n",
       "    Message('note_on', channel=0, note=54, velocity=71, time=5),\n",
       "    Message('note_on', channel=0, note=50, velocity=63, time=0),\n",
       "    Message('note_on', channel=0, note=59, velocity=0, time=27),\n",
       "    Message('note_on', channel=0, note=74, velocity=0, time=2),\n",
       "    Message('note_on', channel=0, note=69, velocity=0, time=10),\n",
       "    Message('note_on', channel=0, note=81, velocity=0, time=11),\n",
       "    Message('note_on', channel=0, note=81, velocity=73, time=201),\n",
       "    Message('note_on', channel=0, note=69, velocity=78, time=2),\n",
       "    Message('note_on', channel=0, note=81, velocity=0, time=31),\n",
       "    Message('note_on', channel=0, note=69, velocity=0, time=1),\n",
       "    Message('note_on', channel=0, note=54, velocity=0, time=5),\n",
       "    Message('note_on', channel=0, note=50, velocity=0, time=6),\n",
       "    Message('note_on', channel=0, note=62, velocity=0, time=115),\n",
       "    Message('note_on', channel=0, note=71, velocity=85, time=121),\n",
       "    Message('note_on', channel=0, note=55, velocity=52, time=18),\n",
       "    Message('note_on', channel=0, note=62, velocity=55, time=7),\n",
       "    Message('note_on', channel=0, note=59, velocity=65, time=1),\n",
       "    Message('note_on', channel=0, note=60, velocity=0, time=136),\n",
       "    Message('note_on', channel=0, note=74, velocity=65, time=128),\n",
       "    Message('note_on', channel=0, note=71, velocity=0, time=32),\n",
       "    Message('note_on', channel=0, note=74, velocity=0, time=6),\n",
       "    Message('note_on', channel=0, note=74, velocity=74, time=232),\n",
       "    Message('note_on', channel=0, note=59, velocity=0, time=79),\n",
       "    Message('note_on', channel=0, note=72, velocity=81, time=64),\n",
       "    Message('note_on', channel=0, note=55, velocity=0, time=13),\n",
       "    Message('note_on', channel=0, note=74, velocity=0, time=28),\n",
       "    Message('note_on', channel=0, note=62, velocity=0, time=11),\n",
       "    Message('note_on', channel=0, note=71, velocity=80, time=74),\n",
       "    Message('note_on', channel=0, note=72, velocity=0, time=52),\n",
       "    Message('note_on', channel=0, note=81, velocity=68, time=73),\n",
       "    Message('note_on', channel=0, note=69, velocity=74, time=4),\n",
       "    Message('note_on', channel=0, note=81, velocity=0, time=4),\n",
       "    Message('note_on', channel=0, note=71, velocity=0, time=16),\n",
       "    Message('note_on', channel=0, note=79, velocity=73, time=120),\n",
       "    Message('note_on', channel=0, note=67, velocity=77, time=1),\n",
       "    Message('note_on', channel=0, note=59, velocity=72, time=7),\n",
       "    Message('note_on', channel=0, note=62, velocity=61, time=0),\n",
       "    Message('note_on', channel=0, note=55, velocity=61, time=4),\n",
       "    Message('note_on', channel=0, note=69, velocity=0, time=18),\n",
       "    Message('note_on', channel=0, note=67, velocity=0, time=13),\n",
       "    Message('note_on', channel=0, note=55, velocity=0, time=52),\n",
       "    Message('note_on', channel=0, note=79, velocity=0, time=0),\n",
       "    Message('note_on', channel=0, note=79, velocity=69, time=179),\n",
       "    Message('note_on', channel=0, note=67, velocity=76, time=0),\n",
       "    Message('note_on', channel=0, note=79, velocity=0, time=26),\n",
       "    Message('note_on', channel=0, note=67, velocity=0, time=6),\n",
       "    Message('note_on', channel=0, note=62, velocity=0, time=234),\n",
       "    Message('note_on', channel=0, note=81, velocity=79, time=3),\n",
       "    Message('note_on', channel=0, note=72, velocity=66, time=1),\n",
       "    Message('note_on', channel=0, note=69, velocity=83, time=1),\n",
       "    Message('note_on', channel=0, note=54, velocity=65, time=5),\n",
       "    Message('note_on', channel=0, note=60, velocity=71, time=1),\n",
       "    Message('note_on', channel=0, note=62, velocity=64, time=0),\n",
       "    Message('note_on', channel=0, note=59, velocity=0, time=35),\n",
       "    Message('note_on', channel=0, note=72, velocity=0, time=0),\n",
       "    Message('note_on', channel=0, note=69, velocity=0, time=11),\n",
       "    Message('note_on', channel=0, note=81, velocity=0, time=4),\n",
       "    Message('note_on', channel=0, note=81, velocity=71, time=218),\n",
       "    Message('note_on', channel=0, note=69, velocity=76, time=2),\n",
       "    Message('note_on', channel=0, note=69, velocity=0, time=32),\n",
       "    Message('note_on', channel=0, note=81, velocity=0, time=2),\n",
       "    Message('note_on', channel=0, note=54, velocity=0, time=2),\n",
       "    Message('note_on', channel=0, note=62, velocity=0, time=75),\n",
       "    Message('note_on', channel=0, note=71, velocity=86, time=164),\n",
       "    Message('note_on', channel=0, note=83, velocity=69, time=0),\n",
       "    Message('note_on', channel=0, note=83, velocity=0, time=5),\n",
       "    Message('note_on', channel=0, note=59, velocity=58, time=20),\n",
       "    Message('note_on', channel=0, note=55, velocity=46, time=0),\n",
       "    Message('note_on', channel=0, note=62, velocity=50, time=2),\n",
       "    Message('note_on', channel=0, note=60, velocity=0, time=52),\n",
       "    Message('note_on', channel=0, note=71, velocity=0, time=371),\n",
       "    Message('note_on', channel=0, note=71, velocity=34, time=11),\n",
       "    Message('note_on', channel=0, note=71, velocity=0, time=30),\n",
       "    Message('note_on', channel=0, note=86, velocity=81, time=104),\n",
       "    Message('note_on', channel=0, note=74, velocity=89, time=0),\n",
       "    Message('note_on', channel=0, note=86, velocity=0, time=9),\n",
       "    Message('note_on', channel=0, note=55, velocity=0, time=71),\n",
       "    Message('note_on', channel=0, note=59, velocity=0, time=9),\n",
       "    Message('note_on', channel=0, note=72, velocity=84, time=52),\n",
       "    Message('note_on', channel=0, note=74, velocity=0, time=64),\n",
       "    Message('note_on', channel=0, note=62, velocity=0, time=26),\n",
       "    Message('note_on', channel=0, note=71, velocity=81, time=27),\n",
       "    Message('note_on', channel=0, note=83, velocity=64, time=1),\n",
       "    Message('note_on', channel=0, note=83, velocity=0, time=11),\n",
       "    Message('note_on', channel=0, note=72, velocity=0, time=55),\n",
       "    Message('note_on', channel=0, note=81, velocity=66, time=62),\n",
       "    Message('note_on', channel=0, note=69, velocity=69, time=1),\n",
       "    Message('note_on', channel=0, note=71, velocity=0, time=86),\n",
       "    Message('note_on', channel=0, note=67, velocity=74, time=59),\n",
       "    Message('note_on', channel=0, note=79, velocity=71, time=0),\n",
       "    Message('note_on', channel=0, note=59, velocity=66, time=11),\n",
       "    Message('note_on', channel=0, note=55, velocity=54, time=1),\n",
       "    Message('note_on', channel=0, note=62, velocity=55, time=0),\n",
       "    Message('note_on', channel=0, note=69, velocity=0, time=28),\n",
       "    Message('note_on', channel=0, note=79, velocity=0, time=8),\n",
       "    Message('note_on', channel=0, note=81, velocity=0, time=4),\n",
       "    Message('note_on', channel=0, note=67, velocity=0, time=2),\n",
       "    Message('note_on', channel=0, note=55, velocity=0, time=3),\n",
       "    Message('note_on', channel=0, note=79, velocity=68, time=216),\n",
       "    Message('note_on', channel=0, note=67, velocity=72, time=1),\n",
       "    Message('note_on', channel=0, note=79, velocity=0, time=44),\n",
       "    Message('note_on', channel=0, note=67, velocity=0, time=0),\n",
       "    Message('note_on', channel=0, note=62, velocity=0, time=80),\n",
       "    Message('note_on', channel=0, note=81, velocity=83, time=138),\n",
       "    Message('note_on', channel=0, note=69, velocity=87, time=3),\n",
       "    Message('note_on', channel=0, note=60, velocity=72, time=7),\n",
       "    Message('note_on', channel=0, note=54, velocity=67, time=0),\n",
       "    Message('note_on', channel=0, note=62, velocity=68, time=1),\n",
       "    Message('note_on', channel=0, note=59, velocity=0, time=36),\n",
       "    Message('note_on', channel=0, note=81, velocity=0, time=14),\n",
       "    Message('note_on', channel=0, note=69, velocity=0, time=3),\n",
       "    Message('note_on', channel=0, note=81, velocity=75, time=209),\n",
       "    Message('note_on', channel=0, note=69, velocity=80, time=1),\n",
       "    Message('note_on', channel=0, note=81, velocity=0, time=33),\n",
       "    Message('note_on', channel=0, note=54, velocity=0, time=13),\n",
       "    Message('note_on', channel=0, note=69, velocity=0, time=1),\n",
       "    Message('note_on', channel=0, note=62, velocity=0, time=70),\n",
       "    Message('note_on', channel=0, note=71, velocity=86, time=149),\n",
       "    Message('note_on', channel=0, note=62, velocity=60, time=28),\n",
       "    Message('note_on', channel=0, note=55, velocity=58, time=1),\n",
       "    Message('note_on', channel=0, note=59, velocity=69, time=2),\n",
       "    Message('note_on', channel=0, note=60, velocity=0, time=26),\n",
       "    Message('note_on', channel=0, note=74, velocity=76, time=214),\n",
       "    Message('note_on', channel=0, note=71, velocity=0, time=44),\n",
       "    Message('note_on', channel=0, note=74, velocity=0, time=1),\n",
       "    Message('note_on', channel=0, note=74, velocity=83, time=216),\n",
       "    Message('note_on', channel=0, note=55, velocity=0, time=59),\n",
       "    Message('note_on', channel=0, note=59, velocity=0, time=9),\n",
       "    Message('note_on', channel=0, note=72, velocity=86, time=56),\n",
       "    Message('note_on', channel=0, note=62, velocity=0, time=25),\n",
       "    Message('note_on', channel=0, note=74, velocity=0, time=26),\n",
       "    Message('note_on', channel=0, note=71, velocity=84, time=72),\n",
       "    Message('note_on', channel=0, note=72, velocity=0, time=47),\n",
       "    Message('note_on', channel=0, note=81, velocity=75, time=86),\n",
       "    Message('note_on', channel=0, note=69, velocity=81, time=1),\n",
       "    Message('note_on', channel=0, note=71, velocity=0, time=83),\n",
       "    Message('note_on', channel=0, note=67, velocity=79, time=55),\n",
       "    Message('note_on', channel=0, note=79, velocity=74, time=1),\n",
       "    Message('note_on', channel=0, note=55, velocity=64, time=3),\n",
       "    Message('note_on', channel=0, note=62, velocity=65, time=4),\n",
       "    Message('note_on', channel=0, note=59, velocity=69, time=1),\n",
       "    Message('note_on', channel=0, note=81, velocity=0, time=20),\n",
       "    Message('note_on', channel=0, note=69, velocity=0, time=7),\n",
       "    Message('note_on', channel=0, note=79, velocity=0, time=36),\n",
       "    Message('note_on', channel=0, note=67, velocity=0, time=6),\n",
       "    Message('note_on', channel=0, note=79, velocity=72, time=186),\n",
       "    Message('note_on', channel=0, note=67, velocity=80, time=0),\n",
       "    Message('note_on', channel=0, note=67, velocity=0, time=40),\n",
       "    Message('note_on', channel=0, note=79, velocity=0, time=6),\n",
       "    Message('note_on', channel=0, note=55, velocity=0, time=3),\n",
       "    Message('note_on', channel=0, note=62, velocity=0, time=72),\n",
       "    Message('note_on', channel=0, note=81, velocity=84, time=144),\n",
       "    Message('note_on', channel=0, note=69, velocity=89, time=2),\n",
       "    Message('note_on', channel=0, note=60, velocity=71, time=9),\n",
       "    Message('note_on', channel=0, note=62, velocity=66, time=1),\n",
       "    Message('note_on', channel=0, note=54, velocity=58, time=13),\n",
       "    Message('note_on', channel=0, note=50, velocity=52, time=0),\n",
       "    Message('note_on', channel=0, note=59, velocity=0, time=9),\n",
       "    Message('note_on', channel=0, note=81, velocity=0, time=34),\n",
       "    Message('note_on', channel=0, note=69, velocity=0, time=19),\n",
       "    Message('note_on', channel=0, note=81, velocity=78, time=177),\n",
       "    Message('note_on', channel=0, note=69, velocity=83, time=1),\n",
       "    Message('note_on', channel=0, note=54, velocity=0, time=46),\n",
       "    Message('note_on', channel=0, note=81, velocity=0, time=3),\n",
       "    Message('note_on', channel=0, note=69, velocity=0, time=9),\n",
       "    Message('note_on', channel=0, note=50, velocity=0, time=6),\n",
       "    Message('note_on', channel=0, note=62, velocity=0, time=93),\n",
       "    Message('note_on', channel=0, note=79, velocity=73, time=140),\n",
       "    Message('note_on', channel=0, note=67, velocity=80, time=2),\n",
       "    Message('note_on', channel=0, note=79, velocity=0, time=4),\n",
       "    Message('note_on', channel=0, note=59, velocity=66, time=6),\n",
       "    Message('note_on', channel=0, note=71, velocity=63, time=4),\n",
       "    Message('note_on', channel=0, note=50, velocity=52, time=1),\n",
       "    Message('note_on', channel=0, note=55, velocity=53, time=1),\n",
       "    Message('note_on', channel=0, note=47, velocity=56, time=1),\n",
       "    Message('note_on', channel=0, note=71, velocity=0, time=2),\n",
       "    Message('note_on', channel=0, note=47, velocity=0, time=8),\n",
       "    Message('note_on', channel=0, note=60, velocity=0, time=106),\n",
       "    Message('control_change', channel=0, control=64, value=127, time=316),\n",
       "    Message('note_on', channel=0, note=50, velocity=0, time=123),\n",
       "    Message('control_change', channel=0, control=64, value=0, time=203),\n",
       "    Message('note_on', channel=0, note=55, velocity=0, time=6),\n",
       "    Message('note_on', channel=0, note=67, velocity=0, time=48),\n",
       "    Message('note_on', channel=0, note=59, velocity=0, time=1),\n",
       "    Message('note_on', channel=0, note=67, velocity=79, time=2654),\n",
       "    Message('note_on', channel=0, note=79, velocity=69, time=0),\n",
       "    Message('note_on', channel=0, note=79, velocity=0, time=6),\n",
       "    Message('note_on', channel=0, note=72, velocity=86, time=241),\n",
       "    Message('note_on', channel=0, note=64, velocity=77, time=12),\n",
       "    Message('note_on', channel=0, note=58, velocity=68, time=1),\n",
       "    Message('note_on', channel=0, note=60, velocity=73, time=1),\n",
       "    Message('note_on', channel=0, note=58, velocity=0, time=37),\n",
       "    Message('note_on', channel=0, note=67, velocity=0, time=42),\n",
       "    Message('note_on', channel=0, note=79, velocity=69, time=127),\n",
       "    Message('note_on', channel=0, note=67, velocity=76, time=2),\n",
       "    Message('note_on', channel=0, note=79, velocity=0, time=6),\n",
       "    Message('control_change', channel=0, control=64, value=127, time=61),\n",
       "    Message('control_change', channel=0, control=64, value=0, time=143),\n",
       "    Message('note_on', channel=0, note=72, velocity=0, time=3),\n",
       "    Message('note_on', channel=0, note=72, velocity=86, time=5),\n",
       "    Message('note_on', channel=0, note=67, velocity=0, time=100),\n",
       "    Message('note_on', channel=0, note=68, velocity=73, time=123),\n",
       "    Message('note_on', channel=0, note=74, velocity=92, time=1),\n",
       "    Message('note_on', channel=0, note=65, velocity=72, time=1),\n",
       "    Message('note_on', channel=0, note=59, velocity=79, time=0),\n",
       "    Message('note_on', channel=0, note=64, velocity=0, time=77),\n",
       "    Message('note_on', channel=0, note=60, velocity=0, time=23),\n",
       "    Message('note_on', channel=0, note=72, velocity=0, time=0),\n",
       "    Message('note_on', channel=0, note=79, velocity=74, time=119),\n",
       "    Message('note_on', channel=0, note=67, velocity=82, time=1),\n",
       "    Message('note_on', channel=0, note=79, velocity=0, time=3),\n",
       "    Message('note_on', channel=0, note=68, velocity=0, time=23),\n",
       "    Message('note_on', channel=0, note=74, velocity=0, time=35),\n",
       "    Message('note_on', channel=0, note=74, velocity=86, time=151),\n",
       "    Message('note_on', channel=0, note=67, velocity=0, time=58),\n",
       "    Message('note_on', channel=0, note=72, velocity=89, time=185),\n",
       "    Message('note_on', channel=0, note=60, velocity=69, time=7),\n",
       "    Message('note_on', channel=0, note=64, velocity=74, time=1),\n",
       "    Message('note_on', channel=0, note=59, velocity=0, time=73),\n",
       "    Message('note_on', channel=0, note=74, velocity=0, time=8),\n",
       "    Message('note_on', channel=0, note=65, velocity=0, time=1),\n",
       "    Message('note_on', channel=0, note=60, velocity=0, time=375),\n",
       "    Message('note_on', channel=0, note=64, velocity=0, time=17),\n",
       "    Message('note_on', channel=0, note=84, velocity=66, time=330),\n",
       "    Message('note_on', channel=0, note=84, velocity=0, time=285),\n",
       "    Message('note_on', channel=0, note=79, velocity=54, time=263),\n",
       "    Message('note_on', channel=0, note=72, velocity=0, time=1),\n",
       "    Message('note_on', channel=0, note=67, velocity=63, time=1),\n",
       "    Message('note_on', channel=0, note=72, velocity=42, time=5),\n",
       "    Message('note_on', channel=0, note=79, velocity=0, time=1),\n",
       "    Message('note_on', channel=0, note=72, velocity=0, time=62),\n",
       "    Message('note_on', channel=0, note=64, velocity=78, time=164),\n",
       "    Message('note_on', channel=0, note=72, velocity=87, time=0),\n",
       "    Message('note_on', channel=0, note=60, velocity=69, time=2),\n",
       "    Message('note_on', channel=0, note=67, velocity=0, time=38),\n",
       "    Message('note_on', channel=0, note=79, velocity=69, time=199),\n",
       "    Message('note_on', channel=0, note=67, velocity=76, time=1),\n",
       "    Message('note_on', channel=0, note=79, velocity=0, time=80),\n",
       "    Message('note_on', channel=0, note=72, velocity=0, time=115),\n",
       "    Message('note_on', channel=0, note=72, velocity=82, time=4),\n",
       "    Message('note_on', channel=0, note=67, velocity=0, time=85),\n",
       "    Message('note_on', channel=0, note=74, velocity=90, time=156),\n",
       "    Message('note_on', channel=0, note=65, velocity=78, time=0),\n",
       "    Message('note_on', channel=0, note=71, velocity=80, time=1),\n",
       "    Message('note_on', channel=0, note=59, velocity=82, time=1),\n",
       "    Message('note_on', channel=0, note=72, velocity=0, time=68),\n",
       "    Message('note_on', channel=0, note=64, velocity=0, time=5),\n",
       "    Message('note_on', channel=0, note=60, velocity=0, time=2),\n",
       "    Message('note_on', channel=0, note=79, velocity=76, time=144),\n",
       "    Message('note_on', channel=0, note=65, velocity=0, time=2),\n",
       "    Message('note_on', channel=0, note=67, velocity=85, time=1),\n",
       "    Message('note_on', channel=0, note=65, velocity=56, time=10),\n",
       "    Message('note_on', channel=0, note=74, velocity=0, time=68),\n",
       "    Message('note_on', channel=0, note=71, velocity=0, time=14),\n",
       "    Message('note_on', channel=0, note=79, velocity=0, time=99),\n",
       "    Message('note_on', channel=0, note=74, velocity=84, time=30),\n",
       "    Message('note_on', channel=0, note=67, velocity=0, time=36),\n",
       "    Message('note_on', channel=0, note=72, velocity=90, time=199),\n",
       "    Message('note_on', channel=0, note=64, velocity=71, time=19),\n",
       "    Message('note_on', channel=0, note=60, velocity=64, time=1),\n",
       "    Message('note_on', channel=0, note=74, velocity=0, time=65),\n",
       "    Message('note_on', channel=0, note=65, velocity=0, time=2),\n",
       "    Message('note_on', channel=0, note=59, velocity=0, time=1),\n",
       "    Message('note_on', channel=0, note=60, velocity=0, time=311),\n",
       "    Message('note_on', channel=0, note=64, velocity=0, time=33),\n",
       "    Message('note_on', channel=0, note=84, velocity=71, time=321),\n",
       "    Message('note_on', channel=0, note=72, velocity=0, time=21),\n",
       "    Message('note_on', channel=0, note=67, velocity=68, time=481),\n",
       "    Message('note_on', channel=0, note=84, velocity=0, time=55),\n",
       "    Message('note_on', channel=0, note=64, velocity=83, time=165),\n",
       "    Message('note_on', channel=0, note=60, velocity=62, time=9),\n",
       "    Message('note_on', channel=0, note=72, velocity=85, time=0),\n",
       "    Message('note_on', channel=0, note=67, velocity=0, time=2),\n",
       "    Message('note_on', channel=0, note=67, velocity=61, time=11),\n",
       "    Message('note_on', channel=0, note=67, velocity=0, time=55),\n",
       "    Message('note_on', channel=0, note=67, velocity=72, time=173),\n",
       "    Message('note_on', channel=0, note=79, velocity=67, time=2),\n",
       "    Message('note_on', channel=0, note=79, velocity=0, time=5),\n",
       "    Message('note_on', channel=0, note=72, velocity=0, time=86),\n",
       "    Message('note_on', channel=0, note=72, velocity=83, time=113),\n",
       "    Message('note_on', channel=0, note=67, velocity=0, time=83),\n",
       "    Message('note_on', channel=0, note=74, velocity=89, time=159),\n",
       "    Message('note_on', channel=0, note=59, velocity=79, time=10),\n",
       "    Message('note_on', channel=0, note=71, velocity=75, time=1),\n",
       "    Message('note_on', channel=0, note=65, velocity=73, time=2),\n",
       "    Message('note_on', channel=0, note=64, velocity=0, time=59),\n",
       "    Message('note_on', channel=0, note=72, velocity=0, time=1),\n",
       "    Message('note_on', channel=0, note=79, velocity=73, time=148),\n",
       "    Message('note_on', channel=0, note=67, velocity=80, time=3),\n",
       "    Message('note_on', channel=0, note=79, velocity=0, time=3),\n",
       "    Message('note_on', channel=0, note=74, velocity=0, time=68),\n",
       "    Message('note_on', channel=0, note=74, velocity=77, time=156),\n",
       "    Message('note_on', channel=0, note=67, velocity=0, time=37),\n",
       "    Message('note_on', channel=0, note=71, velocity=0, time=31),\n",
       "    Message('note_on', channel=0, note=60, velocity=0, time=62),\n",
       "    Message('note_on', channel=0, note=72, velocity=83, time=98),\n",
       "    Message('note_on', channel=0, note=48, velocity=55, time=27),\n",
       "    Message('note_on', channel=0, note=64, velocity=76, time=4),\n",
       "    Message('note_on', channel=0, note=48, velocity=0, time=1),\n",
       "    Message('note_on', channel=0, note=60, velocity=68, time=1),\n",
       "    Message('note_on', channel=0, note=65, velocity=0, time=21),\n",
       "    Message('note_on', channel=0, note=74, velocity=0, time=4),\n",
       "    Message('note_on', channel=0, note=59, velocity=0, time=0),\n",
       "    Message('note_on', channel=0, note=74, velocity=79, time=178),\n",
       "    Message('note_on', channel=0, note=72, velocity=0, time=92),\n",
       "    Message('note_on', channel=0, note=72, velocity=79, time=131),\n",
       "    Message('note_on', channel=0, note=60, velocity=0, time=42),\n",
       "    Message('note_on', channel=0, note=74, velocity=0, time=48),\n",
       "    Message('note_on', channel=0, note=72, velocity=0, time=144),\n",
       "    Message('note_on', channel=0, note=69, velocity=77, time=5),\n",
       "    Message('note_on', channel=0, note=72, velocity=61, time=2),\n",
       "    Message('note_on', channel=0, note=60, velocity=61, time=1),\n",
       "    Message('note_on', channel=0, note=65, velocity=65, time=20),\n",
       "    Message('note_on', channel=0, note=64, velocity=0, time=69),\n",
       "    Message('note_on', channel=0, note=72, velocity=0, time=29),\n",
       "    Message('note_on', channel=0, note=72, velocity=78, time=108),\n",
       "    Message('note_on', channel=0, note=69, velocity=0, time=85),\n",
       "    Message('note_on', channel=0, note=72, velocity=0, time=157),\n",
       "    Message('note_on', channel=0, note=72, velocity=49, time=4),\n",
       "    Message('note_on', channel=0, note=69, velocity=60, time=1),\n",
       "    Message('note_on', channel=0, note=60, velocity=0, time=11),\n",
       "    Message('note_on', channel=0, note=72, velocity=0, time=183),\n",
       "    Message('note_on', channel=0, note=67, velocity=72, time=47),\n",
       "    Message('note_on', channel=0, note=64, velocity=64, time=2),\n",
       "    Message('note_on', channel=0, note=76, velocity=61, time=1),\n",
       "    Message('note_on', channel=0, note=60, velocity=61, time=28),\n",
       "    Message('note_on', channel=0, note=65, velocity=0, time=20),\n",
       "    Message('note_on', channel=0, note=69, velocity=0, time=12),\n",
       "    Message('note_on', channel=0, note=69, velocity=68, time=202),\n",
       "    Message('note_on', channel=0, note=81, velocity=66, time=0),\n",
       "    Message('note_on', channel=0, note=67, velocity=0, time=54),\n",
       "    Message('note_on', channel=0, note=79, velocity=66, time=179),\n",
       "    Message('note_on', channel=0, note=67, velocity=68, time=1),\n",
       "    Message('note_on', channel=0, note=81, velocity=0, time=15),\n",
       "    Message('note_on', channel=0, note=76, velocity=0, time=8),\n",
       "    Message('note_on', channel=0, note=79, velocity=0, time=46),\n",
       "    Message('note_on', channel=0, note=67, velocity=0, time=10),\n",
       "    Message('note_on', channel=0, note=69, velocity=0, time=8),\n",
       "    Message('note_on', channel=0, note=64, velocity=0, time=90),\n",
       "    Message('note_on', channel=0, note=65, velocity=63, time=19),\n",
       "    Message('note_on', channel=0, note=59, velocity=70, time=8),\n",
       "    Message('note_on', channel=0, note=79, velocity=59, time=15),\n",
       "    Message('note_on', channel=0, note=67, velocity=64, time=4),\n",
       "    Message('note_on', channel=0, note=60, velocity=0, time=92),\n",
       "    Message('note_on', channel=0, note=79, velocity=0, time=15),\n",
       "    Message('control_change', channel=0, control=64, value=127, time=61),\n",
       "    Message('control_change', channel=0, control=64, value=0, time=16),\n",
       "    Message('note_on', channel=0, note=81, velocity=66, time=52),\n",
       "    Message('note_on', channel=0, note=69, velocity=71, time=2),\n",
       "    Message('note_on', channel=0, note=81, velocity=0, time=61),\n",
       "    Message('note_on', channel=0, note=67, velocity=0, time=10),\n",
       "    Message('note_on', channel=0, note=67, velocity=62, time=171),\n",
       "    Message('note_on', channel=0, note=79, velocity=58, time=1),\n",
       "    Message('note_on', channel=0, note=79, velocity=0, time=10),\n",
       "    Message('note_on', channel=0, note=59, velocity=0, time=35),\n",
       "    Message('note_on', channel=0, note=65, velocity=0, time=4),\n",
       "    Message('note_on', channel=0, note=67, velocity=0, time=41),\n",
       "    Message('note_on', channel=0, note=69, velocity=0, time=61),\n",
       "    Message('note_on', channel=0, note=79, velocity=61, time=67),\n",
       "    Message('note_on', channel=0, note=59, velocity=65, time=2),\n",
       "    Message('note_on', channel=0, note=67, velocity=64, time=1),\n",
       "    Message('note_on', channel=0, note=77, velocity=55, time=4),\n",
       "    Message('note_on', channel=0, note=65, velocity=54, time=2),\n",
       "    Message('note_on', channel=0, note=77, velocity=0, time=6),\n",
       "    Message('note_on', channel=0, note=79, velocity=0, time=30),\n",
       "    Message('note_on', channel=0, note=81, velocity=73, time=189),\n",
       "    Message('note_on', channel=0, note=69, velocity=77, time=1),\n",
       "    Message('note_on', channel=0, note=81, velocity=0, time=49),\n",
       "    Message('note_on', channel=0, note=67, velocity=0, time=36),\n",
       "    Message('note_on', channel=0, note=71, velocity=80, time=164),\n",
       "    Message('note_on', channel=0, note=83, velocity=65, time=1),\n",
       "    Message('note_on', channel=0, note=83, velocity=0, time=6),\n",
       "    Message('note_on', channel=0, note=69, velocity=0, time=94),\n",
       "    Message('note_on', channel=0, note=72, velocity=75, time=140),\n",
       "    Message('note_on', channel=0, note=76, velocity=59, time=6),\n",
       "    Message('note_on', channel=0, note=64, velocity=55, time=30),\n",
       "    Message('note_on', channel=0, note=60, velocity=43, time=3),\n",
       "    Message('note_on', channel=0, note=59, velocity=0, time=36),\n",
       "    Message('note_on', channel=0, note=71, velocity=0, time=16),\n",
       "    Message('note_on', channel=0, note=65, velocity=0, time=55),\n",
       "    Message('note_on', channel=0, note=60, velocity=0, time=388),\n",
       "    Message('note_on', channel=0, note=64, velocity=0, time=3),\n",
       "    Message('note_on', channel=0, note=76, velocity=0, time=35),\n",
       "    Message('note_on', channel=0, note=72, velocity=0, time=9),\n",
       "    Message('note_on', channel=0, note=79, velocity=63, time=641),\n",
       "    Message('note_on', channel=0, note=76, velocity=55, time=45),\n",
       "    Message('note_on', channel=0, note=72, velocity=48, time=6),\n",
       "    Message('note_on', channel=0, note=81, velocity=68, time=204),\n",
       "    Message('note_on', channel=0, note=79, velocity=0, time=63),\n",
       "    Message('note_on', channel=0, note=79, velocity=69, time=171),\n",
       "    Message('note_on', channel=0, note=79, velocity=0, time=87),\n",
       "    Message('note_on', channel=0, note=81, velocity=0, time=0),\n",
       "    Message('note_on', channel=0, note=76, velocity=0, time=149),\n",
       "    Message('note_on', channel=0, note=79, velocity=71, time=2),\n",
       "    Message('note_on', channel=0, note=77, velocity=69, time=1),\n",
       "    Message('note_on', channel=0, note=76, velocity=56, time=7),\n",
       "    Message('note_on', channel=0, note=71, velocity=45, time=24),\n",
       "    Message('control_change', channel=0, control=64, value=127, time=43),\n",
       "    Message('note_on', channel=0, note=76, velocity=0, time=128),\n",
       "    Message('control_change', channel=0, control=64, value=0, time=2),\n",
       "    Message('note_on', channel=0, note=81, velocity=66, time=51),\n",
       "    Message('note_on', channel=0, note=79, velocity=0, time=38),\n",
       "    Message('note_on', channel=0, note=79, velocity=61, time=207),\n",
       "    Message('control_change', channel=0, control=64, value=127, time=27),\n",
       "    Message('note_on', channel=0, note=77, velocity=0, time=29),\n",
       "    Message('control_change', channel=0, control=64, value=0, time=9),\n",
       "    Message('note_on', channel=0, note=79, velocity=0, time=33),\n",
       "    Message('note_on', channel=0, note=81, velocity=0, time=3),\n",
       "    Message('note_on', channel=0, note=71, velocity=0, time=3),\n",
       "    Message('note_on', channel=0, note=72, velocity=0, time=7),\n",
       "    Message('note_on', channel=0, note=79, velocity=65, time=121),\n",
       "    Message('note_on', channel=0, note=77, velocity=63, time=26),\n",
       "    Message('note_on', channel=0, note=71, velocity=51, time=10),\n",
       "    Message('note_on', channel=0, note=81, velocity=77, time=215),\n",
       "    Message('note_on', channel=0, note=79, velocity=0, time=51),\n",
       "    Message('note_on', channel=0, note=83, velocity=79, time=182),\n",
       "    Message('note_on', channel=0, note=81, velocity=0, time=93),\n",
       "    Message('note_on', channel=0, note=77, velocity=0, time=132),\n",
       "    Message('note_on', channel=0, note=84, velocity=65, time=16),\n",
       "    Message('note_on', channel=0, note=72, velocity=51, time=34),\n",
       "    Message('note_on', channel=0, note=76, velocity=46, time=23),\n",
       "    Message('note_on', channel=0, note=83, velocity=0, time=52),\n",
       "    Message('note_on', channel=0, note=71, velocity=0, time=5),\n",
       "    Message('note_on', channel=0, note=84, velocity=0, time=192),\n",
       "    Message('note_on', channel=0, note=76, velocity=0, time=180),\n",
       "    Message('note_on', channel=0, note=72, velocity=0, time=18),\n",
       "    Message('note_on', channel=0, note=67, velocity=62, time=463),\n",
       "    Message('note_on', channel=0, note=64, velocity=50, time=43),\n",
       "    Message('note_on', channel=0, note=60, velocity=50, time=51),\n",
       "    Message('note_on', channel=0, note=69, velocity=62, time=153),\n",
       "    Message('note_on', channel=0, note=67, velocity=0, time=64),\n",
       "    Message('control_change', channel=0, control=64, value=127, time=50),\n",
       "    Message('note_on', channel=0, note=67, velocity=63, time=126),\n",
       "    Message('note_on', channel=0, note=64, velocity=0, time=24),\n",
       "    Message('note_on', channel=0, note=67, velocity=0, time=62),\n",
       "    Message('control_change', channel=0, control=64, value=0, time=11),\n",
       "    Message('note_on', channel=0, note=69, velocity=0, time=10),\n",
       "    Message('note_on', channel=0, note=67, velocity=65, time=115),\n",
       "    Message('note_on', channel=0, note=65, velocity=54, time=9),\n",
       "    Message('note_on', channel=0, note=59, velocity=57, time=27),\n",
       "    Message('control_change', channel=0, control=64, value=127, time=69),\n",
       "    Message('note_on', channel=0, note=60, velocity=0, time=43),\n",
       "    Message('control_change', channel=0, control=64, value=0, time=64),\n",
       "    Message('note_on', channel=0, note=69, velocity=65, time=49),\n",
       "    Message('note_on', channel=0, note=67, velocity=0, time=96),\n",
       "    Message('note_on', channel=0, note=67, velocity=56, time=135),\n",
       "    Message('note_on', channel=0, note=65, velocity=0, time=65),\n",
       "    Message('note_on', channel=0, note=59, velocity=0, time=4),\n",
       "    Message('note_on', channel=0, note=67, velocity=0, time=63),\n",
       "    Message('note_on', channel=0, note=69, velocity=0, time=1),\n",
       "    Message('note_on', channel=0, note=79, velocity=60, time=99),\n",
       "    Message('note_on', channel=0, note=67, velocity=65, time=1),\n",
       "    Message('note_on', channel=0, note=59, velocity=53, time=47),\n",
       "    Message('note_on', channel=0, note=65, velocity=49, time=4),\n",
       "    Message('note_on', channel=0, note=79, velocity=0, time=36),\n",
       "    Message('note_on', channel=0, note=81, velocity=68, time=167),\n",
       "    Message('note_on', channel=0, note=69, velocity=71, time=0),\n",
       "    Message('note_on', channel=0, note=81, velocity=0, time=9),\n",
       "    Message('note_on', channel=0, note=67, velocity=0, time=144),\n",
       "    Message('note_on', channel=0, note=71, velocity=78, time=90),\n",
       "    Message('note_on', channel=0, note=69, velocity=0, time=109),\n",
       "    Message('note_on', channel=0, note=72, velocity=68, time=163),\n",
       "    Message('note_on', channel=0, note=65, velocity=0, time=44),\n",
       "    Message('note_on', channel=0, note=71, velocity=0, time=2),\n",
       "    Message('note_on', channel=0, note=64, velocity=48, time=4),\n",
       "    Message('note_on', channel=0, note=60, velocity=38, time=4),\n",
       "    Message('note_on', channel=0, note=59, velocity=0, time=59),\n",
       "    Message('note_on', channel=0, note=60, velocity=0, time=782),\n",
       "    Message('note_on', channel=0, note=64, velocity=0, time=3),\n",
       "    Message('note_on', channel=0, note=72, velocity=0, time=17),\n",
       "    Message('note_on', channel=0, note=66, velocity=69, time=5558),\n",
       "    Message('note_on', channel=0, note=50, velocity=46, time=17),\n",
       "    Message('note_on', channel=0, note=54, velocity=51, time=3),\n",
       "    Message('note_on', channel=0, note=62, velocity=47, time=1),\n",
       "    Message('note_on', channel=0, note=57, velocity=47, time=1),\n",
       "    Message('control_change', channel=0, control=64, value=127, time=111),\n",
       "    Message('note_on', channel=0, note=64, velocity=75, time=629),\n",
       "    Message('control_change', channel=0, control=64, value=0, time=39),\n",
       "    Message('note_on', channel=0, note=66, velocity=0, time=96),\n",
       "    Message('note_on', channel=0, note=50, velocity=0, time=17),\n",
       "    Message('note_on', channel=0, note=62, velocity=0, time=33),\n",
       "    Message('note_on', channel=0, note=57, velocity=0, time=8),\n",
       "    Message('note_on', channel=0, note=54, velocity=0, time=22),\n",
       "    Message('note_on', channel=0, note=74, velocity=61, time=141),\n",
       "    Message('note_on', channel=0, note=62, velocity=62, time=2),\n",
       "    Message('note_on', channel=0, note=74, velocity=0, time=4),\n",
       "    Message('note_on', channel=0, note=54, velocity=51, time=7),\n",
       "    Message('note_on', channel=0, note=50, velocity=47, time=5),\n",
       "    Message('note_on', channel=0, note=57, velocity=49, time=1),\n",
       "    Message('note_on', channel=0, note=64, velocity=0, time=85),\n",
       "    Message('control_change', channel=0, control=64, value=127, time=117),\n",
       "    Message('note_on', channel=0, note=57, velocity=0, time=448),\n",
       "    Message('control_change', channel=0, control=64, value=0, time=3),\n",
       "    Message('note_on', channel=0, note=50, velocity=0, time=17),\n",
       "    Message('note_on', channel=0, note=50, velocity=34, time=6),\n",
       "    Message('note_on', channel=0, note=54, velocity=0, time=2),\n",
       "    Message('note_on', channel=0, note=62, velocity=0, time=0),\n",
       "    Message('note_on', channel=0, note=54, velocity=40, time=4),\n",
       "    Message('note_on', channel=0, note=62, velocity=56, time=0),\n",
       "    Message('control_change', channel=0, control=64, value=127, time=50),\n",
       "    Message('note_on', channel=0, note=49, velocity=57, time=251),\n",
       "    Message('note_on', channel=0, note=64, velocity=69, time=21),\n",
       "    Message('note_on', channel=0, note=55, velocity=57, time=31),\n",
       "    Message('note_on', channel=0, note=57, velocity=54, time=0),\n",
       "    Message('control_change', channel=0, control=64, value=0, time=6),\n",
       "    Message('control_change', channel=0, control=64, value=127, time=59),\n",
       "    Message('note_on', channel=0, note=54, velocity=0, time=19),\n",
       "    Message('note_on', channel=0, note=62, velocity=0, time=2),\n",
       "    Message('note_on', channel=0, note=50, velocity=0, time=33),\n",
       "    Message('note_on', channel=0, note=49, velocity=0, time=154),\n",
       "    Message('note_on', channel=0, note=55, velocity=0, time=0),\n",
       "    Message('control_change', channel=0, control=64, value=0, time=0),\n",
       "    Message('note_on', channel=0, note=55, velocity=46, time=6),\n",
       "    Message('note_on', channel=0, note=62, velocity=66, time=1),\n",
       "    Message('note_on', channel=0, note=49, velocity=50, time=0),\n",
       "    Message('note_on', channel=0, note=64, velocity=0, time=104),\n",
       "    Message('note_on', channel=0, note=49, velocity=0, time=184),\n",
       "    Message('note_on', channel=0, note=57, velocity=0, time=4),\n",
       "    Message('note_on', channel=0, note=64, velocity=77, time=4),\n",
       "    Message('note_on', channel=0, note=62, velocity=0, time=128),\n",
       "    Message('note_on', channel=0, note=66, velocity=75, time=205),\n",
       "    Message('note_on', channel=0, note=62, velocity=45, time=37),\n",
       "    Message('note_on', channel=0, note=50, velocity=44, time=5),\n",
       "    Message('note_on', channel=0, note=57, velocity=45, time=0),\n",
       "    Message('note_on', channel=0, note=54, velocity=44, time=3),\n",
       "    Message('note_on', channel=0, note=62, velocity=0, time=2),\n",
       "    Message('note_on', channel=0, note=64, velocity=0, time=65),\n",
       "    Message('note_on', channel=0, note=55, velocity=0, time=73),\n",
       "    Message('control_change', channel=0, control=64, value=127, time=261),\n",
       "    Message('control_change', channel=0, control=64, value=0, time=235),\n",
       "    Message('note_on', channel=0, note=50, velocity=0, time=3),\n",
       "    Message('note_on', channel=0, note=54, velocity=0, time=0),\n",
       "    Message('note_on', channel=0, note=57, velocity=0, time=0),\n",
       "    Message('note_on', channel=0, note=62, velocity=49, time=6),\n",
       "    Message('note_on', channel=0, note=50, velocity=30, time=3),\n",
       "    Message('note_on', channel=0, note=57, velocity=31, time=1),\n",
       "    Message('note_on', channel=0, note=54, velocity=37, time=1),\n",
       "    Message('note_on', channel=0, note=66, velocity=0, time=54),\n",
       "    Message('note_on', channel=0, note=50, velocity=0, time=5),\n",
       "    Message('note_on', channel=0, note=54, velocity=0, time=15),\n",
       "    Message('note_on', channel=0, note=57, velocity=0, time=8),\n",
       "    Message('note_on', channel=0, note=78, velocity=75, time=244),\n",
       "    Message('note_on', channel=0, note=50, velocity=55, time=4),\n",
       "    Message('note_on', channel=0, note=66, velocity=75, time=1),\n",
       "    Message('note_on', channel=0, note=54, velocity=56, time=3),\n",
       "    Message('note_on', channel=0, note=78, velocity=0, time=1),\n",
       "    Message('note_on', channel=0, note=57, velocity=57, time=4),\n",
       "    Message('control_change', channel=0, control=64, value=127, time=219),\n",
       "    Message('control_change', channel=0, control=64, value=0, time=31),\n",
       "    Message('control_change', channel=0, control=64, value=127, time=84),\n",
       "    Message('note_on', channel=0, note=64, velocity=67, time=289),\n",
       "    Message('note_on', channel=0, note=76, velocity=56, time=2),\n",
       "    Message('note_on', channel=0, note=54, velocity=0, time=26),\n",
       "    Message('control_change', channel=0, control=64, value=0, time=3),\n",
       "    Message('note_on', channel=0, note=57, velocity=0, time=0),\n",
       "    Message('note_on', channel=0, note=62, velocity=0, time=0),\n",
       "    Message('note_on', channel=0, note=66, velocity=0, time=0),\n",
       "    Message('note_on', channel=0, note=50, velocity=0, time=1),\n",
       "    Message('note_on', channel=0, note=74, velocity=61, time=300),\n",
       "    Message('note_on', channel=0, note=62, velocity=65, time=4),\n",
       "    Message('note_on', channel=0, note=54, velocity=57, time=2),\n",
       "    Message('note_on', channel=0, note=50, velocity=55, time=4),\n",
       "    Message('note_on', channel=0, note=57, velocity=56, time=3),\n",
       "    Message('note_on', channel=0, note=76, velocity=0, time=80),\n",
       "    Message('note_on', channel=0, note=64, velocity=0, time=13),\n",
       "    Message('note_on', channel=0, note=74, velocity=0, time=210),\n",
       "    Message('note_on', channel=0, note=62, velocity=0, time=174),\n",
       "    Message('note_on', channel=0, note=50, velocity=0, time=122),\n",
       "    Message('note_on', channel=0, note=54, velocity=0, time=50),\n",
       "    Message('note_on', channel=0, note=74, velocity=57, time=4),\n",
       "    Message('note_on', channel=0, note=54, velocity=47, time=3),\n",
       "    Message('note_on', channel=0, note=62, velocity=67, time=0),\n",
       "    Message('note_on', channel=0, note=50, velocity=37, time=1),\n",
       "    Message('note_on', channel=0, note=57, velocity=0, time=41),\n",
       "    Message('control_change', channel=0, control=64, value=127, time=43),\n",
       "    Message('note_on', channel=0, note=74, velocity=0, time=15),\n",
       "    Message('note_on', channel=0, note=64, velocity=69, time=189),\n",
       "    Message('note_on', channel=0, note=76, velocity=57, time=1),\n",
       "    Message('note_on', channel=0, note=76, velocity=0, time=10),\n",
       "    Message('note_on', channel=0, note=49, velocity=51, time=3),\n",
       "    Message('note_on', channel=0, note=52, velocity=37, time=5),\n",
       "    Message('note_on', channel=0, note=55, velocity=52, time=1),\n",
       "    Message('note_on', channel=0, note=57, velocity=48, time=3),\n",
       "    Message('control_change', channel=0, control=64, value=0, time=46),\n",
       "    Message('note_on', channel=0, note=50, velocity=0, time=11),\n",
       "    Message('note_on', channel=0, note=62, velocity=0, time=94),\n",
       "    Message('note_on', channel=0, note=54, velocity=0, time=21),\n",
       "    Message('note_on', channel=0, note=64, velocity=0, time=36),\n",
       "    Message('note_on', channel=0, note=52, velocity=0, time=18),\n",
       "    Message('note_on', channel=0, note=64, velocity=67, time=73),\n",
       "    Message('note_on', channel=0, note=64, velocity=0, time=191),\n",
       "    Message('note_on', channel=0, note=55, velocity=0, time=120),\n",
       "    Message('note_on', channel=0, note=64, velocity=62, time=4),\n",
       "    Message('note_on', channel=0, note=76, velocity=51, time=4),\n",
       "    Message('note_on', channel=0, note=55, velocity=35, time=1),\n",
       "    Message('note_on', channel=0, note=49, velocity=0, time=8),\n",
       "    Message('note_on', channel=0, note=57, velocity=0, time=37),\n",
       "    Message('note_on', channel=0, note=76, velocity=0, time=268),\n",
       "    Message('note_on', channel=0, note=48, velocity=39, time=10),\n",
       "    Message('note_on', channel=0, note=62, velocity=61, time=1),\n",
       "    Message('note_on', channel=0, note=48, velocity=0, time=5),\n",
       "    Message('note_on', channel=0, note=54, velocity=47, time=27),\n",
       "    Message('note_on', channel=0, note=66, velocity=40, time=0),\n",
       "    Message('note_on', channel=0, note=50, velocity=38, time=5),\n",
       "    Message('note_on', channel=0, note=57, velocity=42, time=3),\n",
       "    Message('note_on', channel=0, note=64, velocity=0, time=71),\n",
       "    Message('note_on', channel=0, note=55, velocity=0, time=1),\n",
       "    Message('control_change', channel=0, control=64, value=127, time=492),\n",
       "    Message('note_on', channel=0, note=66, velocity=0, time=54),\n",
       "    Message('note_on', channel=0, note=50, velocity=0, time=49),\n",
       "    Message('note_on', channel=0, note=57, velocity=0, time=48),\n",
       "    Message('note_on', channel=0, note=54, velocity=0, time=0),\n",
       "    Message('control_change', channel=0, control=64, value=0, time=14),\n",
       "    Message('note_on', channel=0, note=62, velocity=0, time=45),\n",
       "    Message('note_on', channel=0, note=66, velocity=68, time=119),\n",
       "    Message('note_on', channel=0, note=78, velocity=60, time=0),\n",
       "    Message('note_on', channel=0, note=78, velocity=0, time=9),\n",
       "    Message('note_on', channel=0, note=50, velocity=38, time=37),\n",
       "    Message('note_on', channel=0, note=57, velocity=39, time=1),\n",
       "    Message('note_on', channel=0, note=54, velocity=42, time=3),\n",
       "    Message('note_on', channel=0, note=79, velocity=73, time=258),\n",
       "    Message('note_on', channel=0, note=67, velocity=83, time=1),\n",
       "    Message('note_on', channel=0, note=79, velocity=0, time=7),\n",
       "    Message('note_on', channel=0, note=66, velocity=0, time=97),\n",
       "    Message('note_on', channel=0, note=81, velocity=76, time=215),\n",
       "    Message('note_on', channel=0, note=69, velocity=82, time=1),\n",
       "    Message('note_on', channel=0, note=50, velocity=0, time=8),\n",
       "    Message('note_on', channel=0, note=67, velocity=0, time=82),\n",
       "    Message('note_on', channel=0, note=81, velocity=0, time=27),\n",
       "    Message('note_on', channel=0, note=64, velocity=68, time=214),\n",
       "    Message('note_on', channel=0, note=76, velocity=61, time=3),\n",
       "    Message('note_on', channel=0, note=49, velocity=52, time=2),\n",
       "    Message('note_on', channel=0, note=57, velocity=0, time=27),\n",
       "    Message('note_on', channel=0, note=57, velocity=35, time=9),\n",
       "    Message('note_on', channel=0, note=55, velocity=39, time=0),\n",
       "    Message('note_on', channel=0, note=54, velocity=0, time=49),\n",
       "    Message('note_on', channel=0, note=69, velocity=0, time=26),\n",
       "    Message('control_change', channel=0, control=64, value=127, time=154),\n",
       "    Message('note_on', channel=0, note=76, velocity=0, time=77),\n",
       "    Message('control_change', channel=0, control=64, value=0, time=334),\n",
       "    Message('note_on', channel=0, note=49, velocity=0, time=2),\n",
       "    Message('note_on', channel=0, note=57, velocity=0, time=90),\n",
       "    Message('note_on', channel=0, note=66, velocity=58, time=235),\n",
       "    Message('note_on', channel=0, note=54, velocity=46, time=9),\n",
       "    Message('note_on', channel=0, note=57, velocity=33, time=17),\n",
       "    Message('note_on', channel=0, note=50, velocity=35, time=7),\n",
       "    Message('note_on', channel=0, note=55, velocity=0, time=36),\n",
       "    Message('note_on', channel=0, note=64, velocity=0, time=1),\n",
       "    Message('note_on', channel=0, note=54, velocity=0, time=229),\n",
       "    Message('note_on', channel=0, note=67, velocity=74, time=5),\n",
       "    Message('note_on', channel=0, note=54, velocity=44, time=3),\n",
       "    Message('note_on', channel=0, note=54, velocity=0, time=230),\n",
       "    Message('note_on', channel=0, note=66, velocity=0, time=0),\n",
       "    Message('note_on', channel=0, note=49, velocity=30, time=8),\n",
       "    Message('note_on', channel=0, note=54, velocity=30, time=3),\n",
       "    Message('note_on', channel=0, note=50, velocity=0, time=2),\n",
       "    Message('note_on', channel=0, note=49, velocity=0, time=2),\n",
       "    Message('note_on', channel=0, note=69, velocity=79, time=81),\n",
       "    Message('note_on', channel=0, note=57, velocity=0, time=73),\n",
       "    Message('note_on', channel=0, note=67, velocity=0, time=9),\n",
       "    Message('control_change', channel=0, control=64, value=127, time=106),\n",
       "    Message('note_on', channel=0, note=64, velocity=66, time=149),\n",
       "    Message('note_on', channel=0, note=49, velocity=48, time=21),\n",
       "    Message('note_on', channel=0, note=52, velocity=36, time=5),\n",
       "    Message('note_on', channel=0, note=57, velocity=50, time=6),\n",
       "    Message('note_on', channel=0, note=55, velocity=48, time=2),\n",
       "    Message('control_change', channel=0, control=64, value=0, time=9),\n",
       "    Message('note_on', channel=0, note=69, velocity=0, time=80),\n",
       "    Message('note_on', channel=0, note=54, velocity=0, time=35),\n",
       "    Message('note_on', channel=0, note=52, velocity=0, time=23),\n",
       "    Message('control_change', channel=0, control=64, value=127, time=177),\n",
       "    Message('control_change', channel=0, control=64, value=0, time=289),\n",
       "    Message('note_on', channel=0, note=49, velocity=0, time=4),\n",
       "    Message('note_on', channel=0, note=57, velocity=0, time=91),\n",
       "    Message('control_change', channel=0, control=64, value=127, time=184),\n",
       "    Message('note_on', channel=0, note=66, velocity=54, time=119),\n",
       "    Message('note_on', channel=0, note=54, velocity=44, time=9),\n",
       "    Message('note_on', channel=0, note=57, velocity=48, time=6),\n",
       "    Message('control_change', channel=0, control=64, value=0, time=4),\n",
       "    Message('note_on', channel=0, note=64, velocity=0, time=99),\n",
       "    Message('note_on', channel=0, note=55, velocity=0, time=33),\n",
       "    Message('control_change', channel=0, control=64, value=127, time=222),\n",
       "    Message('control_change', channel=0, control=64, value=0, time=161),\n",
       "    Message('note_on', channel=0, note=64, velocity=63, time=133),\n",
       "    Message('note_on', channel=0, note=54, velocity=0, time=53),\n",
       "    Message('note_on', channel=0, note=57, velocity=0, time=5),\n",
       "    Message('note_on', channel=0, note=66, velocity=0, time=151),\n",
       "    Message('note_on', channel=0, note=62, velocity=60, time=107),\n",
       "    Message('note_on', channel=0, note=50, velocity=46, time=1),\n",
       "    Message('note_on', channel=0, note=54, velocity=52, time=6),\n",
       "    Message('note_on', channel=0, note=57, velocity=39, time=32),\n",
       "    Message('note_on', channel=0, note=64, velocity=0, time=79),\n",
       "    Message('note_on', channel=0, note=62, velocity=0, time=443),\n",
       "    Message('note_on', channel=0, note=50, velocity=0, time=13),\n",
       "    Message('note_on', channel=0, note=62, velocity=54, time=78),\n",
       "    Message('note_on', channel=0, note=57, velocity=0, time=31),\n",
       "    Message('control_change', channel=0, control=64, value=127, time=43),\n",
       "    Message('note_on', channel=0, note=49, velocity=55, time=211),\n",
       "    Message('note_on', channel=0, note=64, velocity=68, time=6),\n",
       "    Message('note_on', channel=0, note=52, velocity=39, time=28),\n",
       "    Message('note_on', channel=0, note=55, velocity=61, time=8),\n",
       "    Message('note_on', channel=0, note=52, velocity=0, time=0),\n",
       "    Message('note_on', channel=0, note=57, velocity=49, time=4),\n",
       "    Message('note_on', channel=0, note=54, velocity=0, time=119),\n",
       "    Message('note_on', channel=0, note=62, velocity=0, time=8),\n",
       "    Message('note_on', channel=0, note=64, velocity=0, time=71),\n",
       "    Message('control_change', channel=0, control=64, value=0, time=9),\n",
       "    Message('note_on', channel=0, note=49, velocity=0, time=81),\n",
       "    Message('note_on', channel=0, note=64, velocity=61, time=5),\n",
       "    Message('note_on', channel=0, note=49, velocity=41, time=4),\n",
       "    Message('note_on', channel=0, note=64, velocity=0, time=164),\n",
       "    Message('note_on', channel=0, note=49, velocity=0, time=124),\n",
       "    Message('note_on', channel=0, note=57, velocity=0, time=12),\n",
       "    Message('note_on', channel=0, note=64, velocity=63, time=13),\n",
       "    Message('note_on', channel=0, note=62, velocity=57, time=355),\n",
       "    Message('note_on', channel=0, note=54, velocity=50, time=3),\n",
       "    Message('note_on', channel=0, note=50, velocity=44, time=5),\n",
       "    Message('note_on', channel=0, note=57, velocity=39, time=34),\n",
       "    Message('note_on', channel=0, note=55, velocity=0, time=42),\n",
       "    Message('note_on', channel=0, note=64, velocity=0, time=20),\n",
       "    Message('control_change', channel=0, control=64, value=127, time=456),\n",
       "    Message('control_change', channel=0, control=64, value=0, time=484),\n",
       "    Message('note_on', channel=0, note=54, velocity=0, time=74),\n",
       "    Message('note_on', channel=0, note=50, velocity=0, time=18),\n",
       "    Message('note_on', channel=0, note=57, velocity=0, time=1),\n",
       "    Message('note_on', channel=0, note=62, velocity=0, time=17),\n",
       "    Message('note_on', channel=0, note=48, velocity=78, time=2712),\n",
       "    Message('note_on', channel=0, note=55, velocity=83, time=0),\n",
       "    Message('control_change', channel=0, control=64, value=127, time=19),\n",
       "    Message('note_on', channel=0, note=64, velocity=68, time=210),\n",
       "    Message('control_change', channel=0, control=64, value=0, time=105),\n",
       "    Message('note_on', channel=0, note=63, velocity=60, time=81),\n",
       "    Message('note_on', channel=0, note=64, velocity=0, time=53),\n",
       "    Message('note_on', channel=0, note=63, velocity=0, time=43),\n",
       "    Message('note_on', channel=0, note=64, velocity=65, time=118),\n",
       "    Message('control_change', channel=0, control=64, value=127, time=28),\n",
       "    Message('note_on', channel=0, note=48, velocity=0, time=169),\n",
       "    Message('note_on', channel=0, note=48, velocity=53, time=5),\n",
       "    Message('note_on', channel=0, note=63, velocity=69, time=2),\n",
       "    Message('note_on', channel=0, note=75, velocity=64, time=2),\n",
       "    Message('control_change', channel=0, control=64, value=0, time=14),\n",
       "    Message('note_on', channel=0, note=64, velocity=0, time=35),\n",
       "    Message('note_on', channel=0, note=63, velocity=0, time=57),\n",
       "    Message('note_on', channel=0, note=75, velocity=0, time=7),\n",
       "    Message('note_on', channel=0, note=64, velocity=67, time=82),\n",
       "    Message('note_on', channel=0, note=63, velocity=65, time=183),\n",
       "    Message('note_on', channel=0, note=75, velocity=58, time=2),\n",
       "    Message('note_on', channel=0, note=55, velocity=0, time=61),\n",
       "    Message('note_on', channel=0, note=64, velocity=0, time=5),\n",
       "    Message('note_on', channel=0, note=63, velocity=0, time=1),\n",
       "    Message('note_on', channel=0, note=64, velocity=69, time=141),\n",
       "    Message('note_on', channel=0, note=48, velocity=0, time=25),\n",
       "    Message('note_on', channel=0, note=75, velocity=0, time=107),\n",
       "    Message('note_on', channel=0, note=47, velocity=72, time=56),\n",
       "    Message('note_on', channel=0, note=55, velocity=78, time=0),\n",
       "    Message('note_on', channel=0, note=64, velocity=0, time=84),\n",
       "    Message('note_on', channel=0, note=65, velocity=72, time=134),\n",
       "    Message('note_on', channel=0, note=64, velocity=80, time=191),\n",
       "    Message('note_on', channel=0, note=76, velocity=69, time=1),\n",
       "    Message('note_on', channel=0, note=65, velocity=0, time=81),\n",
       "    Message('note_on', channel=0, note=65, velocity=74, time=117),\n",
       "    Message('note_on', channel=0, note=77, velocity=68, time=1),\n",
       "    Message('note_on', channel=0, note=77, velocity=0, time=11),\n",
       "    Message('note_on', channel=0, note=76, velocity=0, time=38),\n",
       "    Message('note_on', channel=0, note=64, velocity=0, time=9),\n",
       "    Message('note_on', channel=0, note=64, velocity=79, time=132),\n",
       "    Message('note_on', channel=0, note=76, velocity=69, time=0),\n",
       "    Message('note_on', channel=0, note=65, velocity=0, time=78),\n",
       "    Message('note_on', channel=0, note=65, velocity=73, time=122),\n",
       "    Message('note_on', channel=0, note=77, velocity=65, time=0),\n",
       "    Message('note_on', channel=0, note=77, velocity=0, time=5),\n",
       "    Message('note_on', channel=0, note=76, velocity=0, time=61),\n",
       "    Message('note_on', channel=0, note=64, velocity=0, time=4),\n",
       "    Message('note_on', channel=0, note=55, velocity=0, time=122),\n",
       "    Message('note_on', channel=0, note=64, velocity=75, time=19),\n",
       "    Message('note_on', channel=0, note=76, velocity=64, time=2),\n",
       "    Message('note_on', channel=0, note=65, velocity=0, time=90),\n",
       "    Message('note_on', channel=0, note=65, velocity=69, time=124),\n",
       "    Message('note_on', channel=0, note=77, velocity=61, time=2),\n",
       "    Message('note_on', channel=0, note=77, velocity=0, time=6),\n",
       "    Message('note_on', channel=0, note=64, velocity=0, time=53),\n",
       "    Message('note_on', channel=0, note=76, velocity=0, time=8),\n",
       "    Message('note_on', channel=0, note=55, velocity=83, time=127),\n",
       "    Message('note_on', channel=0, note=52, velocity=75, time=3),\n",
       "    Message('note_on', channel=0, note=47, velocity=0, time=39),\n",
       "    Message('note_on', channel=0, note=65, velocity=0, time=28),\n",
       "    Message('note_on', channel=0, note=79, velocity=73, time=123),\n",
       "    Message('note_on', channel=0, note=67, velocity=80, time=1),\n",
       "    Message('note_on', channel=0, note=79, velocity=0, time=179),\n",
       "    Message('note_on', channel=0, note=78, velocity=72, time=19),\n",
       "    Message('note_on', channel=0, note=66, velocity=79, time=1),\n",
       "    Message('note_on', channel=0, note=67, velocity=0, time=31),\n",
       "    Message('note_on', channel=0, note=78, velocity=0, time=164),\n",
       "    Message('note_on', channel=0, note=52, velocity=0, time=7),\n",
       "    Message('note_on', channel=0, note=79, velocity=75, time=6),\n",
       "    Message('note_on', channel=0, note=52, velocity=60, time=1),\n",
       "    Message('note_on', channel=0, note=67, velocity=80, time=0),\n",
       "    Message('note_on', channel=0, note=66, velocity=0, time=56),\n",
       "    Message('note_on', channel=0, note=79, velocity=0, time=137),\n",
       "    Message('note_on', channel=0, note=78, velocity=68, time=7),\n",
       "    Message('note_on', channel=0, note=66, velocity=74, time=3),\n",
       "    Message('note_on', channel=0, note=67, velocity=0, time=59),\n",
       "    Message('note_on', channel=0, note=78, velocity=0, time=108),\n",
       "    Message('note_on', channel=0, note=79, velocity=67, time=18),\n",
       "    Message('note_on', channel=0, note=67, velocity=70, time=1),\n",
       "    Message('note_on', channel=0, note=66, velocity=0, time=67),\n",
       "    Message('note_on', channel=0, note=79, velocity=0, time=121),\n",
       "    Message('note_on', channel=0, note=78, velocity=65, time=6),\n",
       "    Message('note_on', channel=0, note=66, velocity=70, time=3),\n",
       "    Message('note_on', channel=0, note=67, velocity=0, time=44),\n",
       "    Message('note_on', channel=0, note=79, velocity=71, time=158),\n",
       "    Message('note_on', channel=0, note=67, velocity=76, time=1),\n",
       "    Message('note_on', channel=0, note=66, velocity=0, time=65),\n",
       "    Message('note_on', channel=0, note=78, velocity=0, time=23),\n",
       "    Message('note_on', channel=0, note=55, velocity=0, time=99),\n",
       "    Message('note_on', channel=0, note=48, velocity=73, time=19),\n",
       "    Message('note_on', channel=0, note=81, velocity=69, time=2),\n",
       "    Message('note_on', channel=0, note=57, velocity=69, time=21),\n",
       "    Message('note_on', channel=0, note=67, velocity=0, time=8),\n",
       "    Message('note_on', channel=0, note=52, velocity=0, time=23),\n",
       "    Message('note_on', channel=0, note=81, velocity=0, time=158),\n",
       "    Message('note_on', channel=0, note=81, velocity=76, time=10),\n",
       "    Message('note_on', channel=0, note=69, velocity=80, time=1),\n",
       "    Message('note_on', channel=0, note=79, velocity=0, time=58),\n",
       "    Message('note_on', channel=0, note=80, velocity=75, time=142),\n",
       "    Message('note_on', channel=0, note=68, velocity=82, time=1),\n",
       "    Message('note_on', channel=0, note=69, velocity=0, time=68),\n",
       "    Message('note_on', channel=0, note=81, velocity=0, time=58),\n",
       "    Message('note_on', channel=0, note=81, velocity=70, time=70),\n",
       "    Message('note_on', channel=0, note=69, velocity=75, time=2),\n",
       "    Message('note_on', channel=0, note=68, velocity=0, time=55),\n",
       "    Message('note_on', channel=0, note=80, velocity=0, time=3),\n",
       "    Message('note_on', channel=0, note=80, velocity=73, time=140),\n",
       "    Message('note_on', channel=0, note=68, velocity=78, time=2),\n",
       "    Message('note_on', channel=0, note=69, velocity=0, time=64),\n",
       "    Message('note_on', channel=0, note=81, velocity=0, time=17),\n",
       "    Message('note_on', channel=0, note=81, velocity=76, time=115),\n",
       "    Message('note_on', channel=0, note=69, velocity=80, time=2),\n",
       "    Message('note_on', channel=0, note=80, velocity=0, time=60),\n",
       "    Message('note_on', channel=0, note=68, velocity=0, time=7),\n",
       "    Message('note_on', channel=0, note=71, velocity=79, time=128),\n",
       "    Message('note_on', channel=0, note=69, velocity=0, time=84),\n",
       "    Message('note_on', channel=0, note=81, velocity=0, time=49),\n",
       "    Message('note_on', channel=0, note=48, velocity=0, time=57),\n",
       "    Message('note_on', channel=0, note=72, velocity=81, time=7),\n",
       "    Message('note_on', channel=0, note=76, velocity=58, time=1),\n",
       "    Message('note_on', channel=0, note=71, velocity=0, time=11),\n",
       "    Message('note_on', channel=0, note=57, velocity=0, time=63),\n",
       "    Message('note_on', channel=0, note=55, velocity=63, time=141),\n",
       "    Message('note_on', channel=0, note=52, velocity=60, time=1),\n",
       "    Message('note_on', channel=0, note=72, velocity=0, time=38),\n",
       "    Message('note_on', channel=0, note=52, velocity=0, time=181),\n",
       "    Message('note_on', channel=0, note=67, velocity=55, time=4),\n",
       "    Message('note_on', channel=0, note=52, velocity=40, time=1),\n",
       "    Message('note_on', channel=0, note=66, velocity=64, time=215),\n",
       "    Message('note_on', channel=0, note=76, velocity=0, time=2),\n",
       "    Message('note_on', channel=0, note=67, velocity=0, time=13),\n",
       "    Message('note_on', channel=0, note=79, velocity=68, time=191),\n",
       "    Message('note_on', channel=0, note=67, velocity=73, time=1),\n",
       "    Message('note_on', channel=0, note=66, velocity=0, time=23),\n",
       "    Message('note_on', channel=0, note=78, velocity=61, time=170),\n",
       "    Message('note_on', channel=0, note=66, velocity=65, time=5),\n",
       "    Message('note_on', channel=0, note=79, velocity=0, time=12),\n",
       "    Message('note_on', channel=0, note=67, velocity=0, time=5),\n",
       "    Message('note_on', channel=0, note=52, velocity=0, time=187),\n",
       "    Message('note_on', channel=0, note=78, velocity=0, time=8),\n",
       "    Message('note_on', channel=0, note=79, velocity=67, time=0),\n",
       "    Message('note_on', channel=0, note=52, velocity=48, time=2),\n",
       "    Message('note_on', channel=0, note=67, velocity=73, time=0),\n",
       "    Message('note_on', channel=0, note=66, velocity=0, time=32),\n",
       "    Message('note_on', channel=0, note=79, velocity=0, time=50),\n",
       "    Message('note_on', channel=0, note=78, velocity=60, time=112),\n",
       "    Message('note_on', channel=0, note=66, velocity=66, time=5),\n",
       "    Message('note_on', channel=0, note=78, velocity=0, time=6),\n",
       "    Message('note_on', channel=0, note=67, velocity=0, time=23),\n",
       "    Message('note_on', channel=0, note=79, velocity=64, time=189),\n",
       "    Message('note_on', channel=0, note=67, velocity=68, time=1),\n",
       "    Message('note_on', channel=0, note=66, velocity=0, time=56),\n",
       "    Message('note_on', channel=0, note=79, velocity=0, time=31),\n",
       "    Message('note_on', channel=0, note=55, velocity=0, time=100),\n",
       "    Message('note_on', channel=0, note=47, velocity=67, time=6),\n",
       "    Message('note_on', channel=0, note=55, velocity=72, time=3),\n",
       "    Message('note_on', channel=0, note=79, velocity=64, time=3),\n",
       "    Message('note_on', channel=0, note=52, velocity=0, time=41),\n",
       "    Message('control_change', channel=0, control=64, value=127, time=69),\n",
       "    Message('note_on', channel=0, note=65, velocity=62, time=107),\n",
       "    Message('note_on', channel=0, note=77, velocity=56, time=4),\n",
       "    Message('note_on', channel=0, note=79, velocity=0, time=97),\n",
       "    Message('control_change', channel=0, control=64, value=0, time=99),\n",
       "    Message('note_on', channel=0, note=64, velocity=66, time=9),\n",
       "    Message('note_on', channel=0, note=76, velocity=55, time=2),\n",
       "    Message('note_on', channel=0, note=65, velocity=0, time=70),\n",
       "    Message('note_on', channel=0, note=77, velocity=0, time=42),\n",
       "    Message('note_on', channel=0, note=65, velocity=63, time=68),\n",
       "    Message('note_on', channel=0, note=77, velocity=57, time=1),\n",
       "    Message('note_on', channel=0, note=64, velocity=0, time=44),\n",
       "    Message('note_on', channel=0, note=76, velocity=0, time=4),\n",
       "    Message('note_on', channel=0, note=67, velocity=0, time=45),\n",
       "    Message('note_on', channel=0, note=64, velocity=78, time=141),\n",
       "    Message('note_on', channel=0, note=76, velocity=65, time=1),\n",
       "    Message('note_on', channel=0, note=65, velocity=0, time=70),\n",
       "    Message('note_on', channel=0, note=77, velocity=0, time=18),\n",
       "    Message('note_on', channel=0, note=65, velocity=67, time=109),\n",
       "    Message('note_on', channel=0, note=77, velocity=61, time=1),\n",
       "    Message('note_on', channel=0, note=76, velocity=0, time=50),\n",
       "    Message('note_on', channel=0, note=64, velocity=0, time=7),\n",
       "    Message('note_on', channel=0, note=64, velocity=77, time=161),\n",
       "    Message('note_on', channel=0, note=76, velocity=65, time=0),\n",
       "    Message('note_on', channel=0, note=77, velocity=0, time=2),\n",
       "    Message('note_on', channel=0, note=65, velocity=0, time=90),\n",
       "    Message('note_on', channel=0, note=65, velocity=70, time=131),\n",
       "    Message('note_on', channel=0, note=77, velocity=64, time=1),\n",
       "    Message('note_on', channel=0, note=64, velocity=0, time=46),\n",
       "    Message('note_on', channel=0, note=76, velocity=0, time=5),\n",
       "    Message('note_on', channel=0, note=55, velocity=0, time=19),\n",
       "    Message('note_on', channel=0, note=48, velocity=68, time=135),\n",
       "    Message('note_on', channel=0, note=55, velocity=63, time=1),\n",
       "    Message('note_on', channel=0, note=79, velocity=58, time=2),\n",
       "    Message('note_on', channel=0, note=77, velocity=0, time=0),\n",
       "    Message('note_on', channel=0, note=79, velocity=0, time=8),\n",
       "    Message('note_on', channel=0, note=47, velocity=0, time=46),\n",
       "    Message('note_on', channel=0, note=65, velocity=0, time=5),\n",
       "    Message('note_on', channel=0, note=64, velocity=69, time=134),\n",
       "    Message('note_on', channel=0, note=76, velocity=58, time=3),\n",
       "    Message('note_on', channel=0, note=48, velocity=0, time=204),\n",
       "    Message('note_on', channel=0, note=48, velocity=48, time=10),\n",
       "    Message('note_on', channel=0, note=63, velocity=66, time=2),\n",
       "    Message('note_on', channel=0, note=75, velocity=59, time=2),\n",
       "    Message('note_on', channel=0, note=75, velocity=0, time=55),\n",
       "    Message('note_on', channel=0, note=64, velocity=0, time=11),\n",
       "    Message('note_on', channel=0, note=76, velocity=0, time=4),\n",
       "    Message('note_on', channel=0, note=63, velocity=0, time=16),\n",
       "    Message('note_on', channel=0, note=64, velocity=67, time=104),\n",
       "    Message('note_on', channel=0, note=76, velocity=54, time=2),\n",
       "    Message('note_on', channel=0, note=63, velocity=69, time=205),\n",
       "    Message('note_on', channel=0, note=75, velocity=62, time=2),\n",
       "    Message('note_on', channel=0, note=76, velocity=0, time=48),\n",
       "    Message('note_on', channel=0, note=64, velocity=0, time=33),\n",
       "    Message('note_on', channel=0, note=63, velocity=0, time=51),\n",
       "    Message('note_on', channel=0, note=75, velocity=0, time=0),\n",
       "    Message('note_on', channel=0, note=64, velocity=66, time=66),\n",
       "    Message('note_on', channel=0, note=76, velocity=54, time=1),\n",
       "    Message('note_on', channel=0, note=63, velocity=64, time=211),\n",
       "    Message('note_on', channel=0, note=75, velocity=57, time=1),\n",
       "    Message('note_on', channel=0, note=76, velocity=0, time=28),\n",
       "    Message('note_on', channel=0, note=64, velocity=0, time=30),\n",
       "    Message('note_on', channel=0, note=48, velocity=0, time=56),\n",
       "    Message('note_on', channel=0, note=55, velocity=0, time=14),\n",
       "    Message('note_on', channel=0, note=64, velocity=64, time=76),\n",
       "    Message('note_on', channel=0, note=76, velocity=56, time=3),\n",
       "    Message('note_on', channel=0, note=63, velocity=0, time=29),\n",
       "    Message('note_on', channel=0, note=75, velocity=0, time=7),\n",
       "    Message('note_on', channel=0, note=47, velocity=51, time=217),\n",
       "    Message('note_on', channel=0, note=74, velocity=54, time=1),\n",
       "    Message('note_on', channel=0, note=62, velocity=53, time=1),\n",
       "    Message('note_on', channel=0, note=76, velocity=0, time=4),\n",
       "    Message('note_on', channel=0, note=55, velocity=50, time=3),\n",
       "    Message('note_on', channel=0, note=64, velocity=0, time=41),\n",
       "    Message('note_on', channel=0, note=74, velocity=0, time=102),\n",
       "    Message('control_change', channel=0, control=64, value=127, time=77),\n",
       "    Message('note_on', channel=0, note=47, velocity=0, time=1079),\n",
       "    Message('note_on', channel=0, note=55, velocity=0, time=43),\n",
       "    Message('control_change', channel=0, control=64, value=0, time=50),\n",
       "    Message('note_on', channel=0, note=62, velocity=0, time=38),\n",
       "    Message('note_on', channel=0, note=48, velocity=61, time=211),\n",
       "    Message('note_on', channel=0, note=55, velocity=61, time=3),\n",
       "    Message('note_on', channel=0, note=67, velocity=56, time=2),\n",
       "    Message('control_change', channel=0, control=64, value=127, time=41),\n",
       "    Message('note_on', channel=0, note=64, velocity=59, time=181),\n",
       "    Message('note_on', channel=0, note=63, velocity=66, time=178),\n",
       "    Message('note_on', channel=0, note=75, velocity=60, time=2),\n",
       "    Message('control_change', channel=0, control=64, value=0, time=9),\n",
       "    Message('note_on', channel=0, note=64, velocity=0, time=41),\n",
       "    Message('note_on', channel=0, note=75, velocity=0, time=19),\n",
       "    Message('note_on', channel=0, note=63, velocity=0, time=7),\n",
       "    Message('note_on', channel=0, note=64, velocity=80, time=136),\n",
       "    Message('note_on', channel=0, note=76, velocity=68, time=1),\n",
       "    Message('note_on', channel=0, note=76, velocity=0, time=178),\n",
       "    Message('note_on', channel=0, note=63, velocity=81, time=24),\n",
       "    Message('note_on', channel=0, note=75, velocity=68, time=2),\n",
       "    Message('note_on', channel=0, note=64, velocity=0, time=88),\n",
       "    Message('note_on', channel=0, note=67, velocity=0, time=2),\n",
       "    Message('note_on', channel=0, note=75, velocity=0, time=53),\n",
       "    Message('note_on', channel=0, note=64, velocity=77, time=54),\n",
       "    Message('note_on', channel=0, note=76, velocity=65, time=1),\n",
       "    Message('note_on', channel=0, note=63, velocity=0, time=30),\n",
       "    Message('note_on', channel=0, note=63, velocity=73, time=171),\n",
       "    Message('note_on', channel=0, note=75, velocity=69, time=1),\n",
       "    Message('note_on', channel=0, note=76, velocity=0, time=4),\n",
       "    Message('note_on', channel=0, note=64, velocity=0, time=73),\n",
       "    Message('note_on', channel=0, note=75, velocity=0, time=104),\n",
       "    Message('note_on', channel=0, note=64, velocity=69, time=19),\n",
       "    Message('note_on', channel=0, note=76, velocity=58, time=0),\n",
       "    Message('note_on', channel=0, note=75, velocity=55, time=1),\n",
       "    Message('note_on', channel=0, note=76, velocity=0, time=11),\n",
       "    Message('note_on', channel=0, note=48, velocity=0, time=14),\n",
       "    Message('note_on', channel=0, note=55, velocity=0, time=11),\n",
       "    Message('note_on', channel=0, note=63, velocity=0, time=15),\n",
       "    Message('note_on', channel=0, note=75, velocity=0, time=129),\n",
       "    Message('note_on', channel=0, note=47, velocity=74, time=19),\n",
       "    Message('note_on', channel=0, note=55, velocity=73, time=1),\n",
       "    Message('control_change', channel=0, control=64, value=127, time=57),\n",
       "    Message('note_on', channel=0, note=64, velocity=0, time=42),\n",
       "    Message('control_change', channel=0, control=64, value=0, time=19),\n",
       "    Message('control_change', channel=0, control=64, value=127, time=84),\n",
       "    Message('note_on', channel=0, note=77, velocity=67, time=18),\n",
       "    Message('note_on', channel=0, note=65, velocity=75, time=0),\n",
       "    Message('note_on', channel=0, note=64, velocity=81, time=193),\n",
       "    Message('note_on', channel=0, note=76, velocity=70, time=1),\n",
       "    Message('control_change', channel=0, control=64, value=0, time=11),\n",
       "    Message('note_on', channel=0, note=77, velocity=0, time=69),\n",
       "    Message('note_on', channel=0, note=65, velocity=0, time=11),\n",
       "    Message('note_on', channel=0, note=77, velocity=63, time=102),\n",
       "    Message('note_on', channel=0, note=65, velocity=72, time=1),\n",
       "    Message('note_on', channel=0, note=76, velocity=0, time=9),\n",
       "    Message('note_on', channel=0, note=64, velocity=0, time=49),\n",
       "    Message('note_on', channel=0, note=77, velocity=0, time=166),\n",
       "    Message('note_on', channel=0, note=64, velocity=84, time=5),\n",
       "    Message('note_on', channel=0, note=76, velocity=73, time=1),\n",
       "    Message('note_on', channel=0, note=65, velocity=0, time=95),\n",
       "    Message('note_on', channel=0, note=65, velocity=74, time=87),\n",
       "    Message('note_on', channel=0, note=77, velocity=62, time=1),\n",
       "    Message('note_on', channel=0, note=76, velocity=0, time=72),\n",
       "    Message('note_on', channel=0, note=64, velocity=0, time=11),\n",
       "    Message('note_on', channel=0, note=77, velocity=0, time=35),\n",
       "    Message('note_on', channel=0, note=64, velocity=78, time=89),\n",
       "    Message('note_on', channel=0, note=76, velocity=66, time=0),\n",
       "    Message('note_on', channel=0, note=65, velocity=0, time=99),\n",
       "    Message('note_on', channel=0, note=55, velocity=0, time=31),\n",
       "    Message('note_on', channel=0, note=77, velocity=68, time=75),\n",
       "    Message('note_on', channel=0, note=65, velocity=73, time=0),\n",
       "    Message('note_on', channel=0, note=77, velocity=0, time=6),\n",
       "    Message('note_on', channel=0, note=64, velocity=0, time=64),\n",
       "    Message('note_on', channel=0, note=76, velocity=0, time=5),\n",
       "    Message('note_on', channel=0, note=55, velocity=82, time=130),\n",
       "    Message('note_on', channel=0, note=52, velocity=75, time=3),\n",
       "    Message('note_on', channel=0, note=47, velocity=0, time=51),\n",
       "    Message('note_on', channel=0, note=65, velocity=0, time=35),\n",
       "    Message('note_on', channel=0, note=52, velocity=0, time=104),\n",
       "    Message('note_on', channel=0, note=79, velocity=69, time=4),\n",
       "    Message('note_on', channel=0, note=52, velocity=58, time=0),\n",
       "    Message('note_on', channel=0, note=67, velocity=76, time=0),\n",
       "    Message('note_on', channel=0, note=79, velocity=0, time=65),\n",
       "    Message('note_on', channel=0, note=78, velocity=69, time=142),\n",
       "    Message('note_on', channel=0, note=66, velocity=77, time=2),\n",
       "    Message('note_on', channel=0, note=67, velocity=0, time=22),\n",
       "    Message('note_on', channel=0, note=52, velocity=0, time=187),\n",
       "    Message('note_on', channel=0, note=79, velocity=74, time=3),\n",
       "    Message('note_on', channel=0, note=67, velocity=82, time=2),\n",
       "    Message('note_on', channel=0, note=52, velocity=59, time=3),\n",
       "    Message('note_on', channel=0, note=66, velocity=0, time=43),\n",
       "    Message('note_on', channel=0, note=78, velocity=0, time=3),\n",
       "    Message('note_on', channel=0, note=78, velocity=73, time=154),\n",
       "    Message('note_on', channel=0, note=66, velocity=79, time=2),\n",
       "    Message('note_on', channel=0, note=79, velocity=0, time=13),\n",
       "    Message('note_on', channel=0, note=67, velocity=0, time=62),\n",
       "    Message('note_on', channel=0, note=52, velocity=0, time=114),\n",
       "    Message('note_on', channel=0, note=52, velocity=57, time=4),\n",
       "    Message('note_on', channel=0, note=79, velocity=74, time=1),\n",
       "    Message('note_on', channel=0, note=67, velocity=81, time=2),\n",
       "    Message('note_on', channel=0, note=66, velocity=0, time=65),\n",
       "    Message('note_on', channel=0, note=78, velocity=0, time=0),\n",
       "    Message('note_on', channel=0, note=52, velocity=0, time=120),\n",
       "    Message('note_on', channel=0, note=78, velocity=71, time=7),\n",
       "    Message('note_on', channel=0, note=79, velocity=0, time=1),\n",
       "    Message('note_on', channel=0, note=52, velocity=53, time=3),\n",
       "    Message('note_on', channel=0, note=66, velocity=76, time=0),\n",
       "    Message('note_on', channel=0, note=67, velocity=0, time=59),\n",
       "    Message('note_on', channel=0, note=55, velocity=0, time=140),\n",
       "    Message('note_on', channel=0, note=79, velocity=71, time=9),\n",
       "    Message('note_on', channel=0, note=67, velocity=78, time=0),\n",
       "    Message('note_on', channel=0, note=78, velocity=0, time=50),\n",
       "    Message('note_on', channel=0, note=66, velocity=0, time=27),\n",
       "    Message('note_on', channel=0, note=57, velocity=79, time=109),\n",
       "    Message('note_on', channel=0, note=60, velocity=70, time=2),\n",
       "    Message('note_on', channel=0, note=48, velocity=73, time=1),\n",
       "    Message('note_on', channel=0, note=81, velocity=72, time=2),\n",
       "    Message('note_on', channel=0, note=67, velocity=0, time=18),\n",
       "    Message('note_on', channel=0, note=52, velocity=0, time=30),\n",
       "    Message('note_on', channel=0, note=79, velocity=0, time=65),\n",
       "    Message('note_on', channel=0, note=81, velocity=0, time=84),\n",
       "    Message('note_on', channel=0, note=81, velocity=84, time=8),\n",
       "    Message('note_on', channel=0, note=69, velocity=88, time=2),\n",
       "    Message('note_on', channel=0, note=80, velocity=75, time=196),\n",
       "    Message('note_on', channel=0, note=68, velocity=86, time=0),\n",
       "    Message('note_on', channel=0, note=69, velocity=0, time=56),\n",
       "    Message('note_on', channel=0, note=81, velocity=0, time=84),\n",
       "    Message('note_on', channel=0, note=81, velocity=76, time=60),\n",
       "    Message('note_on', channel=0, note=69, velocity=82, time=2),\n",
       "    Message('note_on', channel=0, note=68, velocity=0, time=54),\n",
       "    Message('note_on', channel=0, note=80, velocity=0, time=22),\n",
       "    Message('note_on', channel=0, note=80, velocity=78, time=125),\n",
       "    Message('note_on', channel=0, note=68, velocity=87, time=1),\n",
       "    Message('note_on', channel=0, note=69, velocity=0, time=44),\n",
       "    Message('note_on', channel=0, note=81, velocity=0, time=53),\n",
       "    Message('note_on', channel=0, note=81, velocity=80, time=105),\n",
       "    Message('note_on', channel=0, note=69, velocity=84, time=1),\n",
       "    Message('note_on', channel=0, note=68, velocity=0, time=64),\n",
       "    Message('note_on', channel=0, note=80, velocity=0, time=22),\n",
       "    Message('note_on', channel=0, note=71, velocity=80, time=115),\n",
       "    Message('note_on', channel=0, note=69, velocity=0, time=89),\n",
       "    Message('note_on', channel=0, note=60, velocity=0, time=80),\n",
       "    Message('note_on', channel=0, note=72, velocity=88, time=25),\n",
       "    Message('note_on', channel=0, note=76, velocity=64, time=0),\n",
       "    Message('note_on', channel=0, note=71, velocity=0, time=25),\n",
       "    Message('note_on', channel=0, note=81, velocity=0, time=11),\n",
       "    Message('note_on', channel=0, note=55, velocity=67, time=186),\n",
       "    Message('note_on', channel=0, note=52, velocity=57, time=16),\n",
       "    Message('note_on', channel=0, note=67, velocity=46, time=2),\n",
       "    Message('note_on', channel=0, note=67, velocity=0, time=11),\n",
       "    Message('note_on', channel=0, note=72, velocity=0, time=10),\n",
       "    Message('note_on', channel=0, note=52, velocity=0, time=152),\n",
       "    Message('note_on', channel=0, note=52, velocity=51, time=10),\n",
       "    Message('note_on', channel=0, note=79, velocity=67, time=1),\n",
       "    Message('note_on', channel=0, note=67, velocity=71, time=0),\n",
       "    Message('control_change', channel=0, control=64, value=127, time=42),\n",
       "    Message('note_on', channel=0, note=76, velocity=0, time=8),\n",
       "    Message('note_on', channel=0, note=79, velocity=0, time=154),\n",
       "    Message('note_on', channel=0, note=78, velocity=68, time=2),\n",
       "    Message('note_on', channel=0, note=66, velocity=71, time=1),\n",
       "    Message('control_change', channel=0, control=64, value=0, time=9),\n",
       "    Message('note_on', channel=0, note=67, velocity=0, time=21),\n",
       "    Message('note_on', channel=0, note=48, velocity=0, time=113),\n",
       "    Message('note_on', channel=0, note=57, velocity=0, time=0),\n",
       "    Message('note_on', channel=0, note=79, velocity=70, time=49),\n",
       "    Message('note_on', channel=0, note=67, velocity=74, time=1),\n",
       "    Message('note_on', channel=0, note=66, velocity=0, time=38),\n",
       "    Message('note_on', channel=0, note=78, velocity=0, time=4),\n",
       "    Message('note_on', channel=0, note=79, velocity=0, time=161),\n",
       "    Message('note_on', channel=0, note=78, velocity=63, time=12),\n",
       "    Message('note_on', channel=0, note=66, velocity=65, time=2),\n",
       "    Message('note_on', channel=0, note=67, velocity=0, time=21),\n",
       "    Message('note_on', channel=0, note=78, velocity=0, time=103),\n",
       "    Message('note_on', channel=0, note=52, velocity=0, time=54),\n",
       "    Message('note_on', channel=0, note=55, velocity=0, time=8),\n",
       "    Message('note_on', channel=0, note=79, velocity=66, time=1),\n",
       "    Message('note_on', channel=0, note=52, velocity=49, time=2),\n",
       "    Message('note_on', channel=0, note=67, velocity=70, time=0),\n",
       "    Message('note_on', channel=0, note=55, velocity=41, time=1),\n",
       "    Message('note_on', channel=0, note=66, velocity=0, time=38),\n",
       "    Message('note_on', channel=0, note=79, velocity=0, time=73),\n",
       "    Message('note_on', channel=0, note=66, velocity=64, time=98),\n",
       "    Message('note_on', channel=0, note=52, velocity=0, time=2),\n",
       "    Message('note_on', channel=0, note=52, velocity=41, time=4),\n",
       "    Message('note_on', channel=0, note=67, velocity=0, time=16),\n",
       "    Message('note_on', channel=0, note=79, velocity=68, time=185),\n",
       "    Message('note_on', channel=0, note=67, velocity=75, time=1),\n",
       "    Message('note_on', channel=0, note=52, velocity=0, time=3),\n",
       "    Message('note_on', channel=0, note=55, velocity=0, time=10),\n",
       "    Message('note_on', channel=0, note=66, velocity=0, time=87),\n",
       "    Message('note_on', channel=0, note=47, velocity=66, time=91),\n",
       "    Message('note_on', channel=0, note=67, velocity=0, time=2),\n",
       "    Message('note_on', channel=0, note=79, velocity=0, time=0),\n",
       "    Message('note_on', channel=0, note=55, velocity=69, time=4),\n",
       "    Message('note_on', channel=0, note=79, velocity=65, time=0),\n",
       "    Message('note_on', channel=0, note=67, velocity=59, time=7),\n",
       "    Message('note_on', channel=0, note=79, velocity=0, time=135),\n",
       "    Message('note_on', channel=0, note=65, velocity=66, time=72),\n",
       "    Message('note_on', channel=0, note=77, velocity=58, time=1),\n",
       "    Message('control_change', channel=0, control=64, value=127, time=19),\n",
       "    Message('control_change', channel=0, control=64, value=0, time=169),\n",
       "    Message('note_on', channel=0, note=64, velocity=74, time=1),\n",
       "    Message('note_on', channel=0, note=76, velocity=63, time=2),\n",
       "    Message('note_on', channel=0, note=67, velocity=0, time=74),\n",
       "    Message('note_on', channel=0, note=65, velocity=0, time=5),\n",
       "    Message('note_on', channel=0, note=77, velocity=0, time=41),\n",
       "    Message('note_on', channel=0, note=55, velocity=0, time=69),\n",
       "    Message('note_on', channel=0, note=55, velocity=48, time=5),\n",
       "    Message('note_on', channel=0, note=65, velocity=67, time=9),\n",
       "    Message('note_on', channel=0, note=77, velocity=62, time=0),\n",
       "    Message('note_on', channel=0, note=76, velocity=0, time=65),\n",
       "    Message('note_on', channel=0, note=64, velocity=0, time=4),\n",
       "    Message('note_on', channel=0, note=55, velocity=0, time=147),\n",
       "    Message('note_on', channel=0, note=55, velocity=49, time=5),\n",
       "    Message('note_on', channel=0, note=62, velocity=61, time=4),\n",
       "    Message('note_on', channel=0, note=74, velocity=56, time=2),\n",
       "    Message('note_on', channel=0, note=74, velocity=0, time=5),\n",
       "    Message('note_on', channel=0, note=77, velocity=0, time=31),\n",
       "    Message('note_on', channel=0, note=65, velocity=0, time=28),\n",
       "    Message('note_on', channel=0, note=64, velocity=74, time=137),\n",
       "    Message('note_on', channel=0, note=76, velocity=62, time=2),\n",
       "    Message('note_on', channel=0, note=47, velocity=0, time=8),\n",
       "    Message('note_on', channel=0, note=62, velocity=0, time=49),\n",
       "    Message('note_on', channel=0, note=55, velocity=0, time=15),\n",
       "    Message('note_on', channel=0, note=55, velocity=60, time=143),\n",
       "    Message('note_on', channel=0, note=48, velocity=66, time=2),\n",
       "    Message('note_on', channel=0, note=64, velocity=0, time=69),\n",
       "    Message('note_on', channel=0, note=76, velocity=0, time=7),\n",
       "    Message('note_on', channel=0, note=64, velocity=66, time=95),\n",
       "    Message('note_on', channel=0, note=48, velocity=0, time=213),\n",
       "    Message('note_on', channel=0, note=48, velocity=48, time=5),\n",
       "    Message('note_on', channel=0, note=63, velocity=69, time=6),\n",
       "    Message('note_on', channel=0, note=75, velocity=61, time=0),\n",
       "    Message('note_on', channel=0, note=63, velocity=0, time=4),\n",
       "    Message('note_on', channel=0, note=64, velocity=0, time=44),\n",
       "    Message('note_on', channel=0, note=48, velocity=0, time=148),\n",
       "    Message('note_on', channel=0, note=75, velocity=0, time=0),\n",
       "    Message('note_on', channel=0, note=48, velocity=41, time=6),\n",
       "    Message('note_on', channel=0, note=64, velocity=69, time=4),\n",
       "    Message('note_on', channel=0, note=76, velocity=57, time=2),\n",
       "    Message('note_on', channel=0, note=48, velocity=0, time=180),\n",
       "    Message('note_on', channel=0, note=48, velocity=46, time=11),\n",
       "    Message('note_on', channel=0, note=63, velocity=69, time=4),\n",
       "    Message('note_on', channel=0, note=75, velocity=59, time=2),\n",
       "    Message('note_on', channel=0, note=76, velocity=0, time=60),\n",
       "    Message('note_on', channel=0, note=64, velocity=0, time=11),\n",
       "    Message('note_on', channel=0, note=63, velocity=0, time=19),\n",
       "    Message('note_on', channel=0, note=48, velocity=0, time=116),\n",
       "    Message('note_on', channel=0, note=64, velocity=65, time=6),\n",
       "    Message('note_on', channel=0, note=48, velocity=39, time=3),\n",
       "    Message('note_on', channel=0, note=76, velocity=54, time=1),\n",
       "    Message('note_on', channel=0, note=75, velocity=0, time=28),\n",
       "    Message('note_on', channel=0, note=76, velocity=0, time=169),\n",
       "    Message('note_on', channel=0, note=63, velocity=67, time=18),\n",
       "    Message('note_on', channel=0, note=75, velocity=56, time=2),\n",
       "    Message('note_on', channel=0, note=64, velocity=0, time=46),\n",
       "    Message('note_on', channel=0, note=63, velocity=0, time=18),\n",
       "    Message('note_on', channel=0, note=48, velocity=0, time=139),\n",
       "    Message('note_on', channel=0, note=48, velocity=41, time=9),\n",
       "    Message('note_on', channel=0, note=64, velocity=65, time=1),\n",
       "    Message('note_on', channel=0, note=76, velocity=54, time=2),\n",
       "    Message('note_on', channel=0, note=76, velocity=0, time=11),\n",
       "    Message('note_on', channel=0, note=75, velocity=0, time=23),\n",
       "    Message('note_on', channel=0, note=60, velocity=61, time=220),\n",
       "    Message('note_on', channel=0, note=64, velocity=0, time=63),\n",
       "    Message('note_on', channel=0, note=55, velocity=0, time=1237),\n",
       "    Message('note_on', channel=0, note=48, velocity=0, time=3),\n",
       "    Message('note_on', channel=0, note=60, velocity=0, time=12),\n",
       "    Message('note_on', channel=0, note=58, velocity=68, time=5466),\n",
       "    Message('note_on', channel=0, note=58, velocity=0, time=567),\n",
       "    Message('note_on', channel=0, note=58, velocity=57, time=136),\n",
       "    Message('note_on', channel=0, note=58, velocity=0, time=172),\n",
       "    Message('note_on', channel=0, note=58, velocity=57, time=116),\n",
       "    Message('note_on', channel=0, note=58, velocity=0, time=142),\n",
       "    Message('note_on', channel=0, note=62, velocity=73, time=181),\n",
       "    Message('note_on', channel=0, note=58, velocity=76, time=34),\n",
       "    Message('control_change', channel=0, control=64, value=127, time=460),\n",
       "    Message('control_change', channel=0, control=64, value=0, time=72),\n",
       "    Message('note_on', channel=0, note=58, velocity=0, time=5),\n",
       "    Message('note_on', channel=0, note=62, velocity=0, time=0),\n",
       "    Message('note_on', channel=0, note=62, velocity=55, time=104),\n",
       "    Message('note_on', channel=0, note=58, velocity=53, time=1),\n",
       "    Message('note_on', channel=0, note=58, velocity=0, time=143),\n",
       "    Message('note_on', channel=0, note=62, velocity=0, time=32),\n",
       "    Message('note_on', channel=0, note=46, velocity=50, time=91),\n",
       "    Message('note_on', channel=0, note=62, velocity=65, time=3),\n",
       "    Message('note_on', channel=0, note=46, velocity=0, time=2),\n",
       "    Message('note_on', channel=0, note=58, velocity=65, time=6),\n",
       "    Message('note_on', channel=0, note=58, velocity=0, time=117),\n",
       "    Message('note_on', channel=0, note=62, velocity=0, time=48),\n",
       "    Message('note_on', channel=0, note=65, velocity=80, time=152),\n",
       "    Message('note_on', channel=0, note=53, velocity=58, time=4),\n",
       "    Message('note_on', channel=0, note=58, velocity=78, time=0),\n",
       "    Message('note_on', channel=0, note=62, velocity=72, time=1),\n",
       "    Message('note_on', channel=0, note=53, velocity=0, time=71),\n",
       "    Message('control_change', channel=0, control=64, value=127, time=115),\n",
       "    Message('note_on', channel=0, note=58, velocity=0, time=292),\n",
       "    Message('note_on', channel=0, note=65, velocity=0, time=4),\n",
       "    Message('note_on', channel=0, note=62, velocity=0, time=1),\n",
       "    Message('control_change', channel=0, control=64, value=0, time=8),\n",
       "    Message('note_on', channel=0, note=65, velocity=74, time=117),\n",
       "    Message('note_on', channel=0, note=53, velocity=55, time=1),\n",
       "    Message('note_on', channel=0, note=58, velocity=69, time=4),\n",
       "    Message('note_on', channel=0, note=62, velocity=65, time=0),\n",
       "    Message('note_on', channel=0, note=53, velocity=0, time=80),\n",
       "    Message('note_on', channel=0, note=65, velocity=0, time=109),\n",
       "    Message('note_on', channel=0, note=62, velocity=0, time=3),\n",
       "    Message('note_on', channel=0, note=58, velocity=0, time=0),\n",
       "    Message('note_on', channel=0, note=65, velocity=76, time=86),\n",
       "    Message('note_on', channel=0, note=62, velocity=68, time=6),\n",
       "    Message('note_on', channel=0, note=58, velocity=72, time=3),\n",
       "    Message('note_on', channel=0, note=58, velocity=0, time=144),\n",
       "    Message('note_on', channel=0, note=65, velocity=0, time=7),\n",
       "    Message('note_on', channel=0, note=62, velocity=0, time=34),\n",
       "    Message('note_on', channel=0, note=63, velocity=83, time=157),\n",
       "    Message('note_on', channel=0, note=65, velocity=80, time=1),\n",
       "    Message('note_on', channel=0, note=53, velocity=70, time=6),\n",
       "    Message('control_change', channel=0, control=64, value=127, time=235),\n",
       "    Message('control_change', channel=0, control=64, value=0, time=16),\n",
       "    Message('control_change', channel=0, control=64, value=127, time=84),\n",
       "    Message('control_change', channel=0, control=64, value=0, time=627),\n",
       "    Message('note_on', channel=0, note=53, velocity=0, time=1),\n",
       "    Message('note_on', channel=0, note=63, velocity=0, time=1),\n",
       "    Message('note_on', channel=0, note=65, velocity=0, time=5),\n",
       "    Message('note_on', channel=0, note=65, velocity=58, time=400),\n",
       "    Message('note_on', channel=0, note=53, velocity=31, time=24),\n",
       "    Message('note_on', channel=0, note=58, velocity=53, time=2),\n",
       "    Message('note_on', channel=0, note=62, velocity=39, time=4),\n",
       "    Message('control_change', channel=0, control=64, value=127, time=273),\n",
       "    Message('note_on', channel=0, note=58, velocity=0, time=157),\n",
       "    Message('control_change', channel=0, control=64, value=0, time=4),\n",
       "    Message('note_on', channel=0, note=62, velocity=0, time=2),\n",
       "    Message('note_on', channel=0, note=65, velocity=0, time=19),\n",
       "    Message('note_on', channel=0, note=53, velocity=0, time=10),\n",
       "    Message('note_on', channel=0, note=58, velocity=62, time=148),\n",
       "    Message('note_on', channel=0, note=62, velocity=58, time=1),\n",
       "    Message('note_on', channel=0, note=65, velocity=60, time=1),\n",
       "    Message('note_on', channel=0, note=58, velocity=0, time=162),\n",
       "    Message('note_on', channel=0, note=62, velocity=0, time=7),\n",
       "    Message('note_on', channel=0, note=65, velocity=0, time=7),\n",
       "    Message('note_on', channel=0, note=58, velocity=66, time=92),\n",
       "    Message('note_on', channel=0, note=62, velocity=65, time=0),\n",
       "    Message('note_on', channel=0, note=53, velocity=51, time=1),\n",
       "    Message('note_on', channel=0, note=50, velocity=53, time=1),\n",
       "    Message('note_on', channel=0, note=46, velocity=56, time=1),\n",
       "    Message('note_on', channel=0, note=65, velocity=62, time=0),\n",
       "    Message('note_on', channel=0, note=46, velocity=0, time=9),\n",
       "    Message('note_on', channel=0, note=50, velocity=0, time=46),\n",
       "    Message('note_on', channel=0, note=58, velocity=0, time=101),\n",
       "    Message('note_on', channel=0, note=65, velocity=0, time=26),\n",
       "    Message('note_on', channel=0, note=53, velocity=0, time=3),\n",
       "    Message('note_on', channel=0, note=62, velocity=0, time=22),\n",
       "    Message('note_on', channel=0, note=63, velocity=74, time=113),\n",
       "    Message('note_on', channel=0, note=58, velocity=72, time=0),\n",
       "    Message('note_on', channel=0, note=53, velocity=58, time=1),\n",
       "    Message('note_on', channel=0, note=65, velocity=67, time=0),\n",
       "    Message('note_on', channel=0, note=70, velocity=68, time=1),\n",
       "    Message('note_on', channel=0, note=65, velocity=0, time=453),\n",
       "    Message('note_on', channel=0, note=53, velocity=0, time=9),\n",
       "    Message('note_on', channel=0, note=63, velocity=0, time=13),\n",
       "    Message('note_on', channel=0, note=57, velocity=75, time=155),\n",
       "    Message('note_on', channel=0, note=63, velocity=71, time=2),\n",
       "    Message('note_on', channel=0, note=75, velocity=72, time=3),\n",
       "    Message('note_on', channel=0, note=65, velocity=65, time=0),\n",
       "    Message('note_on', channel=0, note=58, velocity=0, time=17),\n",
       "    Message('note_on', channel=0, note=70, velocity=0, time=71),\n",
       "    Message('note_on', channel=0, note=65, velocity=0, time=303),\n",
       "    Message('note_on', channel=0, note=63, velocity=0, time=7),\n",
       "    Message('note_on', channel=0, note=75, velocity=0, time=21),\n",
       "    Message('note_on', channel=0, note=55, velocity=73, time=183),\n",
       "    Message('note_on', channel=0, note=75, velocity=71, time=4),\n",
       "    Message('note_on', channel=0, note=63, velocity=68, time=1),\n",
       "    Message('note_on', channel=0, note=67, velocity=62, time=2),\n",
       "    Message('note_on', channel=0, note=65, velocity=66, time=0),\n",
       "    Message('note_on', channel=0, note=57, velocity=0, time=9),\n",
       "    Message('note_on', channel=0, note=65, velocity=0, time=428),\n",
       "    Message('note_on', channel=0, note=63, velocity=0, time=16),\n",
       "    Message('note_on', channel=0, note=65, velocity=65, time=127),\n",
       "    Message('note_on', channel=0, note=57, velocity=74, time=6),\n",
       "    Message('note_on', channel=0, note=63, velocity=64, time=4),\n",
       "    Message('note_on', channel=0, note=55, velocity=0, time=49),\n",
       "    Message('note_on', channel=0, note=67, velocity=0, time=15),\n",
       "    Message('note_on', channel=0, note=65, velocity=0, time=96),\n",
       "    Message('note_on', channel=0, note=63, velocity=0, time=20),\n",
       "    Message('note_on', channel=0, note=57, velocity=0, time=27),\n",
       "    Message('note_on', channel=0, note=75, velocity=0, time=3),\n",
       "    Message('note_on', channel=0, note=57, velocity=70, time=81),\n",
       "    Message('note_on', channel=0, note=63, velocity=64, time=8),\n",
       "    Message('note_on', channel=0, note=65, velocity=63, time=0),\n",
       "    Message('note_on', channel=0, note=75, velocity=62, time=5),\n",
       "    Message('note_on', channel=0, note=65, velocity=0, time=170),\n",
       "    Message('note_on', channel=0, note=63, velocity=0, time=21),\n",
       "    Message('note_on', channel=0, note=75, velocity=0, time=15),\n",
       "    Message('note_on', channel=0, note=57, velocity=0, time=84),\n",
       "    Message('note_on', channel=0, note=53, velocity=72, time=47),\n",
       "    Message('note_on', channel=0, note=65, velocity=69, time=2),\n",
       "    Message('note_on', channel=0, note=56, velocity=59, time=1),\n",
       "    Message('note_on', channel=0, note=62, velocity=64, time=1),\n",
       "    Message('control_change', channel=0, control=64, value=127, time=594),\n",
       "    Message('control_change', channel=0, control=64, value=0, time=327),\n",
       "    Message('note_on', channel=0, note=56, velocity=0, time=27),\n",
       "    Message('note_on', channel=0, note=53, velocity=0, time=7),\n",
       "    Message('note_on', channel=0, note=65, velocity=0, time=17),\n",
       "    Message('note_on', channel=0, note=62, velocity=0, time=15),\n",
       "    Message('note_on', channel=0, note=58, velocity=67, time=271),\n",
       "    Message('note_on', channel=0, note=65, velocity=60, time=1),\n",
       "    Message('note_on', channel=0, note=62, velocity=55, time=1),\n",
       "    Message('control_change', channel=0, control=64, value=127, time=241),\n",
       "    Message('note_on', channel=0, note=58, velocity=0, time=196),\n",
       "    Message('control_change', channel=0, control=64, value=0, time=11),\n",
       "    Message('note_on', channel=0, note=65, velocity=0, time=15),\n",
       "    Message('note_on', channel=0, note=62, velocity=0, time=20),\n",
       "    Message('note_on', channel=0, note=58, velocity=68, time=108),\n",
       "    Message('note_on', channel=0, note=65, velocity=63, time=4),\n",
       "    Message('note_on', channel=0, note=62, velocity=56, time=3),\n",
       "    Message('note_on', channel=0, note=58, velocity=0, time=170),\n",
       "    Message('note_on', channel=0, note=65, velocity=0, time=6),\n",
       "    Message('note_on', channel=0, note=62, velocity=0, time=43),\n",
       "    Message('note_on', channel=0, note=58, velocity=70, time=58),\n",
       "    Message('note_on', channel=0, note=62, velocity=64, time=8),\n",
       "    Message('note_on', channel=0, note=65, velocity=66, time=0),\n",
       "    Message('note_on', channel=0, note=58, velocity=0, time=181),\n",
       "    Message('note_on', channel=0, note=65, velocity=0, time=7),\n",
       "    Message('note_on', channel=0, note=62, velocity=0, time=9),\n",
       "    Message('note_on', channel=0, note=58, velocity=73, time=108),\n",
       "    Message('note_on', channel=0, note=53, velocity=56, time=3),\n",
       "    Message('note_on', channel=0, note=63, velocity=74, time=8),\n",
       "    Message('note_on', channel=0, note=70, velocity=67, time=0),\n",
       "    Message('note_on', channel=0, note=65, velocity=66, time=4),\n",
       "    Message('note_on', channel=0, note=75, velocity=70, time=1),\n",
       "    Message('note_on', channel=0, note=53, velocity=0, time=43),\n",
       "    Message('note_on', channel=0, note=75, velocity=0, time=130),\n",
       "    Message('control_change', channel=0, control=64, value=127, time=208),\n",
       "    Message('control_change', channel=0, control=64, value=0, time=46),\n",
       "    Message('note_on', channel=0, note=65, velocity=0, time=27),\n",
       "    Message('note_on', channel=0, note=63, velocity=0, time=14),\n",
       "    Message('note_on', channel=0, note=70, velocity=0, time=120),\n",
       "    Message('note_on', channel=0, note=57, velocity=81, time=28),\n",
       "    Message('note_on', channel=0, note=53, velocity=61, time=7),\n",
       "    Message('note_on', channel=0, note=63, velocity=73, time=4),\n",
       "    Message('note_on', channel=0, note=65, velocity=66, time=0),\n",
       "    Message('note_on', channel=0, note=75, velocity=72, time=2),\n",
       "    Message('note_on', channel=0, note=58, velocity=0, time=21),\n",
       "    Message('note_on', channel=0, note=53, velocity=0, time=38),\n",
       "    Message('note_on', channel=0, note=65, velocity=0, time=302),\n",
       "    Message('note_on', channel=0, note=75, velocity=0, time=5),\n",
       "    Message('note_on', channel=0, note=63, velocity=0, time=10),\n",
       "    Message('note_on', channel=0, note=48, velocity=62, time=207),\n",
       "    Message('note_on', channel=0, note=48, velocity=0, time=6),\n",
       "    Message('note_on', channel=0, note=55, velocity=80, time=2),\n",
       "    Message('note_on', channel=0, note=63, velocity=73, time=10),\n",
       "    Message('note_on', channel=0, note=65, velocity=70, time=3),\n",
       "    Message('note_on', channel=0, note=57, velocity=0, time=16),\n",
       "    Message('note_on', channel=0, note=65, velocity=0, time=372),\n",
       "    Message('note_on', channel=0, note=63, velocity=0, time=16),\n",
       "    Message('note_on', channel=0, note=63, velocity=68, time=174),\n",
       "    Message('note_on', channel=0, note=65, velocity=68, time=1),\n",
       "    Message('note_on', channel=0, note=57, velocity=73, time=2),\n",
       "    Message('note_on', channel=0, note=55, velocity=0, time=15),\n",
       "    Message('note_on', channel=0, note=65, velocity=0, time=185),\n",
       "    Message('note_on', channel=0, note=57, velocity=0, time=6),\n",
       "    Message('note_on', channel=0, note=63, velocity=0, time=4),\n",
       "    Message('note_on', channel=0, note=57, velocity=67, time=81),\n",
       "    Message('note_on', channel=0, note=63, velocity=63, time=8),\n",
       "    Message('note_on', channel=0, note=65, velocity=56, time=8),\n",
       "    Message('note_on', channel=0, note=65, velocity=0, time=185),\n",
       "    Message('note_on', channel=0, note=63, velocity=0, time=12),\n",
       "    Message('note_on', channel=0, note=57, velocity=0, time=129),\n",
       "    Message('note_on', channel=0, note=57, velocity=62, time=9),\n",
       "    Message('note_on', channel=0, note=58, velocity=74, time=2),\n",
       "    Message('note_on', channel=0, note=50, velocity=54, time=1),\n",
       "    Message('note_on', channel=0, note=65, velocity=64, time=1),\n",
       "    Message('note_on', channel=0, note=62, velocity=65, time=2),\n",
       "    Message('note_on', channel=0, note=57, velocity=0, time=27),\n",
       "    Message('note_on', channel=0, note=50, velocity=0, time=119),\n",
       "    Message('note_on', channel=0, note=58, velocity=0, time=816),\n",
       "    Message('note_on', channel=0, note=65, velocity=0, time=6),\n",
       "    Message('note_on', channel=0, note=62, velocity=0, time=5),\n",
       "    Message('note_on', channel=0, note=65, velocity=62, time=376),\n",
       "    Message('note_on', channel=0, note=65, velocity=0, time=421),\n",
       "    Message('note_on', channel=0, note=65, velocity=61, time=156),\n",
       "    Message('note_on', channel=0, note=65, velocity=0, time=180),\n",
       "    Message('note_on', channel=0, note=65, velocity=75, time=93),\n",
       "    Message('note_on', channel=0, note=77, velocity=66, time=1),\n",
       "    Message('note_on', channel=0, note=77, velocity=0, time=4),\n",
       "    Message('note_on', channel=0, note=65, velocity=0, time=160),\n",
       "    Message('note_on', channel=0, note=63, velocity=69, time=162),\n",
       "    Message('note_on', channel=0, note=65, velocity=66, time=5),\n",
       "    Message('note_on', channel=0, note=75, velocity=63, time=2),\n",
       "    Message('note_on', channel=0, note=77, velocity=60, time=4),\n",
       "    Message('note_on', channel=0, note=77, velocity=0, time=5),\n",
       "    Message('note_on', channel=0, note=75, velocity=0, time=277),\n",
       "    Message('control_change', channel=0, control=64, value=127, time=76),\n",
       "    Message('control_change', channel=0, control=64, value=0, time=56),\n",
       "    Message('note_on', channel=0, note=65, velocity=0, time=55),\n",
       "    Message('note_on', channel=0, note=63, velocity=0, time=9),\n",
       "    Message('note_on', channel=0, note=63, velocity=58, time=123),\n",
       "    Message('note_on', channel=0, note=65, velocity=57, time=14),\n",
       "    Message('note_on', channel=0, note=65, velocity=0, time=133),\n",
       "    Message('note_on', channel=0, note=63, velocity=0, time=10),\n",
       "    Message('note_on', channel=0, note=59, velocity=48, time=119),\n",
       "    Message('note_on', channel=0, note=63, velocity=54, time=1),\n",
       "    Message('note_on', channel=0, note=65, velocity=60, time=8),\n",
       "    Message('note_on', channel=0, note=59, velocity=0, time=2),\n",
       "    Message('note_on', channel=0, note=65, velocity=0, time=102),\n",
       "    Message('note_on', channel=0, note=63, velocity=0, time=33),\n",
       "    Message('note_on', channel=0, note=63, velocity=61, time=178),\n",
       "    Message('note_on', channel=0, note=65, velocity=63, time=1),\n",
       "    Message('note_on', channel=0, note=55, velocity=55, time=2),\n",
       "    Message('control_change', channel=0, control=64, value=127, time=153),\n",
       "    Message('control_change', channel=0, control=64, value=0, time=251),\n",
       "    Message('note_on', channel=0, note=65, velocity=0, time=50),\n",
       "    Message('note_on', channel=0, note=63, velocity=0, time=1),\n",
       "    Message('note_on', channel=0, note=63, velocity=61, time=198),\n",
       "    Message('note_on', channel=0, note=48, velocity=51, time=1),\n",
       "    Message('note_on', channel=0, note=53, velocity=49, time=0),\n",
       "    Message('note_on', channel=0, note=65, velocity=60, time=2),\n",
       "    Message('note_on', channel=0, note=48, velocity=0, time=4),\n",
       "    Message('note_on', channel=0, note=53, velocity=0, time=0),\n",
       "    Message('note_on', channel=0, note=55, velocity=0, time=19),\n",
       "    Message('note_on', channel=0, note=57, velocity=63, time=12),\n",
       "    Message('note_on', channel=0, note=65, velocity=0, time=414),\n",
       "    Message('note_on', channel=0, note=63, velocity=0, time=31),\n",
       "    Message('note_on', channel=0, note=65, velocity=56, time=285),\n",
       "    Message('note_on', channel=0, note=58, velocity=57, time=11),\n",
       "    Message('note_on', channel=0, note=62, velocity=52, time=1),\n",
       "    Message('note_on', channel=0, note=57, velocity=0, time=33),\n",
       "    Message('note_on', channel=0, note=58, velocity=0, time=1631),\n",
       "    Message('note_on', channel=0, note=65, velocity=0, time=40),\n",
       "    Message('note_on', channel=0, note=62, velocity=0, time=46),\n",
       "    Message('control_change', channel=0, control=64, value=127, time=1386),\n",
       "    Message('note_on', channel=0, note=52, velocity=74, time=374),\n",
       "    Message('note_on', channel=0, note=48, velocity=70, time=2),\n",
       "    Message('note_on', channel=0, note=55, velocity=70, time=2),\n",
       "    Message('note_on', channel=0, note=60, velocity=73, time=179),\n",
       "    Message('control_change', channel=0, control=64, value=0, time=14),\n",
       "    Message('note_on', channel=0, note=52, velocity=0, time=158),\n",
       "    Message('note_on', channel=0, note=52, velocity=52, time=4),\n",
       "    Message('note_on', channel=0, note=62, velocity=66, time=3),\n",
       "    Message('note_on', channel=0, note=60, velocity=0, time=43),\n",
       "    Message('note_on', channel=0, note=64, velocity=84, time=104),\n",
       "    Message('note_on', channel=0, note=62, velocity=0, time=49),\n",
       "    Message('note_on', channel=0, note=65, velocity=79, time=120),\n",
       "    Message('note_on', channel=0, note=64, velocity=0, time=39),\n",
       "    Message('note_on', channel=0, note=79, velocity=80, time=122),\n",
       "    Message('note_on', channel=0, note=67, velocity=88, time=2),\n",
       "    Message('note_on', channel=0, note=79, velocity=0, time=37),\n",
       "    Message('note_on', channel=0, note=65, velocity=0, time=26),\n",
       "    Message('note_on', channel=0, note=81, velocity=84, time=107),\n",
       "    Message('note_on', channel=0, note=69, velocity=84, time=0),\n",
       "    Message('note_on', channel=0, note=55, velocity=0, time=65),\n",
       "    Message('note_on', channel=0, note=67, velocity=0, time=3),\n",
       "    Message('note_on', channel=0, note=81, velocity=0, time=67),\n",
       "    Message('note_on', channel=0, note=71, velocity=86, time=10),\n",
       "    Message('note_on', channel=0, note=69, velocity=0, time=49),\n",
       "    Message('note_on', channel=0, note=72, velocity=88, time=158),\n",
       "    Message('note_on', channel=0, note=71, velocity=0, time=27),\n",
       "    Message('note_on', channel=0, note=52, velocity=0, time=79),\n",
       "    Message('note_on', channel=0, note=48, velocity=0, time=21),\n",
       "    Message('note_on', channel=0, note=48, velocity=60, time=252),\n",
       "    Message('note_on', channel=0, note=55, velocity=58, time=0),\n",
       "    Message('note_on', channel=0, note=52, velocity=60, time=2),\n",
       "    Message('note_on', channel=0, note=52, velocity=0, time=120),\n",
       "    Message('note_on', channel=0, note=48, velocity=0, time=2),\n",
       "    Message('note_on', channel=0, note=55, velocity=0, time=30),\n",
       "    Message('note_on', channel=0, note=52, velocity=60, time=215),\n",
       "    Message('note_on', channel=0, note=48, velocity=59, time=0),\n",
       "    Message('note_on', channel=0, note=55, velocity=59, time=1),\n",
       "    Message('note_on', channel=0, note=52, velocity=0, time=102),\n",
       "    Message('note_on', channel=0, note=48, velocity=0, time=8),\n",
       "    Message('note_on', channel=0, note=55, velocity=0, time=26),\n",
       "    Message('note_on', channel=0, note=55, velocity=66, time=200),\n",
       "    Message('note_on', channel=0, note=48, velocity=60, time=1),\n",
       "    Message('note_on', channel=0, note=52, velocity=58, time=7),\n",
       "    Message('note_on', channel=0, note=52, velocity=0, time=115),\n",
       "    Message('note_on', channel=0, note=48, velocity=0, time=1),\n",
       "    Message('note_on', channel=0, note=55, velocity=0, time=5),\n",
       "    Message('note_on', channel=0, note=72, velocity=0, time=13),\n",
       "    Message('note_on', channel=0, note=55, velocity=73, time=211),\n",
       "    Message('note_on', channel=0, note=53, velocity=72, time=1),\n",
       "    Message('note_on', channel=0, note=47, velocity=71, time=2),\n",
       "    Message('control_change', channel=0, control=64, value=127, time=63),\n",
       "    Message('note_on', channel=0, note=47, velocity=0, time=100),\n",
       "    Message('note_on', channel=0, note=47, velocity=48, time=7),\n",
       "    Message('note_on', channel=0, note=62, velocity=60, time=2),\n",
       "    Message('note_on', channel=0, note=64, velocity=74, time=156),\n",
       "    Message('note_on', channel=0, note=62, velocity=0, time=85),\n",
       "    Message('note_on', channel=0, note=65, velocity=76, time=62),\n",
       "    Message('control_change', channel=0, control=64, value=0, time=41),\n",
       "    Message('note_on', channel=0, note=64, velocity=0, time=32),\n",
       "    Message('note_on', channel=0, note=79, velocity=80, time=101),\n",
       "    Message('note_on', channel=0, note=67, velocity=81, time=1),\n",
       "    Message('note_on', channel=0, note=65, velocity=0, time=28),\n",
       "    Message('note_on', channel=0, note=81, velocity=80, time=126),\n",
       "    Message('note_on', channel=0, note=69, velocity=81, time=2),\n",
       "    Message('note_on', channel=0, note=79, velocity=0, time=17),\n",
       "    Message('note_on', channel=0, note=67, velocity=0, time=41),\n",
       "    Message('note_on', channel=0, note=55, velocity=0, time=8),\n",
       "    Message('control_change', channel=0, control=64, value=127, time=66),\n",
       "    Message('note_on', channel=0, note=71, velocity=86, time=28),\n",
       "    Message('note_on', channel=0, note=83, velocity=72, time=0),\n",
       "    Message('note_on', channel=0, note=81, velocity=0, time=3),\n",
       "    Message('note_on', channel=0, note=83, velocity=0, time=8),\n",
       "    Message('note_on', channel=0, note=53, velocity=0, time=108),\n",
       "    Message('note_on', channel=0, note=69, velocity=0, time=1),\n",
       "    Message('control_change', channel=0, control=64, value=0, time=21),\n",
       "    Message('note_on', channel=0, note=72, velocity=88, time=21),\n",
       "    Message('note_on', channel=0, note=71, velocity=0, time=31),\n",
       "    Message('note_on', channel=0, note=74, velocity=87, time=142),\n",
       "    Message('note_on', channel=0, note=72, velocity=0, time=40),\n",
       "    Message('note_on', channel=0, note=47, velocity=0, time=50),\n",
       "    Message('note_on', channel=0, note=55, velocity=54, time=267),\n",
       "    Message('note_on', channel=0, note=53, velocity=56, time=6),\n",
       "    Message('note_on', channel=0, note=47, velocity=54, time=1),\n",
       "    Message('note_on', channel=0, note=47, velocity=0, time=138),\n",
       "    Message('note_on', channel=0, note=53, velocity=0, time=6),\n",
       "    Message('note_on', channel=0, note=55, velocity=0, time=28),\n",
       "    Message('note_on', channel=0, note=55, velocity=55, time=181),\n",
       "    Message('note_on', channel=0, note=47, velocity=50, time=4),\n",
       "    Message('note_on', channel=0, note=53, velocity=50, time=13),\n",
       "    Message('note_on', channel=0, note=47, velocity=0, time=90),\n",
       "    Message('note_on', channel=0, note=53, velocity=0, time=13),\n",
       "    Message('note_on', channel=0, note=55, velocity=0, time=49),\n",
       "    Message('note_on', channel=0, note=47, velocity=61, time=174),\n",
       "    Message('note_on', channel=0, note=53, velocity=58, time=1),\n",
       "    Message('note_on', channel=0, note=55, velocity=57, time=1),\n",
       "    Message('note_on', channel=0, note=47, velocity=0, time=77),\n",
       "    Message('note_on', channel=0, note=53, velocity=0, time=57),\n",
       "    Message('note_on', channel=0, note=74, velocity=0, time=4),\n",
       "    Message('note_on', channel=0, note=55, velocity=0, time=2),\n",
       "    Message('note_on', channel=0, note=52, velocity=71, time=189),\n",
       "    Message('note_on', channel=0, note=55, velocity=66, time=1),\n",
       "    Message('note_on', channel=0, note=48, velocity=69, time=0),\n",
       "    Message('control_change', channel=0, control=64, value=127, time=104),\n",
       "    Message('note_on', channel=0, note=64, velocity=68, time=64),\n",
       "    Message('note_on', channel=0, note=65, velocity=70, time=160),\n",
       "    Message('note_on', channel=0, note=64, velocity=0, time=84),\n",
       "    Message('control_change', channel=0, control=64, value=0, time=34),\n",
       "    Message('note_on', channel=0, note=79, velocity=75, time=41),\n",
       "    Message('note_on', channel=0, note=67, velocity=80, time=2),\n",
       "    Message('note_on', channel=0, note=79, velocity=0, time=6),\n",
       "    Message('note_on', channel=0, note=65, velocity=0, time=75),\n",
       "    Message('note_on', channel=0, note=81, velocity=79, time=84),\n",
       "    Message('note_on', channel=0, note=69, velocity=80, time=0),\n",
       "    Message('note_on', channel=0, note=55, velocity=0, time=44),\n",
       "    Message('note_on', channel=0, note=67, velocity=0, time=1),\n",
       "    Message('note_on', channel=0, note=71, velocity=85, time=109),\n",
       "    Message('note_on', channel=0, note=83, velocity=72, time=0),\n",
       "    Message('note_on', channel=0, note=83, velocity=0, time=10),\n",
       "    Message('note_on', channel=0, note=69, velocity=0, time=29),\n",
       "    Message('note_on', channel=0, note=81, velocity=0, time=9),\n",
       "    Message('note_on', channel=0, note=72, velocity=91, time=106),\n",
       "    Message('note_on', channel=0, note=71, velocity=0, time=18),\n",
       "    Message('note_on', channel=0, note=74, velocity=89, time=145),\n",
       "    Message('note_on', channel=0, note=72, velocity=0, time=83),\n",
       "    Message('note_on', channel=0, note=76, velocity=89, time=89),\n",
       "    Message('note_on', channel=0, note=52, velocity=0, time=56),\n",
       "    Message('note_on', channel=0, note=74, velocity=0, time=8),\n",
       "    Message('note_on', channel=0, note=48, velocity=0, time=1),\n",
       "    Message('note_on', channel=0, note=55, velocity=64, time=271),\n",
       "    Message('note_on', channel=0, note=48, velocity=59, time=5),\n",
       "    Message('note_on', channel=0, note=52, velocity=59, time=4),\n",
       "    Message('note_on', channel=0, note=52, velocity=0, time=132),\n",
       "    Message('note_on', channel=0, note=48, velocity=0, time=5),\n",
       "    Message('note_on', channel=0, note=55, velocity=0, time=9),\n",
       "    Message('note_on', channel=0, note=55, velocity=55, time=193),\n",
       "    Message('note_on', channel=0, note=52, velocity=52, time=7),\n",
       "    Message('note_on', channel=0, note=48, velocity=54, time=2),\n",
       "    Message('note_on', channel=0, note=52, velocity=0, time=111),\n",
       "    Message('note_on', channel=0, note=48, velocity=0, time=3),\n",
       "    Message('note_on', channel=0, note=55, velocity=0, time=33),\n",
       "    Message('note_on', channel=0, note=55, velocity=63, time=174),\n",
       "    Message('note_on', channel=0, note=48, velocity=54, time=6),\n",
       "    Message('note_on', channel=0, note=52, velocity=54, time=3),\n",
       "    Message('note_on', channel=0, note=76, velocity=0, time=8),\n",
       "    Message('note_on', channel=0, note=48, velocity=0, time=91),\n",
       "    Message('note_on', channel=0, note=52, velocity=0, time=23),\n",
       "    Message('note_on', channel=0, note=55, velocity=0, time=0),\n",
       "    Message('note_on', channel=0, note=53, velocity=68, time=192),\n",
       "    Message('note_on', channel=0, note=57, velocity=69, time=0),\n",
       "    Message('note_on', channel=0, note=48, velocity=59, time=9),\n",
       "    Message('control_change', channel=0, control=64, value=127, time=87),\n",
       "    Message('note_on', channel=0, note=65, velocity=58, time=81),\n",
       "    Message('note_on', channel=0, note=67, velocity=74, time=143),\n",
       "    Message('note_on', channel=0, note=65, velocity=0, time=72),\n",
       "    Message('control_change', channel=0, control=64, value=0, time=11),\n",
       "    Message('note_on', channel=0, note=81, velocity=76, time=92),\n",
       "    Message('note_on', channel=0, note=69, velocity=79, time=2),\n",
       "    Message('note_on', channel=0, note=67, velocity=0, time=75),\n",
       "    Message('note_on', channel=0, note=71, velocity=87, time=89),\n",
       "    Message('note_on', channel=0, note=69, velocity=0, time=24),\n",
       "    Message('note_on', channel=0, note=81, velocity=0, time=26),\n",
       "    Message('note_on', channel=0, note=72, velocity=90, time=103),\n",
       "    Message('note_on', channel=0, note=71, velocity=0, time=26),\n",
       "    Message('note_on', channel=0, note=74, velocity=90, time=127),\n",
       "    Message('note_on', channel=0, note=72, velocity=0, time=23),\n",
       "    Message('note_on', channel=0, note=76, velocity=82, time=140),\n",
       "    Message('note_on', channel=0, note=74, velocity=0, time=65),\n",
       "    Message('note_on', channel=0, note=77, velocity=94, time=107),\n",
       "    Message('note_on', channel=0, note=48, velocity=0, time=18),\n",
       "    Message('note_on', channel=0, note=53, velocity=0, time=1),\n",
       "    Message('note_on', channel=0, note=57, velocity=0, time=7),\n",
       "    Message('note_on', channel=0, note=76, velocity=0, time=43),\n",
       "    Message('note_on', channel=0, note=60, velocity=54, time=264),\n",
       "    Message('note_on', channel=0, note=48, velocity=60, time=1),\n",
       "    Message('note_on', channel=0, note=53, velocity=59, time=1),\n",
       "    Message('note_on', channel=0, note=57, velocity=56, time=0),\n",
       "    Message('note_on', channel=0, note=60, velocity=0, time=3),\n",
       "    Message('note_on', channel=0, note=53, velocity=0, time=151),\n",
       "    Message('note_on', channel=0, note=48, velocity=0, time=1),\n",
       "    Message('note_on', channel=0, note=57, velocity=0, time=25),\n",
       "    Message('note_on', channel=0, note=53, velocity=62, time=167),\n",
       "    Message('note_on', channel=0, note=60, velocity=57, time=3),\n",
       "    Message('note_on', channel=0, note=57, velocity=61, time=1),\n",
       "    Message('note_on', channel=0, note=48, velocity=59, time=0),\n",
       "    Message('note_on', channel=0, note=60, velocity=0, time=143),\n",
       "    Message('note_on', channel=0, note=48, velocity=0, time=4),\n",
       "    Message('note_on', channel=0, note=53, velocity=0, time=0),\n",
       "    Message('note_on', channel=0, note=57, velocity=0, time=21),\n",
       "    Message('note_on', channel=0, note=57, velocity=57, time=167),\n",
       "    Message('note_on', channel=0, note=53, velocity=61, time=0),\n",
       "    Message('note_on', channel=0, note=48, velocity=57, time=2),\n",
       "    Message('note_on', channel=0, note=48, velocity=0, time=86),\n",
       "    Message('note_on', channel=0, note=53, velocity=0, time=25),\n",
       "    Message('note_on', channel=0, note=57, velocity=0, time=8),\n",
       "    Message('note_on', channel=0, note=55, velocity=63, time=202),\n",
       "    Message('note_on', channel=0, note=48, velocity=61, time=4),\n",
       "    Message('note_on', channel=0, note=52, velocity=59, time=0),\n",
       "    Message('note_on', channel=0, note=77, velocity=0, time=88),\n",
       "    Message('note_on', channel=0, note=67, velocity=69, time=88),\n",
       "    Message('note_on', channel=0, note=69, velocity=77, time=149),\n",
       "    Message('control_change', channel=0, control=64, value=127, time=63),\n",
       "    Message('note_on', channel=0, note=67, velocity=0, time=15),\n",
       "    Message('control_change', channel=0, control=64, value=0, time=16),\n",
       "    Message('note_on', channel=0, note=71, velocity=87, time=76),\n",
       "    Message('note_on', channel=0, note=69, velocity=0, time=39),\n",
       "    Message('note_on', channel=0, note=72, velocity=89, time=120),\n",
       "    Message('note_on', channel=0, note=71, velocity=0, time=29),\n",
       "    Message('note_on', channel=0, note=74, velocity=88, time=115),\n",
       "    Message('note_on', channel=0, note=72, velocity=0, time=52),\n",
       "    Message('note_on', channel=0, note=76, velocity=92, time=112),\n",
       "    Message('note_on', channel=0, note=74, velocity=0, time=13),\n",
       "    Message('note_on', channel=0, note=77, velocity=89, time=141),\n",
       "    Message('note_on', channel=0, note=76, velocity=0, time=51),\n",
       "    Message('note_on', channel=0, note=79, velocity=91, time=131),\n",
       "    Message('note_on', channel=0, note=77, velocity=0, time=29),\n",
       "    Message('note_on', channel=0, note=52, velocity=0, time=36),\n",
       "    Message('note_on', channel=0, note=48, velocity=0, time=46),\n",
       "    Message('note_on', channel=0, note=55, velocity=0, time=16),\n",
       "    Message('note_on', channel=0, note=55, velocity=62, time=218),\n",
       "    Message('note_on', channel=0, note=48, velocity=56, time=1),\n",
       "    Message('note_on', channel=0, note=52, velocity=60, time=9),\n",
       "    Message('note_on', channel=0, note=52, velocity=0, time=141),\n",
       "    Message('note_on', channel=0, note=48, velocity=0, time=1),\n",
       "    Message('note_on', channel=0, note=55, velocity=0, time=8),\n",
       "    Message('note_on', channel=0, note=55, velocity=60, time=179),\n",
       "    Message('note_on', channel=0, note=48, velocity=58, time=1),\n",
       "    Message('note_on', channel=0, note=52, velocity=57, time=1),\n",
       "    Message('note_on', channel=0, note=52, velocity=0, time=136),\n",
       "    Message('note_on', channel=0, note=48, velocity=0, time=2),\n",
       "    Message('note_on', channel=0, note=55, velocity=0, time=8),\n",
       "    Message('note_on', channel=0, note=55, velocity=55, time=180),\n",
       "    Message('note_on', channel=0, note=48, velocity=52, time=4),\n",
       "    Message('note_on', channel=0, note=52, velocity=51, time=6),\n",
       "    Message('note_on', channel=0, note=48, velocity=0, time=84),\n",
       "    Message('note_on', channel=0, note=52, velocity=0, time=2),\n",
       "    Message('note_on', channel=0, note=55, velocity=0, time=5),\n",
       "    Message('note_on', channel=0, note=53, velocity=61, time=224),\n",
       "    Message('note_on', channel=0, note=57, velocity=63, time=5),\n",
       "    Message('note_on', channel=0, note=48, velocity=58, time=2),\n",
       "    Message('control_change', channel=0, control=64, value=127, time=65),\n",
       "    Message('note_on', channel=0, note=69, velocity=68, time=109),\n",
       "    Message('note_on', channel=0, note=79, velocity=0, time=37),\n",
       "    Message('note_on', channel=0, note=71, velocity=78, time=112),\n",
       "    Message('control_change', channel=0, control=64, value=0, time=14),\n",
       "    Message('note_on', channel=0, note=69, velocity=0, time=38),\n",
       "    Message('control_change', channel=0, control=64, value=127, time=51),\n",
       "    Message('note_on', channel=0, note=72, velocity=86, time=58),\n",
       "    Message('note_on', channel=0, note=71, velocity=0, time=30),\n",
       "    Message('control_change', channel=0, control=64, value=0, time=89),\n",
       "    Message('note_on', channel=0, note=74, velocity=85, time=33),\n",
       "    Message('note_on', channel=0, note=72, velocity=0, time=31),\n",
       "    Message('note_on', channel=0, note=76, velocity=85, time=117),\n",
       "    Message('note_on', channel=0, note=74, velocity=0, time=36),\n",
       "    Message('control_change', channel=0, control=64, value=127, time=82),\n",
       "    Message('control_change', channel=0, control=64, value=0, time=23),\n",
       "    Message('note_on', channel=0, note=77, velocity=94, time=10),\n",
       "    Message('note_on', channel=0, note=76, velocity=0, time=55),\n",
       "    Message('note_on', channel=0, note=79, velocity=87, time=120),\n",
       "    Message('note_on', channel=0, note=77, velocity=0, time=70),\n",
       "    Message('note_on', channel=0, note=81, velocity=91, time=103),\n",
       "    Message('note_on', channel=0, note=79, velocity=0, time=38),\n",
       "    Message('note_on', channel=0, note=48, velocity=0, time=38),\n",
       "    Message('note_on', channel=0, note=53, velocity=0, time=0),\n",
       "    Message('note_on', channel=0, note=57, velocity=0, time=3),\n",
       "    Message('note_on', channel=0, note=53, velocity=61, time=266),\n",
       "    Message('note_on', channel=0, note=48, velocity=58, time=13),\n",
       "    Message('note_on', channel=0, note=57, velocity=60, time=1),\n",
       "    Message('note_on', channel=0, note=48, velocity=0, time=116),\n",
       "    Message('note_on', channel=0, note=53, velocity=0, time=1),\n",
       "    Message('note_on', channel=0, note=57, velocity=0, time=31),\n",
       "    Message('note_on', channel=0, note=81, velocity=0, time=88),\n",
       "    Message('note_on', channel=0, note=81, velocity=38, time=8),\n",
       "    Message('note_on', channel=0, note=48, velocity=58, time=96),\n",
       "    Message('note_on', channel=0, note=53, velocity=57, time=7),\n",
       "    Message('note_on', channel=0, note=57, velocity=56, time=0),\n",
       "    Message('note_on', channel=0, note=81, velocity=0, time=49),\n",
       "    Message('note_on', channel=0, note=48, velocity=0, time=73),\n",
       "    Message('note_on', channel=0, note=53, velocity=0, time=1),\n",
       "    Message('note_on', channel=0, note=57, velocity=0, time=38),\n",
       "    Message('note_on', channel=0, note=48, velocity=60, time=173),\n",
       "    Message('note_on', channel=0, note=57, velocity=60, time=0),\n",
       "    Message('note_on', channel=0, note=53, velocity=56, time=4),\n",
       "    Message('note_on', channel=0, note=48, velocity=0, time=100),\n",
       "    Message('note_on', channel=0, note=53, velocity=0, time=1),\n",
       "    Message('note_on', channel=0, note=57, velocity=0, time=7),\n",
       "    Message('note_on', channel=0, note=55, velocity=65, time=220),\n",
       "    Message('note_on', channel=0, note=47, velocity=58, time=2),\n",
       "    Message('note_on', channel=0, note=53, velocity=60, time=2),\n",
       "    Message('control_change', channel=0, control=64, value=127, time=86),\n",
       "    Message('note_on', channel=0, note=71, velocity=66, time=80),\n",
       "    Message('note_on', channel=0, note=47, velocity=0, time=136),\n",
       "    Message('note_on', channel=0, note=47, velocity=42, time=10),\n",
       "    Message('note_on', channel=0, note=72, velocity=79, time=3),\n",
       "    Message('note_on', channel=0, note=71, velocity=0, time=24),\n",
       "    Message('control_change', channel=0, control=64, value=0, time=91),\n",
       "    Message('note_on', channel=0, note=53, velocity=0, time=33),\n",
       "    Message('note_on', channel=0, note=53, velocity=52, time=5),\n",
       "    Message('note_on', channel=0, note=74, velocity=87, time=1),\n",
       "    Message('note_on', channel=0, note=72, velocity=0, time=82),\n",
       "    Message('note_on', channel=0, note=76, velocity=80, time=63),\n",
       "    Message('note_on', channel=0, note=74, velocity=0, time=35),\n",
       "    Message('note_on', channel=0, note=77, velocity=90, time=110),\n",
       "    Message('note_on', channel=0, note=76, velocity=0, time=36),\n",
       "    Message('note_on', channel=0, note=79, velocity=89, time=134),\n",
       "    Message('note_on', channel=0, note=77, velocity=0, time=66),\n",
       "    Message('note_on', channel=0, note=81, velocity=87, time=96),\n",
       "    Message('note_on', channel=0, note=79, velocity=0, time=44),\n",
       "    Message('note_on', channel=0, note=81, velocity=0, time=134),\n",
       "    Message('note_on', channel=0, note=83, velocity=87, time=6),\n",
       "    Message('note_on', channel=0, note=81, velocity=71, time=2),\n",
       "    Message('note_on', channel=0, note=81, velocity=0, time=32),\n",
       "    Message('note_on', channel=0, note=47, velocity=0, time=49),\n",
       "    Message('note_on', channel=0, note=53, velocity=0, time=8),\n",
       "    Message('note_on', channel=0, note=55, velocity=0, time=37),\n",
       "    Message('note_on', channel=0, note=55, velocity=59, time=230),\n",
       "    Message('note_on', channel=0, note=53, velocity=61, time=7),\n",
       "    Message('note_on', channel=0, note=47, velocity=52, time=20),\n",
       "    Message('control_change', channel=0, control=64, value=127, time=70),\n",
       "    Message('control_change', channel=0, control=64, value=0, time=46),\n",
       "    Message('note_on', channel=0, note=53, velocity=0, time=3),\n",
       "    Message('note_on', channel=0, note=47, velocity=0, time=10),\n",
       "    Message('note_on', channel=0, note=55, velocity=0, time=13),\n",
       "    Message('note_on', channel=0, note=83, velocity=0, time=12),\n",
       "    Message('note_on', channel=0, note=47, velocity=58, time=167),\n",
       "    Message('note_on', channel=0, note=53, velocity=63, time=0),\n",
       "    Message('note_on', channel=0, note=55, velocity=63, time=1),\n",
       "    Message('note_on', channel=0, note=53, velocity=0, time=136),\n",
       "    Message('note_on', channel=0, note=47, velocity=0, time=2),\n",
       "    Message('note_on', channel=0, note=55, velocity=0, time=21),\n",
       "    Message('note_on', channel=0, note=53, velocity=55, time=180),\n",
       "    Message('note_on', channel=0, note=47, velocity=54, time=3),\n",
       "    Message('note_on', channel=0, note=50, velocity=43, time=1),\n",
       "    Message('note_on', channel=0, note=55, velocity=54, time=1),\n",
       "    Message('note_on', channel=0, note=53, velocity=0, time=93),\n",
       "    Message('note_on', channel=0, note=47, velocity=0, time=2),\n",
       "    Message('note_on', channel=0, note=50, velocity=0, time=0),\n",
       "    Message('note_on', channel=0, note=55, velocity=0, time=7),\n",
       "    Message('note_on', channel=0, note=55, velocity=60, time=218),\n",
       "    Message('note_on', channel=0, note=48, velocity=59, time=1),\n",
       "    Message('note_on', channel=0, note=52, velocity=58, time=0),\n",
       "    Message('control_change', channel=0, control=64, value=127, time=120),\n",
       "    Message('note_on', channel=0, note=72, velocity=65, time=49),\n",
       "    Message('note_on', channel=0, note=74, velocity=78, time=147),\n",
       "    Message('control_change', channel=0, control=64, value=0, time=53),\n",
       "    Message('note_on', channel=0, note=72, velocity=0, time=15),\n",
       "    Message('note_on', channel=0, note=76, velocity=84, time=86),\n",
       "    Message('note_on', channel=0, note=74, velocity=0, time=72),\n",
       "    Message('note_on', channel=0, note=77, velocity=89, time=74),\n",
       "    Message('note_on', channel=0, note=76, velocity=0, time=38),\n",
       "    Message('note_on', channel=0, note=79, velocity=84, time=112),\n",
       "    Message('note_on', channel=0, note=77, velocity=0, time=34),\n",
       "    Message('note_on', channel=0, note=81, velocity=87, time=132),\n",
       "    Message('note_on', channel=0, note=71, velocity=55, time=5),\n",
       "    Message('note_on', channel=0, note=71, velocity=0, time=5),\n",
       "    Message('note_on', channel=0, note=79, velocity=0, time=158),\n",
       "    Message('note_on', channel=0, note=83, velocity=80, time=8),\n",
       "    Message('note_on', channel=0, note=81, velocity=0, time=67),\n",
       "    Message('note_on', channel=0, note=84, velocity=82, time=108),\n",
       "    Message('note_on', channel=0, note=83, velocity=0, time=227),\n",
       "    Message('control_change', channel=0, control=64, value=127, time=130),\n",
       "    Message('control_change', channel=0, control=64, value=0, time=47),\n",
       "    Message('control_change', channel=0, control=64, value=127, time=883),\n",
       "    Message('control_change', channel=0, control=64, value=0, time=23),\n",
       "    Message('control_change', channel=0, control=64, value=127, time=84),\n",
       "    Message('control_change', channel=0, control=64, value=0, time=64),\n",
       "    Message('note_on', channel=0, note=84, velocity=0, time=1),\n",
       "    Message('note_on', channel=0, note=48, velocity=0, time=1),\n",
       "    Message('note_on', channel=0, note=52, velocity=0, time=0),\n",
       "    Message('note_on', channel=0, note=55, velocity=0, time=1),\n",
       "    Message('note_on', channel=0, note=73, velocity=69, time=4340),\n",
       "    Message('note_on', channel=0, note=61, velocity=75, time=1),\n",
       "    Message('note_on', channel=0, note=57, velocity=51, time=27),\n",
       "    Message('note_on', channel=0, note=52, velocity=58, time=0),\n",
       "    Message('note_on', channel=0, note=45, velocity=50, time=1),\n",
       "    Message('control_change', channel=0, control=64, value=127, time=103),\n",
       "    Message('control_change', channel=0, control=64, value=0, time=530),\n",
       "    Message('note_on', channel=0, note=64, velocity=74, time=82),\n",
       "    Message('note_on', channel=0, note=61, velocity=0, time=24),\n",
       "    Message('note_on', channel=0, note=73, velocity=0, time=63),\n",
       "    Message('note_on', channel=0, note=64, velocity=0, time=56),\n",
       "    Message('note_on', channel=0, note=64, velocity=82, time=140),\n",
       "    Message('note_on', channel=0, note=52, velocity=0, time=280),\n",
       "    Message('note_on', channel=0, note=74, velocity=73, time=5),\n",
       "    Message('note_on', channel=0, note=62, velocity=79, time=0),\n",
       "    Message('note_on', channel=0, note=52, velocity=49, time=1),\n",
       "    Message('note_on', channel=0, note=64, velocity=0, time=68),\n",
       "    Message('note_on', channel=0, note=61, velocity=85, time=188),\n",
       "    Message('note_on', channel=0, note=73, velocity=75, time=1),\n",
       "    Message('note_on', channel=0, note=62, velocity=0, time=17),\n",
       "    Message('note_on', channel=0, note=74, velocity=0, time=20),\n",
       "    Message('control_change', channel=0, control=64, value=127, time=38),\n",
       "    Message('note_on', channel=0, note=57, velocity=0, time=46),\n",
       "    Message('note_on', channel=0, note=45, velocity=0, time=11),\n",
       "    Message('note_on', channel=0, note=52, velocity=0, time=5),\n",
       "    Message('control_change', channel=0, control=64, value=0, time=0),\n",
       "    Message('note_on', channel=0, note=59, velocity=82, time=155),\n",
       "    Message('note_on', channel=0, note=71, velocity=83, time=1),\n",
       "    Message('note_on', channel=0, note=73, velocity=0, time=5),\n",
       "    Message('note_on', channel=0, note=52, velocity=74, time=0),\n",
       "    Message('note_on', channel=0, note=45, velocity=60, time=16),\n",
       "    Message('note_on', channel=0, note=61, velocity=0, time=68),\n",
       "    Message('note_on', channel=0, note=52, velocity=0, time=461),\n",
       "    Message('note_on', channel=0, note=59, velocity=0, time=0),\n",
       "    Message('note_on', channel=0, note=52, velocity=49, time=4),\n",
       "    Message('note_on', channel=0, note=62, velocity=70, time=0),\n",
       "    Message('note_on', channel=0, note=59, velocity=59, time=7),\n",
       "    Message('note_on', channel=0, note=59, velocity=0, time=38),\n",
       "    Message('note_on', channel=0, note=71, velocity=0, time=228),\n",
       "    Message('note_on', channel=0, note=59, velocity=78, time=6),\n",
       "    Message('note_on', channel=0, note=71, velocity=73, time=2),\n",
       "    Message('note_on', channel=0, note=62, velocity=0, time=95),\n",
       "    Message('note_on', channel=0, note=59, velocity=0, time=434),\n",
       "    Message('note_on', channel=0, note=62, velocity=64, time=4),\n",
       "    Message('note_on', channel=0, note=59, velocity=54, time=1),\n",
       "    Message('note_on', channel=0, note=45, velocity=0, time=15),\n",
       "    Message('note_on', channel=0, note=52, velocity=0, time=4),\n",
       "    Message('note_on', channel=0, note=71, velocity=0, time=5),\n",
       "    Message('note_on', channel=0, note=59, velocity=0, time=33),\n",
       "    Message('note_on', channel=0, note=61, velocity=74, time=218),\n",
       "    Message('note_on', channel=0, note=52, velocity=62, time=0),\n",
       "    Message('note_on', channel=0, note=57, velocity=56, time=3),\n",
       "    Message('note_on', channel=0, note=45, velocity=52, time=5),\n",
       "    Message('note_on', channel=0, note=62, velocity=0, time=22),\n",
       "    Message('note_on', channel=0, note=57, velocity=0, time=474),\n",
       "    Message('note_on', channel=0, note=57, velocity=48, time=4),\n",
       "    Message('note_on', channel=0, note=57, velocity=0, time=84),\n",
       "    Message('note_on', channel=0, note=61, velocity=0, time=3),\n",
       "    Message('note_on', channel=0, note=45, velocity=0, time=177),\n",
       "    Message('note_on', channel=0, note=52, velocity=0, time=0),\n",
       "    Message('note_on', channel=0, note=45, velocity=38, time=5),\n",
       "    Message('note_on', channel=0, note=52, velocity=41, time=1),\n",
       "    Message('note_on', channel=0, note=57, velocity=59, time=0),\n",
       "    Message('note_on', channel=0, note=59, velocity=83, time=255),\n",
       "    Message('note_on', channel=0, note=71, velocity=79, time=3),\n",
       "    Message('note_on', channel=0, note=71, velocity=0, time=5),\n",
       "    Message('note_on', channel=0, note=57, velocity=0, time=79),\n",
       "    Message('note_on', channel=0, note=52, velocity=0, time=159),\n",
       "    Message('note_on', channel=0, note=52, velocity=54, time=8),\n",
       "    Message('note_on', channel=0, note=61, velocity=79, time=1),\n",
       "    Message('note_on', channel=0, note=73, velocity=71, time=1),\n",
       "    Message('note_on', channel=0, note=73, velocity=0, time=6),\n",
       "    Message('note_on', channel=0, note=59, velocity=0, time=51),\n",
       "    Message('note_on', channel=0, note=59, velocity=79, time=221),\n",
       "    Message('note_on', channel=0, note=61, velocity=0, time=77),\n",
       "    Message('note_on', channel=0, note=52, velocity=0, time=607),\n",
       "    Message('note_on', channel=0, note=45, velocity=0, time=4),\n",
       "    Message('note_on', channel=0, note=52, velocity=68, time=221),\n",
       "    Message('note_on', channel=0, note=45, velocity=60, time=5),\n",
       "    Message('note_on', channel=0, note=52, velocity=0, time=643),\n",
       "    Message('note_on', channel=0, note=45, velocity=0, time=2),\n",
       "    Message('note_on', channel=0, note=61, velocity=79, time=216),\n",
       "    Message('note_on', channel=0, note=73, velocity=73, time=1),\n",
       "    Message('note_on', channel=0, note=52, velocity=71, time=6),\n",
       "    Message('note_on', channel=0, note=57, velocity=64, time=1),\n",
       "    Message('note_on', channel=0, note=45, velocity=58, time=6),\n",
       "    Message('note_on', channel=0, note=59, velocity=0, time=4),\n",
       "    Message('control_change', channel=0, control=64, value=127, time=108),\n",
       "    Message('control_change', channel=0, control=64, value=0, time=369),\n",
       "    Message('note_on', channel=0, note=64, velocity=77, time=68),\n",
       "    Message('note_on', channel=0, note=73, velocity=0, time=82),\n",
       "    Message('note_on', channel=0, note=61, velocity=0, time=0),\n",
       "    Message('note_on', channel=0, note=64, velocity=0, time=22),\n",
       "    Message('note_on', channel=0, note=64, velocity=82, time=184),\n",
       "    Message('note_on', channel=0, note=76, velocity=69, time=3),\n",
       "    Message('note_on', channel=0, note=76, velocity=0, time=9),\n",
       "    Message('note_on', channel=0, note=52, velocity=0, time=231),\n",
       "    Message('note_on', channel=0, note=62, velocity=77, time=6),\n",
       "    Message('note_on', channel=0, note=52, velocity=53, time=3),\n",
       "    Message('note_on', channel=0, note=64, velocity=0, time=43),\n",
       "    Message('note_on', channel=0, note=52, velocity=0, time=193),\n",
       "    Message('note_on', channel=0, note=52, velocity=59, time=12),\n",
       "    Message('note_on', channel=0, note=61, velocity=84, time=0),\n",
       "    Message('note_on', channel=0, note=73, velocity=73, time=1),\n",
       "    Message('note_on', channel=0, note=57, velocity=0, time=49),\n",
       "    Message('note_on', channel=0, note=62, velocity=0, time=38),\n",
       "    Message('note_on', channel=0, note=52, velocity=0, time=18),\n",
       "    Message('note_on', channel=0, note=45, velocity=0, time=1),\n",
       "    Message('note_on', channel=0, note=59, velocity=81, time=184),\n",
       "    Message('note_on', channel=0, note=71, velocity=78, time=4),\n",
       "    Message('note_on', channel=0, note=52, velocity=70, time=6),\n",
       "    Message('note_on', channel=0, note=45, velocity=58, time=6),\n",
       "    Message('note_on', channel=0, note=61, velocity=0, time=56),\n",
       "    Message('note_on', channel=0, note=73, velocity=0, time=2),\n",
       "    Message('note_on', channel=0, note=59, velocity=0, time=461),\n",
       "    Message('note_on', channel=0, note=62, velocity=71, time=7),\n",
       "    Message('note_on', channel=0, note=59, velocity=61, time=3),\n",
       "    Message('note_on', channel=0, note=59, velocity=0, time=41),\n",
       "    Message('note_on', channel=0, note=52, velocity=0, time=225),\n",
       "    Message('note_on', channel=0, note=71, velocity=0, time=0),\n",
       "    Message('note_on', channel=0, note=59, velocity=79, time=9),\n",
       "    Message('note_on', channel=0, note=52, velocity=52, time=2),\n",
       "    Message('note_on', channel=0, note=71, velocity=76, time=0),\n",
       "    Message('note_on', channel=0, note=62, velocity=0, time=118),\n",
       "    Message('note_on', channel=0, note=59, velocity=0, time=416),\n",
       "    Message('note_on', channel=0, note=74, velocity=68, time=4),\n",
       "    Message('note_on', channel=0, note=62, velocity=75, time=0),\n",
       "    Message('note_on', channel=0, note=59, velocity=63, time=2),\n",
       "    Message('note_on', channel=0, note=45, velocity=0, time=14),\n",
       "    Message('note_on', channel=0, note=52, velocity=0, time=2),\n",
       "    Message('note_on', channel=0, note=71, velocity=0, time=16),\n",
       "    Message('note_on', channel=0, note=59, velocity=0, time=6),\n",
       "    Message('note_on', channel=0, note=61, velocity=79, time=216),\n",
       "    Message('note_on', channel=0, note=73, velocity=75, time=0),\n",
       "    Message('note_on', channel=0, note=45, velocity=64, time=4),\n",
       "    Message('note_on', channel=0, note=52, velocity=72, time=1),\n",
       "    Message('note_on', channel=0, note=57, velocity=67, time=0),\n",
       "    Message('note_on', channel=0, note=74, velocity=0, time=19),\n",
       "    Message('note_on', channel=0, note=62, velocity=0, time=6),\n",
       "    Message('note_on', channel=0, note=52, velocity=0, time=225),\n",
       "    Message('note_on', channel=0, note=61, velocity=0, time=0),\n",
       "    Message('note_on', channel=0, note=73, velocity=0, time=0),\n",
       "    Message('note_on', channel=0, note=62, velocity=78, time=5),\n",
       "    Message('note_on', channel=0, note=52, velocity=59, time=1),\n",
       "    Message('note_on', channel=0, note=73, velocity=67, time=0),\n",
       "    Message('note_on', channel=0, note=74, velocity=73, time=3),\n",
       "    Message('note_on', channel=0, note=61, velocity=70, time=1),\n",
       "    Message('note_on', channel=0, note=74, velocity=0, time=5),\n",
       "    Message('note_on', channel=0, note=61, velocity=0, time=27),\n",
       "    Message('note_on', channel=0, note=57, velocity=0, time=58),\n",
       "    Message('note_on', channel=0, note=52, velocity=0, time=146),\n",
       "    Message('note_on', channel=0, note=73, velocity=0, time=0),\n",
       "    Message('note_on', channel=0, note=73, velocity=72, time=4),\n",
       "    Message('note_on', channel=0, note=61, velocity=80, time=0),\n",
       "    Message('note_on', channel=0, note=52, velocity=60, time=2),\n",
       "    Message('note_on', channel=0, note=62, velocity=0, time=147),\n",
       "    Message('note_on', channel=0, note=59, velocity=84, time=126),\n",
       "    Message('note_on', channel=0, note=71, velocity=80, time=1),\n",
       "    Message('note_on', channel=0, note=73, velocity=0, time=88),\n",
       "    Message('note_on', channel=0, note=61, velocity=0, time=4),\n",
       "    Message('note_on', channel=0, note=52, velocity=0, time=142),\n",
       "    Message('note_on', channel=0, note=52, velocity=53, time=4),\n",
       "    Message('note_on', channel=0, note=61, velocity=77, time=2),\n",
       "    Message('note_on', channel=0, note=73, velocity=71, time=0),\n",
       "    Message('note_on', channel=0, note=59, velocity=0, time=74),\n",
       "    Message('note_on', channel=0, note=71, velocity=0, time=28),\n",
       "    Message('note_on', channel=0, note=59, velocity=80, time=147),\n",
       "    Message('note_on', channel=0, note=71, velocity=76, time=2),\n",
       "    Message('note_on', channel=0, note=73, velocity=0, time=73),\n",
       "    Message('note_on', channel=0, note=61, velocity=0, time=25),\n",
       "    Message('note_on', channel=0, note=69, velocity=62, time=190),\n",
       "    Message('note_on', channel=0, note=52, velocity=0, time=0),\n",
       "    Message('note_on', channel=0, note=57, velocity=72, time=2),\n",
       "    Message('note_on', channel=0, note=52, velocity=44, time=4),\n",
       "    Message('note_on', channel=0, note=59, velocity=0, time=57),\n",
       "    Message('note_on', channel=0, note=71, velocity=0, time=7),\n",
       "    Message('note_on', channel=0, note=52, velocity=0, time=600),\n",
       "    Message('note_on', channel=0, note=45, velocity=0, time=3),\n",
       "    Message('note_on', channel=0, note=52, velocity=66, time=269),\n",
       "    Message('note_on', channel=0, note=57, velocity=0, time=3),\n",
       "    Message('note_on', channel=0, note=57, velocity=52, time=6),\n",
       "    Message('note_on', channel=0, note=45, velocity=56, time=3),\n",
       "    Message('note_on', channel=0, note=52, velocity=0, time=945),\n",
       "    Message('note_on', channel=0, note=45, velocity=0, time=17),\n",
       "    Message('note_on', channel=0, note=69, velocity=0, time=4),\n",
       "    Message('note_on', channel=0, note=57, velocity=0, time=4),\n",
       "    Message('control_change', channel=0, control=64, value=127, time=2155),\n",
       "    Message('note_on', channel=0, note=52, velocity=76, time=402),\n",
       "    Message('note_on', channel=0, note=48, velocity=77, time=1),\n",
       "    Message('note_on', channel=0, note=55, velocity=70, time=0),\n",
       "    Message('note_on', channel=0, note=72, velocity=89, time=215),\n",
       "    Message('control_change', channel=0, control=64, value=0, time=23),\n",
       "    Message('control_change', channel=0, control=64, value=127, time=11),\n",
       "    Message('note_on', channel=0, note=72, velocity=0, time=131),\n",
       "    Message('note_on', channel=0, note=48, velocity=0, time=15),\n",
       "    Message('note_on', channel=0, note=52, velocity=0, time=0),\n",
       "    Message('control_change', channel=0, control=64, value=0, time=4),\n",
       "    Message('note_on', channel=0, note=71, velocity=84, time=5),\n",
       "    Message('note_on', channel=0, note=52, velocity=55, time=1),\n",
       "    Message('note_on', channel=0, note=48, velocity=57, time=0),\n",
       "    Message('note_on', channel=0, note=52, velocity=0, time=167),\n",
       "    Message('note_on', channel=0, note=55, velocity=0, time=0),\n",
       "    Message('note_on', channel=0, note=52, velocity=59, time=4),\n",
       "    Message('note_on', channel=0, note=55, velocity=54, time=1),\n",
       "    Message('note_on', channel=0, note=81, velocity=82, time=1),\n",
       "    Message('note_on', channel=0, note=69, velocity=87, time=0),\n",
       "    Message('note_on', channel=0, note=71, velocity=0, time=63),\n",
       "    Message('note_on', channel=0, note=52, velocity=0, time=108),\n",
       "    Message('note_on', channel=0, note=48, velocity=0, time=7),\n",
       "    Message('note_on', channel=0, note=52, velocity=53, time=3),\n",
       "    Message('note_on', channel=0, note=79, velocity=77, time=1),\n",
       "    Message('note_on', channel=0, note=67, velocity=85, time=1),\n",
       "    Message('note_on', channel=0, note=48, velocity=51, time=0),\n",
       "    Message('note_on', channel=0, note=69, velocity=0, time=49),\n",
       "    Message('note_on', channel=0, note=81, velocity=0, time=23),\n",
       "    Message('note_on', channel=0, note=79, velocity=0, time=85),\n",
       "    Message('note_on', channel=0, note=65, velocity=74, time=32),\n",
       "    Message('note_on', channel=0, note=77, velocity=70, time=0),\n",
       "    Message('note_on', channel=0, note=67, velocity=0, time=19),\n",
       "    Message('note_on', channel=0, note=77, velocity=0, time=148),\n",
       "    Message('note_on', channel=0, note=64, velocity=80, time=11),\n",
       "    Message('note_on', channel=0, note=76, velocity=68, time=1),\n",
       "    Message('note_on', channel=0, note=65, velocity=0, time=35),\n",
       "    Message('note_on', channel=0, note=74, velocity=65, time=144),\n",
       "    Message('note_on', channel=0, note=62, velocity=71, time=2),\n",
       "    Message('note_on', channel=0, note=76, velocity=0, time=38),\n",
       "    Message('note_on', channel=0, note=52, velocity=0, time=12),\n",
       "    Message('note_on', channel=0, note=64, velocity=0, time=7),\n",
       "    Message('note_on', channel=0, note=74, velocity=0, time=111),\n",
       "    Message('note_on', channel=0, note=72, velocity=71, time=21),\n",
       "    Message('note_on', channel=0, note=60, velocity=76, time=2),\n",
       "    Message('note_on', channel=0, note=62, velocity=0, time=66),\n",
       "    Message('note_on', channel=0, note=48, velocity=0, time=32),\n",
       "    Message('note_on', channel=0, note=55, velocity=0, time=2),\n",
       "    Message('note_on', channel=0, note=55, velocity=52, time=325),\n",
       "    Message('note_on', channel=0, note=52, velocity=47, time=1),\n",
       "    Message('note_on', channel=0, note=48, velocity=46, time=0),\n",
       "    Message('note_on', channel=0, note=52, velocity=0, time=112),\n",
       "    Message('note_on', channel=0, note=48, velocity=0, time=14),\n",
       "    Message('note_on', channel=0, note=55, velocity=0, time=23),\n",
       "    Message('note_on', channel=0, note=48, velocity=59, time=213),\n",
       "    Message('note_on', channel=0, note=55, velocity=63, time=2),\n",
       "    Message('note_on', channel=0, note=52, velocity=55, time=7),\n",
       "    Message('note_on', channel=0, note=52, velocity=0, time=121),\n",
       "    Message('note_on', channel=0, note=48, velocity=0, time=9),\n",
       "    Message('note_on', channel=0, note=55, velocity=0, time=10),\n",
       "    Message('note_on', channel=0, note=55, velocity=72, time=212),\n",
       "    Message('note_on', channel=0, note=52, velocity=60, time=3),\n",
       "    Message('note_on', channel=0, note=48, velocity=64, time=2),\n",
       "    Message('note_on', channel=0, note=52, velocity=0, time=61),\n",
       "    Message('note_on', channel=0, note=48, velocity=0, time=15),\n",
       "    Message('note_on', channel=0, note=55, velocity=0, time=24),\n",
       "    Message('note_on', channel=0, note=72, velocity=0, time=121),\n",
       "    Message('note_on', channel=0, note=55, velocity=77, time=118),\n",
       "    Message('note_on', channel=0, note=53, velocity=77, time=0),\n",
       "    Message('note_on', channel=0, note=47, velocity=75, time=0),\n",
       "    Message('note_on', channel=0, note=60, velocity=0, time=28),\n",
       "    Message('control_change', channel=0, control=64, value=127, time=31),\n",
       "    Message('note_on', channel=0, note=74, velocity=87, time=110),\n",
       "    Message('note_on', channel=0, note=72, velocity=88, time=192),\n",
       "    Message('control_change', channel=0, control=64, value=0, time=8),\n",
       "    Message('control_change', channel=0, control=64, value=127, time=4),\n",
       "    Message('note_on', channel=0, note=74, velocity=0, time=53),\n",
       "    Message('control_change', channel=0, control=64, value=0, time=1),\n",
       "    Message('note_on', channel=0, note=71, velocity=87, time=85),\n",
       "    Message('note_on', channel=0, note=72, velocity=0, time=53),\n",
       "    Message('note_on', channel=0, note=53, velocity=0, time=116),\n",
       "    Message('note_on', channel=0, note=53, velocity=52, time=9),\n",
       "    Message('note_on', channel=0, note=81, velocity=78, time=1),\n",
       "    Message('note_on', channel=0, note=69, velocity=81, time=0),\n",
       "    Message('note_on', channel=0, note=71, velocity=0, time=36),\n",
       "    Message('note_on', channel=0, note=79, velocity=76, time=133),\n",
       "    Message('note_on', channel=0, note=67, velocity=81, time=1),\n",
       "    Message('note_on', channel=0, note=81, velocity=0, time=12),\n",
       "    Message('note_on', channel=0, note=69, velocity=0, time=27),\n",
       "    Message('note_on', channel=0, note=79, velocity=0, time=65),\n",
       "    Message('note_on', channel=0, note=65, velocity=77, time=73),\n",
       "    Message('note_on', channel=0, note=77, velocity=72, time=1),\n",
       "    Message('note_on', channel=0, note=67, velocity=0, time=23),\n",
       "    Message('note_on', channel=0, note=55, velocity=0, time=6),\n",
       "    Message('note_on', channel=0, note=77, velocity=0, time=127),\n",
       "    Message('note_on', channel=0, note=64, velocity=79, time=8),\n",
       "    Message('note_on', channel=0, note=76, velocity=66, time=2),\n",
       "    Message('note_on', channel=0, note=65, velocity=0, time=70),\n",
       "    Message('note_on', channel=0, note=62, velocity=74, time=117),\n",
       "    Message('note_on', channel=0, note=74, velocity=65, time=1),\n",
       "    Message('note_on', channel=0, note=74, velocity=0, time=10),\n",
       "    Message('note_on', channel=0, note=64, velocity=0, time=51),\n",
       "    Message('note_on', channel=0, note=76, velocity=0, time=10),\n",
       "    Message('note_on', channel=0, note=53, velocity=0, time=47),\n",
       "    Message('note_on', channel=0, note=47, velocity=0, time=3),\n",
       "    Message('note_on', channel=0, note=47, velocity=56, time=243),\n",
       "    Message('note_on', channel=0, note=53, velocity=55, time=2),\n",
       "    Message('note_on', channel=0, note=55, velocity=55, time=1),\n",
       "    Message('note_on', channel=0, note=47, velocity=0, time=123),\n",
       "    Message('note_on', channel=0, note=53, velocity=0, time=1),\n",
       "    Message('note_on', channel=0, note=55, velocity=0, time=35),\n",
       "    Message('note_on', channel=0, note=55, velocity=68, time=191),\n",
       "    Message('note_on', channel=0, note=47, velocity=64, time=2),\n",
       "    Message('note_on', channel=0, note=50, velocity=52, time=5),\n",
       "    Message('note_on', channel=0, note=53, velocity=65, time=1),\n",
       "    Message('note_on', channel=0, note=47, velocity=0, time=124),\n",
       "    Message('note_on', channel=0, note=53, velocity=0, time=1),\n",
       "    Message('note_on', channel=0, note=50, velocity=0, time=20),\n",
       "    Message('note_on', channel=0, note=55, velocity=0, time=9),\n",
       "    Message('note_on', channel=0, note=53, velocity=63, time=187),\n",
       "    Message('note_on', channel=0, note=47, velocity=62, time=0),\n",
       "    Message('note_on', channel=0, note=55, velocity=68, time=1),\n",
       "    Message('note_on', channel=0, note=47, velocity=0, time=64),\n",
       "    Message('note_on', channel=0, note=53, velocity=0, time=40),\n",
       "    Message('note_on', channel=0, note=62, velocity=0, time=1),\n",
       "    Message('note_on', channel=0, note=55, velocity=0, time=8),\n",
       "    Message('note_on', channel=0, note=48, velocity=71, time=224),\n",
       "    Message('note_on', channel=0, note=55, velocity=69, time=1),\n",
       "    Message('note_on', channel=0, note=52, velocity=70, time=2),\n",
       "    Message('control_change', channel=0, control=64, value=127, time=131),\n",
       "    Message('note_on', channel=0, note=76, velocity=81, time=47),\n",
       "    Message('note_on', channel=0, note=74, velocity=90, time=170),\n",
       "    Message('control_change', channel=0, control=64, value=0, time=6),\n",
       "    Message('note_on', channel=0, note=76, velocity=0, time=20),\n",
       "    Message('note_on', channel=0, note=72, velocity=94, time=126),\n",
       "    Message('note_on', channel=0, note=74, velocity=0, time=65),\n",
       "    Message('note_on', channel=0, note=48, velocity=0, time=88),\n",
       "    Message('note_on', channel=0, note=52, velocity=0, time=0),\n",
       "    Message('note_on', channel=0, note=48, velocity=48, time=11),\n",
       "    Message('note_on', channel=0, note=52, velocity=49, time=1),\n",
       "    Message('note_on', channel=0, note=71, velocity=81, time=0),\n",
       "    Message('note_on', channel=0, note=72, velocity=0, time=86),\n",
       "    Message('note_on', channel=0, note=81, velocity=73, time=80),\n",
       "    Message('note_on', channel=0, note=69, velocity=76, time=2),\n",
       "    Message('note_on', channel=0, note=52, velocity=0, time=12),\n",
       "    Message('note_on', channel=0, note=71, velocity=0, time=8),\n",
       "    Message('note_on', channel=0, note=52, velocity=44, time=2),\n",
       "    Message('note_on', channel=0, note=52, velocity=0, time=128),\n",
       "    Message('note_on', channel=0, note=52, velocity=53, time=10),\n",
       "    Message('note_on', channel=0, note=79, velocity=75, time=0),\n",
       "    Message('note_on', channel=0, note=67, velocity=81, time=1),\n",
       "    Message('note_on', channel=0, note=79, velocity=0, time=5),\n",
       "    Message('note_on', channel=0, note=81, velocity=0, time=7),\n",
       "    Message('note_on', channel=0, note=69, velocity=0, time=13),\n",
       "    Message('note_on', channel=0, note=65, velocity=75, time=133),\n",
       "    Message('note_on', channel=0, note=77, velocity=67, time=0),\n",
       "    Message('note_on', channel=0, note=67, velocity=0, time=58),\n",
       "    Message('note_on', channel=0, note=77, velocity=0, time=11),\n",
       "    Message('note_on', channel=0, note=64, velocity=81, time=121),\n",
       "    Message('note_on', channel=0, note=76, velocity=67, time=2),\n",
       "    Message('note_on', channel=0, note=65, velocity=0, time=61),\n",
       "    Message('note_on', channel=0, note=52, velocity=0, time=76),\n",
       "    Message('note_on', channel=0, note=48, velocity=0, time=4),\n",
       "    Message('note_on', channel=0, note=55, velocity=0, time=28),\n",
       "    Message('note_on', channel=0, note=48, velocity=64, time=196),\n",
       "    Message('note_on', channel=0, note=55, velocity=65, time=3),\n",
       "    Message('note_on', channel=0, note=52, velocity=59, time=3),\n",
       "    Message('note_on', channel=0, note=52, velocity=0, time=107),\n",
       "    Message('note_on', channel=0, note=48, velocity=0, time=10),\n",
       "    Message('note_on', channel=0, note=55, velocity=0, time=30),\n",
       "    Message('note_on', channel=0, note=48, velocity=60, time=208),\n",
       "    Message('note_on', channel=0, note=55, velocity=67, time=0),\n",
       "    Message('note_on', channel=0, note=52, velocity=57, time=5),\n",
       "    Message('note_on', channel=0, note=52, velocity=0, time=97),\n",
       "    Message('note_on', channel=0, note=48, velocity=0, time=7),\n",
       "    Message('note_on', channel=0, note=55, velocity=0, time=20),\n",
       "    Message('note_on', channel=0, note=55, velocity=62, time=200),\n",
       "    Message('note_on', channel=0, note=48, velocity=56, time=1),\n",
       "    Message('note_on', channel=0, note=52, velocity=53, time=15),\n",
       "    Message('note_on', channel=0, note=76, velocity=0, time=21),\n",
       "    Message('note_on', channel=0, note=48, velocity=0, time=63),\n",
       "    Message('note_on', channel=0, note=52, velocity=0, time=13),\n",
       "    Message('note_on', channel=0, note=55, velocity=0, time=9),\n",
       "    Message('note_on', channel=0, note=64, velocity=0, time=21),\n",
       "    Message('note_on', channel=0, note=57, velocity=74, time=175),\n",
       "    Message('note_on', channel=0, note=53, velocity=69, time=1),\n",
       "    Message('note_on', channel=0, note=60, velocity=64, time=3),\n",
       "    Message('note_on', channel=0, note=48, velocity=64, time=3),\n",
       "    Message('control_change', channel=0, control=64, value=127, time=149),\n",
       "    Message('note_on', channel=0, note=77, velocity=86, time=17),\n",
       "    Message('note_on', channel=0, note=76, velocity=83, time=165),\n",
       "    Message('control_change', channel=0, control=64, value=0, time=19),\n",
       "    Message('note_on', channel=0, note=77, velocity=0, time=18),\n",
       "    Message('note_on', channel=0, note=74, velocity=86, time=115),\n",
       "    Message('note_on', channel=0, note=72, velocity=88, time=163),\n",
       "    Message('note_on', channel=0, note=74, velocity=0, time=76),\n",
       "    Message('note_on', channel=0, note=71, velocity=80, time=81),\n",
       "    Message('note_on', channel=0, note=76, velocity=0, time=14),\n",
       "    Message('note_on', channel=0, note=72, velocity=0, time=23),\n",
       "    Message('note_on', channel=0, note=60, velocity=0, time=54),\n",
       "    Message('note_on', channel=0, note=81, velocity=75, time=81),\n",
       "    Message('note_on', channel=0, note=69, velocity=75, time=0),\n",
       "    Message('note_on', channel=0, note=71, velocity=0, time=38),\n",
       "    Message('note_on', channel=0, note=79, velocity=72, time=122),\n",
       "    Message('note_on', channel=0, note=67, velocity=81, time=0),\n",
       "    Message('note_on', channel=0, note=69, velocity=0, time=47),\n",
       "    Message('note_on', channel=0, note=81, velocity=0, time=111),\n",
       "    Message('note_on', channel=0, note=65, velocity=77, time=28),\n",
       "    Message('note_on', channel=0, note=77, velocity=68, time=1),\n",
       "    Message('note_on', channel=0, note=79, velocity=0, time=17),\n",
       "    Message('note_on', channel=0, note=67, velocity=0, time=20),\n",
       "    Message('note_on', channel=0, note=53, velocity=0, time=65),\n",
       "    Message('note_on', channel=0, note=48, velocity=0, time=12),\n",
       "    Message('note_on', channel=0, note=57, velocity=0, time=7),\n",
       "    Message('note_on', channel=0, note=77, velocity=0, time=219),\n",
       "    Message('note_on', channel=0, note=53, velocity=54, time=3),\n",
       "    Message('note_on', channel=0, note=57, velocity=60, time=2),\n",
       "    Message('note_on', channel=0, note=48, velocity=60, time=4),\n",
       "    Message('note_on', channel=0, note=53, velocity=0, time=144),\n",
       "    Message('note_on', channel=0, note=48, velocity=0, time=3),\n",
       "    Message('note_on', channel=0, note=57, velocity=0, time=8),\n",
       "    Message('note_on', channel=0, note=48, velocity=63, time=189),\n",
       "    Message('note_on', channel=0, note=53, velocity=62, time=1),\n",
       "    Message('note_on', channel=0, note=57, velocity=64, time=2),\n",
       "    Message('note_on', channel=0, note=48, velocity=0, time=118),\n",
       "    Message('note_on', channel=0, note=53, velocity=0, time=12),\n",
       "    Message('note_on', channel=0, note=57, velocity=0, time=9),\n",
       "    Message('note_on', channel=0, note=48, velocity=62, time=199),\n",
       "    Message('note_on', channel=0, note=57, velocity=63, time=0),\n",
       "    Message('note_on', channel=0, note=53, velocity=63, time=0),\n",
       "    Message('note_on', channel=0, note=48, velocity=0, time=76),\n",
       "    Message('note_on', channel=0, note=57, velocity=0, time=25),\n",
       "    Message('note_on', channel=0, note=53, velocity=0, time=7),\n",
       "    Message('note_on', channel=0, note=65, velocity=0, time=2),\n",
       "    Message('note_on', channel=0, note=48, velocity=66, time=210),\n",
       "    Message('note_on', channel=0, note=55, velocity=70, time=1),\n",
       "    Message('note_on', channel=0, note=52, velocity=64, time=1),\n",
       "    Message('control_change', channel=0, control=64, value=127, time=105),\n",
       "    Message('note_on', channel=0, note=79, velocity=84, time=77),\n",
       "    Message('control_change', channel=0, control=64, value=0, time=114),\n",
       "    Message('control_change', channel=0, control=64, value=127, time=24),\n",
       "    Message('note_on', channel=0, note=77, velocity=89, time=31),\n",
       "    Message('note_on', channel=0, note=79, velocity=0, time=35),\n",
       "    Message('control_change', channel=0, control=64, value=0, time=11),\n",
       "    Message('note_on', channel=0, note=76, velocity=88, time=98),\n",
       "    Message('note_on', channel=0, note=77, velocity=0, time=44),\n",
       "    Message('note_on', channel=0, note=74, velocity=87, time=120),\n",
       "    Message('note_on', channel=0, note=76, velocity=0, time=129),\n",
       "    Message('note_on', channel=0, note=72, velocity=84, time=32),\n",
       "    Message('note_on', channel=0, note=74, velocity=0, time=49),\n",
       "    Message('note_on', channel=0, note=55, velocity=0, time=96),\n",
       "    Message('note_on', channel=0, note=55, velocity=52, time=10),\n",
       "    Message('note_on', channel=0, note=71, velocity=81, time=0),\n",
       "    Message('note_on', channel=0, note=72, velocity=0, time=36),\n",
       "    Message('note_on', channel=0, note=81, velocity=75, time=121),\n",
       "    Message('note_on', channel=0, note=69, velocity=81, time=3),\n",
       "    Message('note_on', channel=0, note=81, velocity=0, time=7),\n",
       "    Message('note_on', channel=0, note=71, velocity=0, time=30),\n",
       "    Message('note_on', channel=0, note=79, velocity=74, time=138),\n",
       "    Message('note_on', channel=0, note=67, velocity=82, time=1),\n",
       "    Message('note_on', channel=0, note=69, velocity=0, time=40),\n",
       "    Message('note_on', channel=0, note=48, velocity=0, time=80),\n",
       "    Message('note_on', channel=0, note=52, velocity=0, time=10),\n",
       "    Message('note_on', channel=0, note=55, velocity=0, time=39),\n",
       "    Message('note_on', channel=0, note=79, velocity=0, time=107),\n",
       "    Message('note_on', channel=0, note=55, velocity=58, time=81),\n",
       "    Message('note_on', channel=0, note=48, velocity=56, time=5),\n",
       "    Message('note_on', channel=0, note=52, velocity=56, time=0),\n",
       "    Message('note_on', channel=0, note=52, velocity=0, time=139),\n",
       "    Message('note_on', channel=0, note=48, velocity=0, time=2),\n",
       "    Message('note_on', channel=0, note=55, velocity=0, time=7),\n",
       "    Message('note_on', channel=0, note=48, velocity=63, time=195),\n",
       "    Message('note_on', channel=0, note=55, velocity=70, time=3),\n",
       "    Message('note_on', channel=0, note=52, velocity=64, time=2),\n",
       "    Message('note_on', channel=0, note=52, velocity=0, time=128),\n",
       "    Message('note_on', channel=0, note=48, velocity=0, time=9),\n",
       "    Message('note_on', channel=0, note=55, velocity=0, time=8),\n",
       "    Message('note_on', channel=0, note=55, velocity=69, time=191),\n",
       "    Message('note_on', channel=0, note=48, velocity=63, time=1),\n",
       "    Message('note_on', channel=0, note=52, velocity=64, time=1),\n",
       "    Message('note_on', channel=0, note=48, velocity=0, time=109),\n",
       "    Message('note_on', channel=0, note=52, velocity=0, time=5),\n",
       "    Message('note_on', channel=0, note=55, velocity=0, time=2),\n",
       "    Message('note_on', channel=0, note=67, velocity=0, time=26),\n",
       "    Message('note_on', channel=0, note=53, velocity=65, time=196),\n",
       "    Message('note_on', channel=0, note=57, velocity=69, time=1),\n",
       "    Message('note_on', channel=0, note=48, velocity=66, time=2),\n",
       "    Message('note_on', channel=0, note=81, velocity=86, time=176),\n",
       "    Message('control_change', channel=0, control=64, value=127, time=55),\n",
       "    Message('note_on', channel=0, note=79, velocity=86, time=96),\n",
       "    Message('control_change', channel=0, control=64, value=0, time=35),\n",
       "    Message('note_on', channel=0, note=81, velocity=0, time=23),\n",
       "    Message('note_on', channel=0, note=77, velocity=92, time=87),\n",
       "    Message('note_on', channel=0, note=79, velocity=0, time=112),\n",
       "    Message('note_on', channel=0, note=76, velocity=86, time=54),\n",
       "    Message('note_on', channel=0, note=77, velocity=0, time=74),\n",
       "    Message('note_on', channel=0, note=74, velocity=84, time=84),\n",
       "    Message('note_on', channel=0, note=76, velocity=0, time=52),\n",
       "    Message('note_on', channel=0, note=72, velocity=85, time=101),\n",
       "    Message('note_on', channel=0, note=74, velocity=0, time=36),\n",
       "    Message('note_on', channel=0, note=71, velocity=80, time=122),\n",
       "    Message('note_on', channel=0, note=72, velocity=0, time=86),\n",
       "    Message('note_on', channel=0, note=71, velocity=0, time=60),\n",
       "    Message('note_on', channel=0, note=81, velocity=78, time=39),\n",
       "    Message('note_on', channel=0, note=69, velocity=79, time=1),\n",
       "    Message('note_on', channel=0, note=57, velocity=0, time=71),\n",
       "    Message('note_on', channel=0, note=53, velocity=0, time=6),\n",
       "    Message('note_on', channel=0, note=48, velocity=0, time=1),\n",
       "    Message('note_on', channel=0, note=53, velocity=58, time=255),\n",
       "    Message('note_on', channel=0, note=48, velocity=59, time=6),\n",
       "    Message('note_on', channel=0, note=57, velocity=59, time=0),\n",
       "    Message('note_on', channel=0, note=53, velocity=0, time=140),\n",
       "    Message('note_on', channel=0, note=48, velocity=0, time=0),\n",
       "    Message('note_on', channel=0, note=57, velocity=0, time=2),\n",
       "    Message('note_on', channel=0, note=48, velocity=61, time=197),\n",
       "    Message('note_on', channel=0, note=57, velocity=66, time=0),\n",
       "    Message('note_on', channel=0, note=53, velocity=59, time=0),\n",
       "    Message('note_on', channel=0, note=81, velocity=0, time=57),\n",
       "    Message('note_on', channel=0, note=53, velocity=0, time=74),\n",
       "    Message('note_on', channel=0, note=48, velocity=0, time=6),\n",
       "    Message('note_on', channel=0, note=57, velocity=0, time=23),\n",
       "    Message('note_on', channel=0, note=57, velocity=70, time=164),\n",
       "    Message('note_on', channel=0, note=48, velocity=62, time=5),\n",
       "    Message('note_on', channel=0, note=53, velocity=60, time=2),\n",
       "    Message('note_on', channel=0, note=48, velocity=0, time=76),\n",
       "    Message('note_on', channel=0, note=69, velocity=0, time=5),\n",
       "    Message('note_on', channel=0, note=57, velocity=0, time=18),\n",
       "    Message('note_on', channel=0, note=53, velocity=0, time=7),\n",
       "    Message('note_on', channel=0, note=55, velocity=81, time=215),\n",
       "    Message('note_on', channel=0, note=53, velocity=76, time=4),\n",
       "    Message('note_on', channel=0, note=47, velocity=71, time=1),\n",
       "    Message('control_change', channel=0, control=64, value=127, time=53),\n",
       "    Message('note_on', channel=0, note=83, velocity=77, time=109),\n",
       "    Message('note_on', channel=0, note=81, velocity=82, time=164),\n",
       "    Message('control_change', channel=0, control=64, value=0, time=43),\n",
       "    Message('note_on', channel=0, note=79, velocity=87, time=105),\n",
       "    Message('note_on', channel=0, note=83, velocity=0, time=71),\n",
       "    Message('note_on', channel=0, note=81, velocity=0, time=3),\n",
       "    Message('note_on', channel=0, note=77, velocity=86, time=93),\n",
       "    Message('note_on', channel=0, note=79, velocity=0, time=49),\n",
       "    Message('note_on', channel=0, note=76, velocity=81, time=98),\n",
       "    Message('note_on', channel=0, note=77, velocity=0, time=46),\n",
       "    Message('note_on', channel=0, note=74, velocity=83, time=113),\n",
       "    Message('note_on', channel=0, note=76, velocity=0, time=46),\n",
       "    Message('note_on', channel=0, note=72, velocity=83, time=115),\n",
       "    Message('note_on', channel=0, note=74, velocity=0, time=61),\n",
       "    Message('note_on', channel=0, note=71, velocity=82, time=113),\n",
       "    Message('note_on', channel=0, note=53, velocity=0, time=92),\n",
       "    Message('note_on', channel=0, note=72, velocity=0, time=15),\n",
       "    Message('note_on', channel=0, note=47, velocity=0, time=8),\n",
       "    Message('note_on', channel=0, note=55, velocity=0, time=11),\n",
       "    Message('note_on', channel=0, note=55, velocity=61, time=215),\n",
       "    Message('note_on', channel=0, note=53, velocity=62, time=8),\n",
       "    Message('note_on', channel=0, note=47, velocity=56, time=0),\n",
       "    Message('note_on', channel=0, note=53, velocity=0, time=130),\n",
       "    Message('note_on', channel=0, note=47, velocity=0, time=1),\n",
       "    Message('note_on', channel=0, note=55, velocity=0, time=17),\n",
       "    Message('note_on', channel=0, note=55, velocity=67, time=175),\n",
       "    Message('note_on', channel=0, note=47, velocity=57, time=1),\n",
       "    Message('note_on', channel=0, note=53, velocity=66, time=5),\n",
       "    Message('note_on', channel=0, note=53, velocity=0, time=110),\n",
       "    Message('note_on', channel=0, note=47, velocity=0, time=6),\n",
       "    Message('note_on', channel=0, note=55, velocity=0, time=25),\n",
       "    Message('note_on', channel=0, note=55, velocity=67, time=196),\n",
       "    Message('note_on', channel=0, note=47, velocity=60, time=2),\n",
       "    Message('note_on', channel=0, note=53, velocity=65, time=0),\n",
       "    Message('note_on', channel=0, note=47, velocity=0, time=54),\n",
       "    Message('note_on', channel=0, note=53, velocity=0, time=47),\n",
       "    Message('note_on', channel=0, note=55, velocity=0, time=21),\n",
       "    Message('note_on', channel=0, note=71, velocity=0, time=44),\n",
       "    Message('note_on', channel=0, note=48, velocity=70, time=160),\n",
       "    Message('note_on', channel=0, note=55, velocity=70, time=0),\n",
       "    Message('note_on', channel=0, note=52, velocity=70, time=3),\n",
       "    Message('control_change', channel=0, control=64, value=127, time=59),\n",
       "    Message('note_on', channel=0, note=84, velocity=81, time=108),\n",
       "    Message('note_on', channel=0, note=83, velocity=84, time=155),\n",
       "    Message('note_on', channel=0, note=84, velocity=0, time=26),\n",
       "    Message('note_on', channel=0, note=81, velocity=88, time=121),\n",
       "    Message('note_on', channel=0, note=83, velocity=0, time=48),\n",
       "    Message('control_change', channel=0, control=64, value=0, time=26),\n",
       "    Message('note_on', channel=0, note=79, velocity=82, time=78),\n",
       "    Message('note_on', channel=0, note=81, velocity=0, time=82),\n",
       "    Message('note_on', channel=0, note=77, velocity=86, time=72),\n",
       "    Message('note_on', channel=0, note=79, velocity=0, time=22),\n",
       "    Message('note_on', channel=0, note=76, velocity=81, time=145),\n",
       "    Message('note_on', channel=0, note=77, velocity=0, time=31),\n",
       "    Message('note_on', channel=0, note=74, velocity=82, time=130),\n",
       "    Message('note_on', channel=0, note=76, velocity=0, time=85),\n",
       "    Message('note_on', channel=0, note=72, velocity=72, time=105),\n",
       "    Message('note_on', channel=0, note=74, velocity=0, time=41),\n",
       "    Message('control_change', channel=0, control=64, value=127, time=1129),\n",
       "    Message('note_on', channel=0, note=72, velocity=0, time=304),\n",
       "    Message('note_on', channel=0, note=48, velocity=0, time=3),\n",
       "    Message('note_on', channel=0, note=52, velocity=0, time=4),\n",
       "    Message('control_change', channel=0, control=64, value=0, time=15),\n",
       "    Message('note_on', channel=0, note=55, velocity=0, time=27),\n",
       "    Message('note_on', channel=0, note=64, velocity=53, time=4572),\n",
       "    Message('note_on', channel=0, note=67, velocity=70, time=299),\n",
       "    Message('note_on', channel=0, note=64, velocity=0, time=31),\n",
       "    Message('note_on', channel=0, note=69, velocity=78, time=231),\n",
       "    Message('note_on', channel=0, note=67, velocity=0, time=26),\n",
       "    Message('note_on', channel=0, note=72, velocity=74, time=246),\n",
       "    Message('note_on', channel=0, note=69, velocity=0, time=111),\n",
       "    Message('note_on', channel=0, note=69, velocity=61, time=134),\n",
       "    Message('note_on', channel=0, note=72, velocity=0, time=77),\n",
       "    Message('note_on', channel=0, note=67, velocity=74, time=170),\n",
       "    Message('note_on', channel=0, note=69, velocity=0, time=74),\n",
       "    Message('note_on', channel=0, note=64, velocity=66, time=199),\n",
       "    Message('note_on', channel=0, note=67, velocity=0, time=88),\n",
       "    Message('note_on', channel=0, note=60, velocity=51, time=440),\n",
       "    Message('note_on', channel=0, note=57, velocity=48, time=25),\n",
       "    Message('control_change', channel=0, control=64, value=127, time=143),\n",
       "    Message('note_on', channel=0, note=55, velocity=46, time=371),\n",
       "    Message('note_on', channel=0, note=64, velocity=0, time=118),\n",
       "    Message('control_change', channel=0, control=64, value=0, time=6),\n",
       "    Message('note_on', channel=0, note=57, velocity=0, time=11),\n",
       "    Message('control_change', channel=0, control=64, value=127, time=109),\n",
       "    Message('note_on', channel=0, note=64, velocity=65, time=252),\n",
       "    Message('control_change', channel=0, control=64, value=0, time=55),\n",
       "    Message('note_on', channel=0, note=55, velocity=0, time=18),\n",
       "    Message('note_on', channel=0, note=60, velocity=0, time=2),\n",
       "    Message('control_change', channel=0, control=64, value=127, time=141),\n",
       "    Message('note_on', channel=0, note=60, velocity=52, time=295),\n",
       "    Message('control_change', channel=0, control=64, value=0, time=35),\n",
       "    Message('note_on', channel=0, note=57, velocity=39, time=13),\n",
       "    Message('control_change', channel=0, control=64, value=127, time=80),\n",
       "    Message('note_on', channel=0, note=55, velocity=49, time=379),\n",
       "    Message('control_change', channel=0, control=64, value=0, time=83),\n",
       "    Message('note_on', channel=0, note=57, velocity=0, time=3),\n",
       "    Message('control_change', channel=0, control=64, value=127, time=149),\n",
       "    Message('note_on', channel=0, note=79, velocity=69, time=255),\n",
       "    Message('note_on', channel=0, note=67, velocity=77, time=0),\n",
       "    Message('note_on', channel=0, note=64, velocity=0, time=49),\n",
       "    Message('note_on', channel=0, note=60, velocity=0, time=8),\n",
       "    Message('control_change', channel=0, control=64, value=0, time=12),\n",
       "    Message('note_on', channel=0, note=55, velocity=0, time=8),\n",
       "    Message('note_on', channel=0, note=79, velocity=0, time=14),\n",
       "    Message('control_change', channel=0, control=64, value=127, time=46),\n",
       "    Message('note_on', channel=0, note=60, velocity=55, time=324),\n",
       "    Message('note_on', channel=0, note=57, velocity=49, time=23),\n",
       "    Message('control_change', channel=0, control=64, value=0, time=49),\n",
       "    Message('control_change', channel=0, control=64, value=127, time=111),\n",
       "    Message('note_on', channel=0, note=55, velocity=50, time=326),\n",
       "    Message('note_on', channel=0, note=57, velocity=0, time=140),\n",
       "    Message('control_change', channel=0, control=64, value=0, time=4),\n",
       "    Message('control_change', channel=0, control=64, value=127, time=159),\n",
       "    Message('note_on', channel=0, note=64, velocity=62, time=141),\n",
       "    Message('control_change', channel=0, control=64, value=0, time=28),\n",
       "    Message('note_on', channel=0, note=67, velocity=0, time=97),\n",
       "    Message('note_on', channel=0, note=60, velocity=0, time=1),\n",
       "    Message('note_on', channel=0, note=55, velocity=0, time=5),\n",
       "    Message('note_on', channel=0, note=67, velocity=79, time=107),\n",
       "    Message('note_on', channel=0, note=64, velocity=0, time=141),\n",
       "    Message('note_on', channel=0, note=81, velocity=80, time=89),\n",
       "    Message('note_on', channel=0, note=69, velocity=85, time=1),\n",
       "    Message('note_on', channel=0, note=67, velocity=0, time=32),\n",
       "    Message('note_on', channel=0, note=72, velocity=79, time=209),\n",
       "    Message('note_on', channel=0, note=81, velocity=0, time=109),\n",
       "    Message('note_on', channel=0, note=69, velocity=0, time=0),\n",
       "    Message('note_on', channel=0, note=69, velocity=72, time=100),\n",
       "    Message('note_on', channel=0, note=72, velocity=0, time=104),\n",
       "    Message('note_on', channel=0, note=67, velocity=79, time=140),\n",
       "    Message('note_on', channel=0, note=69, velocity=0, time=69),\n",
       "    Message('note_on', channel=0, note=64, velocity=72, time=194),\n",
       "    Message('note_on', channel=0, note=67, velocity=0, time=102),\n",
       "    Message('note_on', channel=0, note=60, velocity=60, time=379),\n",
       "    Message('note_on', channel=0, note=57, velocity=54, time=21),\n",
       "    Message('control_change', channel=0, control=64, value=127, time=159),\n",
       "    Message('note_on', channel=0, note=55, velocity=51, time=314),\n",
       "    Message('control_change', channel=0, control=64, value=0, time=46),\n",
       "    Message('note_on', channel=0, note=57, velocity=0, time=74),\n",
       "    Message('note_on', channel=0, note=64, velocity=0, time=85),\n",
       "    Message('note_on', channel=0, note=64, velocity=64, time=270),\n",
       "    Message('note_on', channel=0, note=55, velocity=0, time=73),\n",
       "    Message('note_on', channel=0, note=60, velocity=0, time=3),\n",
       "    Message('note_on', channel=0, note=60, velocity=46, time=410),\n",
       "    Message('note_on', channel=0, note=57, velocity=46, time=19),\n",
       "    Message('control_change', channel=0, control=64, value=127, time=195),\n",
       "    Message('control_change', channel=0, control=64, value=0, time=252),\n",
       "    Message('note_on', channel=0, note=55, velocity=55, time=22),\n",
       "    Message('control_change', channel=0, control=64, value=127, time=87),\n",
       "    Message('control_change', channel=0, control=64, value=0, time=54),\n",
       "    Message('note_on', channel=0, note=57, velocity=0, time=4),\n",
       "    Message('note_on', channel=0, note=65, velocity=75, time=319),\n",
       "    Message('note_on', channel=0, note=77, velocity=66, time=3),\n",
       "    Message('note_on', channel=0, note=55, velocity=0, time=47),\n",
       "    Message('note_on', channel=0, note=60, velocity=0, time=1),\n",
       "    Message('note_on', channel=0, note=64, velocity=0, time=123),\n",
       "    Message('note_on', channel=0, note=59, velocity=50, time=305),\n",
       "    Message('note_on', channel=0, note=57, velocity=47, time=9),\n",
       "    Message('note_on', channel=0, note=77, velocity=0, time=103),\n",
       "    Message('control_change', channel=0, control=64, value=127, time=292),\n",
       "    Message('note_on', channel=0, note=55, velocity=56, time=103),\n",
       "    Message('control_change', channel=0, control=64, value=0, time=127),\n",
       "    Message('note_on', channel=0, note=57, velocity=0, time=64),\n",
       "    Message('note_on', channel=0, note=65, velocity=0, time=48),\n",
       "    Message('note_on', channel=0, note=74, velocity=75, time=215),\n",
       "    Message('note_on', channel=0, note=71, velocity=85, time=202),\n",
       "    Message('note_on', channel=0, note=59, velocity=0, time=32),\n",
       "    Message('note_on', channel=0, note=55, velocity=0, time=15),\n",
       "    Message('note_on', channel=0, note=74, velocity=0, time=36),\n",
       "    Message('note_on', channel=0, note=81, velocity=77, time=133),\n",
       "    Message('note_on', channel=0, note=69, velocity=87, time=3),\n",
       "    Message('note_on', channel=0, note=71, velocity=0, time=94),\n",
       "    Message('note_on', channel=0, note=81, velocity=0, time=103),\n",
       "    Message('note_on', channel=0, note=67, velocity=81, time=30),\n",
       "    Message('note_on', channel=0, note=69, velocity=0, time=85),\n",
       "    Message('note_on', channel=0, note=65, velocity=72, time=156),\n",
       "    Message('note_on', channel=0, note=67, velocity=0, time=63),\n",
       "    Message('note_on', channel=0, note=67, velocity=70, time=148),\n",
       "    Message('note_on', channel=0, note=65, velocity=0, time=62),\n",
       "    Message('note_on', channel=0, note=65, velocity=71, time=206),\n",
       "    Message('note_on', channel=0, note=67, velocity=0, time=57),\n",
       "    Message('control_change', channel=0, control=64, value=127, time=376),\n",
       "    Message('note_on', channel=0, note=59, velocity=55, time=49),\n",
       "    Message('control_change', channel=0, control=64, value=0, time=12),\n",
       "    Message('note_on', channel=0, note=57, velocity=48, time=10),\n",
       "    Message('control_change', channel=0, control=64, value=127, time=113),\n",
       "    Message('control_change', channel=0, control=64, value=0, time=246),\n",
       "    Message('note_on', channel=0, note=55, velocity=52, time=104),\n",
       "    Message('note_on', channel=0, note=57, velocity=0, time=132),\n",
       "    Message('note_on', channel=0, note=65, velocity=0, time=71),\n",
       "    Message('note_on', channel=0, note=65, velocity=65, time=269),\n",
       "    Message('note_on', channel=0, note=59, velocity=0, time=57),\n",
       "    Message('note_on', channel=0, note=55, velocity=0, time=2),\n",
       "    Message('note_on', channel=0, note=59, velocity=56, time=413),\n",
       "    Message('note_on', channel=0, note=57, velocity=49, time=7),\n",
       "    Message('note_on', channel=0, note=55, velocity=59, time=488),\n",
       "    Message('note_on', channel=0, note=57, velocity=0, time=126),\n",
       "    Message('control_change', channel=0, control=64, value=127, time=74),\n",
       "    Message('note_on', channel=0, note=81, velocity=71, time=236),\n",
       "    Message('note_on', channel=0, note=69, velocity=78, time=1),\n",
       "    Message('control_change', channel=0, control=64, value=0, time=57),\n",
       "    Message('note_on', channel=0, note=55, velocity=0, time=33),\n",
       "    Message('note_on', channel=0, note=59, velocity=0, time=2),\n",
       "    Message('note_on', channel=0, note=65, velocity=0, time=44),\n",
       "    Message('note_on', channel=0, note=59, velocity=50, time=319),\n",
       "    Message('note_on', channel=0, note=57, velocity=37, time=36),\n",
       "    Message('control_change', channel=0, control=64, value=127, time=55),\n",
       "    Message('note_on', channel=0, note=81, velocity=0, time=62),\n",
       "    Message('note_on', channel=0, note=55, velocity=56, time=302),\n",
       "    Message('note_on', channel=0, note=74, velocity=76, time=432),\n",
       "    Message('note_on', channel=0, note=59, velocity=0, time=31),\n",
       "    Message('control_change', channel=0, control=64, value=0, time=2),\n",
       "    Message('note_on', channel=0, note=69, velocity=0, time=64),\n",
       "    Message('note_on', channel=0, note=57, velocity=0, time=6),\n",
       "    Message('note_on', channel=0, note=55, velocity=0, time=31),\n",
       "    Message('note_on', channel=0, note=71, velocity=74, time=96),\n",
       "    Message('note_on', channel=0, note=74, velocity=0, time=100),\n",
       "    Message('note_on', channel=0, note=69, velocity=82, time=99),\n",
       "    Message('note_on', channel=0, note=71, velocity=0, time=96),\n",
       "    Message('note_on', channel=0, note=67, velocity=77, time=128),\n",
       "    Message('note_on', channel=0, note=69, velocity=0, time=84),\n",
       "    Message('note_on', channel=0, note=65, velocity=65, time=155),\n",
       "    Message('note_on', channel=0, note=67, velocity=0, time=61),\n",
       "    Message('note_on', channel=0, note=67, velocity=69, time=143),\n",
       "    Message('note_on', channel=0, note=65, velocity=0, time=74),\n",
       "    Message('note_on', channel=0, note=65, velocity=69, time=189),\n",
       "    Message('note_on', channel=0, note=67, velocity=0, time=91),\n",
       "    Message('control_change', channel=0, control=64, value=127, time=358),\n",
       "    Message('note_on', channel=0, note=59, velocity=59, time=2),\n",
       "    Message('note_on', channel=0, note=57, velocity=49, time=19),\n",
       "    Message('control_change', channel=0, control=64, value=0, time=102),\n",
       "    Message('control_change', channel=0, control=64, value=127, time=92),\n",
       "    Message('control_change', channel=0, control=64, value=0, time=115),\n",
       "    Message('note_on', channel=0, note=55, velocity=52, time=153),\n",
       "    Message('note_on', channel=0, note=57, velocity=0, time=119),\n",
       "    Message('control_change', channel=0, control=64, value=127, time=74),\n",
       "    Message('note_on', channel=0, note=69, velocity=70, time=224),\n",
       "    Message('control_change', channel=0, control=64, value=0, time=19),\n",
       "    Message('note_on', channel=0, note=55, velocity=0, time=31),\n",
       "    Message('note_on', channel=0, note=59, velocity=0, time=11),\n",
       "    Message('note_on', channel=0, note=65, velocity=0, time=101),\n",
       "    Message('note_on', channel=0, note=59, velocity=50, time=300),\n",
       "    Message('note_on', channel=0, note=57, velocity=45, time=9),\n",
       "    Message('control_change', channel=0, control=64, value=127, time=395),\n",
       "    Message('note_on', channel=0, note=55, velocity=52, time=51),\n",
       "    Message('control_change', channel=0, control=64, value=0, time=19),\n",
       "    Message('control_change', channel=0, control=64, value=127, time=84),\n",
       "    Message('note_on', channel=0, note=57, velocity=0, time=56),\n",
       "    Message('note_on', channel=0, note=67, velocity=71, time=286),\n",
       "    Message('note_on', channel=0, note=59, velocity=0, time=17),\n",
       "    Message('note_on', channel=0, note=69, velocity=0, time=2),\n",
       "    Message('note_on', channel=0, note=55, velocity=0, time=4),\n",
       "    Message('control_change', channel=0, control=64, value=0, time=0),\n",
       "    Message('control_change', channel=0, control=64, value=127, time=180),\n",
       "    Message('note_on', channel=0, note=60, velocity=58, time=218),\n",
       "    Message('control_change', channel=0, control=64, value=0, time=33),\n",
       "    Message('note_on', channel=0, note=57, velocity=47, time=5),\n",
       "    Message('control_change', channel=0, control=64, value=127, time=36),\n",
       "    Message('note_on', channel=0, note=55, velocity=52, time=420),\n",
       "    Message('control_change', channel=0, control=64, value=0, time=10),\n",
       "    Message('note_on', channel=0, note=67, velocity=0, time=154),\n",
       "    Message('note_on', channel=0, note=67, velocity=34, time=5),\n",
       "    Message('note_on', channel=0, note=57, velocity=0, time=29),\n",
       "    Message('note_on', channel=0, note=67, velocity=0, time=242),\n",
       "    Message('note_on', channel=0, note=64, velocity=56, time=28),\n",
       "    Message('note_on', channel=0, note=60, velocity=0, time=29),\n",
       "    Message('note_on', channel=0, note=55, velocity=0, time=85),\n",
       "    Message('control_change', channel=0, control=64, value=127, time=81),\n",
       "    Message('note_on', channel=0, note=64, velocity=0, time=18),\n",
       "    Message('note_on', channel=0, note=79, velocity=70, time=10),\n",
       "    Message('note_on', channel=0, note=67, velocity=80, time=1),\n",
       "    Message('control_change', channel=0, control=64, value=0, time=4),\n",
       "    Message('note_on', channel=0, note=79, velocity=0, time=5),\n",
       "    Message('note_on', channel=0, note=81, velocity=75, time=207),\n",
       "    Message('note_on', channel=0, note=69, velocity=80, time=2),\n",
       "    Message('note_on', channel=0, note=67, velocity=0, time=139),\n",
       "    Message('note_on', channel=0, note=81, velocity=0, time=52),\n",
       "    Message('note_on', channel=0, note=72, velocity=81, time=34),\n",
       "    Message('note_on', channel=0, note=69, velocity=0, time=119),\n",
       "    Message('note_on', channel=0, note=81, velocity=66, time=89),\n",
       "    Message('note_on', channel=0, note=69, velocity=71, time=0),\n",
       "    Message('note_on', channel=0, note=72, velocity=0, time=123),\n",
       "    Message('note_on', channel=0, note=79, velocity=72, time=111),\n",
       "    Message('note_on', channel=0, note=67, velocity=80, time=1),\n",
       "    Message('note_on', channel=0, note=81, velocity=0, time=7),\n",
       "    Message('note_on', channel=0, note=69, velocity=0, time=63),\n",
       "    Message('note_on', channel=0, note=64, velocity=65, time=169),\n",
       "    Message('note_on', channel=0, note=76, velocity=56, time=5),\n",
       "    Message('note_on', channel=0, note=79, velocity=0, time=1),\n",
       "    Message('note_on', channel=0, note=67, velocity=0, time=89),\n",
       "    Message('note_on', channel=0, note=60, velocity=57, time=372),\n",
       "    Message('note_on', channel=0, note=57, velocity=57, time=17),\n",
       "    Message('control_change', channel=0, control=64, value=127, time=205),\n",
       "    Message('note_on', channel=0, note=55, velocity=50, time=282),\n",
       "    Message('note_on', channel=0, note=76, velocity=0, time=87),\n",
       "    Message('control_change', channel=0, control=64, value=0, time=15),\n",
       "    Message('note_on', channel=0, note=57, velocity=0, time=58),\n",
       "    Message('note_on', channel=0, note=64, velocity=0, time=257),\n",
       "    Message('note_on', channel=0, note=64, velocity=68, time=10),\n",
       "    Message('note_on', channel=0, note=60, velocity=0, time=60),\n",
       "    Message('note_on', channel=0, note=55, velocity=0, time=0),\n",
       "    Message('note_on', channel=0, note=60, velocity=51, time=402),\n",
       "    Message('note_on', channel=0, note=57, velocity=51, time=22),\n",
       "    Message('control_change', channel=0, control=64, value=127, time=144),\n",
       "    Message('control_change', channel=0, control=64, value=0, time=327),\n",
       "    Message('note_on', channel=0, note=55, velocity=46, time=1),\n",
       "    Message('control_change', channel=0, control=64, value=127, time=132),\n",
       "    Message('control_change', channel=0, control=64, value=0, time=16),\n",
       "    Message('note_on', channel=0, note=57, velocity=0, time=16),\n",
       "    Message('note_on', channel=0, note=60, velocity=0, time=78),\n",
       "    Message('note_on', channel=0, note=79, velocity=68, time=201),\n",
       "    Message('note_on', channel=0, note=67, velocity=77, time=0),\n",
       "    Message('note_on', channel=0, note=55, velocity=0, time=17),\n",
       "    Message('note_on', channel=0, note=64, velocity=0, time=102),\n",
       "    Message('control_change', channel=0, control=64, value=127, time=139),\n",
       "    Message('note_on', channel=0, note=60, velocity=56, time=162),\n",
       "    Message('note_on', channel=0, note=57, velocity=48, time=26),\n",
       "    Message('note_on', channel=0, note=79, velocity=0, time=326),\n",
       "    Message('control_change', channel=0, control=64, value=0, time=36),\n",
       "    Message('note_on', channel=0, note=55, velocity=51, time=68),\n",
       "    Message('note_on', channel=0, note=57, velocity=0, time=59),\n",
       "    Message('note_on', channel=0, note=67, velocity=0, time=144),\n",
       "    Message('note_on', channel=0, note=64, velocity=60, time=236),\n",
       "    Message('note_on', channel=0, note=55, velocity=0, time=103),\n",
       "    Message('note_on', channel=0, note=60, velocity=0, time=2),\n",
       "    Message('note_on', channel=0, note=67, velocity=77, time=103),\n",
       "    Message('note_on', channel=0, note=64, velocity=0, time=23),\n",
       "    Message('note_on', channel=0, note=81, velocity=77, time=194),\n",
       "    Message('note_on', channel=0, note=69, velocity=83, time=2),\n",
       "    Message('note_on', channel=0, note=67, velocity=0, time=117),\n",
       "    Message('note_on', channel=0, note=81, velocity=0, time=81),\n",
       "    Message('note_on', channel=0, note=72, velocity=80, time=11),\n",
       "    Message('note_on', channel=0, note=69, velocity=0, time=95),\n",
       "    Message('note_on', channel=0, note=69, velocity=66, time=119),\n",
       "    Message('note_on', channel=0, note=72, velocity=0, time=105),\n",
       "    Message('note_on', channel=0, note=67, velocity=70, time=127),\n",
       "    Message('note_on', channel=0, note=69, velocity=0, time=53),\n",
       "    Message('note_on', channel=0, note=64, velocity=63, time=184),\n",
       "    Message('note_on', channel=0, note=67, velocity=0, time=102),\n",
       "    Message('note_on', channel=0, note=61, velocity=47, time=393),\n",
       "    Message('note_on', channel=0, note=57, velocity=39, time=5),\n",
       "    Message('control_change', channel=0, control=64, value=127, time=196),\n",
       "    Message('note_on', channel=0, note=55, velocity=44, time=307),\n",
       "    Message('control_change', channel=0, control=64, value=0, time=122),\n",
       "    Message('note_on', channel=0, note=57, velocity=0, time=0),\n",
       "    Message('note_on', channel=0, note=64, velocity=0, time=3),\n",
       "    Message('control_change', channel=0, control=64, value=127, time=151),\n",
       "    Message('note_on', channel=0, note=64, velocity=71, time=150),\n",
       "    Message('control_change', channel=0, control=64, value=0, time=27),\n",
       "    Message('note_on', channel=0, note=55, velocity=0, time=49),\n",
       "    Message('note_on', channel=0, note=61, velocity=0, time=2),\n",
       "    Message('control_change', channel=0, control=64, value=127, time=156),\n",
       "    Message('control_change', channel=0, control=64, value=0, time=177),\n",
       "    Message('note_on', channel=0, note=61, velocity=52, time=19),\n",
       "    Message('note_on', channel=0, note=57, velocity=47, time=25),\n",
       "    Message('control_change', channel=0, control=64, value=127, time=302),\n",
       "    Message('control_change', channel=0, control=64, value=0, time=76),\n",
       "    Message('note_on', channel=0, note=61, velocity=0, time=54),\n",
       "    Message('note_on', channel=0, note=61, velocity=29, time=7),\n",
       "    Message('note_on', channel=0, note=55, velocity=51, time=5),\n",
       "    Message('note_on', channel=0, note=57, velocity=0, time=90),\n",
       "    Message('control_change', channel=0, control=64, value=127, time=52),\n",
       "    Message('control_change', channel=0, control=64, value=0, time=280),\n",
       "    Message('note_on', channel=0, note=81, velocity=70, time=6),\n",
       "    Message('note_on', channel=0, note=69, velocity=77, time=1),\n",
       "    Message('note_on', channel=0, note=64, velocity=0, time=7),\n",
       "    Message('note_on', channel=0, note=61, velocity=0, time=1),\n",
       "    Message('note_on', channel=0, note=55, velocity=0, time=4),\n",
       "    Message('control_change', channel=0, control=64, value=127, time=115),\n",
       "    Message('note_on', channel=0, note=62, velocity=55, time=283),\n",
       "    Message('note_on', channel=0, note=57, velocity=52, time=7),\n",
       "    Message('note_on', channel=0, note=81, velocity=0, time=2),\n",
       "    Message('control_change', channel=0, control=64, value=0, time=31),\n",
       "    Message('control_change', channel=0, control=64, value=127, time=238),\n",
       "    Message('note_on', channel=0, note=53, velocity=55, time=173),\n",
       "    Message('note_on', channel=0, note=68, velocity=84, time=462),\n",
       "    Message('note_on', channel=0, note=62, velocity=0, time=30),\n",
       "    Message('control_change', channel=0, control=64, value=0, time=1),\n",
       "    Message('note_on', channel=0, note=69, velocity=0, time=2),\n",
       "    Message('note_on', channel=0, note=53, velocity=0, time=1),\n",
       "    Message('note_on', channel=0, note=57, velocity=0, time=15),\n",
       "    Message('control_change', channel=0, control=64, value=127, time=176),\n",
       "    Message('note_on', channel=0, note=58, velocity=65, time=218),\n",
       "    Message('note_on', channel=0, note=60, velocity=58, time=22),\n",
       "    Message('note_on', channel=0, note=56, velocity=50, time=456),\n",
       "    Message('note_on', channel=0, note=58, velocity=0, time=123),\n",
       "    Message('control_change', channel=0, control=64, value=0, time=0),\n",
       "    Message('note_on', channel=0, note=56, velocity=0, time=1),\n",
       "    Message('note_on', channel=0, note=68, velocity=0, time=5),\n",
       "    Message('control_change', channel=0, control=64, value=127, time=105),\n",
       "    Message('note_on', channel=0, note=80, velocity=74, time=204),\n",
       "    Message('note_on', channel=0, note=68, velocity=84, time=0),\n",
       "    Message('note_on', channel=0, note=60, velocity=0, time=53),\n",
       "    Message('control_change', channel=0, control=64, value=0, time=19),\n",
       "    Message('control_change', channel=0, control=64, value=127, time=161),\n",
       "    Message('note_on', channel=0, note=60, velocity=53, time=201),\n",
       "    Message('note_on', channel=0, note=58, velocity=56, time=2),\n",
       "    Message('note_on', channel=0, note=56, velocity=45, time=470),\n",
       "    Message('control_change', channel=0, control=64, value=0, time=105),\n",
       "    Message('note_on', channel=0, note=58, velocity=0, time=1),\n",
       "    Message('note_on', channel=0, note=68, velocity=0, time=10),\n",
       "    Message('control_change', channel=0, control=64, value=127, time=194),\n",
       "    Message('note_on', channel=0, note=80, velocity=0, time=100),\n",
       "    Message('note_on', channel=0, note=67, velocity=68, time=29),\n",
       "    Message('note_on', channel=0, note=60, velocity=0, time=83),\n",
       "    Message('control_change', channel=0, control=64, value=0, time=26),\n",
       "    Message('note_on', channel=0, note=56, velocity=0, time=54),\n",
       "    Message('note_on', channel=0, note=69, velocity=74, time=38),\n",
       "    Message('note_on', channel=0, note=67, velocity=0, time=75),\n",
       "    Message('note_on', channel=0, note=67, velocity=80, time=132),\n",
       "    Message('note_on', channel=0, note=69, velocity=0, time=98),\n",
       "    Message('note_on', channel=0, note=64, velocity=73, time=128),\n",
       "    Message('note_on', channel=0, note=67, velocity=0, time=113),\n",
       "    Message('note_on', channel=0, note=60, velocity=63, time=92),\n",
       "    Message('note_on', channel=0, note=64, velocity=0, time=76),\n",
       "    Message('note_on', channel=0, note=57, velocity=56, time=144),\n",
       "    Message('note_on', channel=0, note=60, velocity=0, time=130),\n",
       "    Message('note_on', channel=0, note=55, velocity=49, time=140),\n",
       "    Message('note_on', channel=0, note=57, velocity=0, time=133),\n",
       "    Message('note_on', channel=0, note=55, velocity=0, time=232),\n",
       "    Message('note_on', channel=0, note=57, velocity=50, time=96),\n",
       "    Message('note_on', channel=0, note=60, velocity=59, time=223),\n",
       "    Message('note_on', channel=0, note=57, velocity=0, time=160),\n",
       "    Message('note_on', channel=0, note=64, velocity=65, time=61),\n",
       "    Message('note_on', channel=0, note=60, velocity=0, time=139),\n",
       "    Message('note_on', channel=0, note=67, velocity=84, time=62),\n",
       "    Message('note_on', channel=0, note=79, velocity=74, time=1),\n",
       "    Message('note_on', channel=0, note=64, velocity=0, time=4),\n",
       "    Message('note_on', channel=0, note=81, velocity=76, time=224),\n",
       "    Message('note_on', channel=0, note=69, velocity=80, time=0),\n",
       "    Message('note_on', channel=0, note=67, velocity=0, time=115),\n",
       "    Message('note_on', channel=0, note=79, velocity=0, time=26),\n",
       "    Message('note_on', channel=0, note=59, velocity=55, time=337),\n",
       "    Message('note_on', channel=0, note=57, velocity=48, time=26),\n",
       "    Message('note_on', channel=0, note=55, velocity=50, time=461),\n",
       "    Message('control_change', channel=0, control=64, value=127, time=90),\n",
       "    Message('note_on', channel=0, note=57, velocity=0, time=48),\n",
       "    Message('note_on', channel=0, note=81, velocity=0, time=60),\n",
       "    Message('note_on', channel=0, note=59, velocity=0, time=205),\n",
       "    Message('note_on', channel=0, note=79, velocity=67, time=51),\n",
       "    Message('note_on', channel=0, note=67, velocity=76, time=0),\n",
       "    Message('control_change', channel=0, control=64, value=0, time=6),\n",
       "    Message('note_on', channel=0, note=55, velocity=0, time=6),\n",
       "    Message('note_on', channel=0, note=69, velocity=0, time=151),\n",
       "    Message('control_change', channel=0, control=64, value=127, time=87),\n",
       "    Message('note_on', channel=0, note=79, velocity=0, time=169),\n",
       "    Message('note_on', channel=0, note=59, velocity=51, time=10),\n",
       "    Message('note_on', channel=0, note=57, velocity=43, time=20),\n",
       "    Message('control_change', channel=0, control=64, value=0, time=316),\n",
       "    Message('note_on', channel=0, note=55, velocity=51, time=98),\n",
       "    Message('note_on', channel=0, note=57, velocity=0, time=120),\n",
       "    Message('note_on', channel=0, note=59, velocity=0, time=205),\n",
       "    Message('note_on', channel=0, note=72, velocity=79, time=107),\n",
       "    Message('note_on', channel=0, note=55, velocity=0, time=20),\n",
       "    Message('note_on', channel=0, note=67, velocity=0, time=26),\n",
       "    Message('note_on', channel=0, note=60, velocity=54, time=407),\n",
       "    Message('note_on', channel=0, note=57, velocity=46, time=26),\n",
       "    Message('control_change', channel=0, control=64, value=127, time=335),\n",
       "    Message('control_change', channel=0, control=64, value=0, time=31),\n",
       "    Message('note_on', channel=0, note=55, velocity=58, time=155),\n",
       "    Message('note_on', channel=0, note=60, velocity=0, time=150),\n",
       "    Message('note_on', channel=0, note=57, velocity=0, time=13),\n",
       "    Message('note_on', channel=0, note=48, velocity=45, time=456),\n",
       "    Message('note_on', channel=0, note=55, velocity=0, time=211),\n",
       "    Message('note_on', channel=0, note=72, velocity=0, time=459),\n",
       "    Message('note_on', channel=0, note=48, velocity=0, time=980),\n",
       "    Message('note_on', channel=0, note=48, velocity=74, time=4476),\n",
       "    Message('note_on', channel=0, note=48, velocity=0, time=55),\n",
       "    Message('note_on', channel=0, note=51, velocity=71, time=268),\n",
       "    Message('note_on', channel=0, note=51, velocity=0, time=31),\n",
       "    Message('note_on', channel=0, note=55, velocity=81, time=305),\n",
       "    Message('note_on', channel=0, note=55, velocity=0, time=42),\n",
       "    Message('note_on', channel=0, note=60, velocity=83, time=258),\n",
       "    Message('note_on', channel=0, note=60, velocity=0, time=38),\n",
       "    Message('note_on', channel=0, note=63, velocity=84, time=281),\n",
       "    Message('note_on', channel=0, note=75, velocity=80, time=3),\n",
       "    Message('note_on', channel=0, note=54, velocity=85, time=1),\n",
       "    Message('control_change', channel=0, control=64, value=127, time=158),\n",
       "    Message('note_on', channel=0, note=55, velocity=55, time=435),\n",
       "    Message('note_on', channel=0, note=47, velocity=46, time=6),\n",
       "    Message('note_on', channel=0, note=59, velocity=53, time=7),\n",
       "    Message('note_on', channel=0, note=62, velocity=44, time=2),\n",
       "    Message('note_on', channel=0, note=75, velocity=0, time=57),\n",
       "    Message('control_change', channel=0, control=64, value=0, time=4),\n",
       "    Message('note_on', channel=0, note=59, velocity=0, time=12),\n",
       "    Message('note_on', channel=0, note=63, velocity=0, time=15),\n",
       "    Message('note_on', channel=0, note=54, velocity=0, time=12),\n",
       "    Message('note_on', channel=0, note=47, velocity=0, time=3),\n",
       "    Message('note_on', channel=0, note=55, velocity=0, time=4),\n",
       "    Message('note_on', channel=0, note=62, velocity=0, time=27),\n",
       "    Message('note_on', channel=0, note=48, velocity=58, time=487),\n",
       "    Message('note_on', channel=0, note=48, velocity=0, time=76),\n",
       "    Message('note_on', channel=0, note=51, velocity=75, time=211),\n",
       "    Message('note_on', channel=0, note=51, velocity=0, time=58),\n",
       "    Message('note_on', channel=0, note=55, velocity=87, time=251),\n",
       "    Message('note_on', channel=0, note=55, velocity=0, time=50),\n",
       "    Message('note_on', channel=0, note=72, velocity=80, time=237),\n",
       "    Message('note_on', channel=0, note=60, velocity=88, time=0),\n",
       "    Message('note_on', channel=0, note=60, velocity=0, time=74),\n",
       "    Message('note_on', channel=0, note=72, velocity=0, time=15),\n",
       "    Message('note_on', channel=0, note=63, velocity=90, time=218),\n",
       "    Message('note_on', channel=0, note=75, velocity=81, time=1),\n",
       "    Message('note_on', channel=0, note=54, velocity=88, time=1),\n",
       "    Message('control_change', channel=0, control=64, value=127, time=133),\n",
       "    Message('note_on', channel=0, note=54, velocity=0, time=500),\n",
       "    Message('note_on', channel=0, note=59, velocity=56, time=9),\n",
       "    Message('note_on', channel=0, note=54, velocity=48, time=2),\n",
       "    Message('note_on', channel=0, note=55, velocity=44, time=0),\n",
       "    Message('note_on', channel=0, note=62, velocity=49, time=1),\n",
       "    Message('note_on', channel=0, note=55, velocity=0, time=11),\n",
       "    Message('note_on', channel=0, note=59, velocity=0, time=76),\n",
       "    Message('note_on', channel=0, note=54, velocity=0, time=3),\n",
       "    Message('control_change', channel=0, control=64, value=0, time=0),\n",
       "    Message('note_on', channel=0, note=75, velocity=0, time=5),\n",
       "    Message('note_on', channel=0, note=63, velocity=0, time=23),\n",
       "    Message('note_on', channel=0, note=62, velocity=0, time=4),\n",
       "    Message('note_on', channel=0, note=80, velocity=78, time=499),\n",
       "    Message('note_on', channel=0, note=68, velocity=90, time=1),\n",
       "    Message('note_on', channel=0, note=68, velocity=0, time=122),\n",
       "    Message('note_on', channel=0, note=80, velocity=0, time=2),\n",
       "    Message('note_on', channel=0, note=65, velocity=73, time=183),\n",
       "    Message('note_on', channel=0, note=65, velocity=0, time=65),\n",
       "    Message('note_on', channel=0, note=62, velocity=63, time=219),\n",
       "    Message('note_on', channel=0, note=62, velocity=0, time=72),\n",
       "    Message('note_on', channel=0, note=59, velocity=77, time=198),\n",
       "    Message('note_on', channel=0, note=59, velocity=0, time=45),\n",
       "    Message('note_on', channel=0, note=79, velocity=78, time=228),\n",
       "    Message('note_on', channel=0, note=67, velocity=86, time=1),\n",
       "    Message('note_on', channel=0, note=79, velocity=0, time=35),\n",
       "    Message('note_on', channel=0, note=67, velocity=0, time=67),\n",
       "    Message('note_on', channel=0, note=63, velocity=71, time=186),\n",
       "    Message('note_on', channel=0, note=75, velocity=57, time=2),\n",
       "    Message('note_on', channel=0, note=63, velocity=0, time=41),\n",
       "    Message('note_on', channel=0, note=75, velocity=0, time=27),\n",
       "    Message('note_on', channel=0, note=60, velocity=66, time=213),\n",
       "    Message('note_on', channel=0, note=60, velocity=0, time=44),\n",
       "    Message('note_on', channel=0, note=55, velocity=72, time=214),\n",
       "    Message('note_on', channel=0, note=55, velocity=0, time=39),\n",
       "    Message('note_on', channel=0, note=80, velocity=83, time=237),\n",
       "    Message('note_on', channel=0, note=68, velocity=95, time=1),\n",
       "    Message('control_change', channel=0, control=64, value=127, time=20),\n",
       "    Message('note_on', channel=0, note=80, velocity=0, time=96),\n",
       "    Message('note_on', channel=0, note=68, velocity=0, time=1),\n",
       "    Message('control_change', channel=0, control=64, value=0, time=3),\n",
       "    Message('note_on', channel=0, note=65, velocity=61, time=173),\n",
       "    Message('note_on', channel=0, note=65, velocity=0, time=42),\n",
       "    Message('note_on', channel=0, note=62, velocity=55, time=238),\n",
       "    Message('note_on', channel=0, note=62, velocity=0, time=43),\n",
       "    Message('note_on', channel=0, note=59, velocity=75, time=217),\n",
       "    Message('note_on', channel=0, note=59, velocity=0, time=57),\n",
       "    Message('note_on', channel=0, note=79, velocity=79, time=217),\n",
       "    Message('note_on', channel=0, note=67, velocity=87, time=0),\n",
       "    Message('control_change', channel=0, control=64, value=127, time=19),\n",
       "    Message('note_on', channel=0, note=67, velocity=0, time=86),\n",
       "    Message('note_on', channel=0, note=79, velocity=0, time=6),\n",
       "    Message('control_change', channel=0, control=64, value=0, time=0),\n",
       "    Message('note_on', channel=0, note=63, velocity=74, time=164),\n",
       "    Message('note_on', channel=0, note=75, velocity=59, time=0),\n",
       "    Message('note_on', channel=0, note=63, velocity=0, time=40),\n",
       "    Message('note_on', channel=0, note=75, velocity=0, time=34),\n",
       "    Message('note_on', channel=0, note=60, velocity=78, time=200),\n",
       "    Message('note_on', channel=0, note=60, velocity=0, time=35),\n",
       "    Message('note_on', channel=0, note=55, velocity=61, time=238),\n",
       "    Message('note_on', channel=0, note=55, velocity=0, time=37),\n",
       "    Message('note_on', channel=0, note=80, velocity=83, time=216),\n",
       "    Message('note_on', channel=0, note=68, velocity=96, time=1),\n",
       "    Message('control_change', channel=0, control=64, value=127, time=10),\n",
       "    Message('note_on', channel=0, note=80, velocity=0, time=104),\n",
       "    Message('note_on', channel=0, note=68, velocity=0, time=1),\n",
       "    Message('control_change', channel=0, control=64, value=0, time=9),\n",
       "    Message('note_on', channel=0, note=65, velocity=94, time=161),\n",
       "    Message('note_on', channel=0, note=77, velocity=82, time=1),\n",
       "    Message('note_on', channel=0, note=65, velocity=0, time=97),\n",
       "    Message('note_on', channel=0, note=77, velocity=0, time=4),\n",
       "    Message('note_on', channel=0, note=74, velocity=82, time=174),\n",
       "    Message('note_on', channel=0, note=62, velocity=93, time=2),\n",
       "    Message('note_on', channel=0, note=62, velocity=0, time=86),\n",
       "    Message('note_on', channel=0, note=74, velocity=0, time=22),\n",
       "    Message('note_on', channel=0, note=59, velocity=92, time=174),\n",
       "    Message('note_on', channel=0, note=71, velocity=86, time=2),\n",
       "    Message('note_on', channel=0, note=59, velocity=0, time=85),\n",
       "    Message('control_change', channel=0, control=64, value=127, time=84),\n",
       "    Message('note_on', channel=0, note=74, velocity=99, time=133),\n",
       "    Message('note_on', channel=0, note=68, velocity=98, time=1),\n",
       "    Message('note_on', channel=0, note=59, velocity=73, time=0),\n",
       "    Message('control_change', channel=0, control=64, value=0, time=35),\n",
       "    Message('note_on', channel=0, note=71, velocity=0, time=5),\n",
       "    Message('control_change', channel=0, control=64, value=127, time=326),\n",
       "    Message('control_change', channel=0, control=64, value=0, time=587),\n",
       "    Message('note_on', channel=0, note=74, velocity=0, time=8),\n",
       "    Message('note_on', channel=0, note=68, velocity=0, time=35),\n",
       "    Message('note_on', channel=0, note=59, velocity=0, time=8),\n",
       "    Message('note_on', channel=0, note=68, velocity=53, time=358),\n",
       "    Message('note_on', channel=0, note=68, velocity=0, time=104),\n",
       "    Message('note_on', channel=0, note=65, velocity=65, time=154),\n",
       "    Message('note_on', channel=0, note=65, velocity=0, time=109),\n",
       "    Message('note_on', channel=0, note=62, velocity=42, time=197),\n",
       "    Message('note_on', channel=0, note=62, velocity=0, time=83),\n",
       "    Message('note_on', channel=0, note=59, velocity=57, time=219),\n",
       "    Message('note_on', channel=0, note=68, velocity=64, time=339),\n",
       "    Message('note_on', channel=0, note=74, velocity=65, time=26),\n",
       "    Message('control_change', channel=0, control=64, value=127, time=46),\n",
       "    Message('control_change', channel=0, control=64, value=0, time=1049),\n",
       "    Message('note_on', channel=0, note=74, velocity=0, time=4),\n",
       "    Message('note_on', channel=0, note=59, velocity=0, time=5),\n",
       "    Message('note_on', channel=0, note=68, velocity=0, time=40),\n",
       "    Message('note_on', channel=0, note=48, velocity=51, time=484),\n",
       "    Message('note_on', channel=0, note=48, velocity=0, time=68),\n",
       "    Message('note_on', channel=0, note=51, velocity=66, time=204),\n",
       "    Message('note_on', channel=0, note=51, velocity=0, time=67),\n",
       "    Message('note_on', channel=0, note=55, velocity=76, time=206),\n",
       "    Message('note_on', channel=0, note=55, velocity=0, time=45),\n",
       "    Message('note_on', channel=0, note=60, velocity=85, time=217),\n",
       "    Message('note_on', channel=0, note=60, velocity=0, time=51),\n",
       "    Message('note_on', channel=0, note=63, velocity=86, time=254),\n",
       "    Message('note_on', channel=0, note=75, velocity=79, time=3),\n",
       "    Message('note_on', channel=0, note=54, velocity=77, time=8),\n",
       "    Message('control_change', channel=0, control=64, value=127, time=83),\n",
       "    Message('note_on', channel=0, note=75, velocity=0, time=445),\n",
       "    Message('note_on', channel=0, note=59, velocity=60, time=55),\n",
       "    Message('note_on', channel=0, note=54, velocity=0, time=7),\n",
       "    Message('note_on', channel=0, note=47, velocity=45, time=1),\n",
       "    Message('note_on', channel=0, note=55, velocity=47, time=8),\n",
       "    Message('note_on', channel=0, note=54, velocity=48, time=2),\n",
       "    Message('note_on', channel=0, note=62, velocity=43, time=5),\n",
       "    Message('control_change', channel=0, control=64, value=0, time=65),\n",
       "    Message('note_on', channel=0, note=59, velocity=0, time=3),\n",
       "    Message('note_on', channel=0, note=47, velocity=0, time=15),\n",
       "    Message('note_on', channel=0, note=63, velocity=0, time=0),\n",
       "    Message('note_on', channel=0, note=54, velocity=0, time=23),\n",
       "    Message('note_on', channel=0, note=55, velocity=0, time=6),\n",
       "    Message('note_on', channel=0, note=62, velocity=0, time=12),\n",
       "    Message('note_on', channel=0, note=48, velocity=47, time=473),\n",
       "    Message('note_on', channel=0, note=48, velocity=0, time=66),\n",
       "    Message('note_on', channel=0, note=51, velocity=61, time=232),\n",
       "    Message('note_on', channel=0, note=51, velocity=0, time=54),\n",
       "    Message('note_on', channel=0, note=55, velocity=58, time=243),\n",
       "    Message('note_on', channel=0, note=55, velocity=0, time=78),\n",
       "    Message('note_on', channel=0, note=60, velocity=57, time=220),\n",
       "    Message('note_on', channel=0, note=60, velocity=0, time=111),\n",
       "    Message('note_on', channel=0, note=84, velocity=99, time=751),\n",
       "    Message('note_on', channel=0, note=72, velocity=91, time=0),\n",
       "    Message('note_on', channel=0, note=48, velocity=83, time=1),\n",
       "    Message('note_on', channel=0, note=36, velocity=87, time=2),\n",
       "    Message('note_on', channel=0, note=72, velocity=0, time=2),\n",
       "    Message('control_change', channel=0, control=64, value=127, time=7),\n",
       "    Message('note_on', channel=0, note=36, velocity=0, time=76),\n",
       "    Message('control_change', channel=0, control=64, value=0, time=16),\n",
       "    Message('note_on', channel=0, note=48, velocity=0, time=31),\n",
       "    Message('note_on', channel=0, note=84, velocity=0, time=100),\n",
       "    Message('control_change', channel=0, control=64, value=127, time=906),\n",
       "    Message('control_change', channel=0, control=64, value=0, time=2327),\n",
       "    Message('note_on', channel=0, note=52, velocity=85, time=58),\n",
       "    Message('note_on', channel=0, note=48, velocity=86, time=0),\n",
       "    Message('note_on', channel=0, note=52, velocity=0, time=60),\n",
       "    Message('note_on', channel=0, note=48, velocity=0, time=6),\n",
       "    Message('note_on', channel=0, note=48, velocity=84, time=472),\n",
       "    Message('note_on', channel=0, note=52, velocity=85, time=0),\n",
       "    Message('note_on', channel=0, note=52, velocity=0, time=47),\n",
       "    Message('note_on', channel=0, note=48, velocity=0, time=27),\n",
       "    Message('note_on', channel=0, note=52, velocity=87, time=462),\n",
       "    Message('note_on', channel=0, note=48, velocity=81, time=1),\n",
       "    Message('note_on', channel=0, note=52, velocity=0, time=48),\n",
       "    Message('note_on', channel=0, note=48, velocity=0, time=11),\n",
       "    Message('note_on', channel=0, note=52, velocity=86, time=217),\n",
       "    Message('note_on', channel=0, note=48, velocity=84, time=1),\n",
       "    Message('note_on', channel=0, note=52, velocity=0, time=38),\n",
       "    Message('note_on', channel=0, note=48, velocity=0, time=2),\n",
       "    Message('note_on', channel=0, note=52, velocity=88, time=228),\n",
       "    Message('note_on', channel=0, note=48, velocity=84, time=0),\n",
       "    Message('note_on', channel=0, note=52, velocity=0, time=45),\n",
       "    Message('note_on', channel=0, note=48, velocity=0, time=18),\n",
       "    Message('note_on', channel=0, note=60, velocity=83, time=474),\n",
       "    Message('note_on', channel=0, note=48, velocity=79, time=7),\n",
       "    Message('note_on', channel=0, note=52, velocity=75, time=2),\n",
       "    Message('note_on', channel=0, note=52, velocity=0, time=56),\n",
       "    Message('note_on', channel=0, note=48, velocity=0, time=37),\n",
       "    Message('note_on', channel=0, note=64, velocity=84, time=152),\n",
       "    Message('note_on', channel=0, note=76, velocity=77, time=1),\n",
       "    Message('note_on', channel=0, note=60, velocity=0, time=63),\n",
       "    Message('note_on', channel=0, note=72, velocity=77, time=208),\n",
       "    Message('note_on', channel=0, note=60, velocity=78, time=2),\n",
       "    Message('note_on', channel=0, note=52, velocity=77, time=1),\n",
       "    Message('note_on', channel=0, note=48, velocity=75, time=1),\n",
       "    Message('note_on', channel=0, note=76, velocity=0, time=5),\n",
       "    Message('note_on', channel=0, note=64, velocity=0, time=9),\n",
       "    Message('note_on', channel=0, note=52, velocity=0, time=47),\n",
       "    Message('note_on', channel=0, note=48, velocity=0, time=13),\n",
       "    Message('note_on', channel=0, note=64, velocity=88, time=173),\n",
       "    Message('note_on', channel=0, note=76, velocity=79, time=1),\n",
       "    Message('note_on', channel=0, note=60, velocity=0, time=72),\n",
       "    Message('note_on', channel=0, note=72, velocity=0, time=38),\n",
       "    Message('note_on', channel=0, note=67, velocity=77, time=145),\n",
       "    Message('note_on', channel=0, note=52, velocity=74, time=1),\n",
       "    Message('note_on', channel=0, note=48, velocity=76, time=0),\n",
       "    Message('note_on', channel=0, note=64, velocity=0, time=42),\n",
       "    Message('note_on', channel=0, note=52, velocity=0, time=0),\n",
       "    Message('note_on', channel=0, note=48, velocity=0, time=47),\n",
       "    Message('note_on', channel=0, note=76, velocity=0, time=11),\n",
       "    Message('note_on', channel=0, note=67, velocity=0, time=16),\n",
       "    Message('note_on', channel=0, note=79, velocity=79, time=134),\n",
       "    Message('note_on', channel=0, note=67, velocity=83, time=0),\n",
       "    Message('note_on', channel=0, note=48, velocity=68, time=23),\n",
       "    Message('note_on', channel=0, note=52, velocity=69, time=0),\n",
       "    Message('note_on', channel=0, note=52, velocity=0, time=44),\n",
       "    Message('note_on', channel=0, note=48, velocity=0, time=15),\n",
       "    Message('note_on', channel=0, note=79, velocity=0, time=7),\n",
       "    Message('note_on', channel=0, note=67, velocity=0, time=6),\n",
       "    Message('note_on', channel=0, note=79, velocity=88, time=173),\n",
       "    Message('note_on', channel=0, note=67, velocity=93, time=0),\n",
       "    Message('note_on', channel=0, note=52, velocity=66, time=39),\n",
       "    Message('note_on', channel=0, note=48, velocity=67, time=1),\n",
       "    Message('note_on', channel=0, note=52, velocity=0, time=37),\n",
       "    Message('note_on', channel=0, note=48, velocity=0, time=10),\n",
       "    Message('control_change', channel=0, control=64, value=127, time=201),\n",
       "    Message('control_change', channel=0, control=64, value=0, time=239),\n",
       "    Message('note_on', channel=0, note=81, velocity=83, time=6),\n",
       "    Message('note_on', channel=0, note=53, velocity=72, time=3),\n",
       "    Message('note_on', channel=0, note=69, velocity=88, time=1),\n",
       "    Message('note_on', channel=0, note=48, velocity=71, time=3),\n",
       "    Message('note_on', channel=0, note=67, velocity=0, time=51),\n",
       "    Message('note_on', channel=0, note=79, velocity=0, time=12),\n",
       "    Message('note_on', channel=0, note=53, velocity=0, time=10),\n",
       "    Message('note_on', channel=0, note=48, velocity=0, time=7),\n",
       "    Message('note_on', channel=0, note=72, velocity=91, time=156),\n",
       "    Message('note_on', channel=0, note=81, velocity=0, time=32),\n",
       "    Message('note_on', channel=0, note=69, velocity=0, time=5),\n",
       "    Message('note_on', channel=0, note=53, velocity=76, time=222),\n",
       "    Message('note_on', channel=0, note=71, velocity=85, time=2),\n",
       "    Message('note_on', channel=0, note=48, velocity=78, time=1),\n",
       "    Message('note_on', channel=0, note=53, velocity=0, time=39),\n",
       "    Message('note_on', channel=0, note=48, velocity=0, time=17),\n",
       "    Message('note_on', channel=0, note=72, velocity=0, time=9),\n",
       "    Message('note_on', channel=0, note=81, velocity=82, time=175),\n",
       "    Message('note_on', channel=0, note=69, velocity=88, time=1),\n",
       "    Message('note_on', channel=0, note=71, velocity=0, time=77),\n",
       "    Message('note_on', channel=0, note=81, velocity=0, time=161),\n",
       "    Message('note_on', channel=0, note=67, velocity=84, time=16),\n",
       "    Message('note_on', channel=0, note=79, velocity=79, time=1),\n",
       "    Message('note_on', channel=0, note=52, velocity=72, time=9),\n",
       "    Message('note_on', channel=0, note=48, velocity=70, time=1),\n",
       "    Message('note_on', channel=0, note=52, velocity=0, time=54),\n",
       "    Message('note_on', channel=0, note=48, velocity=0, time=6),\n",
       "    Message('note_on', channel=0, note=69, velocity=0, time=32),\n",
       "    Message('note_on', channel=0, note=79, velocity=0, time=127),\n",
       "    Message('note_on', channel=0, note=52, velocity=78, time=34),\n",
       "    Message('note_on', channel=0, note=48, velocity=72, time=1),\n",
       "    Message('note_on', channel=0, note=52, velocity=0, time=45),\n",
       "    Message('note_on', channel=0, note=48, velocity=0, time=10),\n",
       "    Message('note_on', channel=0, note=52, velocity=79, time=224),\n",
       "    Message('note_on', channel=0, note=48, velocity=70, time=1),\n",
       "    Message('note_on', channel=0, note=52, velocity=0, time=79),\n",
       "    Message('note_on', channel=0, note=48, velocity=0, time=5),\n",
       "    Message('note_on', channel=0, note=67, velocity=0, time=162),\n",
       "    Message('note_on', channel=0, note=60, velocity=83, time=279),\n",
       "    Message('note_on', channel=0, note=52, velocity=76, time=7),\n",
       "    Message('note_on', channel=0, note=48, velocity=72, time=2),\n",
       "    Message('note_on', channel=0, note=52, velocity=0, time=84),\n",
       "    Message('note_on', channel=0, note=48, velocity=0, time=3),\n",
       "    Message('note_on', channel=0, note=64, velocity=80, time=149),\n",
       "    Message('note_on', channel=0, note=60, velocity=0, time=68),\n",
       "    Message('note_on', channel=0, note=60, velocity=82, time=195),\n",
       "    Message('note_on', channel=0, note=52, velocity=81, time=0),\n",
       "    Message('note_on', channel=0, note=48, velocity=81, time=0),\n",
       "    Message('note_on', channel=0, note=64, velocity=0, time=3),\n",
       "    Message('note_on', channel=0, note=52, velocity=0, time=76),\n",
       "    Message('note_on', channel=0, note=48, velocity=0, time=7),\n",
       "    Message('note_on', channel=0, note=64, velocity=82, time=167),\n",
       "    Message('note_on', channel=0, note=76, velocity=76, time=1),\n",
       "    Message('note_on', channel=0, note=60, velocity=0, time=92),\n",
       "    Message('note_on', channel=0, note=52, velocity=73, time=155),\n",
       "    Message('note_on', channel=0, note=48, velocity=74, time=2),\n",
       "    Message('note_on', channel=0, note=67, velocity=77, time=1),\n",
       "    Message('note_on', channel=0, note=79, velocity=74, time=2),\n",
       "    Message('note_on', channel=0, note=64, velocity=0, time=25),\n",
       "    Message('note_on', channel=0, note=52, velocity=0, time=8),\n",
       "    Message('note_on', channel=0, note=48, velocity=0, time=30),\n",
       "    Message('note_on', channel=0, note=76, velocity=0, time=49),\n",
       "    Message('note_on', channel=0, note=67, velocity=0, time=9),\n",
       "    Message('note_on', channel=0, note=79, velocity=0, time=22),\n",
       "    Message('note_on', channel=0, note=79, velocity=76, time=87),\n",
       "    Message('note_on', channel=0, note=67, velocity=80, time=1),\n",
       "    Message('note_on', channel=0, note=48, velocity=71, time=24),\n",
       "    Message('note_on', channel=0, note=52, velocity=71, time=0),\n",
       "    Message('note_on', channel=0, note=52, velocity=0, time=45),\n",
       "    Message('note_on', channel=0, note=79, velocity=0, time=17),\n",
       "    Message('note_on', channel=0, note=48, velocity=0, time=1),\n",
       "    Message('note_on', channel=0, note=67, velocity=0, time=4),\n",
       "    Message('note_on', channel=0, note=79, velocity=84, time=171),\n",
       "    Message('note_on', channel=0, note=67, velocity=90, time=1),\n",
       "    Message('note_on', channel=0, note=52, velocity=74, time=14),\n",
       "    Message('note_on', channel=0, note=48, velocity=69, time=0),\n",
       "    Message('note_on', channel=0, note=52, velocity=0, time=47),\n",
       "    Message('note_on', channel=0, note=48, velocity=0, time=14),\n",
       "    Message('note_on', channel=0, note=53, velocity=71, time=438),\n",
       "    Message('note_on', channel=0, note=60, velocity=69, time=2),\n",
       "    Message('note_on', channel=0, note=69, velocity=85, time=0),\n",
       "    Message('note_on', channel=0, note=81, velocity=82, time=1),\n",
       "    Message('note_on', channel=0, note=48, velocity=71, time=2),\n",
       "    Message('note_on', channel=0, note=67, velocity=0, time=39),\n",
       "    Message('note_on', channel=0, note=79, velocity=0, time=13),\n",
       "    Message('note_on', channel=0, note=53, velocity=0, time=20),\n",
       "    Message('note_on', channel=0, note=60, velocity=0, time=2),\n",
       "    Message('note_on', channel=0, note=48, velocity=0, time=4),\n",
       "    Message('note_on', channel=0, note=79, velocity=75, time=170),\n",
       "    Message('note_on', channel=0, note=67, velocity=82, time=1),\n",
       "    Message('note_on', channel=0, note=81, velocity=0, time=3),\n",
       "    Message('note_on', channel=0, note=69, velocity=0, time=83),\n",
       "    Message('note_on', channel=0, note=79, velocity=0, time=163),\n",
       "    Message('note_on', channel=0, note=77, velocity=79, time=2),\n",
       "    Message('note_on', channel=0, note=53, velocity=72, time=0),\n",
       "    Message('note_on', channel=0, note=65, velocity=82, time=2),\n",
       "    Message('note_on', channel=0, note=48, velocity=69, time=3),\n",
       "    Message('note_on', channel=0, note=67, velocity=0, time=36),\n",
       "    Message('note_on', channel=0, note=53, velocity=0, time=23),\n",
       "    Message('note_on', channel=0, note=48, velocity=0, time=0),\n",
       "    Message('note_on', channel=0, note=64, velocity=82, time=192),\n",
       "    Message('note_on', channel=0, note=76, velocity=75, time=1),\n",
       "    Message('note_on', channel=0, note=65, velocity=0, time=76),\n",
       "    Message('note_on', channel=0, note=77, velocity=0, time=3),\n",
       "    Message('note_on', channel=0, note=53, velocity=73, time=160),\n",
       "    Message('note_on', channel=0, note=47, velocity=72, time=4),\n",
       "    Message('note_on', channel=0, note=62, velocity=75, time=0),\n",
       "    Message('note_on', channel=0, note=64, velocity=0, time=47),\n",
       "    Message('note_on', channel=0, note=76, velocity=0, time=4),\n",
       "    Message('note_on', channel=0, note=53, velocity=0, time=0),\n",
       "    Message('note_on', channel=0, note=47, velocity=0, time=1),\n",
       "    Message('note_on', channel=0, note=47, velocity=80, time=196),\n",
       "    Message('note_on', channel=0, note=53, velocity=77, time=2),\n",
       "    Message('note_on', channel=0, note=53, velocity=0, time=41),\n",
       "    Message('note_on', channel=0, note=47, velocity=0, time=2),\n",
       "    Message('note_on', channel=0, note=53, velocity=80, time=221),\n",
       "    Message('note_on', channel=0, note=47, velocity=78, time=0),\n",
       "    Message('note_on', channel=0, note=53, velocity=0, time=46),\n",
       "    Message('note_on', channel=0, note=47, velocity=0, time=2),\n",
       "    Message('note_on', channel=0, note=62, velocity=0, time=65),\n",
       "    Message('note_on', channel=0, note=60, velocity=81, time=427),\n",
       "    Message('note_on', channel=0, note=52, velocity=70, time=18),\n",
       "    Message('note_on', channel=0, note=48, velocity=70, time=3),\n",
       "    Message('note_on', channel=0, note=52, velocity=0, time=55),\n",
       "    Message('note_on', channel=0, note=48, velocity=0, time=30),\n",
       "    Message('note_on', channel=0, note=64, velocity=83, time=136),\n",
       "    Message('note_on', channel=0, note=60, velocity=0, time=85),\n",
       "    Message('note_on', channel=0, note=52, velocity=72, time=185),\n",
       "    Message('note_on', channel=0, note=60, velocity=77, time=1),\n",
       "    Message('note_on', channel=0, note=48, velocity=73, time=0),\n",
       "    Message('note_on', channel=0, note=64, velocity=0, time=31),\n",
       "    Message('note_on', channel=0, note=52, velocity=0, time=12),\n",
       "    Message('note_on', channel=0, note=48, velocity=0, time=31),\n",
       "    Message('note_on', channel=0, note=64, velocity=84, time=177),\n",
       "    Message('note_on', channel=0, note=76, velocity=76, time=2),\n",
       "    Message('note_on', channel=0, note=60, velocity=0, time=83),\n",
       "    Message('note_on', channel=0, note=67, velocity=80, time=158),\n",
       "    Message('note_on', channel=0, note=79, velocity=73, time=1),\n",
       "    Message('note_on', channel=0, note=48, velocity=70, time=4),\n",
       "    Message('note_on', channel=0, note=52, velocity=66, time=1),\n",
       "    Message('note_on', channel=0, note=79, velocity=0, time=4),\n",
       "    Message('note_on', channel=0, note=64, velocity=0, time=28),\n",
       "    Message('note_on', channel=0, note=52, velocity=0, time=13),\n",
       "    Message('note_on', channel=0, note=48, velocity=0, time=15),\n",
       "    Message('note_on', channel=0, note=76, velocity=0, time=5),\n",
       "    Message('note_on', channel=0, note=67, velocity=0, time=58),\n",
       "    Message('note_on', channel=0, note=79, velocity=81, time=112),\n",
       "    Message('note_on', channel=0, note=67, velocity=85, time=2),\n",
       "    Message('note_on', channel=0, note=52, velocity=72, time=29),\n",
       "    Message('note_on', channel=0, note=48, velocity=64, time=2),\n",
       "    Message('note_on', channel=0, note=52, velocity=0, time=42),\n",
       "    Message('note_on', channel=0, note=48, velocity=0, time=20),\n",
       "    Message('note_on', channel=0, note=67, velocity=0, time=1),\n",
       "    Message('note_on', channel=0, note=79, velocity=0, time=6),\n",
       "    Message('note_on', channel=0, note=79, velocity=84, time=162),\n",
       "    Message('note_on', channel=0, note=67, velocity=90, time=0),\n",
       "    Message('note_on', channel=0, note=48, velocity=69, time=15),\n",
       "    Message('note_on', channel=0, note=52, velocity=67, time=1),\n",
       "    Message('note_on', channel=0, note=52, velocity=0, time=48),\n",
       "    Message('note_on', channel=0, note=48, velocity=0, time=15),\n",
       "    Message('note_on', channel=0, note=53, velocity=74, time=435),\n",
       "    Message('note_on', channel=0, note=81, velocity=85, time=0),\n",
       "    Message('note_on', channel=0, note=69, velocity=89, time=2),\n",
       "    Message('note_on', channel=0, note=48, velocity=70, time=1),\n",
       "    Message('note_on', channel=0, note=79, velocity=0, time=50),\n",
       "    Message('note_on', channel=0, note=67, velocity=0, time=2),\n",
       "    Message('note_on', channel=0, note=53, velocity=0, time=23),\n",
       "    Message('note_on', channel=0, note=48, velocity=0, time=7),\n",
       "    Message('note_on', channel=0, note=72, velocity=90, time=148),\n",
       "    Message('note_on', channel=0, note=69, velocity=0, time=43),\n",
       "    Message('note_on', channel=0, note=81, velocity=0, time=5),\n",
       "    Message('note_on', channel=0, note=53, velocity=76, time=212),\n",
       "    Message('note_on', channel=0, note=71, velocity=84, time=5),\n",
       "    Message('note_on', channel=0, note=48, velocity=73, time=2),\n",
       "    Message('note_on', channel=0, note=53, velocity=0, time=75),\n",
       "    Message('note_on', channel=0, note=48, velocity=0, time=3),\n",
       "    Message('note_on', channel=0, note=72, velocity=0, time=6),\n",
       "    Message('note_on', channel=0, note=81, velocity=78, time=156),\n",
       "    Message('note_on', channel=0, note=69, velocity=87, time=1),\n",
       "    Message('note_on', channel=0, note=71, velocity=0, time=91),\n",
       "    Message('note_on', channel=0, note=81, velocity=0, time=163),\n",
       "    Message('note_on', channel=0, note=71, velocity=87, time=1),\n",
       "    Message('note_on', channel=0, note=56, velocity=76, time=4),\n",
       "    Message('note_on', channel=0, note=52, velocity=73, time=4),\n",
       "    Message('note_on', channel=0, note=56, velocity=0, time=91),\n",
       "    Message('note_on', channel=0, note=52, velocity=0, time=10),\n",
       "    Message('note_on', channel=0, note=52, velocity=76, time=157),\n",
       "    Message('note_on', channel=0, note=56, velocity=77, time=2),\n",
       "    Message('note_on', channel=0, note=56, velocity=0, time=44),\n",
       "    Message('note_on', channel=0, note=71, velocity=0, time=27),\n",
       "    Message('note_on', channel=0, note=52, velocity=0, time=2),\n",
       "    Message('note_on', channel=0, note=56, velocity=81, time=183),\n",
       "    Message('note_on', channel=0, note=52, velocity=72, time=1),\n",
       "    Message('note_on', channel=0, note=48, velocity=62, time=1),\n",
       "    Message('note_on', channel=0, note=48, velocity=0, time=11),\n",
       "    Message('note_on', channel=0, note=56, velocity=0, time=25),\n",
       "    Message('note_on', channel=0, note=52, velocity=0, time=63),\n",
       "    Message('note_on', channel=0, note=69, velocity=0, time=42),\n",
       "    Message('note_on', channel=0, note=72, velocity=94, time=380),\n",
       "    Message('note_on', channel=0, note=48, velocity=74, time=1),\n",
       "    Message('note_on', channel=0, note=53, velocity=74, time=1),\n",
       "    Message('note_on', channel=0, note=53, velocity=0, time=66),\n",
       "    Message('note_on', channel=0, note=48, velocity=0, time=21),\n",
       "    Message('note_on', channel=0, note=72, velocity=0, time=38),\n",
       "    Message('note_on', channel=0, note=72, velocity=88, time=101),\n",
       "    Message('note_on', channel=0, note=53, velocity=73, time=272),\n",
       "    Message('note_on', channel=0, note=48, velocity=77, time=4),\n",
       "    Message('note_on', channel=0, note=71, velocity=84, time=3),\n",
       "    Message('note_on', channel=0, note=53, velocity=0, time=45),\n",
       "    Message('note_on', channel=0, note=72, velocity=0, time=13),\n",
       "    Message('note_on', channel=0, note=48, velocity=0, time=6),\n",
       "    Message('note_on', channel=0, note=81, velocity=78, time=178),\n",
       "    Message('note_on', channel=0, note=69, velocity=85, time=3),\n",
       "    Message('note_on', channel=0, note=71, velocity=0, time=82),\n",
       "    Message('note_on', channel=0, note=67, velocity=84, time=151),\n",
       "    Message('note_on', channel=0, note=79, velocity=77, time=1),\n",
       "    Message('note_on', channel=0, note=81, velocity=0, time=1),\n",
       "    Message('note_on', channel=0, note=48, velocity=73, time=6),\n",
       "    Message('note_on', channel=0, note=52, velocity=77, time=0),\n",
       "    Message('note_on', channel=0, note=79, velocity=0, time=71),\n",
       "    Message('note_on', channel=0, note=52, velocity=0, time=5),\n",
       "    Message('note_on', channel=0, note=48, velocity=0, time=10),\n",
       "    Message('note_on', channel=0, note=72, velocity=94, time=139),\n",
       "    Message('note_on', channel=0, note=52, velocity=83, time=11),\n",
       "    Message('note_on', channel=0, note=48, velocity=78, time=2),\n",
       "    Message('note_on', channel=0, note=69, velocity=0, time=17),\n",
       "    Message('note_on', channel=0, note=67, velocity=0, time=6),\n",
       "    Message('note_on', channel=0, note=52, velocity=0, time=52),\n",
       "    Message('note_on', channel=0, note=48, velocity=0, time=2),\n",
       "    Message('note_on', channel=0, note=76, velocity=68, time=158),\n",
       "    Message('note_on', channel=0, note=64, velocity=85, time=1),\n",
       "    Message('note_on', channel=0, note=76, velocity=0, time=4),\n",
       "    Message('note_on', channel=0, note=52, velocity=77, time=12),\n",
       "    Message('note_on', channel=0, note=48, velocity=73, time=1),\n",
       "    Message('note_on', channel=0, note=52, velocity=0, time=45),\n",
       "    Message('note_on', channel=0, note=48, velocity=0, time=16),\n",
       "    Message('note_on', channel=0, note=72, velocity=0, time=18),\n",
       "    Message('note_on', channel=0, note=67, velocity=85, time=168),\n",
       "    Message('note_on', channel=0, note=79, velocity=73, time=0),\n",
       "    Message('note_on', channel=0, note=64, velocity=0, time=68),\n",
       "    Message('note_on', channel=0, note=81, velocity=86, time=183),\n",
       "    Message('note_on', channel=0, note=54, velocity=86, time=0),\n",
       "    Message('note_on', channel=0, note=69, velocity=89, time=1),\n",
       "    Message('note_on', channel=0, note=50, velocity=80, time=0),\n",
       "    Message('note_on', channel=0, note=79, velocity=0, time=18),\n",
       "    Message('note_on', channel=0, note=69, velocity=0, time=50),\n",
       "    Message('note_on', channel=0, note=54, velocity=0, time=1),\n",
       "    Message('note_on', channel=0, note=67, velocity=0, time=11),\n",
       "    Message('note_on', channel=0, note=50, velocity=0, time=0),\n",
       "    Message('note_on', channel=0, note=81, velocity=0, time=38),\n",
       "    Message('note_on', channel=0, note=53, velocity=82, time=404),\n",
       "    Message('note_on', channel=0, note=83, velocity=87, time=0),\n",
       "    Message('note_on', channel=0, note=77, velocity=79, time=1),\n",
       "    Message('note_on', channel=0, note=71, velocity=96, time=0),\n",
       "    Message('note_on', channel=0, note=50, velocity=81, time=3),\n",
       "    Message('note_on', channel=0, note=71, velocity=0, time=36),\n",
       "    Message('note_on', channel=0, note=83, velocity=0, time=1),\n",
       "    Message('note_on', channel=0, note=77, velocity=0, time=16),\n",
       "    Message('note_on', channel=0, note=53, velocity=0, time=2),\n",
       "    Message('note_on', channel=0, note=50, velocity=0, time=16),\n",
       "    Message('note_on', channel=0, note=72, velocity=98, time=424),\n",
       "    Message('note_on', channel=0, note=48, velocity=79, time=3),\n",
       "    Message('note_on', channel=0, note=52, velocity=78, time=2),\n",
       "    Message('note_on', channel=0, note=52, velocity=0, time=41),\n",
       "    Message('note_on', channel=0, note=48, velocity=0, time=2),\n",
       "    Message('note_on', channel=0, note=52, velocity=81, time=198),\n",
       "    Message('note_on', channel=0, note=48, velocity=75, time=3),\n",
       "    Message('note_on', channel=0, note=55, velocity=67, time=1),\n",
       "    Message('note_on', channel=0, note=55, velocity=0, time=7),\n",
       "    Message('note_on', channel=0, note=52, velocity=0, time=27),\n",
       "    Message('note_on', channel=0, note=48, velocity=0, time=1),\n",
       "    Message('note_on', channel=0, note=60, velocity=80, time=204),\n",
       "    Message('note_on', channel=0, note=48, velocity=86, time=1),\n",
       "    Message('note_on', channel=0, note=52, velocity=85, time=1),\n",
       "    Message('note_on', channel=0, note=55, velocity=70, time=0),\n",
       "    Message('note_on', channel=0, note=52, velocity=0, time=40),\n",
       "    Message('note_on', channel=0, note=48, velocity=0, time=5),\n",
       "    Message('note_on', channel=0, note=60, velocity=0, time=20),\n",
       "    Message('note_on', channel=0, note=55, velocity=0, time=8),\n",
       "    Message('note_on', channel=0, note=72, velocity=0, time=23),\n",
       "    Message('note_on', channel=0, note=79, velocity=81, time=5430),\n",
       "    Message('note_on', channel=0, note=79, velocity=0, time=32),\n",
       "    Message('note_on', channel=0, note=79, velocity=86, time=187),\n",
       "    Message('note_on', channel=0, note=79, velocity=0, time=33),\n",
       "    Message('note_on', channel=0, note=79, velocity=86, time=182),\n",
       "    Message('note_on', channel=0, note=79, velocity=0, time=34),\n",
       "    Message('note_on', channel=0, note=79, velocity=83, time=185),\n",
       "    Message('note_on', channel=0, note=77, velocity=89, time=1),\n",
       "    Message('note_on', channel=0, note=79, velocity=0, time=36),\n",
       "    Message('note_on', channel=0, note=77, velocity=0, time=28),\n",
       "    Message('note_on', channel=0, note=79, velocity=76, time=157),\n",
       "    Message('note_on', channel=0, note=77, velocity=76, time=3),\n",
       "    Message('note_on', channel=0, note=79, velocity=0, time=40),\n",
       "    Message('note_on', channel=0, note=77, velocity=0, time=15),\n",
       "    Message('note_on', channel=0, note=79, velocity=79, time=163),\n",
       "    Message('note_on', channel=0, note=77, velocity=70, time=9),\n",
       "    Message('note_on', channel=0, note=79, velocity=0, time=26),\n",
       "    Message('note_on', channel=0, note=77, velocity=0, time=35),\n",
       "    Message('note_on', channel=0, note=74, velocity=89, time=160),\n",
       "    Message('note_on', channel=0, note=79, velocity=85, time=4),\n",
       "    Message('note_on', channel=0, note=77, velocity=84, time=10),\n",
       "    Message('note_on', channel=0, note=79, velocity=0, time=37),\n",
       "    Message('note_on', channel=0, note=77, velocity=0, time=27),\n",
       "    Message('note_on', channel=0, note=79, velocity=71, time=155),\n",
       "    Message('note_on', channel=0, note=77, velocity=68, time=3),\n",
       "    Message('note_on', channel=0, note=79, velocity=0, time=42),\n",
       "    Message('note_on', channel=0, note=77, velocity=0, time=24),\n",
       "    Message('note_on', channel=0, note=79, velocity=73, time=168),\n",
       "    Message('note_on', channel=0, note=77, velocity=66, time=6),\n",
       "    Message('note_on', channel=0, note=79, velocity=0, time=31),\n",
       "    Message('note_on', channel=0, note=77, velocity=0, time=20),\n",
       "    Message('note_on', channel=0, note=79, velocity=71, time=178),\n",
       "    Message('note_on', channel=0, note=74, velocity=0, time=4),\n",
       "    Message('note_on', channel=0, note=77, velocity=68, time=3),\n",
       "    Message('note_on', channel=0, note=71, velocity=60, time=1),\n",
       "    Message('note_on', channel=0, note=74, velocity=54, time=1),\n",
       "    Message('note_on', channel=0, note=79, velocity=0, time=42),\n",
       "    Message('note_on', channel=0, note=77, velocity=0, time=15),\n",
       "    Message('note_on', channel=0, note=74, velocity=0, time=45),\n",
       "    Message('note_on', channel=0, note=71, velocity=0, time=92),\n",
       "    Message('note_on', channel=0, note=79, velocity=65, time=29),\n",
       "    Message('note_on', channel=0, note=77, velocity=60, time=5),\n",
       "    Message('note_on', channel=0, note=79, velocity=0, time=24),\n",
       "    Message('note_on', channel=0, note=77, velocity=0, time=15),\n",
       "    Message('note_on', channel=0, note=79, velocity=74, time=175),\n",
       "    Message('note_on', channel=0, note=79, velocity=0, time=25),\n",
       "    Message('note_on', channel=0, note=79, velocity=65, time=217),\n",
       "    Message('note_on', channel=0, note=67, velocity=75, time=1),\n",
       "    Message('note_on', channel=0, note=67, velocity=0, time=35),\n",
       "    Message('note_on', channel=0, note=79, velocity=0, time=4),\n",
       "    Message('note_on', channel=0, note=79, velocity=63, time=183),\n",
       "    Message('note_on', channel=0, note=67, velocity=71, time=1),\n",
       "    Message('note_on', channel=0, note=67, velocity=0, time=59),\n",
       "    Message('note_on', channel=0, note=79, velocity=0, time=11),\n",
       "    Message('note_on', channel=0, note=79, velocity=52, time=151),\n",
       "    Message('note_on', channel=0, note=67, velocity=57, time=2),\n",
       "    Message('note_on', channel=0, note=79, velocity=0, time=39),\n",
       "    Message('note_on', channel=0, note=67, velocity=0, time=4),\n",
       "    Message('note_on', channel=0, note=67, velocity=54, time=163),\n",
       "    Message('note_on', channel=0, note=79, velocity=50, time=0),\n",
       "    Message('note_on', channel=0, note=79, velocity=0, time=48),\n",
       "    Message('note_on', channel=0, note=65, velocity=30, time=12),\n",
       "    Message('note_on', channel=0, note=77, velocity=20, time=1),\n",
       "    Message('note_on', channel=0, note=77, velocity=0, time=10),\n",
       "    Message('note_on', channel=0, note=65, velocity=0, time=59),\n",
       "    Message('note_on', channel=0, note=67, velocity=0, time=6),\n",
       "    Message('note_on', channel=0, note=79, velocity=52, time=93),\n",
       "    Message('note_on', channel=0, note=67, velocity=61, time=1),\n",
       "    Message('note_on', channel=0, note=65, velocity=46, time=5),\n",
       "    Message('note_on', channel=0, note=77, velocity=49, time=1),\n",
       "    Message('note_on', channel=0, note=77, velocity=0, time=4),\n",
       "    Message('note_on', channel=0, note=79, velocity=0, time=15),\n",
       "    Message('note_on', channel=0, note=65, velocity=0, time=66),\n",
       "    Message('note_on', channel=0, note=67, velocity=0, time=6),\n",
       "    Message('note_on', channel=0, note=79, velocity=57, time=139),\n",
       "    Message('note_on', channel=0, note=67, velocity=61, time=2),\n",
       "    Message('note_on', channel=0, note=65, velocity=49, time=6),\n",
       "    Message('note_on', channel=0, note=67, velocity=0, time=53),\n",
       "    Message('note_on', channel=0, note=65, velocity=0, time=11),\n",
       "    Message('note_on', channel=0, note=79, velocity=0, time=9),\n",
       "    Message('note_on', channel=0, note=67, velocity=72, time=134),\n",
       "    Message('note_on', channel=0, note=62, velocity=65, time=1),\n",
       "    Message('note_on', channel=0, note=74, velocity=58, time=0),\n",
       "    Message('note_on', channel=0, note=79, velocity=63, time=1),\n",
       "    Message('note_on', channel=0, note=65, velocity=45, time=33),\n",
       "    Message('note_on', channel=0, note=79, velocity=0, time=23),\n",
       "    Message('note_on', channel=0, note=74, velocity=0, time=23),\n",
       "    Message('note_on', channel=0, note=65, velocity=0, time=7),\n",
       "    Message('note_on', channel=0, note=67, velocity=0, time=20),\n",
       "    Message('note_on', channel=0, note=79, velocity=62, time=132),\n",
       "    Message('note_on', channel=0, note=67, velocity=69, time=1),\n",
       "    Message('note_on', channel=0, note=65, velocity=57, time=4),\n",
       "    Message('note_on', channel=0, note=77, velocity=53, time=1),\n",
       "    Message('note_on', channel=0, note=79, velocity=0, time=19),\n",
       "    Message('note_on', channel=0, note=67, velocity=0, time=19),\n",
       "    Message('note_on', channel=0, note=65, velocity=0, time=2),\n",
       "    Message('note_on', channel=0, note=77, velocity=0, time=2),\n",
       "    Message('note_on', channel=0, note=79, velocity=61, time=177),\n",
       "    Message('note_on', channel=0, note=67, velocity=66, time=3),\n",
       "    Message('note_on', channel=0, note=65, velocity=50, time=18),\n",
       "    Message('note_on', channel=0, note=67, velocity=0, time=23),\n",
       "    Message('note_on', channel=0, note=79, velocity=0, time=10),\n",
       "    Message('note_on', channel=0, note=65, velocity=0, time=4),\n",
       "    Message('note_on', channel=0, note=79, velocity=67, time=170),\n",
       "    Message('note_on', channel=0, note=59, velocity=71, time=1),\n",
       "    Message('note_on', channel=0, note=55, velocity=47, time=0),\n",
       "    Message('note_on', channel=0, note=67, velocity=74, time=4),\n",
       "    Message('note_on', channel=0, note=55, velocity=0, time=5),\n",
       "    Message('note_on', channel=0, note=65, velocity=45, time=22),\n",
       "    Message('note_on', channel=0, note=67, velocity=0, time=32),\n",
       "    Message('note_on', channel=0, note=65, velocity=0, time=4),\n",
       "    Message('note_on', channel=0, note=79, velocity=0, time=73),\n",
       "    Message('note_on', channel=0, note=62, velocity=0, time=7),\n",
       "    Message('note_on', channel=0, note=79, velocity=63, time=97),\n",
       "    Message('note_on', channel=0, note=67, velocity=71, time=0),\n",
       "    Message('note_on', channel=0, note=67, velocity=0, time=48),\n",
       "    Message('note_on', channel=0, note=79, velocity=0, time=70),\n",
       "    Message('note_on', channel=0, note=79, velocity=65, time=127),\n",
       "    Message('note_on', channel=0, note=67, velocity=71, time=0),\n",
       "    Message('note_on', channel=0, note=65, velocity=35, time=37),\n",
       "    Message('note_on', channel=0, note=67, velocity=0, time=16),\n",
       "    Message('note_on', channel=0, note=65, velocity=0, time=16),\n",
       "    Message('note_on', channel=0, note=79, velocity=0, time=35),\n",
       "    Message('note_on', channel=0, note=79, velocity=58, time=165),\n",
       "    Message('note_on', channel=0, note=67, velocity=63, time=1),\n",
       "    Message('note_on', channel=0, note=55, velocity=49, time=5),\n",
       "    Message('note_on', channel=0, note=65, velocity=45, time=18),\n",
       "    Message('note_on', channel=0, note=77, velocity=40, time=6),\n",
       "    Message('note_on', channel=0, note=67, velocity=0, time=132),\n",
       "    Message('note_on', channel=0, note=65, velocity=0, time=5),\n",
       "    Message('note_on', channel=0, note=59, velocity=0, time=0),\n",
       "    Message('note_on', channel=0, note=77, velocity=0, time=13),\n",
       "    Message('note_on', channel=0, note=55, velocity=0, time=34),\n",
       "    Message('note_on', channel=0, note=79, velocity=0, time=36),\n",
       "    Message('note_on', channel=0, note=79, velocity=78, time=751),\n",
       "    Message('note_on', channel=0, note=77, velocity=76, time=3),\n",
       "    Message('note_on', channel=0, note=71, velocity=73, time=2),\n",
       "    Message('note_on', channel=0, note=71, velocity=0, time=37),\n",
       "    Message('note_on', channel=0, note=77, velocity=0, time=19),\n",
       "    Message('note_on', channel=0, note=79, velocity=0, time=25),\n",
       "    Message('note_on', channel=0, note=79, velocity=64, time=165),\n",
       "    Message('note_on', channel=0, note=77, velocity=61, time=3),\n",
       "    Message('note_on', channel=0, note=76, velocity=49, time=3),\n",
       "    Message('note_on', channel=0, note=79, velocity=0, time=22),\n",
       "    Message('note_on', channel=0, note=76, velocity=0, time=10),\n",
       "    Message('note_on', channel=0, note=77, velocity=0, time=22),\n",
       "    Message('note_on', channel=0, note=79, velocity=71, time=154),\n",
       "    Message('note_on', channel=0, note=76, velocity=48, time=6),\n",
       "    Message('note_on', channel=0, note=77, velocity=63, time=1),\n",
       "    Message('note_on', channel=0, note=79, velocity=0, time=22),\n",
       "    Message('note_on', channel=0, note=77, velocity=0, time=34),\n",
       "    Message('note_on', channel=0, note=76, velocity=0, time=3),\n",
       "    Message('note_on', channel=0, note=67, velocity=80, time=168),\n",
       "    Message('note_on', channel=0, note=79, velocity=85, time=3),\n",
       "    Message('note_on', channel=0, note=77, velocity=84, time=2),\n",
       "    Message('note_on', channel=0, note=79, velocity=0, time=67),\n",
       "    Message('note_on', channel=0, note=77, velocity=0, time=12),\n",
       "    Message('note_on', channel=0, note=79, velocity=69, time=146),\n",
       "    Message('note_on', channel=0, note=77, velocity=57, time=8),\n",
       "    Message('note_on', channel=0, note=79, velocity=0, time=29),\n",
       "    Message('note_on', channel=0, note=77, velocity=0, time=15),\n",
       "    Message('note_on', channel=0, note=79, velocity=78, time=161),\n",
       "    Message('note_on', channel=0, note=77, velocity=63, time=7),\n",
       "    Message('note_on', channel=0, note=79, velocity=0, time=32),\n",
       "    Message('note_on', channel=0, note=77, velocity=0, time=15),\n",
       "    Message('note_on', channel=0, note=72, velocity=79, time=168),\n",
       "    Message('note_on', channel=0, note=79, velocity=81, time=6),\n",
       "    Message('note_on', channel=0, note=76, velocity=82, time=2),\n",
       "    Message('note_on', channel=0, note=67, velocity=0, time=12),\n",
       "    Message('note_on', channel=0, note=72, velocity=0, time=10),\n",
       "    Message('note_on', channel=0, note=76, velocity=0, time=2),\n",
       "    Message('note_on', channel=0, note=79, velocity=0, time=18),\n",
       "    Message('note_on', channel=0, note=79, velocity=68, time=179),\n",
       "    Message('note_on', channel=0, note=76, velocity=57, time=8),\n",
       "    Message('note_on', channel=0, note=79, velocity=0, time=18),\n",
       "    Message('note_on', channel=0, note=76, velocity=0, time=26),\n",
       "    Message('note_on', channel=0, note=79, velocity=61, time=165),\n",
       "    Message('note_on', channel=0, note=76, velocity=56, time=3),\n",
       "    Message('note_on', channel=0, note=79, velocity=0, time=20),\n",
       "    Message('note_on', channel=0, note=76, velocity=0, time=27),\n",
       "    Message('note_on', channel=0, note=67, velocity=78, time=158),\n",
       "    Message('note_on', channel=0, note=79, velocity=83, time=6),\n",
       "    Message('note_on', channel=0, note=76, velocity=78, time=2),\n",
       "    Message('note_on', channel=0, note=79, velocity=0, time=23),\n",
       "    Message('note_on', channel=0, note=76, velocity=0, time=34),\n",
       "    Message('note_on', channel=0, note=79, velocity=73, time=163),\n",
       "    Message('note_on', channel=0, note=76, velocity=67, time=1),\n",
       "    Message('note_on', channel=0, note=79, velocity=0, time=30),\n",
       "    Message('note_on', channel=0, note=76, velocity=0, time=1),\n",
       "    Message('note_on', channel=0, note=79, velocity=75, time=184),\n",
       "    Message('note_on', channel=0, note=76, velocity=64, time=8),\n",
       "    Message('note_on', channel=0, note=79, velocity=0, time=19),\n",
       "    Message('note_on', channel=0, note=76, velocity=0, time=31),\n",
       "    Message('note_on', channel=0, note=74, velocity=70, time=157),\n",
       "    Message('note_on', channel=0, note=77, velocity=72, time=8),\n",
       "    Message('note_on', channel=0, note=83, velocity=66, time=4),\n",
       "    Message('note_on', channel=0, note=74, velocity=0, time=33),\n",
       "    Message('note_on', channel=0, note=77, velocity=0, time=18),\n",
       "    Message('note_on', channel=0, note=83, velocity=0, time=8),\n",
       "    Message('note_on', channel=0, note=67, velocity=0, time=3),\n",
       "    Message('note_on', channel=0, note=83, velocity=67, time=157),\n",
       "    Message('note_on', channel=0, note=77, velocity=74, time=0),\n",
       "    Message('note_on', channel=0, note=77, velocity=0, time=43),\n",
       "    Message('note_on', channel=0, note=83, velocity=0, time=5),\n",
       "    Message('note_on', channel=0, note=77, velocity=77, time=170),\n",
       "    Message('note_on', channel=0, note=83, velocity=63, time=2),\n",
       "    Message('note_on', channel=0, note=77, velocity=0, time=42),\n",
       "    Message('note_on', channel=0, note=83, velocity=0, time=11),\n",
       "    Message('note_on', channel=0, note=79, velocity=70, time=151),\n",
       "    Message('note_on', channel=0, note=67, velocity=74, time=5),\n",
       "    Message('note_on', channel=0, note=77, velocity=75, time=14),\n",
       "    Message('note_on', channel=0, note=83, velocity=74, time=2),\n",
       "    Message('note_on', channel=0, note=77, velocity=0, time=62),\n",
       "    Message('note_on', channel=0, note=83, velocity=0, time=2),\n",
       "    Message('note_on', channel=0, note=79, velocity=0, time=2),\n",
       "    Message('note_on', channel=0, note=77, velocity=76, time=155),\n",
       "    Message('note_on', channel=0, note=83, velocity=67, time=1),\n",
       "    Message('note_on', channel=0, note=77, velocity=0, time=45),\n",
       "    Message('note_on', channel=0, note=83, velocity=0, time=10),\n",
       "    Message('note_on', channel=0, note=83, velocity=68, time=159),\n",
       "    Message('note_on', channel=0, note=77, velocity=72, time=1),\n",
       "    Message('note_on', channel=0, note=77, velocity=0, time=54),\n",
       "    Message('note_on', channel=0, note=83, velocity=0, time=32),\n",
       "    Message('note_on', channel=0, note=72, velocity=83, time=129),\n",
       "    Message('note_on', channel=0, note=84, velocity=80, time=4),\n",
       "    Message('note_on', channel=0, note=76, velocity=82, time=1),\n",
       "    Message('note_on', channel=0, note=72, velocity=0, time=20),\n",
       "    Message('note_on', channel=0, note=67, velocity=0, time=3),\n",
       "    Message('note_on', channel=0, note=84, velocity=0, time=5),\n",
       "    Message('note_on', channel=0, note=76, velocity=0, time=18),\n",
       "    Message('note_on', channel=0, note=76, velocity=75, time=427),\n",
       "    Message('note_on', channel=0, note=84, velocity=68, time=0),\n",
       "    Message('note_on', channel=0, note=76, velocity=0, time=30),\n",
       "    Message('note_on', channel=0, note=84, velocity=0, time=35),\n",
       "    Message('note_on', channel=0, note=79, velocity=69, time=155),\n",
       "    Message('note_on', channel=0, note=84, velocity=77, time=4),\n",
       "    Message('note_on', channel=0, note=67, velocity=67, time=1),\n",
       "    Message('note_on', channel=0, note=76, velocity=82, time=1),\n",
       "    Message('note_on', channel=0, note=76, velocity=0, time=36),\n",
       "    Message('note_on', channel=0, note=83, velocity=71, time=185),\n",
       "    Message('note_on', channel=0, note=76, velocity=72, time=1),\n",
       "    Message('note_on', channel=0, note=76, velocity=0, time=36),\n",
       "    Message('note_on', channel=0, note=83, velocity=0, time=15),\n",
       "    Message('note_on', channel=0, note=84, velocity=0, time=4),\n",
       "    Message('note_on', channel=0, note=79, velocity=0, time=7),\n",
       "    Message('note_on', channel=0, note=81, velocity=72, time=157),\n",
       "    Message('note_on', channel=0, note=76, velocity=70, time=1),\n",
       "    Message('note_on', channel=0, note=76, velocity=0, time=32),\n",
       "    Message('note_on', channel=0, note=81, velocity=0, time=6),\n",
       "    Message('note_on', channel=0, note=79, velocity=75, time=186),\n",
       "    Message('note_on', channel=0, note=71, velocity=64, time=5),\n",
       "    Message('note_on', channel=0, note=77, velocity=71, time=1),\n",
       "    Message('note_on', channel=0, note=79, velocity=0, time=27),\n",
       "    Message('note_on', channel=0, note=71, velocity=0, time=5),\n",
       "    Message('note_on', channel=0, note=77, velocity=0, time=6),\n",
       "    Message('note_on', channel=0, note=67, velocity=0, time=20),\n",
       "    Message('note_on', channel=0, note=79, velocity=56, time=162),\n",
       "    Message('note_on', channel=0, note=77, velocity=56, time=2),\n",
       "    Message('note_on', channel=0, note=79, velocity=0, time=24),\n",
       "    Message('note_on', channel=0, note=77, velocity=0, time=7),\n",
       "    Message('note_on', channel=0, note=79, velocity=67, time=186),\n",
       "    Message('note_on', channel=0, note=77, velocity=52, time=8),\n",
       "    Message('note_on', channel=0, note=79, velocity=0, time=22),\n",
       "    Message('note_on', channel=0, note=77, velocity=0, time=7),\n",
       "    Message('note_on', channel=0, note=67, velocity=73, time=167),\n",
       "    Message('note_on', channel=0, note=79, velocity=79, time=2),\n",
       "    Message('note_on', channel=0, note=77, velocity=70, time=17),\n",
       "    Message('note_on', channel=0, note=79, velocity=0, time=37),\n",
       "    Message('note_on', channel=0, note=77, velocity=0, time=9),\n",
       "    Message('note_on', channel=0, note=79, velocity=66, time=155),\n",
       "    Message('note_on', channel=0, note=77, velocity=57, time=7),\n",
       "    Message('note_on', channel=0, note=79, velocity=0, time=34),\n",
       "    Message('note_on', channel=0, note=77, velocity=0, time=32),\n",
       "    Message('note_on', channel=0, note=79, velocity=72, time=158),\n",
       "    Message('note_on', channel=0, note=77, velocity=69, time=6),\n",
       "    Message('note_on', channel=0, note=79, velocity=0, time=30),\n",
       "    Message('note_on', channel=0, note=77, velocity=0, time=21),\n",
       "    Message('note_on', channel=0, note=72, velocity=75, time=146),\n",
       "    Message('note_on', channel=0, note=79, velocity=70, time=21),\n",
       "    Message('note_on', channel=0, note=76, velocity=69, time=2),\n",
       "    Message('note_on', channel=0, note=67, velocity=0, time=5),\n",
       "    Message('note_on', channel=0, note=76, velocity=0, time=20),\n",
       "    Message('note_on', channel=0, note=79, velocity=0, time=18),\n",
       "    Message('note_on', channel=0, note=72, velocity=0, time=42),\n",
       "    Message('note_on', channel=0, note=79, velocity=64, time=122),\n",
       "    Message('note_on', channel=0, note=76, velocity=56, time=3),\n",
       "    Message('note_on', channel=0, note=79, velocity=0, time=22),\n",
       "    Message('note_on', channel=0, note=76, velocity=0, time=26),\n",
       "    Message('note_on', channel=0, note=79, velocity=63, time=157),\n",
       "    Message('note_on', channel=0, note=76, velocity=60, time=1),\n",
       "    Message('note_on', channel=0, note=76, velocity=0, time=26),\n",
       "    Message('note_on', channel=0, note=79, velocity=0, time=3),\n",
       "    Message('note_on', channel=0, note=67, velocity=70, time=195),\n",
       "    Message('note_on', channel=0, note=79, velocity=80, time=3),\n",
       "    Message('note_on', channel=0, note=76, velocity=72, time=3),\n",
       "    Message('note_on', channel=0, note=79, velocity=0, time=31),\n",
       "    Message('note_on', channel=0, note=76, velocity=0, time=5),\n",
       "    Message('note_on', channel=0, note=79, velocity=69, time=165),\n",
       "    Message('note_on', channel=0, note=76, velocity=66, time=2),\n",
       "    Message('note_on', channel=0, note=76, velocity=0, time=29),\n",
       "    Message('note_on', channel=0, note=79, velocity=0, time=1),\n",
       "    Message('note_on', channel=0, note=79, velocity=72, time=196),\n",
       "    Message('note_on', channel=0, note=76, velocity=67, time=1),\n",
       "    Message('note_on', channel=0, note=79, velocity=0, time=27),\n",
       "    Message('note_on', channel=0, note=76, velocity=0, time=3),\n",
       "    Message('note_on', channel=0, note=77, velocity=85, time=179),\n",
       "    Message('note_on', channel=0, note=74, velocity=75, time=0),\n",
       "    Message('note_on', channel=0, note=83, velocity=76, time=4),\n",
       "    Message('note_on', channel=0, note=77, velocity=0, time=46),\n",
       "    Message('note_on', channel=0, note=67, velocity=0, time=22),\n",
       "    Message('note_on', channel=0, note=83, velocity=0, time=4),\n",
       "    Message('note_on', channel=0, note=74, velocity=0, time=9),\n",
       "    Message('note_on', channel=0, note=77, velocity=73, time=147),\n",
       "    Message('note_on', channel=0, note=83, velocity=65, time=2),\n",
       "    Message('note_on', channel=0, note=77, velocity=0, time=52),\n",
       "    Message('note_on', channel=0, note=83, velocity=0, time=1),\n",
       "    Message('note_on', channel=0, note=83, velocity=62, time=151),\n",
       "    Message('note_on', channel=0, note=77, velocity=65, time=3),\n",
       "    Message('note_on', channel=0, note=77, velocity=0, time=44),\n",
       "    Message('note_on', channel=0, note=83, velocity=0, time=3),\n",
       "    Message('note_on', channel=0, note=79, velocity=73, time=154),\n",
       "    Message('note_on', channel=0, note=67, velocity=79, time=2),\n",
       "    Message('note_on', channel=0, note=77, velocity=79, time=18),\n",
       "    Message('note_on', channel=0, note=83, velocity=78, time=4),\n",
       "    Message('note_on', channel=0, note=77, velocity=0, time=58),\n",
       "    Message('note_on', channel=0, note=83, velocity=0, time=3),\n",
       "    Message('note_on', channel=0, note=79, velocity=0, time=13),\n",
       "    Message('note_on', channel=0, note=77, velocity=74, time=132),\n",
       "    Message('note_on', channel=0, note=83, velocity=67, time=1),\n",
       "    Message('note_on', channel=0, note=77, velocity=0, time=49),\n",
       "    Message('note_on', channel=0, note=83, velocity=0, time=15),\n",
       "    Message('note_on', channel=0, note=83, velocity=67, time=138),\n",
       "    Message('note_on', channel=0, note=77, velocity=75, time=1),\n",
       "    Message('note_on', channel=0, note=77, velocity=0, time=57),\n",
       "    Message('note_on', channel=0, note=83, velocity=0, time=25),\n",
       "    Message('note_on', channel=0, note=84, velocity=79, time=140),\n",
       "    Message('note_on', channel=0, note=72, velocity=79, time=0),\n",
       "    Message('note_on', channel=0, note=76, velocity=84, time=0),\n",
       "    Message('note_on', channel=0, note=67, velocity=0, time=25),\n",
       "    Message('note_on', channel=0, note=76, velocity=0, time=8),\n",
       "    Message('note_on', channel=0, note=72, velocity=0, time=2),\n",
       "    Message('note_on', channel=0, note=84, velocity=0, time=13),\n",
       "    Message('note_on', channel=0, note=79, velocity=61, time=450),\n",
       "    Message('note_on', channel=0, note=67, velocity=67, time=1),\n",
       "    Message('note_on', channel=0, note=84, velocity=73, time=230),\n",
       "    Message('note_on', channel=0, note=72, velocity=68, time=2),\n",
       "    Message('note_on', channel=0, note=76, velocity=74, time=0),\n",
       "    Message('note_on', channel=0, note=60, velocity=71, time=4),\n",
       "    Message('note_on', channel=0, note=72, velocity=0, time=5),\n",
       "    Message('note_on', channel=0, note=79, velocity=0, time=39),\n",
       "    Message('note_on', channel=0, note=84, velocity=0, time=12),\n",
       "    Message('note_on', channel=0, note=76, velocity=0, time=6),\n",
       "    Message('note_on', channel=0, note=67, velocity=0, time=9),\n",
       "    Message('note_on', channel=0, note=60, velocity=0, time=6),\n",
       "    Message('note_on', channel=0, note=67, velocity=70, time=749),\n",
       "    Message('note_on', channel=0, note=79, velocity=63, time=0),\n",
       "    Message('note_on', channel=0, note=59, velocity=71, time=4),\n",
       "    Message('note_on', channel=0, note=77, velocity=56, time=0),\n",
       "    Message('note_on', channel=0, note=65, velocity=54, time=1),\n",
       "    Message('note_on', channel=0, note=79, velocity=0, time=3),\n",
       "    Message('note_on', channel=0, note=65, velocity=0, time=42),\n",
       "    Message('note_on', channel=0, note=67, velocity=0, time=6),\n",
       "    Message('note_on', channel=0, note=77, velocity=0, time=44),\n",
       "    Message('note_on', channel=0, note=59, velocity=0, time=10),\n",
       "    Message('note_on', channel=0, note=79, velocity=57, time=117),\n",
       "    Message('note_on', channel=0, note=67, velocity=58, time=1),\n",
       "    Message('note_on', channel=0, note=65, velocity=48, time=4),\n",
       "    Message('note_on', channel=0, note=79, velocity=0, time=25),\n",
       "    Message('note_on', channel=0, note=67, velocity=0, time=9),\n",
       "    Message('note_on', channel=0, note=65, velocity=0, time=5),\n",
       "    Message('note_on', channel=0, note=79, velocity=60, time=165),\n",
       "    Message('note_on', channel=0, note=67, velocity=64, time=1),\n",
       "    Message('note_on', channel=0, note=79, velocity=0, time=34),\n",
       "    Message('note_on', channel=0, note=67, velocity=0, time=1),\n",
       "    Message('note_on', channel=0, note=55, velocity=79, time=178),\n",
       "    Message('note_on', channel=0, note=79, velocity=67, time=4),\n",
       "    Message('note_on', channel=0, note=67, velocity=72, time=11),\n",
       "    Message('note_on', channel=0, note=65, velocity=57, time=10),\n",
       "    Message('note_on', channel=0, note=65, velocity=0, time=74),\n",
       "    Message('note_on', channel=0, note=67, velocity=0, time=16),\n",
       "    Message('note_on', channel=0, note=79, velocity=0, time=103),\n",
       "    Message('note_on', channel=0, note=79, velocity=62, time=11),\n",
       "    Message('note_on', channel=0, note=67, velocity=66, time=2),\n",
       "    Message('note_on', channel=0, note=65, velocity=52, time=8),\n",
       "    Message('note_on', channel=0, note=55, velocity=0, time=10),\n",
       "    Message('note_on', channel=0, note=55, velocity=39, time=11),\n",
       "    Message('note_on', channel=0, note=67, velocity=0, time=16),\n",
       "    Message('note_on', channel=0, note=65, velocity=0, time=6),\n",
       "    Message('note_on', channel=0, note=79, velocity=0, time=36),\n",
       "    Message('note_on', channel=0, note=55, velocity=0, time=115),\n",
       "    Message('note_on', channel=0, note=79, velocity=64, time=3),\n",
       "    Message('note_on', channel=0, note=67, velocity=68, time=2),\n",
       "    Message('note_on', channel=0, note=55, velocity=53, time=4),\n",
       "    Message('note_on', channel=0, note=65, velocity=55, time=0),\n",
       "    Message('note_on', channel=0, note=67, velocity=0, time=41),\n",
       "    Message('note_on', channel=0, note=65, velocity=0, time=1),\n",
       "    Message('note_on', channel=0, note=60, velocity=72, time=164),\n",
       "    Message('note_on', channel=0, note=79, velocity=0, time=8),\n",
       "    Message('note_on', channel=0, note=52, velocity=54, time=10),\n",
       "    Message('note_on', channel=0, note=79, velocity=69, time=1),\n",
       "    Message('note_on', channel=0, note=64, velocity=70, time=2),\n",
       "    Message('note_on', channel=0, note=67, velocity=71, time=0),\n",
       "    Message('note_on', channel=0, note=52, velocity=0, time=2),\n",
       "    Message('note_on', channel=0, note=79, velocity=0, time=42),\n",
       "    Message('note_on', channel=0, note=67, velocity=0, time=2),\n",
       "    Message('note_on', channel=0, note=55, velocity=0, time=1),\n",
       "    Message('note_on', channel=0, note=64, velocity=0, time=1),\n",
       "    Message('note_on', channel=0, note=60, velocity=0, time=43),\n",
       "    Message('note_on', channel=0, note=79, velocity=59, time=131),\n",
       "    Message('note_on', channel=0, note=67, velocity=64, time=1),\n",
       "    Message('note_on', channel=0, note=64, velocity=57, time=5),\n",
       "    Message('note_on', channel=0, note=79, velocity=0, time=27),\n",
       "    Message('note_on', channel=0, note=67, velocity=0, time=4),\n",
       "    Message('note_on', channel=0, note=64, velocity=0, time=6),\n",
       "    Message('note_on', channel=0, note=67, velocity=62, time=166),\n",
       "    Message('note_on', channel=0, note=79, velocity=58, time=0),\n",
       "    Message('note_on', channel=0, note=64, velocity=55, time=5),\n",
       "    Message('note_on', channel=0, note=79, velocity=0, time=28),\n",
       "    Message('note_on', channel=0, note=67, velocity=0, time=3),\n",
       "    Message('note_on', channel=0, note=64, velocity=0, time=3),\n",
       "    Message('note_on', channel=0, note=55, velocity=77, time=166),\n",
       "    Message('note_on', channel=0, note=79, velocity=71, time=6),\n",
       "    Message('note_on', channel=0, note=67, velocity=78, time=6),\n",
       "    Message('note_on', channel=0, note=64, velocity=71, time=6),\n",
       "    Message('note_on', channel=0, note=55, velocity=0, time=8),\n",
       "    Message('note_on', channel=0, note=76, velocity=64, time=0),\n",
       "    Message('note_on', channel=0, note=64, velocity=0, time=47),\n",
       "    Message('note_on', channel=0, note=67, velocity=0, time=41),\n",
       "    Message('note_on', channel=0, note=79, velocity=0, time=28),\n",
       "    Message('note_on', channel=0, note=79, velocity=62, time=81),\n",
       "    Message('note_on', channel=0, note=67, velocity=67, time=3),\n",
       "    Message('note_on', channel=0, note=64, velocity=60, time=4),\n",
       "    Message('note_on', channel=0, note=55, velocity=55, time=1),\n",
       "    Message('note_on', channel=0, note=79, velocity=0, time=47),\n",
       "    Message('note_on', channel=0, note=67, velocity=0, time=11),\n",
       "    Message('note_on', channel=0, note=64, velocity=0, time=0),\n",
       "    Message('note_on', channel=0, note=76, velocity=0, time=22),\n",
       "    Message('note_on', channel=0, note=79, velocity=67, time=118),\n",
       "    Message('note_on', channel=0, note=67, velocity=73, time=1),\n",
       "    Message('note_on', channel=0, note=55, velocity=0, time=19),\n",
       "    Message('note_on', channel=0, note=64, velocity=52, time=2),\n",
       "    Message('note_on', channel=0, note=55, velocity=45, time=5),\n",
       "    Message('note_on', channel=0, note=67, velocity=0, time=28),\n",
       "    Message('note_on', channel=0, note=64, velocity=0, time=0),\n",
       "    Message('note_on', channel=0, note=71, velocity=76, time=171),\n",
       "    Message('note_on', channel=0, note=74, velocity=65, time=3),\n",
       "    Message('note_on', channel=0, note=65, velocity=72, time=1),\n",
       "    Message('note_on', channel=0, note=62, velocity=69, time=1),\n",
       "    Message('note_on', channel=0, note=77, velocity=60, time=1),\n",
       "    Message('note_on', channel=0, note=79, velocity=0, time=26),\n",
       "    Message('note_on', channel=0, note=55, velocity=0, time=20),\n",
       "    Message('note_on', channel=0, note=65, velocity=0, time=23),\n",
       "    Message('note_on', channel=0, note=77, velocity=0, time=3),\n",
       "    Message('note_on', channel=0, note=71, velocity=0, time=16),\n",
       "    Message('note_on', channel=0, note=74, velocity=0, time=23),\n",
       "    Message('note_on', channel=0, note=62, velocity=0, time=31),\n",
       "    Message('note_on', channel=0, note=65, velocity=65, time=80),\n",
       "    Message('note_on', channel=0, note=71, velocity=62, time=1),\n",
       "    Message('note_on', channel=0, note=77, velocity=55, time=2),\n",
       "    Message('note_on', channel=0, note=65, velocity=0, time=31),\n",
       "    Message('note_on', channel=0, note=71, velocity=0, time=8),\n",
       "    Message('note_on', channel=0, note=77, velocity=0, time=39),\n",
       "    Message('note_on', channel=0, note=71, velocity=71, time=127),\n",
       "    Message('note_on', channel=0, note=65, velocity=66, time=2),\n",
       "    Message('note_on', channel=0, note=77, velocity=60, time=1),\n",
       "    Message('note_on', channel=0, note=65, velocity=0, time=37),\n",
       "    Message('note_on', channel=0, note=71, velocity=0, time=3),\n",
       "    Message('note_on', channel=0, note=77, velocity=0, time=13),\n",
       "    Message('note_on', channel=0, note=55, velocity=79, time=165),\n",
       "    Message('note_on', channel=0, note=65, velocity=75, time=10),\n",
       "    Message('note_on', channel=0, note=71, velocity=79, time=2),\n",
       "    Message('note_on', channel=0, note=77, velocity=51, time=13),\n",
       "    Message('note_on', channel=0, note=65, velocity=0, time=87),\n",
       "    Message('note_on', channel=0, note=71, velocity=0, time=1),\n",
       "    Message('note_on', channel=0, note=77, velocity=0, time=30),\n",
       "    Message('note_on', channel=0, note=55, velocity=0, time=69),\n",
       "    Message('note_on', channel=0, note=65, velocity=66, time=6),\n",
       "    Message('note_on', channel=0, note=55, velocity=57, time=5),\n",
       "    Message('note_on', channel=0, note=77, velocity=60, time=0),\n",
       "    Message('note_on', channel=0, note=71, velocity=64, time=1),\n",
       "    Message('note_on', channel=0, note=65, velocity=0, time=87),\n",
       "    Message('note_on', channel=0, note=71, velocity=0, time=1),\n",
       "    Message('note_on', channel=0, note=55, velocity=0, time=108),\n",
       "    Message('note_on', channel=0, note=71, velocity=72, time=8),\n",
       "    Message('note_on', channel=0, note=55, velocity=59, time=1),\n",
       "    Message('note_on', channel=0, note=65, velocity=68, time=1),\n",
       "    Message('note_on', channel=0, note=77, velocity=0, time=74),\n",
       "    Message('note_on', channel=0, note=65, velocity=0, time=5),\n",
       "    Message('note_on', channel=0, note=71, velocity=0, time=18),\n",
       "    Message('note_on', channel=0, note=64, velocity=85, time=120),\n",
       "    Message('note_on', channel=0, note=72, velocity=82, time=0),\n",
       "    Message('note_on', channel=0, note=60, velocity=78, time=0),\n",
       "    Message('note_on', channel=0, note=60, velocity=0, time=47),\n",
       "    Message('note_on', channel=0, note=55, velocity=0, time=2),\n",
       "    Message('note_on', channel=0, note=64, velocity=0, time=54),\n",
       "    Message('note_on', channel=0, note=72, velocity=0, time=0),\n",
       "    Message('note_on', channel=0, note=72, velocity=74, time=355),\n",
       "    Message('note_on', channel=0, note=64, velocity=75, time=0),\n",
       "    Message('note_on', channel=0, note=64, velocity=0, time=38),\n",
       "    Message('note_on', channel=0, note=72, velocity=0, time=2),\n",
       "    Message('note_on', channel=0, note=55, velocity=81, time=170),\n",
       "    Message('note_on', channel=0, note=72, velocity=83, time=6),\n",
       "    Message('note_on', channel=0, note=64, velocity=82, time=1),\n",
       "    Message('note_on', channel=0, note=64, velocity=0, time=101),\n",
       "    Message('note_on', channel=0, note=72, velocity=0, time=11),\n",
       "    Message('note_on', channel=0, note=55, velocity=0, time=99),\n",
       "    Message('note_on', channel=0, note=64, velocity=71, time=3),\n",
       "    Message('note_on', channel=0, note=76, velocity=64, time=1),\n",
       "    Message('note_on', channel=0, note=71, velocity=70, time=1),\n",
       "    Message('note_on', channel=0, note=55, velocity=60, time=0),\n",
       "    Message('note_on', channel=0, note=64, velocity=0, time=95),\n",
       "    Message('note_on', channel=0, note=71, velocity=0, time=0),\n",
       "    Message('note_on', channel=0, note=76, velocity=0, time=0),\n",
       "    Message('note_on', channel=0, note=81, velocity=68, time=134),\n",
       "    Message('note_on', channel=0, note=64, velocity=68, time=3),\n",
       "    Message('note_on', channel=0, note=69, velocity=72, time=0),\n",
       "    Message('note_on', channel=0, note=67, velocity=61, time=3),\n",
       "    Message('note_on', channel=0, note=55, velocity=0, time=14),\n",
       "    Message('note_on', channel=0, note=69, velocity=0, time=27),\n",
       "    Message('note_on', channel=0, note=64, velocity=0, time=12),\n",
       "    Message('note_on', channel=0, note=81, velocity=0, time=22),\n",
       "    Message('note_on', channel=0, note=67, velocity=0, time=16),\n",
       "    Message('note_on', channel=0, note=59, velocity=78, time=113),\n",
       "    Message('note_on', channel=0, note=79, velocity=61, time=3),\n",
       "    Message('note_on', channel=0, note=55, velocity=55, time=2),\n",
       "    Message('note_on', channel=0, note=67, velocity=66, time=3),\n",
       "    Message('note_on', channel=0, note=65, velocity=63, time=0),\n",
       "    Message('note_on', channel=0, note=79, velocity=0, time=2),\n",
       "    Message('note_on', channel=0, note=67, velocity=0, time=50),\n",
       "    Message('note_on', channel=0, note=65, velocity=0, time=1),\n",
       "    Message('note_on', channel=0, note=55, velocity=0, time=2),\n",
       "    Message('note_on', channel=0, note=59, velocity=0, time=3),\n",
       "    Message('note_on', channel=0, note=79, velocity=54, time=163),\n",
       "    Message('note_on', channel=0, note=67, velocity=59, time=0),\n",
       "    Message('note_on', channel=0, note=79, velocity=0, time=31),\n",
       "    Message('note_on', channel=0, note=67, velocity=0, time=4),\n",
       "    Message('note_on', channel=0, note=79, velocity=62, time=164),\n",
       "    Message('note_on', channel=0, note=67, velocity=70, time=2),\n",
       "    Message('note_on', channel=0, note=65, velocity=56, time=1),\n",
       "    Message('note_on', channel=0, note=79, velocity=0, time=28),\n",
       "    Message('note_on', channel=0, note=67, velocity=0, time=4),\n",
       "    Message('note_on', channel=0, note=65, velocity=0, time=2),\n",
       "    Message('note_on', channel=0, note=55, velocity=77, time=164),\n",
       "    Message('note_on', channel=0, note=79, velocity=65, time=6),\n",
       "    Message('note_on', channel=0, note=67, velocity=72, time=10),\n",
       "    Message('note_on', channel=0, note=65, velocity=64, time=8),\n",
       "    Message('note_on', channel=0, note=77, velocity=55, time=0),\n",
       "    Message('note_on', channel=0, note=79, velocity=0, time=36),\n",
       "    Message('note_on', channel=0, note=67, velocity=0, time=26),\n",
       "    Message('note_on', channel=0, note=65, velocity=0, time=10),\n",
       "    Message('note_on', channel=0, note=77, velocity=0, time=68),\n",
       "    Message('note_on', channel=0, note=79, velocity=57, time=69),\n",
       "    Message('note_on', channel=0, note=67, velocity=62, time=3),\n",
       "    Message('note_on', channel=0, note=65, velocity=52, time=2),\n",
       "    Message('note_on', channel=0, note=67, velocity=0, time=36),\n",
       "    Message('note_on', channel=0, note=65, velocity=0, time=9),\n",
       "    Message('note_on', channel=0, note=79, velocity=0, time=142),\n",
       "    Message('note_on', channel=0, note=79, velocity=64, time=5),\n",
       "    Message('note_on', channel=0, note=67, velocity=72, time=0),\n",
       "    Message('note_on', channel=0, note=67, velocity=0, time=42),\n",
       "    Message('note_on', channel=0, note=79, velocity=0, time=68),\n",
       "    Message('note_on', channel=0, note=60, velocity=79, time=103),\n",
       "    Message('note_on', channel=0, note=64, velocity=73, time=1),\n",
       "    Message('note_on', channel=0, note=79, velocity=71, time=0),\n",
       "    Message('note_on', channel=0, note=76, velocity=68, time=3),\n",
       "    Message('note_on', channel=0, note=67, velocity=74, time=1),\n",
       "    Message('note_on', channel=0, note=79, velocity=0, time=41),\n",
       "    Message('note_on', channel=0, note=67, velocity=0, time=1),\n",
       "    Message('note_on', channel=0, note=55, velocity=0, time=4),\n",
       "    Message('note_on', channel=0, note=64, velocity=0, time=2),\n",
       "    Message('note_on', channel=0, note=76, velocity=0, time=2),\n",
       "    Message('note_on', channel=0, note=60, velocity=0, time=62),\n",
       "    Message('note_on', channel=0, note=79, velocity=63, time=106),\n",
       "    Message('note_on', channel=0, note=67, velocity=66, time=1),\n",
       "    Message('note_on', channel=0, note=64, velocity=27, time=31),\n",
       "    Message('note_on', channel=0, note=79, velocity=0, time=7),\n",
       "    Message('note_on', channel=0, note=67, velocity=0, time=1),\n",
       "    Message('note_on', channel=0, note=64, velocity=0, time=34),\n",
       "    Message('note_on', channel=0, note=64, velocity=58, time=119),\n",
       "    Message('note_on', channel=0, note=67, velocity=67, time=2),\n",
       "    Message('note_on', channel=0, note=79, velocity=66, time=0),\n",
       "    Message('note_on', channel=0, note=79, velocity=0, time=37),\n",
       "    Message('note_on', channel=0, note=67, velocity=0, time=7),\n",
       "    Message('note_on', channel=0, note=64, velocity=0, time=4),\n",
       "    Message('note_on', channel=0, note=55, velocity=75, time=146),\n",
       "    Message('note_on', channel=0, note=79, velocity=68, time=5),\n",
       "    Message('note_on', channel=0, note=79, velocity=0, time=10),\n",
       "    Message('note_on', channel=0, note=67, velocity=76, time=4),\n",
       "    Message('note_on', channel=0, note=64, velocity=63, time=22),\n",
       "    Message('note_on', channel=0, note=64, velocity=0, time=76),\n",
       "    Message('note_on', channel=0, note=67, velocity=0, time=6),\n",
       "    Message('note_on', channel=0, note=79, velocity=59, time=103),\n",
       "    Message('note_on', channel=0, note=67, velocity=67, time=1),\n",
       "    Message('note_on', channel=0, note=64, velocity=58, time=3),\n",
       "    Message('note_on', channel=0, note=76, velocity=55, time=2),\n",
       "    Message('note_on', channel=0, note=67, velocity=0, time=63),\n",
       "    Message('note_on', channel=0, note=64, velocity=0, time=1),\n",
       "    Message('note_on', channel=0, note=79, velocity=0, time=41),\n",
       "    Message('note_on', channel=0, note=79, velocity=62, time=107),\n",
       "    Message('note_on', channel=0, note=67, velocity=67, time=4),\n",
       "    Message('note_on', channel=0, note=64, velocity=58, time=8),\n",
       "    Message('note_on', channel=0, note=64, velocity=0, time=79),\n",
       "    Message('note_on', channel=0, note=55, velocity=0, time=2),\n",
       "    Message('note_on', channel=0, note=67, velocity=0, time=3),\n",
       "    Message('note_on', channel=0, note=76, velocity=0, time=20),\n",
       "    Message('note_on', channel=0, note=79, velocity=0, time=92),\n",
       "    Message('note_on', channel=0, note=71, velocity=82, time=5),\n",
       "    Message('note_on', channel=0, note=65, velocity=76, time=1),\n",
       "    Message('note_on', channel=0, note=79, velocity=71, time=0),\n",
       "    Message('note_on', channel=0, note=62, velocity=74, time=1),\n",
       "    Message('note_on', channel=0, note=74, velocity=70, time=2),\n",
       "    Message('note_on', channel=0, note=65, velocity=0, time=82),\n",
       "    Message('note_on', channel=0, note=71, velocity=0, time=5),\n",
       "    Message('note_on', channel=0, note=74, velocity=0, time=50),\n",
       "    Message('note_on', channel=0, note=62, velocity=0, time=85),\n",
       "    Message('note_on', channel=0, note=65, velocity=68, time=8),\n",
       "    Message('note_on', channel=0, note=77, velocity=54, time=3),\n",
       "    Message('note_on', channel=0, note=71, velocity=66, time=1),\n",
       "    Message('note_on', channel=0, note=79, velocity=0, time=18),\n",
       "    Message('note_on', channel=0, note=65, velocity=0, time=21),\n",
       "    Message('note_on', channel=0, note=71, velocity=0, time=5),\n",
       "    Message('note_on', channel=0, note=77, velocity=0, time=36),\n",
       "    Message('note_on', channel=0, note=83, velocity=62, time=110),\n",
       "    Message('note_on', channel=0, note=65, velocity=70, time=1),\n",
       "    Message('note_on', channel=0, note=71, velocity=69, time=1),\n",
       "    Message('note_on', channel=0, note=77, velocity=60, time=1),\n",
       "    Message('note_on', channel=0, note=83, velocity=0, time=2),\n",
       "    Message('note_on', channel=0, note=65, velocity=0, time=35),\n",
       "    Message('note_on', channel=0, note=71, velocity=0, time=1),\n",
       "    Message('note_on', channel=0, note=77, velocity=0, time=33),\n",
       "    Message('note_on', channel=0, note=55, velocity=81, time=140),\n",
       "    Message('note_on', channel=0, note=65, velocity=77, time=13),\n",
       "    Message('note_on', channel=0, note=71, velocity=81, time=0),\n",
       "    Message('note_on', channel=0, note=77, velocity=63, time=7),\n",
       "    Message('note_on', channel=0, note=65, velocity=0, time=93),\n",
       "    Message('note_on', channel=0, note=71, velocity=0, time=4),\n",
       "    Message('note_on', channel=0, note=55, velocity=0, time=96),\n",
       "    Message('note_on', channel=0, note=77, velocity=0, time=0),\n",
       "    Message('note_on', channel=0, note=71, velocity=74, time=4),\n",
       "    Message('note_on', channel=0, note=65, velocity=68, time=1),\n",
       "    Message('note_on', channel=0, note=77, velocity=62, time=0),\n",
       "    Message('note_on', channel=0, note=55, velocity=61, time=5),\n",
       "    Message('note_on', channel=0, note=65, velocity=0, time=76),\n",
       "    Message('note_on', channel=0, note=71, velocity=0, time=22),\n",
       "    Message('note_on', channel=0, note=77, velocity=0, time=31),\n",
       "    Message('note_on', channel=0, note=55, velocity=0, time=69),\n",
       "    Message('note_on', channel=0, note=55, velocity=60, time=5),\n",
       "    Message('note_on', channel=0, note=65, velocity=70, time=1),\n",
       "    Message('note_on', channel=0, note=77, velocity=65, time=0),\n",
       "    Message('note_on', channel=0, note=71, velocity=73, time=1),\n",
       "    Message('note_on', channel=0, note=65, velocity=0, time=44),\n",
       "    Message('note_on', channel=0, note=77, velocity=0, time=49),\n",
       "    Message('note_on', channel=0, note=71, velocity=0, time=7),\n",
       "    Message('note_on', channel=0, note=55, velocity=0, time=100),\n",
       "    Message('note_on', channel=0, note=72, velocity=90, time=4),\n",
       "    Message('note_on', channel=0, note=64, velocity=86, time=1),\n",
       "    Message('note_on', channel=0, note=55, velocity=69, time=4),\n",
       "    Message('note_on', channel=0, note=60, velocity=81, time=0),\n",
       "    Message('note_on', channel=0, note=55, velocity=0, time=48),\n",
       "    Message('note_on', channel=0, note=64, velocity=0, time=48),\n",
       "    Message('note_on', channel=0, note=72, velocity=0, time=10),\n",
       "    Message('note_on', channel=0, note=60, velocity=0, time=8),\n",
       "    Message('note_on', channel=0, note=55, velocity=80, time=350),\n",
       "    Message('note_on', channel=0, note=55, velocity=0, time=72),\n",
       "    Message('note_on', channel=0, note=72, velocity=85, time=151),\n",
       "    Message('note_on', channel=0, note=64, velocity=80, time=1),\n",
       "    Message('note_on', channel=0, note=55, velocity=66, time=2),\n",
       "    Message('note_on', channel=0, note=60, velocity=72, time=2),\n",
       "    Message('note_on', channel=0, note=48, velocity=73, time=0),\n",
       "    Message('note_on', channel=0, note=55, velocity=0, time=42),\n",
       "    Message('note_on', channel=0, note=64, velocity=0, time=1),\n",
       "    Message('note_on', channel=0, note=72, velocity=0, time=63),\n",
       "    Message('note_on', channel=0, note=48, velocity=0, time=0),\n",
       "    Message('note_on', channel=0, note=60, velocity=0, time=23),\n",
       "    Message('control_change', channel=0, control=64, value=127, time=668),\n",
       "    Message('note_on', channel=0, note=79, velocity=71, time=19),\n",
       "    Message('note_on', channel=0, note=79, velocity=0, time=45),\n",
       "    Message('control_change', channel=0, control=64, value=0, time=36),\n",
       "    Message('note_on', channel=0, note=79, velocity=69, time=136),\n",
       "    Message('note_on', channel=0, note=79, velocity=0, time=37),\n",
       "    Message('note_on', channel=0, note=79, velocity=80, time=168),\n",
       "    Message('note_on', channel=0, note=79, velocity=0, time=39),\n",
       "    Message('note_on', channel=0, note=79, velocity=80, time=177),\n",
       "    Message('note_on', channel=0, note=77, velocity=82, time=5),\n",
       "    Message('note_on', channel=0, note=79, velocity=0, time=54),\n",
       "    Message('note_on', channel=0, note=77, velocity=0, time=5),\n",
       "    Message('note_on', channel=0, note=79, velocity=73, time=151),\n",
       "    Message('note_on', channel=0, note=77, velocity=74, time=5),\n",
       "    Message('note_on', channel=0, note=79, velocity=0, time=35),\n",
       "    Message('note_on', channel=0, note=77, velocity=0, time=22),\n",
       "    Message('note_on', channel=0, note=79, velocity=78, time=145),\n",
       "    Message('note_on', channel=0, note=79, velocity=0, time=25),\n",
       "    Message('note_on', channel=0, note=74, velocity=87, time=179),\n",
       "    Message('note_on', channel=0, note=79, velocity=89, time=4),\n",
       "    Message('note_on', channel=0, note=77, velocity=82, time=7),\n",
       "    Message('note_on', channel=0, note=79, velocity=0, time=49),\n",
       "    Message('note_on', channel=0, note=77, velocity=0, time=15),\n",
       "    Message('note_on', channel=0, note=79, velocity=79, time=149),\n",
       "    Message('note_on', channel=0, note=76, velocity=49, time=23),\n",
       "    Message('note_on', channel=0, note=77, velocity=55, time=4),\n",
       "    Message('note_on', channel=0, note=76, velocity=0, time=2),\n",
       "    Message('note_on', channel=0, note=79, velocity=0, time=7),\n",
       "    Message('note_on', channel=0, note=77, velocity=0, time=54),\n",
       "    Message('note_on', channel=0, note=79, velocity=75, time=123),\n",
       "    Message('note_on', channel=0, note=77, velocity=62, time=12),\n",
       "    Message('note_on', channel=0, note=79, velocity=0, time=22),\n",
       "    Message('note_on', channel=0, note=77, velocity=0, time=21),\n",
       "    Message('note_on', channel=0, note=79, velocity=76, time=163),\n",
       "    Message('note_on', channel=0, note=76, velocity=58, time=5),\n",
       "    Message('note_on', channel=0, note=77, velocity=69, time=1),\n",
       "    Message('note_on', channel=0, note=71, velocity=59, time=4),\n",
       "    Message('note_on', channel=0, note=77, velocity=0, time=76),\n",
       "    Message('note_on', channel=0, note=71, velocity=0, time=7),\n",
       "    Message('note_on', channel=0, note=76, velocity=0, time=4),\n",
       "    Message('note_on', channel=0, note=79, velocity=0, time=0),\n",
       "    Message('note_on', channel=0, note=74, velocity=0, time=8),\n",
       "    Message('note_on', channel=0, note=79, velocity=63, time=108),\n",
       "    Message('note_on', channel=0, note=77, velocity=53, time=5),\n",
       "    Message('note_on', channel=0, note=76, velocity=43, time=4),\n",
       "    Message('note_on', channel=0, note=79, velocity=0, time=22),\n",
       "    Message('note_on', channel=0, note=77, velocity=0, time=19),\n",
       "    Message('note_on', channel=0, note=76, velocity=0, time=18),\n",
       "    Message('note_on', channel=0, note=79, velocity=75, time=134),\n",
       "    Message('note_on', channel=0, note=77, velocity=68, time=5),\n",
       "    Message('note_on', channel=0, note=79, velocity=0, time=28),\n",
       "    Message('note_on', channel=0, note=77, velocity=0, time=11),\n",
       "    Message('note_on', channel=0, note=79, velocity=64, time=196),\n",
       "    Message('note_on', channel=0, note=67, velocity=74, time=1),\n",
       "    Message('note_on', channel=0, note=67, velocity=0, time=37),\n",
       "    Message('note_on', channel=0, note=79, velocity=0, time=3),\n",
       "    Message('note_on', channel=0, note=79, velocity=64, time=159),\n",
       "    Message('note_on', channel=0, note=67, velocity=73, time=1),\n",
       "    Message('note_on', channel=0, note=67, velocity=0, time=43),\n",
       "    Message('note_on', channel=0, note=79, velocity=0, time=12),\n",
       "    Message('note_on', channel=0, note=79, velocity=60, time=141),\n",
       "    Message('note_on', channel=0, note=67, velocity=64, time=0),\n",
       "    Message('note_on', channel=0, note=67, velocity=0, time=43),\n",
       "    Message('note_on', channel=0, note=79, velocity=0, time=31),\n",
       "    Message('note_on', channel=0, note=79, velocity=69, time=135),\n",
       "    Message('note_on', channel=0, note=67, velocity=79, time=3),\n",
       "    Message('note_on', channel=0, note=77, velocity=49, time=22),\n",
       "    Message('note_on', channel=0, note=65, velocity=59, time=4),\n",
       "    Message('note_on', channel=0, note=77, velocity=0, time=5),\n",
       "    Message('note_on', channel=0, note=65, velocity=0, time=38),\n",
       "    Message('note_on', channel=0, note=67, velocity=0, time=37),\n",
       "    Message('note_on', channel=0, note=79, velocity=0, time=17),\n",
       "    Message('note_on', channel=0, note=79, velocity=66, time=96),\n",
       "    Message('note_on', channel=0, note=67, velocity=73, time=1),\n",
       "    Message('note_on', channel=0, note=65, velocity=54, time=21),\n",
       "    Message('note_on', channel=0, note=77, velocity=47, time=0),\n",
       "    Message('note_on', channel=0, note=79, velocity=0, time=26),\n",
       "    Message('note_on', channel=0, note=67, velocity=0, time=6),\n",
       "    Message('note_on', channel=0, note=65, velocity=0, time=7),\n",
       "    Message('note_on', channel=0, note=77, velocity=0, time=27),\n",
       "    Message('note_on', channel=0, note=79, velocity=69, time=118),\n",
       "    Message('note_on', channel=0, note=67, velocity=76, time=1),\n",
       "    Message('note_on', channel=0, note=77, velocity=46, time=18),\n",
       "    Message('note_on', channel=0, note=65, velocity=53, time=6),\n",
       "    Message('note_on', channel=0, note=65, velocity=0, time=38),\n",
       "    Message('note_on', channel=0, note=67, velocity=0, time=0),\n",
       "    Message('note_on', channel=0, note=79, velocity=0, time=11),\n",
       "    Message('note_on', channel=0, note=77, velocity=0, time=16),\n",
       "    Message('note_on', channel=0, note=62, velocity=80, time=133),\n",
       "    Message('note_on', channel=0, note=74, velocity=70, time=1),\n",
       "    Message('note_on', channel=0, note=79, velocity=78, time=1),\n",
       "    Message('note_on', channel=0, note=67, velocity=83, time=1),\n",
       "    Message('note_on', channel=0, note=65, velocity=68, time=3),\n",
       "    Message('note_on', channel=0, note=74, velocity=0, time=61),\n",
       "    Message('note_on', channel=0, note=79, velocity=0, time=7),\n",
       "    Message('note_on', channel=0, note=65, velocity=0, time=4),\n",
       "    Message('note_on', channel=0, note=67, velocity=0, time=25),\n",
       "    Message('note_on', channel=0, note=79, velocity=61, time=129),\n",
       "    Message('note_on', channel=0, note=67, velocity=68, time=1),\n",
       "    Message('note_on', channel=0, note=65, velocity=40, time=37),\n",
       "    Message('note_on', channel=0, note=67, velocity=0, time=8),\n",
       "    Message('note_on', channel=0, note=79, velocity=0, time=27),\n",
       "    Message('note_on', channel=0, note=65, velocity=0, time=4),\n",
       "    Message('note_on', channel=0, note=79, velocity=70, time=131),\n",
       "    Message('note_on', channel=0, note=67, velocity=79, time=2),\n",
       "    Message('note_on', channel=0, note=65, velocity=46, time=28),\n",
       "    Message('note_on', channel=0, note=67, velocity=0, time=37),\n",
       "    Message('note_on', channel=0, note=79, velocity=0, time=13),\n",
       "    Message('note_on', channel=0, note=65, velocity=0, time=6),\n",
       "    Message('note_on', channel=0, note=79, velocity=67, time=136),\n",
       "    Message('note_on', channel=0, note=59, velocity=72, time=2),\n",
       "    Message('note_on', channel=0, note=67, velocity=77, time=1),\n",
       "    Message('note_on', channel=0, note=65, velocity=56, time=12),\n",
       "    Message('note_on', channel=0, note=65, velocity=0, time=81),\n",
       "    Message('note_on', channel=0, note=79, velocity=0, time=0),\n",
       "    Message('note_on', channel=0, note=67, velocity=0, time=15),\n",
       "    Message('note_on', channel=0, note=62, velocity=0, time=11),\n",
       "    Message('note_on', channel=0, note=79, velocity=65, time=101),\n",
       "    Message('note_on', channel=0, note=67, velocity=71, time=2),\n",
       "    Message('note_on', channel=0, note=65, velocity=45, time=41),\n",
       "    Message('note_on', channel=0, note=67, velocity=0, time=33),\n",
       "    Message('note_on', channel=0, note=65, velocity=0, time=13),\n",
       "    Message('note_on', channel=0, note=79, velocity=0, time=22),\n",
       "    Message('note_on', channel=0, note=79, velocity=60, time=102),\n",
       "    Message('note_on', channel=0, note=67, velocity=66, time=2),\n",
       "    Message('note_on', channel=0, note=65, velocity=52, time=5),\n",
       "    Message('note_on', channel=0, note=77, velocity=51, time=1),\n",
       "    Message('note_on', channel=0, note=55, velocity=41, time=0),\n",
       "    Message('note_on', channel=0, note=55, velocity=0, time=5),\n",
       "    Message('note_on', channel=0, note=77, velocity=0, time=0),\n",
       "    Message('note_on', channel=0, note=67, velocity=0, time=57),\n",
       "    Message('note_on', channel=0, note=65, velocity=0, time=6),\n",
       "    Message('note_on', channel=0, note=79, velocity=0, time=75),\n",
       "    Message('note_on', channel=0, note=64, velocity=65, time=111),\n",
       "    Message('note_on', channel=0, note=76, velocity=56, time=5),\n",
       "    Message('note_on', channel=0, note=60, velocity=61, time=21),\n",
       "    Message('note_on', channel=0, note=72, velocity=52, time=1),\n",
       "    Message('note_on', channel=0, note=72, velocity=0, time=8),\n",
       "    Message('control_change', channel=0, control=64, value=127, time=0),\n",
       "    Message('note_on', channel=0, note=59, velocity=0, time=17),\n",
       "    Message('note_on', channel=0, note=60, velocity=0, time=83),\n",
       "    Message('control_change', channel=0, control=64, value=0, time=8),\n",
       "    Message('note_on', channel=0, note=64, velocity=0, time=26),\n",
       "    Message('note_on', channel=0, note=76, velocity=0, time=4),\n",
       "    Message('note_on', channel=0, note=55, velocity=77, time=526),\n",
       "    Message('note_on', channel=0, note=48, velocity=85, time=107),\n",
       "    Message('note_on', channel=0, note=60, velocity=81, time=2),\n",
       "    Message('note_on', channel=0, note=55, velocity=0, time=47),\n",
       "    Message('note_on', channel=0, note=48, velocity=0, time=37),\n",
       "    Message('note_on', channel=0, note=60, velocity=0, time=0),\n",
       "    Message('note_on', channel=0, note=71, velocity=83, time=4009),\n",
       "    Message('note_on', channel=0, note=55, velocity=73, time=0),\n",
       "    Message('note_on', channel=0, note=67, velocity=78, time=2),\n",
       "    Message('note_on', channel=0, note=71, velocity=0, time=124),\n",
       "    Message('note_on', channel=0, note=55, velocity=0, time=8),\n",
       "    Message('note_on', channel=0, note=67, velocity=0, time=8),\n",
       "    Message('note_on', channel=0, note=71, velocity=78, time=79),\n",
       "    Message('note_on', channel=0, note=55, velocity=62, time=1),\n",
       "    Message('note_on', channel=0, note=67, velocity=71, time=2),\n",
       "    Message('note_on', channel=0, note=62, velocity=66, time=8),\n",
       "    Message('note_on', channel=0, note=55, velocity=0, time=111),\n",
       "    Message('note_on', channel=0, note=71, velocity=0, time=8),\n",
       "    Message('note_on', channel=0, note=62, velocity=0, time=105),\n",
       "    Message('note_on', channel=0, note=67, velocity=0, time=0),\n",
       "    Message('note_on', channel=0, note=59, velocity=78, time=6),\n",
       "    Message('note_on', channel=0, note=67, velocity=77, time=4),\n",
       "    Message('note_on', channel=0, note=71, velocity=82, time=0),\n",
       "    Message('note_on', channel=0, note=62, velocity=64, time=2),\n",
       "    Message('note_on', channel=0, note=62, velocity=0, time=104),\n",
       "    Message('note_on', channel=0, note=59, velocity=0, time=53),\n",
       "    Message('note_on', channel=0, note=62, velocity=61, time=82),\n",
       "    Message('note_on', channel=0, note=59, velocity=56, time=4),\n",
       "    Message('note_on', channel=0, note=59, velocity=0, time=76),\n",
       "    Message('note_on', channel=0, note=71, velocity=0, time=0),\n",
       "    Message('note_on', channel=0, note=67, velocity=0, time=5),\n",
       "    Message('note_on', channel=0, note=62, velocity=0, time=125),\n",
       "    Message('note_on', channel=0, note=55, velocity=66, time=6),\n",
       "    Message('note_on', channel=0, note=71, velocity=79, time=3),\n",
       "    Message('note_on', channel=0, note=62, velocity=59, time=1),\n",
       "    Message('note_on', channel=0, note=67, velocity=73, time=0),\n",
       "    Message('note_on', channel=0, note=71, velocity=0, time=90),\n",
       "    Message('note_on', channel=0, note=62, velocity=0, time=24),\n",
       "    Message('note_on', channel=0, note=55, velocity=0, time=10),\n",
       "    Message('note_on', channel=0, note=67, velocity=0, time=6),\n",
       "    Message('note_on', channel=0, note=55, velocity=60, time=106),\n",
       "    Message('note_on', channel=0, note=62, velocity=66, time=2),\n",
       "    Message('note_on', channel=0, note=71, velocity=80, time=2),\n",
       "    Message('note_on', channel=0, note=67, velocity=73, time=0),\n",
       "    Message('note_on', channel=0, note=79, velocity=74, time=0),\n",
       "    Message('note_on', channel=0, note=79, velocity=0, time=42),\n",
       "    Message('note_on', channel=0, note=71, velocity=0, time=70),\n",
       "    Message('note_on', channel=0, note=67, velocity=0, time=8),\n",
       "    Message('note_on', channel=0, note=55, velocity=0, time=7),\n",
       "    Message('note_on', channel=0, note=59, velocity=76, time=109),\n",
       "    Message('note_on', channel=0, note=55, velocity=62, time=0),\n",
       "    Message('note_on', channel=0, note=71, velocity=83, time=2),\n",
       "    Message('note_on', channel=0, note=67, velocity=77, time=1),\n",
       "    Message('note_on', channel=0, note=62, velocity=0, time=106),\n",
       "    Message('note_on', channel=0, note=59, velocity=0, time=127),\n",
       "    Message('note_on', channel=0, note=62, velocity=68, time=3),\n",
       "    Message('note_on', channel=0, note=59, velocity=58, time=1),\n",
       "    Message('note_on', channel=0, note=59, velocity=0, time=62),\n",
       "    Message('note_on', channel=0, note=55, velocity=0, time=49),\n",
       "    Message('note_on', channel=0, note=67, velocity=0, time=11),\n",
       "    Message('note_on', channel=0, note=71, velocity=0, time=25),\n",
       "    Message('note_on', channel=0, note=62, velocity=0, time=80),\n",
       "    Message('note_on', channel=0, note=71, velocity=80, time=4),\n",
       "    Message('note_on', channel=0, note=79, velocity=75, time=0),\n",
       "    Message('note_on', channel=0, note=55, velocity=69, time=0),\n",
       "    Message('note_on', channel=0, note=67, velocity=77, time=1),\n",
       "    Message('note_on', channel=0, note=62, velocity=65, time=1),\n",
       "    Message('note_on', channel=0, note=79, velocity=0, time=70),\n",
       "    Message('note_on', channel=0, note=62, velocity=0, time=50),\n",
       "    Message('note_on', channel=0, note=55, velocity=0, time=119),\n",
       "    Message('note_on', channel=0, note=74, velocity=86, time=3),\n",
       "    Message('note_on', channel=0, note=62, velocity=66, time=5),\n",
       "    Message('note_on', channel=0, note=55, velocity=57, time=3),\n",
       "    Message('note_on', channel=0, note=71, velocity=0, time=31),\n",
       "    Message('note_on', channel=0, note=55, velocity=0, time=41),\n",
       "    Message('note_on', channel=0, note=67, velocity=0, time=2),\n",
       "    Message('note_on', channel=0, note=74, velocity=0, time=92),\n",
       "    Message('note_on', channel=0, note=62, velocity=0, time=54),\n",
       "    Message('note_on', channel=0, note=79, velocity=73, time=4),\n",
       "    Message('note_on', channel=0, note=67, velocity=85, time=1),\n",
       "    Message('note_on', channel=0, note=59, velocity=74, time=2),\n",
       "    Message('note_on', channel=0, note=62, velocity=62, time=3),\n",
       "    Message('note_on', channel=0, note=79, velocity=0, time=90),\n",
       "    Message('note_on', channel=0, note=62, velocity=0, time=38),\n",
       "    Message('note_on', channel=0, note=59, velocity=0, time=92),\n",
       "    Message('note_on', channel=0, note=81, velocity=73, time=10),\n",
       "    Message('note_on', channel=0, note=62, velocity=66, time=1),\n",
       "    Message('note_on', channel=0, note=59, velocity=62, time=0),\n",
       "    Message('note_on', channel=0, note=69, velocity=79, time=1),\n",
       "    Message('note_on', channel=0, note=59, velocity=0, time=57),\n",
       "    Message('note_on', channel=0, note=67, velocity=0, time=4),\n",
       "    Message('note_on', channel=0, note=81, velocity=0, time=142),\n",
       "    Message('note_on', channel=0, note=62, velocity=0, time=39),\n",
       "    Message('note_on', channel=0, note=71, velocity=78, time=6),\n",
       "    Message('note_on', channel=0, note=59, velocity=55, time=1),\n",
       "    Message('note_on', channel=0, note=55, velocity=61, time=2),\n",
       "    Message('note_on', channel=0, note=79, velocity=70, time=0),\n",
       "    Message('note_on', channel=0, note=62, velocity=60, time=1),\n",
       "    Message('note_on', channel=0, note=67, velocity=70, time=1),\n",
       "    Message('note_on', channel=0, note=59, velocity=0, time=4),\n",
       "    Message('note_on', channel=0, note=69, velocity=0, time=27),\n",
       "    Message('note_on', channel=0, note=79, velocity=0, time=42),\n",
       "    Message('note_on', channel=0, note=62, velocity=0, time=18),\n",
       "    Message('note_on', channel=0, note=55, velocity=0, time=143),\n",
       "    Message('note_on', channel=0, note=67, velocity=0, time=0),\n",
       "    Message('note_on', channel=0, note=74, velocity=48, time=5),\n",
       "    Message('note_on', channel=0, note=62, velocity=58, time=0),\n",
       "    Message('note_on', channel=0, note=55, velocity=47, time=3),\n",
       "    Message('note_on', channel=0, note=67, velocity=50, time=3),\n",
       "    Message('control_change', channel=0, control=64, value=127, time=58),\n",
       "    Message('note_on', channel=0, note=71, velocity=0, time=169),\n",
       "    Message('note_on', channel=0, note=59, velocity=66, time=7),\n",
       "    Message('note_on', channel=0, note=71, velocity=54, time=2),\n",
       "    Message('note_on', channel=0, note=55, velocity=0, time=14),\n",
       "    Message('note_on', channel=0, note=62, velocity=0, time=82),\n",
       "    Message('note_on', channel=0, note=74, velocity=0, time=18),\n",
       "    Message('control_change', channel=0, control=64, value=0, time=31),\n",
       "    Message('note_on', channel=0, note=71, velocity=0, time=63),\n",
       "    Message('note_on', channel=0, note=67, velocity=0, time=6),\n",
       "    Message('note_on', channel=0, note=62, velocity=54, time=14),\n",
       "    Message('note_on', channel=0, note=74, velocity=45, time=1),\n",
       "    Message('note_on', channel=0, note=59, velocity=0, time=0),\n",
       "    Message('note_on', channel=0, note=59, velocity=47, time=4),\n",
       "    Message('note_on', channel=0, note=59, velocity=0, time=54),\n",
       "    Message('note_on', channel=0, note=72, velocity=80, time=172),\n",
       "    Message('note_on', channel=0, note=69, velocity=73, time=4),\n",
       "    Message('note_on', channel=0, note=60, velocity=47, time=1),\n",
       "    Message('note_on', channel=0, note=57, velocity=60, time=2),\n",
       "    Message('note_on', channel=0, note=74, velocity=0, time=11),\n",
       "    Message('control_change', channel=0, control=64, value=127, time=21),\n",
       "    Message('note_on', channel=0, note=62, velocity=0, time=81),\n",
       "    Message('note_on', channel=0, note=69, velocity=0, time=42),\n",
       "    Message('note_on', channel=0, note=72, velocity=0, time=10),\n",
       "    Message('control_change', channel=0, control=64, value=0, time=5),\n",
       "    Message('note_on', channel=0, note=60, velocity=0, time=16),\n",
       "    Message('note_on', channel=0, note=57, velocity=0, time=8),\n",
       "    Message('note_on', channel=0, note=57, velocity=45, time=9),\n",
       "    Message('note_on', channel=0, note=62, velocity=58, time=19),\n",
       "    Message('note_on', channel=0, note=69, velocity=71, time=7),\n",
       "    Message('note_on', channel=0, note=72, velocity=76, time=2),\n",
       "    Message('note_on', channel=0, note=57, velocity=0, time=26),\n",
       "    Message('control_change', channel=0, control=64, value=127, time=29),\n",
       "    Message('note_on', channel=0, note=69, velocity=0, time=83),\n",
       "    Message('control_change', channel=0, control=64, value=0, time=5),\n",
       "    Message('note_on', channel=0, note=72, velocity=0, time=9),\n",
       "    Message('note_on', channel=0, note=72, velocity=77, time=77),\n",
       "    Message('note_on', channel=0, note=60, velocity=75, time=1),\n",
       "    Message('note_on', channel=0, note=69, velocity=78, time=4),\n",
       "    Message('control_change', channel=0, control=64, value=127, time=51),\n",
       "    Message('note_on', channel=0, note=62, velocity=0, time=74),\n",
       "    Message('control_change', channel=0, control=64, value=0, time=15),\n",
       "    Message('note_on', channel=0, note=69, velocity=0, time=19),\n",
       "    Message('note_on', channel=0, note=72, velocity=0, time=2),\n",
       "    Message('note_on', channel=0, note=60, velocity=0, time=59),\n",
       "    Message('note_on', channel=0, note=62, velocity=67, time=4),\n",
       "    Message('note_on', channel=0, note=50, velocity=61, time=1),\n",
       "    Message('note_on', channel=0, note=69, velocity=75, time=1),\n",
       "    Message('note_on', channel=0, note=72, velocity=78, time=0),\n",
       "    Message('note_on', channel=0, note=60, velocity=62, time=1),\n",
       "    Message('note_on', channel=0, note=72, velocity=0, time=28),\n",
       "    Message('note_on', channel=0, note=60, velocity=0, time=19),\n",
       "    Message('note_on', channel=0, note=50, velocity=0, time=31),\n",
       "    Message('note_on', channel=0, note=69, velocity=0, time=35),\n",
       "    Message('note_on', channel=0, note=72, velocity=77, time=123),\n",
       "    Message('note_on', channel=0, note=55, velocity=70, time=4),\n",
       "    Message('note_on', channel=0, note=69, velocity=76, time=1),\n",
       "    Message('note_on', channel=0, note=48, velocity=58, time=1),\n",
       "    Message('note_on', channel=0, note=48, velocity=0, time=4),\n",
       "    Message('note_on', channel=0, note=72, velocity=0, time=70),\n",
       "    Message('note_on', channel=0, note=55, velocity=0, time=7),\n",
       "    Message('control_change', channel=0, control=64, value=127, time=62),\n",
       "    Message('control_change', channel=0, control=64, value=0, time=69),\n",
       "    Message('note_on', channel=0, note=55, velocity=63, time=15),\n",
       "    Message('note_on', channel=0, note=67, velocity=70, time=1),\n",
       "    Message('note_on', channel=0, note=71, velocity=76, time=1),\n",
       "    Message('note_on', channel=0, note=62, velocity=0, time=67),\n",
       "    Message('note_on', channel=0, note=69, velocity=0, time=8),\n",
       "    Message('note_on', channel=0, note=55, velocity=0, time=35),\n",
       "    Message('note_on', channel=0, note=67, velocity=0, time=5),\n",
       "    Message('note_on', channel=0, note=71, velocity=0, time=2),\n",
       "    Message('note_on', channel=0, note=55, velocity=66, time=116),\n",
       "    Message('note_on', channel=0, note=79, velocity=77, time=4),\n",
       "    Message('note_on', channel=0, note=71, velocity=82, time=1),\n",
       "    Message('note_on', channel=0, note=67, velocity=76, time=2),\n",
       "    Message('control_change', channel=0, control=64, value=127, time=12),\n",
       "    Message('note_on', channel=0, note=55, velocity=0, time=14),\n",
       "    Message('control_change', channel=0, control=64, value=0, time=125),\n",
       "    Message('note_on', channel=0, note=71, velocity=0, time=68),\n",
       "    Message('control_change', channel=0, control=64, value=127, time=0),\n",
       "    Message('note_on', channel=0, note=62, velocity=70, time=2),\n",
       "    Message('note_on', channel=0, note=74, velocity=62, time=1),\n",
       "    Message('note_on', channel=0, note=71, velocity=56, time=4),\n",
       "    Message('note_on', channel=0, note=62, velocity=0, time=45),\n",
       "    Message('note_on', channel=0, note=71, velocity=0, time=86),\n",
       "    Message('note_on', channel=0, note=62, velocity=61, time=2),\n",
       "    Message('note_on', channel=0, note=59, velocity=54, time=1),\n",
       "    Message('note_on', channel=0, note=71, velocity=54, time=1),\n",
       "    Message('note_on', channel=0, note=62, velocity=0, time=50),\n",
       "    Message('note_on', channel=0, note=71, velocity=0, time=1),\n",
       "    Message('note_on', channel=0, note=67, velocity=0, time=5),\n",
       "    Message('control_change', channel=0, control=64, value=0, time=3),\n",
       "    Message('note_on', channel=0, note=74, velocity=0, time=14),\n",
       "    Message('note_on', channel=0, note=79, velocity=0, time=0),\n",
       "    Message('note_on', channel=0, note=59, velocity=0, time=23),\n",
       "    Message('note_on', channel=0, note=79, velocity=80, time=36),\n",
       "    Message('note_on', channel=0, note=67, velocity=75, time=3),\n",
       "    Message('note_on', channel=0, note=71, velocity=81, time=0),\n",
       "    Message('note_on', channel=0, note=55, velocity=67, time=1),\n",
       "    Message('note_on', channel=0, note=61, velocity=73, time=8),\n",
       "    Message('note_on', channel=0, note=52, velocity=59, time=2),\n",
       "    Message('note_on', channel=0, note=52, velocity=0, time=4),\n",
       "    Message('note_on', channel=0, note=57, velocity=66, time=5),\n",
       "    Message('note_on', channel=0, note=69, velocity=63, time=0),\n",
       "    Message('note_on', channel=0, note=57, velocity=0, time=218),\n",
       "    Message('note_on', channel=0, note=69, velocity=0, time=0),\n",
       "    Message('note_on', channel=0, note=71, velocity=0, time=0),\n",
       "    Message('note_on', channel=0, note=57, velocity=52, time=4),\n",
       "    Message('note_on', channel=0, note=69, velocity=78, time=1),\n",
       "    Message('note_on', channel=0, note=71, velocity=65, time=4),\n",
       "    Message('note_on', channel=0, note=71, velocity=0, time=71),\n",
       "    Message('note_on', channel=0, note=69, velocity=0, time=9),\n",
       "    Message('note_on', channel=0, note=79, velocity=0, time=64),\n",
       "    Message('note_on', channel=0, note=57, velocity=0, time=69),\n",
       "    Message('note_on', channel=0, note=61, velocity=0, time=0),\n",
       "    Message('note_on', channel=0, note=57, velocity=50, time=6),\n",
       "    Message('note_on', channel=0, note=61, velocity=53, time=2),\n",
       "    Message('note_on', channel=0, note=81, velocity=67, time=2),\n",
       "    Message('note_on', channel=0, note=69, velocity=72, time=1),\n",
       "    Message('note_on', channel=0, note=67, velocity=0, time=29),\n",
       "    Message('note_on', channel=0, note=61, velocity=0, time=206),\n",
       "    Message('note_on', channel=0, note=71, velocity=75, time=6),\n",
       "    Message('note_on', channel=0, note=61, velocity=48, time=2),\n",
       "    Message('note_on', channel=0, note=81, velocity=0, time=15),\n",
       "    Message('note_on', channel=0, note=69, velocity=0, time=29),\n",
       "    Message('note_on', channel=0, note=57, velocity=0, time=48),\n",
       "    Message('note_on', channel=0, note=55, velocity=0, time=77),\n",
       "    Message('note_on', channel=0, note=78, velocity=75, time=74),\n",
       "    Message('note_on', channel=0, note=81, velocity=69, time=2),\n",
       "    Message('note_on', channel=0, note=66, velocity=81, time=2),\n",
       "    Message('note_on', channel=0, note=69, velocity=76, time=2),\n",
       "    Message('note_on', channel=0, note=74, velocity=64, time=7),\n",
       "    Message('note_on', channel=0, note=62, velocity=66, time=1),\n",
       "    Message('note_on', channel=0, note=74, velocity=0, time=12),\n",
       "    Message('note_on', channel=0, note=71, velocity=0, time=2),\n",
       "    Message('note_on', channel=0, note=61, velocity=0, time=6),\n",
       "    Message('note_on', channel=0, note=81, velocity=0, time=99),\n",
       "    Message('note_on', channel=0, note=60, velocity=67, time=127),\n",
       "    Message('note_on', channel=0, note=62, velocity=0, time=68),\n",
       "    Message('note_on', channel=0, note=78, velocity=0, time=28),\n",
       "    Message('note_on', channel=0, note=59, velocity=73, time=153),\n",
       "    Message('note_on', channel=0, note=74, velocity=82, time=3),\n",
       "    Message('note_on', channel=0, note=60, velocity=0, time=47),\n",
       "    Message('note_on', channel=0, note=69, velocity=0, time=31),\n",
       "    Message('note_on', channel=0, note=57, velocity=67, time=145),\n",
       "    Message('note_on', channel=0, note=59, velocity=0, time=47),\n",
       "    Message('note_on', channel=0, note=66, velocity=0, time=16),\n",
       "    Message('note_on', channel=0, note=79, velocity=74, time=161),\n",
       "    Message('note_on', channel=0, note=67, velocity=78, time=3),\n",
       "    Message('note_on', channel=0, note=74, velocity=0, time=0),\n",
       "    Message('note_on', channel=0, note=55, velocity=70, time=4),\n",
       "    Message('note_on', channel=0, note=59, velocity=55, time=0),\n",
       "    Message('note_on', channel=0, note=74, velocity=64, time=1),\n",
       "    Message('note_on', channel=0, note=71, velocity=72, time=1),\n",
       "    Message('note_on', channel=0, note=57, velocity=0, time=30),\n",
       "    Message('note_on', channel=0, note=74, velocity=0, time=22),\n",
       "    Message('note_on', channel=0, note=55, velocity=0, time=0),\n",
       "    Message('note_on', channel=0, note=79, velocity=0, time=6),\n",
       "    Message('note_on', channel=0, note=67, velocity=0, time=0),\n",
       "    Message('note_on', channel=0, note=71, velocity=0, time=36),\n",
       "    Message('note_on', channel=0, note=59, velocity=0, time=8),\n",
       "    Message('note_on', channel=0, note=55, velocity=58, time=145),\n",
       "    Message('note_on', channel=0, note=59, velocity=61, time=2),\n",
       "    Message('note_on', channel=0, note=74, velocity=59, time=0),\n",
       "    Message('note_on', channel=0, note=71, velocity=69, time=1),\n",
       "    Message('note_on', channel=0, note=62, velocity=67, time=1),\n",
       "    Message('note_on', channel=0, note=79, velocity=63, time=0),\n",
       "    Message('note_on', channel=0, note=79, velocity=0, time=5),\n",
       "    Message('note_on', channel=0, note=67, velocity=57, time=0),\n",
       "    Message('note_on', channel=0, note=67, velocity=0, time=7),\n",
       "    Message('note_on', channel=0, note=71, velocity=0, time=28),\n",
       "    Message('note_on', channel=0, note=55, velocity=0, time=7),\n",
       "    Message('note_on', channel=0, note=59, velocity=0, time=19),\n",
       "    Message('note_on', channel=0, note=74, velocity=0, time=46),\n",
       "    Message('note_on', channel=0, note=71, velocity=82, time=119),\n",
       "    Message('note_on', channel=0, note=62, velocity=0, time=4),\n",
       "    Message('note_on', channel=0, note=79, velocity=70, time=2),\n",
       "    Message('note_on', channel=0, note=67, velocity=71, time=3),\n",
       "    Message('note_on', channel=0, note=62, velocity=52, time=1),\n",
       "    Message('note_on', channel=0, note=59, velocity=60, time=3),\n",
       "    Message('note_on', channel=0, note=79, velocity=0, time=52),\n",
       "    Message('note_on', channel=0, note=62, velocity=0, time=52),\n",
       "    Message('note_on', channel=0, note=59, velocity=0, time=33),\n",
       "    Message('note_on', channel=0, note=71, velocity=0, time=84),\n",
       "    Message('note_on', channel=0, note=74, velocity=55, time=5),\n",
       "    Message('note_on', channel=0, note=62, velocity=65, time=2),\n",
       "    Message('note_on', channel=0, note=59, velocity=54, time=3),\n",
       "    Message('note_on', channel=0, note=71, velocity=57, time=1),\n",
       "    Message('note_on', channel=0, note=59, velocity=0, time=56),\n",
       "    Message('note_on', channel=0, note=71, velocity=0, time=7),\n",
       "    Message('note_on', channel=0, note=67, velocity=0, time=10),\n",
       "    Message('note_on', channel=0, note=62, velocity=0, time=139),\n",
       "    Message('note_on', channel=0, note=71, velocity=84, time=3),\n",
       "    Message('note_on', channel=0, note=55, velocity=60, time=0),\n",
       "    Message('note_on', channel=0, note=59, velocity=59, time=1),\n",
       "    Message('note_on', channel=0, note=79, velocity=75, time=1),\n",
       "    Message('note_on', channel=0, note=62, velocity=60, time=1),\n",
       "    Message('note_on', channel=0, note=67, velocity=72, time=5),\n",
       "    Message('note_on', channel=0, note=74, velocity=0, time=58),\n",
       "    Message('note_on', channel=0, note=79, velocity=0, time=0),\n",
       "    Message('note_on', channel=0, note=67, velocity=0, time=29),\n",
       "    Message('note_on', channel=0, note=62, velocity=0, time=2),\n",
       "    Message('note_on', channel=0, note=55, velocity=0, time=4),\n",
       "    Message('note_on', channel=0, note=71, velocity=0, time=30),\n",
       "    Message('note_on', channel=0, note=59, velocity=0, time=4),\n",
       "    Message('note_on', channel=0, note=55, velocity=59, time=104),\n",
       "    Message('note_on', channel=0, note=71, velocity=80, time=0),\n",
       "    Message('note_on', channel=0, note=59, velocity=58, time=1),\n",
       "    Message('note_on', channel=0, note=67, velocity=73, time=2),\n",
       "    Message('note_on', channel=0, note=79, velocity=73, time=0),\n",
       "    Message('note_on', channel=0, note=62, velocity=62, time=3),\n",
       "    Message('note_on', channel=0, note=79, velocity=0, time=44),\n",
       "    Message('note_on', channel=0, note=67, velocity=0, time=21),\n",
       "    Message('note_on', channel=0, note=71, velocity=0, time=25),\n",
       "    Message('note_on', channel=0, note=59, velocity=0, time=23),\n",
       "    Message('note_on', channel=0, note=55, velocity=0, time=23),\n",
       "    Message('note_on', channel=0, note=71, velocity=81, time=88),\n",
       "    Message('note_on', channel=0, note=62, velocity=0, time=4),\n",
       "    Message('note_on', channel=0, note=79, velocity=73, time=3),\n",
       "    Message('note_on', channel=0, note=62, velocity=55, time=2),\n",
       "    Message('note_on', channel=0, note=67, velocity=72, time=1),\n",
       "    Message('note_on', channel=0, note=59, velocity=64, time=3),\n",
       "    Message('note_on', channel=0, note=62, velocity=0, time=105),\n",
       "    Message('note_on', channel=0, note=59, velocity=0, time=32),\n",
       "    Message('note_on', channel=0, note=79, velocity=0, time=46),\n",
       "    Message('note_on', channel=0, note=62, velocity=63, time=44),\n",
       "    Message('note_on', channel=0, note=59, velocity=54, time=1),\n",
       "    Message('note_on', channel=0, note=74, velocity=50, time=0),\n",
       "    Message('note_on', channel=0, note=59, velocity=0, time=60),\n",
       "    Message('note_on', channel=0, note=71, velocity=0, time=3),\n",
       "    Message('note_on', channel=0, note=67, velocity=0, time=2),\n",
       "    Message('note_on', channel=0, note=62, velocity=0, time=159),\n",
       "    Message('note_on', channel=0, note=71, velocity=82, time=2),\n",
       "    Message('note_on', channel=0, note=79, velocity=75, time=4),\n",
       "    Message('note_on', channel=0, note=59, velocity=58, time=1),\n",
       "    Message('note_on', channel=0, note=62, velocity=59, time=3),\n",
       "    Message('note_on', channel=0, note=67, velocity=78, time=1),\n",
       "    Message('note_on', channel=0, note=55, velocity=67, time=0),\n",
       "    Message('note_on', channel=0, note=74, velocity=0, time=135),\n",
       "    Message('note_on', channel=0, note=62, velocity=0, time=14),\n",
       "    Message('note_on', channel=0, note=74, velocity=84, time=91),\n",
       "    Message('note_on', channel=0, note=79, velocity=0, time=3),\n",
       "    Message('note_on', channel=0, note=71, velocity=0, time=44),\n",
       "    Message('note_on', channel=0, note=55, velocity=0, time=8),\n",
       "    Message('note_on', channel=0, note=67, velocity=0, time=6),\n",
       "    Message('note_on', channel=0, note=59, velocity=0, time=3),\n",
       "    Message('note_on', channel=0, note=79, velocity=76, time=174),\n",
       "    Message('note_on', channel=0, note=67, velocity=85, time=0),\n",
       "    Message('note_on', channel=0, note=59, velocity=77, time=3),\n",
       "    Message('note_on', channel=0, note=71, velocity=72, time=3),\n",
       "    Message('note_on', channel=0, note=55, velocity=60, time=0),\n",
       "    Message('note_on', channel=0, note=74, velocity=0, time=82),\n",
       "    Message('note_on', channel=0, note=59, velocity=0, time=137),\n",
       "    Message('note_on', channel=0, note=59, velocity=64, time=5),\n",
       "    Message('note_on', channel=0, note=81, velocity=74, time=1),\n",
       "    Message('note_on', channel=0, note=69, velocity=80, time=0),\n",
       "    Message('note_on', channel=0, note=62, velocity=68, time=0),\n",
       "    Message('note_on', channel=0, note=74, velocity=59, time=5),\n",
       "    Message('note_on', channel=0, note=71, velocity=0, time=33),\n",
       "    Message('note_on', channel=0, note=59, velocity=0, time=5),\n",
       "    Message('note_on', channel=0, note=79, velocity=0, time=5),\n",
       "    Message('note_on', channel=0, note=55, velocity=0, time=8),\n",
       "    Message('note_on', channel=0, note=67, velocity=0, time=12),\n",
       "    Message('note_on', channel=0, note=74, velocity=0, time=80),\n",
       "    Message('note_on', channel=0, note=71, velocity=79, time=90),\n",
       "    Message('note_on', channel=0, note=59, velocity=58, time=2),\n",
       "    Message('note_on', channel=0, note=62, velocity=0, time=0),\n",
       "    Message('note_on', channel=0, note=81, velocity=0, time=0),\n",
       "    Message('note_on', channel=0, note=79, velocity=72, time=3),\n",
       "    Message('note_on', channel=0, note=62, velocity=56, time=1),\n",
       "    Message('note_on', channel=0, note=55, velocity=58, time=1),\n",
       "    Message('note_on', channel=0, note=67, velocity=71, time=5),\n",
       "    Message('note_on', channel=0, note=67, velocity=0, time=5),\n",
       "    Message('note_on', channel=0, note=59, velocity=0, time=54),\n",
       "    Message('note_on', channel=0, note=69, velocity=0, time=16),\n",
       "    Message('note_on', channel=0, note=62, velocity=0, time=18),\n",
       "    Message('note_on', channel=0, note=79, velocity=0, time=135),\n",
       "    Message('note_on', channel=0, note=62, velocity=58, time=10),\n",
       "    Message('note_on', channel=0, note=67, velocity=52, time=1),\n",
       "    Message('note_on', channel=0, note=74, velocity=50, time=0),\n",
       "    Message('note_on', channel=0, note=79, velocity=53, time=0),\n",
       "    Message('note_on', channel=0, note=55, velocity=0, time=42),\n",
       "    Message('control_change', channel=0, control=64, value=127, time=78),\n",
       "    Message('note_on', channel=0, note=59, velocity=65, time=124),\n",
       "    Message('note_on', channel=0, note=79, velocity=0, time=83),\n",
       "    Message('control_change', channel=0, control=64, value=0, time=0),\n",
       "    Message('note_on', channel=0, note=62, velocity=0, time=5),\n",
       "    Message('note_on', channel=0, note=74, velocity=0, time=41),\n",
       "    Message('note_on', channel=0, note=62, velocity=52, time=110),\n",
       "    Message('note_on', channel=0, note=81, velocity=51, time=0),\n",
       "    Message('note_on', channel=0, note=74, velocity=45, time=1),\n",
       "    Message('note_on', channel=0, note=81, velocity=0, time=4),\n",
       "    Message('note_on', channel=0, note=59, velocity=0, time=43),\n",
       "    Message('note_on', channel=0, note=69, velocity=66, time=170),\n",
       "    Message('note_on', channel=0, note=62, velocity=0, time=2),\n",
       "    Message('note_on', channel=0, note=81, velocity=63, time=1),\n",
       "    Message('note_on', channel=0, note=72, velocity=67, time=1),\n",
       "    Message('note_on', channel=0, note=60, velocity=52, time=0),\n",
       "    Message('note_on', channel=0, note=62, velocity=54, time=2),\n",
       "    Message('note_on', channel=0, note=57, velocity=58, time=3),\n",
       "    Message('note_on', channel=0, note=67, velocity=0, time=1),\n",
       "    Message('note_on', channel=0, note=60, velocity=0, time=0),\n",
       "    Message('note_on', channel=0, note=74, velocity=0, time=12),\n",
       "    Message('note_on', channel=0, note=71, velocity=0, time=2),\n",
       "    Message('note_on', channel=0, note=81, velocity=0, time=32),\n",
       "    Message('note_on', channel=0, note=62, velocity=0, time=62),\n",
       "    Message('note_on', channel=0, note=69, velocity=0, time=19),\n",
       "    Message('note_on', channel=0, note=72, velocity=0, time=7),\n",
       "    Message('note_on', channel=0, note=69, velocity=76, time=85),\n",
       "    Message('note_on', channel=0, note=72, velocity=74, time=0),\n",
       "    Message('note_on', channel=0, note=81, velocity=69, time=0),\n",
       "    Message('note_on', channel=0, note=62, velocity=64, time=0),\n",
       "    Message('note_on', channel=0, note=60, velocity=55, time=2),\n",
       "    Message('note_on', channel=0, note=57, velocity=0, time=27),\n",
       "    Message('note_on', channel=0, note=81, velocity=0, time=29),\n",
       "    Message('note_on', channel=0, note=60, velocity=0, time=84),\n",
       "    Message('note_on', channel=0, note=69, velocity=0, time=4),\n",
       "    Message('note_on', channel=0, note=72, velocity=0, time=11),\n",
       "    Message('note_on', channel=0, note=60, velocity=71, time=83),\n",
       "    Message('note_on', channel=0, note=81, velocity=71, time=2),\n",
       "    Message('note_on', channel=0, note=69, velocity=76, time=1),\n",
       "    Message('note_on', channel=0, note=72, velocity=74, time=1),\n",
       "    Message('note_on', channel=0, note=81, velocity=0, time=6),\n",
       "    Message('control_change', channel=0, control=64, value=127, time=30),\n",
       "    Message('note_on', channel=0, note=69, velocity=0, time=97),\n",
       "    Message('note_on', channel=0, note=62, velocity=0, time=3),\n",
       "    Message('control_change', channel=0, control=64, value=0, time=0),\n",
       "    Message('note_on', channel=0, note=72, velocity=0, time=9),\n",
       "    Message('note_on', channel=0, note=60, velocity=0, time=68),\n",
       "    Message('note_on', channel=0, note=81, velocity=75, time=6),\n",
       "    Message('note_on', channel=0, note=69, velocity=78, time=2),\n",
       "    Message('note_on', channel=0, note=60, velocity=64, time=1),\n",
       "    Message('note_on', channel=0, note=72, velocity=77, time=0),\n",
       "    Message('note_on', channel=0, note=74, velocity=64, time=3),\n",
       "    Message('note_on', channel=0, note=60, velocity=0, time=23),\n",
       "    Message('note_on', channel=0, note=69, velocity=0, time=74),\n",
       "    Message('note_on', channel=0, note=81, velocity=0, time=11),\n",
       "    Message('note_on', channel=0, note=72, velocity=0, time=16),\n",
       "    Message('note_on', channel=0, note=72, velocity=82, time=100),\n",
       "    Message('note_on', channel=0, note=81, velocity=75, time=4),\n",
       "    Message('note_on', channel=0, note=69, velocity=77, time=1),\n",
       "    Message('note_on', channel=0, note=55, velocity=68, time=1),\n",
       "    Message('note_on', channel=0, note=74, velocity=0, time=73),\n",
       "    Message('control_change', channel=0, control=64, value=127, time=0),\n",
       "    Message('note_on', channel=0, note=71, velocity=79, time=158),\n",
       "    Message('note_on', channel=0, note=79, velocity=74, time=0),\n",
       "    Message('note_on', channel=0, note=67, velocity=74, time=1),\n",
       "    Message('control_change', channel=0, control=64, value=0, time=47),\n",
       "    Message('note_on', channel=0, note=69, velocity=0, time=40),\n",
       "    Message('note_on', channel=0, note=72, velocity=0, time=7),\n",
       "    Message('note_on', channel=0, note=81, velocity=0, time=8),\n",
       "    Message('note_on', channel=0, note=79, velocity=0, time=30),\n",
       "    Message('note_on', channel=0, note=67, velocity=0, time=3),\n",
       "    Message('note_on', channel=0, note=71, velocity=0, time=2),\n",
       "    Message('note_on', channel=0, note=55, velocity=0, time=0),\n",
       "    Message('note_on', channel=0, note=55, velocity=64, time=103),\n",
       "    Message('note_on', channel=0, note=71, velocity=82, time=2),\n",
       "    Message('note_on', channel=0, note=79, velocity=77, time=0),\n",
       "    Message('note_on', channel=0, note=67, velocity=75, time=3),\n",
       "    Message('note_on', channel=0, note=55, velocity=0, time=110),\n",
       "    Message('control_change', channel=0, control=64, value=127, time=62),\n",
       "    Message('note_on', channel=0, note=71, velocity=0, time=69),\n",
       "    Message('note_on', channel=0, note=62, velocity=69, time=3),\n",
       "    Message('note_on', channel=0, note=74, velocity=57, time=1),\n",
       "    Message('note_on', channel=0, note=71, velocity=56, time=0),\n",
       "    Message('control_change', channel=0, control=64, value=0, time=17),\n",
       "    Message('note_on', channel=0, note=67, velocity=0, time=22),\n",
       "    Message('note_on', channel=0, note=71, velocity=0, time=1),\n",
       "    Message('note_on', channel=0, note=62, velocity=0, time=2),\n",
       "    Message('note_on', channel=0, note=74, velocity=0, time=23),\n",
       "    Message('note_on', channel=0, note=79, velocity=0, time=8),\n",
       "    Message('note_on', channel=0, note=62, velocity=69, time=31),\n",
       "    Message('note_on', channel=0, note=74, velocity=63, time=2),\n",
       "    Message('note_on', channel=0, note=62, velocity=0, time=34),\n",
       "    Message('note_on', channel=0, note=74, velocity=0, time=102),\n",
       "    Message('note_on', channel=0, note=66, velocity=86, time=2),\n",
       "    Message('note_on', channel=0, note=57, velocity=78, time=3),\n",
       "    Message('note_on', channel=0, note=60, velocity=79, time=2),\n",
       "    Message('note_on', channel=0, note=74, velocity=85, time=2),\n",
       "    Message('note_on', channel=0, note=74, velocity=0, time=148),\n",
       "    Message('note_on', channel=0, note=74, velocity=85, time=95),\n",
       "    Message('note_on', channel=0, note=72, velocity=83, time=243),\n",
       "    Message('note_on', channel=0, note=74, velocity=0, time=38),\n",
       "    Message('note_on', channel=0, note=72, velocity=0, time=89),\n",
       "    Message('note_on', channel=0, note=81, velocity=72, time=99),\n",
       "    Message('note_on', channel=0, note=69, velocity=78, time=2),\n",
       "    Message('note_on', channel=0, note=72, velocity=66, time=1),\n",
       "    Message('note_on', channel=0, note=72, velocity=0, time=47),\n",
       "    Message('note_on', channel=0, note=66, velocity=0, time=24),\n",
       "    Message('note_on', channel=0, note=59, velocity=82, time=140),\n",
       "    Message('note_on', channel=0, note=79, velocity=79, time=0),\n",
       "    Message('note_on', channel=0, note=67, velocity=85, time=1),\n",
       "    Message('note_on', channel=0, note=55, velocity=70, time=1),\n",
       "    Message('note_on', channel=0, note=71, velocity=75, time=3),\n",
       "    Message('note_on', channel=0, note=81, velocity=0, time=43),\n",
       "    Message('note_on', channel=0, note=69, velocity=0, time=3),\n",
       "    Message('note_on', channel=0, note=57, velocity=0, time=6),\n",
       "    Message('note_on', channel=0, note=60, velocity=0, time=1),\n",
       "    Message('note_on', channel=0, note=62, velocity=75, time=169),\n",
       "    Message('note_on', channel=0, note=74, velocity=60, time=3),\n",
       "    Message('note_on', channel=0, note=74, velocity=0, time=10),\n",
       "    Message('note_on', channel=0, note=55, velocity=0, time=65),\n",
       "    Message('note_on', channel=0, note=59, velocity=0, time=7),\n",
       "    Message('note_on', channel=0, note=62, velocity=0, time=2),\n",
       "    Message('note_on', channel=0, note=79, velocity=0, time=3),\n",
       "    Message('note_on', channel=0, note=71, velocity=0, time=7),\n",
       "    Message('note_on', channel=0, note=67, velocity=0, time=54),\n",
       "    Message('note_on', channel=0, note=79, velocity=100, time=100),\n",
       "    Message('note_on', channel=0, note=55, velocity=83, time=3),\n",
       "    Message('note_on', channel=0, note=59, velocity=86, time=1),\n",
       "    Message('note_on', channel=0, note=71, velocity=84, time=1),\n",
       "    Message('control_change', channel=0, control=64, value=127, time=241),\n",
       "    Message('note_on', channel=0, note=79, velocity=0, time=288),\n",
       "    Message('note_on', channel=0, note=71, velocity=0, time=6),\n",
       "    Message('control_change', channel=0, control=64, value=0, time=4),\n",
       "    Message('note_on', channel=0, note=55, velocity=0, time=10),\n",
       "    Message('note_on', channel=0, note=59, velocity=0, time=3),\n",
       "    Message('note_on', channel=0, note=48, velocity=66, time=1048),\n",
       "    Message('note_on', channel=0, note=60, velocity=72, time=0),\n",
       "    Message('control_change', channel=0, control=64, value=127, time=61),\n",
       "    Message('note_on', channel=0, note=62, velocity=77, time=246),\n",
       "    Message('note_on', channel=0, note=50, velocity=71, time=12),\n",
       "    Message('note_on', channel=0, note=48, velocity=0, time=29),\n",
       "    Message('control_change', channel=0, control=64, value=0, time=2),\n",
       "    Message('note_on', channel=0, note=60, velocity=0, time=12),\n",
       "    Message('note_on', channel=0, note=64, velocity=86, time=224),\n",
       "    Message('note_on', channel=0, note=52, velocity=74, time=7),\n",
       "    Message('note_on', channel=0, note=50, velocity=0, time=40),\n",
       "    Message('note_on', channel=0, note=62, velocity=0, time=2),\n",
       "    Message('note_on', channel=0, note=53, velocity=75, time=219),\n",
       "    Message('note_on', channel=0, note=65, velocity=77, time=9),\n",
       "    Message('note_on', channel=0, note=52, velocity=0, time=17),\n",
       "    Message('note_on', channel=0, note=64, velocity=0, time=14),\n",
       "    Message('note_on', channel=0, note=79, velocity=77, time=238),\n",
       "    Message('note_on', channel=0, note=67, velocity=85, time=0),\n",
       "    Message('note_on', channel=0, note=55, velocity=76, time=1),\n",
       "    Message('note_on', channel=0, note=53, velocity=0, time=37),\n",
       "    Message('note_on', channel=0, note=65, velocity=0, time=28),\n",
       "    Message('note_on', channel=0, note=79, velocity=0, time=31),\n",
       "    Message('note_on', channel=0, note=55, velocity=0, time=169),\n",
       "    Message('note_on', channel=0, note=55, velocity=66, time=9),\n",
       "    Message('note_on', channel=0, note=81, velocity=78, time=1),\n",
       "    Message('note_on', channel=0, note=57, velocity=76, time=2),\n",
       "    Message('note_on', channel=0, note=69, velocity=83, time=0),\n",
       "    Message('note_on', channel=0, note=81, velocity=0, time=3),\n",
       "    Message('note_on', channel=0, note=55, velocity=0, time=73),\n",
       "    Message('note_on', channel=0, note=67, velocity=0, time=2),\n",
       "    Message('note_on', channel=0, note=59, velocity=78, time=182),\n",
       "    Message('note_on', channel=0, note=71, velocity=83, time=10),\n",
       "    Message('note_on', channel=0, note=69, velocity=0, time=29),\n",
       "    Message('note_on', channel=0, note=57, velocity=0, time=2),\n",
       "    Message('note_on', channel=0, note=72, velocity=90, time=229),\n",
       "    Message('note_on', channel=0, note=60, velocity=75, time=7),\n",
       "    Message('note_on', channel=0, note=71, velocity=0, time=23),\n",
       "    Message('note_on', channel=0, note=59, velocity=0, time=7),\n",
       "    Message('note_on', channel=0, note=59, velocity=72, time=235),\n",
       "    Message('note_on', channel=0, note=83, velocity=70, time=1),\n",
       "    Message('note_on', channel=0, note=71, velocity=81, time=1),\n",
       "    Message('note_on', channel=0, note=83, velocity=0, time=5),\n",
       "    Message('note_on', channel=0, note=60, velocity=0, time=43),\n",
       "    Message('note_on', channel=0, note=72, velocity=0, time=42),\n",
       "    Message('note_on', channel=0, note=69, velocity=78, time=172),\n",
       "    Message('note_on', channel=0, note=57, velocity=73, time=0),\n",
       "    Message('note_on', channel=0, note=71, velocity=0, time=56),\n",
       "    Message('note_on', channel=0, note=59, velocity=0, time=9),\n",
       "    Message('note_on', channel=0, note=55, velocity=70, time=195),\n",
       "    Message('note_on', channel=0, note=79, velocity=73, time=0),\n",
       "    Message('note_on', channel=0, note=67, velocity=79, time=1),\n",
       "    Message('note_on', channel=0, note=69, velocity=0, time=44),\n",
       "    Message('note_on', channel=0, note=57, velocity=0, time=2),\n",
       "    Message('note_on', channel=0, note=53, velocity=71, time=216),\n",
       "    Message('note_on', channel=0, note=65, velocity=75, time=8),\n",
       "    Message('note_on', channel=0, note=77, velocity=69, time=0),\n",
       "    Message('note_on', channel=0, note=79, velocity=0, time=11),\n",
       "    Message('note_on', channel=0, note=55, velocity=0, time=24),\n",
       "    Message('note_on', channel=0, note=67, velocity=0, time=1),\n",
       "    Message('note_on', channel=0, note=77, velocity=0, time=44),\n",
       "    Message('note_on', channel=0, note=64, velocity=80, time=180),\n",
       "    Message('note_on', channel=0, note=52, velocity=72, time=6),\n",
       "    Message('note_on', channel=0, note=53, velocity=0, time=28),\n",
       "    Message('note_on', channel=0, note=65, velocity=0, time=6),\n",
       "    Message('note_on', channel=0, note=74, velocity=65, time=203),\n",
       "    Message('note_on', channel=0, note=62, velocity=71, time=3),\n",
       "    Message('note_on', channel=0, note=74, velocity=0, time=4),\n",
       "    Message('note_on', channel=0, note=50, velocity=67, time=12),\n",
       "    Message('note_on', channel=0, note=52, velocity=0, time=39),\n",
       "    Message('note_on', channel=0, note=64, velocity=0, time=14),\n",
       "    Message('note_on', channel=0, note=72, velocity=71, time=192),\n",
       "    Message('note_on', channel=0, note=60, velocity=74, time=1),\n",
       "    Message('note_on', channel=0, note=48, velocity=70, time=0),\n",
       "    Message('note_on', channel=0, note=50, velocity=0, time=34),\n",
       "    Message('note_on', channel=0, note=62, velocity=0, time=12),\n",
       "    Message('note_on', channel=0, note=48, velocity=0, time=376),\n",
       "    Message('note_on', channel=0, note=60, velocity=0, time=6),\n",
       "    Message('note_on', channel=0, note=72, velocity=0, time=21),\n",
       "    Message('note_on', channel=0, note=79, velocity=79, time=249),\n",
       "    Message('note_on', channel=0, note=60, velocity=78, time=1),\n",
       "    Message('note_on', channel=0, note=64, velocity=79, time=0),\n",
       "    Message('note_on', channel=0, note=72, velocity=73, time=0),\n",
       "    Message('note_on', channel=0, note=79, velocity=0, time=3),\n",
       "    Message('note_on', channel=0, note=67, velocity=82, time=1),\n",
       "    Message('note_on', channel=0, note=55, velocity=74, time=0),\n",
       "    Message('note_on', channel=0, note=76, velocity=72, time=3),\n",
       "    Message('note_on', channel=0, note=48, velocity=74, time=0),\n",
       "    Message('note_on', channel=0, note=52, velocity=71, time=1),\n",
       "    Message('control_change', channel=0, control=64, value=127, time=756),\n",
       "    Message('control_change', channel=0, control=64, value=0, time=220),\n",
       "    Message('note_on', channel=0, note=52, velocity=0, time=6),\n",
       "    Message('note_on', channel=0, note=48, velocity=0, time=0),\n",
       "    Message('note_on', channel=0, note=64, velocity=0, time=1),\n",
       "    Message('note_on', channel=0, note=67, velocity=0, time=0),\n",
       "    Message('note_on', channel=0, note=60, velocity=0, time=0),\n",
       "    Message('note_on', channel=0, note=55, velocity=0, time=0),\n",
       "    Message('note_on', channel=0, note=76, velocity=0, time=2),\n",
       "    Message('note_on', channel=0, note=72, velocity=0, time=16),\n",
       "    Message('note_on', channel=0, note=55, velocity=60, time=420),\n",
       "    Message('note_on', channel=0, note=67, velocity=63, time=1),\n",
       "    Message('note_on', channel=0, note=81, velocity=76, time=243),\n",
       "    Message('note_on', channel=0, note=69, velocity=79, time=1),\n",
       "    Message('note_on', channel=0, note=67, velocity=0, time=77),\n",
       "    Message('note_on', channel=0, note=55, velocity=0, time=8),\n",
       "    Message('note_on', channel=0, note=71, velocity=85, time=172),\n",
       "    Message('note_on', channel=0, note=59, velocity=75, time=2),\n",
       "    Message('note_on', channel=0, note=69, velocity=0, time=31),\n",
       "    Message('note_on', channel=0, note=81, velocity=0, time=52),\n",
       "    Message('note_on', channel=0, note=60, velocity=80, time=170),\n",
       "    Message('note_on', channel=0, note=72, velocity=88, time=0),\n",
       "    Message('note_on', channel=0, note=71, velocity=0, time=34),\n",
       "    Message('note_on', channel=0, note=59, velocity=0, time=21),\n",
       "    Message('note_on', channel=0, note=74, velocity=89, time=196),\n",
       "    Message('note_on', channel=0, note=62, velocity=72, time=3),\n",
       "    Message('note_on', channel=0, note=60, velocity=0, time=38),\n",
       "    Message('note_on', channel=0, note=72, velocity=0, time=10),\n",
       "    Message('note_on', channel=0, note=76, velocity=89, time=192),\n",
       "    Message('note_on', channel=0, note=64, velocity=79, time=2),\n",
       "    Message('note_on', channel=0, note=74, velocity=0, time=48),\n",
       "    Message('note_on', channel=0, note=62, velocity=0, time=24),\n",
       "    Message('note_on', channel=0, note=66, velocity=78, time=179),\n",
       "    Message('note_on', channel=0, note=78, velocity=94, time=0),\n",
       "    Message('note_on', channel=0, note=64, velocity=0, time=54),\n",
       "    Message('note_on', channel=0, note=76, velocity=0, time=7),\n",
       "    Message('note_on', channel=0, note=79, velocity=85, time=193),\n",
       "    Message('note_on', channel=0, note=67, velocity=78, time=1),\n",
       "    Message('note_on', channel=0, note=78, velocity=0, time=29),\n",
       "    Message('note_on', channel=0, note=66, velocity=0, time=2),\n",
       "    Message('note_on', channel=0, note=78, velocity=90, time=218),\n",
       "    Message('note_on', channel=0, note=66, velocity=78, time=2),\n",
       "    Message('note_on', channel=0, note=79, velocity=0, time=38),\n",
       "    Message('note_on', channel=0, note=67, velocity=0, time=19),\n",
       "    Message('note_on', channel=0, note=64, velocity=74, time=193),\n",
       "    Message('note_on', channel=0, note=76, velocity=80, time=0),\n",
       "    Message('note_on', channel=0, note=78, velocity=0, time=47),\n",
       "    Message('note_on', channel=0, note=66, velocity=0, time=20),\n",
       "    Message('note_on', channel=0, note=62, velocity=67, time=177),\n",
       "    Message('note_on', channel=0, note=74, velocity=80, time=1),\n",
       "    Message('note_on', channel=0, note=76, velocity=0, time=28),\n",
       "    Message('note_on', channel=0, note=64, velocity=0, time=5),\n",
       "    Message('note_on', channel=0, note=60, velocity=72, time=218),\n",
       "    Message('note_on', channel=0, note=72, velocity=81, time=0),\n",
       "    Message('note_on', channel=0, note=74, velocity=0, time=32),\n",
       "    Message('note_on', channel=0, note=62, velocity=0, time=49),\n",
       "    Message('note_on', channel=0, note=71, velocity=80, time=181),\n",
       "    Message('note_on', channel=0, note=59, velocity=72, time=0),\n",
       "    Message('note_on', channel=0, note=60, velocity=0, time=29),\n",
       "    Message('note_on', channel=0, note=72, velocity=0, time=9),\n",
       "    Message('note_on', channel=0, note=69, velocity=71, time=212),\n",
       "    Message('note_on', channel=0, note=57, velocity=59, time=19),\n",
       "    Message('note_on', channel=0, note=71, velocity=0, time=56),\n",
       "    Message('note_on', channel=0, note=59, velocity=0, time=4),\n",
       "    Message('note_on', channel=0, note=67, velocity=69, time=178),\n",
       "    Message('note_on', channel=0, note=55, velocity=55, time=20),\n",
       "    Message('note_on', channel=0, note=57, velocity=0, time=23),\n",
       "    Message('note_on', channel=0, note=69, velocity=0, time=2),\n",
       "    Message('note_on', channel=0, note=55, velocity=0, time=359),\n",
       "    Message('note_on', channel=0, note=67, velocity=0, time=2),\n",
       "    Message('note_on', channel=0, note=55, velocity=74, time=266),\n",
       "    Message('note_on', channel=0, note=74, velocity=86, time=0),\n",
       "    Message('note_on', channel=0, note=59, velocity=79, time=2),\n",
       "    Message('note_on', channel=0, note=67, velocity=87, time=0),\n",
       "    Message('note_on', channel=0, note=62, velocity=71, time=1),\n",
       "    Message('note_on', channel=0, note=71, velocity=87, time=0),\n",
       "    Message('control_change', channel=0, control=64, value=127, time=265),\n",
       "    Message('control_change', channel=0, control=64, value=0, time=648),\n",
       "    Message('note_on', channel=0, note=67, velocity=0, time=4),\n",
       "    Message('note_on', channel=0, note=71, velocity=0, time=2),\n",
       "    Message('note_on', channel=0, note=55, velocity=0, time=0),\n",
       "    Message('note_on', channel=0, note=74, velocity=0, time=1),\n",
       "    Message('note_on', channel=0, note=62, velocity=0, time=3),\n",
       "    Message('note_on', channel=0, note=59, velocity=0, time=33),\n",
       "    Message('note_on', channel=0, note=62, velocity=63, time=411),\n",
       "    Message('note_on', channel=0, note=50, velocity=59, time=1),\n",
       "    Message('note_on', channel=0, note=64, velocity=80, time=232),\n",
       "    Message('note_on', channel=0, note=52, velocity=69, time=1),\n",
       "    Message('note_on', channel=0, note=62, velocity=0, time=34),\n",
       "    Message('note_on', channel=0, note=50, velocity=0, time=3),\n",
       "    Message('note_on', channel=0, note=78, velocity=77, time=205),\n",
       "    Message('note_on', channel=0, note=54, velocity=75, time=1),\n",
       "    Message('note_on', channel=0, note=66, velocity=80, time=1),\n",
       "    Message('note_on', channel=0, note=52, velocity=0, time=73),\n",
       "    Message('note_on', channel=0, note=64, velocity=0, time=3),\n",
       "    Message('note_on', channel=0, note=55, velocity=74, time=168),\n",
       "    Message('note_on', channel=0, note=79, velocity=76, time=3),\n",
       "    Message('note_on', channel=0, note=67, velocity=78, time=5),\n",
       "    Message('note_on', channel=0, note=54, velocity=0, time=31),\n",
       "    Message('note_on', channel=0, note=66, velocity=0, time=5),\n",
       "    Message('note_on', channel=0, note=78, velocity=0, time=29),\n",
       "    Message('note_on', channel=0, note=81, velocity=76, time=174),\n",
       "    Message('note_on', channel=0, note=57, velocity=77, time=2),\n",
       "    Message('note_on', channel=0, note=69, velocity=81, time=1),\n",
       "    Message('note_on', channel=0, note=67, velocity=0, time=52),\n",
       "    Message('note_on', channel=0, note=55, velocity=0, time=14),\n",
       "    Message('note_on', channel=0, note=79, velocity=0, time=10),\n",
       "    Message('note_on', channel=0, note=59, velocity=76, time=159),\n",
       "    Message('note_on', channel=0, note=71, velocity=89, time=1),\n",
       "    Message('note_on', channel=0, note=83, velocity=72, time=3),\n",
       "    Message('note_on', channel=0, note=83, velocity=0, time=6),\n",
       "    Message('note_on', channel=0, note=69, velocity=0, time=27),\n",
       "    Message('note_on', channel=0, note=81, velocity=0, time=12),\n",
       "    Message('note_on', channel=0, note=57, velocity=0, time=7),\n",
       "    Message('note_on', channel=0, note=61, velocity=74, time=191),\n",
       "    Message('note_on', channel=0, note=73, velocity=88, time=0),\n",
       "    Message('note_on', channel=0, note=85, velocity=76, time=2),\n",
       "    Message('note_on', channel=0, note=85, velocity=0, time=53),\n",
       "    Message('note_on', channel=0, note=71, velocity=0, time=6),\n",
       "    Message('note_on', channel=0, note=59, velocity=0, time=26),\n",
       "    Message('note_on', channel=0, note=74, velocity=90, time=156),\n",
       "    Message('note_on', channel=0, note=86, velocity=79, time=0),\n",
       "    Message('note_on', channel=0, note=62, velocity=76, time=1),\n",
       "    Message('note_on', channel=0, note=86, velocity=0, time=3),\n",
       "    Message('note_on', channel=0, note=61, velocity=0, time=51),\n",
       "    Message('note_on', channel=0, note=73, velocity=0, time=14),\n",
       "    Message('note_on', channel=0, note=73, velocity=90, time=181),\n",
       "    Message('note_on', channel=0, note=61, velocity=75, time=4),\n",
       "    Message('note_on', channel=0, note=74, velocity=0, time=50),\n",
       "    Message('note_on', channel=0, note=62, velocity=0, time=15),\n",
       "    Message('note_on', channel=0, note=59, velocity=76, time=172),\n",
       "    Message('note_on', channel=0, note=71, velocity=85, time=1),\n",
       "    Message('note_on', channel=0, note=73, velocity=0, time=79),\n",
       "    Message('note_on', channel=0, note=61, velocity=0, time=10),\n",
       "    Message('note_on', channel=0, note=57, velocity=71, time=146),\n",
       "    Message('note_on', channel=0, note=69, velocity=77, time=3),\n",
       "    Message('note_on', channel=0, note=71, velocity=0, time=39),\n",
       "    Message('note_on', channel=0, note=59, velocity=0, time=3),\n",
       "    Message('note_on', channel=0, note=79, velocity=74, time=204),\n",
       "    Message('note_on', channel=0, note=67, velocity=83, time=1),\n",
       "    Message('note_on', channel=0, note=55, velocity=72, time=0),\n",
       "    Message('note_on', channel=0, note=69, velocity=0, time=43),\n",
       "    Message('note_on', channel=0, note=57, velocity=0, time=2),\n",
       "    Message('note_on', channel=0, note=78, velocity=71, time=201),\n",
       "    Message('note_on', channel=0, note=66, velocity=78, time=4),\n",
       "    Message('note_on', channel=0, note=54, velocity=71, time=4),\n",
       "    Message('note_on', channel=0, note=79, velocity=0, time=27),\n",
       "    Message('note_on', channel=0, note=67, velocity=0, time=11),\n",
       "    Message('note_on', channel=0, note=78, velocity=0, time=2),\n",
       "    Message('note_on', channel=0, note=55, velocity=0, time=34),\n",
       "    Message('note_on', channel=0, note=64, velocity=77, time=185),\n",
       "    Message('note_on', channel=0, note=52, velocity=68, time=1),\n",
       "    Message('note_on', channel=0, note=76, velocity=66, time=1),\n",
       "    Message('note_on', channel=0, note=66, velocity=0, time=53),\n",
       "    Message('note_on', channel=0, note=54, velocity=0, time=5),\n",
       "    Message('note_on', channel=0, note=76, velocity=0, time=121),\n",
       "    Message('note_on', channel=0, note=52, velocity=0, time=84),\n",
       "    Message('note_on', channel=0, note=50, velocity=64, time=9),\n",
       "    Message('note_on', channel=0, note=62, velocity=70, time=0),\n",
       "    Message('note_on', channel=0, note=52, velocity=53, time=2),\n",
       "    Message('note_on', channel=0, note=52, velocity=0, time=70),\n",
       "    Message('note_on', channel=0, note=64, velocity=0, time=15),\n",
       "    Message('note_on', channel=0, note=50, velocity=0, time=322),\n",
       "    Message('note_on', channel=0, note=62, velocity=0, time=59),\n",
       "    Message('note_on', channel=0, note=66, velocity=79, time=206),\n",
       "    Message('note_on', channel=0, note=78, velocity=80, time=2),\n",
       "    Message('note_on', channel=0, note=74, velocity=77, time=1),\n",
       "    Message('note_on', channel=0, note=69, velocity=77, time=1),\n",
       "    Message('note_on', channel=0, note=62, velocity=78, time=1),\n",
       "    Message('note_on', channel=0, note=57, velocity=74, time=1),\n",
       "    Message('note_on', channel=0, note=54, velocity=72, time=0),\n",
       "    Message('note_on', channel=0, note=50, velocity=71, time=0),\n",
       "    Message('control_change', channel=0, control=64, value=127, time=509),\n",
       "    Message('control_change', channel=0, control=64, value=0, time=357),\n",
       "    Message('note_on', channel=0, note=57, velocity=0, time=5),\n",
       "    Message('note_on', channel=0, note=69, velocity=0, time=0),\n",
       "    Message('note_on', channel=0, note=62, velocity=0, time=1),\n",
       "    Message('note_on', channel=0, note=54, velocity=0, time=0),\n",
       "    Message('note_on', channel=0, note=50, velocity=0, time=1),\n",
       "    Message('note_on', channel=0, note=78, velocity=0, time=20),\n",
       "    Message('note_on', channel=0, note=66, velocity=0, time=16),\n",
       "    Message('note_on', channel=0, note=74, velocity=0, time=7),\n",
       "    Message('note_on', channel=0, note=45, velocity=51, time=292),\n",
       "    Message('note_on', channel=0, note=57, velocity=58, time=1),\n",
       "    Message('note_on', channel=0, note=71, velocity=70, time=230),\n",
       "    Message('note_on', channel=0, note=59, velocity=77, time=1),\n",
       "    Message('note_on', channel=0, note=47, velocity=68, time=1),\n",
       "    Message('note_on', channel=0, note=45, velocity=0, time=12),\n",
       "    Message('note_on', channel=0, note=57, velocity=0, time=2),\n",
       "    Message('note_on', channel=0, note=49, velocity=71, time=226),\n",
       "    Message('note_on', channel=0, note=61, velocity=82, time=1),\n",
       "    Message('note_on', channel=0, note=73, velocity=72, time=1),\n",
       "    Message('note_on', channel=0, note=47, velocity=0, time=75),\n",
       "    Message('note_on', channel=0, note=59, velocity=0, time=12),\n",
       "    Message('note_on', channel=0, note=71, velocity=0, time=22),\n",
       "    Message('note_on', channel=0, note=61, velocity=0, time=123),\n",
       "    Message('note_on', channel=0, note=50, velocity=78, time=3),\n",
       "    Message('note_on', channel=0, note=62, velocity=79, time=1),\n",
       "    Message('note_on', channel=0, note=73, velocity=0, time=3),\n",
       "    Message('note_on', channel=0, note=61, velocity=70, time=3),\n",
       "    Message('note_on', channel=0, note=49, velocity=0, time=33),\n",
       "    Message('note_on', channel=0, note=61, velocity=0, time=14),\n",
       "    Message('note_on', channel=0, note=64, velocity=85, time=192),\n",
       "    Message('note_on', channel=0, note=52, velocity=82, time=0),\n",
       "    Message('note_on', channel=0, note=50, velocity=0, time=25),\n",
       "    Message('note_on', channel=0, note=62, velocity=0, time=3),\n",
       "    Message('note_on', channel=0, note=66, velocity=82, time=211),\n",
       "    Message('note_on', channel=0, note=54, velocity=78, time=2),\n",
       "    Message('note_on', channel=0, note=52, velocity=0, time=36),\n",
       "    Message('note_on', channel=0, note=64, velocity=0, time=0),\n",
       "    Message('note_on', channel=0, note=54, velocity=0, time=203),\n",
       "    Message('note_on', channel=0, note=80, velocity=76, time=3),\n",
       "    Message('note_on', channel=0, note=68, velocity=87, time=1),\n",
       "    Message('note_on', channel=0, note=54, velocity=69, time=3),\n",
       "    Message('note_on', channel=0, note=56, velocity=75, time=3),\n",
       "    Message('note_on', channel=0, note=54, velocity=0, time=87),\n",
       "    Message('note_on', channel=0, note=66, velocity=0, time=18),\n",
       "    Message('note_on', channel=0, note=56, velocity=0, time=24),\n",
       "    Message('note_on', channel=0, note=81, velocity=80, time=104),\n",
       "    Message('note_on', channel=0, note=57, velocity=76, time=0),\n",
       "    Message('note_on', channel=0, note=69, velocity=86, time=1),\n",
       "    Message('note_on', channel=0, note=80, velocity=0, time=10),\n",
       "    Message('note_on', channel=0, note=68, velocity=0, time=38),\n",
       "    Message('note_on', channel=0, note=80, velocity=76, time=191),\n",
       "    Message('note_on', channel=0, note=68, velocity=88, time=3),\n",
       "    Message('note_on', channel=0, note=56, velocity=76, time=2),\n",
       "    Message('note_on', channel=0, note=81, velocity=0, time=11),\n",
       "    Message('note_on', channel=0, note=57, velocity=0, time=11),\n",
       "    Message('note_on', channel=0, note=69, velocity=0, time=0),\n",
       "    Message('note_on', channel=0, note=80, velocity=0, time=74),\n",
       "    Message('note_on', channel=0, note=56, velocity=0, time=15),\n",
       "    Message('note_on', channel=0, note=78, velocity=76, time=129),\n",
       "    Message('note_on', channel=0, note=54, velocity=79, time=1),\n",
       "    Message('note_on', channel=0, note=66, velocity=82, time=2),\n",
       "    Message('note_on', channel=0, note=68, velocity=0, time=53),\n",
       "    Message('note_on', channel=0, note=52, velocity=74, time=172),\n",
       "    Message('note_on', channel=0, note=64, velocity=79, time=16),\n",
       "    Message('note_on', channel=0, note=76, velocity=68, time=1),\n",
       "    Message('note_on', channel=0, note=78, velocity=0, time=3),\n",
       "    Message('note_on', channel=0, note=54, velocity=0, time=6),\n",
       "    Message('note_on', channel=0, note=66, velocity=0, time=87),\n",
       "    Message('note_on', channel=0, note=76, velocity=0, time=76),\n",
       "    Message('note_on', channel=0, note=50, velocity=72, time=63),\n",
       "    Message('note_on', channel=0, note=62, velocity=76, time=4),\n",
       "    Message('note_on', channel=0, note=74, velocity=65, time=5),\n",
       "    Message('note_on', channel=0, note=52, velocity=0, time=23),\n",
       "    Message('note_on', channel=0, note=64, velocity=0, time=46),\n",
       "    Message('note_on', channel=0, note=74, velocity=0, time=20),\n",
       "    Message('note_on', channel=0, note=49, velocity=71, time=148),\n",
       "    Message('note_on', channel=0, note=61, velocity=79, time=2),\n",
       "    Message('note_on', channel=0, note=73, velocity=67, time=0),\n",
       "    Message('note_on', channel=0, note=50, velocity=0, time=28),\n",
       "    Message('note_on', channel=0, note=62, velocity=0, time=12),\n",
       "    Message('note_on', channel=0, note=73, velocity=0, time=179),\n",
       "    Message('note_on', channel=0, note=71, velocity=71, time=28),\n",
       "    Message('note_on', channel=0, note=59, velocity=72, time=2),\n",
       "    Message('note_on', channel=0, note=47, velocity=68, time=4),\n",
       "    Message('note_on', channel=0, note=49, velocity=0, time=42),\n",
       "    Message('note_on', channel=0, note=61, velocity=0, time=16),\n",
       "    Message('note_on', channel=0, note=69, velocity=58, time=186),\n",
       "    Message('note_on', channel=0, note=57, velocity=68, time=1),\n",
       "    Message('note_on', channel=0, note=45, velocity=60, time=2),\n",
       "    Message('note_on', channel=0, note=59, velocity=0, time=83),\n",
       "    Message('note_on', channel=0, note=71, velocity=0, time=4),\n",
       "    Message('note_on', channel=0, note=47, velocity=0, time=16),\n",
       "    Message('note_on', channel=0, note=45, velocity=0, time=284),\n",
       "    Message('note_on', channel=0, note=57, velocity=0, time=3),\n",
       "    Message('note_on', channel=0, note=69, velocity=0, time=4),\n",
       "    Message('note_on', channel=0, note=61, velocity=74, time=269),\n",
       "    Message('note_on', channel=0, note=73, velocity=66, time=8),\n",
       "    Message('note_on', channel=0, note=49, velocity=67, time=0),\n",
       "    Message('note_on', channel=0, note=52, velocity=66, time=3),\n",
       "    Message('note_on', channel=0, note=76, velocity=67, time=0),\n",
       "    Message('note_on', channel=0, note=64, velocity=69, time=1),\n",
       "    Message('note_on', channel=0, note=69, velocity=62, time=0),\n",
       "    Message('note_on', channel=0, note=45, velocity=60, time=0),\n",
       "    Message('note_on', channel=0, note=57, velocity=65, time=1),\n",
       "    Message('control_change', channel=0, control=64, value=127, time=701),\n",
       "    Message('control_change', channel=0, control=64, value=0, time=97),\n",
       "    Message('note_on', channel=0, note=73, velocity=0, time=7),\n",
       "    Message('note_on', channel=0, note=57, velocity=0, time=0),\n",
       "    Message('note_on', channel=0, note=45, velocity=0, time=1),\n",
       "    Message('note_on', channel=0, note=76, velocity=0, time=0),\n",
       "    Message('note_on', channel=0, note=52, velocity=0, time=1),\n",
       "    Message('note_on', channel=0, note=64, velocity=0, time=5),\n",
       "    Message('note_on', channel=0, note=61, velocity=0, time=20),\n",
       "    Message('note_on', channel=0, note=61, velocity=40, time=6),\n",
       "    Message('note_on', channel=0, note=49, velocity=0, time=17),\n",
       "    Message('note_on', channel=0, note=69, velocity=0, time=8),\n",
       "    Message('note_on', channel=0, note=61, velocity=0, time=5),\n",
       "    Message('note_on', channel=0, note=52, velocity=61, time=291),\n",
       "    Message('note_on', channel=0, note=64, velocity=61, time=6),\n",
       "    Message('note_on', channel=0, note=76, velocity=53, time=1),\n",
       "    Message('note_on', channel=0, note=78, velocity=70, time=233),\n",
       "    Message('note_on', channel=0, note=66, velocity=71, time=5),\n",
       "    Message('note_on', channel=0, note=54, velocity=69, time=4),\n",
       "    Message('note_on', channel=0, note=52, velocity=0, time=40),\n",
       "    Message('note_on', channel=0, note=64, velocity=0, time=7),\n",
       "    Message('note_on', channel=0, note=76, velocity=0, time=114),\n",
       "    Message('note_on', channel=0, note=54, velocity=0, time=62),\n",
       "    Message('note_on', channel=0, note=54, velocity=62, time=5),\n",
       "    Message('note_on', channel=0, note=80, velocity=73, time=3),\n",
       "    Message('note_on', channel=0, note=56, velocity=67, time=2),\n",
       "    Message('note_on', channel=0, note=68, velocity=83, time=1),\n",
       "    Message('note_on', channel=0, note=78, velocity=0, time=89),\n",
       "    Message('note_on', channel=0, note=54, velocity=0, time=10),\n",
       "    Message('note_on', channel=0, note=66, velocity=0, time=13),\n",
       "    Message('note_on', channel=0, note=57, velocity=74, time=104),\n",
       "    Message('note_on', channel=0, note=76, velocity=68, time=14),\n",
       "    Message('note_on', channel=0, note=81, velocity=75, time=1),\n",
       "    Message('note_on', channel=0, note=69, velocity=79, time=1),\n",
       "    Message('note_on', channel=0, note=56, velocity=0, time=10),\n",
       "    Message('note_on', channel=0, note=68, velocity=0, time=33),\n",
       "    Message('note_on', channel=0, note=80, velocity=0, time=13),\n",
       "    Message('note_on', channel=0, note=59, velocity=81, time=183),\n",
       "    Message('note_on', channel=0, note=71, velocity=88, time=2),\n",
       "    Message('note_on', channel=0, note=57, velocity=0, time=53),\n",
       "    Message('note_on', channel=0, note=81, velocity=0, time=0),\n",
       "    Message('note_on', channel=0, note=69, velocity=0, time=4),\n",
       "    Message('note_on', channel=0, note=76, velocity=0, time=58),\n",
       "    Message('note_on', channel=0, note=73, velocity=93, time=115),\n",
       "    Message('note_on', channel=0, note=61, velocity=78, time=6),\n",
       "    Message('note_on', channel=0, note=71, velocity=0, time=35),\n",
       "    Message('note_on', channel=0, note=59, velocity=0, time=8),\n",
       "    Message('note_on', channel=0, note=63, velocity=76, time=187),\n",
       "    Message('note_on', channel=0, note=75, velocity=93, time=2),\n",
       "    Message('note_on', channel=0, note=61, velocity=0, time=29),\n",
       "    Message('note_on', channel=0, note=73, velocity=0, time=73),\n",
       "    Message('note_on', channel=0, note=63, velocity=0, time=67),\n",
       "    Message('note_on', channel=0, note=76, velocity=91, time=57),\n",
       "    Message('note_on', channel=0, note=64, velocity=78, time=1),\n",
       "    Message('note_on', channel=0, note=75, velocity=0, time=55),\n",
       "    Message('note_on', channel=0, note=63, velocity=71, time=177),\n",
       "    Message('note_on', channel=0, note=75, velocity=94, time=1),\n",
       "    Message('note_on', channel=0, note=76, velocity=0, time=64),\n",
       "    Message('note_on', channel=0, note=64, velocity=0, time=18),\n",
       "    Message('note_on', channel=0, note=63, velocity=0, time=111),\n",
       "    Message('note_on', channel=0, note=61, velocity=74, time=50),\n",
       "    Message('note_on', channel=0, note=73, velocity=87, time=0),\n",
       "    Message('note_on', channel=0, note=75, velocity=0, time=119),\n",
       "    Message('note_on', channel=0, note=59, velocity=75, time=101),\n",
       "    Message('note_on', channel=0, note=71, velocity=85, time=17),\n",
       "    Message('note_on', channel=0, note=61, velocity=0, time=70),\n",
       "    Message('note_on', channel=0, note=73, velocity=0, time=14),\n",
       "    Message('note_on', channel=0, note=57, velocity=74, time=157),\n",
       "    Message('note_on', channel=0, note=69, velocity=76, time=2),\n",
       "    Message('note_on', channel=0, note=71, velocity=0, time=37),\n",
       "    Message('note_on', channel=0, note=59, velocity=0, time=16),\n",
       "    Message('note_on', channel=0, note=80, velocity=74, time=176),\n",
       "    Message('note_on', channel=0, note=68, velocity=86, time=3),\n",
       "    Message('note_on', channel=0, note=80, velocity=0, time=6),\n",
       "    Message('note_on', channel=0, note=56, velocity=69, time=15),\n",
       "    Message('note_on', channel=0, note=69, velocity=0, time=19),\n",
       "    Message('note_on', channel=0, note=57, velocity=0, time=4),\n",
       "    Message('note_on', channel=0, note=66, velocity=77, time=196),\n",
       "    Message('note_on', channel=0, note=54, velocity=70, time=1),\n",
       "    Message('note_on', channel=0, note=56, velocity=0, time=57),\n",
       "    Message('note_on', channel=0, note=68, velocity=0, time=6),\n",
       "    Message('note_on', channel=0, note=52, velocity=70, time=188),\n",
       "    Message('note_on', channel=0, note=64, velocity=64, time=1),\n",
       "    Message('note_on', channel=0, note=54, velocity=0, time=59),\n",
       "    Message('note_on', channel=0, note=66, velocity=0, time=10),\n",
       "    Message('note_on', channel=0, note=52, velocity=0, time=327),\n",
       "    Message('note_on', channel=0, note=64, velocity=0, time=23),\n",
       "    Message('note_on', channel=0, note=71, velocity=82, time=240),\n",
       "    Message('note_on', channel=0, note=68, velocity=79, time=0),\n",
       "    Message('note_on', channel=0, note=59, velocity=76, time=1),\n",
       "    Message('note_on', channel=0, note=64, velocity=73, time=0),\n",
       "    Message('note_on', channel=0, note=76, velocity=75, time=0),\n",
       "    Message('note_on', channel=0, note=56, velocity=70, time=1),\n",
       "    Message('note_on', channel=0, note=52, velocity=69, time=0),\n",
       "    Message('control_change', channel=0, control=64, value=127, time=296),\n",
       "    Message('control_change', channel=0, control=64, value=0, time=557),\n",
       "    Message('note_on', channel=0, note=71, velocity=0, time=6),\n",
       "    Message('note_on', channel=0, note=59, velocity=0, time=5),\n",
       "    Message('note_on', channel=0, note=52, velocity=0, time=0),\n",
       "    Message('note_on', channel=0, note=76, velocity=0, time=0),\n",
       "    Message('note_on', channel=0, note=68, velocity=0, time=40),\n",
       "    Message('note_on', channel=0, note=64, velocity=0, time=2),\n",
       "    Message('note_on', channel=0, note=56, velocity=0, time=4),\n",
       "    Message('note_on', channel=0, note=71, velocity=63, time=465),\n",
       "    Message('note_on', channel=0, note=59, velocity=73, time=0),\n",
       "    Message('note_on', channel=0, note=47, velocity=70, time=1),\n",
       "    Message('note_on', channel=0, note=49, velocity=71, time=215),\n",
       "    Message('note_on', channel=0, note=73, velocity=68, time=10),\n",
       "    Message('note_on', channel=0, note=61, velocity=76, time=3),\n",
       "    Message('note_on', channel=0, note=59, velocity=0, time=28),\n",
       "    Message('note_on', channel=0, note=47, velocity=0, time=0),\n",
       "    Message('note_on', channel=0, note=71, velocity=0, time=84),\n",
       "    Message('note_on', channel=0, note=51, velocity=80, time=104),\n",
       "    Message('note_on', channel=0, note=63, velocity=80, time=7),\n",
       "    Message('note_on', channel=0, note=49, velocity=0, time=16),\n",
       "    Message('note_on', channel=0, note=61, velocity=0, time=17),\n",
       "    Message('note_on', channel=0, note=73, velocity=0, time=2),\n",
       "    Message('note_on', channel=0, note=64, velocity=84, time=211),\n",
       "    Message('note_on', channel=0, note=52, velocity=85, time=0),\n",
       "    Message('note_on', channel=0, note=51, velocity=0, time=12),\n",
       "    Message('note_on', channel=0, note=63, velocity=0, time=18),\n",
       "    Message('note_on', channel=0, note=54, velocity=78, time=226),\n",
       "    Message('note_on', channel=0, note=66, velocity=84, time=1),\n",
       "    Message('note_on', channel=0, note=52, velocity=0, time=5),\n",
       "    Message('note_on', channel=0, note=64, velocity=0, time=78),\n",
       "    Message('note_on', channel=0, note=80, velocity=74, time=143),\n",
       "    Message('note_on', channel=0, note=56, velocity=73, time=1),\n",
       "    Message('note_on', channel=0, note=68, velocity=88, time=4),\n",
       "    Message('note_on', channel=0, note=54, velocity=0, time=26),\n",
       "    Message('note_on', channel=0, note=66, velocity=0, time=48),\n",
       "    Message('note_on', channel=0, note=56, velocity=0, time=49),\n",
       "    Message('note_on', channel=0, note=80, velocity=0, time=39),\n",
       "    Message('note_on', channel=0, note=58, velocity=80, time=59),\n",
       "    Message('note_on', channel=0, note=70, velocity=83, time=5),\n",
       "    Message('note_on', channel=0, note=68, velocity=0, time=71),\n",
       "    Message('note_on', channel=0, note=71, velocity=89, time=175),\n",
       "    Message('note_on', channel=0, note=59, velocity=78, time=1),\n",
       "    Message('note_on', channel=0, note=58, velocity=0, time=38),\n",
       "    Message('note_on', channel=0, note=70, velocity=0, time=1),\n",
       "    Message('note_on', channel=0, note=70, velocity=85, time=199),\n",
       "    Message('note_on', channel=0, note=58, velocity=81, time=0),\n",
       "    Message('note_on', channel=0, note=71, velocity=0, time=73),\n",
       "    Message('note_on', channel=0, note=59, velocity=0, time=6),\n",
       "    Message('note_on', channel=0, note=80, velocity=77, time=157),\n",
       "    Message('note_on', channel=0, note=68, velocity=84, time=1),\n",
       "    Message('note_on', channel=0, note=56, velocity=72, time=0),\n",
       "    Message('note_on', channel=0, note=70, velocity=0, time=48),\n",
       "    Message('note_on', channel=0, note=58, velocity=0, time=5),\n",
       "    Message('note_on', channel=0, note=56, velocity=0, time=59),\n",
       "    Message('note_on', channel=0, note=54, velocity=73, time=115),\n",
       "    Message('note_on', channel=0, note=78, velocity=72, time=3),\n",
       "    Message('note_on', channel=0, note=66, velocity=76, time=1),\n",
       "    Message('note_on', channel=0, note=68, velocity=0, time=61),\n",
       "    Message('note_on', channel=0, note=80, velocity=0, time=89),\n",
       "    Message('note_on', channel=0, note=52, velocity=69, time=59),\n",
       "    Message('note_on', channel=0, note=64, velocity=80, time=35),\n",
       "    Message('note_on', channel=0, note=76, velocity=64, time=1),\n",
       "    Message('note_on', channel=0, note=54, velocity=0, time=1),\n",
       "    Message('note_on', channel=0, note=66, velocity=0, time=54),\n",
       "    Message('note_on', channel=0, note=78, velocity=0, time=3),\n",
       "    Message('note_on', channel=0, note=63, velocity=78, time=165),\n",
       "    Message('note_on', channel=0, note=51, velocity=72, time=0),\n",
       "    Message('note_on', channel=0, note=75, velocity=67, time=1),\n",
       "    Message('note_on', channel=0, note=76, velocity=0, time=34),\n",
       "    Message('note_on', channel=0, note=52, velocity=0, time=1),\n",
       "    Message('note_on', channel=0, note=64, velocity=0, time=22),\n",
       "    Message('note_on', channel=0, note=75, velocity=0, time=31),\n",
       "    Message('note_on', channel=0, note=49, velocity=74, time=145),\n",
       "    Message('note_on', channel=0, note=61, velocity=79, time=4),\n",
       "    Message('note_on', channel=0, note=73, velocity=67, time=1),\n",
       "    Message('note_on', channel=0, note=51, velocity=0, time=23),\n",
       "    Message('note_on', channel=0, note=63, velocity=0, time=11),\n",
       "    Message('note_on', channel=0, note=47, velocity=68, time=236),\n",
       "    Message('note_on', channel=0, note=59, velocity=68, time=0),\n",
       "    Message('note_on', channel=0, note=73, velocity=0, time=2),\n",
       "    Message('note_on', channel=0, note=71, velocity=63, time=1),\n",
       "    Message('note_on', channel=0, note=49, velocity=0, time=44),\n",
       "    Message('note_on', channel=0, note=61, velocity=0, time=6),\n",
       "    Message('note_on', channel=0, note=47, velocity=0, time=395),\n",
       "    Message('note_on', channel=0, note=71, velocity=0, time=102),\n",
       "    Message('note_on', channel=0, note=59, velocity=0, time=1),\n",
       "    Message('note_on', channel=0, note=59, velocity=75, time=314),\n",
       "    Message('note_on', channel=0, note=63, velocity=74, time=1),\n",
       "    Message('note_on', channel=0, note=71, velocity=72, time=1),\n",
       "    Message('note_on', channel=0, note=75, velocity=69, time=0),\n",
       "    Message('note_on', channel=0, note=47, velocity=60, time=4),\n",
       "    Message('note_on', channel=0, note=66, velocity=67, time=2),\n",
       "    Message('note_on', channel=0, note=54, velocity=65, time=0),\n",
       "    Message('note_on', channel=0, note=51, velocity=64, time=1),\n",
       "    Message('control_change', channel=0, control=64, value=127, time=756),\n",
       "    Message('note_on', channel=0, note=66, velocity=0, time=346),\n",
       "    Message('note_on', channel=0, note=66, velocity=29, time=10),\n",
       "    Message('note_on', channel=0, note=71, velocity=0, time=36),\n",
       "    Message('note_on', channel=0, note=75, velocity=0, time=0),\n",
       "    Message('note_on', channel=0, note=51, velocity=0, time=1),\n",
       "    Message('note_on', channel=0, note=63, velocity=0, time=1),\n",
       "    Message('note_on', channel=0, note=59, velocity=0, time=1),\n",
       "    Message('control_change', channel=0, control=64, value=0, time=0),\n",
       "    Message('note_on', channel=0, note=47, velocity=0, time=0),\n",
       "    Message('note_on', channel=0, note=66, velocity=0, time=0),\n",
       "    Message('note_on', channel=0, note=54, velocity=0, time=1),\n",
       "    Message('note_on', channel=0, note=65, velocity=67, time=3479),\n",
       "    Message('note_on', channel=0, note=53, velocity=65, time=0),\n",
       "    Message('note_on', channel=0, note=79, velocity=78, time=238),\n",
       "    Message('note_on', channel=0, note=67, velocity=83, time=0),\n",
       "    Message('note_on', channel=0, note=55, velocity=74, time=1),\n",
       "    Message('note_on', channel=0, note=53, velocity=0, time=80),\n",
       "    Message('note_on', channel=0, note=65, velocity=0, time=26),\n",
       "    Message('note_on', channel=0, note=55, velocity=0, time=127),\n",
       "    Message('note_on', channel=0, note=55, velocity=69, time=7),\n",
       "    Message('note_on', channel=0, note=81, velocity=81, time=2),\n",
       "    Message('note_on', channel=0, note=57, velocity=75, time=0),\n",
       "    Message('note_on', channel=0, note=69, velocity=85, time=1),\n",
       "    Message('note_on', channel=0, note=79, velocity=0, time=52),\n",
       "    Message('note_on', channel=0, note=55, velocity=0, time=26),\n",
       "    Message('note_on', channel=0, note=67, velocity=0, time=12),\n",
       "    Message('note_on', channel=0, note=70, velocity=82, time=123),\n",
       "    Message('note_on', channel=0, note=58, velocity=79, time=2),\n",
       "    Message('note_on', channel=0, note=81, velocity=0, time=6),\n",
       "    Message('note_on', channel=0, note=57, velocity=0, time=44),\n",
       "    Message('note_on', channel=0, note=69, velocity=0, time=5),\n",
       "    Message('note_on', channel=0, note=72, velocity=87, time=168),\n",
       "    Message('note_on', channel=0, note=60, velocity=77, time=11),\n",
       "    Message('note_on', channel=0, note=70, velocity=0, time=31),\n",
       "    Message('note_on', channel=0, note=58, velocity=0, time=7),\n",
       "    Message('note_on', channel=0, note=74, velocity=92, time=204),\n",
       "    Message('note_on', channel=0, note=62, velocity=79, time=1),\n",
       "    Message('note_on', channel=0, note=72, velocity=0, time=40),\n",
       "    Message('note_on', channel=0, note=60, velocity=0, time=0),\n",
       "    Message('note_on', channel=0, note=64, velocity=79, time=192),\n",
       "    Message('note_on', channel=0, note=76, velocity=91, time=0),\n",
       "    Message('note_on', channel=0, note=74, velocity=0, time=80),\n",
       "    Message('note_on', channel=0, note=62, velocity=0, time=17),\n",
       "    Message('note_on', channel=0, note=77, velocity=90, time=132),\n",
       "    Message('note_on', channel=0, note=65, velocity=75, time=1),\n",
       "    Message('note_on', channel=0, note=64, velocity=0, time=78),\n",
       "    Message('note_on', channel=0, note=76, velocity=0, time=6),\n",
       "    Message('note_on', channel=0, note=76, velocity=88, time=153),\n",
       "    Message('note_on', channel=0, note=64, velocity=75, time=0),\n",
       "    Message('note_on', channel=0, note=77, velocity=0, time=74),\n",
       "    Message('note_on', channel=0, note=65, velocity=0, time=12),\n",
       "    Message('note_on', channel=0, note=62, velocity=73, time=135),\n",
       "    Message('note_on', channel=0, note=74, velocity=84, time=3),\n",
       "    Message('note_on', channel=0, note=64, velocity=0, time=30),\n",
       "    Message('note_on', channel=0, note=76, velocity=0, time=58),\n",
       "    Message('note_on', channel=0, note=60, velocity=75, time=149),\n",
       "    Message('note_on', channel=0, note=72, velocity=85, time=0),\n",
       "    Message('note_on', channel=0, note=74, velocity=0, time=38),\n",
       "    Message('note_on', channel=0, note=62, velocity=0, time=1),\n",
       "    Message('note_on', channel=0, note=70, velocity=74, time=200),\n",
       "    Message('note_on', channel=0, note=58, velocity=70, time=10),\n",
       "    Message('note_on', channel=0, note=72, velocity=0, time=55),\n",
       "    Message('note_on', channel=0, note=60, velocity=0, time=15),\n",
       "    Message('note_on', channel=0, note=69, velocity=74, time=152),\n",
       "    Message('note_on', channel=0, note=57, velocity=64, time=18),\n",
       "    Message('note_on', channel=0, note=58, velocity=0, time=15),\n",
       "    Message('note_on', channel=0, note=70, velocity=0, time=3),\n",
       "    Message('note_on', channel=0, note=79, velocity=72, time=213),\n",
       "    Message('note_on', channel=0, note=67, velocity=75, time=1),\n",
       "    Message('note_on', channel=0, note=55, velocity=66, time=1),\n",
       "    Message('note_on', channel=0, note=69, velocity=0, time=39),\n",
       "    Message('note_on', channel=0, note=57, velocity=0, time=7),\n",
       "    Message('note_on', channel=0, note=53, velocity=61, time=216),\n",
       "    Message('note_on', channel=0, note=65, velocity=64, time=1),\n",
       "    Message('note_on', channel=0, note=77, velocity=59, time=1),\n",
       "    Message('note_on', channel=0, note=72, velocity=50, time=2),\n",
       "    Message('note_on', channel=0, note=72, velocity=0, time=7),\n",
       "    Message('note_on', channel=0, note=79, velocity=0, time=0),\n",
       "    Message('note_on', channel=0, note=67, velocity=0, time=30),\n",
       "    Message('note_on', channel=0, note=77, velocity=0, time=32),\n",
       "    Message('note_on', channel=0, note=55, velocity=0, time=22),\n",
       "    Message('note_on', channel=0, note=53, velocity=0, time=328),\n",
       "    Message('note_on', channel=0, note=65, velocity=0, time=54),\n",
       "    Message('note_on', channel=0, note=72, velocity=74, time=281),\n",
       "    Message('note_on', channel=0, note=65, velocity=63, time=2),\n",
       "    Message('note_on', channel=0, note=69, velocity=65, time=8),\n",
       "    Message('note_on', channel=0, note=60, velocity=56, time=9),\n",
       "    Message('note_on', channel=0, note=53, velocity=52, time=0),\n",
       "    Message('note_on', channel=0, note=45, velocity=47, time=3),\n",
       "    Message('note_on', channel=0, note=48, velocity=46, time=3),\n",
       "    Message('note_on', channel=0, note=57, velocity=56, time=1),\n",
       "    Message('note_on', channel=0, note=45, velocity=0, time=3),\n",
       "    Message('note_on', channel=0, note=48, velocity=0, time=0),\n",
       "    Message('control_change', channel=0, control=64, value=127, time=146),\n",
       "    Message('control_change', channel=0, control=64, value=0, time=843),\n",
       "    Message('note_on', channel=0, note=60, velocity=0, time=1),\n",
       "    Message('note_on', channel=0, note=57, velocity=0, time=2),\n",
       "    Message('note_on', channel=0, note=69, velocity=0, time=1),\n",
       "    Message('note_on', channel=0, note=72, velocity=0, time=1),\n",
       "    Message('note_on', channel=0, note=53, velocity=0, time=0),\n",
       "    Message('note_on', channel=0, note=65, velocity=0, time=1),\n",
       "    Message('note_on', channel=0, note=58, velocity=76, time=681),\n",
       "    Message('note_on', channel=0, note=46, velocity=64, time=4),\n",
       "    Message('control_change', channel=0, control=64, value=127, time=71),\n",
       "    Message('note_on', channel=0, note=48, velocity=70, time=159),\n",
       "    Message('note_on', channel=0, note=60, velocity=74, time=7),\n",
       "    Message('note_on', channel=0, note=72, velocity=68, time=6),\n",
       "    Message('control_change', channel=0, control=64, value=0, time=48),\n",
       "    Message('note_on', channel=0, note=58, velocity=0, time=3),\n",
       "    Message('note_on', channel=0, note=46, velocity=0, time=61),\n",
       "    Message('note_on', channel=0, note=62, velocity=73, time=129),\n",
       "    Message('note_on', channel=0, note=50, velocity=70, time=2),\n",
       "    Message('note_on', channel=0, note=74, velocity=67, time=1),\n",
       "    Message('note_on', channel=0, note=48, velocity=0, time=5),\n",
       "    Message('note_on', channel=0, note=74, velocity=0, time=1),\n",
       "    Message('note_on', channel=0, note=72, velocity=0, time=47),\n",
       "    Message('note_on', channel=0, note=60, velocity=0, time=12),\n",
       "    Message('note_on', channel=0, note=51, velocity=71, time=169),\n",
       "    Message('note_on', channel=0, note=63, velocity=75, time=6),\n",
       "    Message('note_on', channel=0, note=75, velocity=70, time=1),\n",
       "    Message('note_on', channel=0, note=50, velocity=0, time=19),\n",
       "    Message('note_on', channel=0, note=62, velocity=0, time=4),\n",
       "    Message('note_on', channel=0, note=75, velocity=0, time=119),\n",
       "    Message('note_on', channel=0, note=53, velocity=73, time=95),\n",
       "    Message('note_on', channel=0, note=65, velocity=74, time=2),\n",
       "    Message('note_on', channel=0, note=51, velocity=0, time=41),\n",
       "    Message('note_on', channel=0, note=63, velocity=0, time=4),\n",
       "    Message('note_on', channel=0, note=79, velocity=76, time=185),\n",
       "    Message('note_on', channel=0, note=55, velocity=75, time=0),\n",
       "    Message('note_on', channel=0, note=67, velocity=85, time=1),\n",
       "    Message('note_on', channel=0, note=53, velocity=0, time=40),\n",
       "    Message('note_on', channel=0, note=65, velocity=0, time=36),\n",
       "    Message('note_on', channel=0, note=81, velocity=84, time=161),\n",
       "    Message('note_on', channel=0, note=69, velocity=87, time=2),\n",
       "    Message('note_on', channel=0, note=57, velocity=78, time=3),\n",
       "    Message('note_on', channel=0, note=55, velocity=0, time=87),\n",
       "    Message('note_on', channel=0, note=67, velocity=0, time=1),\n",
       "    Message('note_on', channel=0, note=79, velocity=0, time=2),\n",
       "    Message('note_on', channel=0, note=58, velocity=80, time=127),\n",
       "    Message('note_on', channel=0, note=70, velocity=87, time=16),\n",
       "    Message('note_on', channel=0, note=81, velocity=0, time=11),\n",
       "    Message('note_on', channel=0, note=69, velocity=0, time=8),\n",
       "    Message('note_on', channel=0, note=57, velocity=0, time=3),\n",
       "    Message('note_on', channel=0, note=57, velocity=67, time=213),\n",
       "    Message('note_on', channel=0, note=81, velocity=73, time=4),\n",
       "    Message('note_on', channel=0, note=69, velocity=76, time=3),\n",
       "    Message('note_on', channel=0, note=70, velocity=0, time=29),\n",
       "    Message('note_on', channel=0, note=58, velocity=0, time=5),\n",
       "    Message('note_on', channel=0, note=81, velocity=0, time=150),\n",
       "    Message('note_on', channel=0, note=55, velocity=69, time=41),\n",
       "    Message('note_on', channel=0, note=79, velocity=73, time=9),\n",
       "    Message('note_on', channel=0, note=67, velocity=77, time=4),\n",
       "    Message('note_on', channel=0, note=57, velocity=0, time=34),\n",
       "    Message('note_on', channel=0, note=69, velocity=0, time=14),\n",
       "    Message('note_on', channel=0, note=53, velocity=75, time=161),\n",
       "    Message('note_on', channel=0, note=79, velocity=0, time=13),\n",
       "    Message('note_on', channel=0, note=77, velocity=69, time=5),\n",
       "    Message('note_on', channel=0, note=65, velocity=75, time=0),\n",
       "    Message('note_on', channel=0, note=67, velocity=0, time=43),\n",
       "    Message('note_on', channel=0, note=55, velocity=0, time=4),\n",
       "    Message('note_on', channel=0, note=77, velocity=0, time=33),\n",
       "    Message('note_on', channel=0, note=63, velocity=76, time=148),\n",
       "    Message('note_on', channel=0, note=75, velocity=66, time=0),\n",
       "    Message('note_on', channel=0, note=51, velocity=69, time=2),\n",
       "    Message('note_on', channel=0, note=53, velocity=0, time=43),\n",
       "    Message('note_on', channel=0, note=65, velocity=0, time=3),\n",
       "    Message('note_on', channel=0, note=75, velocity=0, time=57),\n",
       "    Message('note_on', channel=0, note=74, velocity=67, time=138),\n",
       "    Message('note_on', channel=0, note=62, velocity=73, time=3),\n",
       "    Message('note_on', channel=0, note=50, velocity=72, time=2),\n",
       "    Message('note_on', channel=0, note=74, velocity=0, time=3),\n",
       "    Message('note_on', channel=0, note=63, velocity=0, time=26),\n",
       "    Message('note_on', channel=0, note=51, velocity=0, time=5),\n",
       "    Message('note_on', channel=0, note=48, velocity=70, time=203),\n",
       "    Message('note_on', channel=0, note=60, velocity=73, time=5),\n",
       "    Message('note_on', channel=0, note=72, velocity=68, time=0),\n",
       "    Message('note_on', channel=0, note=50, velocity=0, time=4),\n",
       "    Message('note_on', channel=0, note=62, velocity=0, time=13),\n",
       "    Message('note_on', channel=0, note=70, velocity=65, time=225),\n",
       "    Message('note_on', channel=0, note=58, velocity=72, time=0),\n",
       "    Message('note_on', channel=0, note=46, velocity=67, time=1),\n",
       "    Message('note_on', channel=0, note=48, velocity=0, time=51),\n",
       "    Message('note_on', channel=0, note=72, velocity=0, time=4),\n",
       "    Message('note_on', channel=0, note=60, velocity=0, time=4),\n",
       "    Message('note_on', channel=0, note=46, velocity=0, time=439),\n",
       "    Message('note_on', channel=0, note=58, velocity=0, time=1),\n",
       "    Message('note_on', channel=0, note=70, velocity=0, time=2),\n",
       "    Message('note_on', channel=0, note=58, velocity=74, time=357),\n",
       "    Message('note_on', channel=0, note=62, velocity=71, time=3),\n",
       "    Message('note_on', channel=0, note=50, velocity=69, time=3),\n",
       "    Message('note_on', channel=0, note=46, velocity=68, time=0),\n",
       "    Message('note_on', channel=0, note=53, velocity=67, time=1),\n",
       "    Message('note_on', channel=0, note=65, velocity=69, time=0),\n",
       "    Message('control_change', channel=0, control=64, value=127, time=473),\n",
       "    Message('note_on', channel=0, note=53, velocity=0, time=425),\n",
       "    Message('note_on', channel=0, note=65, velocity=0, time=1),\n",
       "    Message('note_on', channel=0, note=58, velocity=0, time=1),\n",
       "    Message('note_on', channel=0, note=46, velocity=0, time=1),\n",
       "    Message('note_on', channel=0, note=50, velocity=0, time=0),\n",
       "    Message('control_change', channel=0, control=64, value=0, time=2),\n",
       "    Message('note_on', channel=0, note=62, velocity=0, time=1),\n",
       "    Message('note_on', channel=0, note=63, velocity=67, time=473),\n",
       "    Message('note_on', channel=0, note=51, velocity=66, time=0),\n",
       "    Message('note_on', channel=0, note=53, velocity=73, time=214),\n",
       "    Message('note_on', channel=0, note=65, velocity=69, time=28),\n",
       "    Message('note_on', channel=0, note=51, velocity=0, time=60),\n",
       "    Message('note_on', channel=0, note=63, velocity=0, time=10),\n",
       "    Message('note_on', channel=0, note=65, velocity=0, time=151),\n",
       "    Message('note_on', channel=0, note=79, velocity=76, time=3),\n",
       "    Message('note_on', channel=0, note=55, velocity=76, time=1),\n",
       "    Message('note_on', channel=0, note=67, velocity=83, time=0),\n",
       "    Message('note_on', channel=0, note=65, velocity=62, time=7),\n",
       "    Message('note_on', channel=0, note=53, velocity=0, time=19),\n",
       "    Message('note_on', channel=0, note=65, velocity=0, time=67),\n",
       "    Message('note_on', channel=0, note=80, velocity=74, time=136),\n",
       "    Message('note_on', channel=0, note=68, velocity=82, time=1),\n",
       "    Message('note_on', channel=0, note=56, velocity=72, time=1),\n",
       "    Message('note_on', channel=0, note=55, velocity=0, time=31),\n",
       "    Message('note_on', channel=0, note=67, velocity=0, time=34),\n",
       "    Message('note_on', channel=0, note=79, velocity=0, time=7),\n",
       "    Message('note_on', channel=0, note=56, velocity=0, time=23),\n",
       "    Message('note_on', channel=0, note=58, velocity=77, time=127),\n",
       "    Message('note_on', channel=0, note=70, velocity=82, time=8),\n",
       "    Message('note_on', channel=0, note=68, velocity=0, time=20),\n",
       "    Message('note_on', channel=0, note=80, velocity=0, time=14),\n",
       "    Message('note_on', channel=0, note=58, velocity=0, time=115),\n",
       "    Message('note_on', channel=0, note=60, velocity=76, time=76),\n",
       "    Message('note_on', channel=0, note=58, velocity=74, time=2),\n",
       "    Message('note_on', channel=0, note=72, velocity=88, time=2),\n",
       "    Message('note_on', channel=0, note=70, velocity=0, time=35),\n",
       "    Message('note_on', channel=0, note=58, velocity=0, time=28),\n",
       "    Message('note_on', channel=0, note=60, velocity=0, time=172),\n",
       "    Message('note_on', channel=0, note=62, velocity=75, time=4),\n",
       "    Message('note_on', channel=0, note=74, velocity=84, time=2),\n",
       "    Message('note_on', channel=0, note=60, velocity=65, time=0),\n",
       "    Message('note_on', channel=0, note=60, velocity=0, time=63),\n",
       "    Message('note_on', channel=0, note=72, velocity=0, time=13),\n",
       "    Message('note_on', channel=0, note=63, velocity=73, time=146),\n",
       "    Message('note_on', channel=0, note=75, velocity=95, time=4),\n",
       "    Message('note_on', channel=0, note=74, velocity=0, time=32),\n",
       "    Message('note_on', channel=0, note=62, velocity=0, time=1),\n",
       "    Message('note_on', channel=0, note=74, velocity=84, time=182),\n",
       "    Message('note_on', channel=0, note=62, velocity=74, time=4),\n",
       "    Message('note_on', channel=0, note=63, velocity=0, time=95),\n",
       "    Message('note_on', channel=0, note=75, velocity=0, time=3),\n",
       "    Message('note_on', channel=0, note=60, velocity=79, time=144),\n",
       "    Message('note_on', channel=0, note=72, velocity=85, time=0),\n",
       "    Message('note_on', channel=0, note=74, velocity=0, time=31),\n",
       "    Message('note_on', channel=0, note=62, velocity=0, time=21),\n",
       "    Message('note_on', channel=0, note=70, velocity=75, time=174),\n",
       "    Message('note_on', channel=0, note=58, velocity=71, time=1),\n",
       "    Message('note_on', channel=0, note=72, velocity=0, time=52),\n",
       "    Message('note_on', channel=0, note=60, velocity=0, time=8),\n",
       "    Message('note_on', channel=0, note=80, velocity=67, time=169),\n",
       "    Message('note_on', channel=0, note=68, velocity=74, time=5),\n",
       "    Message('note_on', channel=0, note=56, velocity=63, time=0),\n",
       "    Message('note_on', channel=0, note=70, velocity=0, time=89),\n",
       "    Message('note_on', channel=0, note=58, velocity=0, time=1),\n",
       "    Message('note_on', channel=0, note=55, velocity=70, time=134),\n",
       "    Message('note_on', channel=0, note=79, velocity=70, time=2),\n",
       "    Message('note_on', channel=0, note=67, velocity=74, time=4),\n",
       "    Message('note_on', channel=0, note=56, velocity=0, time=68),\n",
       "    Message('note_on', channel=0, note=80, velocity=0, time=0),\n",
       "    Message('note_on', channel=0, note=68, velocity=0, time=8),\n",
       "    Message('note_on', channel=0, note=53, velocity=68, time=134),\n",
       "    Message('note_on', channel=0, note=65, velocity=70, time=25),\n",
       "    Message('note_on', channel=0, note=55, velocity=0, time=37),\n",
       "    Message('note_on', channel=0, note=79, velocity=0, time=3),\n",
       "    Message('note_on', channel=0, note=67, velocity=0, time=13),\n",
       "    Message('note_on', channel=0, note=63, velocity=69, time=184),\n",
       "    Message('note_on', channel=0, note=75, velocity=57, time=6),\n",
       "    Message('note_on', channel=0, note=75, velocity=0, time=5),\n",
       "    Message('note_on', channel=0, note=51, velocity=68, time=1),\n",
       "    Message('note_on', channel=0, note=53, velocity=0, time=26),\n",
       "    Message('note_on', channel=0, note=65, velocity=0, time=5),\n",
       "    Message('note_on', channel=0, note=51, velocity=0, time=412),\n",
       "    Message('note_on', channel=0, note=63, velocity=0, time=32),\n",
       "    Message('note_on', channel=0, note=79, velocity=77, time=356),\n",
       "    Message('note_on', channel=0, note=63, velocity=73, time=2),\n",
       "    Message('note_on', channel=0, note=75, velocity=76, time=0),\n",
       "    Message('note_on', channel=0, note=67, velocity=75, time=0),\n",
       "    Message('note_on', channel=0, note=70, velocity=78, time=6),\n",
       "    Message('note_on', channel=0, note=58, velocity=69, time=1),\n",
       "    Message('note_on', channel=0, note=51, velocity=65, time=1),\n",
       "    Message('note_on', channel=0, note=55, velocity=69, time=0),\n",
       "    Message('control_change', channel=0, control=64, value=127, time=48),\n",
       "    Message('control_change', channel=0, control=64, value=0, time=1063),\n",
       "    Message('note_on', channel=0, note=58, velocity=0, time=0),\n",
       "    Message('note_on', channel=0, note=70, velocity=0, time=9),\n",
       "    Message('note_on', channel=0, note=63, velocity=0, time=8),\n",
       "    Message('note_on', channel=0, note=51, velocity=0, time=1),\n",
       "    Message('note_on', channel=0, note=67, velocity=0, time=0),\n",
       "    Message('note_on', channel=0, note=75, velocity=0, time=1),\n",
       "    Message('note_on', channel=0, note=79, velocity=0, time=1),\n",
       "    Message('note_on', channel=0, note=55, velocity=0, time=3),\n",
       "    Message('note_on', channel=0, note=44, velocity=58, time=454),\n",
       "    Message('note_on', channel=0, note=56, velocity=60, time=2),\n",
       "    Message('note_on', channel=0, note=46, velocity=71, time=230),\n",
       "    Message('note_on', channel=0, note=58, velocity=80, time=1),\n",
       "    Message('note_on', channel=0, note=56, velocity=0, time=94),\n",
       "    Message('note_on', channel=0, note=44, velocity=0, time=30),\n",
       "    Message('note_on', channel=0, note=48, velocity=77, time=112),\n",
       "    Message('note_on', channel=0, note=60, velocity=78, time=6),\n",
       "    Message('note_on', channel=0, note=46, velocity=0, time=13),\n",
       "    Message('note_on', channel=0, note=58, velocity=0, time=11),\n",
       "    Message('note_on', channel=0, note=49, velocity=67, time=214),\n",
       "    Message('note_on', channel=0, note=61, velocity=74, time=2),\n",
       "    Message('note_on', channel=0, note=48, velocity=0, time=39),\n",
       "    Message('note_on', channel=0, note=60, velocity=0, time=57),\n",
       "    Message('note_on', channel=0, note=51, velocity=73, time=125),\n",
       "    Message('note_on', channel=0, note=63, velocity=80, time=2),\n",
       "    Message('note_on', channel=0, note=49, velocity=0, time=26),\n",
       "    Message('note_on', channel=0, note=61, velocity=0, time=4),\n",
       "    Message('note_on', channel=0, note=53, velocity=76, time=200),\n",
       "    Message('note_on', channel=0, note=65, velocity=69, time=1),\n",
       "    Message('note_on', channel=0, note=51, velocity=0, time=37),\n",
       "    Message('note_on', channel=0, note=63, velocity=0, time=12),\n",
       "    Message('note_on', channel=0, note=79, velocity=76, time=176),\n",
       "    Message('note_on', channel=0, note=67, velocity=83, time=2),\n",
       "    Message('note_on', channel=0, note=55, velocity=76, time=4),\n",
       "    Message('note_on', channel=0, note=77, velocity=45, time=20),\n",
       "    Message('note_on', channel=0, note=77, velocity=0, time=5),\n",
       "    Message('note_on', channel=0, note=53, velocity=0, time=10),\n",
       "    Message('note_on', channel=0, note=65, velocity=0, time=47),\n",
       "    Message('note_on', channel=0, note=56, velocity=74, time=139),\n",
       "    Message('note_on', channel=0, note=80, velocity=77, time=3),\n",
       "    Message('note_on', channel=0, note=68, velocity=90, time=5),\n",
       "    Message('note_on', channel=0, note=56, velocity=0, time=31),\n",
       "    Message('note_on', channel=0, note=55, velocity=0, time=3),\n",
       "    Message('note_on', channel=0, note=67, velocity=0, time=15),\n",
       "    Message('note_on', channel=0, note=79, velocity=0, time=0),\n",
       "    Message('note_on', channel=0, note=55, velocity=75, time=183),\n",
       "    Message('note_on', channel=0, note=56, velocity=72, time=4),\n",
       "    Message('note_on', channel=0, note=79, velocity=75, time=1),\n",
       "    Message('note_on', channel=0, note=67, velocity=79, time=1),\n",
       "    Message('note_on', channel=0, note=80, velocity=0, time=19),\n",
       "    Message('note_on', channel=0, note=79, velocity=0, time=30),\n",
       "    Message('note_on', channel=0, note=68, velocity=0, time=54),\n",
       "    Message('note_on', channel=0, note=56, velocity=0, time=2),\n",
       "    Message('note_on', channel=0, note=53, velocity=78, time=125),\n",
       "    Message('note_on', channel=0, note=77, velocity=68, time=24),\n",
       "    Message('note_on', channel=0, note=65, velocity=72, time=2),\n",
       "    Message('note_on', channel=0, note=55, velocity=0, time=38),\n",
       "    Message('note_on', channel=0, note=67, velocity=0, time=9),\n",
       "    Message('note_on', channel=0, note=77, velocity=0, time=23),\n",
       "    Message('note_on', channel=0, note=63, velocity=80, time=132),\n",
       "    Message('note_on', channel=0, note=75, velocity=65, time=3),\n",
       "    Message('note_on', channel=0, note=51, velocity=70, time=6),\n",
       "    Message('note_on', channel=0, note=53, velocity=0, time=39),\n",
       "    Message('note_on', channel=0, note=65, velocity=0, time=4),\n",
       "    Message('note_on', channel=0, note=75, velocity=0, time=54),\n",
       "    Message('note_on', channel=0, note=73, velocity=67, time=134),\n",
       "    Message('note_on', channel=0, note=61, velocity=76, time=1),\n",
       "    Message('note_on', channel=0, note=49, velocity=68, time=4),\n",
       "    Message('note_on', channel=0, note=51, velocity=0, time=77),\n",
       "    Message('note_on', channel=0, note=63, velocity=0, time=14),\n",
       "    Message('note_on', channel=0, note=73, velocity=0, time=108),\n",
       "    Message('note_on', channel=0, note=48, velocity=67, time=19),\n",
       "    Message('note_on', channel=0, note=60, velocity=76, time=1),\n",
       "    Message('note_on', channel=0, note=49, velocity=0, time=22),\n",
       "    Message('note_on', channel=0, note=61, velocity=0, time=19),\n",
       "    Message('note_on', channel=0, note=46, velocity=62, time=199),\n",
       "    Message('note_on', channel=0, note=70, velocity=66, time=2),\n",
       "    Message('note_on', channel=0, note=58, velocity=74, time=0),\n",
       "    Message('note_on', channel=0, note=70, velocity=0, time=7),\n",
       "    Message('note_on', channel=0, note=48, velocity=0, time=2),\n",
       "    Message('note_on', channel=0, note=60, velocity=0, time=34),\n",
       "    Message('note_on', channel=0, note=44, velocity=53, time=207),\n",
       "    Message('note_on', channel=0, note=56, velocity=58, time=0),\n",
       "    Message('note_on', channel=0, note=46, velocity=0, time=40),\n",
       "    Message('note_on', channel=0, note=58, velocity=0, time=64),\n",
       "    Message('note_on', channel=0, note=44, velocity=0, time=377),\n",
       "    Message('note_on', channel=0, note=56, velocity=0, time=0),\n",
       "    Message('note_on', channel=0, note=60, velocity=77, time=388),\n",
       "    Message('note_on', channel=0, note=56, velocity=65, time=5),\n",
       "    Message('note_on', channel=0, note=63, velocity=70, time=1),\n",
       "    Message('note_on', channel=0, note=48, velocity=63, time=0),\n",
       "    Message('note_on', channel=0, note=44, velocity=56, time=3),\n",
       "    Message('note_on', channel=0, note=51, velocity=60, time=0),\n",
       "    Message('note_on', channel=0, note=63, velocity=0, time=845),\n",
       "    Message('note_on', channel=0, note=63, velocity=25, time=7),\n",
       "    Message('note_on', channel=0, note=60, velocity=0, time=16),\n",
       "    Message('note_on', channel=0, note=60, velocity=43, time=5),\n",
       "    Message('note_on', channel=0, note=51, velocity=0, time=3),\n",
       "    Message('note_on', channel=0, note=48, velocity=0, time=3),\n",
       "    Message('note_on', channel=0, note=56, velocity=0, time=0),\n",
       "    Message('note_on', channel=0, note=51, velocity=22, time=1),\n",
       "    Message('note_on', channel=0, note=44, velocity=0, time=0),\n",
       "    Message('note_on', channel=0, note=60, velocity=0, time=38),\n",
       "    Message('note_on', channel=0, note=51, velocity=0, time=4),\n",
       "    Message('note_on', channel=0, note=63, velocity=0, time=7),\n",
       "    Message('note_on', channel=0, note=49, velocity=60, time=449),\n",
       "    Message('note_on', channel=0, note=61, velocity=69, time=0),\n",
       "    Message('note_on', channel=0, note=73, velocity=57, time=2),\n",
       "    Message('control_change', channel=0, control=64, value=127, time=164),\n",
       "    Message('note_on', channel=0, note=51, velocity=68, time=66),\n",
       "    Message('note_on', channel=0, note=63, velocity=78, time=2),\n",
       "    Message('note_on', channel=0, note=75, velocity=69, time=3),\n",
       "    Message('control_change', channel=0, control=64, value=0, time=1),\n",
       "    Message('note_on', channel=0, note=49, velocity=0, time=31),\n",
       "    Message('note_on', channel=0, note=61, velocity=0, time=5),\n",
       "    Message('note_on', channel=0, note=73, velocity=0, time=15),\n",
       "    Message('note_on', channel=0, note=75, velocity=0, time=46),\n",
       "    Message('note_on', channel=0, note=53, velocity=74, time=141),\n",
       "    Message('note_on', channel=0, note=65, velocity=72, time=1),\n",
       "    Message('note_on', channel=0, note=51, velocity=0, time=19),\n",
       "    Message('note_on', channel=0, note=63, velocity=0, time=5),\n",
       "    Message('note_on', channel=0, note=54, velocity=74, time=211),\n",
       "    Message('note_on', channel=0, note=66, velocity=81, time=1),\n",
       "    Message('note_on', channel=0, note=53, velocity=0, time=11),\n",
       "    Message('note_on', channel=0, note=65, velocity=0, time=82),\n",
       "    Message('note_on', channel=0, note=56, velocity=74, time=133),\n",
       "    Message('note_on', channel=0, note=68, velocity=88, time=13),\n",
       "    Message('note_on', channel=0, note=54, velocity=0, time=25),\n",
       "    Message('note_on', channel=0, note=56, velocity=0, time=5),\n",
       "    Message('note_on', channel=0, note=66, velocity=0, time=69),\n",
       "    Message('note_on', channel=0, note=58, velocity=81, time=110),\n",
       "    Message('note_on', channel=0, note=70, velocity=82, time=12),\n",
       "    Message('note_on', channel=0, note=68, velocity=0, time=20),\n",
       "    Message('note_on', channel=0, note=72, velocity=88, time=199),\n",
       "    Message('note_on', channel=0, note=60, velocity=76, time=22),\n",
       "    Message('note_on', channel=0, note=70, velocity=0, time=20),\n",
       "    Message('note_on', channel=0, note=58, velocity=0, time=2),\n",
       "    Message('note_on', channel=0, note=73, velocity=89, time=208),\n",
       "    Message('note_on', channel=0, note=61, velocity=81, time=0),\n",
       "    Message('note_on', channel=0, note=72, velocity=0, time=19),\n",
       "    Message('note_on', channel=0, note=60, velocity=0, time=11),\n",
       "    Message('note_on', channel=0, note=72, velocity=87, time=198),\n",
       "    Message('note_on', channel=0, note=60, velocity=75, time=2),\n",
       "    Message('note_on', channel=0, note=73, velocity=0, time=37),\n",
       "    Message('note_on', channel=0, note=61, velocity=0, time=21),\n",
       "    Message('note_on', channel=0, note=70, velocity=78, time=167),\n",
       "    Message('note_on', channel=0, note=72, velocity=0, time=17),\n",
       "    Message('note_on', channel=0, note=72, velocity=58, time=6),\n",
       "    Message('note_on', channel=0, note=58, velocity=75, time=4),\n",
       "    Message('note_on', channel=0, note=60, velocity=0, time=56),\n",
       "    Message('note_on', channel=0, note=72, velocity=0, time=19),\n",
       "    Message('note_on', channel=0, note=68, velocity=88, time=142),\n",
       "    Message('note_on', channel=0, note=56, velocity=70, time=1),\n",
       "    Message('note_on', channel=0, note=58, velocity=0, time=37),\n",
       "    Message('note_on', channel=0, note=70, velocity=0, time=1),\n",
       "    Message('note_on', channel=0, note=56, velocity=0, time=4),\n",
       "    Message('note_on', channel=0, note=54, velocity=74, time=174),\n",
       "    Message('note_on', channel=0, note=66, velocity=77, time=12),\n",
       "    Message('note_on', channel=0, note=68, velocity=0, time=96),\n",
       "    Message('note_on', channel=0, note=53, velocity=82, time=128),\n",
       "    Message('note_on', channel=0, note=65, velocity=82, time=22),\n",
       "    Message('note_on', channel=0, note=54, velocity=0, time=14),\n",
       "    Message('note_on', channel=0, note=66, velocity=0, time=33),\n",
       "    Message('note_on', channel=0, note=51, velocity=73, time=162),\n",
       "    Message('note_on', channel=0, note=63, velocity=77, time=0),\n",
       "    Message('note_on', channel=0, note=53, velocity=0, time=26),\n",
       "    Message('note_on', channel=0, note=65, velocity=0, time=19),\n",
       "    Message('note_on', channel=0, note=61, velocity=75, time=205),\n",
       "    Message('note_on', channel=0, note=49, velocity=69, time=1),\n",
       "    Message('note_on', channel=0, note=51, velocity=0, time=44),\n",
       "    Message('note_on', channel=0, note=63, velocity=0, time=12),\n",
       "    Message('control_change', channel=0, control=64, value=127, time=203),\n",
       "    Message('control_change', channel=0, control=64, value=0, time=46),\n",
       "    Message('note_on', channel=0, note=49, velocity=0, time=156),\n",
       "    Message('note_on', channel=0, note=61, velocity=0, time=2),\n",
       "    Message('note_on', channel=0, note=73, velocity=68, time=387),\n",
       "    Message('note_on', channel=0, note=68, velocity=79, time=2),\n",
       "    Message('note_on', channel=0, note=65, velocity=74, time=2),\n",
       "    Message('note_on', channel=0, note=61, velocity=72, time=1),\n",
       "    Message('note_on', channel=0, note=53, velocity=69, time=0),\n",
       "    Message('note_on', channel=0, note=56, velocity=66, time=1),\n",
       "    Message('note_on', channel=0, note=49, velocity=65, time=1),\n",
       "    Message('control_change', channel=0, control=64, value=127, time=170),\n",
       "    Message('control_change', channel=0, control=64, value=0, time=46),\n",
       "    Message('control_change', channel=0, control=64, value=127, time=116),\n",
       "    Message('note_on', channel=0, note=53, velocity=0, time=668),\n",
       "    Message('note_on', channel=0, note=56, velocity=0, time=4),\n",
       "    Message('note_on', channel=0, note=68, velocity=0, time=0),\n",
       "    Message('control_change', channel=0, control=64, value=0, time=2),\n",
       "    Message('note_on', channel=0, note=61, velocity=0, time=4),\n",
       "    Message('note_on', channel=0, note=73, velocity=0, time=13),\n",
       "    Message('note_on', channel=0, note=49, velocity=0, time=12),\n",
       "    Message('note_on', channel=0, note=65, velocity=0, time=7),\n",
       "    Message('note_on', channel=0, note=54, velocity=68, time=408),\n",
       "    Message('note_on', channel=0, note=42, velocity=60, time=6),\n",
       "    Message('note_on', channel=0, note=54, velocity=0, time=227),\n",
       "    Message('note_on', channel=0, note=44, velocity=70, time=6),\n",
       "    Message('note_on', channel=0, note=56, velocity=71, time=0),\n",
       "    Message('note_on', channel=0, note=54, velocity=59, time=2),\n",
       "    Message('note_on', channel=0, note=42, velocity=0, time=36),\n",
       "    Message('note_on', channel=0, note=54, velocity=0, time=108),\n",
       "    Message('note_on', channel=0, note=46, velocity=73, time=89),\n",
       "    Message('note_on', channel=0, note=58, velocity=76, time=1),\n",
       "    Message('note_on', channel=0, note=44, velocity=0, time=73),\n",
       "    Message('note_on', channel=0, note=56, velocity=0, time=31),\n",
       "    Message('note_on', channel=0, note=47, velocity=80, time=126),\n",
       "    Message('note_on', channel=0, note=59, velocity=83, time=1),\n",
       "    Message('note_on', channel=0, note=46, velocity=0, time=29),\n",
       "    Message('note_on', channel=0, note=58, velocity=0, time=16),\n",
       "    Message('note_on', channel=0, note=49, velocity=71, time=201),\n",
       "    Message('note_on', channel=0, note=61, velocity=80, time=7),\n",
       "    Message('note_on', channel=0, note=47, velocity=0, time=3),\n",
       "    Message('note_on', channel=0, note=59, velocity=0, time=4),\n",
       "    Message('note_on', channel=0, note=51, velocity=78, time=208),\n",
       "    Message('note_on', channel=0, note=63, velocity=84, time=8),\n",
       "    Message('note_on', channel=0, note=49, velocity=0, time=31),\n",
       "    Message('note_on', channel=0, note=61, velocity=0, time=10),\n",
       "    Message('note_on', channel=0, note=65, velocity=78, time=194),\n",
       "    Message('note_on', channel=0, note=53, velocity=77, time=2),\n",
       "    Message('note_on', channel=0, note=51, velocity=0, time=28),\n",
       "    Message('note_on', channel=0, note=63, velocity=0, time=7),\n",
       "    Message('note_on', channel=0, note=54, velocity=78, time=204),\n",
       "    Message('note_on', channel=0, note=66, velocity=75, time=3),\n",
       "    Message('note_on', channel=0, note=53, velocity=0, time=20),\n",
       "    Message('note_on', channel=0, note=65, velocity=0, time=4),\n",
       "    Message('note_on', channel=0, note=53, velocity=74, time=176),\n",
       "    Message('note_on', channel=0, note=54, velocity=0, time=35),\n",
       "    Message('note_on', channel=0, note=65, velocity=73, time=0),\n",
       "    Message('note_on', channel=0, note=66, velocity=0, time=56),\n",
       "    Message('note_on', channel=0, note=63, velocity=83, time=177),\n",
       "    Message('note_on', channel=0, note=51, velocity=71, time=0),\n",
       "    Message('note_on', channel=0, note=53, velocity=0, time=37),\n",
       "    Message('note_on', channel=0, note=65, velocity=0, time=16),\n",
       "    Message('note_on', channel=0, note=49, velocity=74, time=159),\n",
       "    Message('note_on', channel=0, note=61, velocity=79, time=6),\n",
       "    Message('note_on', channel=0, note=51, velocity=0, time=33),\n",
       "    Message('note_on', channel=0, note=63, velocity=0, time=1),\n",
       "    Message('note_on', channel=0, note=47, velocity=79, time=220),\n",
       "    Message('note_on', channel=0, note=59, velocity=79, time=0),\n",
       "    Message('note_on', channel=0, note=49, velocity=0, time=9),\n",
       "    Message('note_on', channel=0, note=61, velocity=0, time=4),\n",
       "    Message('note_on', channel=0, note=46, velocity=70, time=221),\n",
       "    Message('note_on', channel=0, note=58, velocity=80, time=0),\n",
       "    Message('note_on', channel=0, note=47, velocity=0, time=41),\n",
       "    Message('note_on', channel=0, note=59, velocity=0, time=0),\n",
       "    Message('note_on', channel=0, note=56, velocity=69, time=194),\n",
       "    Message('note_on', channel=0, note=44, velocity=67, time=1),\n",
       "    Message('note_on', channel=0, note=46, velocity=0, time=16),\n",
       "    Message('note_on', channel=0, note=58, velocity=0, time=42),\n",
       "    Message('note_on', channel=0, note=54, velocity=63, time=179),\n",
       "    Message('note_on', channel=0, note=42, velocity=55, time=18),\n",
       "    Message('note_on', channel=0, note=56, velocity=0, time=71),\n",
       "    Message('note_on', channel=0, note=44, velocity=0, time=8),\n",
       "    Message('control_change', channel=0, control=64, value=127, time=338),\n",
       "    Message('note_on', channel=0, note=42, velocity=0, time=137),\n",
       "    Message('control_change', channel=0, control=64, value=0, time=4),\n",
       "    Message('note_on', channel=0, note=54, velocity=0, time=1),\n",
       "    Message('note_on', channel=0, note=58, velocity=77, time=368),\n",
       "    Message('note_on', channel=0, note=54, velocity=68, time=1),\n",
       "    Message('note_on', channel=0, note=49, velocity=65, time=2),\n",
       "    Message('note_on', channel=0, note=46, velocity=68, time=3),\n",
       "    Message('note_on', channel=0, note=42, velocity=63, time=1),\n",
       "    Message('note_on', channel=0, note=61, velocity=71, time=1),\n",
       "    Message('control_change', channel=0, control=64, value=127, time=933),\n",
       "    Message('control_change', channel=0, control=64, value=0, time=79),\n",
       "    Message('note_on', channel=0, note=42, velocity=0, time=11),\n",
       "    Message('note_on', channel=0, note=46, velocity=0, time=0),\n",
       "    Message('note_on', channel=0, note=54, velocity=0, time=0),\n",
       "    Message('note_on', channel=0, note=49, velocity=0, time=0),\n",
       "    Message('note_on', channel=0, note=58, velocity=0, time=4),\n",
       "    Message('note_on', channel=0, note=61, velocity=0, time=2),\n",
       "    MetaMessage('end_of_track', time=1)])\n",
       "])"
      ]
     },
     "execution_count": 17,
     "metadata": {},
     "output_type": "execute_result"
    }
   ],
   "source": [
    "%load_ext autoreload\n",
    "%autoreload 2\n",
    "\n",
    "import mido\n",
    "import librosa\n",
    "mid = mido.MidiFile('data/midis/Aaron, Michael, Piano Course, V8WvKK-1b2c.mid', clip=True)\n",
    "mid\n",
    "\n",
    "    "
   ]
  },
  {
   "cell_type": "code",
   "execution_count": 18,
   "id": "fbead965-26ea-4b85-b714-3da6d070a81b",
   "metadata": {},
   "outputs": [],
   "source": [
    "!pip install music21 -q\n",
    "!pip install musescore -q"
   ]
  },
  {
   "cell_type": "code",
   "execution_count": 15,
   "id": "fb85f760-ac2c-4d60-a001-75fdd280ad4e",
   "metadata": {},
   "outputs": [],
   "source": [
    "from music21 import converter, stream, environment\n",
    "import pathlib\n",
    "\n",
    "environment.set('musescoreDirectPNGPath', '/opt/homebrew/bin/mscore')\n",
    "\n",
    "def convert_midi_to_sheet(midi_file_path, output_file_path):\n",
    "    # Load MIDI file\n",
    "    midi_stream = converter.parse(midi_file_path)\n",
    "\n",
    "    # Create a new stream for notation\n",
    "    score = stream.Score()\n",
    "\n",
    "    # Iterate through each instrument part in the MIDI file\n",
    "    for part in midi_stream.parts:\n",
    "        # Create a new part in the score\n",
    "        score_part = stream.Part()\n",
    "\n",
    "        # Iterate through each note in the part\n",
    "        for element in part.notes:\n",
    "            # Add the note to the part in the score\n",
    "            score_part.append(element)\n",
    "\n",
    "        # Add the part to the score\n",
    "        score.append(score_part)\n",
    "\n",
    "    # Write the score to a new file\n",
    "    score.write('xml', fp=output_file_path)\n",
    "\n",
    "# Example usage\n",
    "midi_file_path = 'data/midis/Aaron, Michael, Piano Course, V8WvKK-1b2c.mid'\n",
    "output_file_path = 'data/output/Aaron, Michael, Piano Course, V8WvKK-1b2c.xml'\n",
    "convert_midi_to_sheet(midi_file_path, output_file_path)"
   ]
  },
  {
   "cell_type": "code",
   "execution_count": 16,
   "id": "84350797-ed88-4f8a-be61-b7dddfa242fe",
   "metadata": {},
   "outputs": [
    {
     "ename": "KeyboardInterrupt",
     "evalue": "",
     "output_type": "error",
     "traceback": [
      "\u001b[0;31m---------------------------------------------------------------------------\u001b[0m",
      "\u001b[0;31mKeyboardInterrupt\u001b[0m                         Traceback (most recent call last)",
      "Cell \u001b[0;32mIn[16], line 2\u001b[0m\n\u001b[1;32m      1\u001b[0m c \u001b[38;5;241m=\u001b[39m converter\u001b[38;5;241m.\u001b[39mparse(\u001b[38;5;124m'\u001b[39m\u001b[38;5;124mdata/output/Aaron, Michael, Piano Course, V8WvKK-1b2c.xml\u001b[39m\u001b[38;5;124m'\u001b[39m)\n\u001b[0;32m----> 2\u001b[0m \u001b[43mc\u001b[49m\u001b[38;5;241;43m.\u001b[39;49m\u001b[43mshow\u001b[49m\u001b[43m(\u001b[49m\u001b[38;5;124;43m'\u001b[39;49m\u001b[38;5;124;43mmusicxml.pdf\u001b[39;49m\u001b[38;5;124;43m'\u001b[39;49m\u001b[43m)\u001b[49m\n\u001b[1;32m      3\u001b[0m c\u001b[38;5;241m.\u001b[39mshow(\u001b[38;5;124m'\u001b[39m\u001b[38;5;124mmidi\u001b[39m\u001b[38;5;124m'\u001b[39m)\n",
      "File \u001b[0;32m~/.pyenv/versions/3.10.6/envs/piano_transcription/lib/python3.10/site-packages/music21/stream/base.py:412\u001b[0m, in \u001b[0;36mStream.show\u001b[0;34m(self, fmt, app, **keywords)\u001b[0m\n\u001b[1;32m    410\u001b[0m \u001b[38;5;28;01mif\u001b[39;00m \u001b[38;5;28mself\u001b[39m\u001b[38;5;241m.\u001b[39misSorted \u001b[38;5;129;01mis\u001b[39;00m \u001b[38;5;28;01mFalse\u001b[39;00m \u001b[38;5;129;01mand\u001b[39;00m \u001b[38;5;28mself\u001b[39m\u001b[38;5;241m.\u001b[39mautoSort:\n\u001b[1;32m    411\u001b[0m     \u001b[38;5;28mself\u001b[39m\u001b[38;5;241m.\u001b[39msort()\n\u001b[0;32m--> 412\u001b[0m \u001b[38;5;28;01mreturn\u001b[39;00m \u001b[38;5;28;43msuper\u001b[39;49m\u001b[43m(\u001b[49m\u001b[43m)\u001b[49m\u001b[38;5;241;43m.\u001b[39;49m\u001b[43mshow\u001b[49m\u001b[43m(\u001b[49m\u001b[43mfmt\u001b[49m\u001b[38;5;241;43m=\u001b[39;49m\u001b[43mfmt\u001b[49m\u001b[43m,\u001b[49m\u001b[43m \u001b[49m\u001b[43mapp\u001b[49m\u001b[38;5;241;43m=\u001b[39;49m\u001b[43mapp\u001b[49m\u001b[43m,\u001b[49m\u001b[43m \u001b[49m\u001b[38;5;241;43m*\u001b[39;49m\u001b[38;5;241;43m*\u001b[39;49m\u001b[43mkeywords\u001b[49m\u001b[43m)\u001b[49m\n",
      "File \u001b[0;32m~/.pyenv/versions/3.10.6/envs/piano_transcription/lib/python3.10/site-packages/music21/base.py:2960\u001b[0m, in \u001b[0;36mMusic21Object.show\u001b[0;34m(self, fmt, app, **keywords)\u001b[0m\n\u001b[1;32m   2958\u001b[0m scClass \u001b[38;5;241m=\u001b[39m common\u001b[38;5;241m.\u001b[39mfindSubConverterForFormat(regularizedConverterFormat)\n\u001b[1;32m   2959\u001b[0m formatWriter \u001b[38;5;241m=\u001b[39m scClass()\n\u001b[0;32m-> 2960\u001b[0m \u001b[38;5;28;01mreturn\u001b[39;00m \u001b[43mformatWriter\u001b[49m\u001b[38;5;241;43m.\u001b[39;49m\u001b[43mshow\u001b[49m\u001b[43m(\u001b[49m\u001b[38;5;28;43mself\u001b[39;49m\u001b[43m,\u001b[49m\n\u001b[1;32m   2961\u001b[0m \u001b[43m                         \u001b[49m\u001b[43mregularizedConverterFormat\u001b[49m\u001b[43m,\u001b[49m\n\u001b[1;32m   2962\u001b[0m \u001b[43m                         \u001b[49m\u001b[43mapp\u001b[49m\u001b[38;5;241;43m=\u001b[39;49m\u001b[43mapp\u001b[49m\u001b[43m,\u001b[49m\n\u001b[1;32m   2963\u001b[0m \u001b[43m                         \u001b[49m\u001b[43msubformats\u001b[49m\u001b[38;5;241;43m=\u001b[39;49m\u001b[43msubformats\u001b[49m\u001b[43m,\u001b[49m\n\u001b[1;32m   2964\u001b[0m \u001b[43m                         \u001b[49m\u001b[38;5;241;43m*\u001b[39;49m\u001b[38;5;241;43m*\u001b[39;49m\u001b[43mkeywords\u001b[49m\u001b[43m)\u001b[49m\n",
      "File \u001b[0;32m~/.pyenv/versions/3.10.6/envs/piano_transcription/lib/python3.10/site-packages/music21/converter/subConverters.py:1008\u001b[0m, in \u001b[0;36mConverterMusicXML.show\u001b[0;34m(self, obj, fmt, app, subformats, **keywords)\u001b[0m\n\u001b[1;32m   1004\u001b[0m \u001b[38;5;28;01mdef\u001b[39;00m \u001b[38;5;21mshow\u001b[39m(\u001b[38;5;28mself\u001b[39m, obj, fmt, app\u001b[38;5;241m=\u001b[39m\u001b[38;5;28;01mNone\u001b[39;00m, subformats\u001b[38;5;241m=\u001b[39m(), \u001b[38;5;241m*\u001b[39m\u001b[38;5;241m*\u001b[39mkeywords):  \u001b[38;5;66;03m# pragma: no cover\u001b[39;00m\n\u001b[1;32m   1005\u001b[0m \u001b[38;5;250m    \u001b[39m\u001b[38;5;124;03m'''\u001b[39;00m\n\u001b[1;32m   1006\u001b[0m \u001b[38;5;124;03m    Override to do something with png...\u001b[39;00m\n\u001b[1;32m   1007\u001b[0m \u001b[38;5;124;03m    '''\u001b[39;00m\n\u001b[0;32m-> 1008\u001b[0m     returnedFilePath \u001b[38;5;241m=\u001b[39m \u001b[38;5;28;43mself\u001b[39;49m\u001b[38;5;241;43m.\u001b[39;49m\u001b[43mwrite\u001b[49m\u001b[43m(\u001b[49m\u001b[43mobj\u001b[49m\u001b[43m,\u001b[49m\u001b[43m \u001b[49m\u001b[43mfmt\u001b[49m\u001b[43m,\u001b[49m\u001b[43m \u001b[49m\u001b[43msubformats\u001b[49m\u001b[38;5;241;43m=\u001b[39;49m\u001b[43msubformats\u001b[49m\u001b[43m,\u001b[49m\u001b[43m \u001b[49m\u001b[38;5;241;43m*\u001b[39;49m\u001b[38;5;241;43m*\u001b[39;49m\u001b[43mkeywords\u001b[49m\u001b[43m)\u001b[49m\n\u001b[1;32m   1009\u001b[0m     \u001b[38;5;28;01mif\u001b[39;00m \u001b[38;5;124m'\u001b[39m\u001b[38;5;124mpng\u001b[39m\u001b[38;5;124m'\u001b[39m \u001b[38;5;129;01min\u001b[39;00m subformats:\n\u001b[1;32m   1010\u001b[0m         fmt \u001b[38;5;241m=\u001b[39m \u001b[38;5;124m'\u001b[39m\u001b[38;5;124mpng\u001b[39m\u001b[38;5;124m'\u001b[39m\n",
      "File \u001b[0;32m~/.pyenv/versions/3.10.6/envs/piano_transcription/lib/python3.10/site-packages/music21/converter/subConverters.py:991\u001b[0m, in \u001b[0;36mConverterMusicXML.write\u001b[0;34m(self, obj, fmt, fp, subformats, makeNotation, compress, **keywords)\u001b[0m\n\u001b[1;32m    988\u001b[0m \u001b[38;5;28;01mif\u001b[39;00m ((\u001b[38;5;124m'\u001b[39m\u001b[38;5;124mpng\u001b[39m\u001b[38;5;124m'\u001b[39m \u001b[38;5;129;01min\u001b[39;00m subformats \u001b[38;5;129;01mor\u001b[39;00m \u001b[38;5;124m'\u001b[39m\u001b[38;5;124mpdf\u001b[39m\u001b[38;5;124m'\u001b[39m \u001b[38;5;129;01min\u001b[39;00m subformats)\n\u001b[1;32m    989\u001b[0m         \u001b[38;5;129;01mand\u001b[39;00m \u001b[38;5;129;01mnot\u001b[39;00m \u001b[38;5;28mstr\u001b[39m(environLocal[\u001b[38;5;124m'\u001b[39m\u001b[38;5;124mmusescoreDirectPNGPath\u001b[39m\u001b[38;5;124m'\u001b[39m])\u001b[38;5;241m.\u001b[39mstartswith(\u001b[38;5;124m'\u001b[39m\u001b[38;5;124m/skip\u001b[39m\u001b[38;5;124m'\u001b[39m)):\n\u001b[1;32m    990\u001b[0m     \u001b[38;5;28;01mfrom\u001b[39;00m \u001b[38;5;21;01mmusic21\u001b[39;00m\u001b[38;5;21;01m.\u001b[39;00m\u001b[38;5;21;01mconverter\u001b[39;00m\u001b[38;5;21;01m.\u001b[39;00m\u001b[38;5;21;01mmuseScore\u001b[39;00m \u001b[38;5;28;01mimport\u001b[39;00m runThroughMuseScore\n\u001b[0;32m--> 991\u001b[0m     outFp \u001b[38;5;241m=\u001b[39m \u001b[43mrunThroughMuseScore\u001b[49m\u001b[43m(\u001b[49m\u001b[43mxmlFp\u001b[49m\u001b[43m,\u001b[49m\u001b[43m \u001b[49m\u001b[43msubformats\u001b[49m\u001b[43m,\u001b[49m\u001b[43m \u001b[49m\u001b[38;5;241;43m*\u001b[39;49m\u001b[38;5;241;43m*\u001b[39;49m\u001b[43mkeywords\u001b[49m\u001b[43m)\u001b[49m\n\u001b[1;32m    992\u001b[0m \u001b[38;5;28;01melif\u001b[39;00m compress:\n\u001b[1;32m    993\u001b[0m     archiveTools\u001b[38;5;241m.\u001b[39mcompressXML(xmlFp,\n\u001b[1;32m    994\u001b[0m                              deleteOriginal\u001b[38;5;241m=\u001b[39m\u001b[38;5;28;01mTrue\u001b[39;00m,\n\u001b[1;32m    995\u001b[0m                              silent\u001b[38;5;241m=\u001b[39m\u001b[38;5;28;01mTrue\u001b[39;00m,\n\u001b[1;32m    996\u001b[0m                              strictMxlCheck\u001b[38;5;241m=\u001b[39m\u001b[38;5;28;01mFalse\u001b[39;00m)\n",
      "File \u001b[0;32m~/.pyenv/versions/3.10.6/envs/piano_transcription/lib/python3.10/site-packages/music21/converter/museScore.py:87\u001b[0m, in \u001b[0;36mrunThroughMuseScore\u001b[0;34m(fp, subformats, dpi, trimEdges, leaveMargin, **keywords)\u001b[0m\n\u001b[1;32m     84\u001b[0m     \u001b[38;5;28;01mif\u001b[39;00m dpi \u001b[38;5;129;01mis\u001b[39;00m \u001b[38;5;28;01mNone\u001b[39;00m:\n\u001b[1;32m     85\u001b[0m         museScoreRun\u001b[38;5;241m.\u001b[39mextend([\u001b[38;5;124m'\u001b[39m\u001b[38;5;124m-r\u001b[39m\u001b[38;5;124m'\u001b[39m, \u001b[38;5;28mstr\u001b[39m(defaults\u001b[38;5;241m.\u001b[39mjupyterImageDpi)])\n\u001b[0;32m---> 87\u001b[0m \u001b[43mcommon\u001b[49m\u001b[38;5;241;43m.\u001b[39;49m\u001b[43mfileTools\u001b[49m\u001b[38;5;241;43m.\u001b[39;49m\u001b[43mrunSubprocessCapturingStderr\u001b[49m\u001b[43m(\u001b[49m\u001b[43mmuseScoreRun\u001b[49m\u001b[43m)\u001b[49m\n\u001b[1;32m     89\u001b[0m \u001b[38;5;28;01mif\u001b[39;00m common\u001b[38;5;241m.\u001b[39mrunningInNotebook() \u001b[38;5;129;01mand\u001b[39;00m common\u001b[38;5;241m.\u001b[39mgetPlatform() \u001b[38;5;241m==\u001b[39m \u001b[38;5;124m'\u001b[39m\u001b[38;5;124mnix\u001b[39m\u001b[38;5;124m'\u001b[39m:\n\u001b[1;32m     90\u001b[0m     \u001b[38;5;66;03m# Leave environment in original state\u001b[39;00m\n\u001b[1;32m     91\u001b[0m     \u001b[38;5;28;01mif\u001b[39;00m prior_qt \u001b[38;5;129;01mis\u001b[39;00m \u001b[38;5;28;01mNone\u001b[39;00m:\n",
      "File \u001b[0;32m~/.pyenv/versions/3.10.6/envs/piano_transcription/lib/python3.10/site-packages/music21/common/fileTools.py:160\u001b[0m, in \u001b[0;36mrunSubprocessCapturingStderr\u001b[0;34m(subprocessCommand)\u001b[0m\n\u001b[1;32m    155\u001b[0m \u001b[38;5;28;01mdef\u001b[39;00m \u001b[38;5;21mrunSubprocessCapturingStderr\u001b[39m(subprocessCommand):\n\u001b[1;32m    156\u001b[0m \u001b[38;5;250m    \u001b[39m\u001b[38;5;124;03m'''\u001b[39;00m\n\u001b[1;32m    157\u001b[0m \u001b[38;5;124;03m    Run a subprocess command, capturing stderr and\u001b[39;00m\n\u001b[1;32m    158\u001b[0m \u001b[38;5;124;03m    only show the error if an exception is raised.\u001b[39;00m\n\u001b[1;32m    159\u001b[0m \u001b[38;5;124;03m    '''\u001b[39;00m\n\u001b[0;32m--> 160\u001b[0m     completed_process \u001b[38;5;241m=\u001b[39m \u001b[43msubprocess\u001b[49m\u001b[38;5;241;43m.\u001b[39;49m\u001b[43mrun\u001b[49m\u001b[43m(\u001b[49m\u001b[43msubprocessCommand\u001b[49m\u001b[43m,\u001b[49m\u001b[43m \u001b[49m\u001b[43mcapture_output\u001b[49m\u001b[38;5;241;43m=\u001b[39;49m\u001b[38;5;28;43;01mTrue\u001b[39;49;00m\u001b[43m,\u001b[49m\u001b[43m \u001b[49m\u001b[43mcheck\u001b[49m\u001b[38;5;241;43m=\u001b[39;49m\u001b[38;5;28;43;01mFalse\u001b[39;49;00m\u001b[43m)\u001b[49m\n\u001b[1;32m    161\u001b[0m     \u001b[38;5;28;01mif\u001b[39;00m completed_process\u001b[38;5;241m.\u001b[39mreturncode \u001b[38;5;241m!=\u001b[39m \u001b[38;5;241m0\u001b[39m:\n\u001b[1;32m    162\u001b[0m         \u001b[38;5;66;03m# Raise same exception class as findNumberedPNGPath()\u001b[39;00m\n\u001b[1;32m    163\u001b[0m         \u001b[38;5;66;03m# for backward compatibility\u001b[39;00m\n\u001b[1;32m    164\u001b[0m         stderr_bytes \u001b[38;5;241m=\u001b[39m completed_process\u001b[38;5;241m.\u001b[39mstderr\n",
      "File \u001b[0;32m~/.pyenv/versions/3.10.6/lib/python3.10/subprocess.py:503\u001b[0m, in \u001b[0;36mrun\u001b[0;34m(input, capture_output, timeout, check, *popenargs, **kwargs)\u001b[0m\n\u001b[1;32m    501\u001b[0m \u001b[38;5;28;01mwith\u001b[39;00m Popen(\u001b[38;5;241m*\u001b[39mpopenargs, \u001b[38;5;241m*\u001b[39m\u001b[38;5;241m*\u001b[39mkwargs) \u001b[38;5;28;01mas\u001b[39;00m process:\n\u001b[1;32m    502\u001b[0m     \u001b[38;5;28;01mtry\u001b[39;00m:\n\u001b[0;32m--> 503\u001b[0m         stdout, stderr \u001b[38;5;241m=\u001b[39m \u001b[43mprocess\u001b[49m\u001b[38;5;241;43m.\u001b[39;49m\u001b[43mcommunicate\u001b[49m\u001b[43m(\u001b[49m\u001b[38;5;28;43minput\u001b[39;49m\u001b[43m,\u001b[49m\u001b[43m \u001b[49m\u001b[43mtimeout\u001b[49m\u001b[38;5;241;43m=\u001b[39;49m\u001b[43mtimeout\u001b[49m\u001b[43m)\u001b[49m\n\u001b[1;32m    504\u001b[0m     \u001b[38;5;28;01mexcept\u001b[39;00m TimeoutExpired \u001b[38;5;28;01mas\u001b[39;00m exc:\n\u001b[1;32m    505\u001b[0m         process\u001b[38;5;241m.\u001b[39mkill()\n",
      "File \u001b[0;32m~/.pyenv/versions/3.10.6/lib/python3.10/subprocess.py:1152\u001b[0m, in \u001b[0;36mPopen.communicate\u001b[0;34m(self, input, timeout)\u001b[0m\n\u001b[1;32m   1149\u001b[0m     endtime \u001b[38;5;241m=\u001b[39m \u001b[38;5;28;01mNone\u001b[39;00m\n\u001b[1;32m   1151\u001b[0m \u001b[38;5;28;01mtry\u001b[39;00m:\n\u001b[0;32m-> 1152\u001b[0m     stdout, stderr \u001b[38;5;241m=\u001b[39m \u001b[38;5;28;43mself\u001b[39;49m\u001b[38;5;241;43m.\u001b[39;49m\u001b[43m_communicate\u001b[49m\u001b[43m(\u001b[49m\u001b[38;5;28;43minput\u001b[39;49m\u001b[43m,\u001b[49m\u001b[43m \u001b[49m\u001b[43mendtime\u001b[49m\u001b[43m,\u001b[49m\u001b[43m \u001b[49m\u001b[43mtimeout\u001b[49m\u001b[43m)\u001b[49m\n\u001b[1;32m   1153\u001b[0m \u001b[38;5;28;01mexcept\u001b[39;00m \u001b[38;5;167;01mKeyboardInterrupt\u001b[39;00m:\n\u001b[1;32m   1154\u001b[0m     \u001b[38;5;66;03m# https://bugs.python.org/issue25942\u001b[39;00m\n\u001b[1;32m   1155\u001b[0m     \u001b[38;5;66;03m# See the detailed comment in .wait().\u001b[39;00m\n\u001b[1;32m   1156\u001b[0m     \u001b[38;5;28;01mif\u001b[39;00m timeout \u001b[38;5;129;01mis\u001b[39;00m \u001b[38;5;129;01mnot\u001b[39;00m \u001b[38;5;28;01mNone\u001b[39;00m:\n",
      "File \u001b[0;32m~/.pyenv/versions/3.10.6/lib/python3.10/subprocess.py:2003\u001b[0m, in \u001b[0;36mPopen._communicate\u001b[0;34m(self, input, endtime, orig_timeout)\u001b[0m\n\u001b[1;32m   1996\u001b[0m     \u001b[38;5;28mself\u001b[39m\u001b[38;5;241m.\u001b[39m_check_timeout(endtime, orig_timeout,\n\u001b[1;32m   1997\u001b[0m                         stdout, stderr,\n\u001b[1;32m   1998\u001b[0m                         skip_check_and_raise\u001b[38;5;241m=\u001b[39m\u001b[38;5;28;01mTrue\u001b[39;00m)\n\u001b[1;32m   1999\u001b[0m     \u001b[38;5;28;01mraise\u001b[39;00m \u001b[38;5;167;01mRuntimeError\u001b[39;00m(  \u001b[38;5;66;03m# Impossible :)\u001b[39;00m\n\u001b[1;32m   2000\u001b[0m         \u001b[38;5;124m'\u001b[39m\u001b[38;5;124m_check_timeout(..., skip_check_and_raise=True) \u001b[39m\u001b[38;5;124m'\u001b[39m\n\u001b[1;32m   2001\u001b[0m         \u001b[38;5;124m'\u001b[39m\u001b[38;5;124mfailed to raise TimeoutExpired.\u001b[39m\u001b[38;5;124m'\u001b[39m)\n\u001b[0;32m-> 2003\u001b[0m ready \u001b[38;5;241m=\u001b[39m \u001b[43mselector\u001b[49m\u001b[38;5;241;43m.\u001b[39;49m\u001b[43mselect\u001b[49m\u001b[43m(\u001b[49m\u001b[43mtimeout\u001b[49m\u001b[43m)\u001b[49m\n\u001b[1;32m   2004\u001b[0m \u001b[38;5;28mself\u001b[39m\u001b[38;5;241m.\u001b[39m_check_timeout(endtime, orig_timeout, stdout, stderr)\n\u001b[1;32m   2006\u001b[0m \u001b[38;5;66;03m# XXX Rewrite these to use non-blocking I/O on the file\u001b[39;00m\n\u001b[1;32m   2007\u001b[0m \u001b[38;5;66;03m# objects; they are no longer using C stdio!\u001b[39;00m\n",
      "File \u001b[0;32m~/.pyenv/versions/3.10.6/lib/python3.10/selectors.py:416\u001b[0m, in \u001b[0;36m_PollLikeSelector.select\u001b[0;34m(self, timeout)\u001b[0m\n\u001b[1;32m    414\u001b[0m ready \u001b[38;5;241m=\u001b[39m []\n\u001b[1;32m    415\u001b[0m \u001b[38;5;28;01mtry\u001b[39;00m:\n\u001b[0;32m--> 416\u001b[0m     fd_event_list \u001b[38;5;241m=\u001b[39m \u001b[38;5;28;43mself\u001b[39;49m\u001b[38;5;241;43m.\u001b[39;49m\u001b[43m_selector\u001b[49m\u001b[38;5;241;43m.\u001b[39;49m\u001b[43mpoll\u001b[49m\u001b[43m(\u001b[49m\u001b[43mtimeout\u001b[49m\u001b[43m)\u001b[49m\n\u001b[1;32m    417\u001b[0m \u001b[38;5;28;01mexcept\u001b[39;00m \u001b[38;5;167;01mInterruptedError\u001b[39;00m:\n\u001b[1;32m    418\u001b[0m     \u001b[38;5;28;01mreturn\u001b[39;00m ready\n",
      "\u001b[0;31mKeyboardInterrupt\u001b[0m: "
     ]
    }
   ],
   "source": [
    "c = converter.parse('data/output/Aaron, Michael, Piano Course, V8WvKK-1b2c.xml')\n",
    "c.show('musicxml.pdf')\n",
    "c.show('midi')"
   ]
  },
  {
   "cell_type": "code",
   "execution_count": null,
   "id": "cbbb393c-7db3-43bb-97bf-b8aeb2dcda78",
   "metadata": {},
   "outputs": [],
   "source": []
  }
 ],
 "metadata": {
  "kernelspec": {
   "display_name": "Python 3 (ipykernel)",
   "language": "python",
   "name": "python3"
  },
  "language_info": {
   "codemirror_mode": {
    "name": "ipython",
    "version": 3
   },
   "file_extension": ".py",
   "mimetype": "text/x-python",
   "name": "python",
   "nbconvert_exporter": "python",
   "pygments_lexer": "ipython3",
   "version": "3.10.6"
  }
 },
 "nbformat": 4,
 "nbformat_minor": 5
}
