{
 "cells": [
  {
   "cell_type": "code",
   "execution_count": 19,
   "metadata": {},
   "outputs": [
    {
     "name": "stdout",
     "output_type": "stream",
     "text": [
      "The autoreload extension is already loaded. To reload it, use:\n",
      "  %reload_ext autoreload\n"
     ]
    },
    {
     "data": {
      "text/plain": [
       "[MidiTrack([\n",
       "   MetaMessage('set_tempo', tempo=500000, time=0),\n",
       "   MetaMessage('time_signature', numerator=4, denominator=4, clocks_per_click=24, notated_32nd_notes_per_beat=8, time=0),\n",
       "   MetaMessage('end_of_track', time=1)]),\n",
       " MidiTrack([\n",
       "   Message('note_on', channel=0, note=72, velocity=71, time=702),\n",
       "   Message('note_on', channel=0, note=60, velocity=76, time=0),\n",
       "   Message('control_change', channel=0, control=64, value=127, time=104),\n",
       "   Message('note_on', channel=0, note=60, velocity=0, time=322),\n",
       "   Message('note_on', channel=0, note=62, velocity=74, time=3),\n",
       "   Message('note_on', channel=0, note=60, velocity=61, time=2),\n",
       "   Message('control_change', channel=0, control=64, value=0, time=31),\n",
       "   Message('note_on', channel=0, note=60, velocity=0, time=8),\n",
       "   Message('note_on', channel=0, note=72, velocity=0, time=18),\n",
       "   Message('note_on', channel=0, note=72, velocity=70, time=359),\n",
       "   Message('note_on', channel=0, note=60, velocity=76, time=3),\n",
       "   Message('note_on', channel=0, note=62, velocity=0, time=34),\n",
       "   Message('control_change', channel=0, control=64, value=127, time=157),\n",
       "   Message('note_on', channel=0, note=72, velocity=0, time=223),\n",
       "   Message('note_on', channel=0, note=59, velocity=76, time=13),\n",
       "   Message('note_on', channel=0, note=71, velocity=68, time=1),\n",
       "   Message('control_change', channel=0, control=64, value=0, time=24),\n",
       "   Message('note_on', channel=0, note=60, velocity=0, time=4),\n",
       "   Message('note_on', channel=0, note=72, velocity=70, time=375),\n",
       "   Message('note_on', channel=0, note=60, velocity=76, time=1),\n",
       "   Message('note_on', channel=0, note=59, velocity=0, time=23),\n",
       "   Message('note_on', channel=0, note=71, velocity=0, time=4),\n",
       "   Message('control_change', channel=0, control=64, value=127, time=46),\n",
       "   Message('note_on', channel=0, note=72, velocity=0, time=169),\n",
       "   Message('control_change', channel=0, control=64, value=0, time=328),\n",
       "   Message('note_on', channel=0, note=60, velocity=0, time=19),\n",
       "   Message('note_on', channel=0, note=72, velocity=73, time=213),\n",
       "   Message('note_on', channel=0, note=60, velocity=79, time=2),\n",
       "   Message('control_change', channel=0, control=64, value=127, time=68),\n",
       "   Message('note_on', channel=0, note=72, velocity=0, time=299),\n",
       "   Message('control_change', channel=0, control=64, value=0, time=214),\n",
       "   Message('note_on', channel=0, note=60, velocity=0, time=14),\n",
       "   Message('note_on', channel=0, note=72, velocity=76, time=195),\n",
       "   Message('note_on', channel=0, note=60, velocity=79, time=1),\n",
       "   Message('control_change', channel=0, control=64, value=127, time=45),\n",
       "   Message('note_on', channel=0, note=60, velocity=0, time=361),\n",
       "   Message('note_on', channel=0, note=62, velocity=75, time=6),\n",
       "   Message('note_on', channel=0, note=74, velocity=65, time=4),\n",
       "   Message('note_on', channel=0, note=60, velocity=63, time=1),\n",
       "   Message('note_on', channel=0, note=74, velocity=0, time=4),\n",
       "   Message('control_change', channel=0, control=64, value=0, time=2),\n",
       "   Message('note_on', channel=0, note=72, velocity=0, time=29),\n",
       "   Message('note_on', channel=0, note=60, velocity=0, time=4),\n",
       "   Message('note_on', channel=0, note=72, velocity=72, time=381),\n",
       "   Message('note_on', channel=0, note=60, velocity=78, time=2),\n",
       "   Message('note_on', channel=0, note=62, velocity=0, time=40),\n",
       "   Message('control_change', channel=0, control=64, value=127, time=126),\n",
       "   Message('control_change', channel=0, control=64, value=0, time=235),\n",
       "   Message('note_on', channel=0, note=59, velocity=78, time=11),\n",
       "   Message('note_on', channel=0, note=71, velocity=66, time=2),\n",
       "   Message('control_change', channel=0, control=64, value=127, time=21),\n",
       "   Message('control_change', channel=0, control=64, value=0, time=15),\n",
       "   Message('note_on', channel=0, note=60, velocity=0, time=2),\n",
       "   Message('note_on', channel=0, note=72, velocity=0, time=13),\n",
       "   Message('note_on', channel=0, note=72, velocity=69, time=350),\n",
       "   Message('note_on', channel=0, note=60, velocity=76, time=1),\n",
       "   Message('note_on', channel=0, note=59, velocity=0, time=33),\n",
       "   Message('note_on', channel=0, note=71, velocity=0, time=0),\n",
       "   Message('control_change', channel=0, control=64, value=127, time=215),\n",
       "   Message('note_on', channel=0, note=72, velocity=0, time=607),\n",
       "   Message('control_change', channel=0, control=64, value=0, time=516),\n",
       "   Message('note_on', channel=0, note=60, velocity=0, time=9),\n",
       "   Message('note_on', channel=0, note=72, velocity=72, time=179),\n",
       "   Message('note_on', channel=0, note=60, velocity=76, time=0),\n",
       "   Message('control_change', channel=0, control=64, value=127, time=56),\n",
       "   Message('note_on', channel=0, note=60, velocity=0, time=354),\n",
       "   Message('note_on', channel=0, note=62, velocity=74, time=5),\n",
       "   Message('note_on', channel=0, note=60, velocity=62, time=3),\n",
       "   Message('control_change', channel=0, control=64, value=0, time=21),\n",
       "   Message('note_on', channel=0, note=72, velocity=0, time=24),\n",
       "   Message('note_on', channel=0, note=60, velocity=0, time=31),\n",
       "   Message('note_on', channel=0, note=72, velocity=69, time=328),\n",
       "   Message('note_on', channel=0, note=60, velocity=76, time=1),\n",
       "   Message('note_on', channel=0, note=62, velocity=0, time=43),\n",
       "   Message('control_change', channel=0, control=64, value=127, time=120),\n",
       "   Message('note_on', channel=0, note=71, velocity=67, time=254),\n",
       "   Message('note_on', channel=0, note=59, velocity=75, time=0),\n",
       "   Message('note_on', channel=0, note=72, velocity=0, time=15),\n",
       "   Message('note_on', channel=0, note=60, velocity=0, time=11),\n",
       "   Message('control_change', channel=0, control=64, value=0, time=7),\n",
       "   Message('note_on', channel=0, note=72, velocity=70, time=363),\n",
       "   Message('note_on', channel=0, note=60, velocity=77, time=0),\n",
       "   Message('note_on', channel=0, note=59, velocity=0, time=22),\n",
       "   Message('note_on', channel=0, note=71, velocity=0, time=4),\n",
       "   Message('control_change', channel=0, control=64, value=127, time=30),\n",
       "   Message('note_on', channel=0, note=72, velocity=0, time=185),\n",
       "   Message('control_change', channel=0, control=64, value=0, time=304),\n",
       "   Message('note_on', channel=0, note=60, velocity=0, time=20),\n",
       "   Message('note_on', channel=0, note=72, velocity=72, time=218),\n",
       "   Message('note_on', channel=0, note=60, velocity=80, time=0),\n",
       "   Message('control_change', channel=0, control=64, value=127, time=57),\n",
       "   Message('note_on', channel=0, note=72, velocity=0, time=238),\n",
       "   Message('control_change', channel=0, control=64, value=0, time=211),\n",
       "   Message('note_on', channel=0, note=60, velocity=0, time=17),\n",
       "   Message('note_on', channel=0, note=72, velocity=72, time=289),\n",
       "   Message('note_on', channel=0, note=60, velocity=76, time=1),\n",
       "   Message('control_change', channel=0, control=64, value=127, time=58),\n",
       "   Message('note_on', channel=0, note=60, velocity=0, time=361),\n",
       "   Message('control_change', channel=0, control=64, value=0, time=3),\n",
       "   Message('note_on', channel=0, note=74, velocity=65, time=2),\n",
       "   Message('note_on', channel=0, note=62, velocity=74, time=2),\n",
       "   Message('note_on', channel=0, note=60, velocity=61, time=3),\n",
       "   Message('note_on', channel=0, note=72, velocity=0, time=28),\n",
       "   Message('note_on', channel=0, note=60, velocity=0, time=31),\n",
       "   Message('note_on', channel=0, note=74, velocity=0, time=199),\n",
       "   Message('note_on', channel=0, note=72, velocity=69, time=150),\n",
       "   Message('note_on', channel=0, note=60, velocity=77, time=1),\n",
       "   Message('note_on', channel=0, note=62, velocity=0, time=37),\n",
       "   Message('note_on', channel=0, note=72, velocity=0, time=365),\n",
       "   Message('note_on', channel=0, note=71, velocity=70, time=12),\n",
       "   Message('note_on', channel=0, note=59, velocity=78, time=0),\n",
       "   Message('note_on', channel=0, note=60, velocity=0, time=37),\n",
       "   Message('note_on', channel=0, note=72, velocity=69, time=370),\n",
       "   Message('note_on', channel=0, note=60, velocity=78, time=1),\n",
       "   Message('note_on', channel=0, note=71, velocity=0, time=18),\n",
       "   Message('note_on', channel=0, note=59, velocity=0, time=10),\n",
       "   Message('control_change', channel=0, control=64, value=127, time=67),\n",
       "   Message('note_on', channel=0, note=72, velocity=0, time=1260),\n",
       "   Message('control_change', channel=0, control=64, value=0, time=276),\n",
       "   Message('note_on', channel=0, note=60, velocity=0, time=9),\n",
       "   Message('note_on', channel=0, note=72, velocity=72, time=2815),\n",
       "   Message('note_on', channel=0, note=60, velocity=77, time=1),\n",
       "   Message('control_change', channel=0, control=64, value=127, time=78),\n",
       "   Message('note_on', channel=0, note=72, velocity=0, time=169),\n",
       "   Message('note_on', channel=0, note=60, velocity=0, time=138),\n",
       "   Message('note_on', channel=0, note=62, velocity=79, time=6),\n",
       "   Message('note_on', channel=0, note=60, velocity=67, time=1),\n",
       "   Message('control_change', channel=0, control=64, value=0, time=20),\n",
       "   Message('note_on', channel=0, note=60, velocity=0, time=12),\n",
       "   Message('note_on', channel=0, note=72, velocity=73, time=365),\n",
       "   Message('note_on', channel=0, note=60, velocity=79, time=1),\n",
       "   Message('note_on', channel=0, note=62, velocity=0, time=40),\n",
       "   Message('control_change', channel=0, control=64, value=127, time=124),\n",
       "   Message('control_change', channel=0, control=64, value=0, time=202),\n",
       "   Message('note_on', channel=0, note=60, velocity=0, time=20),\n",
       "   Message('note_on', channel=0, note=62, velocity=73, time=7),\n",
       "   Message('note_on', channel=0, note=60, velocity=64, time=2),\n",
       "   Message('note_on', channel=0, note=74, velocity=66, time=0),\n",
       "   Message('note_on', channel=0, note=74, velocity=0, time=7),\n",
       "   Message('note_on', channel=0, note=72, velocity=0, time=15),\n",
       "   Message('note_on', channel=0, note=60, velocity=0, time=14),\n",
       "   Message('note_on', channel=0, note=72, velocity=73, time=358),\n",
       "   Message('note_on', channel=0, note=60, velocity=78, time=0),\n",
       "   Message('note_on', channel=0, note=62, velocity=0, time=49),\n",
       "   Message('control_change', channel=0, control=64, value=127, time=78),\n",
       "   Message('note_on', channel=0, note=72, velocity=0, time=238),\n",
       "   Message('control_change', channel=0, control=64, value=0, time=208),\n",
       "   Message('note_on', channel=0, note=60, velocity=0, time=17),\n",
       "   Message('note_on', channel=0, note=72, velocity=71, time=186),\n",
       "   Message('note_on', channel=0, note=60, velocity=77, time=1),\n",
       "   Message('control_change', channel=0, control=64, value=127, time=57),\n",
       "   Message('control_change', channel=0, control=64, value=0, time=521),\n",
       "   Message('note_on', channel=0, note=72, velocity=0, time=1),\n",
       "   Message('note_on', channel=0, note=60, velocity=0, time=12),\n",
       "   Message('note_on', channel=0, note=72, velocity=73, time=183),\n",
       "   Message('note_on', channel=0, note=60, velocity=78, time=0),\n",
       "   Message('control_change', channel=0, control=64, value=127, time=74),\n",
       "   Message('note_on', channel=0, note=72, velocity=0, time=130),\n",
       "   Message('note_on', channel=0, note=59, velocity=78, time=190),\n",
       "   Message('note_on', channel=0, note=71, velocity=70, time=1),\n",
       "   Message('note_on', channel=0, note=60, velocity=0, time=51),\n",
       "   Message('control_change', channel=0, control=64, value=0, time=3),\n",
       "   Message('note_on', channel=0, note=72, velocity=72, time=342),\n",
       "   Message('note_on', channel=0, note=60, velocity=78, time=1),\n",
       "   Message('note_on', channel=0, note=59, velocity=0, time=27),\n",
       "   Message('note_on', channel=0, note=71, velocity=0, time=7),\n",
       "   Message('control_change', channel=0, control=64, value=127, time=131),\n",
       "   Message('note_on', channel=0, note=72, velocity=0, time=46),\n",
       "   Message('note_on', channel=0, note=59, velocity=76, time=180),\n",
       "   Message('note_on', channel=0, note=71, velocity=68, time=0),\n",
       "   Message('note_on', channel=0, note=60, velocity=0, time=31),\n",
       "   Message('control_change', channel=0, control=64, value=0, time=9),\n",
       "   Message('control_change', channel=0, control=64, value=127, time=179),\n",
       "   Message('control_change', channel=0, control=64, value=0, time=135),\n",
       "   Message('note_on', channel=0, note=72, velocity=71, time=49),\n",
       "   Message('note_on', channel=0, note=60, velocity=77, time=1),\n",
       "   Message('note_on', channel=0, note=59, velocity=0, time=27),\n",
       "   Message('note_on', channel=0, note=71, velocity=0, time=3),\n",
       "   Message('control_change', channel=0, control=64, value=127, time=123),\n",
       "   Message('note_on', channel=0, note=72, velocity=0, time=384),\n",
       "   Message('control_change', channel=0, control=64, value=0, time=872),\n",
       "   Message('note_on', channel=0, note=60, velocity=0, time=1),\n",
       "   Message('note_on', channel=0, note=60, velocity=71, time=114),\n",
       "   Message('note_on', channel=0, note=72, velocity=69, time=0),\n",
       "   Message('control_change', channel=0, control=64, value=127, time=89),\n",
       "   Message('control_change', channel=0, control=64, value=0, time=288),\n",
       "   Message('note_on', channel=0, note=60, velocity=0, time=11),\n",
       "   Message('note_on', channel=0, note=62, velocity=78, time=5),\n",
       "   Message('note_on', channel=0, note=74, velocity=71, time=0),\n",
       "   Message('note_on', channel=0, note=60, velocity=67, time=2),\n",
       "   Message('note_on', channel=0, note=72, velocity=0, time=16),\n",
       "   Message('note_on', channel=0, note=60, velocity=0, time=18),\n",
       "   Message('control_change', channel=0, control=64, value=127, time=105),\n",
       "   Message('note_on', channel=0, note=74, velocity=0, time=46),\n",
       "   Message('control_change', channel=0, control=64, value=0, time=154),\n",
       "   Message('note_on', channel=0, note=72, velocity=74, time=34),\n",
       "   Message('note_on', channel=0, note=60, velocity=80, time=1),\n",
       "   Message('note_on', channel=0, note=62, velocity=0, time=95),\n",
       "   Message('control_change', channel=0, control=64, value=127, time=77),\n",
       "   Message('control_change', channel=0, control=64, value=0, time=190),\n",
       "   Message('note_on', channel=0, note=60, velocity=0, time=33),\n",
       "   Message('note_on', channel=0, note=62, velocity=74, time=4),\n",
       "   Message('note_on', channel=0, note=74, velocity=67, time=0),\n",
       "   Message('note_on', channel=0, note=60, velocity=64, time=5),\n",
       "   Message('note_on', channel=0, note=72, velocity=0, time=37),\n",
       "   Message('note_on', channel=0, note=60, velocity=0, time=38),\n",
       "   Message('control_change', channel=0, control=64, value=127, time=92),\n",
       "   Message('note_on', channel=0, note=74, velocity=0, time=77),\n",
       "   Message('control_change', channel=0, control=64, value=0, time=108),\n",
       "   Message('note_on', channel=0, note=72, velocity=74, time=40),\n",
       "   Message('note_on', channel=0, note=60, velocity=80, time=0),\n",
       "   Message('note_on', channel=0, note=62, velocity=0, time=46),\n",
       "   Message('control_change', channel=0, control=64, value=127, time=106),\n",
       "   Message('note_on', channel=0, note=72, velocity=0, time=176),\n",
       "   Message('control_change', channel=0, control=64, value=0, time=187),\n",
       "   Message('note_on', channel=0, note=60, velocity=0, time=17),\n",
       "   Message('note_on', channel=0, note=72, velocity=71, time=244),\n",
       "   Message('note_on', channel=0, note=60, velocity=74, time=0),\n",
       "   Message('control_change', channel=0, control=64, value=127, time=59),\n",
       "   Message('note_on', channel=0, note=72, velocity=0, time=453),\n",
       "   Message('control_change', channel=0, control=64, value=0, time=108),\n",
       "   Message('note_on', channel=0, note=60, velocity=0, time=11),\n",
       "   Message('note_on', channel=0, note=72, velocity=75, time=170),\n",
       "   Message('note_on', channel=0, note=60, velocity=81, time=0),\n",
       "   Message('control_change', channel=0, control=64, value=127, time=72),\n",
       "   Message('note_on', channel=0, note=72, velocity=0, time=308),\n",
       "   Message('note_on', channel=0, note=59, velocity=77, time=24),\n",
       "   Message('note_on', channel=0, note=71, velocity=70, time=1),\n",
       "   Message('note_on', channel=0, note=60, velocity=0, time=36),\n",
       "   Message('control_change', channel=0, control=64, value=0, time=4),\n",
       "   Message('note_on', channel=0, note=72, velocity=71, time=368),\n",
       "   Message('note_on', channel=0, note=60, velocity=79, time=0),\n",
       "   Message('note_on', channel=0, note=71, velocity=0, time=35),\n",
       "   Message('note_on', channel=0, note=59, velocity=0, time=3),\n",
       "   Message('control_change', channel=0, control=64, value=127, time=74),\n",
       "   Message('note_on', channel=0, note=72, velocity=0, time=115),\n",
       "   Message('note_on', channel=0, note=59, velocity=77, time=173),\n",
       "   Message('note_on', channel=0, note=71, velocity=70, time=0),\n",
       "   Message('note_on', channel=0, note=60, velocity=0, time=42),\n",
       "   Message('control_change', channel=0, control=64, value=0, time=4),\n",
       "   Message('note_on', channel=0, note=72, velocity=73, time=354),\n",
       "   Message('note_on', channel=0, note=60, velocity=77, time=1),\n",
       "   Message('note_on', channel=0, note=71, velocity=0, time=25),\n",
       "   Message('note_on', channel=0, note=59, velocity=0, time=1),\n",
       "   Message('control_change', channel=0, control=64, value=127, time=299),\n",
       "   Message('control_change', channel=0, control=64, value=0, time=453),\n",
       "   Message('note_on', channel=0, note=72, velocity=0, time=568),\n",
       "   Message('note_on', channel=0, note=60, velocity=0, time=257),\n",
       "   Message('note_on', channel=0, note=72, velocity=76, time=5270),\n",
       "   Message('note_on', channel=0, note=60, velocity=81, time=2),\n",
       "   Message('control_change', channel=0, control=64, value=127, time=93),\n",
       "   Message('note_on', channel=0, note=72, velocity=0, time=130),\n",
       "   Message('note_on', channel=0, note=60, velocity=0, time=162),\n",
       "   Message('note_on', channel=0, note=62, velocity=76, time=3),\n",
       "   Message('note_on', channel=0, note=60, velocity=64, time=1),\n",
       "   Message('control_change', channel=0, control=64, value=0, time=23),\n",
       "   Message('note_on', channel=0, note=60, velocity=0, time=40),\n",
       "   Message('control_change', channel=0, control=64, value=127, time=209),\n",
       "   Message('note_on', channel=0, note=64, velocity=85, time=108),\n",
       "   Message('control_change', channel=0, control=64, value=0, time=37),\n",
       "   Message('note_on', channel=0, note=62, velocity=0, time=62),\n",
       "   Message('note_on', channel=0, note=72, velocity=64, time=285),\n",
       "   Message('note_on', channel=0, note=60, velocity=69, time=1),\n",
       "   Message('note_on', channel=0, note=64, velocity=0, time=40),\n",
       "   Message('control_change', channel=0, control=64, value=127, time=135),\n",
       "   Message('note_on', channel=0, note=72, velocity=0, time=185),\n",
       "   Message('note_on', channel=0, note=74, velocity=66, time=25),\n",
       "   Message('note_on', channel=0, note=62, velocity=74, time=1),\n",
       "   Message('control_change', channel=0, control=64, value=0, time=17),\n",
       "   Message('note_on', channel=0, note=60, velocity=0, time=20),\n",
       "   Message('note_on', channel=0, note=74, velocity=0, time=98),\n",
       "   Message('note_on', channel=0, note=64, velocity=86, time=244),\n",
       "   Message('note_on', channel=0, note=76, velocity=72, time=3),\n",
       "   Message('note_on', channel=0, note=62, velocity=0, time=65),\n",
       "   Message('note_on', channel=0, note=62, velocity=73, time=318),\n",
       "   Message('note_on', channel=0, note=74, velocity=65, time=1),\n",
       "   Message('note_on', channel=0, note=64, velocity=0, time=50),\n",
       "   Message('note_on', channel=0, note=76, velocity=0, time=2),\n",
       "   Message('note_on', channel=0, note=74, velocity=0, time=31),\n",
       "   Message('control_change', channel=0, control=64, value=127, time=261),\n",
       "   Message('control_change', channel=0, control=64, value=0, time=8),\n",
       "   Message('control_change', channel=0, control=64, value=127, time=84),\n",
       "   Message('control_change', channel=0, control=64, value=0, time=268),\n",
       "   Message('note_on', channel=0, note=72, velocity=67, time=14),\n",
       "   Message('note_on', channel=0, note=60, velocity=73, time=1),\n",
       "   Message('note_on', channel=0, note=62, velocity=0, time=44),\n",
       "   Message('control_change', channel=0, control=64, value=127, time=126),\n",
       "   Message('note_on', channel=0, note=72, velocity=0, time=8),\n",
       "   Message('note_on', channel=0, note=59, velocity=79, time=196),\n",
       "   Message('note_on', channel=0, note=71, velocity=65, time=1),\n",
       "   Message('control_change', channel=0, control=64, value=0, time=11),\n",
       "   Message('note_on', channel=0, note=60, velocity=0, time=16),\n",
       "   Message('note_on', channel=0, note=57, velocity=71, time=360),\n",
       "   Message('note_on', channel=0, note=59, velocity=0, time=46),\n",
       "   Message('note_on', channel=0, note=71, velocity=0, time=61),\n",
       "   Message('control_change', channel=0, control=64, value=127, time=77),\n",
       "   Message('control_change', channel=0, control=64, value=0, time=131),\n",
       "   Message('note_on', channel=0, note=59, velocity=79, time=50),\n",
       "   Message('note_on', channel=0, note=71, velocity=68, time=1),\n",
       "   Message('note_on', channel=0, note=57, velocity=0, time=35),\n",
       "   Message('note_on', channel=0, note=72, velocity=68, time=348),\n",
       "   Message('note_on', channel=0, note=60, velocity=74, time=0),\n",
       "   Message('note_on', channel=0, note=59, velocity=0, time=37),\n",
       "   Message('note_on', channel=0, note=71, velocity=0, time=5),\n",
       "   Message('control_change', channel=0, control=64, value=127, time=130),\n",
       "   Message('note_on', channel=0, note=72, velocity=0, time=308),\n",
       "   Message('control_change', channel=0, control=64, value=0, time=871),\n",
       "   Message('note_on', channel=0, note=60, velocity=0, time=8),\n",
       "   Message('note_on', channel=0, note=72, velocity=66, time=131),\n",
       "   Message('note_on', channel=0, note=60, velocity=72, time=1),\n",
       "   Message('control_change', channel=0, control=64, value=127, time=87),\n",
       "   Message('note_on', channel=0, note=62, velocity=78, time=305),\n",
       "   Message('control_change', channel=0, control=64, value=0, time=5),\n",
       "   Message('note_on', channel=0, note=72, velocity=0, time=35),\n",
       "   Message('note_on', channel=0, note=60, velocity=0, time=3),\n",
       "   Message('control_change', channel=0, control=64, value=127, time=113),\n",
       "   Message('note_on', channel=0, note=64, velocity=86, time=220),\n",
       "   Message('note_on', channel=0, note=76, velocity=73, time=3),\n",
       "   Message('control_change', channel=0, control=64, value=0, time=35),\n",
       "   Message('note_on', channel=0, note=62, velocity=0, time=60),\n",
       "   Message('control_change', channel=0, control=64, value=127, time=142),\n",
       "   Message('note_on', channel=0, note=76, velocity=0, time=108),\n",
       "   Message('control_change', channel=0, control=64, value=0, time=18),\n",
       "   Message('note_on', channel=0, note=72, velocity=68, time=18),\n",
       "   Message('note_on', channel=0, note=60, velocity=74, time=3),\n",
       "   Message('note_on', channel=0, note=64, velocity=0, time=36),\n",
       "   Message('control_change', channel=0, control=64, value=127, time=102),\n",
       "   Message('note_on', channel=0, note=62, velocity=76, time=235),\n",
       "   Message('note_on', channel=0, note=74, velocity=66, time=1),\n",
       "   Message('control_change', channel=0, control=64, value=0, time=23),\n",
       "   Message('note_on', channel=0, note=72, velocity=0, time=9),\n",
       "   Message('note_on', channel=0, note=60, velocity=0, time=6),\n",
       "   Message('note_on', channel=0, note=74, velocity=0, time=102),\n",
       "   Message('control_change', channel=0, control=64, value=127, time=8),\n",
       "   Message('note_on', channel=0, note=64, velocity=83, time=221),\n",
       "   Message('note_on', channel=0, note=76, velocity=71, time=3),\n",
       "   Message('control_change', channel=0, control=64, value=0, time=43),\n",
       "   Message('note_on', channel=0, note=62, velocity=0, time=9),\n",
       "   Message('control_change', channel=0, control=64, value=127, time=161),\n",
       "   Message('note_on', channel=0, note=76, velocity=0, time=154),\n",
       "   Message('note_on', channel=0, note=62, velocity=73, time=25),\n",
       "   Message('note_on', channel=0, note=74, velocity=65, time=0),\n",
       "   Message('control_change', channel=0, control=64, value=0, time=40),\n",
       "   Message('note_on', channel=0, note=64, velocity=0, time=27),\n",
       "   Message('note_on', channel=0, note=74, velocity=0, time=46),\n",
       "   Message('control_change', channel=0, control=64, value=127, time=77),\n",
       "   Message('note_on', channel=0, note=72, velocity=66, time=557),\n",
       "   Message('note_on', channel=0, note=60, velocity=73, time=0),\n",
       "   Message('control_change', channel=0, control=64, value=0, time=37),\n",
       "   Message('note_on', channel=0, note=62, velocity=0, time=5),\n",
       "   Message('control_change', channel=0, control=64, value=127, time=131),\n",
       "   Message('note_on', channel=0, note=72, velocity=0, time=61),\n",
       "   Message('note_on', channel=0, note=59, velocity=77, time=149),\n",
       "   Message('note_on', channel=0, note=71, velocity=65, time=1),\n",
       "   Message('note_on', channel=0, note=60, velocity=0, time=43),\n",
       "   Message('control_change', channel=0, control=64, value=0, time=3),\n",
       "   Message('control_change', channel=0, control=64, value=127, time=134),\n",
       "   Message('control_change', channel=0, control=64, value=0, time=116),\n",
       "   Message('note_on', channel=0, note=57, velocity=74, time=74),\n",
       "   Message('note_on', channel=0, note=59, velocity=0, time=64),\n",
       "   Message('note_on', channel=0, note=71, velocity=0, time=30),\n",
       "   Message('note_on', channel=0, note=59, velocity=77, time=289),\n",
       "   Message('note_on', channel=0, note=71, velocity=67, time=1),\n",
       "   Message('note_on', channel=0, note=57, velocity=0, time=55),\n",
       "   Message('note_on', channel=0, note=72, velocity=67, time=343),\n",
       "   Message('note_on', channel=0, note=60, velocity=71, time=1),\n",
       "   Message('note_on', channel=0, note=59, velocity=0, time=22),\n",
       "   Message('note_on', channel=0, note=71, velocity=0, time=19),\n",
       "   Message('control_change', channel=0, control=64, value=127, time=330),\n",
       "   Message('note_on', channel=0, note=72, velocity=0, time=907),\n",
       "   Message('control_change', channel=0, control=64, value=0, time=117),\n",
       "   Message('note_on', channel=0, note=60, velocity=0, time=9),\n",
       "   Message('note_on', channel=0, note=72, velocity=70, time=2289),\n",
       "   Message('note_on', channel=0, note=60, velocity=73, time=1),\n",
       "   Message('control_change', channel=0, control=64, value=127, time=80),\n",
       "   Message('note_on', channel=0, note=60, velocity=0, time=284),\n",
       "   Message('control_change', channel=0, control=64, value=0, time=4),\n",
       "   Message('note_on', channel=0, note=60, velocity=65, time=7),\n",
       "   Message('note_on', channel=0, note=62, velocity=76, time=1),\n",
       "   Message('note_on', channel=0, note=72, velocity=0, time=49),\n",
       "   Message('note_on', channel=0, note=60, velocity=0, time=39),\n",
       "   Message('control_change', channel=0, control=64, value=127, time=107),\n",
       "   Message('note_on', channel=0, note=64, velocity=86, time=190),\n",
       "   Message('note_on', channel=0, note=76, velocity=71, time=3),\n",
       "   Message('control_change', channel=0, control=64, value=0, time=50),\n",
       "   Message('note_on', channel=0, note=62, velocity=0, time=9),\n",
       "   Message('note_on', channel=0, note=76, velocity=0, time=263),\n",
       "   Message('note_on', channel=0, note=62, velocity=73, time=34),\n",
       "   Message('note_on', channel=0, note=64, velocity=0, time=67),\n",
       "   Message('note_on', channel=0, note=72, velocity=68, time=295),\n",
       "   Message('note_on', channel=0, note=60, velocity=74, time=2),\n",
       "   Message('note_on', channel=0, note=62, velocity=0, time=108),\n",
       "   Message('control_change', channel=0, control=64, value=127, time=62),\n",
       "   Message('note_on', channel=0, note=72, velocity=0, time=261),\n",
       "   Message('control_change', channel=0, control=64, value=0, time=272),\n",
       "   Message('note_on', channel=0, note=64, velocity=84, time=9),\n",
       "   Message('note_on', channel=0, note=76, velocity=69, time=1),\n",
       "   Message('note_on', channel=0, note=60, velocity=0, time=53),\n",
       "   Message('control_change', channel=0, control=64, value=127, time=157),\n",
       "   Message('note_on', channel=0, note=76, velocity=0, time=92),\n",
       "   Message('note_on', channel=0, note=69, velocity=62, time=454),\n",
       "   Message('note_on', channel=0, note=57, velocity=73, time=1),\n",
       "   Message('note_on', channel=0, note=69, velocity=0, time=6),\n",
       "   Message('control_change', channel=0, control=64, value=0, time=44),\n",
       "   Message('note_on', channel=0, note=64, velocity=0, time=28),\n",
       "   Message('control_change', channel=0, control=64, value=127, time=181),\n",
       "   Message('note_on', channel=0, note=59, velocity=82, time=476),\n",
       "   Message('note_on', channel=0, note=71, velocity=72, time=1),\n",
       "   Message('control_change', channel=0, control=64, value=0, time=9),\n",
       "   Message('note_on', channel=0, note=57, velocity=0, time=136),\n",
       "   Message('note_on', channel=0, note=59, velocity=0, time=41),\n",
       "   Message('note_on', channel=0, note=71, velocity=0, time=44),\n",
       "   Message('note_on', channel=0, note=59, velocity=80, time=136),\n",
       "   Message('note_on', channel=0, note=71, velocity=73, time=1),\n",
       "   Message('note_on', channel=0, note=72, velocity=68, time=389),\n",
       "   Message('note_on', channel=0, note=60, velocity=74, time=1),\n",
       "   Message('note_on', channel=0, note=59, velocity=0, time=52),\n",
       "   Message('note_on', channel=0, note=71, velocity=0, time=12),\n",
       "   Message('control_change', channel=0, control=64, value=127, time=246),\n",
       "   Message('note_on', channel=0, note=72, velocity=0, time=199),\n",
       "   Message('note_on', channel=0, note=60, velocity=0, time=833),\n",
       "   Message('control_change', channel=0, control=64, value=0, time=4),\n",
       "   Message('note_on', channel=0, note=72, velocity=68, time=182),\n",
       "   Message('note_on', channel=0, note=60, velocity=72, time=1),\n",
       "   Message('control_change', channel=0, control=64, value=127, time=63),\n",
       "   Message('note_on', channel=0, note=60, velocity=0, time=300),\n",
       "   Message('note_on', channel=0, note=62, velocity=77, time=6),\n",
       "   Message('note_on', channel=0, note=60, velocity=65, time=0),\n",
       "   Message('note_on', channel=0, note=74, velocity=70, time=1),\n",
       "   Message('note_on', channel=0, note=72, velocity=0, time=31),\n",
       "   Message('control_change', channel=0, control=64, value=0, time=11),\n",
       "   Message('note_on', channel=0, note=60, velocity=0, time=1),\n",
       "   Message('control_change', channel=0, control=64, value=127, time=126),\n",
       "   Message('note_on', channel=0, note=74, velocity=0, time=108),\n",
       "   Message('note_on', channel=0, note=64, velocity=84, time=92),\n",
       "   Message('note_on', channel=0, note=76, velocity=70, time=2),\n",
       "   Message('control_change', channel=0, control=64, value=0, time=60),\n",
       "   Message('note_on', channel=0, note=62, velocity=0, time=28),\n",
       "   Message('note_on', channel=0, note=62, velocity=75, time=289),\n",
       "   Message('note_on', channel=0, note=74, velocity=69, time=0),\n",
       "   Message('note_on', channel=0, note=76, velocity=0, time=74),\n",
       "   Message('note_on', channel=0, note=64, velocity=0, time=11),\n",
       "   Message('note_on', channel=0, note=74, velocity=0, time=74),\n",
       "   Message('note_on', channel=0, note=72, velocity=68, time=226),\n",
       "   Message('note_on', channel=0, note=60, velocity=74, time=1),\n",
       "   Message('note_on', channel=0, note=62, velocity=0, time=101),\n",
       "   Message('control_change', channel=0, control=64, value=127, time=209),\n",
       "   Message('note_on', channel=0, note=72, velocity=0, time=192),\n",
       "   Message('note_on', channel=0, note=64, velocity=84, time=242),\n",
       "   Message('note_on', channel=0, note=76, velocity=71, time=1),\n",
       "   Message('control_change', channel=0, control=64, value=0, time=46),\n",
       "   Message('note_on', channel=0, note=60, velocity=0, time=10),\n",
       "   Message('control_change', channel=0, control=64, value=127, time=170),\n",
       "   Message('note_on', channel=0, note=76, velocity=0, time=69),\n",
       "   Message('note_on', channel=0, note=57, velocity=74, time=473),\n",
       "   Message('control_change', channel=0, control=64, value=0, time=62),\n",
       "   Message('note_on', channel=0, note=64, velocity=0, time=13),\n",
       "   Message('control_change', channel=0, control=64, value=127, time=174),\n",
       "   Message('note_on', channel=0, note=59, velocity=81, time=483),\n",
       "   Message('note_on', channel=0, note=71, velocity=71, time=3),\n",
       "   Message('note_on', channel=0, note=57, velocity=0, time=29),\n",
       "   Message('control_change', channel=0, control=64, value=0, time=35),\n",
       "   Message('note_on', channel=0, note=59, velocity=0, time=145),\n",
       "   Message('note_on', channel=0, note=71, velocity=0, time=34),\n",
       "   Message('note_on', channel=0, note=59, velocity=81, time=129),\n",
       "   Message('note_on', channel=0, note=71, velocity=73, time=1),\n",
       "   Message('note_on', channel=0, note=72, velocity=72, time=382),\n",
       "   Message('note_on', channel=0, note=60, velocity=76, time=1),\n",
       "   Message('note_on', channel=0, note=59, velocity=0, time=31),\n",
       "   Message('note_on', channel=0, note=71, velocity=0, time=17),\n",
       "   Message('control_change', channel=0, control=64, value=127, time=246),\n",
       "   Message('control_change', channel=0, control=64, value=0, time=31),\n",
       "   Message('control_change', channel=0, control=64, value=127, time=84),\n",
       "   Message('control_change', channel=0, control=64, value=0, time=1055),\n",
       "   Message('note_on', channel=0, note=60, velocity=0, time=8),\n",
       "   Message('note_on', channel=0, note=72, velocity=0, time=5),\n",
       "   Message('note_on', channel=0, note=72, velocity=75, time=2094),\n",
       "   Message('note_on', channel=0, note=60, velocity=81, time=4),\n",
       "   Message('control_change', channel=0, control=64, value=127, time=106),\n",
       "   Message('note_on', channel=0, note=72, velocity=0, time=100),\n",
       "   Message('note_on', channel=0, note=62, velocity=78, time=150),\n",
       "   Message('control_change', channel=0, control=64, value=0, time=33),\n",
       "   Message('note_on', channel=0, note=60, velocity=0, time=4),\n",
       "   Message('note_on', channel=0, note=64, velocity=83, time=322),\n",
       "   Message('note_on', channel=0, note=62, velocity=0, time=79),\n",
       "   Message('note_on', channel=0, note=65, velocity=78, time=301),\n",
       "   Message('note_on', channel=0, note=64, velocity=0, time=74),\n",
       "   Message('control_change', channel=0, control=64, value=127, time=296),\n",
       "   Message('note_on', channel=0, note=55, velocity=76, time=683),\n",
       "   Message('control_change', channel=0, control=64, value=0, time=43),\n",
       "   Message('note_on', channel=0, note=65, velocity=0, time=88),\n",
       "   Message('note_on', channel=0, note=57, velocity=76, time=235),\n",
       "   Message('note_on', channel=0, note=55, velocity=0, time=63),\n",
       "   Message('note_on', channel=0, note=59, velocity=81, time=277),\n",
       "   Message('note_on', channel=0, note=57, velocity=0, time=57),\n",
       "   Message('note_on', channel=0, note=60, velocity=74, time=301),\n",
       "   Message('note_on', channel=0, note=59, velocity=0, time=31),\n",
       "   Message('control_change', channel=0, control=64, value=127, time=288),\n",
       "   Message('control_change', channel=0, control=64, value=0, time=625),\n",
       "   Message('note_on', channel=0, note=60, velocity=0, time=5),\n",
       "   Message('note_on', channel=0, note=72, velocity=70, time=158),\n",
       "   Message('note_on', channel=0, note=60, velocity=72, time=2),\n",
       "   Message('control_change', channel=0, control=64, value=127, time=55),\n",
       "   Message('note_on', channel=0, note=62, velocity=78, time=308),\n",
       "   Message('control_change', channel=0, control=64, value=0, time=34),\n",
       "   Message('note_on', channel=0, note=60, velocity=0, time=0),\n",
       "   Message('note_on', channel=0, note=72, velocity=0, time=19),\n",
       "   Message('note_on', channel=0, note=64, velocity=81, time=297),\n",
       "   Message('note_on', channel=0, note=62, velocity=0, time=89),\n",
       "   Message('control_change', channel=0, control=64, value=127, time=159),\n",
       "   Message('note_on', channel=0, note=65, velocity=79, time=135),\n",
       "   Message('control_change', channel=0, control=64, value=0, time=55),\n",
       "   Message('note_on', channel=0, note=64, velocity=0, time=27),\n",
       "   Message('control_change', channel=0, control=64, value=127, time=298),\n",
       "   Message('note_on', channel=0, note=55, velocity=67, time=697),\n",
       "   Message('control_change', channel=0, control=64, value=0, time=46),\n",
       "   Message('note_on', channel=0, note=65, velocity=0, time=2),\n",
       "   Message('control_change', channel=0, control=64, value=127, time=222),\n",
       "   Message('note_on', channel=0, note=57, velocity=74, time=95),\n",
       "   Message('control_change', channel=0, control=64, value=0, time=43),\n",
       "   Message('note_on', channel=0, note=55, velocity=0, time=26),\n",
       "   Message('control_change', channel=0, control=64, value=127, time=143),\n",
       "   Message('note_on', channel=0, note=59, velocity=81, time=135),\n",
       "   Message('note_on', channel=0, note=57, velocity=0, time=46),\n",
       "   Message('control_change', channel=0, control=64, value=0, time=4),\n",
       "   Message('note_on', channel=0, note=60, velocity=76, time=304),\n",
       "   Message('note_on', channel=0, note=59, velocity=0, time=52),\n",
       "   Message('control_change', channel=0, control=64, value=127, time=82),\n",
       "   Message('note_on', channel=0, note=60, velocity=0, time=948),\n",
       "   Message('control_change', channel=0, control=64, value=0, time=4),\n",
       "   Message('note_on', channel=0, note=72, velocity=76, time=2179),\n",
       "   Message('note_on', channel=0, note=60, velocity=82, time=5),\n",
       "   Message('note_on', channel=0, note=72, velocity=0, time=5),\n",
       "   Message('control_change', channel=0, control=64, value=127, time=69),\n",
       "   Message('note_on', channel=0, note=59, velocity=83, time=284),\n",
       "   Message('note_on', channel=0, note=60, velocity=0, time=43),\n",
       "   Message('control_change', channel=0, control=64, value=0, time=13),\n",
       "   Message('note_on', channel=0, note=57, velocity=78, time=298),\n",
       "   Message('note_on', channel=0, note=59, velocity=0, time=71),\n",
       "   Message('note_on', channel=0, note=55, velocity=77, time=298),\n",
       "   Message('note_on', channel=0, note=57, velocity=0, time=45),\n",
       "   Message('control_change', channel=0, control=64, value=127, time=261),\n",
       "   Message('note_on', channel=0, note=65, velocity=76, time=788),\n",
       "   Message('control_change', channel=0, control=64, value=0, time=50),\n",
       "   Message('note_on', channel=0, note=55, velocity=0, time=27),\n",
       "   Message('note_on', channel=0, note=64, velocity=89, time=289),\n",
       "   Message('note_on', channel=0, note=65, velocity=0, time=71),\n",
       "   Message('note_on', channel=0, note=62, velocity=80, time=288),\n",
       "   Message('note_on', channel=0, note=64, velocity=0, time=50),\n",
       "   Message('note_on', channel=0, note=72, velocity=67, time=300),\n",
       "   Message('note_on', channel=0, note=60, velocity=77, time=1),\n",
       "   Message('note_on', channel=0, note=62, velocity=0, time=102),\n",
       "   Message('control_change', channel=0, control=64, value=127, time=46),\n",
       "   Message('note_on', channel=0, note=72, velocity=0, time=277),\n",
       "   Message('control_change', channel=0, control=64, value=0, time=522),\n",
       "   Message('note_on', channel=0, note=60, velocity=0, time=5),\n",
       "   Message('note_on', channel=0, note=60, velocity=75, time=143),\n",
       "   Message('note_on', channel=0, note=72, velocity=71, time=0),\n",
       "   Message('control_change', channel=0, control=64, value=127, time=90),\n",
       "   Message('note_on', channel=0, note=72, velocity=0, time=253),\n",
       "   Message('note_on', channel=0, note=59, velocity=79, time=12),\n",
       "   Message('note_on', channel=0, note=71, velocity=69, time=2),\n",
       "   Message('control_change', channel=0, control=64, value=0, time=23),\n",
       "   Message('note_on', channel=0, note=60, velocity=0, time=37),\n",
       "   Message('note_on', channel=0, note=57, velocity=76, time=293),\n",
       "   Message('note_on', channel=0, note=59, velocity=0, time=59),\n",
       "   Message('note_on', channel=0, note=71, velocity=0, time=20),\n",
       "   Message('note_on', channel=0, note=55, velocity=72, time=301),\n",
       "   Message('note_on', channel=0, note=57, velocity=0, time=42),\n",
       "   Message('control_change', channel=0, control=64, value=127, time=248),\n",
       "   Message('note_on', channel=0, note=65, velocity=84, time=758),\n",
       "   Message('control_change', channel=0, control=64, value=0, time=31),\n",
       "   Message('note_on', channel=0, note=55, velocity=0, time=20),\n",
       "   Message('control_change', channel=0, control=64, value=127, time=121),\n",
       "   Message('note_on', channel=0, note=64, velocity=86, time=208),\n",
       "   Message('control_change', channel=0, control=64, value=0, time=37),\n",
       "   Message('note_on', channel=0, note=65, velocity=0, time=35),\n",
       "   Message('note_on', channel=0, note=62, velocity=75, time=302),\n",
       "   Message('note_on', channel=0, note=64, velocity=0, time=64),\n",
       "   Message('note_on', channel=0, note=72, velocity=66, time=290),\n",
       "   Message('note_on', channel=0, note=60, velocity=72, time=2),\n",
       "   Message('note_on', channel=0, note=62, velocity=0, time=86),\n",
       "   Message('control_change', channel=0, control=64, value=127, time=81),\n",
       "   Message('note_on', channel=0, note=72, velocity=0, time=400),\n",
       "   Message('note_on', channel=0, note=60, velocity=0, time=592),\n",
       "   Message('control_change', channel=0, control=64, value=0, time=7),\n",
       "   Message('note_on', channel=0, note=72, velocity=78, time=5979),\n",
       "   Message('note_on', channel=0, note=60, velocity=82, time=1),\n",
       "   Message('control_change', channel=0, control=64, value=127, time=102),\n",
       "   Message('note_on', channel=0, note=72, velocity=0, time=108),\n",
       "   Message('note_on', channel=0, note=74, velocity=73, time=118),\n",
       "   Message('note_on', channel=0, note=62, velocity=80, time=0),\n",
       "   Message('control_change', channel=0, control=64, value=0, time=32),\n",
       "   Message('note_on', channel=0, note=60, velocity=0, time=4),\n",
       "   Message('note_on', channel=0, note=74, velocity=0, time=115),\n",
       "   Message('note_on', channel=0, note=64, velocity=90, time=193),\n",
       "   Message('note_on', channel=0, note=76, velocity=78, time=1),\n",
       "   Message('note_on', channel=0, note=62, velocity=0, time=99),\n",
       "   Message('note_on', channel=0, note=76, velocity=0, time=75),\n",
       "   Message('note_on', channel=0, note=65, velocity=83, time=166),\n",
       "   Message('note_on', channel=0, note=64, velocity=0, time=59),\n",
       "   Message('note_on', channel=0, note=79, velocity=81, time=286),\n",
       "   Message('note_on', channel=0, note=67, velocity=92, time=1),\n",
       "   Message('note_on', channel=0, note=65, velocity=0, time=38),\n",
       "   Message('note_on', channel=0, note=79, velocity=0, time=19),\n",
       "   Message('note_on', channel=0, note=65, velocity=80, time=290),\n",
       "   Message('note_on', channel=0, note=77, velocity=69, time=1),\n",
       "   Message('control_change', channel=0, control=64, value=127, time=8),\n",
       "   Message('control_change', channel=0, control=64, value=0, time=35),\n",
       "   Message('note_on', channel=0, note=77, velocity=0, time=11),\n",
       "   Message('note_on', channel=0, note=67, velocity=0, time=26),\n",
       "   Message('note_on', channel=0, note=64, velocity=85, time=262),\n",
       "   Message('note_on', channel=0, note=76, velocity=71, time=2),\n",
       "   Message('note_on', channel=0, note=65, velocity=0, time=84),\n",
       "   Message('note_on', channel=0, note=62, velocity=74, time=270),\n",
       "   Message('note_on', channel=0, note=74, velocity=66, time=0),\n",
       "   Message('note_on', channel=0, note=76, velocity=0, time=17),\n",
       "   Message('note_on', channel=0, note=64, velocity=0, time=39),\n",
       "   Message('note_on', channel=0, note=74, velocity=0, time=253),\n",
       "   Message('note_on', channel=0, note=72, velocity=73, time=24),\n",
       "   Message('note_on', channel=0, note=60, velocity=79, time=2),\n",
       "   Message('note_on', channel=0, note=62, velocity=0, time=98),\n",
       "   Message('control_change', channel=0, control=64, value=127, time=229),\n",
       "   Message('note_on', channel=0, note=55, velocity=74, time=383),\n",
       "   Message('control_change', channel=0, control=64, value=0, time=59),\n",
       "   Message('note_on', channel=0, note=60, velocity=0, time=7),\n",
       "   Message('note_on', channel=0, note=72, velocity=0, time=27),\n",
       "   Message('control_change', channel=0, control=64, value=127, time=138),\n",
       "   Message('note_on', channel=0, note=72, velocity=74, time=436),\n",
       "   Message('note_on', channel=0, note=60, velocity=79, time=1),\n",
       "   Message('note_on', channel=0, note=55, velocity=0, time=41),\n",
       "   Message('control_change', channel=0, control=64, value=0, time=1),\n",
       "   Message('control_change', channel=0, control=64, value=127, time=128),\n",
       "   Message('note_on', channel=0, note=55, velocity=69, time=539),\n",
       "   Message('control_change', channel=0, control=64, value=0, time=57),\n",
       "   Message('note_on', channel=0, note=60, velocity=0, time=7),\n",
       "   Message('note_on', channel=0, note=72, velocity=0, time=4),\n",
       "   Message('control_change', channel=0, control=64, value=127, time=153),\n",
       "   Message('note_on', channel=0, note=72, velocity=71, time=434),\n",
       "   Message('note_on', channel=0, note=60, velocity=74, time=1),\n",
       "   Message('control_change', channel=0, control=64, value=0, time=33),\n",
       "   Message('note_on', channel=0, note=55, velocity=0, time=35),\n",
       "   Message('control_change', channel=0, control=64, value=127, time=96),\n",
       "   Message('note_on', channel=0, note=62, velocity=77, time=151),\n",
       "   Message('control_change', channel=0, control=64, value=0, time=30),\n",
       "   Message('note_on', channel=0, note=72, velocity=0, time=27),\n",
       "   Message('note_on', channel=0, note=60, velocity=0, time=10),\n",
       "   Message('control_change', channel=0, control=64, value=127, time=74),\n",
       "   Message('control_change', channel=0, control=64, value=0, time=161),\n",
       "   Message('note_on', channel=0, note=64, velocity=87, time=22),\n",
       "   Message('note_on', channel=0, note=76, velocity=72, time=3),\n",
       "   Message('note_on', channel=0, note=62, velocity=0, time=79),\n",
       "   Message('note_on', channel=0, note=76, velocity=0, time=219),\n",
       "   Message('note_on', channel=0, note=65, velocity=79, time=43),\n",
       "   Message('note_on', channel=0, note=64, velocity=0, time=69),\n",
       "   Message('note_on', channel=0, note=79, velocity=78, time=269),\n",
       "   Message('note_on', channel=0, note=67, velocity=90, time=0),\n",
       "   Message('note_on', channel=0, note=65, velocity=0, time=72),\n",
       "   Message('note_on', channel=0, note=79, velocity=0, time=161),\n",
       "   Message('note_on', channel=0, note=65, velocity=81, time=89),\n",
       "   Message('note_on', channel=0, note=77, velocity=73, time=0),\n",
       "   Message('note_on', channel=0, note=77, velocity=0, time=57),\n",
       "   Message('note_on', channel=0, note=67, velocity=0, time=22),\n",
       "   Message('note_on', channel=0, note=64, velocity=85, time=252),\n",
       "   Message('note_on', channel=0, note=76, velocity=71, time=2),\n",
       "   Message('note_on', channel=0, note=65, velocity=0, time=81),\n",
       "   Message('note_on', channel=0, note=76, velocity=0, time=235),\n",
       "   Message('note_on', channel=0, note=74, velocity=67, time=28),\n",
       "   Message('note_on', channel=0, note=62, velocity=74, time=0),\n",
       "   Message('note_on', channel=0, note=64, velocity=0, time=80),\n",
       "   Message('note_on', channel=0, note=74, velocity=0, time=45),\n",
       "   Message('note_on', channel=0, note=72, velocity=69, time=217),\n",
       "   Message('note_on', channel=0, note=60, velocity=74, time=2),\n",
       "   Message('note_on', channel=0, note=62, velocity=0, time=46),\n",
       "   Message('control_change', channel=0, control=64, value=127, time=127),\n",
       "   Message('note_on', channel=0, note=72, velocity=0, time=369),\n",
       "   Message('note_on', channel=0, note=59, velocity=79, time=163),\n",
       "   Message('note_on', channel=0, note=71, velocity=68, time=1),\n",
       "   Message('control_change', channel=0, control=64, value=0, time=41),\n",
       "   Message('note_on', channel=0, note=60, velocity=0, time=35),\n",
       "   Message('control_change', channel=0, control=64, value=127, time=359),\n",
       "   Message('control_change', channel=0, control=64, value=0, time=169),\n",
       "   Message('note_on', channel=0, note=72, velocity=73, time=58),\n",
       "   Message('note_on', channel=0, note=60, velocity=74, time=1),\n",
       "   Message('note_on', channel=0, note=71, velocity=0, time=25),\n",
       "   Message('note_on', channel=0, note=59, velocity=0, time=77),\n",
       "   Message('control_change', channel=0, control=64, value=127, time=154),\n",
       "   Message('control_change', channel=0, control=64, value=0, time=629),\n",
       "   Message('control_change', channel=0, control=64, value=127, time=185),\n",
       "   Message('note_on', channel=0, note=72, velocity=0, time=122),\n",
       "   Message('control_change', channel=0, control=64, value=0, time=8),\n",
       "   Message('note_on', channel=0, note=60, velocity=0, time=1),\n",
       "   Message('note_on', channel=0, note=72, velocity=72, time=2317),\n",
       "   Message('note_on', channel=0, note=60, velocity=78, time=3),\n",
       "   Message('control_change', channel=0, control=64, value=127, time=83),\n",
       "   Message('note_on', channel=0, note=72, velocity=0, time=223),\n",
       "   Message('note_on', channel=0, note=59, velocity=80, time=24),\n",
       "   Message('note_on', channel=0, note=71, velocity=70, time=1),\n",
       "   Message('control_change', channel=0, control=64, value=0, time=45),\n",
       "   Message('note_on', channel=0, note=60, velocity=0, time=37),\n",
       "   Message('note_on', channel=0, note=57, velocity=75, time=252),\n",
       "   Message('note_on', channel=0, note=71, velocity=0, time=63),\n",
       "   Message('note_on', channel=0, note=59, velocity=0, time=7),\n",
       "   Message('note_on', channel=0, note=55, velocity=71, time=266),\n",
       "   Message('note_on', channel=0, note=57, velocity=0, time=45),\n",
       "   Message('note_on', channel=0, note=53, velocity=77, time=281),\n",
       "   Message('note_on', channel=0, note=55, velocity=0, time=42),\n",
       "   Message('note_on', channel=0, note=55, velocity=73, time=283),\n",
       "   Message('note_on', channel=0, note=53, velocity=0, time=46),\n",
       "   Message('note_on', channel=0, note=57, velocity=72, time=302),\n",
       "   Message('note_on', channel=0, note=55, velocity=0, time=65),\n",
       "   Message('note_on', channel=0, note=59, velocity=80, time=257),\n",
       "   Message('note_on', channel=0, note=71, velocity=71, time=0),\n",
       "   Message('note_on', channel=0, note=57, velocity=0, time=45),\n",
       "   Message('note_on', channel=0, note=72, velocity=72, time=280),\n",
       "   Message('note_on', channel=0, note=60, velocity=79, time=0),\n",
       "   Message('note_on', channel=0, note=59, velocity=0, time=29),\n",
       "   Message('note_on', channel=0, note=71, velocity=0, time=11),\n",
       "   Message('control_change', channel=0, control=64, value=127, time=61),\n",
       "   Message('note_on', channel=0, note=72, velocity=0, time=399),\n",
       "   Message('control_change', channel=0, control=64, value=0, time=148),\n",
       "   Message('note_on', channel=0, note=64, velocity=86, time=24),\n",
       "   Message('note_on', channel=0, note=60, velocity=0, time=56),\n",
       "   Message('note_on', channel=0, note=64, velocity=0, time=392),\n",
       "   Message('note_on', channel=0, note=64, velocity=87, time=209),\n",
       "   Message('note_on', channel=0, note=76, velocity=74, time=3),\n",
       "   Message('control_change', channel=0, control=64, value=127, time=343),\n",
       "   Message('note_on', channel=0, note=62, velocity=69, time=310),\n",
       "   Message('control_change', channel=0, control=64, value=0, time=45),\n",
       "   Message('note_on', channel=0, note=64, velocity=0, time=10),\n",
       "   Message('note_on', channel=0, note=76, velocity=0, time=4),\n",
       "   Message('control_change', channel=0, control=64, value=127, time=131),\n",
       "   Message('note_on', channel=0, note=72, velocity=72, time=434),\n",
       "   Message('note_on', channel=0, note=60, velocity=76, time=0),\n",
       "   Message('control_change', channel=0, control=64, value=0, time=14),\n",
       "   Message('note_on', channel=0, note=62, velocity=0, time=17),\n",
       "   Message('control_change', channel=0, control=64, value=127, time=80),\n",
       "   Message('note_on', channel=0, note=59, velocity=78, time=230),\n",
       "   Message('note_on', channel=0, note=71, velocity=68, time=2),\n",
       "   Message('note_on', channel=0, note=72, velocity=0, time=21),\n",
       "   Message('control_change', channel=0, control=64, value=0, time=19),\n",
       "   Message('note_on', channel=0, note=60, velocity=0, time=2),\n",
       "   Message('note_on', channel=0, note=57, velocity=70, time=268),\n",
       "   Message('note_on', channel=0, note=59, velocity=0, time=45),\n",
       "   Message('note_on', channel=0, note=71, velocity=0, time=35),\n",
       "   Message('note_on', channel=0, note=55, velocity=69, time=249),\n",
       "   Message('note_on', channel=0, note=57, velocity=0, time=39),\n",
       "   Message('control_change', channel=0, control=64, value=127, time=58),\n",
       "   Message('control_change', channel=0, control=64, value=0, time=107),\n",
       "   Message('note_on', channel=0, note=53, velocity=79, time=137),\n",
       "   Message('note_on', channel=0, note=55, velocity=0, time=42),\n",
       "   Message('control_change', channel=0, control=64, value=127, time=59),\n",
       "   Message('note_on', channel=0, note=55, velocity=75, time=218),\n",
       "   Message('control_change', channel=0, control=64, value=0, time=31),\n",
       "   Message('note_on', channel=0, note=53, velocity=0, time=9),\n",
       "   Message('note_on', channel=0, note=57, velocity=73, time=286),\n",
       "   Message('note_on', channel=0, note=55, velocity=0, time=65),\n",
       "   Message('control_change', channel=0, control=64, value=127, time=113),\n",
       "   Message('note_on', channel=0, note=59, velocity=79, time=149),\n",
       "   Message('note_on', channel=0, note=57, velocity=0, time=44),\n",
       "   Message('control_change', channel=0, control=64, value=0, time=2),\n",
       "   Message('note_on', channel=0, note=72, velocity=70, time=293),\n",
       "   Message('note_on', channel=0, note=60, velocity=76, time=1),\n",
       "   Message('note_on', channel=0, note=59, velocity=0, time=34),\n",
       "   Message('control_change', channel=0, control=64, value=127, time=91),\n",
       "   Message('note_on', channel=0, note=72, velocity=0, time=400),\n",
       "   Message('note_on', channel=0, note=64, velocity=83, time=144),\n",
       "   Message('control_change', channel=0, control=64, value=0, time=17),\n",
       "   Message('note_on', channel=0, note=60, velocity=0, time=63),\n",
       "   Message('control_change', channel=0, control=64, value=127, time=106),\n",
       "   Message('note_on', channel=0, note=60, velocity=75, time=463),\n",
       "   Message('note_on', channel=0, note=72, velocity=67, time=0),\n",
       "   Message('control_change', channel=0, control=64, value=0, time=83),\n",
       "   Message('note_on', channel=0, note=64, velocity=0, time=11),\n",
       "   Message('control_change', channel=0, control=64, value=127, time=434),\n",
       "   Message('control_change', channel=0, control=64, value=0, time=138),\n",
       "   Message('note_on', channel=0, note=72, velocity=0, time=399),\n",
       "   Message('note_on', channel=0, note=60, velocity=0, time=214),\n",
       "   Message('note_on', channel=0, note=72, velocity=72, time=5628),\n",
       "   Message('note_on', channel=0, note=60, velocity=78, time=3),\n",
       "   Message('note_on', channel=0, note=72, velocity=0, time=8),\n",
       "   Message('control_change', channel=0, control=64, value=127, time=99),\n",
       "   Message('note_on', channel=0, note=64, velocity=87, time=219),\n",
       "   Message('note_on', channel=0, note=76, velocity=71, time=2),\n",
       "   Message('note_on', channel=0, note=76, velocity=0, time=10),\n",
       "   Message('control_change', channel=0, control=64, value=0, time=36),\n",
       "   Message('note_on', channel=0, note=60, velocity=0, time=4),\n",
       "   Message('note_on', channel=0, note=79, velocity=76, time=266),\n",
       "   Message('note_on', channel=0, note=67, velocity=87, time=2),\n",
       "   Message('note_on', channel=0, note=79, velocity=0, time=37),\n",
       "   Message('note_on', channel=0, note=64, velocity=0, time=3),\n",
       "   Message('note_on', channel=0, note=65, velocity=78, time=287),\n",
       "   Message('note_on', channel=0, note=67, velocity=0, time=76),\n",
       "   Message('control_change', channel=0, control=64, value=127, time=210),\n",
       "   Message('note_on', channel=0, note=64, velocity=85, time=57),\n",
       "   Message('note_on', channel=0, note=76, velocity=72, time=1),\n",
       "   Message('control_change', channel=0, control=64, value=0, time=66),\n",
       "   Message('note_on', channel=0, note=65, velocity=0, time=10),\n",
       "   Message('note_on', channel=0, note=76, velocity=0, time=174),\n",
       "   Message('note_on', channel=0, note=62, velocity=74, time=92),\n",
       "   Message('note_on', channel=0, note=64, velocity=0, time=71),\n",
       "   Message('note_on', channel=0, note=60, velocity=77, time=270),\n",
       "   Message('note_on', channel=0, note=72, velocity=69, time=0),\n",
       "   Message('note_on', channel=0, note=62, velocity=0, time=104),\n",
       "   Message('control_change', channel=0, control=64, value=127, time=131),\n",
       "   Message('note_on', channel=0, note=57, velocity=70, time=407),\n",
       "   Message('note_on', channel=0, note=72, velocity=0, time=46),\n",
       "   Message('control_change', channel=0, control=64, value=0, time=4),\n",
       "   Message('note_on', channel=0, note=60, velocity=0, time=6),\n",
       "   Message('control_change', channel=0, control=64, value=127, time=105),\n",
       "   Message('note_on', channel=0, note=55, velocity=71, time=203),\n",
       "   Message('control_change', channel=0, control=64, value=0, time=63),\n",
       "   Message('note_on', channel=0, note=57, velocity=0, time=0),\n",
       "   Message('control_change', channel=0, control=64, value=127, time=256),\n",
       "   Message('note_on', channel=0, note=55, velocity=0, time=699),\n",
       "   Message('note_on', channel=0, note=55, velocity=55, time=6),\n",
       "   Message('note_on', channel=0, note=62, velocity=84, time=2),\n",
       "   Message('control_change', channel=0, control=64, value=0, time=43),\n",
       "   Message('note_on', channel=0, note=55, velocity=0, time=6),\n",
       "   Message('control_change', channel=0, control=64, value=127, time=174),\n",
       "   Message('note_on', channel=0, note=59, velocity=85, time=470),\n",
       "   Message('control_change', channel=0, control=64, value=0, time=37),\n",
       "   Message('note_on', channel=0, note=62, velocity=0, time=43),\n",
       "   Message('note_on', channel=0, note=52, velocity=22, time=215),\n",
       "   Message('note_on', channel=0, note=52, velocity=0, time=10),\n",
       "   Message('note_on', channel=0, note=55, velocity=77, time=49),\n",
       "   Message('note_on', channel=0, note=59, velocity=0, time=66),\n",
       "   Message('control_change', channel=0, control=64, value=127, time=192),\n",
       "   Message('note_on', channel=0, note=64, velocity=89, time=730),\n",
       "   Message('control_change', channel=0, control=64, value=0, time=26),\n",
       "   Message('note_on', channel=0, note=55, velocity=0, time=32),\n",
       "   Message('control_change', channel=0, control=64, value=127, time=303),\n",
       "   Message('note_on', channel=0, note=60, velocity=78, time=304),\n",
       "   Message('control_change', channel=0, control=64, value=0, time=31),\n",
       "   Message('note_on', channel=0, note=64, velocity=0, time=35),\n",
       "   Message('control_change', channel=0, control=64, value=127, time=60),\n",
       "   Message('note_on', channel=0, note=55, velocity=75, time=243),\n",
       "   Message('control_change', channel=0, control=64, value=0, time=34),\n",
       "   Message('note_on', channel=0, note=60, velocity=0, time=14),\n",
       "   Message('control_change', channel=0, control=64, value=127, time=216),\n",
       "   Message('control_change', channel=0, control=64, value=0, time=749),\n",
       "   Message('note_on', channel=0, note=72, velocity=72, time=9),\n",
       "   Message('note_on', channel=0, note=60, velocity=74, time=1),\n",
       "   Message('note_on', channel=0, note=55, velocity=0, time=41),\n",
       "   Message('control_change', channel=0, control=64, value=127, time=68),\n",
       "   Message('note_on', channel=0, note=64, velocity=88, time=223),\n",
       "   Message('note_on', channel=0, note=76, velocity=72, time=1),\n",
       "   Message('note_on', channel=0, note=72, velocity=0, time=14),\n",
       "   Message('control_change', channel=0, control=64, value=0, time=27),\n",
       "   Message('note_on', channel=0, note=60, velocity=0, time=9),\n",
       "   Message('note_on', channel=0, note=76, velocity=0, time=210),\n",
       "   Message('note_on', channel=0, note=79, velocity=75, time=74),\n",
       "   Message('note_on', channel=0, note=67, velocity=83, time=1),\n",
       "   Message('note_on', channel=0, note=64, velocity=0, time=36),\n",
       "   Message('note_on', channel=0, note=79, velocity=0, time=19),\n",
       "   Message('note_on', channel=0, note=65, velocity=74, time=266),\n",
       "   Message('note_on', channel=0, note=67, velocity=0, time=69),\n",
       "   Message('control_change', channel=0, control=64, value=127, time=180),\n",
       "   Message('control_change', channel=0, control=64, value=0, time=84),\n",
       "   Message('note_on', channel=0, note=64, velocity=81, time=12),\n",
       "   Message('note_on', channel=0, note=76, velocity=67, time=2),\n",
       "   Message('note_on', channel=0, note=65, velocity=0, time=83),\n",
       "   Message('note_on', channel=0, note=74, velocity=65, time=257),\n",
       "   Message('note_on', channel=0, note=62, velocity=71, time=2),\n",
       "   Message('note_on', channel=0, note=76, velocity=0, time=51),\n",
       "   Message('note_on', channel=0, note=64, velocity=0, time=13),\n",
       "   Message('note_on', channel=0, note=74, velocity=0, time=102),\n",
       "   Message('note_on', channel=0, note=72, velocity=67, time=177),\n",
       "   Message('note_on', channel=0, note=60, velocity=74, time=2),\n",
       "   Message('note_on', channel=0, note=62, velocity=0, time=55),\n",
       "   Message('control_change', channel=0, control=64, value=127, time=120),\n",
       "   Message('note_on', channel=0, note=57, velocity=73, time=476),\n",
       "   Message('control_change', channel=0, control=64, value=0, time=45),\n",
       "   Message('note_on', channel=0, note=72, velocity=0, time=16),\n",
       "   Message('note_on', channel=0, note=60, velocity=0, time=2),\n",
       "   Message('control_change', channel=0, control=64, value=127, time=75),\n",
       "   Message('note_on', channel=0, note=55, velocity=72, time=223),\n",
       "   Message('note_on', channel=0, note=57, velocity=0, time=60),\n",
       "   Message('control_change', channel=0, control=64, value=0, time=5),\n",
       "   Message('control_change', channel=0, control=64, value=127, time=150),\n",
       "   Message('note_on', channel=0, note=55, velocity=0, time=791),\n",
       "   Message('control_change', channel=0, control=64, value=0, time=10),\n",
       "   Message('note_on', channel=0, note=55, velocity=53, time=1),\n",
       "   Message('note_on', channel=0, note=62, velocity=76, time=1),\n",
       "   Message('note_on', channel=0, note=55, velocity=0, time=45),\n",
       "   Message('control_change', channel=0, control=64, value=127, time=127),\n",
       "   Message('note_on', channel=0, note=59, velocity=79, time=475),\n",
       "   Message('control_change', channel=0, control=64, value=0, time=48),\n",
       "   Message('note_on', channel=0, note=62, velocity=0, time=6),\n",
       "   Message('note_on', channel=0, note=55, velocity=71, time=291),\n",
       "   Message('note_on', channel=0, note=59, velocity=0, time=63),\n",
       "   Message('control_change', channel=0, control=64, value=127, time=185),\n",
       "   Message('control_change', channel=0, control=64, value=0, time=370),\n",
       "   Message('note_on', channel=0, note=55, velocity=0, time=14),\n",
       "   Message('note_on', channel=0, note=55, velocity=53, time=10),\n",
       "   Message('note_on', channel=0, note=62, velocity=75, time=1),\n",
       "   Message('note_on', channel=0, note=55, velocity=0, time=57),\n",
       "   Message('note_on', channel=0, note=72, velocity=68, time=284),\n",
       "   Message('note_on', channel=0, note=60, velocity=74, time=1),\n",
       "   Message('note_on', channel=0, note=62, velocity=0, time=41),\n",
       "   Message('control_change', channel=0, control=64, value=127, time=136),\n",
       "   Message('note_on', channel=0, note=72, velocity=0, time=176),\n",
       "   Message('note_on', channel=0, note=60, velocity=0, time=590),\n",
       "   Message('control_change', channel=0, control=64, value=0, time=2),\n",
       "   Message('note_on', channel=0, note=72, velocity=87, time=187),\n",
       "   Message('note_on', channel=0, note=60, velocity=91, time=0),\n",
       "   Message('control_change', channel=0, control=64, value=127, time=66),\n",
       "   Message('control_change', channel=0, control=64, value=0, time=54),\n",
       "   Message('note_on', channel=0, note=60, velocity=0, time=12),\n",
       "   Message('note_on', channel=0, note=72, velocity=0, time=11),\n",
       "   Message('note_on', channel=0, note=60, velocity=81, time=4850),\n",
       "   Message('control_change', channel=0, control=64, value=127, time=65),\n",
       "   Message('note_on', channel=0, note=59, velocity=82, time=266),\n",
       "   Message('note_on', channel=0, note=60, velocity=0, time=45),\n",
       "   Message('control_change', channel=0, control=64, value=0, time=8),\n",
       "   Message('note_on', channel=0, note=57, velocity=80, time=263),\n",
       "   Message('note_on', channel=0, note=59, velocity=0, time=75),\n",
       "   Message('note_on', channel=0, note=55, velocity=80, time=237),\n",
       "   Message('note_on', channel=0, note=57, velocity=0, time=55),\n",
       "   Message('note_on', channel=0, note=53, velocity=83, time=285),\n",
       "   Message('note_on', channel=0, note=55, velocity=0, time=41),\n",
       "   Message('control_change', channel=0, control=64, value=127, time=46),\n",
       "   Message('control_change', channel=0, control=64, value=0, time=246),\n",
       "   Message('note_on', channel=0, note=53, velocity=0, time=9),\n",
       "   Message('note_on', channel=0, note=59, velocity=86, time=879),\n",
       "   Message('note_on', channel=0, note=71, velocity=80, time=1),\n",
       "   Message('control_change', channel=0, control=64, value=127, time=125),\n",
       "   Message('control_change', channel=0, control=64, value=0, time=157),\n",
       "   Message('control_change', channel=0, control=64, value=127, time=4),\n",
       "   Message('note_on', channel=0, note=57, velocity=83, time=32),\n",
       "   Message('control_change', channel=0, control=64, value=0, time=18),\n",
       "   Message('note_on', channel=0, note=59, velocity=0, time=24),\n",
       "   Message('note_on', channel=0, note=71, velocity=0, time=10),\n",
       "   Message('note_on', channel=0, note=55, velocity=83, time=265),\n",
       "   Message('note_on', channel=0, note=57, velocity=0, time=44),\n",
       "   Message('note_on', channel=0, note=53, velocity=78, time=263),\n",
       "   Message('note_on', channel=0, note=55, velocity=0, time=56),\n",
       "   Message('note_on', channel=0, note=52, velocity=78, time=271),\n",
       "   Message('note_on', channel=0, note=53, velocity=0, time=31),\n",
       "   Message('note_on', channel=0, note=52, velocity=0, time=284),\n",
       "   Message('note_on', channel=0, note=57, velocity=72, time=880),\n",
       "   Message('note_on', channel=0, note=55, velocity=83, time=318),\n",
       "   Message('note_on', channel=0, note=57, velocity=0, time=44),\n",
       "   Message('note_on', channel=0, note=53, velocity=81, time=252),\n",
       "   Message('note_on', channel=0, note=55, velocity=0, time=40),\n",
       "   Message('control_change', channel=0, control=64, value=127, time=79),\n",
       "   Message('control_change', channel=0, control=64, value=0, time=115),\n",
       "   Message('note_on', channel=0, note=52, velocity=80, time=84),\n",
       "   Message('note_on', channel=0, note=53, velocity=0, time=15),\n",
       "   Message('note_on', channel=0, note=50, velocity=73, time=310),\n",
       "   Message('note_on', channel=0, note=62, velocity=64, time=1),\n",
       "   Message('note_on', channel=0, note=52, velocity=0, time=1),\n",
       "   Message('note_on', channel=0, note=62, velocity=0, time=265),\n",
       "   Message('note_on', channel=0, note=50, velocity=0, time=23),\n",
       "   Message('note_on', channel=0, note=55, velocity=77, time=895),\n",
       "   Message('note_on', channel=0, note=53, velocity=86, time=312),\n",
       "   Message('note_on', channel=0, note=55, velocity=0, time=42),\n",
       "   Message('control_change', channel=0, control=64, value=127, time=79),\n",
       "   Message('note_on', channel=0, note=52, velocity=87, time=179),\n",
       "   Message('note_on', channel=0, note=53, velocity=0, time=27),\n",
       "   Message('control_change', channel=0, control=64, value=0, time=5),\n",
       "   Message('note_on', channel=0, note=50, velocity=76, time=279),\n",
       "   Message('note_on', channel=0, note=52, velocity=0, time=19),\n",
       "   Message('note_on', channel=0, note=48, velocity=74, time=300),\n",
       "   Message('note_on', channel=0, note=50, velocity=0, time=32),\n",
       "   Message('note_on', channel=0, note=48, velocity=0, time=315),\n",
       "   Message('note_on', channel=0, note=72, velocity=81, time=5378),\n",
       "   Message('note_on', channel=0, note=60, velocity=85, time=2),\n",
       "   Message('note_on', channel=0, note=72, velocity=0, time=92),\n",
       "   Message('control_change', channel=0, control=64, value=127, time=100),\n",
       "   Message('note_on', channel=0, note=59, velocity=86, time=134),\n",
       "   Message('note_on', channel=0, note=71, velocity=75, time=0),\n",
       "   Message('note_on', channel=0, note=60, velocity=0, time=31),\n",
       "   Message('control_change', channel=0, control=64, value=0, time=9),\n",
       "   Message('note_on', channel=0, note=71, velocity=0, time=118),\n",
       "   Message('note_on', channel=0, note=57, velocity=78, time=169),\n",
       "   Message('note_on', channel=0, note=59, velocity=0, time=65),\n",
       "   Message('note_on', channel=0, note=55, velocity=76, time=241),\n",
       "   Message('note_on', channel=0, note=57, velocity=0, time=52),\n",
       "   Message('control_change', channel=0, control=64, value=127, time=72),\n",
       "   Message('note_on', channel=0, note=53, velocity=82, time=195),\n",
       "   Message('control_change', channel=0, control=64, value=0, time=46),\n",
       "   Message('note_on', channel=0, note=55, velocity=0, time=26),\n",
       "   Message('control_change', channel=0, control=64, value=127, time=163),\n",
       "   Message('note_on', channel=0, note=62, velocity=63, time=77),\n",
       "   Message('note_on', channel=0, note=64, velocity=73, time=327),\n",
       "   Message('note_on', channel=0, note=76, velocity=60, time=1),\n",
       "   Message('control_change', channel=0, control=64, value=0, time=17),\n",
       "   Message('note_on', channel=0, note=62, velocity=0, time=50),\n",
       "   Message('control_change', channel=0, control=64, value=127, time=20),\n",
       "   Message('note_on', channel=0, note=76, velocity=0, time=138),\n",
       "   Message('note_on', channel=0, note=65, velocity=67, time=95),\n",
       "   Message('note_on', channel=0, note=77, velocity=58, time=6),\n",
       "   Message('note_on', channel=0, note=77, velocity=0, time=6),\n",
       "   Message('control_change', channel=0, control=64, value=0, time=29),\n",
       "   Message('note_on', channel=0, note=64, velocity=0, time=6),\n",
       "   Message('note_on', channel=0, note=59, velocity=84, time=251),\n",
       "   Message('note_on', channel=0, note=71, velocity=73, time=1),\n",
       "   Message('note_on', channel=0, note=53, velocity=0, time=17),\n",
       "   Message('note_on', channel=0, note=65, velocity=0, time=76),\n",
       "   Message('note_on', channel=0, note=57, velocity=81, time=225),\n",
       "   Message('note_on', channel=0, note=71, velocity=0, time=33),\n",
       "   Message('note_on', channel=0, note=59, velocity=0, time=15),\n",
       "   Message('note_on', channel=0, note=55, velocity=78, time=279),\n",
       "   Message('note_on', channel=0, note=57, velocity=0, time=45),\n",
       "   Message('note_on', channel=0, note=53, velocity=76, time=254),\n",
       "   Message('note_on', channel=0, note=55, velocity=0, time=41),\n",
       "   Message('note_on', channel=0, note=52, velocity=75, time=278),\n",
       "   Message('note_on', channel=0, note=53, velocity=0, time=37),\n",
       "   Message('control_change', channel=0, control=64, value=127, time=111),\n",
       "   Message('control_change', channel=0, control=64, value=0, time=79),\n",
       "   Message('control_change', channel=0, control=64, value=127, time=5),\n",
       "   Message('note_on', channel=0, note=60, velocity=67, time=74),\n",
       "   Message('note_on', channel=0, note=72, velocity=62, time=1),\n",
       "   Message('note_on', channel=0, note=72, velocity=0, time=10),\n",
       "   Message('control_change', channel=0, control=64, value=0, time=245),\n",
       "   Message('note_on', channel=0, note=52, velocity=0, time=54),\n",
       "   Message('note_on', channel=0, note=52, velocity=46, time=10),\n",
       "   Message('note_on', channel=0, note=62, velocity=61, time=1),\n",
       "   Message('note_on', channel=0, note=60, velocity=0, time=33),\n",
       "   Message('note_on', channel=0, note=64, velocity=62, time=297),\n",
       "   Message('note_on', channel=0, note=76, velocity=52, time=8),\n",
       "   Message('note_on', channel=0, note=76, velocity=0, time=4),\n",
       "   Message('note_on', channel=0, note=62, velocity=0, time=73),\n",
       "   Message('note_on', channel=0, note=57, velocity=72, time=188),\n",
       "   Message('note_on', channel=0, note=52, velocity=0, time=40),\n",
       "   Message('note_on', channel=0, note=64, velocity=0, time=30),\n",
       "   Message('note_on', channel=0, note=55, velocity=83, time=225),\n",
       "   Message('note_on', channel=0, note=57, velocity=0, time=38),\n",
       "   Message('note_on', channel=0, note=53, velocity=84, time=277),\n",
       "   Message('note_on', channel=0, note=55, velocity=0, time=48),\n",
       "   Message('note_on', channel=0, note=52, velocity=80, time=246),\n",
       "   Message('note_on', channel=0, note=64, velocity=65, time=1),\n",
       "   Message('note_on', channel=0, note=64, velocity=0, time=9),\n",
       "   Message('note_on', channel=0, note=53, velocity=0, time=5),\n",
       "   Message('note_on', channel=0, note=50, velocity=77, time=297),\n",
       "   Message('note_on', channel=0, note=62, velocity=67, time=1),\n",
       "   Message('note_on', channel=0, note=52, velocity=0, time=26),\n",
       "   Message('note_on', channel=0, note=65, velocity=79, time=284),\n",
       "   Message('note_on', channel=0, note=64, velocity=75, time=321),\n",
       "   Message('note_on', channel=0, note=65, velocity=0, time=55),\n",
       "   Message('note_on', channel=0, note=62, velocity=0, time=10),\n",
       "   Message('note_on', channel=0, note=62, velocity=61, time=259),\n",
       "   Message('note_on', channel=0, note=64, velocity=0, time=37),\n",
       "   Message('note_on', channel=0, note=55, velocity=77, time=251),\n",
       "   Message('note_on', channel=0, note=50, velocity=0, time=45),\n",
       "   Message('note_on', channel=0, note=62, velocity=0, time=34),\n",
       "   Message('note_on', channel=0, note=53, velocity=82, time=224),\n",
       "   Message('note_on', channel=0, note=55, velocity=0, time=62),\n",
       "   Message('note_on', channel=0, note=52, velocity=81, time=242),\n",
       "   Message('note_on', channel=0, note=53, velocity=0, time=29),\n",
       "   Message('note_on', channel=0, note=50, velocity=72, time=270),\n",
       "   Message('note_on', channel=0, note=62, velocity=63, time=1),\n",
       "   Message('note_on', channel=0, note=62, velocity=0, time=5),\n",
       "   Message('note_on', channel=0, note=52, velocity=0, time=11),\n",
       "   Message('note_on', channel=0, note=48, velocity=77, time=293),\n",
       "   Message('note_on', channel=0, note=50, velocity=0, time=33),\n",
       "   Message('note_on', channel=0, note=62, velocity=62, time=291),\n",
       "   Message('note_on', channel=0, note=60, velocity=68, time=341),\n",
       "   Message('note_on', channel=0, note=62, velocity=0, time=49),\n",
       "   Message('control_change', channel=0, control=64, value=127, time=265),\n",
       "   Message('control_change', channel=0, control=64, value=0, time=338),\n",
       "   Message('note_on', channel=0, note=60, velocity=0, time=55),\n",
       "   Message('note_on', channel=0, note=48, velocity=0, time=3),\n",
       "   Message('note_on', channel=0, note=64, velocity=96, time=3416),\n",
       "   Message('control_change', channel=0, control=64, value=127, time=327),\n",
       "   Message('note_on', channel=0, note=48, velocity=47, time=50),\n",
       "   Message('note_on', channel=0, note=55, velocity=62, time=361),\n",
       "   Message('note_on', channel=0, note=48, velocity=0, time=88),\n",
       "   Message('note_on', channel=0, note=55, velocity=0, time=238),\n",
       "   Message('note_on', channel=0, note=55, velocity=57, time=9),\n",
       "   Message('note_on', channel=0, note=79, velocity=80, time=1),\n",
       "   Message('note_on', channel=0, note=67, velocity=88, time=1),\n",
       "   Message('control_change', channel=0, control=64, value=0, time=15),\n",
       "   Message('note_on', channel=0, note=64, velocity=0, time=18),\n",
       "   Message('note_on', channel=0, note=55, velocity=0, time=6),\n",
       "   Message('note_on', channel=0, note=79, velocity=0, time=42),\n",
       "   Message('control_change', channel=0, control=64, value=127, time=116),\n",
       "   Message('note_on', channel=0, note=52, velocity=57, time=155),\n",
       "   Message('control_change', channel=0, control=64, value=0, time=211),\n",
       "   Message('note_on', channel=0, note=55, velocity=60, time=130),\n",
       "   Message('note_on', channel=0, note=52, velocity=0, time=47),\n",
       "   Message('control_change', channel=0, control=64, value=127, time=63),\n",
       "   Message('note_on', channel=0, note=65, velocity=84, time=220),\n",
       "   Message('control_change', channel=0, control=64, value=0, time=34),\n",
       "   Message('note_on', channel=0, note=55, velocity=0, time=42),\n",
       "   Message('note_on', channel=0, note=67, velocity=0, time=46),\n",
       "   Message('note_on', channel=0, note=50, velocity=61, time=222),\n",
       "   Message('note_on', channel=0, note=55, velocity=51, time=367),\n",
       "   Message('note_on', channel=0, note=50, velocity=0, time=39),\n",
       "   Message('note_on', channel=0, note=64, velocity=85, time=295),\n",
       "   Message('note_on', channel=0, note=55, velocity=0, time=44),\n",
       "   Message('note_on', channel=0, note=65, velocity=0, time=118),\n",
       "   Message('note_on', channel=0, note=48, velocity=62, time=178),\n",
       "   Message('control_change', channel=0, control=64, value=127, time=100),\n",
       "   Message('note_on', channel=0, note=48, velocity=0, time=246),\n",
       "   Message('note_on', channel=0, note=48, velocity=40, time=8),\n",
       "   Message('note_on', channel=0, note=55, velocity=51, time=4),\n",
       "   Message('control_change', channel=0, control=64, value=0, time=10),\n",
       "   Message('note_on', channel=0, note=48, velocity=0, time=24),\n",
       "   Message('control_change', channel=0, control=64, value=127, time=54),\n",
       "   Message('note_on', channel=0, note=62, velocity=71, time=250),\n",
       "   Message('note_on', channel=0, note=55, velocity=0, time=37),\n",
       "   Message('note_on', channel=0, note=64, velocity=0, time=87),\n",
       "   Message('control_change', channel=0, control=64, value=0, time=4),\n",
       "   Message('note_on', channel=0, note=53, velocity=71, time=201),\n",
       "   Message('control_change', channel=0, control=64, value=127, time=74),\n",
       "   Message('control_change', channel=0, control=64, value=0, time=266),\n",
       "   Message('note_on', channel=0, note=55, velocity=60, time=10),\n",
       "   Message('note_on', channel=0, note=53, velocity=0, time=30),\n",
       "   Message('control_change', channel=0, control=64, value=127, time=85),\n",
       "   Message('note_on', channel=0, note=64, velocity=89, time=237),\n",
       "   Message('note_on', channel=0, note=76, velocity=75, time=2),\n",
       "   Message('control_change', channel=0, control=64, value=0, time=20),\n",
       "   Message('note_on', channel=0, note=55, velocity=0, time=14),\n",
       "   Message('note_on', channel=0, note=62, velocity=0, time=115),\n",
       "   Message('note_on', channel=0, note=48, velocity=61, time=178),\n",
       "   Message('control_change', channel=0, control=64, value=127, time=64),\n",
       "   Message('note_on', channel=0, note=76, velocity=0, time=69),\n",
       "   Message('control_change', channel=0, control=64, value=0, time=200),\n",
       "   Message('note_on', channel=0, note=55, velocity=53, time=30),\n",
       "   Message('note_on', channel=0, note=48, velocity=0, time=34),\n",
       "   Message('control_change', channel=0, control=64, value=127, time=97),\n",
       "   Message('note_on', channel=0, note=65, velocity=81, time=211),\n",
       "   Message('note_on', channel=0, note=77, velocity=71, time=1),\n",
       "   Message('control_change', channel=0, control=64, value=0, time=10),\n",
       "   Message('note_on', channel=0, note=77, velocity=0, time=1),\n",
       "   Message('note_on', channel=0, note=55, velocity=0, time=28),\n",
       "   Message('note_on', channel=0, note=64, velocity=0, time=91),\n",
       "   Message('control_change', channel=0, control=64, value=127, time=181),\n",
       "   Message('control_change', channel=0, control=64, value=0, time=15),\n",
       "   Message('note_on', channel=0, note=62, velocity=56, time=1),\n",
       "   Message('note_on', channel=0, note=50, velocity=59, time=0),\n",
       "   Message('control_change', channel=0, control=64, value=127, time=91),\n",
       "   Message('control_change', channel=0, control=64, value=0, time=200),\n",
       "   Message('note_on', channel=0, note=55, velocity=61, time=61),\n",
       "   Message('note_on', channel=0, note=50, velocity=0, time=6),\n",
       "   Message('control_change', channel=0, control=64, value=127, time=163),\n",
       "   Message('note_on', channel=0, note=53, velocity=61, time=197),\n",
       "   Message('note_on', channel=0, note=62, velocity=0, time=72),\n",
       "   Message('note_on', channel=0, note=55, velocity=0, time=18),\n",
       "   Message('control_change', channel=0, control=64, value=0, time=3),\n",
       "   Message('note_on', channel=0, note=55, velocity=59, time=249),\n",
       "   Message('note_on', channel=0, note=53, velocity=0, time=4),\n",
       "   Message('control_change', channel=0, control=64, value=127, time=141),\n",
       "   Message('note_on', channel=0, note=53, velocity=61, time=201),\n",
       "   Message('control_change', channel=0, control=64, value=0, time=75),\n",
       "   Message('note_on', channel=0, note=55, velocity=0, time=41),\n",
       "   Message('control_change', channel=0, control=64, value=127, time=44),\n",
       "   Message('control_change', channel=0, control=64, value=0, time=115),\n",
       "   Message('note_on', channel=0, note=53, velocity=0, time=31),\n",
       "   Message('note_on', channel=0, note=64, velocity=89, time=2),\n",
       "   Message('note_on', channel=0, note=65, velocity=0, time=19),\n",
       "   Message('note_on', channel=0, note=48, velocity=62, time=314),\n",
       "   Message('control_change', channel=0, control=64, value=127, time=87),\n",
       "   Message('control_change', channel=0, control=64, value=0, time=223),\n",
       "   Message('note_on', channel=0, note=55, velocity=52, time=36),\n",
       "   Message('note_on', channel=0, note=48, velocity=0, time=45),\n",
       "   Message('control_change', channel=0, control=64, value=127, time=157),\n",
       "   Message('note_on', channel=0, note=79, velocity=80, time=135),\n",
       "   Message('note_on', channel=0, note=67, velocity=88, time=2),\n",
       "   Message('control_change', channel=0, control=64, value=0, time=27),\n",
       "   Message('note_on', channel=0, note=64, velocity=0, time=3),\n",
       "   Message('note_on', channel=0, note=55, velocity=0, time=5),\n",
       "   Message('note_on', channel=0, note=79, velocity=0, time=20),\n",
       "   Message('control_change', channel=0, control=64, value=127, time=138),\n",
       "   Message('note_on', channel=0, note=52, velocity=57, time=131),\n",
       "   Message('control_change', channel=0, control=64, value=0, time=292),\n",
       "   Message('note_on', channel=0, note=55, velocity=54, time=50),\n",
       "   Message('note_on', channel=0, note=52, velocity=0, time=74),\n",
       "   Message('control_change', channel=0, control=64, value=127, time=75),\n",
       "   Message('note_on', channel=0, note=65, velocity=77, time=205),\n",
       "   Message('control_change', channel=0, control=64, value=0, time=64),\n",
       "   Message('note_on', channel=0, note=55, velocity=0, time=8),\n",
       "   Message('note_on', channel=0, note=67, velocity=0, time=56),\n",
       "   Message('note_on', channel=0, note=50, velocity=54, time=209),\n",
       "   Message('note_on', channel=0, note=55, velocity=44, time=390),\n",
       "   Message('note_on', channel=0, note=50, velocity=0, time=23),\n",
       "   Message('note_on', channel=0, note=64, velocity=77, time=289),\n",
       "   Message('note_on', channel=0, note=55, velocity=0, time=43),\n",
       "   Message('note_on', channel=0, note=65, velocity=0, time=93),\n",
       "   Message('note_on', channel=0, note=48, velocity=57, time=222),\n",
       "   Message('control_change', channel=0, control=64, value=127, time=80),\n",
       "   Message('note_on', channel=0, note=55, velocity=47, time=274),\n",
       "   Message('note_on', channel=0, note=48, velocity=0, time=24),\n",
       "   Message('control_change', channel=0, control=64, value=0, time=0),\n",
       "   Message('control_change', channel=0, control=64, value=127, time=55),\n",
       "   Message('note_on', channel=0, note=62, velocity=68, time=251),\n",
       "   Message('control_change', channel=0, control=64, value=0, time=23),\n",
       "   Message('note_on', channel=0, note=55, velocity=0, time=12),\n",
       "   Message('note_on', channel=0, note=64, velocity=0, time=92),\n",
       "   Message('control_change', channel=0, control=64, value=127, time=52),\n",
       "   Message('note_on', channel=0, note=53, velocity=56, time=159),\n",
       "   Message('control_change', channel=0, control=64, value=0, time=343),\n",
       "   Message('note_on', channel=0, note=55, velocity=55, time=23),\n",
       "   Message('note_on', channel=0, note=53, velocity=0, time=86),\n",
       "   Message('control_change', channel=0, control=64, value=127, time=165),\n",
       "   Message('note_on', channel=0, note=64, velocity=80, time=65),\n",
       "   Message('control_change', channel=0, control=64, value=0, time=27),\n",
       "   Message('note_on', channel=0, note=55, velocity=0, time=27),\n",
       "   Message('note_on', channel=0, note=62, velocity=0, time=78),\n",
       "   Message('note_on', channel=0, note=53, velocity=60, time=214),\n",
       "   Message('control_change', channel=0, control=64, value=127, time=111),\n",
       "   Message('control_change', channel=0, control=64, value=0, time=193),\n",
       "   Message('note_on', channel=0, note=55, velocity=52, time=54),\n",
       "   Message('note_on', channel=0, note=53, velocity=0, time=56),\n",
       "   Message('control_change', channel=0, control=64, value=127, time=143),\n",
       "   Message('note_on', channel=0, note=60, velocity=75, time=110),\n",
       "   Message('control_change', channel=0, control=64, value=0, time=28),\n",
       "   Message('note_on', channel=0, note=55, velocity=0, time=5),\n",
       "   Message('control_change', channel=0, control=64, value=127, time=79),\n",
       "   Message('note_on', channel=0, note=64, velocity=0, time=35),\n",
       "   Message('control_change', channel=0, control=64, value=0, time=4),\n",
       "   Message('note_on', channel=0, note=52, velocity=44, time=216),\n",
       "   Message('note_on', channel=0, note=52, velocity=0, time=356),\n",
       "   Message('note_on', channel=0, note=55, velocity=49, time=4),\n",
       "   Message('control_change', channel=0, control=64, value=127, time=77),\n",
       "   Message('note_on', channel=0, note=48, velocity=51, time=294),\n",
       "   Message('control_change', channel=0, control=64, value=0, time=97),\n",
       "   Message('note_on', channel=0, note=55, velocity=0, time=46),\n",
       "   Message('note_on', channel=0, note=48, velocity=0, time=1065),\n",
       "   Message('note_on', channel=0, note=60, velocity=0, time=57),\n",
       "   Message('note_on', channel=0, note=79, velocity=86, time=5749),\n",
       "   Message('note_on', channel=0, note=67, velocity=92, time=1),\n",
       "   Message('note_on', channel=0, note=48, velocity=79, time=1),\n",
       "   Message('control_change', channel=0, control=64, value=127, time=124),\n",
       "   Message('note_on', channel=0, note=79, velocity=0, time=176),\n",
       "   Message('note_on', channel=0, note=62, velocity=66, time=8),\n",
       "   Message('note_on', channel=0, note=50, velocity=74, time=0),\n",
       "   Message('note_on', channel=0, note=48, velocity=0, time=49),\n",
       "   Message('control_change', channel=0, control=64, value=0, time=1),\n",
       "   Message('note_on', channel=0, note=52, velocity=87, time=237),\n",
       "   Message('note_on', channel=0, note=50, velocity=0, time=39),\n",
       "   Message('note_on', channel=0, note=62, velocity=0, time=20),\n",
       "   Message('note_on', channel=0, note=53, velocity=86, time=218),\n",
       "   Message('note_on', channel=0, note=52, velocity=0, time=16),\n",
       "   Message('control_change', channel=0, control=64, value=127, time=96),\n",
       "   Message('note_on', channel=0, note=60, velocity=80, time=189),\n",
       "   Message('note_on', channel=0, note=55, velocity=75, time=6),\n",
       "   Message('control_change', channel=0, control=64, value=0, time=22),\n",
       "   Message('note_on', channel=0, note=53, velocity=0, time=10),\n",
       "   Message('note_on', channel=0, note=67, velocity=0, time=3),\n",
       "   Message('note_on', channel=0, note=53, velocity=74, time=241),\n",
       "   Message('note_on', channel=0, note=55, velocity=0, time=32),\n",
       "   Message('note_on', channel=0, note=53, velocity=0, time=260),\n",
       "   Message('note_on', channel=0, note=52, velocity=68, time=3),\n",
       "   Message('note_on', channel=0, note=62, velocity=57, time=258),\n",
       "   Message('note_on', channel=0, note=50, velocity=66, time=0),\n",
       "   Message('note_on', channel=0, note=62, velocity=0, time=5),\n",
       "   Message('note_on', channel=0, note=52, velocity=0, time=6),\n",
       "   Message('note_on', channel=0, note=60, velocity=0, time=263),\n",
       "   Message('note_on', channel=0, note=79, velocity=81, time=7),\n",
       "   Message('note_on', channel=0, note=67, velocity=87, time=0),\n",
       "   Message('note_on', channel=0, note=60, velocity=74, time=2),\n",
       "   Message('note_on', channel=0, note=48, velocity=76, time=1),\n",
       "   Message('note_on', channel=0, note=50, velocity=0, time=21),\n",
       "   Message('note_on', channel=0, note=60, velocity=0, time=57),\n",
       "   Message('note_on', channel=0, note=79, velocity=0, time=81),\n",
       "   Message('note_on', channel=0, note=65, velocity=78, time=129),\n",
       "   Message('note_on', channel=0, note=67, velocity=0, time=69),\n",
       "   Message('note_on', channel=0, note=64, velocity=83, time=213),\n",
       "   Message('note_on', channel=0, note=76, velocity=71, time=1),\n",
       "   Message('note_on', channel=0, note=65, velocity=0, time=75),\n",
       "   Message('note_on', channel=0, note=74, velocity=64, time=210),\n",
       "   Message('note_on', channel=0, note=62, velocity=70, time=3),\n",
       "   Message('note_on', channel=0, note=76, velocity=0, time=60),\n",
       "   Message('note_on', channel=0, note=64, velocity=0, time=21),\n",
       "   Message('note_on', channel=0, note=72, velocity=73, time=186),\n",
       "   Message('note_on', channel=0, note=60, velocity=78, time=4),\n",
       "   Message('note_on', channel=0, note=55, velocity=74, time=1),\n",
       "   Message('note_on', channel=0, note=74, velocity=0, time=3),\n",
       "   Message('note_on', channel=0, note=48, velocity=0, time=40),\n",
       "   Message('note_on', channel=0, note=62, velocity=0, time=46),\n",
       "   Message('note_on', channel=0, note=62, velocity=72, time=202),\n",
       "   Message('note_on', channel=0, note=60, velocity=0, time=53),\n",
       "   Message('note_on', channel=0, note=72, velocity=0, time=43),\n",
       "   Message('control_change', channel=0, control=64, value=127, time=39),\n",
       "   Message('note_on', channel=0, note=64, velocity=84, time=137),\n",
       "   Message('note_on', channel=0, note=76, velocity=71, time=2),\n",
       "   Message('control_change', channel=0, control=64, value=0, time=64),\n",
       "   Message('note_on', channel=0, note=62, velocity=0, time=47),\n",
       "   Message('note_on', channel=0, note=65, velocity=79, time=176),\n",
       "   Message('note_on', channel=0, note=77, velocity=69, time=2),\n",
       "   Message('note_on', channel=0, note=77, velocity=0, time=9),\n",
       "   Message('note_on', channel=0, note=64, velocity=0, time=52),\n",
       "   Message('note_on', channel=0, note=67, velocity=84, time=206),\n",
       "   Message('note_on', channel=0, note=79, velocity=81, time=0),\n",
       "   Message('note_on', channel=0, note=48, velocity=70, time=2),\n",
       "   Message('note_on', channel=0, note=55, velocity=0, time=38),\n",
       "   Message('note_on', channel=0, note=65, velocity=0, time=5),\n",
       "   Message('note_on', channel=0, note=76, velocity=0, time=81),\n",
       "   Message('note_on', channel=0, note=62, velocity=59, time=164),\n",
       "   Message('note_on', channel=0, note=50, velocity=70, time=0),\n",
       "   Message('note_on', channel=0, note=48, velocity=0, time=19),\n",
       "   Message('note_on', channel=0, note=52, velocity=80, time=259),\n",
       "   Message('note_on', channel=0, note=50, velocity=0, time=31),\n",
       "   Message('note_on', channel=0, note=62, velocity=0, time=19),\n",
       "   Message('note_on', channel=0, note=53, velocity=80, time=217),\n",
       "   Message('note_on', channel=0, note=52, velocity=0, time=26),\n",
       "   Message('note_on', channel=0, note=79, velocity=0, time=3),\n",
       "   Message('note_on', channel=0, note=60, velocity=77, time=257),\n",
       "   Message('note_on', channel=0, note=55, velocity=72, time=0),\n",
       "   Message('note_on', channel=0, note=53, velocity=0, time=15),\n",
       "   Message('note_on', channel=0, note=67, velocity=0, time=1),\n",
       "   Message('control_change', channel=0, control=64, value=127, time=126),\n",
       "   Message('control_change', channel=0, control=64, value=0, time=69),\n",
       "   Message('note_on', channel=0, note=53, velocity=68, time=58),\n",
       "   Message('control_change', channel=0, control=64, value=127, time=27),\n",
       "   Message('control_change', channel=0, control=64, value=0, time=75),\n",
       "   Message('note_on', channel=0, note=55, velocity=0, time=21),\n",
       "   Message('note_on', channel=0, note=52, velocity=71, time=160),\n",
       "   Message('note_on', channel=0, note=53, velocity=0, time=16),\n",
       "   Message('note_on', channel=0, note=50, velocity=65, time=247),\n",
       "   Message('note_on', channel=0, note=62, velocity=57, time=1),\n",
       "   Message('note_on', channel=0, note=52, velocity=0, time=13),\n",
       "   Message('note_on', channel=0, note=48, velocity=72, time=237),\n",
       "   Message('note_on', channel=0, note=60, velocity=0, time=13),\n",
       "   Message('note_on', channel=0, note=60, velocity=70, time=4),\n",
       "   Message('note_on', channel=0, note=79, velocity=75, time=8),\n",
       "   Message('note_on', channel=0, note=67, velocity=80, time=2),\n",
       "   Message('note_on', channel=0, note=50, velocity=0, time=31),\n",
       "   Message('note_on', channel=0, note=62, velocity=0, time=24),\n",
       "   Message('note_on', channel=0, note=79, velocity=0, time=215),\n",
       "   Message('note_on', channel=0, note=65, velocity=76, time=16),\n",
       "   Message('note_on', channel=0, note=67, velocity=0, time=80),\n",
       "   Message('note_on', channel=0, note=60, velocity=0, time=12),\n",
       "   Message('note_on', channel=0, note=64, velocity=82, time=179),\n",
       "   Message('note_on', channel=0, note=76, velocity=72, time=1),\n",
       "   Message('note_on', channel=0, note=65, velocity=0, time=78),\n",
       "   Message('note_on', channel=0, note=74, velocity=64, time=195),\n",
       "   Message('note_on', channel=0, note=62, velocity=69, time=2),\n",
       "   Message('note_on', channel=0, note=64, velocity=0, time=72),\n",
       "   Message('note_on', channel=0, note=76, velocity=0, time=3),\n",
       "   Message('note_on', channel=0, note=72, velocity=63, time=226),\n",
       "   Message('note_on', channel=0, note=60, velocity=66, time=1),\n",
       "   Message('note_on', channel=0, note=74, velocity=0, time=126),\n",
       "   Message('note_on', channel=0, note=62, velocity=0, time=3),\n",
       "   Message('control_change', channel=0, control=64, value=127, time=327),\n",
       "   Message('control_change', channel=0, control=64, value=0, time=23),\n",
       "   Message('control_change', channel=0, control=64, value=127, time=85),\n",
       "   Message('control_change', channel=0, control=64, value=0, time=660),\n",
       "   Message('note_on', channel=0, note=48, velocity=0, time=18),\n",
       "   Message('note_on', channel=0, note=60, velocity=0, time=47),\n",
       "   Message('note_on', channel=0, note=72, velocity=0, time=12),\n",
       "   Message('note_on', channel=0, note=72, velocity=82, time=2072),\n",
       "   Message('note_on', channel=0, note=60, velocity=86, time=2),\n",
       "   Message('control_change', channel=0, control=64, value=127, time=69),\n",
       "   Message('note_on', channel=0, note=64, velocity=70, time=192),\n",
       "   Message('note_on', channel=0, note=55, velocity=76, time=251),\n",
       "   Message('note_on', channel=0, note=64, velocity=0, time=44),\n",
       "   Message('control_change', channel=0, control=64, value=0, time=9),\n",
       "   Message('note_on', channel=0, note=60, velocity=0, time=8),\n",
       "   Message('note_on', channel=0, note=72, velocity=0, time=10),\n",
       "   Message('control_change', channel=0, control=64, value=127, time=131),\n",
       "   Message('note_on', channel=0, note=64, velocity=65, time=71),\n",
       "   Message('note_on', channel=0, note=60, velocity=80, time=246),\n",
       "   Message('control_change', channel=0, control=64, value=0, time=18),\n",
       "   Message('note_on', channel=0, note=64, velocity=0, time=9),\n",
       "   Message('note_on', channel=0, note=55, velocity=0, time=40),\n",
       "   Message('control_change', channel=0, control=64, value=127, time=138),\n",
       "   Message('note_on', channel=0, note=64, velocity=69, time=52),\n",
       "   Message('note_on', channel=0, note=55, velocity=72, time=262),\n",
       "   Message('note_on', channel=0, note=64, velocity=0, time=50),\n",
       "   Message('control_change', channel=0, control=64, value=0, time=9),\n",
       "   Message('note_on', channel=0, note=60, velocity=0, time=0),\n",
       "   Message('control_change', channel=0, control=64, value=127, time=195),\n",
       "   Message('note_on', channel=0, note=64, velocity=70, time=5),\n",
       "   Message('note_on', channel=0, note=59, velocity=77, time=271),\n",
       "   Message('note_on', channel=0, note=74, velocity=64, time=3),\n",
       "   Message('note_on', channel=0, note=71, velocity=72, time=1),\n",
       "   Message('note_on', channel=0, note=62, velocity=69, time=1),\n",
       "   Message('note_on', channel=0, note=55, velocity=0, time=84),\n",
       "   Message('note_on', channel=0, note=64, velocity=0, time=2),\n",
       "   Message('control_change', channel=0, control=64, value=0, time=11),\n",
       "   Message('note_on', channel=0, note=74, velocity=0, time=6),\n",
       "   Message('note_on', channel=0, note=64, velocity=85, time=143),\n",
       "   Message('note_on', channel=0, note=76, velocity=74, time=1),\n",
       "   Message('note_on', channel=0, note=62, velocity=0, time=136),\n",
       "   Message('note_on', channel=0, note=71, velocity=0, time=89),\n",
       "   Message('note_on', channel=0, note=77, velocity=69, time=56),\n",
       "   Message('note_on', channel=0, note=65, velocity=75, time=0),\n",
       "   Message('note_on', channel=0, note=55, velocity=63, time=2),\n",
       "   Message('note_on', channel=0, note=76, velocity=0, time=19),\n",
       "   Message('note_on', channel=0, note=59, velocity=0, time=49),\n",
       "   Message('note_on', channel=0, note=64, velocity=0, time=29),\n",
       "   Message('note_on', channel=0, note=77, velocity=0, time=83),\n",
       "   Message('note_on', channel=0, note=62, velocity=68, time=82),\n",
       "   Message('note_on', channel=0, note=65, velocity=0, time=83),\n",
       "   Message('note_on', channel=0, note=64, velocity=85, time=183),\n",
       "   Message('note_on', channel=0, note=60, velocity=73, time=6),\n",
       "   Message('note_on', channel=0, note=55, velocity=0, time=33),\n",
       "   Message('note_on', channel=0, note=62, velocity=0, time=69),\n",
       "   Message('note_on', channel=0, note=65, velocity=79, time=146),\n",
       "   Message('note_on', channel=0, note=64, velocity=0, time=85),\n",
       "   Message('note_on', channel=0, note=79, velocity=79, time=176),\n",
       "   Message('note_on', channel=0, note=67, velocity=83, time=2),\n",
       "   Message('note_on', channel=0, note=55, velocity=55, time=20),\n",
       "   Message('note_on', channel=0, note=65, velocity=0, time=30),\n",
       "   Message('note_on', channel=0, note=79, velocity=0, time=7),\n",
       "   Message('note_on', channel=0, note=60, velocity=0, time=42),\n",
       "   Message('control_change', channel=0, control=64, value=127, time=104),\n",
       "   Message('note_on', channel=0, note=72, velocity=73, time=332),\n",
       "   Message('note_on', channel=0, note=60, velocity=77, time=0),\n",
       "   Message('control_change', channel=0, control=64, value=0, time=4),\n",
       "   Message('note_on', channel=0, note=67, velocity=0, time=74),\n",
       "   Message('note_on', channel=0, note=55, velocity=0, time=12),\n",
       "   Message('control_change', channel=0, control=64, value=127, time=131),\n",
       "   Message('note_on', channel=0, note=64, velocity=67, time=32),\n",
       "   Message('note_on', channel=0, note=55, velocity=68, time=259),\n",
       "   Message('note_on', channel=0, note=64, velocity=0, time=41),\n",
       "   Message('control_change', channel=0, control=64, value=0, time=7),\n",
       "   Message('note_on', channel=0, note=60, velocity=0, time=26),\n",
       "   Message('note_on', channel=0, note=72, velocity=0, time=3),\n",
       "   Message('note_on', channel=0, note=64, velocity=66, time=172),\n",
       "   Message('control_change', channel=0, control=64, value=127, time=12),\n",
       "   Message('note_on', channel=0, note=72, velocity=68, time=254),\n",
       "   Message('note_on', channel=0, note=60, velocity=74, time=2),\n",
       "   Message('note_on', channel=0, note=55, velocity=0, time=34),\n",
       "   Message('note_on', channel=0, note=64, velocity=0, time=5),\n",
       "   Message('control_change', channel=0, control=64, value=0, time=9),\n",
       "   Message('note_on', channel=0, note=64, velocity=71, time=202),\n",
       "   Message('control_change', channel=0, control=64, value=127, time=32),\n",
       "   Message('note_on', channel=0, note=55, velocity=62, time=234),\n",
       "   Message('note_on', channel=0, note=64, velocity=0, time=31),\n",
       "   Message('control_change', channel=0, control=64, value=0, time=4),\n",
       "   Message('note_on', channel=0, note=72, velocity=0, time=50),\n",
       "   Message('note_on', channel=0, note=60, velocity=0, time=11),\n",
       "   Message('note_on', channel=0, note=64, velocity=63, time=151),\n",
       "   Message('control_change', channel=0, control=64, value=127, time=11),\n",
       "   Message('note_on', channel=0, note=55, velocity=0, time=253),\n",
       "   Message('note_on', channel=0, note=55, velocity=52, time=4),\n",
       "   Message('note_on', channel=0, note=59, velocity=74, time=0),\n",
       "   Message('note_on', channel=0, note=62, velocity=68, time=1),\n",
       "   Message('note_on', channel=0, note=55, velocity=0, time=58),\n",
       "   Message('note_on', channel=0, note=64, velocity=0, time=5),\n",
       "   Message('control_change', channel=0, control=64, value=0, time=20),\n",
       "   Message('note_on', channel=0, note=59, velocity=0, time=168),\n",
       "   Message('note_on', channel=0, note=64, velocity=84, time=1),\n",
       "   Message('note_on', channel=0, note=62, velocity=0, time=141),\n",
       "   Message('note_on', channel=0, note=65, velocity=78, time=118),\n",
       "   Message('note_on', channel=0, note=55, velocity=66, time=8),\n",
       "   Message('note_on', channel=0, note=59, velocity=62, time=1),\n",
       "   Message('note_on', channel=0, note=64, velocity=0, time=48),\n",
       "   Message('note_on', channel=0, note=59, velocity=0, time=37),\n",
       "   Message('note_on', channel=0, note=55, velocity=0, time=143),\n",
       "   Message('note_on', channel=0, note=55, velocity=55, time=10),\n",
       "   Message('note_on', channel=0, note=62, velocity=73, time=1),\n",
       "   Message('note_on', channel=0, note=65, velocity=0, time=78),\n",
       "   Message('note_on', channel=0, note=64, velocity=78, time=216),\n",
       "   Message('note_on', channel=0, note=60, velocity=64, time=7),\n",
       "   Message('note_on', channel=0, note=55, velocity=0, time=79),\n",
       "   Message('note_on', channel=0, note=62, velocity=0, time=22),\n",
       "   Message('control_change', channel=0, control=64, value=127, time=347),\n",
       "   Message('control_change', channel=0, control=64, value=0, time=625),\n",
       "   Message('note_on', channel=0, note=60, velocity=0, time=1),\n",
       "   Message('note_on', channel=0, note=64, velocity=0, time=0),\n",
       "   Message('note_on', channel=0, note=48, velocity=77, time=5107),\n",
       "   Message('note_on', channel=0, note=79, velocity=84, time=2),\n",
       "   Message('note_on', channel=0, note=67, velocity=87, time=2),\n",
       "   Message('note_on', channel=0, note=79, velocity=0, time=100),\n",
       "   Message('note_on', channel=0, note=64, velocity=78, time=193),\n",
       "   Message('note_on', channel=0, note=76, velocity=67, time=2),\n",
       "   Message('note_on', channel=0, note=67, velocity=0, time=66),\n",
       "   Message('note_on', channel=0, note=76, velocity=0, time=200),\n",
       "   Message('note_on', channel=0, note=72, velocity=71, time=16),\n",
       "   Message('note_on', channel=0, note=60, velocity=76, time=2),\n",
       "   Message('note_on', channel=0, note=64, velocity=0, time=45),\n",
       "   Message('note_on', channel=0, note=72, velocity=0, time=221),\n",
       "   Message('note_on', channel=0, note=74, velocity=60, time=0),\n",
       "   Message('note_on', channel=0, note=53, velocity=62, time=3),\n",
       "   Message('note_on', channel=0, note=62, velocity=68, time=0),\n",
       "   Message('note_on', channel=0, note=72, velocity=60, time=1),\n",
       "   Message('note_on', channel=0, note=48, velocity=0, time=46),\n",
       "   Message('note_on', channel=0, note=60, velocity=0, time=1),\n",
       "   Message('note_on', channel=0, note=55, velocity=53, time=215),\n",
       "   Message('note_on', channel=0, note=67, velocity=41, time=5),\n",
       "   Message('note_on', channel=0, note=53, velocity=0, time=41),\n",
       "   Message('note_on', channel=0, note=74, velocity=0, time=10),\n",
       "   Message('note_on', channel=0, note=72, velocity=0, time=39),\n",
       "   Message('note_on', channel=0, note=53, velocity=69, time=191),\n",
       "   Message('note_on', channel=0, note=65, velocity=50, time=4),\n",
       "   Message('note_on', channel=0, note=55, velocity=0, time=31),\n",
       "   Message('note_on', channel=0, note=67, velocity=0, time=35),\n",
       "   Message('control_change', channel=0, control=64, value=127, time=8),\n",
       "   Message('control_change', channel=0, control=64, value=0, time=140),\n",
       "   Message('control_change', channel=0, control=64, value=127, time=21),\n",
       "   Message('control_change', channel=0, control=64, value=0, time=23),\n",
       "   Message('note_on', channel=0, note=48, velocity=70, time=6),\n",
       "   Message('note_on', channel=0, note=67, velocity=81, time=1),\n",
       "   Message('note_on', channel=0, note=79, velocity=80, time=0),\n",
       "   Message('note_on', channel=0, note=62, velocity=0, time=32),\n",
       "   Message('note_on', channel=0, note=53, velocity=0, time=5),\n",
       "   Message('note_on', channel=0, note=65, velocity=0, time=33),\n",
       "   Message('note_on', channel=0, note=64, velocity=74, time=204),\n",
       "   Message('note_on', channel=0, note=79, velocity=0, time=3),\n",
       "   Message('note_on', channel=0, note=67, velocity=0, time=81),\n",
       "   Message('note_on', channel=0, note=60, velocity=67, time=185),\n",
       "   Message('note_on', channel=0, note=64, velocity=0, time=61),\n",
       "   Message('note_on', channel=0, note=48, velocity=0, time=203),\n",
       "   Message('note_on', channel=0, note=62, velocity=63, time=5),\n",
       "   Message('note_on', channel=0, note=48, velocity=46, time=1),\n",
       "   Message('note_on', channel=0, note=53, velocity=54, time=13),\n",
       "   Message('note_on', channel=0, note=48, velocity=0, time=24),\n",
       "   Message('note_on', channel=0, note=60, velocity=0, time=5),\n",
       "   Message('note_on', channel=0, note=55, velocity=55, time=250),\n",
       "   Message('note_on', channel=0, note=53, velocity=0, time=21),\n",
       "   Message('note_on', channel=0, note=53, velocity=68, time=245),\n",
       "   Message('note_on', channel=0, note=55, velocity=0, time=47),\n",
       "   Message('note_on', channel=0, note=72, velocity=66, time=224),\n",
       "   Message('note_on', channel=0, note=60, velocity=68, time=5),\n",
       "   Message('note_on', channel=0, note=53, velocity=0, time=14),\n",
       "   Message('note_on', channel=0, note=52, velocity=60, time=4),\n",
       "   Message('note_on', channel=0, note=62, velocity=0, time=76),\n",
       "   Message('note_on', channel=0, note=52, velocity=0, time=172),\n",
       "   Message('note_on', channel=0, note=52, velocity=48, time=11),\n",
       "   Message('note_on', channel=0, note=62, velocity=69, time=1),\n",
       "   Message('note_on', channel=0, note=60, velocity=0, time=83),\n",
       "   Message('note_on', channel=0, note=72, velocity=0, time=7),\n",
       "   Message('note_on', channel=0, note=64, velocity=79, time=161),\n",
       "   Message('note_on', channel=0, note=62, velocity=0, time=125),\n",
       "   Message('note_on', channel=0, note=53, velocity=70, time=156),\n",
       "   Message('note_on', channel=0, note=62, velocity=71, time=11),\n",
       "   Message('note_on', channel=0, note=52, velocity=0, time=52),\n",
       "   Message('note_on', channel=0, note=64, velocity=0, time=31),\n",
       "   Message('note_on', channel=0, note=72, velocity=67, time=170),\n",
       "   Message('note_on', channel=0, note=60, velocity=71, time=2),\n",
       "   Message('note_on', channel=0, note=62, velocity=0, time=110),\n",
       "   Message('note_on', channel=0, note=60, velocity=0, time=163),\n",
       "   Message('note_on', channel=0, note=62, velocity=76, time=6),\n",
       "   Message('note_on', channel=0, note=60, velocity=61, time=1),\n",
       "   Message('note_on', channel=0, note=60, velocity=0, time=47),\n",
       "   Message('note_on', channel=0, note=72, velocity=0, time=15),\n",
       "   Message('control_change', channel=0, control=64, value=127, time=69),\n",
       "   Message('note_on', channel=0, note=64, velocity=86, time=156),\n",
       "   Message('note_on', channel=0, note=48, velocity=69, time=1),\n",
       "   Message('control_change', channel=0, control=64, value=0, time=57),\n",
       "   Message('note_on', channel=0, note=53, velocity=0, time=12),\n",
       "   Message('note_on', channel=0, note=62, velocity=0, time=2),\n",
       "   Message('control_change', channel=0, control=64, value=127, time=310),\n",
       "   Message('control_change', channel=0, control=64, value=0, time=502),\n",
       "   Message('note_on', channel=0, note=48, velocity=0, time=4),\n",
       "   Message('note_on', channel=0, note=48, velocity=34, time=8),\n",
       "   Message('note_on', channel=0, note=55, velocity=53, time=5),\n",
       "   Message('note_on', channel=0, note=48, velocity=0, time=52),\n",
       "   Message('control_change', channel=0, control=64, value=127, time=227),\n",
       "   Message('note_on', channel=0, note=48, velocity=69, time=549),\n",
       "   Message('note_on', channel=0, note=79, velocity=73, time=1),\n",
       "   Message('note_on', channel=0, note=67, velocity=77, time=1),\n",
       "   Message('note_on', channel=0, note=64, velocity=0, time=45),\n",
       "   Message('control_change', channel=0, control=64, value=0, time=1),\n",
       "   Message('note_on', channel=0, note=55, velocity=0, time=5),\n",
       "   Message('control_change', channel=0, control=64, value=127, time=89),\n",
       "   Message('note_on', channel=0, note=79, velocity=0, time=16),\n",
       "   Message('control_change', channel=0, control=64, value=0, time=77),\n",
       "   Message('note_on', channel=0, note=64, velocity=83, time=42),\n",
       "   Message('note_on', channel=0, note=76, velocity=71, time=0),\n",
       "   Message('note_on', channel=0, note=67, velocity=0, time=85),\n",
       "   Message('note_on', channel=0, note=76, velocity=0, time=188),\n",
       "   Message('note_on', channel=0, note=72, velocity=74, time=9),\n",
       "   Message('note_on', channel=0, note=60, velocity=78, time=2),\n",
       "   Message('note_on', channel=0, note=64, velocity=0, time=61),\n",
       "   Message('note_on', channel=0, note=74, velocity=63, time=201),\n",
       "   Message('note_on', channel=0, note=62, velocity=71, time=0),\n",
       "   Message('note_on', channel=0, note=72, velocity=0, time=3),\n",
       "   Message('note_on', channel=0, note=53, velocity=61, time=5),\n",
       "   Message('note_on', channel=0, note=72, velocity=63, time=5),\n",
       "   Message('note_on', channel=0, note=60, velocity=0, time=41),\n",
       "   Message('note_on', channel=0, note=48, velocity=0, time=0),\n",
       "   Message('note_on', channel=0, note=55, velocity=63, time=237),\n",
       "   Message('note_on', channel=0, note=67, velocity=49, time=2),\n",
       "   Message('note_on', channel=0, note=74, velocity=0, time=10),\n",
       "   Message('note_on', channel=0, note=53, velocity=0, time=4),\n",
       "   Message('note_on', channel=0, note=72, velocity=0, time=42),\n",
       "   Message('note_on', channel=0, note=53, velocity=69, time=207),\n",
       "   Message('note_on', channel=0, note=65, velocity=52, time=3),\n",
       "   Message('note_on', channel=0, note=55, velocity=0, time=42),\n",
       "   Message('note_on', channel=0, note=67, velocity=0, time=47),\n",
       "   Message('control_change', channel=0, control=64, value=127, time=92),\n",
       "   Message('note_on', channel=0, note=79, velocity=80, time=91),\n",
       "   Message('note_on', channel=0, note=67, velocity=84, time=1),\n",
       "   Message('note_on', channel=0, note=48, velocity=71, time=3),\n",
       "   Message('control_change', channel=0, control=64, value=0, time=26),\n",
       "   Message('note_on', channel=0, note=53, velocity=0, time=8),\n",
       "   Message('note_on', channel=0, note=65, velocity=0, time=56),\n",
       "   Message('note_on', channel=0, note=62, velocity=0, time=14),\n",
       "   Message('note_on', channel=0, note=64, velocity=78, time=158),\n",
       "   Message('note_on', channel=0, note=76, velocity=67, time=1),\n",
       "   Message('note_on', channel=0, note=79, velocity=0, time=11),\n",
       "   Message('note_on', channel=0, note=67, velocity=0, time=62),\n",
       "   Message('note_on', channel=0, note=72, velocity=63, time=198),\n",
       "   Message('note_on', channel=0, note=60, velocity=70, time=3),\n",
       "   Message('note_on', channel=0, note=76, velocity=0, time=67),\n",
       "   Message('note_on', channel=0, note=64, velocity=0, time=6),\n",
       "   Message('note_on', channel=0, note=72, velocity=0, time=202),\n",
       "   Message('note_on', channel=0, note=74, velocity=56, time=1),\n",
       "   Message('note_on', channel=0, note=53, velocity=56, time=2),\n",
       "   Message('note_on', channel=0, note=81, velocity=63, time=0),\n",
       "   Message('note_on', channel=0, note=62, velocity=61, time=1),\n",
       "   Message('note_on', channel=0, note=74, velocity=0, time=3),\n",
       "   Message('note_on', channel=0, note=81, velocity=0, time=0),\n",
       "   Message('note_on', channel=0, note=72, velocity=56, time=1),\n",
       "   Message('note_on', channel=0, note=48, velocity=0, time=29),\n",
       "   Message('note_on', channel=0, note=60, velocity=0, time=4),\n",
       "   Message('note_on', channel=0, note=72, velocity=0, time=74),\n",
       "   Message('note_on', channel=0, note=55, velocity=54, time=150),\n",
       "   Message('note_on', channel=0, note=53, velocity=0, time=20),\n",
       "   Message('note_on', channel=0, note=53, velocity=66, time=255),\n",
       "   Message('note_on', channel=0, note=55, velocity=0, time=59),\n",
       "   Message('control_change', channel=0, control=64, value=127, time=84),\n",
       "   Message('control_change', channel=0, control=64, value=0, time=61),\n",
       "   Message('note_on', channel=0, note=72, velocity=65, time=60),\n",
       "   Message('note_on', channel=0, note=53, velocity=0, time=1),\n",
       "   Message('note_on', channel=0, note=60, velocity=69, time=1),\n",
       "   Message('note_on', channel=0, note=52, velocity=65, time=3),\n",
       "   Message('note_on', channel=0, note=62, velocity=0, time=74),\n",
       "   Message('control_change', channel=0, control=64, value=127, time=84),\n",
       "   Message('note_on', channel=0, note=52, velocity=0, time=16),\n",
       "   Message('note_on', channel=0, note=62, velocity=67, time=110),\n",
       "   Message('note_on', channel=0, note=52, velocity=45, time=1),\n",
       "   Message('note_on', channel=0, note=60, velocity=0, time=21),\n",
       "   Message('control_change', channel=0, control=64, value=0, time=29),\n",
       "   Message('note_on', channel=0, note=72, velocity=0, time=49),\n",
       "   Message('note_on', channel=0, note=64, velocity=84, time=164),\n",
       "   Message('note_on', channel=0, note=76, velocity=68, time=3),\n",
       "   Message('note_on', channel=0, note=62, velocity=0, time=93),\n",
       "   Message('note_on', channel=0, note=52, velocity=0, time=152),\n",
       "   Message('note_on', channel=0, note=74, velocity=62, time=48),\n",
       "   Message('note_on', channel=0, note=62, velocity=69, time=0),\n",
       "   Message('note_on', channel=0, note=53, velocity=59, time=1),\n",
       "   Message('note_on', channel=0, note=52, velocity=54, time=0),\n",
       "   Message('note_on', channel=0, note=76, velocity=0, time=81),\n",
       "   Message('note_on', channel=0, note=52, velocity=0, time=9),\n",
       "   Message('note_on', channel=0, note=64, velocity=0, time=2),\n",
       "   Message('note_on', channel=0, note=72, velocity=63, time=165),\n",
       "   Message('note_on', channel=0, note=60, velocity=66, time=3),\n",
       "   Message('note_on', channel=0, note=74, velocity=0, time=6),\n",
       "   Message('note_on', channel=0, note=62, velocity=0, time=98),\n",
       "   Message('note_on', channel=0, note=53, velocity=0, time=170),\n",
       "   Message('note_on', channel=0, note=74, velocity=54, time=4),\n",
       "   Message('note_on', channel=0, note=62, velocity=59, time=0),\n",
       "   Message('note_on', channel=0, note=53, velocity=43, time=0),\n",
       "   Message('note_on', channel=0, note=60, velocity=0, time=30),\n",
       "   Message('note_on', channel=0, note=72, velocity=0, time=12),\n",
       "   Message('control_change', channel=0, control=64, value=127, time=123),\n",
       "   Message('control_change', channel=0, control=64, value=0, time=46),\n",
       "   Message('note_on', channel=0, note=74, velocity=0, time=31),\n",
       "   Message('note_on', channel=0, note=53, velocity=0, time=34),\n",
       "   Message('note_on', channel=0, note=72, velocity=60, time=0),\n",
       "   Message('note_on', channel=0, note=60, velocity=67, time=1),\n",
       "   Message('note_on', channel=0, note=52, velocity=57, time=23),\n",
       "   Message('note_on', channel=0, note=62, velocity=0, time=42),\n",
       "   Message('control_change', channel=0, control=64, value=127, time=77),\n",
       "   Message('note_on', channel=0, note=48, velocity=51, time=757),\n",
       "   Message('control_change', channel=0, control=64, value=0, time=36),\n",
       "   Message('note_on', channel=0, note=52, velocity=0, time=36),\n",
       "   Message('note_on', channel=0, note=72, velocity=0, time=653),\n",
       "   Message('note_on', channel=0, note=48, velocity=0, time=295),\n",
       "   Message('note_on', channel=0, note=60, velocity=0, time=16),\n",
       "   Message('note_on', channel=0, note=72, velocity=75, time=3293),\n",
       "   Message('note_on', channel=0, note=60, velocity=81, time=7),\n",
       "   Message('note_on', channel=0, note=48, velocity=72, time=2),\n",
       "   Message('note_on', channel=0, note=60, velocity=0, time=265),\n",
       "   Message('note_on', channel=0, note=62, velocity=65, time=2),\n",
       "   Message('note_on', channel=0, note=60, velocity=57, time=5),\n",
       "   Message('note_on', channel=0, note=60, velocity=0, time=35),\n",
       "   Message('note_on', channel=0, note=72, velocity=0, time=4),\n",
       "   Message('note_on', channel=0, note=72, velocity=65, time=207),\n",
       "   Message('note_on', channel=0, note=60, velocity=73, time=3),\n",
       "   Message('note_on', channel=0, note=62, velocity=0, time=74),\n",
       "   Message('note_on', channel=0, note=72, velocity=0, time=170),\n",
       "   Message('note_on', channel=0, note=62, velocity=72, time=3),\n",
       "   Message('note_on', channel=0, note=72, velocity=60, time=4),\n",
       "   Message('note_on', channel=0, note=60, velocity=0, time=35),\n",
       "   Message('note_on', channel=0, note=72, velocity=0, time=188),\n",
       "   Message('note_on', channel=0, note=72, velocity=69, time=22),\n",
       "   Message('note_on', channel=0, note=60, velocity=74, time=3),\n",
       "   Message('note_on', channel=0, note=62, velocity=0, time=79),\n",
       "   Message('note_on', channel=0, note=72, velocity=0, time=180),\n",
       "   Message('note_on', channel=0, note=74, velocity=64, time=3),\n",
       "   Message('note_on', channel=0, note=62, velocity=68, time=0),\n",
       "   Message('note_on', channel=0, note=72, velocity=55, time=2),\n",
       "   Message('note_on', channel=0, note=60, velocity=0, time=47),\n",
       "   Message('note_on', channel=0, note=72, velocity=0, time=202),\n",
       "   Message('note_on', channel=0, note=72, velocity=64, time=10),\n",
       "   Message('note_on', channel=0, note=60, velocity=70, time=1),\n",
       "   Message('note_on', channel=0, note=62, velocity=0, time=111),\n",
       "   Message('note_on', channel=0, note=74, velocity=0, time=0),\n",
       "   Message('control_change', channel=0, control=64, value=127, time=62),\n",
       "   Message('note_on', channel=0, note=48, velocity=0, time=369),\n",
       "   Message('note_on', channel=0, note=74, velocity=72, time=17),\n",
       "   Message('note_on', channel=0, note=50, velocity=72, time=0),\n",
       "   Message('note_on', channel=0, note=62, velocity=82, time=1),\n",
       "   Message('note_on', channel=0, note=60, velocity=0, time=50),\n",
       "   Message('control_change', channel=0, control=64, value=0, time=4),\n",
       "   Message('note_on', channel=0, note=72, velocity=0, time=20),\n",
       "   Message('note_on', channel=0, note=74, velocity=0, time=153),\n",
       "   Message('note_on', channel=0, note=76, velocity=70, time=18),\n",
       "   Message('note_on', channel=0, note=64, velocity=83, time=0),\n",
       "   Message('note_on', channel=0, note=62, velocity=0, time=50),\n",
       "   Message('note_on', channel=0, note=74, velocity=63, time=199),\n",
       "   Message('note_on', channel=0, note=62, velocity=70, time=1),\n",
       "   Message('note_on', channel=0, note=64, velocity=0, time=62),\n",
       "   Message('note_on', channel=0, note=76, velocity=0, time=1),\n",
       "   Message('note_on', channel=0, note=74, velocity=0, time=76),\n",
       "   Message('note_on', channel=0, note=50, velocity=0, time=92),\n",
       "   Message('note_on', channel=0, note=50, velocity=52, time=8),\n",
       "   Message('note_on', channel=0, note=64, velocity=84, time=2),\n",
       "   Message('note_on', channel=0, note=76, velocity=68, time=2),\n",
       "   Message('note_on', channel=0, note=62, velocity=0, time=54),\n",
       "   Message('note_on', channel=0, note=74, velocity=70, time=220),\n",
       "   Message('note_on', channel=0, note=62, velocity=79, time=1),\n",
       "   Message('note_on', channel=0, note=76, velocity=0, time=51),\n",
       "   Message('note_on', channel=0, note=64, velocity=0, time=4),\n",
       "   Message('note_on', channel=0, note=64, velocity=88, time=193),\n",
       "   Message('note_on', channel=0, note=76, velocity=77, time=0),\n",
       "   Message('note_on', channel=0, note=74, velocity=0, time=3),\n",
       "   Message('note_on', channel=0, note=62, velocity=0, time=45),\n",
       "   Message('note_on', channel=0, note=50, velocity=0, time=93),\n",
       "   Message('note_on', channel=0, note=74, velocity=69, time=118),\n",
       "   Message('note_on', channel=0, note=62, velocity=75, time=1),\n",
       "   Message('note_on', channel=0, note=76, velocity=0, time=43),\n",
       "   Message('note_on', channel=0, note=64, velocity=0, time=7),\n",
       "   Message('control_change', channel=0, control=64, value=127, time=131),\n",
       "   Message('note_on', channel=0, note=64, velocity=89, time=338),\n",
       "   Message('note_on', channel=0, note=52, velocity=78, time=3),\n",
       "   Message('note_on', channel=0, note=74, velocity=0, time=27),\n",
       "   Message('control_change', channel=0, control=64, value=0, time=19),\n",
       "   Message('note_on', channel=0, note=62, velocity=0, time=9),\n",
       "   Message('control_change', channel=0, control=64, value=127, time=88),\n",
       "   Message('note_on', channel=0, note=65, velocity=79, time=125),\n",
       "   Message('note_on', channel=0, note=77, velocity=71, time=1),\n",
       "   Message('note_on', channel=0, note=77, velocity=0, time=4),\n",
       "   Message('control_change', channel=0, control=64, value=0, time=31),\n",
       "   Message('note_on', channel=0, note=64, velocity=0, time=11),\n",
       "   Message('note_on', channel=0, note=64, velocity=86, time=208),\n",
       "   Message('note_on', channel=0, note=76, velocity=71, time=1),\n",
       "   Message('note_on', channel=0, note=65, velocity=0, time=68),\n",
       "   Message('note_on', channel=0, note=76, velocity=0, time=165),\n",
       "   Message('note_on', channel=0, note=65, velocity=77, time=8),\n",
       "   Message('note_on', channel=0, note=77, velocity=70, time=1),\n",
       "   Message('note_on', channel=0, note=77, velocity=0, time=6),\n",
       "   Message('note_on', channel=0, note=64, velocity=0, time=57),\n",
       "   Message('note_on', channel=0, note=52, velocity=0, time=20),\n",
       "   Message('note_on', channel=0, note=64, velocity=85, time=181),\n",
       "   Message('note_on', channel=0, note=76, velocity=69, time=1),\n",
       "   Message('note_on', channel=0, note=65, velocity=0, time=84),\n",
       "   Message('note_on', channel=0, note=76, velocity=0, time=172),\n",
       "   Message('note_on', channel=0, note=65, velocity=78, time=3),\n",
       "   Message('note_on', channel=0, note=77, velocity=71, time=0),\n",
       "   Message('note_on', channel=0, note=77, velocity=0, time=5),\n",
       "   Message('note_on', channel=0, note=64, velocity=0, time=55),\n",
       "   Message('note_on', channel=0, note=64, velocity=80, time=202),\n",
       "   Message('note_on', channel=0, note=76, velocity=66, time=1),\n",
       "   Message('note_on', channel=0, note=65, velocity=0, time=81),\n",
       "   Message('control_change', channel=0, control=64, value=127, time=160),\n",
       "   Message('note_on', channel=0, note=76, velocity=0, time=184),\n",
       "   Message('note_on', channel=0, note=53, velocity=78, time=115),\n",
       "   Message('note_on', channel=0, note=65, velocity=77, time=2),\n",
       "   Message('control_change', channel=0, control=64, value=0, time=33),\n",
       "   Message('note_on', channel=0, note=64, velocity=0, time=37),\n",
       "   Message('note_on', channel=0, note=79, velocity=77, time=194),\n",
       "   Message('note_on', channel=0, note=67, velocity=84, time=3),\n",
       "   Message('note_on', channel=0, note=65, velocity=0, time=23),\n",
       "   Message('note_on', channel=0, note=79, velocity=0, time=23),\n",
       "   Message('note_on', channel=0, note=65, velocity=75, time=228),\n",
       "   Message('note_on', channel=0, note=77, velocity=68, time=1),\n",
       "   Message('note_on', channel=0, note=77, velocity=0, time=9),\n",
       "   Message('note_on', channel=0, note=67, velocity=0, time=52),\n",
       "   Message('control_change', channel=0, control=64, value=127, time=110),\n",
       "   Message('note_on', channel=0, note=79, velocity=76, time=96),\n",
       "   Message('note_on', channel=0, note=67, velocity=80, time=1),\n",
       "   Message('note_on', channel=0, note=53, velocity=0, time=18),\n",
       "   Message('note_on', channel=0, note=53, velocity=50, time=7),\n",
       "   Message('note_on', channel=0, note=65, velocity=0, time=20),\n",
       "   Message('control_change', channel=0, control=64, value=0, time=4),\n",
       "   Message('note_on', channel=0, note=79, velocity=0, time=7),\n",
       "   Message('note_on', channel=0, note=65, velocity=74, time=201),\n",
       "   Message('note_on', channel=0, note=77, velocity=67, time=2),\n",
       "   Message('note_on', channel=0, note=67, velocity=0, time=46),\n",
       "   Message('note_on', channel=0, note=77, velocity=0, time=158),\n",
       "   Message('note_on', channel=0, note=79, velocity=72, time=43),\n",
       "   Message('note_on', channel=0, note=67, velocity=81, time=0),\n",
       "   Message('note_on', channel=0, note=65, velocity=0, time=46),\n",
       "   Message('note_on', channel=0, note=79, velocity=0, time=26),\n",
       "   Message('note_on', channel=0, note=65, velocity=76, time=212),\n",
       "   Message('note_on', channel=0, note=77, velocity=68, time=0),\n",
       "   Message('note_on', channel=0, note=67, velocity=0, time=55),\n",
       "   Message('control_change', channel=0, control=64, value=127, time=217),\n",
       "   Message('note_on', channel=0, note=77, velocity=0, time=46),\n",
       "   Message('note_on', channel=0, note=64, velocity=84, time=206),\n",
       "   Message('note_on', channel=0, note=76, velocity=70, time=1),\n",
       "   Message('note_on', channel=0, note=52, velocity=66, time=7),\n",
       "   Message('note_on', channel=0, note=76, velocity=0, time=1),\n",
       "   Message('control_change', channel=0, control=64, value=0, time=42),\n",
       "   Message('note_on', channel=0, note=65, velocity=0, time=0),\n",
       "   Message('note_on', channel=0, note=53, velocity=0, time=12),\n",
       "   Message('note_on', channel=0, note=65, velocity=69, time=203),\n",
       "   Message('note_on', channel=0, note=77, velocity=63, time=2),\n",
       "   Message('note_on', channel=0, note=64, velocity=0, time=52),\n",
       "   Message('note_on', channel=0, note=64, velocity=81, time=194),\n",
       "   Message('note_on', channel=0, note=76, velocity=67, time=0),\n",
       "   Message('note_on', channel=0, note=65, velocity=0, time=83),\n",
       "   Message('note_on', channel=0, note=77, velocity=0, time=19),\n",
       "   Message('note_on', channel=0, note=65, velocity=69, time=163),\n",
       "   Message('note_on', channel=0, note=77, velocity=62, time=1),\n",
       "   Message('note_on', channel=0, note=76, velocity=0, time=41),\n",
       "   Message('note_on', channel=0, note=64, velocity=0, time=10),\n",
       "   Message('note_on', channel=0, note=64, velocity=77, time=227),\n",
       "   Message('note_on', channel=0, note=76, velocity=63, time=2),\n",
       "   Message('note_on', channel=0, note=77, velocity=0, time=71),\n",
       "   Message('note_on', channel=0, note=65, velocity=0, time=10),\n",
       "   Message('control_change', channel=0, control=64, value=127, time=105),\n",
       "   Message('note_on', channel=0, note=65, velocity=76, time=63),\n",
       "   Message('note_on', channel=0, note=77, velocity=67, time=1),\n",
       "   Message('control_change', channel=0, control=64, value=0, time=20),\n",
       "   Message('note_on', channel=0, note=64, velocity=0, time=30),\n",
       "   Message('note_on', channel=0, note=76, velocity=0, time=13),\n",
       "   Message('note_on', channel=0, note=52, velocity=0, time=3),\n",
       "   Message('note_on', channel=0, note=77, velocity=0, time=100),\n",
       "   Message('note_on', channel=0, note=76, velocity=67, time=91),\n",
       "   Message('note_on', channel=0, note=64, velocity=78, time=0),\n",
       "   Message('note_on', channel=0, note=65, velocity=0, time=83),\n",
       "   Message('control_change', channel=0, control=64, value=127, time=172),\n",
       "   Message('note_on', channel=0, note=76, velocity=0, time=230),\n",
       "   Message('note_on', channel=0, note=62, velocity=72, time=59),\n",
       "   Message('note_on', channel=0, note=50, velocity=61, time=6),\n",
       "   Message('control_change', channel=0, control=64, value=0, time=67),\n",
       "   Message('note_on', channel=0, note=64, velocity=0, time=7),\n",
       "   Message('note_on', channel=0, note=64, velocity=81, time=173),\n",
       "   Message('note_on', channel=0, note=76, velocity=68, time=0),\n",
       "   Message('note_on', channel=0, note=62, velocity=0, time=55),\n",
       "   Message('note_on', channel=0, note=76, velocity=0, time=186),\n",
       "   Message('note_on', channel=0, note=74, velocity=56, time=20),\n",
       "   Message('note_on', channel=0, note=62, velocity=62, time=1),\n",
       "   Message('note_on', channel=0, note=64, velocity=0, time=83),\n",
       "   Message('note_on', channel=0, note=74, velocity=0, time=27),\n",
       "   Message('note_on', channel=0, note=64, velocity=78, time=134),\n",
       "   Message('note_on', channel=0, note=76, velocity=63, time=1),\n",
       "   Message('note_on', channel=0, note=62, velocity=0, time=32),\n",
       "   Message('note_on', channel=0, note=74, velocity=61, time=237),\n",
       "   Message('note_on', channel=0, note=62, velocity=68, time=0),\n",
       "   Message('note_on', channel=0, note=76, velocity=0, time=34),\n",
       "   Message('note_on', channel=0, note=64, velocity=0, time=25),\n",
       "   Message('note_on', channel=0, note=74, velocity=0, time=59),\n",
       "   Message('note_on', channel=0, note=64, velocity=78, time=121),\n",
       "   Message('note_on', channel=0, note=76, velocity=65, time=3),\n",
       "   Message('note_on', channel=0, note=62, velocity=0, time=49),\n",
       "   Message('note_on', channel=0, note=74, velocity=62, time=231),\n",
       "   Message('note_on', channel=0, note=62, velocity=68, time=1),\n",
       "   Message('note_on', channel=0, note=50, velocity=0, time=25),\n",
       "   Message('note_on', channel=0, note=76, velocity=0, time=23),\n",
       "   Message('note_on', channel=0, note=64, velocity=0, time=13),\n",
       "   Message('control_change', channel=0, control=64, value=127, time=110),\n",
       "   Message('note_on', channel=0, note=74, velocity=0, time=38),\n",
       "   Message('note_on', channel=0, note=48, velocity=70, time=314),\n",
       "   Message('note_on', channel=0, note=60, velocity=71, time=5),\n",
       "   Message('note_on', channel=0, note=72, velocity=64, time=2),\n",
       "   Message('note_on', channel=0, note=72, velocity=0, time=10),\n",
       "   Message('note_on', channel=0, note=62, velocity=0, time=65),\n",
       "   Message('control_change', channel=0, control=64, value=0, time=4),\n",
       "   Message('note_on', channel=0, note=60, velocity=0, time=184),\n",
       "   Message('note_on', channel=0, note=62, velocity=65, time=2),\n",
       "   Message('note_on', channel=0, note=60, velocity=56, time=2),\n",
       "   Message('note_on', channel=0, note=60, velocity=0, time=48),\n",
       "   Message('note_on', channel=0, note=72, velocity=65, time=204),\n",
       "   Message('note_on', channel=0, note=60, velocity=69, time=2),\n",
       "   Message('note_on', channel=0, note=62, velocity=0, time=105),\n",
       "   Message('note_on', channel=0, note=48, velocity=0, time=144),\n",
       "   Message('note_on', channel=0, note=60, velocity=0, time=0),\n",
       "   Message('note_on', channel=0, note=62, velocity=67, time=3),\n",
       "   Message('note_on', channel=0, note=48, velocity=47, time=2),\n",
       "   Message('note_on', channel=0, note=60, velocity=56, time=1),\n",
       "   Message('note_on', channel=0, note=72, velocity=0, time=32),\n",
       "   Message('note_on', channel=0, note=60, velocity=0, time=3),\n",
       "   Message('note_on', channel=0, note=72, velocity=60, time=229),\n",
       "   Message('note_on', channel=0, note=60, velocity=65, time=2),\n",
       "   Message('note_on', channel=0, note=62, velocity=0, time=78),\n",
       "   Message('note_on', channel=0, note=60, velocity=0, time=165),\n",
       "   Message('note_on', channel=0, note=74, velocity=59, time=6),\n",
       "   Message('note_on', channel=0, note=62, velocity=65, time=2),\n",
       "   Message('note_on', channel=0, note=60, velocity=54, time=2),\n",
       "   Message('note_on', channel=0, note=60, velocity=0, time=37),\n",
       "   Message('note_on', channel=0, note=72, velocity=0, time=29),\n",
       "   Message('note_on', channel=0, note=74, velocity=0, time=70),\n",
       "   Message('note_on', channel=0, note=72, velocity=64, time=139),\n",
       "   Message('note_on', channel=0, note=60, velocity=68, time=2),\n",
       "   Message('note_on', channel=0, note=62, velocity=0, time=70),\n",
       "   Message('note_on', channel=0, note=58, velocity=20, time=201),\n",
       "   Message('note_on', channel=0, note=48, velocity=0, time=463),\n",
       "   Message('note_on', channel=0, note=48, velocity=25, time=8),\n",
       "   Message('note_on', channel=0, note=58, velocity=0, time=25),\n",
       "   Message('note_on', channel=0, note=60, velocity=0, time=17),\n",
       "   Message('note_on', channel=0, note=72, velocity=0, time=4),\n",
       "   Message('note_on', channel=0, note=48, velocity=0, time=23),\n",
       "   Message('note_on', channel=0, note=60, velocity=79, time=1976),\n",
       "   Message('note_on', channel=0, note=48, velocity=73, time=1),\n",
       "   Message('note_on', channel=0, note=50, velocity=71, time=238),\n",
       "   Message('note_on', channel=0, note=62, velocity=65, time=1),\n",
       "   Message('note_on', channel=0, note=48, velocity=0, time=15),\n",
       "   Message('note_on', channel=0, note=60, velocity=0, time=34),\n",
       "   Message('note_on', channel=0, note=48, velocity=75, time=221),\n",
       "   Message('note_on', channel=0, note=60, velocity=66, time=1),\n",
       "   Message('note_on', channel=0, note=50, velocity=0, time=30),\n",
       "   Message('note_on', channel=0, note=62, velocity=0, time=33),\n",
       "   Message('note_on', channel=0, note=50, velocity=74, time=193),\n",
       "   Message('note_on', channel=0, note=62, velocity=66, time=1),\n",
       "   Message('note_on', channel=0, note=48, velocity=0, time=33),\n",
       "   Message('note_on', channel=0, note=60, velocity=0, time=26),\n",
       "   Message('note_on', channel=0, note=48, velocity=76, time=195),\n",
       "   Message('note_on', channel=0, note=60, velocity=66, time=3),\n",
       "   Message('note_on', channel=0, note=50, velocity=0, time=8),\n",
       "   Message('note_on', channel=0, note=62, velocity=0, time=32),\n",
       "   Message('note_on', channel=0, note=50, velocity=71, time=212),\n",
       "   Message('note_on', channel=0, note=62, velocity=62, time=0),\n",
       "   Message('note_on', channel=0, note=48, velocity=0, time=30),\n",
       "   Message('note_on', channel=0, note=60, velocity=0, time=42),\n",
       "   Message('note_on', channel=0, note=48, velocity=77, time=195),\n",
       "   Message('note_on', channel=0, note=60, velocity=66, time=1),\n",
       "   Message('note_on', channel=0, note=50, velocity=0, time=32),\n",
       "   Message('note_on', channel=0, note=62, velocity=0, time=26),\n",
       "   Message('control_change', channel=0, control=64, value=127, time=169),\n",
       "   Message('note_on', channel=0, note=50, velocity=71, time=301),\n",
       "   Message('note_on', channel=0, note=62, velocity=78, time=1),\n",
       "   Message('control_change', channel=0, control=64, value=0, time=39),\n",
       "   Message('note_on', channel=0, note=48, velocity=0, time=2),\n",
       "   Message('note_on', channel=0, note=60, velocity=0, time=6),\n",
       "   Message('note_on', channel=0, note=52, velocity=78, time=194),\n",
       "   Message('note_on', channel=0, note=50, velocity=0, time=34),\n",
       "   Message('note_on', channel=0, note=62, velocity=0, time=4),\n",
       "   Message('control_change', channel=0, control=64, value=127, time=102),\n",
       "   Message('control_change', channel=0, control=64, value=0, time=100),\n",
       "   Message('note_on', channel=0, note=50, velocity=71, time=27),\n",
       "   Message('note_on', channel=0, note=62, velocity=62, time=2),\n",
       "   Message('note_on', channel=0, note=52, velocity=0, time=28),\n",
       "   Message('note_on', channel=0, note=52, velocity=79, time=233),\n",
       "   Message('note_on', channel=0, note=50, velocity=0, time=53),\n",
       "   Message('note_on', channel=0, note=62, velocity=0, time=8),\n",
       "   Message('control_change', channel=0, control=64, value=127, time=71),\n",
       "   Message('note_on', channel=0, note=50, velocity=70, time=120),\n",
       "   Message('note_on', channel=0, note=62, velocity=60, time=1),\n",
       "   Message('control_change', channel=0, control=64, value=0, time=10),\n",
       "   Message('note_on', channel=0, note=52, velocity=0, time=12),\n",
       "   Message('note_on', channel=0, note=52, velocity=77, time=238),\n",
       "   Message('note_on', channel=0, note=64, velocity=61, time=0),\n",
       "   Message('note_on', channel=0, note=50, velocity=0, time=38),\n",
       "   Message('note_on', channel=0, note=62, velocity=0, time=42),\n",
       "   Message('control_change', channel=0, control=64, value=127, time=69),\n",
       "   Message('note_on', channel=0, note=64, velocity=0, time=23),\n",
       "   Message('control_change', channel=0, control=64, value=0, time=67),\n",
       "   Message('note_on', channel=0, note=50, velocity=69, time=45),\n",
       "   Message('note_on', channel=0, note=62, velocity=57, time=0),\n",
       "   Message('note_on', channel=0, note=52, velocity=0, time=15),\n",
       "   Message('control_change', channel=0, control=64, value=127, time=327),\n",
       "   Message('control_change', channel=0, control=64, value=0, time=69),\n",
       "   Message('note_on', channel=0, note=64, velocity=84, time=113),\n",
       "   Message('note_on', channel=0, note=52, velocity=72, time=3),\n",
       "   Message('note_on', channel=0, note=50, velocity=0, time=14),\n",
       "   Message('note_on', channel=0, note=62, velocity=0, time=31),\n",
       "   Message('note_on', channel=0, note=53, velocity=79, time=186),\n",
       "   Message('note_on', channel=0, note=65, velocity=60, time=1),\n",
       "   Message('note_on', channel=0, note=65, velocity=0, time=5),\n",
       "   Message('note_on', channel=0, note=52, velocity=0, time=26),\n",
       "   Message('note_on', channel=0, note=64, velocity=0, time=28),\n",
       "   Message('control_change', channel=0, control=64, value=127, time=15),\n",
       "   Message('note_on', channel=0, note=52, velocity=79, time=203),\n",
       "   Message('note_on', channel=0, note=64, velocity=66, time=0),\n",
       "   Message('control_change', channel=0, control=64, value=0, time=12),\n",
       "   Message('note_on', channel=0, note=53, velocity=0, time=14),\n",
       "   Message('note_on', channel=0, note=53, velocity=82, time=237),\n",
       "   Message('note_on', channel=0, note=65, velocity=59, time=4),\n",
       "   Message('note_on', channel=0, note=52, velocity=0, time=16),\n",
       "   Message('note_on', channel=0, note=64, velocity=0, time=13),\n",
       "   Message('control_change', channel=0, control=64, value=127, time=54),\n",
       "   Message('note_on', channel=0, note=64, velocity=65, time=170),\n",
       "   Message('note_on', channel=0, note=52, velocity=79, time=1),\n",
       "   Message('control_change', channel=0, control=64, value=0, time=21),\n",
       "   Message('note_on', channel=0, note=53, velocity=0, time=5),\n",
       "   Message('note_on', channel=0, note=65, velocity=0, time=3),\n",
       "   Message('note_on', channel=0, note=53, velocity=77, time=219),\n",
       "   Message('note_on', channel=0, note=52, velocity=0, time=22),\n",
       "   Message('note_on', channel=0, note=64, velocity=0, time=27),\n",
       "   Message('control_change', channel=0, control=64, value=127, time=70),\n",
       "   Message('control_change', channel=0, control=64, value=0, time=115),\n",
       "   Message('note_on', channel=0, note=64, velocity=55, time=42),\n",
       "   Message('note_on', channel=0, note=52, velocity=75, time=0),\n",
       "   Message('note_on', channel=0, note=53, velocity=0, time=31),\n",
       "   Message('note_on', channel=0, note=53, velocity=77, time=486),\n",
       "   Message('note_on', channel=0, note=65, velocity=77, time=6),\n",
       "   Message('note_on', channel=0, note=64, velocity=0, time=18),\n",
       "   Message('note_on', channel=0, note=52, velocity=0, time=10),\n",
       "   Message('note_on', channel=0, note=65, velocity=0, time=213),\n",
       "   Message('note_on', channel=0, note=55, velocity=68, time=5),\n",
       "   Message('note_on', channel=0, note=67, velocity=53, time=0),\n",
       "   Message('note_on', channel=0, note=65, velocity=46, time=2),\n",
       "   Message('note_on', channel=0, note=53, velocity=0, time=28),\n",
       "   Message('note_on', channel=0, note=65, velocity=0, time=226),\n",
       "   Message('note_on', channel=0, note=53, velocity=76, time=5),\n",
       "   Message('note_on', channel=0, note=65, velocity=58, time=2),\n",
       "   Message('note_on', channel=0, note=55, velocity=0, time=53),\n",
       "   Message('note_on', channel=0, note=67, velocity=0, time=17),\n",
       "   Message('note_on', channel=0, note=65, velocity=0, time=169),\n",
       "   Message('note_on', channel=0, note=55, velocity=73, time=1),\n",
       "   Message('note_on', channel=0, note=67, velocity=58, time=1),\n",
       "   Message('note_on', channel=0, note=65, velocity=48, time=2),\n",
       "   Message('note_on', channel=0, note=53, velocity=0, time=31),\n",
       "   Message('note_on', channel=0, note=65, velocity=0, time=211),\n",
       "   Message('note_on', channel=0, note=53, velocity=75, time=7),\n",
       "   Message('note_on', channel=0, note=65, velocity=58, time=4),\n",
       "   Message('note_on', channel=0, note=55, velocity=0, time=64),\n",
       "   Message('note_on', channel=0, note=67, velocity=0, time=32),\n",
       "   Message('note_on', channel=0, note=55, velocity=71, time=156),\n",
       "   Message('note_on', channel=0, note=53, velocity=0, time=40),\n",
       "   Message('note_on', channel=0, note=53, velocity=76, time=221),\n",
       "   Message('note_on', channel=0, note=55, velocity=0, time=54),\n",
       "   Message('control_change', channel=0, control=64, value=127, time=75),\n",
       "   Message('note_on', channel=0, note=64, velocity=85, time=357),\n",
       "   Message('note_on', channel=0, note=52, velocity=71, time=6),\n",
       "   Message('note_on', channel=0, note=53, velocity=0, time=30),\n",
       "   Message('note_on', channel=0, note=65, velocity=0, time=1),\n",
       "   Message('control_change', channel=0, control=64, value=0, time=0),\n",
       "   Message('note_on', channel=0, note=53, velocity=66, time=211),\n",
       "   Message('note_on', channel=0, note=52, velocity=0, time=21),\n",
       "   Message('note_on', channel=0, note=52, velocity=75, time=224),\n",
       "   Message('note_on', channel=0, note=53, velocity=0, time=33),\n",
       "   Message('note_on', channel=0, note=64, velocity=0, time=192),\n",
       "   Message('note_on', channel=0, note=53, velocity=80, time=40),\n",
       "   Message('note_on', channel=0, note=52, velocity=0, time=19),\n",
       "   Message('control_change', channel=0, control=64, value=127, time=64),\n",
       "   Message('control_change', channel=0, control=64, value=0, time=138),\n",
       "   Message('note_on', channel=0, note=64, velocity=64, time=45),\n",
       "   Message('note_on', channel=0, note=52, velocity=83, time=0),\n",
       "   Message('note_on', channel=0, note=53, velocity=0, time=28),\n",
       "   Message('note_on', channel=0, note=53, velocity=78, time=219),\n",
       "   Message('note_on', channel=0, note=52, velocity=0, time=17),\n",
       "   Message('note_on', channel=0, note=64, velocity=0, time=14),\n",
       "   Message('control_change', channel=0, control=64, value=127, time=161),\n",
       "   Message('control_change', channel=0, control=64, value=0, time=7),\n",
       "   Message('note_on', channel=0, note=52, velocity=76, time=63),\n",
       "   Message('note_on', channel=0, note=64, velocity=60, time=1),\n",
       "   Message('note_on', channel=0, note=53, velocity=0, time=26),\n",
       "   Message('control_change', channel=0, control=64, value=127, time=87),\n",
       "   Message('note_on', channel=0, note=50, velocity=66, time=401),\n",
       "   Message('note_on', channel=0, note=62, velocity=76, time=1),\n",
       "   Message('note_on', channel=0, note=64, velocity=0, time=21),\n",
       "   Message('note_on', channel=0, note=52, velocity=0, time=12),\n",
       "   Message('control_change', channel=0, control=64, value=0, time=0),\n",
       "   Message('note_on', channel=0, note=52, velocity=76, time=191),\n",
       "   Message('note_on', channel=0, note=64, velocity=62, time=1),\n",
       "   Message('note_on', channel=0, note=50, velocity=0, time=27),\n",
       "   Message('note_on', channel=0, note=62, velocity=0, time=4),\n",
       "   Message('note_on', channel=0, note=62, velocity=54, time=244),\n",
       "   Message('note_on', channel=0, note=50, velocity=64, time=0),\n",
       "   Message('note_on', channel=0, note=64, velocity=0, time=27),\n",
       "   Message('note_on', channel=0, note=52, velocity=0, time=4),\n",
       "   Message('note_on', channel=0, note=52, velocity=80, time=206),\n",
       "   Message('note_on', channel=0, note=64, velocity=60, time=1),\n",
       "   Message('note_on', channel=0, note=50, velocity=0, time=39),\n",
       "   Message('note_on', channel=0, note=62, velocity=0, time=27),\n",
       "   Message('control_change', channel=0, control=64, value=127, time=77),\n",
       "   Message('control_change', channel=0, control=64, value=0, time=76),\n",
       "   Message('note_on', channel=0, note=50, velocity=70, time=44),\n",
       "   Message('note_on', channel=0, note=62, velocity=61, time=0),\n",
       "   Message('note_on', channel=0, note=64, velocity=0, time=10),\n",
       "   Message('note_on', channel=0, note=52, velocity=0, time=21),\n",
       "   Message('note_on', channel=0, note=52, velocity=81, time=221),\n",
       "   Message('note_on', channel=0, note=64, velocity=61, time=1),\n",
       "   Message('note_on', channel=0, note=50, velocity=0, time=31),\n",
       "   Message('note_on', channel=0, note=62, velocity=0, time=18),\n",
       "   Message('note_on', channel=0, note=64, velocity=0, time=161),\n",
       "   Message('note_on', channel=0, note=50, velocity=72, time=51),\n",
       "   Message('note_on', channel=0, note=62, velocity=62, time=0),\n",
       "   Message('note_on', channel=0, note=52, velocity=0, time=29),\n",
       "   Message('note_on', channel=0, note=48, velocity=75, time=470),\n",
       "   Message('note_on', channel=0, note=60, velocity=76, time=10),\n",
       "   Message('note_on', channel=0, note=50, velocity=0, time=13),\n",
       "   Message('note_on', channel=0, note=62, velocity=0, time=26),\n",
       "   Message('note_on', channel=0, note=50, velocity=71, time=195),\n",
       "   Message('note_on', channel=0, note=62, velocity=63, time=1),\n",
       "   Message('note_on', channel=0, note=48, velocity=0, time=23),\n",
       "   Message('note_on', channel=0, note=60, velocity=0, time=12),\n",
       "   Message('note_on', channel=0, note=48, velocity=76, time=222),\n",
       "   Message('note_on', channel=0, note=60, velocity=67, time=3),\n",
       "   Message('note_on', channel=0, note=50, velocity=0, time=26),\n",
       "   Message('note_on', channel=0, note=62, velocity=0, time=18),\n",
       "   Message('note_on', channel=0, note=62, velocity=66, time=193),\n",
       "   Message('note_on', channel=0, note=50, velocity=73, time=0),\n",
       "   Message('note_on', channel=0, note=48, velocity=0, time=19),\n",
       "   Message('note_on', channel=0, note=60, velocity=0, time=18),\n",
       "   Message('note_on', channel=0, note=48, velocity=75, time=210),\n",
       "   Message('note_on', channel=0, note=67, velocity=60, time=2),\n",
       "   Message('note_on', channel=0, note=60, velocity=66, time=0),\n",
       "   Message('note_on', channel=0, note=67, velocity=0, time=11),\n",
       "   Message('note_on', channel=0, note=50, velocity=0, time=25),\n",
       "   Message('note_on', channel=0, note=62, velocity=0, time=5),\n",
       "   Message('note_on', channel=0, note=50, velocity=70, time=204),\n",
       "   Message('note_on', channel=0, note=62, velocity=61, time=0),\n",
       "   Message('note_on', channel=0, note=48, velocity=0, time=39),\n",
       "   Message('note_on', channel=0, note=60, velocity=0, time=34),\n",
       "   Message('note_on', channel=0, note=60, velocity=67, time=194),\n",
       "   Message('note_on', channel=0, note=48, velocity=77, time=0),\n",
       "   Message('note_on', channel=0, note=50, velocity=0, time=31),\n",
       "   Message('note_on', channel=0, note=62, velocity=0, time=21),\n",
       "   Message('note_on', channel=0, note=48, velocity=0, time=732),\n",
       "   Message('note_on', channel=0, note=60, velocity=0, time=26),\n",
       "   Message('note_on', channel=0, note=72, velocity=79, time=5372),\n",
       "   Message('note_on', channel=0, note=60, velocity=83, time=3),\n",
       "   Message('note_on', channel=0, note=72, velocity=0, time=3),\n",
       "   Message('control_change', channel=0, control=64, value=127, time=100),\n",
       "   Message('note_on', channel=0, note=63, velocity=81, time=235),\n",
       "   Message('note_on', channel=0, note=75, velocity=73, time=2),\n",
       "   Message('control_change', channel=0, control=64, value=0, time=5),\n",
       "   Message('note_on', channel=0, note=60, velocity=0, time=31),\n",
       "   Message('note_on', channel=0, note=75, velocity=0, time=180),\n",
       "   Message('note_on', channel=0, note=64, velocity=89, time=98),\n",
       "   Message('note_on', channel=0, note=76, velocity=74, time=3),\n",
       "   Message('note_on', channel=0, note=63, velocity=0, time=56),\n",
       "   Message('note_on', channel=0, note=76, velocity=0, time=142),\n",
       "   Message('note_on', channel=0, note=79, velocity=76, time=112),\n",
       "   Message('note_on', channel=0, note=67, velocity=85, time=1),\n",
       "   Message('note_on', channel=0, note=64, velocity=0, time=37),\n",
       "   Message('note_on', channel=0, note=79, velocity=0, time=4),\n",
       "   Message('note_on', channel=0, note=72, velocity=72, time=281),\n",
       "   Message('note_on', channel=0, note=60, velocity=76, time=0),\n",
       "   Message('note_on', channel=0, note=67, velocity=0, time=47),\n",
       "   Message('note_on', channel=0, note=72, velocity=0, time=156),\n",
       "   Message('note_on', channel=0, note=63, velocity=80, time=104),\n",
       "   Message('note_on', channel=0, note=75, velocity=73, time=3),\n",
       "   Message('note_on', channel=0, note=60, velocity=0, time=68),\n",
       "   Message('note_on', channel=0, note=64, velocity=84, time=251),\n",
       "   Message('note_on', channel=0, note=76, velocity=68, time=1),\n",
       "   Message('note_on', channel=0, note=63, velocity=0, time=41),\n",
       "   Message('note_on', channel=0, note=75, velocity=0, time=0),\n",
       "   Message('note_on', channel=0, note=76, velocity=0, time=331),\n",
       "   Message('note_on', channel=0, note=53, velocity=82, time=251),\n",
       "   Message('note_on', channel=0, note=64, velocity=0, time=114),\n",
       "   Message('note_on', channel=0, note=56, velocity=77, time=200),\n",
       "   Message('note_on', channel=0, note=68, velocity=66, time=2),\n",
       "   Message('note_on', channel=0, note=53, velocity=0, time=42),\n",
       "   Message('note_on', channel=0, note=56, velocity=0, time=151),\n",
       "   Message('note_on', channel=0, note=57, velocity=74, time=111),\n",
       "   Message('note_on', channel=0, note=68, velocity=0, time=35),\n",
       "   Message('note_on', channel=0, note=60, velocity=70, time=272),\n",
       "   Message('note_on', channel=0, note=72, velocity=64, time=0),\n",
       "   Message('note_on', channel=0, note=57, velocity=0, time=33),\n",
       "   Message('note_on', channel=0, note=72, velocity=0, time=271),\n",
       "   Message('note_on', channel=0, note=60, velocity=0, time=4),\n",
       "   Message('note_on', channel=0, note=53, velocity=75, time=4),\n",
       "   Message('control_change', channel=0, control=64, value=127, time=145),\n",
       "   Message('control_change', channel=0, control=64, value=0, time=70),\n",
       "   Message('note_on', channel=0, note=48, velocity=49, time=80),\n",
       "   Message('note_on', channel=0, note=56, velocity=72, time=5),\n",
       "   Message('note_on', channel=0, note=68, velocity=58, time=2),\n",
       "   Message('note_on', channel=0, note=48, velocity=0, time=5),\n",
       "   Message('note_on', channel=0, note=53, velocity=0, time=21),\n",
       "   Message('note_on', channel=0, note=69, velocity=61, time=276),\n",
       "   Message('note_on', channel=0, note=57, velocity=74, time=0),\n",
       "   Message('note_on', channel=0, note=68, velocity=0, time=18),\n",
       "   Message('note_on', channel=0, note=56, velocity=0, time=7),\n",
       "   Message('note_on', channel=0, note=69, velocity=0, time=553),\n",
       "   Message('note_on', channel=0, note=55, velocity=80, time=12),\n",
       "   Message('note_on', channel=0, note=67, velocity=65, time=4),\n",
       "   Message('note_on', channel=0, note=67, velocity=0, time=7),\n",
       "   Message('control_change', channel=0, control=64, value=127, time=0),\n",
       "   Message('control_change', channel=0, control=64, value=0, time=27),\n",
       "   Message('note_on', channel=0, note=57, velocity=0, time=10),\n",
       "   Message('note_on', channel=0, note=58, velocity=81, time=252),\n",
       "   Message('note_on', channel=0, note=70, velocity=71, time=1),\n",
       "   Message('note_on', channel=0, note=55, velocity=0, time=57),\n",
       "   Message('note_on', channel=0, note=59, velocity=83, time=211),\n",
       "   Message('note_on', channel=0, note=71, velocity=75, time=1),\n",
       "   Message('note_on', channel=0, note=58, velocity=0, time=27),\n",
       "   Message('note_on', channel=0, note=70, velocity=0, time=21),\n",
       "   Message('note_on', channel=0, note=59, velocity=0, time=238),\n",
       "   Message('note_on', channel=0, note=74, velocity=76, time=4),\n",
       "   Message('note_on', channel=0, note=62, velocity=86, time=1),\n",
       "   Message('note_on', channel=0, note=59, velocity=76, time=0),\n",
       "   Message('note_on', channel=0, note=59, velocity=0, time=43),\n",
       "   Message('note_on', channel=0, note=71, velocity=0, time=29),\n",
       "   Message('note_on', channel=0, note=74, velocity=0, time=177),\n",
       "   Message('note_on', channel=0, note=55, velocity=80, time=58),\n",
       "   Message('note_on', channel=0, note=62, velocity=0, time=100),\n",
       "   Message('control_change', channel=0, control=64, value=127, time=141),\n",
       "   Message('note_on', channel=0, note=58, velocity=84, time=53),\n",
       "   Message('note_on', channel=0, note=70, velocity=75, time=1),\n",
       "   Message('control_change', channel=0, control=64, value=0, time=0),\n",
       "   Message('note_on', channel=0, note=55, velocity=0, time=47),\n",
       "   Message('control_change', channel=0, control=64, value=127, time=153),\n",
       "   Message('note_on', channel=0, note=59, velocity=85, time=110),\n",
       "   Message('note_on', channel=0, note=71, velocity=76, time=1),\n",
       "   Message('note_on', channel=0, note=70, velocity=0, time=4),\n",
       "   Message('control_change', channel=0, control=64, value=0, time=28),\n",
       "   Message('note_on', channel=0, note=58, velocity=0, time=16),\n",
       "   Message('control_change', channel=0, control=64, value=127, time=217),\n",
       "   Message('control_change', channel=0, control=64, value=0, time=342),\n",
       "   Message('note_on', channel=0, note=72, velocity=79, time=22),\n",
       "   Message('note_on', channel=0, note=60, velocity=84, time=1),\n",
       "   Message('note_on', channel=0, note=71, velocity=0, time=73),\n",
       "   Message('note_on', channel=0, note=59, velocity=0, time=38),\n",
       "   Message('control_change', channel=0, control=64, value=127, time=92),\n",
       "   Message('note_on', channel=0, note=55, velocity=74, time=418),\n",
       "   Message('control_change', channel=0, control=64, value=0, time=28),\n",
       "   Message('note_on', channel=0, note=60, velocity=0, time=69),\n",
       "   Message('control_change', channel=0, control=64, value=127, time=123),\n",
       "   Message('control_change', channel=0, control=64, value=0, time=397),\n",
       "   Message('note_on', channel=0, note=72, velocity=0, time=2),\n",
       "   Message('note_on', channel=0, note=72, velocity=74, time=8),\n",
       "   Message('note_on', channel=0, note=60, velocity=78, time=1),\n",
       "   Message('note_on', channel=0, note=55, velocity=0, time=101),\n",
       "   Message('control_change', channel=0, control=64, value=127, time=67),\n",
       "   Message('control_change', channel=0, control=64, value=0, time=922),\n",
       "   Message('note_on', channel=0, note=72, velocity=0, time=11),\n",
       "   Message('note_on', channel=0, note=60, velocity=0, time=4),\n",
       "   Message('note_on', channel=0, note=79, velocity=88, time=2442),\n",
       "   Message('note_on', channel=0, note=51, velocity=79, time=1),\n",
       "   Message('note_on', channel=0, note=67, velocity=93, time=0),\n",
       "   Message('note_on', channel=0, note=79, velocity=0, time=68),\n",
       "   Message('control_change', channel=0, control=64, value=127, time=77),\n",
       "   Message('note_on', channel=0, note=77, velocity=75, time=172),\n",
       "   Message('note_on', channel=0, note=65, velocity=81, time=0),\n",
       "   Message('note_on', channel=0, note=77, velocity=0, time=4),\n",
       "   Message('control_change', channel=0, control=64, value=0, time=46),\n",
       "   Message('note_on', channel=0, note=67, velocity=0, time=4),\n",
       "   Message('note_on', channel=0, note=63, velocity=82, time=257),\n",
       "   Message('note_on', channel=0, note=75, velocity=71, time=3),\n",
       "   Message('note_on', channel=0, note=65, velocity=0, time=55),\n",
       "   Message('control_change', channel=0, control=64, value=127, time=81),\n",
       "   Message('note_on', channel=0, note=75, velocity=0, time=146),\n",
       "   Message('note_on', channel=0, note=62, velocity=75, time=24),\n",
       "   Message('control_change', channel=0, control=64, value=0, time=60),\n",
       "   Message('note_on', channel=0, note=63, velocity=0, time=8),\n",
       "   Message('note_on', channel=0, note=51, velocity=0, time=15),\n",
       "   Message('control_change', channel=0, control=64, value=127, time=146),\n",
       "   Message('control_change', channel=0, control=64, value=0, time=39),\n",
       "   Message('note_on', channel=0, note=48, velocity=71, time=27),\n",
       "   Message('note_on', channel=0, note=75, velocity=75, time=16),\n",
       "   Message('note_on', channel=0, note=63, velocity=80, time=2),\n",
       "   Message('note_on', channel=0, note=62, velocity=0, time=54),\n",
       "   Message('control_change', channel=0, control=64, value=127, time=146),\n",
       "   Message('note_on', channel=0, note=75, velocity=0, time=377),\n",
       "   Message('note_on', channel=0, note=72, velocity=68, time=11),\n",
       "   Message('note_on', channel=0, note=60, velocity=72, time=2),\n",
       "   Message('note_on', channel=0, note=72, velocity=0, time=2),\n",
       "   Message('control_change', channel=0, control=64, value=0, time=54),\n",
       "   Message('control_change', channel=0, control=64, value=127, time=84),\n",
       "   Message('note_on', channel=0, note=48, velocity=0, time=369),\n",
       "   Message('note_on', channel=0, note=63, velocity=0, time=100),\n",
       "   Message('note_on', channel=0, note=62, velocity=72, time=1),\n",
       "   Message('control_change', channel=0, control=64, value=0, time=25),\n",
       "   Message('note_on', channel=0, note=60, velocity=0, time=63),\n",
       "   Message('control_change', channel=0, control=64, value=127, time=95),\n",
       "   Message('note_on', channel=0, note=55, velocity=70, time=401),\n",
       "   Message('control_change', channel=0, control=64, value=0, time=1),\n",
       "   Message('control_change', channel=0, control=64, value=127, time=143),\n",
       "   Message('note_on', channel=0, note=62, velocity=0, time=2),\n",
       "   Message('control_change', channel=0, control=64, value=0, time=425),\n",
       "   Message('note_on', channel=0, note=72, velocity=71, time=8),\n",
       "   Message('note_on', channel=0, note=60, velocity=73, time=3),\n",
       "   Message('note_on', channel=0, note=55, velocity=0, time=97),\n",
       "   Message('control_change', channel=0, control=64, value=127, time=72),\n",
       "   Message('note_on', channel=0, note=72, velocity=0, time=484),\n",
       "   Message('note_on', channel=0, note=60, velocity=0, time=484),\n",
       "   Message('note_on', channel=0, note=62, velocity=70, time=4),\n",
       "   Message('note_on', channel=0, note=60, velocity=59, time=3),\n",
       "   Message('note_on', channel=0, note=53, velocity=66, time=1),\n",
       "   Message('control_change', channel=0, control=64, value=0, time=87),\n",
       "   Message('control_change', channel=0, control=64, value=127, time=5),\n",
       "   Message('note_on', channel=0, note=53, velocity=0, time=192),\n",
       "   Message('note_on', channel=0, note=53, velocity=55, time=4),\n",
       "   Message('note_on', channel=0, note=63, velocity=82, time=1),\n",
       "   Message('control_change', channel=0, control=64, value=0, time=48),\n",
       "   Message('note_on', channel=0, note=60, velocity=0, time=39),\n",
       "   Message('note_on', channel=0, note=62, velocity=0, time=19),\n",
       "   Message('control_change', channel=0, control=64, value=127, time=34),\n",
       "   Message('note_on', channel=0, note=53, velocity=0, time=154),\n",
       "   Message('note_on', channel=0, note=65, velocity=84, time=5),\n",
       "   Message('note_on', channel=0, note=53, velocity=54, time=1),\n",
       "   Message('control_change', channel=0, control=64, value=0, time=76),\n",
       "   Message('note_on', channel=0, note=63, velocity=0, time=7),\n",
       "   Message('note_on', channel=0, note=62, velocity=81, time=197),\n",
       "   Message('note_on', channel=0, note=53, velocity=0, time=55),\n",
       "   Message('note_on', channel=0, note=65, velocity=0, time=22),\n",
       "   Message('note_on', channel=0, note=48, velocity=72, time=202),\n",
       "   Message('note_on', channel=0, note=63, velocity=84, time=7),\n",
       "   Message('note_on', channel=0, note=75, velocity=76, time=0),\n",
       "   Message('note_on', channel=0, note=62, velocity=0, time=109),\n",
       "   Message('control_change', channel=0, control=64, value=127, time=102),\n",
       "   Message('note_on', channel=0, note=72, velocity=72, time=372),\n",
       "   Message('note_on', channel=0, note=60, velocity=77, time=1),\n",
       "   Message('control_change', channel=0, control=64, value=0, time=40),\n",
       "   Message('note_on', channel=0, note=75, velocity=0, time=71),\n",
       "   Message('control_change', channel=0, control=64, value=127, time=23),\n",
       "   Message('note_on', channel=0, note=60, velocity=0, time=423),\n",
       "   Message('note_on', channel=0, note=62, velocity=75, time=5),\n",
       "   Message('note_on', channel=0, note=60, velocity=66, time=1),\n",
       "   Message('note_on', channel=0, note=63, velocity=0, time=24),\n",
       "   Message('control_change', channel=0, control=64, value=0, time=23),\n",
       "   Message('note_on', channel=0, note=48, velocity=0, time=10),\n",
       "   Message('note_on', channel=0, note=60, velocity=0, time=0),\n",
       "   Message('note_on', channel=0, note=72, velocity=0, time=6),\n",
       "   Message('control_change', channel=0, control=64, value=127, time=200),\n",
       "   Message('note_on', channel=0, note=55, velocity=71, time=328),\n",
       "   Message('control_change', channel=0, control=64, value=0, time=57),\n",
       "   Message('note_on', channel=0, note=62, velocity=0, time=42),\n",
       "   Message('control_change', channel=0, control=64, value=127, time=110),\n",
       "   Message('note_on', channel=0, note=60, velocity=73, time=366),\n",
       "   Message('note_on', channel=0, note=55, velocity=0, time=3),\n",
       "   Message('note_on', channel=0, note=55, velocity=55, time=6),\n",
       "   Message('note_on', channel=0, note=51, velocity=68, time=6),\n",
       "   Message('control_change', channel=0, control=64, value=0, time=31),\n",
       "   Message('note_on', channel=0, note=55, velocity=0, time=119),\n",
       "   Message('control_change', channel=0, control=64, value=127, time=598),\n",
       "   Message('control_change', channel=0, control=64, value=0, time=92),\n",
       "   Message('note_on', channel=0, note=51, velocity=0, time=276),\n",
       "   Message('note_on', channel=0, note=60, velocity=0, time=20),\n",
       "   Message('note_on', channel=0, note=79, velocity=85, time=4571),\n",
       "   Message('note_on', channel=0, note=52, velocity=86, time=0),\n",
       "   Message('note_on', channel=0, note=67, velocity=92, time=2),\n",
       "   Message('note_on', channel=0, note=79, velocity=0, time=8),\n",
       "   Message('control_change', channel=0, control=64, value=127, time=146),\n",
       "   Message('note_on', channel=0, note=65, velocity=86, time=417),\n",
       "   Message('control_change', channel=0, control=64, value=0, time=32),\n",
       "   Message('note_on', channel=0, note=67, velocity=0, time=23),\n",
       "   Message('control_change', channel=0, control=64, value=127, time=173),\n",
       "   Message('note_on', channel=0, note=64, velocity=89, time=305),\n",
       "   Message('note_on', channel=0, note=55, velocity=77, time=2),\n",
       "   Message('note_on', channel=0, note=76, velocity=78, time=0),\n",
       "   Message('control_change', channel=0, control=64, value=0, time=65),\n",
       "   Message('note_on', channel=0, note=52, velocity=0, time=11),\n",
       "   Message('note_on', channel=0, note=65, velocity=0, time=5),\n",
       "   Message('control_change', channel=0, control=64, value=127, time=157),\n",
       "   Message('note_on', channel=0, note=76, velocity=0, time=162),\n",
       "   Message('note_on', channel=0, note=65, velocity=80, time=180),\n",
       "   Message('note_on', channel=0, note=77, velocity=70, time=0),\n",
       "   Message('control_change', channel=0, control=64, value=0, time=51),\n",
       "   Message('note_on', channel=0, note=64, velocity=0, time=1),\n",
       "   Message('note_on', channel=0, note=77, velocity=0, time=182),\n",
       "   Message('control_change', channel=0, control=64, value=127, time=23),\n",
       "   Message('note_on', channel=0, note=63, velocity=75, time=319),\n",
       "   Message('note_on', channel=0, note=75, velocity=70, time=1),\n",
       "   Message('note_on', channel=0, note=48, velocity=63, time=24),\n",
       "   Message('note_on', channel=0, note=55, velocity=0, time=36),\n",
       "   Message('note_on', channel=0, note=65, velocity=0, time=4),\n",
       "   Message('control_change', channel=0, control=64, value=0, time=14),\n",
       "   Message('note_on', channel=0, note=64, velocity=89, time=198),\n",
       "   Message('note_on', channel=0, note=76, velocity=76, time=0),\n",
       "   Message('note_on', channel=0, note=63, velocity=0, time=37),\n",
       "   Message('note_on', channel=0, note=75, velocity=0, time=5),\n",
       "   Message('note_on', channel=0, note=63, velocity=83, time=227),\n",
       "   Message('note_on', channel=0, note=75, velocity=77, time=1),\n",
       "   Message('note_on', channel=0, note=48, velocity=0, time=44),\n",
       "   Message('note_on', channel=0, note=64, velocity=0, time=39),\n",
       "   Message('note_on', channel=0, note=76, velocity=0, time=4),\n",
       "   Message('note_on', channel=0, note=64, velocity=85, time=180),\n",
       "   Message('note_on', channel=0, note=76, velocity=70, time=5),\n",
       "   Message('note_on', channel=0, note=76, velocity=0, time=7),\n",
       "   Message('note_on', channel=0, note=75, velocity=0, time=192),\n",
       "   Message('note_on', channel=0, note=63, velocity=0, time=7),\n",
       "   Message('note_on', channel=0, note=72, velocity=66, time=69),\n",
       "   Message('note_on', channel=0, note=60, velocity=73, time=3),\n",
       "   Message('note_on', channel=0, note=52, velocity=61, time=2),\n",
       "   Message('note_on', channel=0, note=52, velocity=0, time=1050),\n",
       "   Message('note_on', channel=0, note=64, velocity=0, time=13),\n",
       "   Message('note_on', channel=0, note=60, velocity=0, time=10),\n",
       "   Message('note_on', channel=0, note=72, velocity=0, time=13),\n",
       "   Message('note_on', channel=0, note=79, velocity=70, time=3335),\n",
       "   Message('note_on', channel=0, note=67, velocity=76, time=1),\n",
       "   Message('note_on', channel=0, note=81, velocity=80, time=276),\n",
       "   Message('note_on', channel=0, note=69, velocity=85, time=1),\n",
       "   Message('note_on', channel=0, note=67, velocity=0, time=37),\n",
       "   Message('note_on', channel=0, note=79, velocity=0, time=36),\n",
       "   Message('note_on', channel=0, note=71, velocity=91, time=183),\n",
       "   Message('note_on', channel=0, note=69, velocity=0, time=37),\n",
       "   Message('note_on', channel=0, note=81, velocity=0, time=88),\n",
       "   Message('note_on', channel=0, note=72, velocity=89, time=126),\n",
       "   Message('note_on', channel=0, note=71, velocity=0, time=48),\n",
       "   Message('note_on', channel=0, note=74, velocity=85, time=215),\n",
       "   Message('note_on', channel=0, note=72, velocity=0, time=43),\n",
       "   Message('note_on', channel=0, note=72, velocity=85, time=208),\n",
       "   Message('note_on', channel=0, note=74, velocity=0, time=57),\n",
       "   Message('note_on', channel=0, note=71, velocity=81, time=221),\n",
       "   Message('note_on', channel=0, note=72, velocity=0, time=86),\n",
       "   Message('note_on', channel=0, note=81, velocity=68, time=189),\n",
       "   Message('note_on', channel=0, note=69, velocity=72, time=1),\n",
       "   Message('note_on', channel=0, note=71, velocity=0, time=58),\n",
       "   Message('note_on', channel=0, note=79, velocity=73, time=204),\n",
       "   Message('note_on', channel=0, note=67, velocity=79, time=1),\n",
       "   Message('note_on', channel=0, note=55, velocity=60, time=5),\n",
       "   Message('note_on', channel=0, note=69, velocity=0, time=39),\n",
       "   Message('note_on', channel=0, note=81, velocity=0, time=27),\n",
       "   Message('note_on', channel=0, note=57, velocity=68, time=181),\n",
       "   Message('note_on', channel=0, note=55, velocity=0, time=61),\n",
       "   Message('note_on', channel=0, note=59, velocity=82, time=208),\n",
       "   Message('note_on', channel=0, note=71, velocity=75, time=0),\n",
       "   Message('note_on', channel=0, note=57, velocity=0, time=50),\n",
       "   Message('note_on', channel=0, note=79, velocity=0, time=176),\n",
       "   Message('note_on', channel=0, note=72, velocity=79, time=19),\n",
       "   Message('note_on', channel=0, note=60, velocity=83, time=0),\n",
       "   Message('note_on', channel=0, note=59, velocity=0, time=38),\n",
       "   Message('note_on', channel=0, note=71, velocity=0, time=58),\n",
       "   Message('note_on', channel=0, note=74, velocity=89, time=157),\n",
       "   Message('note_on', channel=0, note=62, velocity=73, time=7),\n",
       "   Message('note_on', channel=0, note=67, velocity=0, time=39),\n",
       "   Message('note_on', channel=0, note=60, velocity=0, time=24),\n",
       "   Message('note_on', channel=0, note=72, velocity=0, time=11),\n",
       "   Message('note_on', channel=0, note=72, velocity=69, time=184),\n",
       "   Message('note_on', channel=0, note=60, velocity=77, time=2),\n",
       "   Message('note_on', channel=0, note=62, velocity=0, time=81),\n",
       "   Message('note_on', channel=0, note=59, velocity=75, time=176),\n",
       "   Message('note_on', channel=0, note=71, velocity=67, time=1),\n",
       "   Message('note_on', channel=0, note=60, velocity=0, time=42),\n",
       "   Message('note_on', channel=0, note=72, velocity=0, time=36),\n",
       "   Message('note_on', channel=0, note=57, velocity=64, time=171),\n",
       "   Message('note_on', channel=0, note=59, velocity=0, time=40),\n",
       "   Message('note_on', channel=0, note=79, velocity=69, time=219),\n",
       "   Message('note_on', channel=0, note=67, velocity=74, time=1),\n",
       "   Message('note_on', channel=0, note=55, velocity=61, time=5),\n",
       "   Message('note_on', channel=0, note=57, velocity=0, time=50),\n",
       "   Message('note_on', channel=0, note=71, velocity=0, time=44),\n",
       "   Message('note_on', channel=0, note=81, velocity=68, time=170),\n",
       "   Message('note_on', channel=0, note=69, velocity=72, time=2),\n",
       "   Message('note_on', channel=0, note=74, velocity=0, time=43),\n",
       "   Message('note_on', channel=0, note=67, velocity=0, time=28),\n",
       "   Message('note_on', channel=0, note=79, velocity=0, time=26),\n",
       "   Message('note_on', channel=0, note=55, velocity=0, time=58),\n",
       "   Message('note_on', channel=0, note=71, velocity=86, time=99),\n",
       "   Message('note_on', channel=0, note=69, velocity=0, time=82),\n",
       "   Message('note_on', channel=0, note=81, velocity=0, time=160),\n",
       "   Message('note_on', channel=0, note=72, velocity=89, time=17),\n",
       "   Message('note_on', channel=0, note=71, velocity=0, time=48),\n",
       "   Message('note_on', channel=0, note=74, velocity=90, time=198),\n",
       "   Message('note_on', channel=0, note=72, velocity=0, time=57),\n",
       "   Message('note_on', channel=0, note=72, velocity=85, time=212),\n",
       "   Message('note_on', channel=0, note=74, velocity=0, time=74),\n",
       "   Message('note_on', channel=0, note=71, velocity=87, time=166),\n",
       "   Message('note_on', channel=0, note=72, velocity=0, time=86),\n",
       "   Message('note_on', channel=0, note=81, velocity=79, time=182),\n",
       "   Message('note_on', channel=0, note=69, velocity=87, time=1),\n",
       "   Message('note_on', channel=0, note=71, velocity=0, time=63),\n",
       "   Message('note_on', channel=0, note=79, velocity=78, time=189),\n",
       "   Message('note_on', channel=0, note=67, velocity=85, time=2),\n",
       "   Message('note_on', channel=0, note=62, velocity=66, time=21),\n",
       "   Message('note_on', channel=0, note=69, velocity=0, time=12),\n",
       "   Message('note_on', channel=0, note=81, velocity=0, time=201),\n",
       "   Message('note_on', channel=0, note=60, velocity=74, time=24),\n",
       "   Message('note_on', channel=0, note=62, velocity=0, time=83),\n",
       "   Message('note_on', channel=0, note=59, velocity=75, time=158),\n",
       "   Message('note_on', channel=0, note=60, velocity=0, time=45),\n",
       "   Message('note_on', channel=0, note=57, velocity=67, time=227),\n",
       "   Message('note_on', channel=0, note=59, velocity=0, time=36),\n",
       "   Message('note_on', channel=0, note=55, velocity=63, time=251),\n",
       "   Message('note_on', channel=0, note=57, velocity=0, time=34),\n",
       "   Message('note_on', channel=0, note=79, velocity=0, time=140),\n",
       "   Message('note_on', channel=0, note=55, velocity=0, time=746),\n",
       "   Message('note_on', channel=0, note=67, velocity=0, time=10),\n",
       "   Message('note_on', channel=0, note=74, velocity=93, time=1858),\n",
       "   Message('note_on', channel=0, note=71, velocity=81, time=2),\n",
       "   Message('note_on', channel=0, note=59, velocity=82, time=3),\n",
       "   Message('note_on', channel=0, note=71, velocity=0, time=8),\n",
       "   Message('note_on', channel=0, note=71, velocity=77, time=272),\n",
       "   Message('note_on', channel=0, note=74, velocity=0, time=54),\n",
       "   Message('note_on', channel=0, note=71, velocity=0, time=16),\n",
       "   Message('note_on', channel=0, note=59, velocity=0, time=226),\n",
       "   Message('note_on', channel=0, note=59, velocity=60, time=5),\n",
       "   Message('note_on', channel=0, note=71, velocity=86, time=2),\n",
       "   Message('note_on', channel=0, note=62, velocity=66, time=8),\n",
       "   Message('control_change', channel=0, control=64, value=127, time=54),\n",
       "   Message('control_change', channel=0, control=64, value=0, time=85),\n",
       "   Message('note_on', channel=0, note=59, velocity=0, time=23),\n",
       "   Message('note_on', channel=0, note=67, velocity=63, time=116),\n",
       "   Message('note_on', channel=0, note=67, velocity=0, time=94),\n",
       "   Message('note_on', channel=0, note=71, velocity=0, time=28),\n",
       "   Message('note_on', channel=0, note=81, velocity=74, time=171),\n",
       "   Message('note_on', channel=0, note=69, velocity=79, time=2),\n",
       "   Message('note_on', channel=0, note=60, velocity=73, time=1),\n",
       "   Message('note_on', channel=0, note=62, velocity=0, time=79),\n",
       "   Message('note_on', channel=0, note=81, velocity=0, time=23),\n",
       "   Message('note_on', channel=0, note=71, velocity=88, time=167),\n",
       "   Message('note_on', channel=0, note=69, velocity=0, time=48),\n",
       "   Message('note_on', channel=0, note=72, velocity=79, time=248),\n",
       "   Message('note_on', channel=0, note=71, velocity=0, time=62),\n",
       "   Message('note_on', channel=0, note=72, velocity=0, time=292),\n",
       "   Message('note_on', channel=0, note=72, velocity=88, time=208),\n",
       "   Message('note_on', channel=0, note=57, velocity=65, time=2),\n",
       "   Message('note_on', channel=0, note=60, velocity=0, time=24),\n",
       "   Message('note_on', channel=0, note=72, velocity=0, time=263),\n",
       "   Message('note_on', channel=0, note=69, velocity=61, time=3),\n",
       "   Message('note_on', channel=0, note=72, velocity=49, time=2),\n",
       "   Message('note_on', channel=0, note=69, velocity=0, time=45),\n",
       "   Message('note_on', channel=0, note=72, velocity=0, time=11),\n",
       "   Message('note_on', channel=0, note=72, velocity=44, time=9),\n",
       "   Message('note_on', channel=0, note=72, velocity=0, time=18),\n",
       "   Message('note_on', channel=0, note=57, velocity=0, time=180),\n",
       "   Message('note_on', channel=0, note=57, velocity=53, time=9),\n",
       "   Message('note_on', channel=0, note=81, velocity=75, time=2),\n",
       "   Message('note_on', channel=0, note=60, velocity=66, time=1),\n",
       "   Message('note_on', channel=0, note=69, velocity=79, time=0),\n",
       "   Message('note_on', channel=0, note=57, velocity=0, time=28),\n",
       "   Message('control_change', channel=0, control=64, value=127, time=152),\n",
       "   Message('note_on', channel=0, note=72, velocity=60, time=104),\n",
       "   Message('control_change', channel=0, control=64, value=0, time=66),\n",
       "   Message('note_on', channel=0, note=69, velocity=0, time=9),\n",
       "   Message('note_on', channel=0, note=72, velocity=0, time=10),\n",
       "   Message('note_on', channel=0, note=81, velocity=0, time=72),\n",
       "   Message('note_on', channel=0, note=71, velocity=76, time=135),\n",
       "   Message('note_on', channel=0, note=60, velocity=0, time=27),\n",
       "   Message('note_on', channel=0, note=60, velocity=45, time=7),\n",
       "   Message('note_on', channel=0, note=62, velocity=46, time=6),\n",
       "   Message('note_on', channel=0, note=60, velocity=0, time=71),\n",
       "   Message('note_on', channel=0, note=72, velocity=87, time=167),\n",
       "   Message('note_on', channel=0, note=71, velocity=0, time=52),\n",
       "   Message('note_on', channel=0, note=74, velocity=79, time=231),\n",
       "   Message('note_on', channel=0, note=72, velocity=0, time=84),\n",
       "   Message('note_on', channel=0, note=74, velocity=0, time=234),\n",
       "   Message('note_on', channel=0, note=74, velocity=35, time=11),\n",
       "   Message('note_on', channel=0, note=74, velocity=0, time=43),\n",
       "   Message('note_on', channel=0, note=74, velocity=87, time=173),\n",
       "   Message('note_on', channel=0, note=59, velocity=70, time=1),\n",
       "   Message('note_on', channel=0, note=71, velocity=61, time=289),\n",
       "   Message('note_on', channel=0, note=74, velocity=0, time=40),\n",
       "   Message('note_on', channel=0, note=71, velocity=0, time=21),\n",
       "   Message('note_on', channel=0, note=62, velocity=0, time=52),\n",
       "   Message('note_on', channel=0, note=71, velocity=73, time=165),\n",
       "   Message('note_on', channel=0, note=62, velocity=57, time=1),\n",
       "   Message('note_on', channel=0, note=59, velocity=0, time=135),\n",
       "   Message('note_on', channel=0, note=67, velocity=59, time=135),\n",
       "   Message('note_on', channel=0, note=67, velocity=0, time=97),\n",
       "   Message('note_on', channel=0, note=71, velocity=0, time=8),\n",
       "   Message('note_on', channel=0, note=69, velocity=75, time=174),\n",
       "   Message('note_on', channel=0, note=60, velocity=67, time=3),\n",
       "   Message('note_on', channel=0, note=62, velocity=0, time=42),\n",
       "   Message('control_change', channel=0, control=64, value=127, time=23),\n",
       "   Message('note_on', channel=0, note=71, velocity=85, time=189),\n",
       "   Message('control_change', channel=0, control=64, value=0, time=11),\n",
       "   Message('note_on', channel=0, note=69, velocity=0, time=19),\n",
       "   Message('note_on', channel=0, note=72, velocity=76, time=272),\n",
       "   Message('note_on', channel=0, note=71, velocity=0, time=107),\n",
       "   Message('note_on', channel=0, note=72, velocity=0, time=236),\n",
       "   Message('note_on', channel=0, note=72, velocity=81, time=230),\n",
       "   Message('note_on', channel=0, note=57, velocity=58, time=4),\n",
       "   Message('note_on', channel=0, note=60, velocity=0, time=35),\n",
       "   Message('control_change', channel=0, control=64, value=127, time=34),\n",
       "   Message('note_on', channel=0, note=69, velocity=66, time=187),\n",
       "   Message('control_change', channel=0, control=64, value=0, time=81),\n",
       "   Message('note_on', channel=0, note=69, velocity=0, time=9),\n",
       "   Message('note_on', channel=0, note=72, velocity=0, time=4),\n",
       "   Message('note_on', channel=0, note=69, velocity=74, time=184),\n",
       "   Message('note_on', channel=0, note=60, velocity=63, time=5),\n",
       "   Message('note_on', channel=0, note=57, velocity=0, time=33),\n",
       "   Message('control_change', channel=0, control=64, value=127, time=27),\n",
       "   Message('note_on', channel=0, note=71, velocity=56, time=206),\n",
       "   Message('note_on', channel=0, note=69, velocity=0, time=59),\n",
       "   Message('control_change', channel=0, control=64, value=0, time=10),\n",
       "   Message('note_on', channel=0, note=71, velocity=0, time=42),\n",
       "   Message('note_on', channel=0, note=67, velocity=66, time=202),\n",
       "   Message('note_on', channel=0, note=59, velocity=49, time=6),\n",
       "   Message('note_on', channel=0, note=60, velocity=0, time=105),\n",
       "   Message('control_change', channel=0, control=64, value=127, time=192),\n",
       "   Message('note_on', channel=0, note=59, velocity=0, time=912),\n",
       "   Message('control_change', channel=0, control=64, value=0, time=4),\n",
       "   Message('note_on', channel=0, note=67, velocity=0, time=0),\n",
       "   Message('note_on', channel=0, note=74, velocity=92, time=5413),\n",
       "   Message('note_on', channel=0, note=55, velocity=63, time=7),\n",
       "   Message('note_on', channel=0, note=59, velocity=72, time=288),\n",
       "   Message('note_on', channel=0, note=71, velocity=59, time=1),\n",
       "   Message('note_on', channel=0, note=55, velocity=0, time=140),\n",
       "   Message('note_on', channel=0, note=62, velocity=59, time=132),\n",
       "   Message('note_on', channel=0, note=59, velocity=0, time=31),\n",
       "   Message('note_on', channel=0, note=71, velocity=0, time=22),\n",
       "   Message('note_on', channel=0, note=71, velocity=72, time=195),\n",
       "   Message('note_on', channel=0, note=55, velocity=45, time=10),\n",
       "   Message('note_on', channel=0, note=62, velocity=0, time=129),\n",
       "   Message('note_on', channel=0, note=74, velocity=0, time=38),\n",
       "   Message('note_on', channel=0, note=71, velocity=0, time=73),\n",
       "   Message('note_on', channel=0, note=59, velocity=62, time=10),\n",
       "   Message('note_on', channel=0, note=71, velocity=56, time=1),\n",
       "   Message('note_on', channel=0, note=55, velocity=0, time=131),\n",
       "   Message('note_on', channel=0, note=71, velocity=0, time=50),\n",
       "   Message('note_on', channel=0, note=71, velocity=37, time=6),\n",
       "   Message('note_on', channel=0, note=71, velocity=0, time=48),\n",
       "   Message('note_on', channel=0, note=62, velocity=52, time=27),\n",
       "   Message('note_on', channel=0, note=59, velocity=0, time=96),\n",
       "   Message('note_on', channel=0, note=57, velocity=56, time=161),\n",
       "   Message('note_on', channel=0, note=72, velocity=87, time=20),\n",
       "   Message('note_on', channel=0, note=62, velocity=0, time=93),\n",
       "   Message('note_on', channel=0, note=59, velocity=71, time=150),\n",
       "   Message('note_on', channel=0, note=57, velocity=0, time=49),\n",
       "   Message('note_on', channel=0, note=60, velocity=76, time=215),\n",
       "   Message('note_on', channel=0, note=59, velocity=0, time=27),\n",
       "   Message('note_on', channel=0, note=71, velocity=77, time=211),\n",
       "   Message('note_on', channel=0, note=60, velocity=0, time=19),\n",
       "   Message('note_on', channel=0, note=60, velocity=52, time=5),\n",
       "   Message('note_on', channel=0, note=62, velocity=53, time=7),\n",
       "   Message('note_on', channel=0, note=60, velocity=0, time=54),\n",
       "   Message('note_on', channel=0, note=72, velocity=0, time=14),\n",
       "   Message('note_on', channel=0, note=69, velocity=61, time=428),\n",
       "   Message('note_on', channel=0, note=60, velocity=47, time=40),\n",
       "   Message('note_on', channel=0, note=71, velocity=0, time=57),\n",
       "   Message('note_on', channel=0, note=62, velocity=0, time=28),\n",
       "   Message('note_on', channel=0, note=74, velocity=84, time=161),\n",
       "   Message('note_on', channel=0, note=55, velocity=57, time=2),\n",
       "   Message('note_on', channel=0, note=60, velocity=0, time=43),\n",
       "   Message('note_on', channel=0, note=69, velocity=0, time=5),\n",
       "   Message('note_on', channel=0, note=59, velocity=62, time=215),\n",
       "   Message('note_on', channel=0, note=71, velocity=49, time=3),\n",
       "   Message('note_on', channel=0, note=55, velocity=0, time=107),\n",
       "   Message('note_on', channel=0, note=59, velocity=0, time=167),\n",
       "   Message('note_on', channel=0, note=62, velocity=56, time=3),\n",
       "   Message('note_on', channel=0, note=59, velocity=45, time=6),\n",
       "   Message('note_on', channel=0, note=59, velocity=0, time=51),\n",
       "   Message('note_on', channel=0, note=71, velocity=0, time=32),\n",
       "   Message('note_on', channel=0, note=71, velocity=67, time=167),\n",
       "   Message('note_on', channel=0, note=62, velocity=0, time=2),\n",
       "   Message('note_on', channel=0, note=55, velocity=44, time=4),\n",
       "   Message('note_on', channel=0, note=62, velocity=41, time=7),\n",
       "   Message('note_on', channel=0, note=62, velocity=0, time=99),\n",
       "   Message('note_on', channel=0, note=74, velocity=0, time=42),\n",
       "   Message('note_on', channel=0, note=59, velocity=55, time=120),\n",
       "   Message('note_on', channel=0, note=55, velocity=0, time=150),\n",
       "   Message('note_on', channel=0, note=47, velocity=32, time=118),\n",
       "   Message('note_on', channel=0, note=47, velocity=0, time=5),\n",
       "   Message('note_on', channel=0, note=71, velocity=0, time=1),\n",
       "   Message('note_on', channel=0, note=59, velocity=0, time=0),\n",
       "   Message('note_on', channel=0, note=62, velocity=46, time=3),\n",
       "   Message('note_on', channel=0, note=72, velocity=71, time=269),\n",
       "   Message('note_on', channel=0, note=57, velocity=53, time=0),\n",
       "   Message('note_on', channel=0, note=62, velocity=0, time=93),\n",
       "   Message('note_on', channel=0, note=57, velocity=0, time=134),\n",
       "   Message('note_on', channel=0, note=57, velocity=58, time=7),\n",
       "   Message('note_on', channel=0, note=71, velocity=83, time=4),\n",
       "   Message('note_on', channel=0, note=59, velocity=65, time=2),\n",
       "   Message('note_on', channel=0, note=72, velocity=0, time=28),\n",
       "   Message('note_on', channel=0, note=57, velocity=0, time=43),\n",
       "   Message('note_on', channel=0, note=69, velocity=80, time=182),\n",
       "   Message('note_on', channel=0, note=60, velocity=67, time=29),\n",
       "   Message('note_on', channel=0, note=59, velocity=0, time=40),\n",
       "   Message('note_on', channel=0, note=71, velocity=0, time=13),\n",
       "   Message('note_on', channel=0, note=67, velocity=65, time=210),\n",
       "   Message('note_on', channel=0, note=59, velocity=50, time=18),\n",
       "   Message('note_on', channel=0, note=60, velocity=0, time=63),\n",
       "   Message('note_on', channel=0, note=69, velocity=0, time=1),\n",
       "   Message('control_change', channel=0, control=64, value=127, time=166),\n",
       "   Message('note_on', channel=0, note=67, velocity=0, time=411),\n",
       "   Message('control_change', channel=0, control=64, value=0, time=11),\n",
       "   Message('note_on', channel=0, note=62, velocity=78, time=217),\n",
       "   Message('note_on', channel=0, note=74, velocity=71, time=1),\n",
       "   Message('note_on', channel=0, note=67, velocity=82, time=3),\n",
       "   Message('note_on', channel=0, note=59, velocity=0, time=18),\n",
       "   Message('note_on', channel=0, note=74, velocity=0, time=99),\n",
       "   Message('note_on', channel=0, note=71, velocity=59, time=158),\n",
       "   Message('note_on', channel=0, note=67, velocity=0, time=234),\n",
       "   Message('note_on', channel=0, note=74, velocity=64, time=17),\n",
       "   Message('note_on', channel=0, note=71, velocity=0, time=67),\n",
       "   Message('note_on', channel=0, note=74, velocity=0, time=162),\n",
       "   Message('note_on', channel=0, note=67, velocity=79, time=34),\n",
       "   Message('note_on', channel=0, note=59, velocity=79, time=5),\n",
       "   Message('note_on', channel=0, note=71, velocity=72, time=1),\n",
       "   Message('note_on', channel=0, note=62, velocity=0, time=99),\n",
       "   Message('note_on', channel=0, note=71, velocity=0, time=145),\n",
       "   Message('note_on', channel=0, note=73, velocity=54, time=5),\n",
       "   Message('note_on', channel=0, note=71, velocity=63, time=6),\n",
       "   Message('note_on', channel=0, note=73, velocity=0, time=104),\n",
       "   Message('note_on', channel=0, note=67, velocity=0, time=112),\n",
       "   Message('note_on', channel=0, note=71, velocity=0, time=42),\n",
       "   Message('note_on', channel=0, note=74, velocity=68, time=14),\n",
       "   Message('note_on', channel=0, note=71, velocity=31, time=29),\n",
       "   Message('note_on', channel=0, note=71, velocity=0, time=210),\n",
       "   Message('note_on', channel=0, note=60, velocity=79, time=15),\n",
       "   Message('note_on', channel=0, note=72, velocity=73, time=0),\n",
       "   Message('note_on', channel=0, note=69, velocity=82, time=2),\n",
       "   Message('note_on', channel=0, note=59, velocity=0, time=38),\n",
       "   Message('note_on', channel=0, note=74, velocity=0, time=2),\n",
       "   Message('note_on', channel=0, note=71, velocity=73, time=200),\n",
       "   Message('note_on', channel=0, note=69, velocity=0, time=108),\n",
       "   Message('note_on', channel=0, note=72, velocity=0, time=19),\n",
       "   Message('note_on', channel=0, note=72, velocity=82, time=144),\n",
       "   Message('note_on', channel=0, note=71, velocity=0, time=40),\n",
       "   Message('note_on', channel=0, note=74, velocity=82, time=222),\n",
       "   Message('note_on', channel=0, note=59, velocity=75, time=2),\n",
       "   Message('note_on', channel=0, note=71, velocity=73, time=1),\n",
       "   Message('note_on', channel=0, note=72, velocity=0, time=56),\n",
       "   Message('note_on', channel=0, note=60, velocity=0, time=32),\n",
       "   Message('note_on', channel=0, note=72, velocity=64, time=434),\n",
       "   Message('note_on', channel=0, note=60, velocity=45, time=33),\n",
       "   Message('note_on', channel=0, note=57, velocity=56, time=1),\n",
       "   Message('note_on', channel=0, note=74, velocity=0, time=17),\n",
       "   Message('note_on', channel=0, note=59, velocity=0, time=29),\n",
       "   Message('note_on', channel=0, note=71, velocity=0, time=18),\n",
       "   Message('note_on', channel=0, note=67, velocity=76, time=178),\n",
       "   Message('note_on', channel=0, note=74, velocity=64, time=2),\n",
       "   Message('note_on', channel=0, note=62, velocity=70, time=1),\n",
       "   Message('note_on', channel=0, note=72, velocity=0, time=38),\n",
       "   Message('note_on', channel=0, note=57, velocity=0, time=4),\n",
       "   Message('note_on', channel=0, note=60, velocity=0, time=131),\n",
       "   Message('note_on', channel=0, note=71, velocity=54, time=101),\n",
       "   Message('note_on', channel=0, note=74, velocity=0, time=22),\n",
       "   Message('note_on', channel=0, note=67, velocity=0, time=78),\n",
       "   Message('note_on', channel=0, note=74, velocity=60, time=163),\n",
       "   Message('note_on', channel=0, note=71, velocity=0, time=53),\n",
       "   Message('note_on', channel=0, note=67, velocity=78, time=197),\n",
       "   Message('note_on', channel=0, note=59, velocity=75, time=12),\n",
       "   Message('note_on', channel=0, note=71, velocity=70, time=6),\n",
       "   Message('note_on', channel=0, note=74, velocity=0, time=75),\n",
       "   Message('note_on', channel=0, note=62, velocity=0, time=4),\n",
       "   Message('note_on', channel=0, note=71, velocity=0, time=195),\n",
       "   Message('note_on', channel=0, note=71, velocity=42, time=4),\n",
       "   Message('note_on', channel=0, note=67, velocity=0, time=121),\n",
       "   Message('note_on', channel=0, note=74, velocity=62, time=117),\n",
       "   Message('note_on', channel=0, note=81, velocity=62, time=254),\n",
       "   Message('note_on', channel=0, note=69, velocity=69, time=5),\n",
       "   Message('note_on', channel=0, note=81, velocity=0, time=6),\n",
       "   Message('note_on', channel=0, note=72, velocity=54, time=13),\n",
       "   Message('note_on', channel=0, note=60, velocity=63, time=5),\n",
       "   Message('note_on', channel=0, note=71, velocity=0, time=28),\n",
       "   Message('note_on', channel=0, note=74, velocity=0, time=5),\n",
       "   Message('note_on', channel=0, note=59, velocity=0, time=12),\n",
       "   Message('note_on', channel=0, note=72, velocity=0, time=144),\n",
       "   Message('note_on', channel=0, note=59, velocity=72, time=27),\n",
       "   Message('note_on', channel=0, note=71, velocity=78, time=3),\n",
       "   Message('note_on', channel=0, note=60, velocity=0, time=38),\n",
       "   Message('note_on', channel=0, note=69, velocity=0, time=52),\n",
       "   Message('note_on', channel=0, note=72, velocity=79, time=176),\n",
       "   Message('note_on', channel=0, note=57, velocity=65, time=2),\n",
       "   Message('note_on', channel=0, note=71, velocity=0, time=38),\n",
       "   Message('note_on', channel=0, note=59, velocity=0, time=3),\n",
       "   Message('note_on', channel=0, note=55, velocity=58, time=239),\n",
       "   Message('note_on', channel=0, note=71, velocity=67, time=3),\n",
       "   Message('note_on', channel=0, note=57, velocity=0, time=30),\n",
       "   Message('note_on', channel=0, note=72, velocity=0, time=64),\n",
       "   Message('note_on', channel=0, note=55, velocity=0, time=696),\n",
       "   Message('note_on', channel=0, note=71, velocity=0, time=61),\n",
       "   Message('note_on', channel=0, note=55, velocity=77, time=5482),\n",
       "   Message('note_on', channel=0, note=57, velocity=79, time=196),\n",
       "   Message('note_on', channel=0, note=55, velocity=0, time=56),\n",
       "   Message('note_on', channel=0, note=59, velocity=87, time=136),\n",
       "   Message('note_on', channel=0, note=57, velocity=0, time=52),\n",
       "   Message('note_on', channel=0, note=72, velocity=76, time=117),\n",
       "   Message('note_on', channel=0, note=60, velocity=82, time=3),\n",
       "   Message('note_on', channel=0, note=72, velocity=0, time=6),\n",
       "   Message('note_on', channel=0, note=59, velocity=0, time=58),\n",
       "   Message('note_on', channel=0, note=62, velocity=50, time=174),\n",
       "   Message('note_on', channel=0, note=60, velocity=0, time=65),\n",
       "   Message('note_on', channel=0, note=62, velocity=0, time=170),\n",
       "   Message('note_on', channel=0, note=79, velocity=76, time=159),\n",
       "   Message('note_on', channel=0, note=67, velocity=87, time=0),\n",
       "   Message('note_on', channel=0, note=81, velocity=80, time=185),\n",
       "   Message('note_on', channel=0, note=69, velocity=86, time=0),\n",
       "   Message('note_on', channel=0, note=67, velocity=0, time=56),\n",
       "   Message('note_on', channel=0, note=79, velocity=0, time=93),\n",
       "   Message('note_on', channel=0, note=71, velocity=92, time=42),\n",
       "   Message('note_on', channel=0, note=83, velocity=79, time=1),\n",
       "   Message('note_on', channel=0, note=83, velocity=0, time=11),\n",
       "   Message('note_on', channel=0, note=69, velocity=0, time=26),\n",
       "   Message('note_on', channel=0, note=81, velocity=0, time=89),\n",
       "   Message('note_on', channel=0, note=72, velocity=85, time=49),\n",
       "   Message('note_on', channel=0, note=71, velocity=0, time=27),\n",
       "   Message('note_on', channel=0, note=74, velocity=72, time=188),\n",
       "   Message('note_on', channel=0, note=72, velocity=0, time=63),\n",
       "   Message('note_on', channel=0, note=74, velocity=0, time=58),\n",
       "   Message('note_on', channel=0, note=81, velocity=76, time=272),\n",
       "   Message('note_on', channel=0, note=69, velocity=85, time=3),\n",
       "   Message('note_on', channel=0, note=60, velocity=71, time=13),\n",
       "   Message('control_change', channel=0, control=64, value=127, time=172),\n",
       "   Message('note_on', channel=0, note=81, velocity=0, time=192),\n",
       "   Message('note_on', channel=0, note=71, velocity=89, time=3),\n",
       "   Message('note_on', channel=0, note=62, velocity=70, time=2),\n",
       "   Message('note_on', channel=0, note=81, velocity=73, time=0),\n",
       "   Message('control_change', channel=0, control=64, value=0, time=13),\n",
       "   Message('note_on', channel=0, note=69, velocity=0, time=10),\n",
       "   Message('note_on', channel=0, note=60, velocity=0, time=2),\n",
       "   Message('note_on', channel=0, note=81, velocity=0, time=316),\n",
       "   Message('note_on', channel=0, note=81, velocity=77, time=43),\n",
       "   Message('note_on', channel=0, note=69, velocity=84, time=5),\n",
       "   Message('note_on', channel=0, note=72, velocity=68, time=2),\n",
       "   Message('note_on', channel=0, note=60, velocity=74, time=2),\n",
       "   Message('note_on', channel=0, note=71, velocity=0, time=76),\n",
       "   Message('note_on', channel=0, note=62, velocity=0, time=3),\n",
       "   Message('control_change', channel=0, control=64, value=127, time=130),\n",
       "   Message('control_change', channel=0, control=64, value=0, time=123),\n",
       "   Message('note_on', channel=0, note=79, velocity=73, time=48),\n",
       "   Message('note_on', channel=0, note=67, velocity=77, time=1),\n",
       "   Message('note_on', channel=0, note=59, velocity=66, time=7),\n",
       "   Message('note_on', channel=0, note=60, velocity=0, time=23),\n",
       "   Message('note_on', channel=0, note=72, velocity=0, time=5),\n",
       "   Message('note_on', channel=0, note=69, velocity=0, time=5),\n",
       "   Message('note_on', channel=0, note=81, velocity=0, time=11),\n",
       "   Message('control_change', channel=0, control=64, value=127, time=192),\n",
       "   Message('control_change', channel=0, control=64, value=0, time=148),\n",
       "   Message('note_on', channel=0, note=74, velocity=66, time=14),\n",
       "   Message('note_on', channel=0, note=79, velocity=0, time=58),\n",
       "   Message('note_on', channel=0, note=67, velocity=0, time=4),\n",
       "   Message('note_on', channel=0, note=74, velocity=0, time=78),\n",
       "   Message('note_on', channel=0, note=74, velocity=46, time=283),\n",
       "   Message('note_on', channel=0, note=74, velocity=0, time=46),\n",
       "   Message('note_on', channel=0, note=55, velocity=45, time=363),\n",
       "   Message('note_on', channel=0, note=59, velocity=0, time=18),\n",
       "   Message('note_on', channel=0, note=69, velocity=45, time=156),\n",
       "   Message('note_on', channel=0, note=57, velocity=56, time=0),\n",
       "   Message('note_on', channel=0, note=55, velocity=0, time=4),\n",
       "   Message('note_on', channel=0, note=69, velocity=0, time=3),\n",
       "   Message('note_on', channel=0, note=59, velocity=79, time=184),\n",
       "   Message('note_on', channel=0, note=71, velocity=72, time=2),\n",
       "   Message('note_on', channel=0, note=57, velocity=0, time=86),\n",
       "   Message('note_on', channel=0, note=72, velocity=71, time=80),\n",
       "   Message('note_on', channel=0, note=60, velocity=76, time=2),\n",
       "   Message('note_on', channel=0, note=59, velocity=0, time=109),\n",
       "   Message('note_on', channel=0, note=71, velocity=0, time=28),\n",
       "   Message('note_on', channel=0, note=62, velocity=53, time=105),\n",
       "   Message('note_on', channel=0, note=60, velocity=0, time=53),\n",
       "   Message('note_on', channel=0, note=72, velocity=0, time=11),\n",
       "   Message('note_on', channel=0, note=62, velocity=0, time=119),\n",
       "   Message('note_on', channel=0, note=79, velocity=65, time=193),\n",
       "   Message('note_on', channel=0, note=67, velocity=72, time=0),\n",
       "   Message('note_on', channel=0, note=81, velocity=78, time=184),\n",
       "   Message('note_on', channel=0, note=69, velocity=84, time=1),\n",
       "   Message('note_on', channel=0, note=67, velocity=0, time=93),\n",
       "   Message('note_on', channel=0, note=79, velocity=0, time=40),\n",
       "   Message('note_on', channel=0, note=71, velocity=92, time=55),\n",
       "   Message('note_on', channel=0, note=69, velocity=0, time=40),\n",
       "   Message('note_on', channel=0, note=81, velocity=0, time=97),\n",
       "   Message('note_on', channel=0, note=72, velocity=87, time=41),\n",
       "   Message('note_on', channel=0, note=71, velocity=0, time=21),\n",
       "   Message('note_on', channel=0, note=74, velocity=71, time=178),\n",
       "   Message('note_on', channel=0, note=72, velocity=0, time=79),\n",
       "   Message('note_on', channel=0, note=74, velocity=0, time=45),\n",
       "   Message('note_on', channel=0, note=81, velocity=72, time=248),\n",
       "   Message('note_on', channel=0, note=69, velocity=80, time=2),\n",
       "   Message('note_on', channel=0, note=60, velocity=62, time=29),\n",
       "   Message('control_change', channel=0, control=64, value=127, time=140),\n",
       "   Message('note_on', channel=0, note=71, velocity=90, time=205),\n",
       "   Message('note_on', channel=0, note=62, velocity=66, time=6),\n",
       "   Message('control_change', channel=0, control=64, value=0, time=16),\n",
       "   Message('note_on', channel=0, note=60, velocity=0, time=9),\n",
       "   Message('note_on', channel=0, note=69, velocity=0, time=7),\n",
       "   Message('note_on', channel=0, note=81, velocity=0, time=26),\n",
       "   Message('control_change', channel=0, control=64, value=127, time=123),\n",
       "   Message('control_change', channel=0, control=64, value=0, time=124),\n",
       "   Message('control_change', channel=0, control=64, value=127, time=22),\n",
       "   Message('note_on', channel=0, note=81, velocity=74, time=41),\n",
       "   Message('note_on', channel=0, note=72, velocity=65, time=0),\n",
       "   Message('note_on', channel=0, note=69, velocity=77, time=1),\n",
       "   Message('note_on', channel=0, note=60, velocity=66, time=1),\n",
       "   Message('note_on', channel=0, note=72, velocity=0, time=3),\n",
       "   Message('note_on', channel=0, note=62, velocity=0, time=76),\n",
       "   Message('control_change', channel=0, control=64, value=0, time=1),\n",
       "   Message('note_on', channel=0, note=71, velocity=0, time=38),\n",
       "   Message('control_change', channel=0, control=64, value=127, time=123),\n",
       "   Message('note_on', channel=0, note=79, velocity=67, time=127),\n",
       "   Message('note_on', channel=0, note=67, velocity=69, time=1),\n",
       "   Message('note_on', channel=0, note=81, velocity=0, time=18),\n",
       "   Message('note_on', channel=0, note=59, velocity=49, time=10),\n",
       "   Message('control_change', channel=0, control=64, value=0, time=28),\n",
       "   Message('note_on', channel=0, note=60, velocity=0, time=34),\n",
       "   Message('note_on', channel=0, note=69, velocity=0, time=6),\n",
       "   Message('control_change', channel=0, control=64, value=127, time=229),\n",
       "   Message('control_change', channel=0, control=64, value=0, time=530),\n",
       "   Message('note_on', channel=0, note=67, velocity=0, time=6),\n",
       "   Message('note_on', channel=0, note=79, velocity=0, time=32),\n",
       "   Message('note_on', channel=0, note=59, velocity=0, time=85),\n",
       "   Message('note_on', channel=0, note=74, velocity=87, time=104),\n",
       "   Message('note_on', channel=0, note=72, velocity=85, time=192),\n",
       "   Message('note_on', channel=0, note=74, velocity=0, time=82),\n",
       "   Message('note_on', channel=0, note=71, velocity=79, time=92),\n",
       "   Message('note_on', channel=0, note=72, velocity=0, time=24),\n",
       "   Message('note_on', channel=0, note=69, velocity=69, time=163),\n",
       "   Message('note_on', channel=0, note=71, velocity=0, time=87),\n",
       "   Message('note_on', channel=0, note=67, velocity=53, time=133),\n",
       "   Message('note_on', channel=0, note=69, velocity=0, time=75),\n",
       "   Message('note_on', channel=0, note=67, velocity=0, time=67),\n",
       "   Message('note_on', channel=0, note=62, velocity=57, time=215),\n",
       "   Message('note_on', channel=0, note=72, velocity=68, time=199),\n",
       "   Message('note_on', channel=0, note=60, velocity=72, time=0),\n",
       "   Message('note_on', channel=0, note=62, velocity=0, time=47),\n",
       "   Message('note_on', channel=0, note=59, velocity=78, time=141),\n",
       "   Message('note_on', channel=0, note=71, velocity=68, time=2),\n",
       "   Message('note_on', channel=0, note=72, velocity=0, time=44),\n",
       "   Message('note_on', channel=0, note=60, velocity=0, time=11),\n",
       "   Message('note_on', channel=0, note=57, velocity=60, time=137),\n",
       "   Message('note_on', channel=0, note=59, velocity=0, time=67),\n",
       "   Message('note_on', channel=0, note=71, velocity=0, time=7),\n",
       "   Message('note_on', channel=0, note=55, velocity=53, time=140),\n",
       "   Message('note_on', channel=0, note=57, velocity=0, time=40),\n",
       "   Message('note_on', channel=0, note=55, velocity=0, time=109),\n",
       "   Message('note_on', channel=0, note=69, velocity=78, time=227),\n",
       "   Message('note_on', channel=0, note=60, velocity=66, time=34),\n",
       "   Message('control_change', channel=0, control=64, value=127, time=134),\n",
       "   Message('note_on', channel=0, note=71, velocity=88, time=214),\n",
       "   Message('note_on', channel=0, note=62, velocity=66, time=5),\n",
       "   Message('control_change', channel=0, control=64, value=0, time=15),\n",
       "   Message('note_on', channel=0, note=60, velocity=0, time=2),\n",
       "   Message('note_on', channel=0, note=69, velocity=0, time=1),\n",
       "   Message('note_on', channel=0, note=81, velocity=73, time=343),\n",
       "   Message('note_on', channel=0, note=69, velocity=80, time=6),\n",
       "   Message('note_on', channel=0, note=60, velocity=72, time=3),\n",
       "   Message('note_on', channel=0, note=81, velocity=0, time=2),\n",
       "   Message('note_on', channel=0, note=71, velocity=0, time=7),\n",
       "   Message('note_on', channel=0, note=62, velocity=0, time=50),\n",
       "   Message('note_on', channel=0, note=79, velocity=75, time=314),\n",
       "   Message('note_on', channel=0, note=67, velocity=78, time=1),\n",
       "   Message('note_on', channel=0, note=59, velocity=69, time=1),\n",
       "   Message('note_on', channel=0, note=60, velocity=0, time=34),\n",
       "   Message('note_on', channel=0, note=69, velocity=0, time=14),\n",
       "   Message('note_on', channel=0, note=79, velocity=0, time=240),\n",
       "   Message('note_on', channel=0, note=74, velocity=64, time=90),\n",
       "   Message('note_on', channel=0, note=67, velocity=0, time=96),\n",
       "   Message('note_on', channel=0, note=74, velocity=0, time=65),\n",
       "   Message('note_on', channel=0, note=74, velocity=70, time=218),\n",
       "   Message('note_on', channel=0, note=74, velocity=0, time=57),\n",
       "   Message('note_on', channel=0, note=59, velocity=0, time=290),\n",
       "   Message('note_on', channel=0, note=74, velocity=81, time=25),\n",
       "   Message('note_on', channel=0, note=72, velocity=89, time=191),\n",
       "   Message('note_on', channel=0, note=74, velocity=0, time=88),\n",
       "   Message('note_on', channel=0, note=71, velocity=88, time=84),\n",
       "   Message('note_on', channel=0, note=72, velocity=0, time=98),\n",
       "   Message('note_on', channel=0, note=69, velocity=75, time=88),\n",
       "   Message('note_on', channel=0, note=71, velocity=0, time=89),\n",
       "   Message('note_on', channel=0, note=67, velocity=60, time=133),\n",
       "   Message('note_on', channel=0, note=69, velocity=0, time=80),\n",
       "   Message('note_on', channel=0, note=67, velocity=0, time=102),\n",
       "   Message('note_on', channel=0, note=62, velocity=63, time=191),\n",
       "   Message('note_on', channel=0, note=60, velocity=76, time=192),\n",
       "   Message('note_on', channel=0, note=62, velocity=0, time=33),\n",
       "   Message('note_on', channel=0, note=59, velocity=78, time=144),\n",
       "   Message('note_on', channel=0, note=60, velocity=0, time=60),\n",
       "   Message('note_on', channel=0, note=57, velocity=66, time=134),\n",
       "   Message('note_on', channel=0, note=59, velocity=0, time=57),\n",
       "   Message('note_on', channel=0, note=55, velocity=49, time=186),\n",
       "   Message('note_on', channel=0, note=57, velocity=0, time=56),\n",
       "   Message('note_on', channel=0, note=55, velocity=0, time=91),\n",
       "   Message('note_on', channel=0, note=69, velocity=75, time=213),\n",
       "   Message('note_on', channel=0, note=60, velocity=67, time=51),\n",
       "   Message('note_on', channel=0, note=71, velocity=87, time=347),\n",
       "   Message('note_on', channel=0, note=62, velocity=64, time=3),\n",
       "   Message('note_on', channel=0, note=69, velocity=0, time=23),\n",
       "   Message('note_on', channel=0, note=60, velocity=0, time=4),\n",
       "   Message('note_on', channel=0, note=69, velocity=77, time=351),\n",
       "   Message('note_on', channel=0, note=60, velocity=64, time=4),\n",
       "   Message('note_on', channel=0, note=62, velocity=0, time=84),\n",
       "   Message('note_on', channel=0, note=71, velocity=0, time=15),\n",
       "   Message('control_change', channel=0, control=64, value=127, time=106),\n",
       "   Message('note_on', channel=0, note=67, velocity=67, time=182),\n",
       "   Message('note_on', channel=0, note=59, velocity=51, time=22),\n",
       "   Message('control_change', channel=0, control=64, value=0, time=42),\n",
       "   Message('note_on', channel=0, note=69, velocity=0, time=41),\n",
       "   Message('note_on', channel=0, note=60, velocity=0, time=13),\n",
       "   Message('control_change', channel=0, control=64, value=127, time=161),\n",
       "   Message('control_change', channel=0, control=64, value=0, time=779),\n",
       "   Message('note_on', channel=0, note=59, velocity=0, time=7),\n",
       "   Message('note_on', channel=0, note=67, velocity=0, time=2),\n",
       "   Message('note_on', channel=0, note=62, velocity=71, time=4068),\n",
       "   Message('control_change', channel=0, control=64, value=127, time=136),\n",
       "   Message('control_change', channel=0, control=64, value=0, time=146),\n",
       "   Message('note_on', channel=0, note=59, velocity=78, time=79),\n",
       "   Message('note_on', channel=0, note=67, velocity=83, time=1),\n",
       "   Message('control_change', channel=0, control=64, value=127, time=4),\n",
       "   Message('control_change', channel=0, control=64, value=0, time=26),\n",
       "   Message('note_on', channel=0, note=62, velocity=0, time=75),\n",
       "   Message('control_change', channel=0, control=64, value=127, time=268),\n",
       "   Message('control_change', channel=0, control=64, value=0, time=138),\n",
       "   Message('note_on', channel=0, note=67, velocity=0, time=30),\n",
       "   Message('note_on', channel=0, note=79, velocity=67, time=290),\n",
       "   Message('note_on', channel=0, note=67, velocity=73, time=1),\n",
       "   Message('note_on', channel=0, note=79, velocity=0, time=86),\n",
       "   Message('note_on', channel=0, note=59, velocity=0, time=90),\n",
       "   Message('note_on', channel=0, note=81, velocity=77, time=7),\n",
       "   Message('note_on', channel=0, note=69, velocity=82, time=1),\n",
       "   Message('note_on', channel=0, note=67, velocity=0, time=74),\n",
       "   Message('note_on', channel=0, note=71, velocity=91, time=101),\n",
       "   Message('note_on', channel=0, note=69, velocity=0, time=36),\n",
       "   Message('note_on', channel=0, note=81, velocity=0, time=121),\n",
       "   Message('note_on', channel=0, note=72, velocity=90, time=10),\n",
       "   Message('note_on', channel=0, note=71, velocity=0, time=23),\n",
       "   Message('control_change', channel=0, control=64, value=127, time=29),\n",
       "   Message('control_change', channel=0, control=64, value=0, time=130),\n",
       "   Message('note_on', channel=0, note=74, velocity=88, time=21),\n",
       "   Message('note_on', channel=0, note=55, velocity=57, time=5),\n",
       "   Message('note_on', channel=0, note=72, velocity=0, time=52),\n",
       "   Message('control_change', channel=0, control=64, value=127, time=283),\n",
       "   Message('note_on', channel=0, note=71, velocity=67, time=396),\n",
       "   Message('control_change', channel=0, control=64, value=0, time=47),\n",
       "   Message('note_on', channel=0, note=74, velocity=0, time=0),\n",
       "   Message('note_on', channel=0, note=55, velocity=0, time=84),\n",
       "   Message('note_on', channel=0, note=71, velocity=0, time=84),\n",
       "   Message('note_on', channel=0, note=71, velocity=72, time=170),\n",
       "   Message('note_on', channel=0, note=71, velocity=0, time=129),\n",
       "   Message('note_on', channel=0, note=69, velocity=81, time=224),\n",
       "   Message('note_on', channel=0, note=60, velocity=69, time=23),\n",
       "   Message('note_on', channel=0, note=72, velocity=58, time=1),\n",
       "   Message('control_change', channel=0, control=64, value=127, time=109),\n",
       "   Message('note_on', channel=0, note=74, velocity=65, time=225),\n",
       "   Message('control_change', channel=0, control=64, value=0, time=156),\n",
       "   Message('note_on', channel=0, note=60, velocity=0, time=6),\n",
       "   Message('note_on', channel=0, note=69, velocity=0, time=0),\n",
       "   Message('note_on', channel=0, note=74, velocity=0, time=5),\n",
       "   Message('note_on', channel=0, note=72, velocity=0, time=8),\n",
       "   Message('note_on', channel=0, note=81, velocity=78, time=190),\n",
       "   Message('note_on', channel=0, note=69, velocity=86, time=2),\n",
       "   Message('note_on', channel=0, note=72, velocity=59, time=28),\n",
       "   Message('note_on', channel=0, note=60, velocity=72, time=3),\n",
       "   Message('control_change', channel=0, control=64, value=127, time=138),\n",
       "   Message('note_on', channel=0, note=74, velocity=68, time=179),\n",
       "   Message('note_on', channel=0, note=81, velocity=0, time=20),\n",
       "   Message('control_change', channel=0, control=64, value=0, time=120),\n",
       "   Message('note_on', channel=0, note=69, velocity=0, time=7),\n",
       "   Message('note_on', channel=0, note=74, velocity=0, time=24),\n",
       "   Message('note_on', channel=0, note=72, velocity=0, time=41),\n",
       "   Message('note_on', channel=0, note=71, velocity=78, time=166),\n",
       "   Message('note_on', channel=0, note=62, velocity=55, time=32),\n",
       "   Message('note_on', channel=0, note=60, velocity=0, time=14),\n",
       "   Message('control_change', channel=0, control=64, value=127, time=65),\n",
       "   Message('note_on', channel=0, note=72, velocity=89, time=70),\n",
       "   Message('note_on', channel=0, note=71, velocity=0, time=22),\n",
       "   Message('control_change', channel=0, control=64, value=0, time=115),\n",
       "   Message('note_on', channel=0, note=71, velocity=82, time=29),\n",
       "   Message('note_on', channel=0, note=72, velocity=0, time=19),\n",
       "   Message('note_on', channel=0, note=69, velocity=75, time=171),\n",
       "   Message('note_on', channel=0, note=71, velocity=0, time=104),\n",
       "   Message('note_on', channel=0, note=67, velocity=64, time=103),\n",
       "   Message('note_on', channel=0, note=69, velocity=0, time=105),\n",
       "   Message('note_on', channel=0, note=62, velocity=0, time=53),\n",
       "   Message('note_on', channel=0, note=67, velocity=0, time=34),\n",
       "   Message('note_on', channel=0, note=62, velocity=66, time=145),\n",
       "   Message('control_change', channel=0, control=64, value=127, time=236),\n",
       "   Message('control_change', channel=0, control=64, value=0, time=84),\n",
       "   Message('note_on', channel=0, note=67, velocity=75, time=30),\n",
       "   Message('note_on', channel=0, note=59, velocity=69, time=11),\n",
       "   Message('note_on', channel=0, note=62, velocity=0, time=139),\n",
       "   Message('control_change', channel=0, control=64, value=127, time=150),\n",
       "   Message('note_on', channel=0, note=67, velocity=0, time=207),\n",
       "   Message('control_change', channel=0, control=64, value=0, time=8),\n",
       "   Message('note_on', channel=0, note=79, velocity=67, time=199),\n",
       "   Message('note_on', channel=0, note=67, velocity=73, time=0),\n",
       "   Message('note_on', channel=0, note=79, velocity=0, time=9),\n",
       "   Message('note_on', channel=0, note=59, velocity=0, time=68),\n",
       "   Message('note_on', channel=0, note=81, velocity=81, time=95),\n",
       "   Message('note_on', channel=0, note=69, velocity=87, time=1),\n",
       "   Message('note_on', channel=0, note=67, velocity=0, time=75),\n",
       "   Message('note_on', channel=0, note=71, velocity=90, time=96),\n",
       "   Message('note_on', channel=0, note=69, velocity=0, time=123),\n",
       "   Message('note_on', channel=0, note=72, velocity=89, time=42),\n",
       "   Message('note_on', channel=0, note=81, velocity=0, time=53),\n",
       "   Message('note_on', channel=0, note=71, velocity=0, time=107),\n",
       "   Message('note_on', channel=0, note=74, velocity=87, time=29),\n",
       "   Message('note_on', channel=0, note=55, velocity=46, time=46),\n",
       "   Message('note_on', channel=0, note=72, velocity=0, time=48),\n",
       "   Message('note_on', channel=0, note=74, velocity=0, time=363),\n",
       "   Message('note_on', channel=0, note=71, velocity=62, time=248),\n",
       "   Message('note_on', channel=0, note=55, velocity=0, time=25),\n",
       "   Message('note_on', channel=0, note=71, velocity=0, time=143),\n",
       "   Message('note_on', channel=0, note=71, velocity=65, time=173),\n",
       "   Message('note_on', channel=0, note=71, velocity=0, time=133),\n",
       "   Message('note_on', channel=0, note=69, velocity=81, time=207),\n",
       "   Message('note_on', channel=0, note=60, velocity=68, time=18),\n",
       "   Message('note_on', channel=0, note=72, velocity=57, time=0),\n",
       "   Message('control_change', channel=0, control=64, value=127, time=65),\n",
       "   Message('note_on', channel=0, note=74, velocity=66, time=287),\n",
       "   Message('note_on', channel=0, note=60, velocity=0, time=79),\n",
       "   Message('control_change', channel=0, control=64, value=0, time=9),\n",
       "   Message('note_on', channel=0, note=69, velocity=0, time=14),\n",
       "   Message('note_on', channel=0, note=74, velocity=0, time=16),\n",
       "   Message('note_on', channel=0, note=72, velocity=0, time=2),\n",
       "   Message('note_on', channel=0, note=81, velocity=78, time=234),\n",
       "   Message('note_on', channel=0, note=69, velocity=86, time=2),\n",
       "   Message('note_on', channel=0, note=72, velocity=69, time=1),\n",
       "   Message('note_on', channel=0, note=60, velocity=74, time=2),\n",
       "   Message('control_change', channel=0, control=64, value=127, time=60),\n",
       "   Message('note_on', channel=0, note=74, velocity=53, time=313),\n",
       "   Message('note_on', channel=0, note=60, velocity=0, time=85),\n",
       "   Message('note_on', channel=0, note=81, velocity=0, time=10),\n",
       "   Message('note_on', channel=0, note=69, velocity=0, time=6),\n",
       "   Message('control_change', channel=0, control=64, value=0, time=2),\n",
       "   Message('note_on', channel=0, note=72, velocity=0, time=7),\n",
       "   Message('note_on', channel=0, note=74, velocity=0, time=4),\n",
       "   Message('note_on', channel=0, note=79, velocity=65, time=245),\n",
       "   Message('note_on', channel=0, note=67, velocity=70, time=1),\n",
       "   Message('note_on', channel=0, note=59, velocity=62, time=11),\n",
       "   Message('control_change', channel=0, control=64, value=127, time=292),\n",
       "   Message('note_on', channel=0, note=79, velocity=0, time=123),\n",
       "   Message('control_change', channel=0, control=64, value=0, time=469),\n",
       "   Message('note_on', channel=0, note=59, velocity=0, time=6),\n",
       "   Message('note_on', channel=0, note=67, velocity=0, time=5),\n",
       "   Message('note_on', channel=0, note=74, velocity=64, time=145),\n",
       "   Message('note_on', channel=0, note=62, velocity=71, time=0),\n",
       "   Message('note_on', channel=0, note=74, velocity=0, time=66),\n",
       "   Message('control_change', channel=0, control=64, value=127, time=15),\n",
       "   Message('control_change', channel=0, control=64, value=0, time=237),\n",
       "   Message('note_on', channel=0, note=79, velocity=76, time=43),\n",
       "   Message('note_on', channel=0, note=67, velocity=87, time=1),\n",
       "   Message('note_on', channel=0, note=59, velocity=84, time=1),\n",
       "   Message('note_on', channel=0, note=79, velocity=0, time=2),\n",
       "   Message('note_on', channel=0, note=71, velocity=78, time=1),\n",
       "   Message('note_on', channel=0, note=62, velocity=0, time=111),\n",
       "   Message('control_change', channel=0, control=64, value=127, time=180),\n",
       "   Message('note_on', channel=0, note=59, velocity=0, time=569),\n",
       "   Message('note_on', channel=0, note=59, velocity=35, time=11),\n",
       "   Message('control_change', channel=0, control=64, value=0, time=18),\n",
       "   Message('note_on', channel=0, note=59, velocity=0, time=12),\n",
       "   Message('note_on', channel=0, note=71, velocity=0, time=2),\n",
       "   Message('note_on', channel=0, note=67, velocity=0, time=14),\n",
       "   Message('note_on', channel=0, note=62, velocity=45, time=184),\n",
       "   Message('note_on', channel=0, note=59, velocity=53, time=400),\n",
       "   Message('note_on', channel=0, note=67, velocity=53, time=1),\n",
       "   Message('note_on', channel=0, note=62, velocity=0, time=184),\n",
       "   Message('control_change', channel=0, control=64, value=127, time=57),\n",
       "   Message('control_change', channel=0, control=64, value=0, time=596),\n",
       "   Message('note_on', channel=0, note=67, velocity=0, time=24),\n",
       "   Message('note_on', channel=0, note=59, velocity=0, time=14),\n",
       "   Message('note_on', channel=0, note=62, velocity=50, time=237),\n",
       "   Message('note_on', channel=0, note=62, velocity=0, time=94),\n",
       "   Message('note_on', channel=0, note=62, velocity=47, time=104),\n",
       "   Message('note_on', channel=0, note=59, velocity=54, time=241),\n",
       "   Message('note_on', channel=0, note=67, velocity=62, time=0),\n",
       "   Message('note_on', channel=0, note=62, velocity=0, time=104),\n",
       "   Message('control_change', channel=0, control=64, value=127, time=260),\n",
       "   Message('control_change', channel=0, control=64, value=0, time=661),\n",
       "   Message('note_on', channel=0, note=59, velocity=0, time=1166),\n",
       "   Message('note_on', channel=0, note=67, velocity=0, time=2420),\n",
       "   Message('note_on', channel=0, note=79, velocity=77, time=3320),\n",
       "   Message('note_on', channel=0, note=67, velocity=83, time=1),\n",
       "   Message('note_on', channel=0, note=48, velocity=57, time=23),\n",
       "   Message('control_change', channel=0, control=64, value=127, time=97),\n",
       "   Message('note_on', channel=0, note=67, velocity=0, time=67),\n",
       "   Message('note_on', channel=0, note=79, velocity=0, time=2),\n",
       "   Message('control_change', channel=0, control=64, value=0, time=0),\n",
       "   Message('note_on', channel=0, note=79, velocity=75, time=174),\n",
       "   Message('note_on', channel=0, note=67, velocity=83, time=1),\n",
       "   Message('note_on', channel=0, note=79, velocity=0, time=240),\n",
       "   Message('note_on', channel=0, note=64, velocity=89, time=104),\n",
       "   Message('note_on', channel=0, note=76, velocity=76, time=1),\n",
       "   Message('note_on', channel=0, note=67, velocity=0, time=60),\n",
       "   Message('note_on', channel=0, note=79, velocity=83, time=285),\n",
       "   Message('note_on', channel=0, note=67, velocity=88, time=1),\n",
       "   Message('note_on', channel=0, note=52, velocity=74, time=2),\n",
       "   Message('note_on', channel=0, note=48, velocity=0, time=33),\n",
       "   Message('note_on', channel=0, note=64, velocity=0, time=2),\n",
       "   Message('note_on', channel=0, note=76, velocity=0, time=49),\n",
       "   Message('control_change', channel=0, control=64, value=127, time=131),\n",
       "   Message('note_on', channel=0, note=79, velocity=0, time=407),\n",
       "   Message('note_on', channel=0, note=64, velocity=86, time=26),\n",
       "   Message('note_on', channel=0, note=76, velocity=75, time=1),\n",
       "   Message('control_change', channel=0, control=64, value=0, time=50),\n",
       "   Message('note_on', channel=0, note=67, velocity=0, time=17),\n",
       "   Message('control_change', channel=0, control=64, value=127, time=82),\n",
       "   Message('note_on', channel=0, note=55, velocity=72, time=197),\n",
       "   Message('note_on', channel=0, note=79, velocity=77, time=6),\n",
       "   Message('note_on', channel=0, note=67, velocity=84, time=2),\n",
       "   Message('note_on', channel=0, note=64, velocity=0, time=69),\n",
       "   Message('control_change', channel=0, control=64, value=0, time=5),\n",
       "   Message('note_on', channel=0, note=52, velocity=0, time=2),\n",
       "   Message('note_on', channel=0, note=76, velocity=0, time=4),\n",
       "   Message('control_change', channel=0, control=64, value=127, time=169),\n",
       "   Message('note_on', channel=0, note=79, velocity=0, time=215),\n",
       "   Message('note_on', channel=0, note=64, velocity=78, time=181),\n",
       "   Message('note_on', channel=0, note=76, velocity=66, time=2),\n",
       "   Message('control_change', channel=0, control=64, value=0, time=58),\n",
       "   Message('control_change', channel=0, control=64, value=127, time=104),\n",
       "   Message('note_on', channel=0, note=53, velocity=55, time=191),\n",
       "   Message('note_on', channel=0, note=74, velocity=54, time=5),\n",
       "   Message('note_on', channel=0, note=62, velocity=61, time=0),\n",
       "   Message('note_on', channel=0, note=76, velocity=0, time=4),\n",
       "   Message('control_change', channel=0, control=64, value=0, time=79),\n",
       "   Message('note_on', channel=0, note=55, velocity=0, time=2),\n",
       "   Message('note_on', channel=0, note=67, velocity=0, time=3),\n",
       "   Message('note_on', channel=0, note=64, velocity=0, time=1),\n",
       "   Message('note_on', channel=0, note=74, velocity=0, time=122),\n",
       "   Message('control_change', channel=0, control=64, value=127, time=31),\n",
       "   Message('control_change', channel=0, control=64, value=0, time=223),\n",
       "   Message('note_on', channel=0, note=62, velocity=0, time=26),\n",
       "   Message('note_on', channel=0, note=74, velocity=60, time=169),\n",
       "   Message('note_on', channel=0, note=62, velocity=63, time=0),\n",
       "   Message('control_change', channel=0, control=64, value=127, time=112),\n",
       "   Message('note_on', channel=0, note=72, velocity=67, time=253),\n",
       "   Message('note_on', channel=0, note=60, velocity=71, time=2),\n",
       "   Message('note_on', channel=0, note=52, velocity=61, time=2),\n",
       "   Message('note_on', channel=0, note=74, velocity=0, time=12),\n",
       "   Message('control_change', channel=0, control=64, value=0, time=28),\n",
       "   Message('note_on', channel=0, note=53, velocity=0, time=13),\n",
       "   Message('note_on', channel=0, note=62, velocity=0, time=56),\n",
       "   Message('control_change', channel=0, control=64, value=127, time=87),\n",
       "   Message('note_on', channel=0, note=64, velocity=81, time=143),\n",
       "   Message('note_on', channel=0, note=76, velocity=70, time=1),\n",
       "   Message('control_change', channel=0, control=64, value=0, time=17),\n",
       "   Message('note_on', channel=0, note=60, velocity=0, time=35),\n",
       "   Message('note_on', channel=0, note=72, velocity=0, time=34),\n",
       "   Message('control_change', channel=0, control=64, value=127, time=77),\n",
       "   Message('control_change', channel=0, control=64, value=0, time=16),\n",
       "   Message('note_on', channel=0, note=52, velocity=0, time=115),\n",
       "   Message('note_on', channel=0, note=76, velocity=0, time=23),\n",
       "   Message('note_on', channel=0, note=62, velocity=76, time=26),\n",
       "   Message('note_on', channel=0, note=52, velocity=50, time=0),\n",
       "   Message('note_on', channel=0, note=64, velocity=0, time=71),\n",
       "   Message('control_change', channel=0, control=64, value=127, time=56),\n",
       "   Message('note_on', channel=0, note=64, velocity=80, time=196),\n",
       "   Message('note_on', channel=0, note=76, velocity=69, time=1),\n",
       "   Message('note_on', channel=0, note=55, velocity=65, time=5),\n",
       "   Message('control_change', channel=0, control=64, value=0, time=52),\n",
       "   Message('note_on', channel=0, note=52, velocity=0, time=3),\n",
       "   Message('note_on', channel=0, note=62, velocity=0, time=67),\n",
       "   Message('note_on', channel=0, note=64, velocity=0, time=347),\n",
       "   Message('note_on', channel=0, note=76, velocity=0, time=5),\n",
       "   Message('note_on', channel=0, note=65, velocity=82, time=209),\n",
       "   Message('note_on', channel=0, note=55, velocity=0, time=49),\n",
       "   Message('note_on', channel=0, note=79, velocity=74, time=120),\n",
       "   Message('note_on', channel=0, note=67, velocity=82, time=2),\n",
       "   Message('note_on', channel=0, note=65, velocity=0, time=90),\n",
       "   Message('note_on', channel=0, note=81, velocity=82, time=102),\n",
       "   Message('note_on', channel=0, note=69, velocity=87, time=4),\n",
       "   Message('note_on', channel=0, note=53, velocity=66, time=4),\n",
       "   Message('note_on', channel=0, note=65, velocity=59, time=1),\n",
       "   Message('note_on', channel=0, note=67, velocity=0, time=52),\n",
       "   Message('note_on', channel=0, note=79, velocity=0, time=5),\n",
       "   Message('control_change', channel=0, control=64, value=127, time=153),\n",
       "   Message('note_on', channel=0, note=79, velocity=75, time=480),\n",
       "   Message('note_on', channel=0, note=67, velocity=80, time=0),\n",
       "   Message('control_change', channel=0, control=64, value=0, time=33),\n",
       "   Message('note_on', channel=0, note=69, velocity=0, time=6),\n",
       "   Message('note_on', channel=0, note=81, velocity=0, time=27),\n",
       "   Message('control_change', channel=0, control=64, value=127, time=76),\n",
       "   Message('note_on', channel=0, note=65, velocity=0, time=108),\n",
       "   Message('control_change', channel=0, control=64, value=0, time=58),\n",
       "   Message('note_on', channel=0, note=64, velocity=67, time=46),\n",
       "   Message('note_on', channel=0, note=76, velocity=58, time=2),\n",
       "   Message('note_on', channel=0, note=55, velocity=52, time=5),\n",
       "   Message('note_on', channel=0, note=53, velocity=0, time=75),\n",
       "   Message('note_on', channel=0, note=67, velocity=0, time=31),\n",
       "   Message('note_on', channel=0, note=79, velocity=0, time=221),\n",
       "   Message('note_on', channel=0, note=81, velocity=46, time=15),\n",
       "   Message('note_on', channel=0, note=74, velocity=42, time=1),\n",
       "   Message('note_on', channel=0, note=62, velocity=49, time=0),\n",
       "   Message('note_on', channel=0, note=74, velocity=0, time=7),\n",
       "   Message('note_on', channel=0, note=64, velocity=0, time=77),\n",
       "   Message('note_on', channel=0, note=76, velocity=0, time=30),\n",
       "   Message('note_on', channel=0, note=81, velocity=0, time=31),\n",
       "   Message('note_on', channel=0, note=62, velocity=0, time=31),\n",
       "   Message('note_on', channel=0, note=72, velocity=63, time=169),\n",
       "   Message('note_on', channel=0, note=60, velocity=67, time=1),\n",
       "   Message('note_on', channel=0, note=60, velocity=0, time=171),\n",
       "   Message('note_on', channel=0, note=72, velocity=0, time=66),\n",
       "   Message('note_on', channel=0, note=72, velocity=71, time=120),\n",
       "   Message('note_on', channel=0, note=60, velocity=72, time=3),\n",
       "   Message('note_on', channel=0, note=52, velocity=70, time=2),\n",
       "   Message('note_on', channel=0, note=55, velocity=0, time=51),\n",
       "   Message('control_change', channel=0, control=64, value=127, time=39),\n",
       "   Message('note_on', channel=0, note=64, velocity=90, time=257),\n",
       "   Message('note_on', channel=0, note=76, velocity=76, time=2),\n",
       "   Message('control_change', channel=0, control=64, value=0, time=39),\n",
       "   Message('note_on', channel=0, note=60, velocity=0, time=11),\n",
       "   Message('note_on', channel=0, note=72, velocity=0, time=6),\n",
       "   Message('note_on', channel=0, note=52, velocity=0, time=76),\n",
       "   Message('note_on', channel=0, note=52, velocity=54, time=212),\n",
       "   Message('note_on', channel=0, note=62, velocity=78, time=1),\n",
       "   Message('note_on', channel=0, note=74, velocity=71, time=0),\n",
       "   Message('note_on', channel=0, note=76, velocity=0, time=56),\n",
       "   Message('note_on', channel=0, note=64, velocity=0, time=31),\n",
       "   Message('control_change', channel=0, control=64, value=127, time=61),\n",
       "   Message('note_on', channel=0, note=64, velocity=80, time=180),\n",
       "   Message('note_on', channel=0, note=76, velocity=64, time=0),\n",
       "   Message('note_on', channel=0, note=52, velocity=0, time=5),\n",
       "   Message('note_on', channel=0, note=55, velocity=61, time=0),\n",
       "   Message('note_on', channel=0, note=74, velocity=0, time=7),\n",
       "   Message('control_change', channel=0, control=64, value=0, time=0),\n",
       "   Message('note_on', channel=0, note=52, velocity=44, time=2),\n",
       "   Message('note_on', channel=0, note=52, velocity=0, time=46),\n",
       "   Message('note_on', channel=0, note=62, velocity=0, time=77),\n",
       "   Message('note_on', channel=0, note=64, velocity=0, time=315),\n",
       "   Message('note_on', channel=0, note=76, velocity=0, time=6),\n",
       "   Message('note_on', channel=0, note=65, velocity=81, time=244),\n",
       "   Message('note_on', channel=0, note=77, velocity=73, time=2),\n",
       "   Message('control_change', channel=0, control=64, value=127, time=61),\n",
       "   Message('note_on', channel=0, note=55, velocity=0, time=48),\n",
       "   Message('note_on', channel=0, note=79, velocity=69, time=82),\n",
       "   Message('note_on', channel=0, note=67, velocity=77, time=2),\n",
       "   Message('control_change', channel=0, control=64, value=0, time=6),\n",
       "   Message('note_on', channel=0, note=77, velocity=0, time=69),\n",
       "   Message('note_on', channel=0, note=79, velocity=0, time=16),\n",
       "   Message('note_on', channel=0, note=65, velocity=0, time=18),\n",
       "   Message('note_on', channel=0, note=81, velocity=80, time=99),\n",
       "   Message('note_on', channel=0, note=69, velocity=84, time=2),\n",
       "   Message('note_on', channel=0, note=53, velocity=64, time=7),\n",
       "   Message('note_on', channel=0, note=67, velocity=0, time=52),\n",
       "   Message('control_change', channel=0, control=64, value=127, time=129),\n",
       "   Message('note_on', channel=0, note=81, velocity=0, time=614),\n",
       "   Message('note_on', channel=0, note=79, velocity=74, time=11),\n",
       "   Message('note_on', channel=0, note=67, velocity=79, time=0),\n",
       "   Message('note_on', channel=0, note=79, velocity=0, time=5),\n",
       "   Message('control_change', channel=0, control=64, value=0, time=23),\n",
       "   Message('note_on', channel=0, note=69, velocity=0, time=3),\n",
       "   Message('note_on', channel=0, note=64, velocity=78, time=209),\n",
       "   Message('note_on', channel=0, note=76, velocity=65, time=0),\n",
       "   Message('note_on', channel=0, note=67, velocity=0, time=90),\n",
       "   Message('note_on', channel=0, note=79, velocity=68, time=218),\n",
       "   Message('note_on', channel=0, note=67, velocity=74, time=3),\n",
       "   Message('note_on', channel=0, note=52, velocity=56, time=3),\n",
       "   Message('note_on', channel=0, note=76, velocity=0, time=4),\n",
       "   Message('note_on', channel=0, note=64, velocity=0, time=112),\n",
       "   Message('note_on', channel=0, note=53, velocity=0, time=6),\n",
       "   Message('note_on', channel=0, note=79, velocity=0, time=35),\n",
       "   Message('note_on', channel=0, note=52, velocity=0, time=1658),\n",
       "   Message('note_on', channel=0, note=67, velocity=0, time=62),\n",
       "   Message('note_on', channel=0, note=65, velocity=74, time=5924),\n",
       "   Message('note_on', channel=0, note=57, velocity=40, time=53),\n",
       "   Message('note_on', channel=0, note=60, velocity=59, time=205),\n",
       "   Message('note_on', channel=0, note=57, velocity=0, time=40),\n",
       "   Message('note_on', channel=0, note=60, velocity=0, time=214),\n",
       "   Message('note_on', channel=0, note=60, velocity=40, time=7),\n",
       "   Message('note_on', channel=0, note=57, velocity=61, time=2),\n",
       "   Message('note_on', channel=0, note=60, velocity=0, time=64),\n",
       "   Message('note_on', channel=0, note=81, velocity=76, time=129),\n",
       "   Message('note_on', channel=0, note=69, velocity=82, time=2),\n",
       "   Message('note_on', channel=0, note=60, velocity=71, time=35),\n",
       "   Message('note_on', channel=0, note=65, velocity=0, time=15),\n",
       "   Message('note_on', channel=0, note=57, velocity=0, time=3),\n",
       "   Message('note_on', channel=0, note=65, velocity=75, time=214),\n",
       "   Message('note_on', channel=0, note=84, velocity=63, time=0),\n",
       "   Message('note_on', channel=0, note=77, velocity=68, time=1),\n",
       "   Message('note_on', channel=0, note=81, velocity=0, time=5),\n",
       "   Message('note_on', channel=0, note=84, velocity=0, time=0),\n",
       "   Message('note_on', channel=0, note=81, velocity=60, time=8),\n",
       "   Message('note_on', channel=0, note=57, velocity=67, time=11),\n",
       "   Message('note_on', channel=0, note=60, velocity=0, time=51),\n",
       "   Message('note_on', channel=0, note=69, velocity=0, time=29),\n",
       "   Message('note_on', channel=0, note=60, velocity=63, time=157),\n",
       "   Message('note_on', channel=0, note=81, velocity=0, time=20),\n",
       "   Message('note_on', channel=0, note=57, velocity=0, time=31),\n",
       "   Message('note_on', channel=0, note=60, velocity=0, time=215),\n",
       "   Message('note_on', channel=0, note=60, velocity=31, time=10),\n",
       "   Message('note_on', channel=0, note=57, velocity=42, time=3),\n",
       "   Message('note_on', channel=0, note=60, velocity=0, time=63),\n",
       "   Message('note_on', channel=0, note=81, velocity=65, time=138),\n",
       "   Message('note_on', channel=0, note=69, velocity=72, time=4),\n",
       "   Message('note_on', channel=0, note=60, velocity=58, time=4),\n",
       "   Message('note_on', channel=0, note=57, velocity=0, time=30),\n",
       "   Message('note_on', channel=0, note=77, velocity=0, time=24),\n",
       "   Message('note_on', channel=0, note=65, velocity=0, time=13),\n",
       "   Message('note_on', channel=0, note=65, velocity=72, time=175),\n",
       "   Message('note_on', channel=0, note=77, velocity=63, time=2),\n",
       "   Message('note_on', channel=0, note=60, velocity=0, time=2),\n",
       "   Message('note_on', channel=0, note=60, velocity=47, time=5),\n",
       "   Message('note_on', channel=0, note=57, velocity=59, time=2),\n",
       "   Message('note_on', channel=0, note=81, velocity=0, time=47),\n",
       "   Message('note_on', channel=0, note=60, velocity=0, time=2),\n",
       "   Message('note_on', channel=0, note=69, velocity=0, time=29),\n",
       "   Message('note_on', channel=0, note=81, velocity=74, time=149),\n",
       "   Message('note_on', channel=0, note=60, velocity=72, time=0),\n",
       "   Message('note_on', channel=0, note=69, velocity=79, time=1),\n",
       "   Message('note_on', channel=0, note=57, velocity=0, time=17),\n",
       "   Message('note_on', channel=0, note=65, velocity=0, time=81),\n",
       "   Message('note_on', channel=0, note=77, velocity=0, time=28),\n",
       "   Message('note_on', channel=0, note=65, velocity=76, time=108),\n",
       "   Message('note_on', channel=0, note=57, velocity=71, time=2),\n",
       "   Message('note_on', channel=0, note=77, velocity=69, time=0),\n",
       "   Message('note_on', channel=0, note=81, velocity=0, time=28),\n",
       "   Message('note_on', channel=0, note=60, velocity=0, time=28),\n",
       "   Message('note_on', channel=0, note=69, velocity=0, time=39),\n",
       "   Message('note_on', channel=0, note=81, velocity=79, time=129),\n",
       "   Message('note_on', channel=0, note=69, velocity=86, time=5),\n",
       "   Message('note_on', channel=0, note=60, velocity=80, time=2),\n",
       "   Message('note_on', channel=0, note=57, velocity=0, time=17),\n",
       "   Message('note_on', channel=0, note=65, velocity=0, time=51),\n",
       "   Message('note_on', channel=0, note=77, velocity=0, time=29),\n",
       "   Message('note_on', channel=0, note=72, velocity=95, time=113),\n",
       "   Message('note_on', channel=0, note=81, velocity=0, time=25),\n",
       "   Message('note_on', channel=0, note=60, velocity=0, time=8),\n",
       "   Message('note_on', channel=0, note=57, velocity=65, time=4),\n",
       "   Message('note_on', channel=0, note=69, velocity=0, time=3),\n",
       "   Message('note_on', channel=0, note=60, velocity=50, time=1),\n",
       "   Message('note_on', channel=0, note=60, velocity=0, time=58),\n",
       "   Message('note_on', channel=0, note=60, velocity=71, time=155),\n",
       "   Message('note_on', channel=0, note=57, velocity=0, time=61),\n",
       "   Message('note_on', channel=0, note=57, velocity=64, time=184),\n",
       "   Message('note_on', channel=0, note=60, velocity=0, time=70),\n",
       "   Message('note_on', channel=0, note=72, velocity=0, time=86),\n",
       "   Message('note_on', channel=0, note=60, velocity=70, time=64),\n",
       "   Message('note_on', channel=0, note=57, velocity=0, time=56),\n",
       "   Message('note_on', channel=0, note=79, velocity=79, time=183),\n",
       "   Message('note_on', channel=0, note=67, velocity=85, time=1),\n",
       "   Message('note_on', channel=0, note=48, velocity=58, time=1),\n",
       "   Message('note_on', channel=0, note=60, velocity=0, time=2),\n",
       "   Message('note_on', channel=0, note=60, velocity=58, time=4),\n",
       "   Message('note_on', channel=0, note=48, velocity=0, time=4),\n",
       "   Message('note_on', channel=0, note=58, velocity=69, time=11),\n",
       "   Message('note_on', channel=0, note=60, velocity=0, time=75),\n",
       "   Message('note_on', channel=0, note=60, velocity=57, time=143),\n",
       "   Message('note_on', channel=0, note=58, velocity=0, time=61),\n",
       "   Message('note_on', channel=0, note=60, velocity=0, time=171),\n",
       "   Message('note_on', channel=0, note=58, velocity=56, time=9),\n",
       "   Message('note_on', channel=0, note=60, velocity=45, time=0),\n",
       "   Message('note_on', channel=0, note=60, velocity=0, time=86),\n",
       "   Message('note_on', channel=0, note=81, velocity=76, time=140),\n",
       "   Message('note_on', channel=0, note=60, velocity=61, time=0),\n",
       "   Message('note_on', channel=0, note=69, velocity=82, time=2),\n",
       "   Message('note_on', channel=0, note=79, velocity=0, time=47),\n",
       "   Message('note_on', channel=0, note=58, velocity=0, time=2),\n",
       "   Message('note_on', channel=0, note=67, velocity=0, time=43),\n",
       "   Message('note_on', channel=0, note=48, velocity=57, time=150),\n",
       "   Message('note_on', channel=0, note=79, velocity=75, time=1),\n",
       "   Message('note_on', channel=0, note=67, velocity=81, time=0),\n",
       "   Message('note_on', channel=0, note=81, velocity=0, time=3),\n",
       "   Message('note_on', channel=0, note=58, velocity=60, time=36),\n",
       "   Message('note_on', channel=0, note=60, velocity=0, time=38),\n",
       "   Message('note_on', channel=0, note=48, velocity=0, time=26),\n",
       "   Message('note_on', channel=0, note=69, velocity=0, time=1),\n",
       "   Message('note_on', channel=0, note=60, velocity=52, time=125),\n",
       "   Message('note_on', channel=0, note=58, velocity=0, time=58),\n",
       "   Message('note_on', channel=0, note=58, velocity=63, time=212),\n",
       "   Message('note_on', channel=0, note=60, velocity=0, time=81),\n",
       "   Message('note_on', channel=0, note=79, velocity=0, time=30),\n",
       "   Message('note_on', channel=0, note=60, velocity=54, time=104),\n",
       "   Message('note_on', channel=0, note=67, velocity=0, time=3),\n",
       "   Message('note_on', channel=0, note=58, velocity=0, time=61),\n",
       "   Message('note_on', channel=0, note=60, velocity=0, time=185),\n",
       "   Message('note_on', channel=0, note=79, velocity=76, time=5),\n",
       "   Message('note_on', channel=0, note=67, velocity=83, time=1),\n",
       "   Message('note_on', channel=0, note=60, velocity=58, time=0),\n",
       "   Message('note_on', channel=0, note=58, velocity=66, time=3),\n",
       "   Message('note_on', channel=0, note=77, velocity=64, time=5),\n",
       "   Message('note_on', channel=0, note=60, velocity=0, time=83),\n",
       "   Message('note_on', channel=0, note=60, velocity=55, time=140),\n",
       "   Message('note_on', channel=0, note=58, velocity=0, time=52),\n",
       "   Message('note_on', channel=0, note=77, velocity=0, time=95),\n",
       "   Message('note_on', channel=0, note=58, velocity=59, time=88),\n",
       "   Message('note_on', channel=0, note=60, velocity=0, time=86),\n",
       "   Message('note_on', channel=0, note=81, velocity=72, time=145),\n",
       "   Message('note_on', channel=0, note=69, velocity=76, time=1),\n",
       "   Message('note_on', channel=0, note=60, velocity=58, time=0),\n",
       "   Message('note_on', channel=0, note=58, velocity=0, time=29),\n",
       "   Message('note_on', channel=0, note=79, velocity=0, time=5),\n",
       "   Message('note_on', channel=0, note=67, velocity=0, time=30),\n",
       "   Message('note_on', channel=0, note=81, velocity=0, time=123),\n",
       "   Message('note_on', channel=0, note=79, velocity=75, time=57),\n",
       "   Message('note_on', channel=0, note=67, velocity=81, time=1),\n",
       "   Message('note_on', channel=0, note=58, velocity=67, time=1),\n",
       "   Message('note_on', channel=0, note=60, velocity=0, time=89),\n",
       "   Message('note_on', channel=0, note=69, velocity=0, time=7),\n",
       "   Message('note_on', channel=0, note=79, velocity=0, time=68),\n",
       "   Message('note_on', channel=0, note=60, velocity=56, time=53),\n",
       "   Message('note_on', channel=0, note=58, velocity=0, time=57),\n",
       "   Message('note_on', channel=0, note=58, velocity=61, time=212),\n",
       "   Message('note_on', channel=0, note=60, velocity=0, time=87),\n",
       "   Message('note_on', channel=0, note=67, velocity=0, time=129),\n",
       "   Message('note_on', channel=0, note=60, velocity=64, time=2),\n",
       "   Message('note_on', channel=0, note=58, velocity=0, time=33),\n",
       "   Message('note_on', channel=0, note=65, velocity=76, time=188),\n",
       "   Message('note_on', channel=0, note=77, velocity=71, time=1),\n",
       "   Message('note_on', channel=0, note=57, velocity=62, time=26),\n",
       "   Message('note_on', channel=0, note=60, velocity=0, time=63),\n",
       "   Message('note_on', channel=0, note=60, velocity=55, time=153),\n",
       "   Message('note_on', channel=0, note=57, velocity=0, time=67),\n",
       "   Message('note_on', channel=0, note=77, velocity=0, time=143),\n",
       "   Message('note_on', channel=0, note=57, velocity=51, time=50),\n",
       "   Message('note_on', channel=0, note=60, velocity=0, time=60),\n",
       "   Message('note_on', channel=0, note=69, velocity=74, time=141),\n",
       "   Message('note_on', channel=0, note=60, velocity=59, time=0),\n",
       "   Message('note_on', channel=0, note=57, velocity=0, time=28),\n",
       "   Message('note_on', channel=0, note=65, velocity=0, time=71),\n",
       "   Message('note_on', channel=0, note=65, velocity=68, time=152),\n",
       "   Message('note_on', channel=0, note=57, velocity=58, time=18),\n",
       "   Message('note_on', channel=0, note=60, velocity=0, time=66),\n",
       "   Message('note_on', channel=0, note=69, velocity=0, time=24),\n",
       "   Message('note_on', channel=0, note=60, velocity=54, time=130),\n",
       "   Message('note_on', channel=0, note=57, velocity=0, time=78),\n",
       "   Message('note_on', channel=0, note=60, velocity=0, time=142),\n",
       "   Message('note_on', channel=0, note=60, velocity=38, time=8),\n",
       "   Message('note_on', channel=0, note=57, velocity=50, time=2),\n",
       "   Message('note_on', channel=0, note=60, velocity=0, time=71),\n",
       "   Message('note_on', channel=0, note=60, velocity=54, time=153),\n",
       "   Message('note_on', channel=0, note=81, velocity=68, time=0),\n",
       "   Message('note_on', channel=0, note=69, velocity=71, time=2),\n",
       "   Message('note_on', channel=0, note=57, velocity=0, time=31),\n",
       "   Message('note_on', channel=0, note=65, velocity=0, time=70),\n",
       "   Message('note_on', channel=0, note=57, velocity=59, time=122),\n",
       "   Message('note_on', channel=0, note=65, velocity=65, time=5),\n",
       "   Message('note_on', channel=0, note=60, velocity=0, time=38),\n",
       "   Message('note_on', channel=0, note=81, velocity=0, time=43),\n",
       "   Message('note_on', channel=0, note=69, velocity=0, time=4),\n",
       "   Message('note_on', channel=0, note=81, velocity=73, time=132),\n",
       "   Message('note_on', channel=0, note=69, velocity=79, time=5),\n",
       "   Message('note_on', channel=0, note=60, velocity=69, time=2),\n",
       "   Message('note_on', channel=0, note=57, velocity=0, time=39),\n",
       "   Message('note_on', channel=0, note=65, velocity=0, time=19),\n",
       "   Message('note_on', channel=0, note=65, velocity=77, time=163),\n",
       "   Message('note_on', channel=0, note=57, velocity=67, time=7),\n",
       "   Message('note_on', channel=0, note=60, velocity=0, time=41),\n",
       "   Message('note_on', channel=0, note=69, velocity=0, time=21),\n",
       "   Message('note_on', channel=0, note=81, velocity=0, time=20),\n",
       "   Message('note_on', channel=0, note=72, velocity=68, time=126),\n",
       "   Message('note_on', channel=0, note=72, velocity=0, time=4),\n",
       "   Message('note_on', channel=0, note=60, velocity=72, time=2),\n",
       "   Message('note_on', channel=0, note=81, velocity=79, time=7),\n",
       "   Message('note_on', channel=0, note=69, velocity=85, time=1),\n",
       "   Message('note_on', channel=0, note=57, velocity=0, time=23),\n",
       "   Message('note_on', channel=0, note=65, velocity=0, time=62),\n",
       "   Message('note_on', channel=0, note=72, velocity=92, time=139),\n",
       "   Message('note_on', channel=0, note=57, velocity=64, time=24),\n",
       "   Message('note_on', channel=0, note=81, velocity=0, time=27),\n",
       "   Message('note_on', channel=0, note=69, velocity=0, time=6),\n",
       "   Message('note_on', channel=0, note=60, velocity=0, time=29),\n",
       "   Message('note_on', channel=0, note=60, velocity=68, time=161),\n",
       "   Message('note_on', channel=0, note=57, velocity=0, time=47),\n",
       "   Message('note_on', channel=0, note=60, velocity=0, time=187),\n",
       "   Message('note_on', channel=0, note=57, velocity=64, time=10),\n",
       "   Message('note_on', channel=0, note=60, velocity=49, time=1),\n",
       "   Message('note_on', channel=0, note=60, velocity=0, time=62),\n",
       "   Message('note_on', channel=0, note=60, velocity=76, time=154),\n",
       "   Message('note_on', channel=0, note=57, velocity=0, time=38),\n",
       "   Message('note_on', channel=0, note=67, velocity=84, time=201),\n",
       "   Message('note_on', channel=0, note=58, velocity=64, time=35),\n",
       "   Message('note_on', channel=0, note=60, velocity=0, time=65),\n",
       "   Message('note_on', channel=0, note=72, velocity=0, time=1),\n",
       "   Message('note_on', channel=0, note=60, velocity=57, time=132),\n",
       "   Message('note_on', channel=0, note=58, velocity=0, time=41),\n",
       "   Message('note_on', channel=0, note=58, velocity=61, time=198),\n",
       "   Message('note_on', channel=0, note=60, velocity=0, time=82),\n",
       "   Message('note_on', channel=0, note=69, velocity=71, time=128),\n",
       "   Message('note_on', channel=0, note=60, velocity=57, time=0),\n",
       "   Message('note_on', channel=0, note=58, velocity=0, time=61),\n",
       "   Message('note_on', channel=0, note=67, velocity=0, time=5),\n",
       "   Message('note_on', channel=0, note=60, velocity=0, time=160),\n",
       "   Message('note_on', channel=0, note=79, velocity=74, time=7),\n",
       "   Message('note_on', channel=0, note=67, velocity=80, time=2),\n",
       "   Message('note_on', channel=0, note=60, velocity=54, time=2),\n",
       "   Message('note_on', channel=0, note=58, velocity=63, time=2),\n",
       "   Message('note_on', channel=0, note=60, velocity=0, time=89),\n",
       "   Message('note_on', channel=0, note=69, velocity=0, time=2),\n",
       "   Message('note_on', channel=0, note=60, velocity=58, time=117),\n",
       "   Message('note_on', channel=0, note=58, velocity=0, time=52),\n",
       "   Message('note_on', channel=0, note=60, velocity=0, time=181),\n",
       "   Message('note_on', channel=0, note=81, velocity=74, time=1),\n",
       "   Message('note_on', channel=0, note=69, velocity=78, time=2),\n",
       "   Message('note_on', channel=0, note=58, velocity=60, time=2),\n",
       "   Message('note_on', channel=0, note=60, velocity=52, time=4),\n",
       "   Message('note_on', channel=0, note=67, velocity=0, time=81),\n",
       "   Message('note_on', channel=0, note=60, velocity=0, time=5),\n",
       "   Message('note_on', channel=0, note=79, velocity=0, time=2),\n",
       "   Message('note_on', channel=0, note=60, velocity=51, time=129),\n",
       "   Message('note_on', channel=0, note=58, velocity=0, time=27),\n",
       "   Message('note_on', channel=0, note=65, velocity=65, time=188),\n",
       "   Message('note_on', channel=0, note=77, velocity=61, time=1),\n",
       "   Message('note_on', channel=0, note=57, velocity=44, time=23),\n",
       "   Message('note_on', channel=0, note=60, velocity=0, time=54),\n",
       "   Message('note_on', channel=0, note=69, velocity=0, time=8),\n",
       "   Message('note_on', channel=0, note=81, velocity=0, time=10),\n",
       "   Message('note_on', channel=0, note=60, velocity=54, time=140),\n",
       "   Message('note_on', channel=0, note=57, velocity=0, time=50),\n",
       "   Message('note_on', channel=0, note=57, velocity=44, time=215),\n",
       "   Message('note_on', channel=0, note=60, velocity=0, time=28),\n",
       "   Message('note_on', channel=0, note=60, velocity=54, time=171),\n",
       "   Message('note_on', channel=0, note=57, velocity=0, time=18),\n",
       "   Message('note_on', channel=0, note=57, velocity=49, time=299),\n",
       "   Message('note_on', channel=0, note=60, velocity=0, time=102),\n",
       "   Message('note_on', channel=0, note=77, velocity=0, time=290),\n",
       "   Message('note_on', channel=0, note=57, velocity=0, time=238),\n",
       "   Message('note_on', channel=0, note=65, velocity=0, time=42),\n",
       "   Message('note_on', channel=0, note=60, velocity=78, time=2070),\n",
       "   Message('control_change', channel=0, control=64, value=127, time=70),\n",
       "   Message('note_on', channel=0, note=60, velocity=0, time=253),\n",
       "   Message('note_on', channel=0, note=60, velocity=67, time=11),\n",
       "   Message('note_on', channel=0, note=74, velocity=73, time=0),\n",
       "   Message('note_on', channel=0, note=62, velocity=78, time=1),\n",
       "   Message('note_on', channel=0, note=60, velocity=0, time=29),\n",
       "   Message('control_change', channel=0, control=64, value=0, time=2),\n",
       "   Message('note_on', channel=0, note=74, velocity=0, time=134),\n",
       "   Message('note_on', channel=0, note=72, velocity=78, time=158),\n",
       "   Message('note_on', channel=0, note=60, velocity=82, time=2),\n",
       "   Message('note_on', channel=0, note=62, velocity=0, time=41),\n",
       "   Message('note_on', channel=0, note=72, velocity=0, time=267),\n",
       "   Message('note_on', channel=0, note=62, velocity=76, time=4),\n",
       "   Message('note_on', channel=0, note=72, velocity=64, time=0),\n",
       "   Message('note_on', channel=0, note=74, velocity=66, time=0),\n",
       "   Message('note_on', channel=0, note=74, velocity=0, time=27),\n",
       "   Message('note_on', channel=0, note=60, velocity=0, time=11),\n",
       "   Message('note_on', channel=0, note=72, velocity=0, time=50),\n",
       "   Message('note_on', channel=0, note=62, velocity=0, time=93),\n",
       "   Message('note_on', channel=0, note=74, velocity=74, time=170),\n",
       "   Message('note_on', channel=0, note=72, velocity=76, time=1),\n",
       "   Message('note_on', channel=0, note=60, velocity=80, time=2),\n",
       "   Message('note_on', channel=0, note=62, velocity=79, time=1),\n",
       "   Message('control_change', channel=0, control=64, value=127, time=102),\n",
       "   Message('note_on', channel=0, note=74, velocity=0, time=77),\n",
       "   Message('note_on', channel=0, note=60, velocity=0, time=954),\n",
       "   Message('control_change', channel=0, control=64, value=0, time=6),\n",
       "   Message('note_on', channel=0, note=72, velocity=0, time=15),\n",
       "   Message('note_on', channel=0, note=62, velocity=0, time=46),\n",
       "   Message('note_on', channel=0, note=72, velocity=65, time=51),\n",
       "   Message('note_on', channel=0, note=60, velocity=73, time=1),\n",
       "   Message('control_change', channel=0, control=64, value=127, time=71),\n",
       "   Message('note_on', channel=0, note=64, velocity=85, time=221),\n",
       "   Message('note_on', channel=0, note=76, velocity=74, time=3),\n",
       "   Message('control_change', channel=0, control=64, value=0, time=33),\n",
       "   Message('note_on', channel=0, note=72, velocity=0, time=20),\n",
       "   Message('note_on', channel=0, note=60, velocity=0, time=19),\n",
       "   Message('note_on', channel=0, note=72, velocity=70, time=237),\n",
       "   Message('note_on', channel=0, note=60, velocity=77, time=0),\n",
       "   Message('note_on', channel=0, note=76, velocity=0, time=43),\n",
       "   Message('note_on', channel=0, note=64, velocity=0, time=19),\n",
       "   Message('note_on', channel=0, note=64, velocity=82, time=231),\n",
       "   Message('note_on', channel=0, note=76, velocity=69, time=1),\n",
       "   Message('note_on', channel=0, note=60, velocity=0, time=83),\n",
       "   Message('note_on', channel=0, note=72, velocity=0, time=12),\n",
       "   Message('note_on', channel=0, note=76, velocity=0, time=53),\n",
       "   Message('note_on', channel=0, note=64, velocity=0, time=12),\n",
       "   Message('note_on', channel=0, note=64, velocity=89, time=150),\n",
       "   Message('note_on', channel=0, note=60, velocity=82, time=2),\n",
       "   Message('note_on', channel=0, note=76, velocity=80, time=0),\n",
       "   Message('note_on', channel=0, note=76, velocity=0, time=90),\n",
       "   Message('control_change', channel=0, control=64, value=127, time=84),\n",
       "   Message('control_change', channel=0, control=64, value=0, time=871),\n",
       "   Message('note_on', channel=0, note=60, velocity=0, time=1),\n",
       "   Message('note_on', channel=0, note=64, velocity=0, time=6),\n",
       "   Message('note_on', channel=0, note=60, velocity=78, time=138),\n",
       "   Message('control_change', channel=0, control=64, value=127, time=83),\n",
       "   Message('note_on', channel=0, note=65, velocity=79, time=213),\n",
       "   Message('control_change', channel=0, control=64, value=0, time=42),\n",
       "   Message('note_on', channel=0, note=60, velocity=0, time=36),\n",
       "   Message('note_on', channel=0, note=72, velocity=72, time=217),\n",
       "   Message('note_on', channel=0, note=60, velocity=78, time=1),\n",
       "   Message('note_on', channel=0, note=65, velocity=0, time=69),\n",
       "   Message('note_on', channel=0, note=65, velocity=76, time=222),\n",
       "   Message('note_on', channel=0, note=77, velocity=70, time=1),\n",
       "   Message('note_on', channel=0, note=60, velocity=0, time=78),\n",
       "   Message('note_on', channel=0, note=72, velocity=0, time=19),\n",
       "   Message('note_on', channel=0, note=65, velocity=0, time=43),\n",
       "   Message('note_on', channel=0, note=77, velocity=0, time=11),\n",
       "   Message('note_on', channel=0, note=60, velocity=85, time=166),\n",
       "   Message('note_on', channel=0, note=72, velocity=79, time=0),\n",
       "   Message('note_on', channel=0, note=77, velocity=83, time=1),\n",
       "   Message('note_on', channel=0, note=65, velocity=89, time=0),\n",
       "   Message('note_on', channel=0, note=77, velocity=0, time=86),\n",
       "   Message('control_change', channel=0, control=64, value=127, time=200),\n",
       "   Message('note_on', channel=0, note=60, velocity=0, time=856),\n",
       "   Message('control_change', channel=0, control=64, value=0, time=4),\n",
       "   Message('note_on', channel=0, note=72, velocity=0, time=23),\n",
       "   Message('note_on', channel=0, note=60, velocity=80, time=30),\n",
       "   Message('note_on', channel=0, note=65, velocity=0, time=35),\n",
       "   Message('note_on', channel=0, note=79, velocity=76, time=262),\n",
       "   Message('note_on', channel=0, note=67, velocity=84, time=1),\n",
       "   Message('note_on', channel=0, note=60, velocity=0, time=45),\n",
       "   Message('note_on', channel=0, note=79, velocity=0, time=19),\n",
       "   Message('note_on', channel=0, note=72, velocity=69, time=227),\n",
       "   Message('note_on', channel=0, note=60, velocity=77, time=0),\n",
       "   Message('note_on', channel=0, note=67, velocity=0, time=44),\n",
       "   Message('note_on', channel=0, note=79, velocity=69, time=249),\n",
       "   Message('note_on', channel=0, note=67, velocity=76, time=1),\n",
       "   Message('note_on', channel=0, note=79, velocity=0, time=55),\n",
       "   Message('note_on', channel=0, note=60, velocity=0, time=30),\n",
       "   Message('note_on', channel=0, note=72, velocity=0, time=8),\n",
       "   Message('note_on', channel=0, note=67, velocity=0, time=34),\n",
       "   Message('note_on', channel=0, note=72, velocity=77, time=193),\n",
       "   Message('note_on', channel=0, note=60, velocity=82, time=0),\n",
       "   Message('note_on', channel=0, note=67, velocity=86, time=0),\n",
       "   Message('control_change', channel=0, control=64, value=127, time=111),\n",
       "   Message('control_change', channel=0, control=64, value=0, time=1033),\n",
       "   Message('note_on', channel=0, note=60, velocity=0, time=6),\n",
       "   Message('note_on', channel=0, note=67, velocity=0, time=2),\n",
       "   Message('note_on', channel=0, note=72, velocity=0, time=4),\n",
       "   Message('note_on', channel=0, note=72, velocity=78, time=1412),\n",
       "   Message('note_on', channel=0, note=60, velocity=83, time=1),\n",
       "   Message('control_change', channel=0, control=64, value=127, time=69),\n",
       "   Message('note_on', channel=0, note=72, velocity=0, time=161),\n",
       "   Message('note_on', channel=0, note=60, velocity=0, time=39),\n",
       "   Message('note_on', channel=0, note=62, velocity=76, time=11),\n",
       "   Message('note_on', channel=0, note=60, velocity=66, time=0),\n",
       "   Message('note_on', channel=0, note=60, velocity=0, time=48),\n",
       "   Message('control_change', channel=0, control=64, value=0, time=3),\n",
       "   Message('note_on', channel=0, note=72, velocity=74, time=243),\n",
       "   Message('note_on', channel=0, note=60, velocity=78, time=4),\n",
       "   Message('note_on', channel=0, note=62, velocity=0, time=128),\n",
       "   Message('note_on', channel=0, note=74, velocity=68, time=136),\n",
       "   Message('note_on', channel=0, note=62, velocity=73, time=0),\n",
       "   Message('note_on', channel=0, note=60, velocity=0, time=54),\n",
       "   Message('note_on', channel=0, note=72, velocity=0, time=10),\n",
       "   Message('note_on', channel=0, note=62, velocity=0, time=80),\n",
       "   Message('note_on', channel=0, note=74, velocity=0, time=5),\n",
       "   Message('note_on', channel=0, note=74, velocity=68, time=157),\n",
       "   Message('note_on', channel=0, note=62, velocity=76, time=1),\n",
       "   Message('note_on', channel=0, note=72, velocity=65, time=7),\n",
       "   Message('note_on', channel=0, note=60, velocity=64, time=20),\n",
       "   Message('control_change', channel=0, control=64, value=127, time=145),\n",
       "   Message('note_on', channel=0, note=74, velocity=0, time=138),\n",
       "   Message('note_on', channel=0, note=60, velocity=0, time=702),\n",
       "   Message('control_change', channel=0, control=64, value=0, time=1),\n",
       "   Message('note_on', channel=0, note=72, velocity=0, time=4),\n",
       "   Message('note_on', channel=0, note=62, velocity=0, time=39),\n",
       "   Message('note_on', channel=0, note=59, velocity=85, time=94),\n",
       "   Message('note_on', channel=0, note=71, velocity=75, time=1),\n",
       "   Message('note_on', channel=0, note=59, velocity=0, time=265),\n",
       "   Message('note_on', channel=0, note=74, velocity=61, time=8),\n",
       "   Message('note_on', channel=0, note=62, velocity=70, time=0),\n",
       "   Message('note_on', channel=0, note=59, velocity=66, time=1),\n",
       "   Message('note_on', channel=0, note=59, velocity=0, time=41),\n",
       "   Message('note_on', channel=0, note=71, velocity=0, time=42),\n",
       "   Message('note_on', channel=0, note=74, velocity=0, time=39),\n",
       "   Message('note_on', channel=0, note=59, velocity=82, time=142),\n",
       "   Message('note_on', channel=0, note=71, velocity=72, time=2),\n",
       "   Message('note_on', channel=0, note=62, velocity=0, time=86),\n",
       "   Message('note_on', channel=0, note=74, velocity=65, time=174),\n",
       "   Message('note_on', channel=0, note=62, velocity=73, time=2),\n",
       "   Message('note_on', channel=0, note=71, velocity=0, time=76),\n",
       "   Message('note_on', channel=0, note=59, velocity=0, time=8),\n",
       "   Message('note_on', channel=0, note=74, velocity=0, time=47),\n",
       "   Message('note_on', channel=0, note=62, velocity=0, time=6),\n",
       "   Message('note_on', channel=0, note=59, velocity=86, time=150),\n",
       "   Message('note_on', channel=0, note=74, velocity=74, time=2),\n",
       "   Message('note_on', channel=0, note=71, velocity=79, time=0),\n",
       "   Message('note_on', channel=0, note=62, velocity=76, time=1),\n",
       "   Message('note_on', channel=0, note=74, velocity=0, time=133),\n",
       "   Message('control_change', channel=0, control=64, value=127, time=131),\n",
       "   Message('note_on', channel=0, note=57, velocity=73, time=920),\n",
       "   Message('control_change', channel=0, control=64, value=0, time=60),\n",
       "   Message('note_on', channel=0, note=59, velocity=0, time=11),\n",
       "   Message('note_on', channel=0, note=71, velocity=0, time=15),\n",
       "   Message('note_on', channel=0, note=62, velocity=0, time=1),\n",
       "   Message('note_on', channel=0, note=62, velocity=75, time=189),\n",
       "   Message('note_on', channel=0, note=57, velocity=0, time=59),\n",
       "   Message('note_on', channel=0, note=57, velocity=76, time=211),\n",
       "   Message('note_on', channel=0, note=62, velocity=0, time=97),\n",
       "   Message('note_on', channel=0, note=62, velocity=73, time=161),\n",
       "   Message('note_on', channel=0, note=57, velocity=0, time=49),\n",
       "   Message('note_on', channel=0, note=62, velocity=0, time=81),\n",
       "   Message('note_on', channel=0, note=62, velocity=80, time=154),\n",
       "   Message('note_on', channel=0, note=57, velocity=75, time=2),\n",
       "   Message('control_change', channel=0, control=64, value=127, time=409),\n",
       "   Message('note_on', channel=0, note=55, velocity=76, time=717),\n",
       "   Message('note_on', channel=0, note=57, velocity=0, time=47),\n",
       "   Message('control_change', channel=0, control=64, value=0, time=8),\n",
       "   Message('note_on', channel=0, note=62, velocity=0, time=38),\n",
       "   Message('note_on', channel=0, note=55, velocity=0, time=173),\n",
       "   Message('note_on', channel=0, note=55, velocity=59, time=5),\n",
       "   Message('note_on', channel=0, note=62, velocity=75, time=0),\n",
       "   Message('note_on', channel=0, note=55, velocity=0, time=37),\n",
       "   Message('note_on', channel=0, note=55, velocity=75, time=230),\n",
       "   Message('note_on', channel=0, note=62, velocity=0, time=110),\n",
       "   Message('note_on', channel=0, note=55, velocity=0, time=148),\n",
       "   Message('note_on', channel=0, note=62, velocity=75, time=10),\n",
       "   Message('note_on', channel=0, note=55, velocity=59, time=1),\n",
       "   Message('note_on', channel=0, note=55, velocity=0, time=43),\n",
       "   Message('note_on', channel=0, note=62, velocity=0, time=97),\n",
       "   Message('note_on', channel=0, note=55, velocity=79, time=160),\n",
       "   Message('note_on', channel=0, note=62, velocity=81, time=0),\n",
       "   Message('control_change', channel=0, control=64, value=127, time=249),\n",
       "   Message('control_change', channel=0, control=64, value=0, time=1089),\n",
       "   Message('note_on', channel=0, note=55, velocity=0, time=6),\n",
       "   Message('note_on', channel=0, note=62, velocity=0, time=8),\n",
       "   Message('note_on', channel=0, note=79, velocity=76, time=2056),\n",
       "   Message('note_on', channel=0, note=67, velocity=85, time=1),\n",
       "   Message('note_on', channel=0, note=81, velocity=84, time=156),\n",
       "   Message('note_on', channel=0, note=69, velocity=88, time=3),\n",
       "   Message('note_on', channel=0, note=67, velocity=0, time=64),\n",
       "   Message('note_on', channel=0, note=79, velocity=0, time=89),\n",
       "   Message('note_on', channel=0, note=71, velocity=90, time=24),\n",
       "   Message('note_on', channel=0, note=83, velocity=77, time=0),\n",
       "   Message('note_on', channel=0, note=83, velocity=0, time=6),\n",
       "   Message('note_on', channel=0, note=69, velocity=0, time=31),\n",
       "   Message('note_on', channel=0, note=72, velocity=93, time=113),\n",
       "   Message('note_on', channel=0, note=71, velocity=0, time=87),\n",
       "   Message('note_on', channel=0, note=81, velocity=0, time=0),\n",
       "   Message('note_on', channel=0, note=74, velocity=95, time=94),\n",
       "   Message('note_on', channel=0, note=71, velocity=75, time=26),\n",
       "   Message('note_on', channel=0, note=62, velocity=78, time=1),\n",
       "   Message('note_on', channel=0, note=59, velocity=83, time=2),\n",
       "   Message('note_on', channel=0, note=72, velocity=0, time=61),\n",
       "   Message('note_on', channel=0, note=71, velocity=0, time=269),\n",
       "   Message('note_on', channel=0, note=71, velocity=75, time=6),\n",
       "   Message('note_on', channel=0, note=74, velocity=0, time=54),\n",
       "   Message('note_on', channel=0, note=71, velocity=0, time=47),\n",
       "   Message('note_on', channel=0, note=59, velocity=0, time=223),\n",
       "   Message('note_on', channel=0, note=62, velocity=0, time=0),\n",
       "   Message('note_on', channel=0, note=72, velocity=90, time=3),\n",
       "   Message('note_on', channel=0, note=59, velocity=73, time=1),\n",
       "   Message('note_on', channel=0, note=57, velocity=73, time=7),\n",
       "   Message('note_on', channel=0, note=62, velocity=75, time=0),\n",
       "   Message('note_on', channel=0, note=59, velocity=0, time=43),\n",
       "   Message('note_on', channel=0, note=69, velocity=64, time=272),\n",
       "   Message('note_on', channel=0, note=69, velocity=0, time=70),\n",
       "   Message('note_on', channel=0, note=72, velocity=0, time=15),\n",
       "   Message('note_on', channel=0, note=62, velocity=0, time=65),\n",
       "   Message('note_on', channel=0, note=71, velocity=75, time=158),\n",
       "   Message('note_on', channel=0, note=62, velocity=55, time=14),\n",
       "   Message('note_on', channel=0, note=55, velocity=53, time=1),\n",
       "   Message('note_on', channel=0, note=57, velocity=0, time=27),\n",
       "   Message('note_on', channel=0, note=67, velocity=62, time=265),\n",
       "   Message('note_on', channel=0, note=62, velocity=0, time=97),\n",
       "   Message('note_on', channel=0, note=55, velocity=0, time=2),\n",
       "   Message('note_on', channel=0, note=71, velocity=0, time=1),\n",
       "   Message('note_on', channel=0, note=67, velocity=0, time=0),\n",
       "   Message('note_on', channel=0, note=79, velocity=71, time=200),\n",
       "   Message('note_on', channel=0, note=67, velocity=78, time=1),\n",
       "   Message('note_on', channel=0, note=81, velocity=77, time=159),\n",
       "   Message('note_on', channel=0, note=69, velocity=80, time=1),\n",
       "   Message('note_on', channel=0, note=67, velocity=0, time=85),\n",
       "   Message('note_on', channel=0, note=79, velocity=0, time=26),\n",
       "   Message('note_on', channel=0, note=71, velocity=87, time=36),\n",
       "   Message('note_on', channel=0, note=69, velocity=0, time=35),\n",
       "   Message('note_on', channel=0, note=81, velocity=0, time=83),\n",
       "   Message('note_on', channel=0, note=72, velocity=88, time=51),\n",
       "   Message('note_on', channel=0, note=71, velocity=0, time=24),\n",
       "   Message('note_on', channel=0, note=74, velocity=88, time=150),\n",
       "   Message('note_on', channel=0, note=59, velocity=67, time=16),\n",
       "   Message('note_on', channel=0, note=62, velocity=56, time=7),\n",
       "   Message('note_on', channel=0, note=72, velocity=0, time=29),\n",
       "   Message('note_on', channel=0, note=71, velocity=64, time=279),\n",
       "   Message('note_on', channel=0, note=74, velocity=0, time=84),\n",
       "   Message('note_on', channel=0, note=71, velocity=0, time=24),\n",
       "   Message('note_on', channel=0, note=62, velocity=0, time=13),\n",
       "   Message('note_on', channel=0, note=72, velocity=86, time=179),\n",
       "   Message('note_on', channel=0, note=60, velocity=51, time=14),\n",
       "   Message('note_on', channel=0, note=57, velocity=61, time=1),\n",
       "   Message('note_on', channel=0, note=60, velocity=0, time=4),\n",
       "   Message('note_on', channel=0, note=62, velocity=58, time=1),\n",
       "   Message('note_on', channel=0, note=59, velocity=0, time=120),\n",
       "   Message('note_on', channel=0, note=72, velocity=0, time=171),\n",
       "   Message('note_on', channel=0, note=69, velocity=63, time=5),\n",
       "   Message('note_on', channel=0, note=72, velocity=52, time=3),\n",
       "   Message('note_on', channel=0, note=72, velocity=0, time=61),\n",
       "   Message('note_on', channel=0, note=62, velocity=0, time=41),\n",
       "   Message('note_on', channel=0, note=71, velocity=72, time=234),\n",
       "   Message('note_on', channel=0, note=62, velocity=44, time=16),\n",
       "   Message('note_on', channel=0, note=55, velocity=43, time=2),\n",
       "   Message('note_on', channel=0, note=67, velocity=44, time=3),\n",
       "   Message('note_on', channel=0, note=69, velocity=0, time=81),\n",
       "   Message('note_on', channel=0, note=57, velocity=0, time=22),\n",
       "   Message('note_on', channel=0, note=67, velocity=0, time=70),\n",
       "   Message('control_change', channel=0, control=64, value=127, time=130),\n",
       "   Message('control_change', channel=0, control=64, value=0, time=46),\n",
       "   Message('note_on', channel=0, note=71, velocity=0, time=146),\n",
       "   Message('note_on', channel=0, note=71, velocity=34, time=6),\n",
       "   Message('note_on', channel=0, note=71, velocity=0, time=48),\n",
       "   Message('note_on', channel=0, note=79, velocity=68, time=112),\n",
       "   Message('note_on', channel=0, note=67, velocity=74, time=0),\n",
       "   Message('note_on', channel=0, note=79, velocity=0, time=11),\n",
       "   Message('note_on', channel=0, note=55, velocity=0, time=18),\n",
       "   Message('note_on', channel=0, note=62, velocity=0, time=0),\n",
       "   Message('note_on', channel=0, note=81, velocity=78, time=103),\n",
       "   Message('note_on', channel=0, note=69, velocity=84, time=1),\n",
       "   Message('note_on', channel=0, note=67, velocity=0, time=65),\n",
       "   Message('note_on', channel=0, note=71, velocity=90, time=85),\n",
       "   Message('note_on', channel=0, note=83, velocity=75, time=1),\n",
       "   Message('note_on', channel=0, note=83, velocity=0, time=11),\n",
       "   Message('note_on', channel=0, note=69, velocity=0, time=27),\n",
       "   Message('note_on', channel=0, note=81, velocity=0, time=19),\n",
       "   Message('note_on', channel=0, note=72, velocity=88, time=101),\n",
       "   Message('note_on', channel=0, note=71, velocity=0, time=27),\n",
       "   Message('note_on', channel=0, note=74, velocity=87, time=150),\n",
       "   Message('note_on', channel=0, note=59, velocity=64, time=18),\n",
       "   Message('note_on', channel=0, note=62, velocity=57, time=5),\n",
       "   Message('note_on', channel=0, note=72, velocity=0, time=72),\n",
       "   Message('note_on', channel=0, note=71, velocity=71, time=219),\n",
       "   Message('note_on', channel=0, note=74, velocity=0, time=65),\n",
       "   Message('note_on', channel=0, note=71, velocity=0, time=11),\n",
       "   Message('note_on', channel=0, note=62, velocity=0, time=13),\n",
       "   Message('note_on', channel=0, note=72, velocity=80, time=223),\n",
       "   Message('note_on', channel=0, note=62, velocity=57, time=7),\n",
       "   Message('note_on', channel=0, note=57, velocity=53, time=6),\n",
       "   Message('note_on', channel=0, note=59, velocity=0, time=7),\n",
       "   Message('note_on', channel=0, note=69, velocity=54, time=280),\n",
       "   Message('note_on', channel=0, note=57, velocity=0, time=83),\n",
       "   Message('note_on', channel=0, note=69, velocity=0, time=6),\n",
       "   Message('note_on', channel=0, note=72, velocity=0, time=16),\n",
       "   Message('note_on', channel=0, note=62, velocity=0, time=8),\n",
       "   Message('note_on', channel=0, note=71, velocity=67, time=199),\n",
       "   Message('note_on', channel=0, note=62, velocity=40, time=19),\n",
       "   Message('note_on', channel=0, note=55, velocity=42, time=3),\n",
       "   Message('note_on', channel=0, note=67, velocity=57, time=277),\n",
       "   Message('note_on', channel=0, note=55, velocity=0, time=80),\n",
       "   Message('note_on', channel=0, note=71, velocity=0, time=6),\n",
       "   Message('note_on', channel=0, note=67, velocity=0, time=6),\n",
       "   Message('note_on', channel=0, note=67, velocity=70, time=187),\n",
       "   Message('note_on', channel=0, note=62, velocity=0, time=36),\n",
       "   Message('note_on', channel=0, note=81, velocity=75, time=107),\n",
       "   Message('note_on', channel=0, note=69, velocity=78, time=2),\n",
       "   Message('note_on', channel=0, note=67, velocity=0, time=79),\n",
       "   Message('note_on', channel=0, note=71, velocity=88, time=75),\n",
       "   Message('note_on', channel=0, note=69, velocity=0, time=101),\n",
       "   Message('note_on', channel=0, note=72, velocity=87, time=60),\n",
       "   Message('note_on', channel=0, note=81, velocity=0, time=11),\n",
       "   Message('note_on', channel=0, note=71, velocity=0, time=12),\n",
       "   Message('note_on', channel=0, note=74, velocity=88, time=161),\n",
       "   Message('note_on', channel=0, note=59, velocity=65, time=1),\n",
       "   Message('note_on', channel=0, note=62, velocity=57, time=5),\n",
       "   Message('note_on', channel=0, note=72, velocity=0, time=79),\n",
       "   Message('note_on', channel=0, note=71, velocity=70, time=229),\n",
       "   Message('note_on', channel=0, note=74, velocity=0, time=69),\n",
       "   Message('note_on', channel=0, note=71, velocity=0, time=18),\n",
       "   Message('note_on', channel=0, note=62, velocity=0, time=22),\n",
       "   Message('note_on', channel=0, note=72, velocity=81, time=194),\n",
       "   Message('note_on', channel=0, note=60, velocity=51, time=5),\n",
       "   Message('note_on', channel=0, note=62, velocity=58, time=4),\n",
       "   Message('note_on', channel=0, note=57, velocity=57, time=1),\n",
       "   Message('note_on', channel=0, note=59, velocity=0, time=11),\n",
       "   Message('note_on', channel=0, note=72, velocity=0, time=311),\n",
       "   Message('note_on', channel=0, note=69, velocity=63, time=8),\n",
       "   Message('note_on', channel=0, note=72, velocity=52, time=1),\n",
       "   Message('note_on', channel=0, note=72, velocity=0, time=62),\n",
       "   Message('note_on', channel=0, note=60, velocity=0, time=13),\n",
       "   Message('note_on', channel=0, note=79, velocity=61, time=271),\n",
       "   Message('note_on', channel=0, note=67, velocity=68, time=1),\n",
       "   Message('note_on', channel=0, note=59, velocity=53, time=38),\n",
       "   Message('note_on', channel=0, note=55, velocity=39, time=5),\n",
       "   Message('note_on', channel=0, note=69, velocity=0, time=5),\n",
       "   Message('note_on', channel=0, note=62, velocity=0, time=3),\n",
       "   Message('note_on', channel=0, note=57, velocity=0, time=1),\n",
       "   Message('note_on', channel=0, note=79, velocity=0, time=444),\n",
       "   Message('note_on', channel=0, note=55, velocity=0, time=433),\n",
       "   Message('note_on', channel=0, note=59, velocity=0, time=0),\n",
       "   Message('note_on', channel=0, note=67, velocity=0, time=3),\n",
       "   Message('note_on', channel=0, note=72, velocity=75, time=5220),\n",
       "   Message('note_on', channel=0, note=60, velocity=79, time=1),\n",
       "   Message('note_on', channel=0, note=72, velocity=0, time=3),\n",
       "   Message('control_change', channel=0, control=64, value=127, time=92),\n",
       "   Message('control_change', channel=0, control=64, value=0, time=236),\n",
       "   Message('note_on', channel=0, note=74, velocity=73, time=20),\n",
       "   Message('note_on', channel=0, note=62, velocity=80, time=1),\n",
       "   Message('note_on', channel=0, note=60, velocity=0, time=35),\n",
       "   Message('note_on', channel=0, note=74, velocity=0, time=100),\n",
       "   Message('note_on', channel=0, note=64, velocity=90, time=205),\n",
       "   Message('note_on', channel=0, note=76, velocity=76, time=2),\n",
       "   Message('note_on', channel=0, note=62, velocity=0, time=69),\n",
       "   Message('note_on', channel=0, note=76, velocity=0, time=254),\n",
       "   Message('note_on', channel=0, note=72, velocity=60, time=27),\n",
       "   Message('note_on', channel=0, note=60, velocity=72, time=1),\n",
       "   Message('note_on', channel=0, note=64, velocity=0, time=88),\n",
       "   Message('note_on', channel=0, note=72, velocity=0, time=76),\n",
       "   Message('note_on', channel=0, note=60, velocity=0, time=4),\n",
       "   Message('note_on', channel=0, note=72, velocity=71, time=173),\n",
       "   Message('note_on', channel=0, note=60, velocity=75, time=2),\n",
       "   Message('control_change', channel=0, control=64, value=127, time=90),\n",
       "   Message('control_change', channel=0, control=64, value=0, time=250),\n",
       "   Message('note_on', channel=0, note=74, velocity=66, time=7),\n",
       "   Message('note_on', channel=0, note=62, velocity=74, time=0),\n",
       "   Message('note_on', channel=0, note=74, velocity=0, time=4),\n",
       "   Message('note_on', channel=0, note=72, velocity=0, time=8),\n",
       "   Message('note_on', channel=0, note=60, velocity=0, time=7),\n",
       "   Message('control_change', channel=0, control=64, value=127, time=123),\n",
       "   Message('control_change', channel=0, control=64, value=0, time=177),\n",
       "   Message('note_on', channel=0, note=64, velocity=83, time=27),\n",
       "   Message('note_on', channel=0, note=76, velocity=71, time=2),\n",
       "   Message('note_on', channel=0, note=62, velocity=0, time=114),\n",
       "   Message('note_on', channel=0, note=76, velocity=0, time=126),\n",
       "   Message('note_on', channel=0, note=60, velocity=62, time=87),\n",
       "   Message('note_on', channel=0, note=64, velocity=0, time=116),\n",
       "   Message('note_on', channel=0, note=60, velocity=0, time=32),\n",
       "   Message('note_on', channel=0, note=64, velocity=74, time=189),\n",
       "   Message('note_on', channel=0, note=76, velocity=64, time=2),\n",
       "   Message('note_on', channel=0, note=48, velocity=63, time=0),\n",
       "   Message('note_on', channel=0, note=76, velocity=0, time=4),\n",
       "   Message('control_change', channel=0, control=64, value=127, time=30),\n",
       "   Message('note_on', channel=0, note=62, velocity=66, time=287),\n",
       "   Message('note_on', channel=0, note=50, velocity=74, time=1),\n",
       "   Message('note_on', channel=0, note=62, velocity=0, time=4),\n",
       "   Message('note_on', channel=0, note=65, velocity=81, time=7),\n",
       "   Message('note_on', channel=0, note=48, velocity=0, time=19),\n",
       "   Message('note_on', channel=0, note=64, velocity=0, time=1),\n",
       "   Message('control_change', channel=0, control=64, value=0, time=14),\n",
       "   Message('note_on', channel=0, note=79, velocity=80, time=286),\n",
       "   Message('note_on', channel=0, note=52, velocity=83, time=1),\n",
       "   Message('note_on', channel=0, note=67, velocity=88, time=3),\n",
       "   Message('note_on', channel=0, note=79, velocity=0, time=7),\n",
       "   Message('note_on', channel=0, note=50, velocity=0, time=30),\n",
       "   Message('note_on', channel=0, note=65, velocity=0, time=43),\n",
       "   Message('note_on', channel=0, note=48, velocity=68, time=255),\n",
       "   Message('note_on', channel=0, note=52, velocity=0, time=34),\n",
       "   Message('note_on', channel=0, note=48, velocity=0, time=57),\n",
       "   Message('note_on', channel=0, note=64, velocity=76, time=223),\n",
       "   Message('note_on', channel=0, note=48, velocity=63, time=23),\n",
       "   Message('note_on', channel=0, note=67, velocity=0, time=34),\n",
       "   Message('note_on', channel=0, note=48, velocity=0, time=259),\n",
       "   Message('note_on', channel=0, note=50, velocity=71, time=4),\n",
       "   Message('note_on', channel=0, note=65, velocity=80, time=4),\n",
       "   Message('note_on', channel=0, note=64, velocity=0, time=68),\n",
       "   Message('note_on', channel=0, note=52, velocity=76, time=256),\n",
       "   Message('note_on', channel=0, note=79, velocity=79, time=3),\n",
       "   Message('note_on', channel=0, note=67, velocity=85, time=1),\n",
       "   Message('note_on', channel=0, note=79, velocity=0, time=4),\n",
       "   Message('note_on', channel=0, note=50, velocity=0, time=32),\n",
       "   Message('note_on', channel=0, note=65, velocity=0, time=81),\n",
       "   Message('note_on', channel=0, note=48, velocity=71, time=198),\n",
       "   Message('note_on', channel=0, note=52, velocity=0, time=4),\n",
       "   Message('note_on', channel=0, note=67, velocity=0, time=5),\n",
       "   Message('note_on', channel=0, note=52, velocity=71, time=308),\n",
       "   Message('note_on', channel=0, note=67, velocity=81, time=3),\n",
       "   Message('note_on', channel=0, note=48, velocity=0, time=18),\n",
       "   Message('note_on', channel=0, note=81, velocity=85, time=145),\n",
       "   Message('note_on', channel=0, note=69, velocity=86, time=1),\n",
       "   Message('note_on', channel=0, note=67, velocity=0, time=61),\n",
       "   Message('note_on', channel=0, note=67, velocity=77, time=94),\n",
       "   Message('note_on', channel=0, note=79, velocity=76, time=1),\n",
       "   Message('note_on', channel=0, note=53, velocity=73, time=4),\n",
       "   Message('note_on', channel=0, note=52, velocity=0, time=44),\n",
       "   Message('note_on', channel=0, note=69, velocity=0, time=24),\n",
       "   Message('note_on', channel=0, note=81, velocity=0, time=22),\n",
       "   Message('note_on', channel=0, note=77, velocity=79, time=62),\n",
       "   Message('note_on', channel=0, note=65, velocity=90, time=0),\n",
       "   Message('note_on', channel=0, note=79, velocity=0, time=14),\n",
       "   Message('note_on', channel=0, note=67, velocity=0, time=61),\n",
       "   Message('note_on', channel=0, note=55, velocity=64, time=110),\n",
       "   Message('note_on', channel=0, note=64, velocity=77, time=1),\n",
       "   Message('note_on', channel=0, note=76, velocity=71, time=0),\n",
       "   Message('note_on', channel=0, note=53, velocity=0, time=60),\n",
       "   Message('note_on', channel=0, note=77, velocity=0, time=22),\n",
       "   Message('note_on', channel=0, note=65, velocity=0, time=7),\n",
       "   Message('note_on', channel=0, note=60, velocity=53, time=234),\n",
       "   Message('note_on', channel=0, note=60, velocity=0, time=78),\n",
       "   Message('note_on', channel=0, note=64, velocity=0, time=12),\n",
       "   Message('note_on', channel=0, note=76, velocity=0, time=130),\n",
       "   Message('note_on', channel=0, note=79, velocity=74, time=80),\n",
       "   Message('note_on', channel=0, note=67, velocity=80, time=2),\n",
       "   Message('note_on', channel=0, note=52, velocity=67, time=0),\n",
       "   Message('note_on', channel=0, note=55, velocity=0, time=22),\n",
       "   Message('note_on', channel=0, note=81, velocity=84, time=139),\n",
       "   Message('note_on', channel=0, note=69, velocity=86, time=2),\n",
       "   Message('note_on', channel=0, note=67, velocity=0, time=55),\n",
       "   Message('note_on', channel=0, note=79, velocity=0, time=7),\n",
       "   Message('note_on', channel=0, note=79, velocity=78, time=91),\n",
       "   Message('note_on', channel=0, note=67, velocity=83, time=3),\n",
       "   Message('note_on', channel=0, note=53, velocity=73, time=4),\n",
       "   Message('note_on', channel=0, note=52, velocity=0, time=40),\n",
       "   Message('note_on', channel=0, note=69, velocity=0, time=29),\n",
       "   Message('note_on', channel=0, note=81, velocity=0, time=32),\n",
       "   Message('note_on', channel=0, note=65, velocity=86, time=48),\n",
       "   Message('note_on', channel=0, note=77, velocity=79, time=1),\n",
       "   Message('note_on', channel=0, note=67, velocity=0, time=70),\n",
       "   Message('note_on', channel=0, note=79, velocity=0, time=20),\n",
       "   Message('note_on', channel=0, note=64, velocity=83, time=94),\n",
       "   Message('note_on', channel=0, note=76, velocity=73, time=1),\n",
       "   Message('note_on', channel=0, note=55, velocity=65, time=3),\n",
       "   Message('note_on', channel=0, note=53, velocity=0, time=45),\n",
       "   Message('note_on', channel=0, note=65, velocity=0, time=12),\n",
       "   Message('note_on', channel=0, note=77, velocity=0, time=21),\n",
       "   Message('note_on', channel=0, note=60, velocity=66, time=230),\n",
       "   Message('note_on', channel=0, note=55, velocity=0, time=45),\n",
       "   Message('note_on', channel=0, note=64, velocity=0, time=45),\n",
       "   Message('note_on', channel=0, note=60, velocity=0, time=14),\n",
       "   Message('note_on', channel=0, note=76, velocity=0, time=12),\n",
       "   Message('note_on', channel=0, note=72, velocity=74, time=217),\n",
       "   Message('note_on', channel=0, note=60, velocity=79, time=1),\n",
       "   Message('control_change', channel=0, control=64, value=127, time=66),\n",
       "   Message('note_on', channel=0, note=55, velocity=59, time=264),\n",
       "   Message('note_on', channel=0, note=67, velocity=48, time=1),\n",
       "   Message('control_change', channel=0, control=64, value=0, time=27),\n",
       "   Message('note_on', channel=0, note=60, velocity=0, time=16),\n",
       "   Message('note_on', channel=0, note=72, velocity=0, time=15),\n",
       "   Message('note_on', channel=0, note=72, velocity=70, time=272),\n",
       "   Message('note_on', channel=0, note=60, velocity=75, time=1),\n",
       "   Message('note_on', channel=0, note=55, velocity=0, time=37),\n",
       "   Message('note_on', channel=0, note=67, velocity=0, time=5),\n",
       "   Message('control_change', channel=0, control=64, value=127, time=30),\n",
       "   Message('control_change', channel=0, control=64, value=0, time=348),\n",
       "   Message('note_on', channel=0, note=72, velocity=0, time=52),\n",
       "   Message('note_on', channel=0, note=60, velocity=0, time=3),\n",
       "   Message('note_on', channel=0, note=72, velocity=73, time=169),\n",
       "   Message('note_on', channel=0, note=60, velocity=74, time=0),\n",
       "   Message('control_change', channel=0, control=64, value=127, time=81),\n",
       "   Message('note_on', channel=0, note=55, velocity=69, time=227),\n",
       "   Message('note_on', channel=0, note=60, velocity=0, time=13),\n",
       "   Message('control_change', channel=0, control=64, value=0, time=64),\n",
       "   Message('note_on', channel=0, note=72, velocity=0, time=42),\n",
       "   Message('note_on', channel=0, note=72, velocity=64, time=244),\n",
       "   Message('note_on', channel=0, note=60, velocity=66, time=5),\n",
       "   Message('note_on', channel=0, note=55, velocity=0, time=11),\n",
       "   Message('note_on', channel=0, note=48, velocity=43, time=13),\n",
       "   Message('note_on', channel=0, note=52, velocity=47, time=5),\n",
       "   Message('note_on', channel=0, note=52, velocity=0, time=739),\n",
       "   Message('note_on', channel=0, note=48, velocity=0, time=17),\n",
       "   Message('note_on', channel=0, note=60, velocity=0, time=16),\n",
       "   Message('note_on', channel=0, note=72, velocity=0, time=9),\n",
       "   Message('note_on', channel=0, note=79, velocity=73, time=2032),\n",
       "   Message('note_on', channel=0, note=67, velocity=81, time=2),\n",
       "   Message('note_on', channel=0, note=47, velocity=55, time=14),\n",
       "   Message('note_on', channel=0, note=74, velocity=59, time=1),\n",
       "   Message('note_on', channel=0, note=59, velocity=69, time=4),\n",
       "   Message('note_on', channel=0, note=71, velocity=62, time=3),\n",
       "   Message('note_on', channel=0, note=62, velocity=60, time=1),\n",
       "   Message('note_on', channel=0, note=79, velocity=0, time=40),\n",
       "   Message('note_on', channel=0, note=47, velocity=0, time=15),\n",
       "   Message('note_on', channel=0, note=67, velocity=0, time=87),\n",
       "   Message('note_on', channel=0, note=79, velocity=68, time=194),\n",
       "   Message('note_on', channel=0, note=67, velocity=75, time=0),\n",
       "   Message('note_on', channel=0, note=74, velocity=0, time=11),\n",
       "   Message('note_on', channel=0, note=79, velocity=0, time=23),\n",
       "   Message('note_on', channel=0, note=71, velocity=0, time=23),\n",
       "   Message('note_on', channel=0, note=67, velocity=0, time=90),\n",
       "   Message('note_on', channel=0, note=79, velocity=76, time=184),\n",
       "   Message('note_on', channel=0, note=67, velocity=82, time=2),\n",
       "   Message('note_on', channel=0, note=72, velocity=59, time=5),\n",
       "   Message('note_on', channel=0, note=60, velocity=69, time=3),\n",
       "   Message('note_on', channel=0, note=52, velocity=53, time=3),\n",
       "   Message('note_on', channel=0, note=52, velocity=0, time=5),\n",
       "   Message('note_on', channel=0, note=57, velocity=56, time=8),\n",
       "   Message('note_on', channel=0, note=59, velocity=0, time=14),\n",
       "   Message('note_on', channel=0, note=62, velocity=0, time=127),\n",
       "   Message('note_on', channel=0, note=79, velocity=0, time=20),\n",
       "   Message('note_on', channel=0, note=67, velocity=0, time=17),\n",
       "   Message('note_on', channel=0, note=79, velocity=62, time=127),\n",
       "   Message('note_on', channel=0, note=67, velocity=67, time=2),\n",
       "   Message('note_on', channel=0, note=79, velocity=0, time=123),\n",
       "   Message('note_on', channel=0, note=67, velocity=0, time=6),\n",
       "   Message('note_on', channel=0, note=79, velocity=77, time=193),\n",
       "   Message('note_on', channel=0, note=67, velocity=82, time=4),\n",
       "   Message('note_on', channel=0, note=59, velocity=74, time=3),\n",
       "   Message('note_on', channel=0, note=71, velocity=71, time=3),\n",
       "   Message('note_on', channel=0, note=74, velocity=58, time=4),\n",
       "   Message('note_on', channel=0, note=62, velocity=63, time=4),\n",
       "   Message('note_on', channel=0, note=74, velocity=0, time=6),\n",
       "   Message('note_on', channel=0, note=60, velocity=0, time=13),\n",
       "   Message('note_on', channel=0, note=72, velocity=0, time=10),\n",
       "   Message('note_on', channel=0, note=57, velocity=0, time=7),\n",
       "   Message('note_on', channel=0, note=74, velocity=80, time=588),\n",
       "   Message('note_on', channel=0, note=79, velocity=0, time=61),\n",
       "   Message('note_on', channel=0, note=67, velocity=0, time=1),\n",
       "   Message('note_on', channel=0, note=71, velocity=0, time=34),\n",
       "   Message('note_on', channel=0, note=59, velocity=0, time=346),\n",
       "   Message('note_on', channel=0, note=71, velocity=70, time=198),\n",
       "   Message('note_on', channel=0, note=59, velocity=56, time=25),\n",
       "   Message('note_on', channel=0, note=62, velocity=0, time=22),\n",
       "   Message('note_on', channel=0, note=62, velocity=42, time=7),\n",
       "   Message('note_on', channel=0, note=74, velocity=0, time=22),\n",
       "   Message('note_on', channel=0, note=71, velocity=0, time=263),\n",
       "   Message('note_on', channel=0, note=71, velocity=82, time=4),\n",
       "   Message('note_on', channel=0, note=62, velocity=0, time=31),\n",
       "   Message('note_on', channel=0, note=72, velocity=83, time=284),\n",
       "   Message('note_on', channel=0, note=59, velocity=0, time=4),\n",
       "   Message('note_on', channel=0, note=59, velocity=56, time=4),\n",
       "   Message('note_on', channel=0, note=57, velocity=56, time=2),\n",
       "   Message('note_on', channel=0, note=62, velocity=61, time=4),\n",
       "   Message('note_on', channel=0, note=71, velocity=0, time=43),\n",
       "   Message('note_on', channel=0, note=59, velocity=0, time=108),\n",
       "   Message('note_on', channel=0, note=81, velocity=72, time=148),\n",
       "   Message('note_on', channel=0, note=69, velocity=77, time=1),\n",
       "   Message('note_on', channel=0, note=72, velocity=0, time=85),\n",
       "   Message('note_on', channel=0, note=62, velocity=0, time=12),\n",
       "   Message('note_on', channel=0, note=81, velocity=0, time=107),\n",
       "   Message('note_on', channel=0, note=71, velocity=78, time=133),\n",
       "   Message('note_on', channel=0, note=62, velocity=53, time=11),\n",
       "   Message('note_on', channel=0, note=67, velocity=52, time=5),\n",
       "   Message('note_on', channel=0, note=55, velocity=51, time=1),\n",
       "   Message('note_on', channel=0, note=57, velocity=0, time=35),\n",
       "   Message('note_on', channel=0, note=69, velocity=0, time=15),\n",
       "   Message('control_change', channel=0, control=64, value=127, time=107),\n",
       "   Message('control_change', channel=0, control=64, value=0, time=880),\n",
       "   Message('note_on', channel=0, note=55, velocity=0, time=3),\n",
       "   Message('note_on', channel=0, note=67, velocity=0, time=1),\n",
       "   Message('note_on', channel=0, note=62, velocity=0, time=7),\n",
       "   Message('note_on', channel=0, note=71, velocity=0, time=35),\n",
       "   Message('note_on', channel=0, note=79, velocity=64, time=175),\n",
       "   Message('note_on', channel=0, note=67, velocity=70, time=1),\n",
       "   Message('note_on', channel=0, note=59, velocity=52, time=42),\n",
       "   Message('note_on', channel=0, note=62, velocity=43, time=4),\n",
       "   Message('note_on', channel=0, note=79, velocity=0, time=35),\n",
       "   Message('note_on', channel=0, note=67, velocity=0, time=120),\n",
       "   Message('note_on', channel=0, note=79, velocity=64, time=119),\n",
       "   Message('note_on', channel=0, note=67, velocity=67, time=1),\n",
       "   Message('note_on', channel=0, note=79, velocity=0, time=60),\n",
       "   Message('note_on', channel=0, note=67, velocity=0, time=88),\n",
       "   Message('note_on', channel=0, note=79, velocity=71, time=152),\n",
       "   Message('note_on', channel=0, note=67, velocity=76, time=2),\n",
       "   Message('note_on', channel=0, note=60, velocity=68, time=7),\n",
       "   Message('note_on', channel=0, note=72, velocity=58, time=0),\n",
       "   Message('note_on', channel=0, note=57, velocity=53, time=14),\n",
       "   Message('note_on', channel=0, note=59, velocity=0, time=13),\n",
       "   Message('note_on', channel=0, note=62, velocity=0, time=16),\n",
       "   Message('note_on', channel=0, note=67, velocity=0, time=136),\n",
       "   Message('note_on', channel=0, note=79, velocity=0, time=17),\n",
       "   Message('note_on', channel=0, note=79, velocity=66, time=126),\n",
       "   Message('note_on', channel=0, note=67, velocity=68, time=1),\n",
       "   Message('note_on', channel=0, note=72, velocity=0, time=73),\n",
       "   Message('control_change', channel=0, control=64, value=127, time=8),\n",
       "   Message('note_on', channel=0, note=67, velocity=0, time=41),\n",
       "   Message('control_change', channel=0, control=64, value=0, time=12),\n",
       "   Message('note_on', channel=0, note=79, velocity=0, time=162),\n",
       "   Message('note_on', channel=0, note=79, velocity=75, time=4),\n",
       "   Message('note_on', channel=0, note=67, velocity=80, time=4),\n",
       "   Message('note_on', channel=0, note=59, velocity=64, time=17),\n",
       "   Message('note_on', channel=0, note=62, velocity=52, time=2),\n",
       "   Message('note_on', channel=0, note=71, velocity=60, time=3),\n",
       "   Message('note_on', channel=0, note=74, velocity=49, time=2),\n",
       "   Message('note_on', channel=0, note=57, velocity=0, time=52),\n",
       "   Message('note_on', channel=0, note=60, velocity=0, time=49),\n",
       "   Message('control_change', channel=0, control=64, value=127, time=128),\n",
       "   Message('note_on', channel=0, note=74, velocity=0, time=61),\n",
       "   Message('note_on', channel=0, note=74, velocity=76, time=329),\n",
       "   Message('control_change', channel=0, control=64, value=0, time=12),\n",
       "   Message('note_on', channel=0, note=79, velocity=0, time=93),\n",
       "   Message('note_on', channel=0, note=67, velocity=0, time=3),\n",
       "   Message('note_on', channel=0, note=62, velocity=0, time=386),\n",
       "   Message('note_on', channel=0, note=59, velocity=0, time=1),\n",
       "   Message('note_on', channel=0, note=71, velocity=0, time=6),\n",
       "   Message('note_on', channel=0, note=74, velocity=0, time=30),\n",
       "   Message('note_on', channel=0, note=71, velocity=77, time=129),\n",
       "   Message('note_on', channel=0, note=59, velocity=59, time=33),\n",
       "   Message('note_on', channel=0, note=62, velocity=54, time=3),\n",
       "   Message('note_on', channel=0, note=71, velocity=0, time=173),\n",
       "   Message('note_on', channel=0, note=71, velocity=67, time=127),\n",
       "   Message('note_on', channel=0, note=62, velocity=0, time=86),\n",
       "   Message('note_on', channel=0, note=69, velocity=72, time=213),\n",
       "   Message('note_on', channel=0, note=72, velocity=58, time=23),\n",
       "   Message('note_on', channel=0, note=71, velocity=0, time=4),\n",
       "   Message('note_on', channel=0, note=60, velocity=66, time=4),\n",
       "   Message('note_on', channel=0, note=62, velocity=53, time=3),\n",
       "   Message('note_on', channel=0, note=59, velocity=0, time=5),\n",
       "   Message('note_on', channel=0, note=69, velocity=0, time=156),\n",
       "   Message('note_on', channel=0, note=72, velocity=0, time=78),\n",
       "   Message('note_on', channel=0, note=69, velocity=60, time=79),\n",
       "   Message('control_change', channel=0, control=64, value=127, time=21),\n",
       "   Message('control_change', channel=0, control=64, value=0, time=31),\n",
       "   Message('note_on', channel=0, note=62, velocity=0, time=27),\n",
       "   Message('control_change', channel=0, control=64, value=127, time=57),\n",
       "   Message('note_on', channel=0, note=67, velocity=69, time=194),\n",
       "   Message('note_on', channel=0, note=59, velocity=65, time=4),\n",
       "   Message('note_on', channel=0, note=71, velocity=61, time=6),\n",
       "   Message('note_on', channel=0, note=62, velocity=43, time=32),\n",
       "   Message('note_on', channel=0, note=60, velocity=0, time=5),\n",
       "   Message('note_on', channel=0, note=69, velocity=0, time=1),\n",
       "   Message('control_change', channel=0, control=64, value=0, time=4),\n",
       "   Message('control_change', channel=0, control=64, value=127, time=737),\n",
       "   Message('control_change', channel=0, control=64, value=0, time=482),\n",
       "   Message('note_on', channel=0, note=67, velocity=0, time=1),\n",
       "   Message('note_on', channel=0, note=62, velocity=0, time=2),\n",
       "   Message('note_on', channel=0, note=59, velocity=0, time=3),\n",
       "   Message('note_on', channel=0, note=71, velocity=0, time=11),\n",
       "   Message('note_on', channel=0, note=60, velocity=79, time=5315),\n",
       "   Message('note_on', channel=0, note=48, velocity=71, time=3),\n",
       "   Message('control_change', channel=0, control=64, value=127, time=58),\n",
       "   Message('note_on', channel=0, note=64, velocity=92, time=289),\n",
       "   Message('note_on', channel=0, note=52, velocity=81, time=1),\n",
       "   Message('control_change', channel=0, control=64, value=0, time=22),\n",
       "   Message('note_on', channel=0, note=48, velocity=0, time=42),\n",
       "   Message('note_on', channel=0, note=60, velocity=0, time=7),\n",
       "   Message('control_change', channel=0, control=64, value=127, time=100),\n",
       "   Message('note_on', channel=0, note=52, velocity=0, time=146),\n",
       "   Message('note_on', channel=0, note=79, velocity=79, time=4),\n",
       "   Message('note_on', channel=0, note=55, velocity=77, time=0),\n",
       "   Message('note_on', channel=0, note=67, velocity=86, time=0),\n",
       "   Message('note_on', channel=0, note=52, velocity=66, time=1),\n",
       "   Message('note_on', channel=0, note=79, velocity=0, time=33),\n",
       "   Message('note_on', channel=0, note=52, velocity=0, time=5),\n",
       "   Message('control_change', channel=0, control=64, value=0, time=6),\n",
       "   Message('note_on', channel=0, note=64, velocity=0, time=36),\n",
       "   Message('note_on', channel=0, note=55, velocity=0, time=97),\n",
       "   Message('note_on', channel=0, note=67, velocity=0, time=13),\n",
       "   Message('note_on', channel=0, note=64, velocity=88, time=159),\n",
       "   Message('note_on', channel=0, note=76, velocity=79, time=0),\n",
       "   Message('note_on', channel=0, note=55, velocity=82, time=2),\n",
       "   Message('note_on', channel=0, note=52, velocity=77, time=0),\n",
       "   Message('note_on', channel=0, note=67, velocity=86, time=1),\n",
       "   Message('note_on', channel=0, note=60, velocity=81, time=0),\n",
       "   Message('note_on', channel=0, note=48, velocity=77, time=1),\n",
       "   Message('control_change', channel=0, control=64, value=127, time=95),\n",
       "   Message('note_on', channel=0, note=52, velocity=0, time=645),\n",
       "   Message('note_on', channel=0, note=48, velocity=0, time=8),\n",
       "   Message('note_on', channel=0, note=52, velocity=26, time=3),\n",
       "   Message('note_on', channel=0, note=48, velocity=38, time=3),\n",
       "   Message('note_on', channel=0, note=52, velocity=0, time=46),\n",
       "   Message('note_on', channel=0, note=60, velocity=0, time=1),\n",
       "   Message('control_change', channel=0, control=64, value=0, time=1),\n",
       "   Message('note_on', channel=0, note=48, velocity=0, time=0),\n",
       "   Message('note_on', channel=0, note=64, velocity=0, time=1),\n",
       "   Message('note_on', channel=0, note=55, velocity=0, time=1),\n",
       "   Message('note_on', channel=0, note=76, velocity=0, time=5),\n",
       "   Message('note_on', channel=0, note=67, velocity=0, time=16),\n",
       "   Message('note_on', channel=0, note=50, velocity=76, time=159),\n",
       "   Message('note_on', channel=0, note=62, velocity=84, time=0),\n",
       "   Message('note_on', channel=0, note=53, velocity=76, time=328),\n",
       "   Message('note_on', channel=0, note=72, velocity=68, time=0),\n",
       "   Message('note_on', channel=0, note=77, velocity=83, time=1),\n",
       "   Message('note_on', channel=0, note=65, velocity=83, time=3),\n",
       "   Message('note_on', channel=0, note=50, velocity=0, time=97),\n",
       "   Message('note_on', channel=0, note=62, velocity=0, time=3),\n",
       "   Message('control_change', channel=0, control=64, value=127, time=184),\n",
       "   Message('note_on', channel=0, note=81, velocity=74, time=41),\n",
       "   Message('note_on', channel=0, note=57, velocity=69, time=3),\n",
       "   Message('note_on', channel=0, note=69, velocity=76, time=1),\n",
       "   Message('note_on', channel=0, note=72, velocity=0, time=63),\n",
       "   Message('control_change', channel=0, control=64, value=0, time=8),\n",
       "   Message('note_on', channel=0, note=53, velocity=0, time=5),\n",
       "   Message('note_on', channel=0, note=77, velocity=0, time=48),\n",
       "   Message('note_on', channel=0, note=65, velocity=0, time=5),\n",
       "   Message('note_on', channel=0, note=69, velocity=0, time=0),\n",
       "   Message('note_on', channel=0, note=81, velocity=0, time=3),\n",
       "   Message('note_on', channel=0, note=57, velocity=0, time=2),\n",
       "   Message('note_on', channel=0, note=65, velocity=79, time=210),\n",
       "   Message('note_on', channel=0, note=57, velocity=79, time=0),\n",
       "   Message('note_on', channel=0, note=62, velocity=80, time=1),\n",
       "   Message('note_on', channel=0, note=53, velocity=73, time=0),\n",
       "   Message('note_on', channel=0, note=69, velocity=80, time=1),\n",
       "   Message('note_on', channel=0, note=50, velocity=76, time=1),\n",
       "   Message('note_on', channel=0, note=77, velocity=78, time=0),\n",
       "   Message('note_on', channel=0, note=74, velocity=77, time=3),\n",
       "   Message('control_change', channel=0, control=64, value=127, time=450),\n",
       "   Message('note_on', channel=0, note=77, velocity=0, time=100),\n",
       "   Message('note_on', channel=0, note=62, velocity=0, time=184),\n",
       "   Message('note_on', channel=0, note=65, velocity=0, time=0),\n",
       "   Message('control_change', channel=0, control=64, value=0, time=1),\n",
       "   Message('note_on', channel=0, note=65, velocity=44, time=4),\n",
       "   Message('note_on', channel=0, note=62, velocity=44, time=0),\n",
       "   Message('note_on', channel=0, note=50, velocity=0, time=7),\n",
       "   Message('note_on', channel=0, note=69, velocity=0, time=2),\n",
       "   Message('note_on', channel=0, note=53, velocity=0, time=1),\n",
       "   Message('note_on', channel=0, note=57, velocity=0, time=1),\n",
       "   Message('note_on', channel=0, note=74, velocity=0, time=7),\n",
       "   Message('note_on', channel=0, note=62, velocity=0, time=31),\n",
       "   Message('note_on', channel=0, note=65, velocity=0, time=1),\n",
       "   Message('note_on', channel=0, note=64, velocity=81, time=171),\n",
       "   Message('note_on', channel=0, note=52, velocity=74, time=6),\n",
       "   Message('control_change', channel=0, control=64, value=127, time=152),\n",
       "   Message('control_change', channel=0, control=64, value=0, time=156),\n",
       "   Message('note_on', channel=0, note=55, velocity=80, time=2),\n",
       "   Message('note_on', channel=0, note=79, velocity=80, time=1),\n",
       "   Message('note_on', channel=0, note=67, velocity=87, time=1),\n",
       "   Message('note_on', channel=0, note=64, velocity=0, time=77),\n",
       "   Message('note_on', channel=0, note=52, velocity=0, time=9),\n",
       "   Message('note_on', channel=0, note=79, velocity=0, time=100),\n",
       "   Message('control_change', channel=0, control=64, value=127, time=108),\n",
       "   Message('note_on', channel=0, note=59, velocity=74, time=5),\n",
       "   Message('note_on', channel=0, note=71, velocity=71, time=7),\n",
       "   Message('control_change', channel=0, control=64, value=0, time=95),\n",
       "   Message('note_on', channel=0, note=67, velocity=0, time=4),\n",
       "   Message('note_on', channel=0, note=55, velocity=0, time=2),\n",
       "   Message('note_on', channel=0, note=59, velocity=0, time=38),\n",
       "   Message('note_on', channel=0, note=71, velocity=0, time=6),\n",
       "   Message('note_on', channel=0, note=76, velocity=80, time=191),\n",
       "   Message('note_on', channel=0, note=55, velocity=77, time=1),\n",
       "   Message('note_on', channel=0, note=67, velocity=82, time=0),\n",
       "   Message('note_on', channel=0, note=71, velocity=85, time=0),\n",
       "   Message('note_on', channel=0, note=64, velocity=79, time=0),\n",
       "   Message('note_on', channel=0, note=52, velocity=76, time=0),\n",
       "   Message('note_on', channel=0, note=59, velocity=82, time=0),\n",
       "   Message('control_change', channel=0, control=64, value=127, time=204),\n",
       "   Message('note_on', channel=0, note=52, velocity=0, time=555),\n",
       "   Message('note_on', channel=0, note=64, velocity=0, time=1),\n",
       "   Message('control_change', channel=0, control=64, value=0, time=2),\n",
       "   Message('note_on', channel=0, note=59, velocity=0, time=2),\n",
       "   Message('note_on', channel=0, note=71, velocity=0, time=0),\n",
       "   Message('note_on', channel=0, note=55, velocity=0, time=3),\n",
       "   Message('note_on', channel=0, note=67, velocity=0, time=1),\n",
       "   Message('note_on', channel=0, note=76, velocity=0, time=12),\n",
       "   Message('note_on', channel=0, note=65, velocity=84, time=160),\n",
       "   Message('note_on', channel=0, note=53, velocity=80, time=0),\n",
       "   Message('control_change', channel=0, control=64, value=127, time=32),\n",
       "   Message('note_on', channel=0, note=53, velocity=0, time=276),\n",
       "   Message('note_on', channel=0, note=81, velocity=81, time=5),\n",
       "   Message('note_on', channel=0, note=53, velocity=60, time=3),\n",
       "   Message('note_on', channel=0, note=57, velocity=72, time=2),\n",
       "   Message('note_on', channel=0, note=69, velocity=84, time=1),\n",
       "   Message('control_change', channel=0, control=64, value=0, time=23),\n",
       "   Message('note_on', channel=0, note=53, velocity=0, time=85),\n",
       "   Message('note_on', channel=0, note=65, velocity=0, time=0),\n",
       "   Message('control_change', channel=0, control=64, value=127, time=196),\n",
       "   Message('note_on', channel=0, note=72, velocity=78, time=12),\n",
       "   Message('note_on', channel=0, note=60, velocity=67, time=3),\n",
       "   Message('note_on', channel=0, note=69, velocity=0, time=72),\n",
       "   Message('note_on', channel=0, note=81, velocity=0, time=5),\n",
       "   Message('note_on', channel=0, note=57, velocity=0, time=12),\n",
       "   Message('control_change', channel=0, control=64, value=0, time=19),\n",
       "   Message('note_on', channel=0, note=60, velocity=0, time=26),\n",
       "   Message('note_on', channel=0, note=72, velocity=0, time=18),\n",
       "   Message('note_on', channel=0, note=72, velocity=90, time=181),\n",
       "   Message('note_on', channel=0, note=81, velocity=82, time=0),\n",
       "   Message('note_on', channel=0, note=65, velocity=77, time=1),\n",
       "   Message('note_on', channel=0, note=69, velocity=84, time=0),\n",
       "   Message('note_on', channel=0, note=53, velocity=68, time=1),\n",
       "   Message('note_on', channel=0, note=60, velocity=74, time=0),\n",
       "   Message('note_on', channel=0, note=57, velocity=73, time=2),\n",
       "   Message('control_change', channel=0, control=64, value=127, time=124),\n",
       "   Message('note_on', channel=0, note=81, velocity=0, time=553),\n",
       "   Message('control_change', channel=0, control=64, value=0, time=49),\n",
       "   Message('note_on', channel=0, note=69, velocity=0, time=25),\n",
       "   Message('note_on', channel=0, note=60, velocity=0, time=4),\n",
       "   Message('note_on', channel=0, note=57, velocity=0, time=1),\n",
       "   Message('note_on', channel=0, note=72, velocity=0, time=2),\n",
       "   Message('note_on', channel=0, note=53, velocity=0, time=3),\n",
       "   Message('note_on', channel=0, note=65, velocity=0, time=0),\n",
       "   Message('note_on', channel=0, note=67, velocity=89, time=163),\n",
       "   Message('note_on', channel=0, note=79, velocity=80, time=1),\n",
       "   Message('note_on', channel=0, note=55, velocity=77, time=1),\n",
       "   Message('control_change', channel=0, control=64, value=127, time=112),\n",
       "   Message('control_change', channel=0, control=64, value=0, time=153),\n",
       "   Message('note_on', channel=0, note=55, velocity=0, time=31),\n",
       "   Message('note_on', channel=0, note=71, velocity=87, time=5),\n",
       "   Message('note_on', channel=0, note=59, velocity=78, time=0),\n",
       "   Message('note_on', channel=0, note=83, velocity=74, time=1),\n",
       "   Message('note_on', channel=0, note=55, velocity=62, time=1),\n",
       "   Message('control_change', channel=0, control=64, value=127, time=1),\n",
       "   Message('note_on', channel=0, note=83, velocity=0, time=8),\n",
       "   Message('control_change', channel=0, control=64, value=0, time=60),\n",
       "   Message('note_on', channel=0, note=67, velocity=0, time=18),\n",
       "   Message('note_on', channel=0, note=79, velocity=0, time=1),\n",
       "   Message('note_on', channel=0, note=55, velocity=0, time=23),\n",
       "   Message('note_on', channel=0, note=62, velocity=58, time=203),\n",
       "   Message('note_on', channel=0, note=74, velocity=71, time=3),\n",
       "   Message('note_on', channel=0, note=71, velocity=0, time=47),\n",
       "   Message('note_on', channel=0, note=59, velocity=0, time=39),\n",
       "   Message('note_on', channel=0, note=62, velocity=0, time=65),\n",
       "   Message('note_on', channel=0, note=74, velocity=0, time=2),\n",
       "   Message('note_on', channel=0, note=55, velocity=66, time=195),\n",
       "   Message('note_on', channel=0, note=74, velocity=75, time=0),\n",
       "   Message('note_on', channel=0, note=59, velocity=70, time=1),\n",
       "   Message('note_on', channel=0, note=62, velocity=69, time=1),\n",
       "   Message('note_on', channel=0, note=50, velocity=66, time=4),\n",
       "   Message('note_on', channel=0, note=67, velocity=73, time=0),\n",
       "   Message('note_on', channel=0, note=72, velocity=77, time=2),\n",
       "   Message('note_on', channel=0, note=69, velocity=72, time=4),\n",
       "   Message('note_on', channel=0, note=71, velocity=71, time=4),\n",
       "   Message('note_on', channel=0, note=69, velocity=0, time=3),\n",
       "   Message('control_change', channel=0, control=64, value=127, time=85),\n",
       "   Message('note_on', channel=0, note=50, velocity=0, time=107),\n",
       "   Message('note_on', channel=0, note=72, velocity=0, time=54),\n",
       "   Message('note_on', channel=0, note=52, velocity=26, time=460),\n",
       "   Message('note_on', channel=0, note=74, velocity=0, time=1),\n",
       "   Message('note_on', channel=0, note=74, velocity=35, time=7),\n",
       "   Message('note_on', channel=0, note=52, velocity=0, time=1),\n",
       "   Message('note_on', channel=0, note=74, velocity=0, time=41),\n",
       "   Message('note_on', channel=0, note=71, velocity=0, time=0),\n",
       "   Message('note_on', channel=0, note=55, velocity=0, time=1),\n",
       "   Message('note_on', channel=0, note=62, velocity=0, time=0),\n",
       "   Message('control_change', channel=0, control=64, value=0, time=11),\n",
       "   Message('note_on', channel=0, note=59, velocity=0, time=1),\n",
       "   Message('note_on', channel=0, note=67, velocity=0, time=7),\n",
       "   Message('note_on', channel=0, note=81, velocity=82, time=126),\n",
       "   Message('note_on', channel=0, note=69, velocity=89, time=2),\n",
       "   Message('note_on', channel=0, note=57, velocity=77, time=4),\n",
       "   Message('note_on', channel=0, note=72, velocity=90, time=295),\n",
       "   Message('note_on', channel=0, note=60, velocity=73, time=1),\n",
       "   Message('note_on', channel=0, note=81, velocity=0, time=44),\n",
       "   Message('note_on', channel=0, note=57, velocity=0, time=1),\n",
       "   Message('note_on', channel=0, note=69, velocity=0, time=1),\n",
       "   Message('control_change', channel=0, control=64, value=127, time=18),\n",
       "   Message('control_change', channel=0, control=64, value=0, time=81),\n",
       "   Message('note_on', channel=0, note=60, velocity=0, time=157),\n",
       "   Message('note_on', channel=0, note=72, velocity=0, time=7),\n",
       "   Message('note_on', channel=0, note=76, velocity=73, time=2),\n",
       "   Message('note_on', channel=0, note=60, velocity=53, time=2),\n",
       "   Message('note_on', channel=0, note=64, velocity=66, time=3),\n",
       "   Message('note_on', channel=0, note=72, velocity=63, time=4),\n",
       "   Message('control_change', channel=0, control=64, value=127, time=36),\n",
       "   Message('note_on', channel=0, note=60, velocity=0, time=12),\n",
       "   Message('control_change', channel=0, control=64, value=0, time=34),\n",
       "   Message('note_on', channel=0, note=72, velocity=0, time=38),\n",
       "   Message('note_on', channel=0, note=76, velocity=0, time=4),\n",
       "   Message('note_on', channel=0, note=64, velocity=0, time=17),\n",
       "   Message('note_on', channel=0, note=72, velocity=85, time=182),\n",
       "   Message('note_on', channel=0, note=69, velocity=75, time=1),\n",
       "   Message('note_on', channel=0, note=76, velocity=85, time=0),\n",
       "   Message('note_on', channel=0, note=57, velocity=66, time=0),\n",
       "   Message('note_on', channel=0, note=64, velocity=71, time=0),\n",
       "   Message('note_on', channel=0, note=60, velocity=62, time=5),\n",
       "   Message('control_change', channel=0, control=64, value=127, time=236),\n",
       "   Message('note_on', channel=0, note=69, velocity=0, time=515),\n",
       "   Message('note_on', channel=0, note=76, velocity=0, time=1),\n",
       "   Message('note_on', channel=0, note=64, velocity=0, time=1),\n",
       "   Message('note_on', channel=0, note=57, velocity=0, time=1),\n",
       "   Message('note_on', channel=0, note=60, velocity=0, time=2),\n",
       "   Message('note_on', channel=0, note=72, velocity=0, time=0),\n",
       "   Message('control_change', channel=0, control=64, value=0, time=2),\n",
       "   Message('note_on', channel=0, note=59, velocity=76, time=140),\n",
       "   Message('note_on', channel=0, note=71, velocity=84, time=0),\n",
       "   Message('note_on', channel=0, note=74, velocity=85, time=295),\n",
       "   Message('note_on', channel=0, note=62, velocity=71, time=2),\n",
       "   Message('note_on', channel=0, note=71, velocity=0, time=35),\n",
       "   Message('note_on', channel=0, note=59, velocity=0, time=74),\n",
       "   Message('note_on', channel=0, note=77, velocity=85, time=221),\n",
       "   Message('note_on', channel=0, note=65, velocity=61, time=3),\n",
       "   Message('note_on', channel=0, note=74, velocity=0, time=95),\n",
       "   Message('note_on', channel=0, note=62, velocity=0, time=1),\n",
       "   Message('note_on', channel=0, note=65, velocity=0, time=38),\n",
       "   Message('note_on', channel=0, note=77, velocity=0, time=21),\n",
       "   Message('note_on', channel=0, note=77, velocity=84, time=180),\n",
       "   Message('note_on', channel=0, note=65, velocity=74, time=2),\n",
       "   Message('note_on', channel=0, note=59, velocity=75, time=2),\n",
       "   Message('note_on', channel=0, note=71, velocity=86, time=1),\n",
       "   Message('note_on', channel=0, note=74, velocity=79, time=0),\n",
       "   Message('note_on', channel=0, note=62, velocity=73, time=1),\n",
       "   Message('control_change', channel=0, control=64, value=127, time=134),\n",
       "   Message('note_on', channel=0, note=65, velocity=0, time=635),\n",
       "   Message('note_on', channel=0, note=71, velocity=0, time=1),\n",
       "   Message('control_change', channel=0, control=64, value=0, time=1),\n",
       "   Message('note_on', channel=0, note=59, velocity=0, time=2),\n",
       "   Message('note_on', channel=0, note=74, velocity=0, time=1),\n",
       "   Message('note_on', channel=0, note=62, velocity=0, time=0),\n",
       "   Message('note_on', channel=0, note=77, velocity=0, time=1),\n",
       "   Message('note_on', channel=0, note=72, velocity=94, time=160),\n",
       "   Message('note_on', channel=0, note=60, velocity=77, time=8),\n",
       "   Message('note_on', channel=0, note=60, velocity=0, time=297),\n",
       "   Message('note_on', channel=0, note=64, velocity=73, time=4),\n",
       "   Message('note_on', channel=0, note=76, velocity=86, time=0),\n",
       "   Message('note_on', channel=0, note=60, velocity=62, time=1),\n",
       "   Message('note_on', channel=0, note=72, velocity=0, time=85),\n",
       "   Message('note_on', channel=0, note=60, velocity=0, time=4),\n",
       "   Message('note_on', channel=0, note=76, velocity=0, time=205),\n",
       "   Message('note_on', channel=0, note=79, velocity=80, time=6),\n",
       "   Message('note_on', channel=0, note=67, velocity=63, time=4),\n",
       "   Message('note_on', channel=0, note=76, velocity=64, time=0),\n",
       "   Message('note_on', channel=0, note=76, velocity=0, time=67),\n",
       "   Message('note_on', channel=0, note=64, velocity=0, time=3),\n",
       "   Message('note_on', channel=0, note=67, velocity=0, time=55),\n",
       "   Message('note_on', channel=0, note=79, velocity=0, time=11),\n",
       "   Message('note_on', channel=0, note=79, velocity=84, time=197),\n",
       "   Message('note_on', channel=0, note=76, velocity=84, time=2),\n",
       "   Message('note_on', channel=0, note=60, velocity=71, time=1),\n",
       "   Message('note_on', channel=0, note=72, velocity=83, time=2),\n",
       "   Message('note_on', channel=0, note=67, velocity=72, time=1),\n",
       "   Message('note_on', channel=0, note=52, velocity=60, time=2),\n",
       "   Message('control_change', channel=0, control=64, value=127, time=49),\n",
       "   Message('note_on', channel=0, note=52, velocity=0, time=23),\n",
       "   Message('note_on', channel=0, note=60, velocity=0, time=856),\n",
       "   Message('control_change', channel=0, control=64, value=0, time=3),\n",
       "   Message('note_on', channel=0, note=72, velocity=0, time=4),\n",
       "   Message('note_on', channel=0, note=79, velocity=0, time=2),\n",
       "   Message('note_on', channel=0, note=76, velocity=0, time=6),\n",
       "   Message('note_on', channel=0, note=67, velocity=0, time=4),\n",
       "   Message('note_on', channel=0, note=48, velocity=74, time=1923),\n",
       "   Message('note_on', channel=0, note=52, velocity=81, time=307),\n",
       "   Message('note_on', channel=0, note=48, velocity=0, time=67),\n",
       "   Message('note_on', channel=0, note=55, velocity=77, time=236),\n",
       "   Message('note_on', channel=0, note=52, velocity=0, time=82),\n",
       "   Message('note_on', channel=0, note=72, velocity=78, time=210),\n",
       "   Message('note_on', channel=0, note=60, velocity=83, time=1),\n",
       "   Message('note_on', channel=0, note=55, velocity=0, time=43),\n",
       "   Message('note_on', channel=0, note=72, velocity=0, time=73),\n",
       "   Message('note_on', channel=0, note=64, velocity=91, time=179),\n",
       "   Message('note_on', channel=0, note=76, velocity=78, time=1),\n",
       "   Message('note_on', channel=0, note=60, velocity=0, time=85),\n",
       "   Message('note_on', channel=0, note=79, velocity=80, time=216),\n",
       "   Message('note_on', channel=0, note=67, velocity=88, time=1),\n",
       "   Message('note_on', channel=0, note=76, velocity=0, time=1),\n",
       "   Message('note_on', channel=0, note=79, velocity=0, time=54),\n",
       "   Message('note_on', channel=0, note=64, velocity=0, time=43),\n",
       "   Message('note_on', channel=0, note=48, velocity=74, time=201),\n",
       "   Message('note_on', channel=0, note=55, velocity=77, time=0),\n",
       "   Message('note_on', channel=0, note=52, velocity=76, time=0),\n",
       "   Message('control_change', channel=0, control=64, value=127, time=156),\n",
       "   Message('note_on', channel=0, note=52, velocity=0, time=737),\n",
       "   Message('note_on', channel=0, note=67, velocity=0, time=0),\n",
       "   Message('note_on', channel=0, note=79, velocity=79, time=3),\n",
       "   Message('note_on', channel=0, note=76, velocity=80, time=1),\n",
       "   Message('note_on', channel=0, note=72, velocity=74, time=0),\n",
       "   Message('note_on', channel=0, note=67, velocity=84, time=1),\n",
       "   Message('note_on', channel=0, note=64, velocity=81, time=0),\n",
       "   Message('note_on', channel=0, note=60, velocity=79, time=1),\n",
       "   Message('note_on', channel=0, note=52, velocity=62, time=1),\n",
       "   Message('note_on', channel=0, note=55, velocity=0, time=54),\n",
       "   Message('control_change', channel=0, control=64, value=0, time=21),\n",
       "   Message('note_on', channel=0, note=48, velocity=0, time=2),\n",
       "   Message('note_on', channel=0, note=72, velocity=0, time=139),\n",
       "   Message('note_on', channel=0, note=79, velocity=0, time=7),\n",
       "   Message('note_on', channel=0, note=52, velocity=0, time=16),\n",
       "   Message('control_change', channel=0, control=64, value=127, time=15),\n",
       "   Message('note_on', channel=0, note=53, velocity=87, time=621),\n",
       "   Message('note_on', channel=0, note=76, velocity=0, time=93),\n",
       "   Message('control_change', channel=0, control=64, value=0, time=6),\n",
       "   Message('note_on', channel=0, note=60, velocity=0, time=2),\n",
       "   Message('note_on', channel=0, note=64, velocity=0, time=8),\n",
       "   Message('note_on', channel=0, note=67, velocity=0, time=15),\n",
       "   Message('note_on', channel=0, note=57, velocity=75, time=166),\n",
       "   Message('note_on', channel=0, note=53, velocity=0, time=107),\n",
       "   Message('note_on', channel=0, note=72, velocity=73, time=177),\n",
       "   Message('note_on', channel=0, note=60, velocity=75, time=1),\n",
       "   Message('note_on', channel=0, note=57, velocity=0, time=122),\n",
       "   Message('control_change', channel=0, control=64, value=127, time=11),\n",
       "   Message('control_change', channel=0, control=64, value=0, time=153),\n",
       "   Message('note_on', channel=0, note=65, velocity=87, time=6),\n",
       "   Message('note_on', channel=0, note=77, velocity=78, time=1),\n",
       "   Message('note_on', channel=0, note=60, velocity=0, time=75),\n",
       "   Message('note_on', channel=0, note=72, velocity=0, time=33),\n",
       "   Message('note_on', channel=0, note=81, velocity=81, time=185),\n",
       "   Message('note_on', channel=0, note=69, velocity=87, time=3),\n",
       "   Message('note_on', channel=0, note=65, velocity=0, time=82),\n",
       "   Message('note_on', channel=0, note=77, velocity=0, time=38),\n",
       "   Message('note_on', channel=0, note=72, velocity=95, time=174),\n",
       "   Message('note_on', channel=0, note=81, velocity=0, time=25),\n",
       "   Message('note_on', channel=0, note=69, velocity=0, time=8),\n",
       "   Message('note_on', channel=0, note=72, velocity=0, time=253),\n",
       "   Message('note_on', channel=0, note=53, velocity=70, time=5),\n",
       "   Message('note_on', channel=0, note=72, velocity=73, time=0),\n",
       "   Message('note_on', channel=0, note=65, velocity=60, time=1),\n",
       "   Message('note_on', channel=0, note=60, velocity=74, time=2),\n",
       "   Message('note_on', channel=0, note=57, velocity=68, time=8),\n",
       "   Message('control_change', channel=0, control=64, value=127, time=215),\n",
       "   Message('note_on', channel=0, note=60, velocity=0, time=645),\n",
       "   Message('note_on', channel=0, note=65, velocity=0, time=0),\n",
       "   Message('note_on', channel=0, note=72, velocity=0, time=0),\n",
       "   Message('note_on', channel=0, note=72, velocity=86, time=4),\n",
       "   Message('note_on', channel=0, note=60, velocity=55, time=1),\n",
       "   Message('note_on', channel=0, note=69, velocity=80, time=2),\n",
       "   Message('note_on', channel=0, note=65, velocity=72, time=0),\n",
       "   Message('control_change', channel=0, control=64, value=0, time=87),\n",
       "   Message('control_change', channel=0, control=64, value=127, time=267),\n",
       "   Message('note_on', channel=0, note=60, velocity=0, time=207),\n",
       "   Message('note_on', channel=0, note=53, velocity=0, time=246),\n",
       "   Message('note_on', channel=0, note=55, velocity=79, time=33),\n",
       "   Message('note_on', channel=0, note=57, velocity=0, time=59),\n",
       "   Message('control_change', channel=0, control=64, value=0, time=29),\n",
       "   Message('note_on', channel=0, note=65, velocity=0, time=6),\n",
       "   Message('note_on', channel=0, note=72, velocity=0, time=5),\n",
       "   Message('note_on', channel=0, note=69, velocity=0, time=3),\n",
       "   Message('note_on', channel=0, note=59, velocity=83, time=184),\n",
       "   Message('note_on', channel=0, note=55, velocity=0, time=161),\n",
       "   Message('note_on', channel=0, note=62, velocity=69, time=114),\n",
       "   Message('note_on', channel=0, note=59, velocity=0, time=110),\n",
       "   Message('note_on', channel=0, note=79, velocity=74, time=167),\n",
       "   Message('note_on', channel=0, note=67, velocity=83, time=1),\n",
       "   Message('note_on', channel=0, note=79, velocity=0, time=119),\n",
       "   Message('note_on', channel=0, note=62, velocity=0, time=7),\n",
       "   Message('note_on', channel=0, note=71, velocity=93, time=157),\n",
       "   Message('note_on', channel=0, note=67, velocity=0, time=84),\n",
       "   Message('note_on', channel=0, note=74, velocity=93, time=193),\n",
       "   Message('note_on', channel=0, note=71, velocity=0, time=100),\n",
       "   Message('note_on', channel=0, note=62, velocity=71, time=197),\n",
       "   Message('note_on', channel=0, note=55, velocity=69, time=1),\n",
       "   Message('note_on', channel=0, note=59, velocity=76, time=0),\n",
       "   Message('control_change', channel=0, control=64, value=127, time=205),\n",
       "   Message('note_on', channel=0, note=62, velocity=0, time=631),\n",
       "   Message('note_on', channel=0, note=55, velocity=0, time=1),\n",
       "   Message('note_on', channel=0, note=59, velocity=0, time=1),\n",
       "   Message('note_on', channel=0, note=74, velocity=0, time=5),\n",
       "   Message('control_change', channel=0, control=64, value=0, time=10),\n",
       "   Message('note_on', channel=0, note=79, velocity=82, time=20),\n",
       "   Message('note_on', channel=0, note=74, velocity=86, time=2),\n",
       "   Message('note_on', channel=0, note=71, velocity=85, time=1),\n",
       "   Message('note_on', channel=0, note=67, velocity=86, time=0),\n",
       "   Message('control_change', channel=0, control=64, value=127, time=128),\n",
       "   Message('note_on', channel=0, note=48, velocity=77, time=699),\n",
       "   Message('note_on', channel=0, note=79, velocity=0, time=61),\n",
       "   Message('control_change', channel=0, control=64, value=0, time=49),\n",
       "   Message('note_on', channel=0, note=74, velocity=0, time=1),\n",
       "   Message('note_on', channel=0, note=71, velocity=0, time=27),\n",
       "   Message('note_on', channel=0, note=67, velocity=0, time=8),\n",
       "   Message('note_on', channel=0, note=52, velocity=78, time=148),\n",
       "   Message('note_on', channel=0, note=48, velocity=0, time=110),\n",
       "   Message('note_on', channel=0, note=55, velocity=74, time=177),\n",
       "   Message('note_on', channel=0, note=52, velocity=0, time=80),\n",
       "   Message('note_on', channel=0, note=72, velocity=75, time=211),\n",
       "   Message('note_on', channel=0, note=60, velocity=82, time=0),\n",
       "   Message('note_on', channel=0, note=55, velocity=0, time=62),\n",
       "   Message('control_change', channel=0, control=64, value=127, time=80),\n",
       "   Message('control_change', channel=0, control=64, value=0, time=7),\n",
       "   Message('note_on', channel=0, note=64, velocity=93, time=143),\n",
       "   Message('note_on', channel=0, note=76, velocity=79, time=0),\n",
       "   Message('note_on', channel=0, note=60, velocity=0, time=92),\n",
       "   Message('note_on', channel=0, note=72, velocity=0, time=2),\n",
       "   Message('note_on', channel=0, note=79, velocity=78, time=191),\n",
       "   Message('note_on', channel=0, note=67, velocity=87, time=0),\n",
       "   Message('note_on', channel=0, note=76, velocity=0, time=26),\n",
       "   Message('note_on', channel=0, note=79, velocity=0, time=0),\n",
       "   Message('note_on', channel=0, note=64, velocity=0, time=9),\n",
       "   Message('note_on', channel=0, note=67, velocity=0, time=252),\n",
       "   Message('note_on', channel=0, note=72, velocity=77, time=2),\n",
       "   Message('note_on', channel=0, note=60, velocity=77, time=2),\n",
       "   Message('note_on', channel=0, note=67, velocity=69, time=3),\n",
       "   Message('note_on', channel=0, note=52, velocity=73, time=3),\n",
       "   Message('note_on', channel=0, note=48, velocity=70, time=2),\n",
       "   Message('note_on', channel=0, note=55, velocity=71, time=1),\n",
       "   Message('control_change', channel=0, control=64, value=127, time=140),\n",
       "   Message('control_change', channel=0, control=64, value=0, time=1544),\n",
       "   Message('note_on', channel=0, note=48, velocity=0, time=3),\n",
       "   Message('note_on', channel=0, note=67, velocity=0, time=2),\n",
       "   Message('note_on', channel=0, note=55, velocity=0, time=2),\n",
       "   Message('note_on', channel=0, note=52, velocity=0, time=5),\n",
       "   Message('note_on', channel=0, note=72, velocity=0, time=34),\n",
       "   Message('note_on', channel=0, note=60, velocity=0, time=10),\n",
       "   Message('note_on', channel=0, note=79, velocity=76, time=3718),\n",
       "   Message('note_on', channel=0, note=67, velocity=82, time=3),\n",
       "   Message('note_on', channel=0, note=79, velocity=0, time=2),\n",
       "   Message('note_on', channel=0, note=59, velocity=75, time=3),\n",
       "   Message('note_on', channel=0, note=71, velocity=71, time=1),\n",
       "   Message('note_on', channel=0, note=62, velocity=61, time=599),\n",
       "   Message('note_on', channel=0, note=59, velocity=0, time=155),\n",
       "   Message('note_on', channel=0, note=71, velocity=0, time=79),\n",
       "   Message('note_on', channel=0, note=69, velocity=77, time=16),\n",
       "   Message('note_on', channel=0, note=67, velocity=0, time=124),\n",
       "   Message('note_on', channel=0, note=71, velocity=80, time=164),\n",
       "   Message('note_on', channel=0, note=55, velocity=54, time=6),\n",
       "   Message('note_on', channel=0, note=69, velocity=0, time=123),\n",
       "   Message('note_on', channel=0, note=62, velocity=0, time=16),\n",
       "   Message('note_on', channel=0, note=62, velocity=47, time=430),\n",
       "   Message('note_on', channel=0, note=55, velocity=0, time=31),\n",
       "   Message('control_change', channel=0, control=64, value=127, time=134),\n",
       "   Message('note_on', channel=0, note=81, velocity=70, time=331),\n",
       "   Message('note_on', channel=0, note=69, velocity=76, time=3),\n",
       "   Message('note_on', channel=0, note=81, velocity=0, time=4),\n",
       "   Message('note_on', channel=0, note=60, velocity=65, time=3),\n",
       "   Message('control_change', channel=0, control=64, value=0, time=11),\n",
       "   Message('note_on', channel=0, note=71, velocity=0, time=17),\n",
       "   Message('note_on', channel=0, note=62, velocity=0, time=2),\n",
       "   Message('note_on', channel=0, note=60, velocity=0, time=489),\n",
       "   Message('note_on', channel=0, note=62, velocity=54, time=5),\n",
       "   Message('note_on', channel=0, note=60, velocity=45, time=0),\n",
       "   Message('note_on', channel=0, note=60, velocity=0, time=66),\n",
       "   Message('note_on', channel=0, note=71, velocity=78, time=181),\n",
       "   Message('control_change', channel=0, control=64, value=127, time=32),\n",
       "   Message('note_on', channel=0, note=69, velocity=0, time=97),\n",
       "   Message('note_on', channel=0, note=72, velocity=81, time=154),\n",
       "   Message('note_on', channel=0, note=57, velocity=53, time=6),\n",
       "   Message('control_change', channel=0, control=64, value=0, time=66),\n",
       "   Message('note_on', channel=0, note=62, velocity=0, time=59),\n",
       "   Message('note_on', channel=0, note=71, velocity=0, time=16),\n",
       "   Message('note_on', channel=0, note=62, velocity=42, time=412),\n",
       "   Message('note_on', channel=0, note=57, velocity=0, time=71),\n",
       "   Message('control_change', channel=0, control=64, value=127, time=118),\n",
       "   Message('control_change', channel=0, control=64, value=0, time=281),\n",
       "   Message('note_on', channel=0, note=55, velocity=57, time=2),\n",
       "   Message('note_on', channel=0, note=71, velocity=78, time=7),\n",
       "   Message('note_on', channel=0, note=72, velocity=0, time=22),\n",
       "   Message('control_change', channel=0, control=64, value=127, time=195),\n",
       "   Message('note_on', channel=0, note=62, velocity=0, time=77),\n",
       "   Message('note_on', channel=0, note=62, velocity=53, time=243),\n",
       "   Message('control_change', channel=0, control=64, value=0, time=71),\n",
       "   Message('note_on', channel=0, note=69, velocity=68, time=147),\n",
       "   Message('note_on', channel=0, note=71, velocity=0, time=142),\n",
       "   Message('note_on', channel=0, note=67, velocity=73, time=139),\n",
       "   Message('note_on', channel=0, note=59, velocity=49, time=45),\n",
       "   Message('note_on', channel=0, note=69, velocity=0, time=39),\n",
       "   Message('note_on', channel=0, note=62, velocity=0, time=68),\n",
       "   Message('note_on', channel=0, note=55, velocity=0, time=119),\n",
       "   Message('control_change', channel=0, control=64, value=127, time=39),\n",
       "   Message('note_on', channel=0, note=59, velocity=0, time=215),\n",
       "   Message('note_on', channel=0, note=59, velocity=51, time=5),\n",
       "   Message('note_on', channel=0, note=71, velocity=67, time=2),\n",
       "   Message('note_on', channel=0, note=62, velocity=57, time=4),\n",
       "   Message('control_change', channel=0, control=64, value=0, time=10),\n",
       "   Message('note_on', channel=0, note=67, velocity=0, time=76),\n",
       "   Message('control_change', channel=0, control=64, value=127, time=164),\n",
       "   Message('note_on', channel=0, note=59, velocity=0, time=107),\n",
       "   Message('note_on', channel=0, note=69, velocity=66, time=149),\n",
       "   Message('note_on', channel=0, note=60, velocity=58, time=26),\n",
       "   Message('note_on', channel=0, note=71, velocity=0, time=29),\n",
       "   Message('control_change', channel=0, control=64, value=0, time=4),\n",
       "   Message('note_on', channel=0, note=62, velocity=0, time=90),\n",
       "   Message('control_change', channel=0, control=64, value=127, time=140),\n",
       "   Message('control_change', channel=0, control=64, value=0, time=242),\n",
       "   Message('note_on', channel=0, note=60, velocity=0, time=12),\n",
       "   Message('note_on', channel=0, note=60, velocity=41, time=5),\n",
       "   Message('note_on', channel=0, note=62, velocity=53, time=0),\n",
       "   Message('note_on', channel=0, note=60, velocity=0, time=108),\n",
       "   Message('control_change', channel=0, control=64, value=127, time=178),\n",
       "   Message('note_on', channel=0, note=74, velocity=74, time=229),\n",
       "   Message('note_on', channel=0, note=60, velocity=32, time=21),\n",
       "   Message('note_on', channel=0, note=57, velocity=47, time=7),\n",
       "   Message('control_change', channel=0, control=64, value=0, time=1),\n",
       "   Message('note_on', channel=0, note=60, velocity=0, time=4),\n",
       "   Message('control_change', channel=0, control=64, value=127, time=69),\n",
       "   Message('note_on', channel=0, note=62, velocity=0, time=64),\n",
       "   Message('control_change', channel=0, control=64, value=0, time=28),\n",
       "   Message('note_on', channel=0, note=69, velocity=0, time=2),\n",
       "   Message('note_on', channel=0, note=48, velocity=25, time=393),\n",
       "   Message('note_on', channel=0, note=62, velocity=47, time=1),\n",
       "   Message('note_on', channel=0, note=48, velocity=0, time=3),\n",
       "   Message('note_on', channel=0, note=57, velocity=0, time=87),\n",
       "   Message('control_change', channel=0, control=64, value=127, time=167),\n",
       "   Message('note_on', channel=0, note=67, velocity=70, time=203),\n",
       "   Message('note_on', channel=0, note=59, velocity=61, time=11),\n",
       "   Message('control_change', channel=0, control=64, value=0, time=10),\n",
       "   Message('note_on', channel=0, note=74, velocity=0, time=106),\n",
       "   Message('note_on', channel=0, note=62, velocity=0, time=6),\n",
       "   Message('control_change', channel=0, control=64, value=127, time=270),\n",
       "   Message('control_change', channel=0, control=64, value=0, time=16),\n",
       "   Message('note_on', channel=0, note=59, velocity=0, time=69),\n",
       "   Message('note_on', channel=0, note=62, velocity=56, time=4),\n",
       "   Message('note_on', channel=0, note=59, velocity=45, time=0),\n",
       "   Message('note_on', channel=0, note=67, velocity=0, time=3),\n",
       "   Message('note_on', channel=0, note=59, velocity=0, time=130),\n",
       "   Message('note_on', channel=0, note=69, velocity=72, time=100),\n",
       "   Message('control_change', channel=0, control=64, value=127, time=116),\n",
       "   Message('control_change', channel=0, control=64, value=0, time=146),\n",
       "   Message('note_on', channel=0, note=71, velocity=76, time=16),\n",
       "   Message('note_on', channel=0, note=55, velocity=44, time=26),\n",
       "   Message('note_on', channel=0, note=69, velocity=0, time=87),\n",
       "   Message('note_on', channel=0, note=62, velocity=0, time=29),\n",
       "   Message('note_on', channel=0, note=62, velocity=47, time=391),\n",
       "   Message('note_on', channel=0, note=55, velocity=0, time=31),\n",
       "   Message('control_change', channel=0, control=64, value=127, time=142),\n",
       "   Message('note_on', channel=0, note=69, velocity=70, time=281),\n",
       "   Message('note_on', channel=0, note=60, velocity=59, time=30),\n",
       "   Message('control_change', channel=0, control=64, value=0, time=67),\n",
       "   Message('note_on', channel=0, note=71, velocity=0, time=11),\n",
       "   Message('note_on', channel=0, note=62, velocity=0, time=3),\n",
       "   Message('note_on', channel=0, note=60, velocity=0, time=407),\n",
       "   Message('note_on', channel=0, note=60, velocity=38, time=11),\n",
       "   Message('note_on', channel=0, note=62, velocity=48, time=1),\n",
       "   Message('note_on', channel=0, note=60, velocity=0, time=123),\n",
       "   Message('note_on', channel=0, note=71, velocity=74, time=105),\n",
       "   Message('control_change', channel=0, control=64, value=127, time=51),\n",
       "   Message('note_on', channel=0, note=69, velocity=0, time=135),\n",
       "   Message('note_on', channel=0, note=72, velocity=79, time=92),\n",
       "   Message('note_on', channel=0, note=57, velocity=45, time=48),\n",
       "   Message('control_change', channel=0, control=64, value=0, time=17),\n",
       "   Message('note_on', channel=0, note=71, velocity=0, time=76),\n",
       "   Message('note_on', channel=0, note=62, velocity=0, time=26),\n",
       "   Message('note_on', channel=0, note=62, velocity=47, time=369),\n",
       "   Message('note_on', channel=0, note=57, velocity=0, time=66),\n",
       "   Message('control_change', channel=0, control=64, value=127, time=93),\n",
       "   Message('note_on', channel=0, note=71, velocity=78, time=302),\n",
       "   Message('note_on', channel=0, note=55, velocity=50, time=25),\n",
       "   Message('note_on', channel=0, note=72, velocity=0, time=80),\n",
       "   Message('control_change', channel=0, control=64, value=0, time=2),\n",
       "   Message('note_on', channel=0, note=62, velocity=0, time=2),\n",
       "   Message('control_change', channel=0, control=64, value=127, time=96),\n",
       "   Message('note_on', channel=0, note=62, velocity=51, time=295),\n",
       "   Message('control_change', channel=0, control=64, value=0, time=41),\n",
       "   Message('note_on', channel=0, note=55, velocity=0, time=63),\n",
       "   Message('note_on', channel=0, note=69, velocity=61, time=130),\n",
       "   Message('note_on', channel=0, note=71, velocity=0, time=126),\n",
       "   Message('note_on', channel=0, note=67, velocity=76, time=127),\n",
       "   Message('note_on', channel=0, note=59, velocity=57, time=35),\n",
       "   Message('note_on', channel=0, note=69, velocity=0, time=64),\n",
       "   Message('note_on', channel=0, note=62, velocity=0, time=34),\n",
       "   Message('control_change', channel=0, control=64, value=127, time=122),\n",
       "   Message('note_on', channel=0, note=71, velocity=74, time=217),\n",
       "   Message('note_on', channel=0, note=59, velocity=0, time=21),\n",
       "   Message('note_on', channel=0, note=59, velocity=46, time=4),\n",
       "   Message('note_on', channel=0, note=62, velocity=56, time=1),\n",
       "   Message('note_on', channel=0, note=67, velocity=0, time=53),\n",
       "   Message('note_on', channel=0, note=59, velocity=0, time=6),\n",
       "   Message('control_change', channel=0, control=64, value=0, time=1),\n",
       "   Message('control_change', channel=0, control=64, value=127, time=88),\n",
       "   Message('note_on', channel=0, note=69, velocity=73, time=308),\n",
       "   Message('note_on', channel=0, note=60, velocity=62, time=34),\n",
       "   Message('control_change', channel=0, control=64, value=0, time=58),\n",
       "   Message('note_on', channel=0, note=71, velocity=0, time=24),\n",
       "   Message('note_on', channel=0, note=62, velocity=0, time=30),\n",
       "   Message('control_change', channel=0, control=64, value=127, time=61),\n",
       "   Message('note_on', channel=0, note=60, velocity=0, time=338),\n",
       "   Message('note_on', channel=0, note=62, velocity=45, time=3),\n",
       "   Message('note_on', channel=0, note=60, velocity=36, time=1),\n",
       "   Message('control_change', channel=0, control=64, value=0, time=11),\n",
       "   Message('note_on', channel=0, note=60, velocity=0, time=44),\n",
       "   Message('control_change', channel=0, control=64, value=127, time=133),\n",
       "   Message('note_on', channel=0, note=67, velocity=59, time=299),\n",
       "   Message('note_on', channel=0, note=59, velocity=45, time=26),\n",
       "   Message('control_change', channel=0, control=64, value=0, time=113),\n",
       "   Message('note_on', channel=0, note=69, velocity=0, time=25),\n",
       "   Message('note_on', channel=0, note=62, velocity=0, time=78),\n",
       "   Message('control_change', channel=0, control=64, value=127, time=680),\n",
       "   Message('control_change', channel=0, control=64, value=0, time=18),\n",
       "   Message('note_on', channel=0, note=59, velocity=0, time=2),\n",
       "   Message('note_on', channel=0, note=67, velocity=0, time=0),\n",
       "   Message('note_on', channel=0, note=48, velocity=76, time=4906),\n",
       "   Message('note_on', channel=0, note=52, velocity=77, time=320),\n",
       "   Message('note_on', channel=0, note=48, velocity=0, time=90),\n",
       "   Message('note_on', channel=0, note=55, velocity=79, time=210),\n",
       "   Message('note_on', channel=0, note=52, velocity=0, time=64),\n",
       "   Message('note_on', channel=0, note=60, velocity=83, time=229),\n",
       "   Message('note_on', channel=0, note=55, velocity=0, time=53),\n",
       "   Message('note_on', channel=0, note=64, velocity=92, time=243),\n",
       "   Message('note_on', channel=0, note=76, velocity=79, time=2),\n",
       "   Message('note_on', channel=0, note=60, velocity=0, time=84),\n",
       "   Message('note_on', channel=0, note=76, velocity=0, time=169),\n",
       "   Message('note_on', channel=0, note=79, velocity=81, time=29),\n",
       "   Message('note_on', channel=0, note=67, velocity=89, time=1),\n",
       "   Message('note_on', channel=0, note=79, velocity=0, time=39),\n",
       "   Message('note_on', channel=0, note=64, velocity=0, time=30),\n",
       "   Message('note_on', channel=0, note=52, velocity=78, time=242),\n",
       "   Message('note_on', channel=0, note=55, velocity=78, time=0),\n",
       "   Message('note_on', channel=0, note=48, velocity=76, time=0),\n",
       "   Message('control_change', channel=0, control=64, value=127, time=181),\n",
       "   Message('note_on', channel=0, note=52, velocity=0, time=707),\n",
       "   Message('note_on', channel=0, note=67, velocity=0, time=7),\n",
       "   Message('note_on', channel=0, note=52, velocity=64, time=4),\n",
       "   Message('note_on', channel=0, note=67, velocity=85, time=1),\n",
       "   Message('note_on', channel=0, note=64, velocity=84, time=1),\n",
       "   Message('note_on', channel=0, note=60, velocity=78, time=1),\n",
       "   Message('control_change', channel=0, control=64, value=0, time=17),\n",
       "   Message('note_on', channel=0, note=48, velocity=0, time=13),\n",
       "   Message('note_on', channel=0, note=55, velocity=0, time=7),\n",
       "   Message('note_on', channel=0, note=52, velocity=0, time=141),\n",
       "   Message('control_change', channel=0, control=64, value=127, time=107),\n",
       "   Message('note_on', channel=0, note=48, velocity=79, time=654),\n",
       "   Message('control_change', channel=0, control=64, value=0, time=84),\n",
       "   Message('note_on', channel=0, note=60, velocity=0, time=14),\n",
       "   Message('note_on', channel=0, note=64, velocity=0, time=1),\n",
       "   Message('note_on', channel=0, note=67, velocity=0, time=15),\n",
       "   Message('note_on', channel=0, note=53, velocity=80, time=185),\n",
       "   Message('note_on', channel=0, note=48, velocity=0, time=57),\n",
       "   Message('note_on', channel=0, note=57, velocity=70, time=241),\n",
       "   Message('note_on', channel=0, note=53, velocity=0, time=79),\n",
       "   Message('note_on', channel=0, note=60, velocity=78, time=205),\n",
       "   Message('note_on', channel=0, note=57, velocity=0, time=78),\n",
       "   Message('control_change', channel=0, control=64, value=127, time=61),\n",
       "   Message('note_on', channel=0, note=65, velocity=85, time=159),\n",
       "   Message('control_change', channel=0, control=64, value=0, time=26),\n",
       "   Message('note_on', channel=0, note=60, velocity=0, time=2),\n",
       "   Message('note_on', channel=0, note=81, velocity=82, time=247),\n",
       "   Message('note_on', channel=0, note=69, velocity=86, time=1),\n",
       "   Message('note_on', channel=0, note=65, velocity=0, time=91),\n",
       "   Message('note_on', channel=0, note=57, velocity=75, time=208),\n",
       "   Message('note_on', channel=0, note=53, velocity=71, time=0),\n",
       "   Message('note_on', channel=0, note=60, velocity=67, time=0),\n",
       "   Message('note_on', channel=0, note=48, velocity=71, time=2),\n",
       "   Message('control_change', channel=0, control=64, value=127, time=178),\n",
       "   Message('note_on', channel=0, note=81, velocity=0, time=492),\n",
       "   Message('note_on', channel=0, note=53, velocity=0, time=246),\n",
       "   Message('note_on', channel=0, note=60, velocity=0, time=0),\n",
       "   Message('note_on', channel=0, note=69, velocity=0, time=0),\n",
       "   Message('note_on', channel=0, note=72, velocity=73, time=7),\n",
       "   Message('note_on', channel=0, note=57, velocity=0, time=0),\n",
       "   Message('note_on', channel=0, note=53, velocity=57, time=1),\n",
       "   Message('note_on', channel=0, note=69, velocity=81, time=2),\n",
       "   Message('note_on', channel=0, note=60, velocity=74, time=0),\n",
       "   Message('note_on', channel=0, note=65, velocity=70, time=1),\n",
       "   Message('note_on', channel=0, note=57, velocity=60, time=1),\n",
       "   Message('control_change', channel=0, control=64, value=0, time=43),\n",
       "   Message('note_on', channel=0, note=48, velocity=0, time=7),\n",
       "   Message('control_change', channel=0, control=64, value=127, time=245),\n",
       "   Message('note_on', channel=0, note=57, velocity=0, time=38),\n",
       "   Message('note_on', channel=0, note=53, velocity=0, time=54),\n",
       "   Message('note_on', channel=0, note=47, velocity=80, time=513),\n",
       "   Message('control_change', channel=0, control=64, value=0, time=71),\n",
       "   Message('note_on', channel=0, note=72, velocity=0, time=7),\n",
       "   Message('note_on', channel=0, note=60, velocity=0, time=23),\n",
       "   Message('note_on', channel=0, note=69, velocity=0, time=146),\n",
       "   Message('note_on', channel=0, note=53, velocity=74, time=52),\n",
       "   Message('note_on', channel=0, note=47, velocity=0, time=86),\n",
       "   Message('note_on', channel=0, note=55, velocity=63, time=195),\n",
       "   Message('note_on', channel=0, note=53, velocity=0, time=65),\n",
       "   Message('note_on', channel=0, note=55, velocity=0, time=220),\n",
       "   Message('note_on', channel=0, note=59, velocity=82, time=3),\n",
       "   Message('note_on', channel=0, note=65, velocity=0, time=109),\n",
       "   Message('note_on', channel=0, note=65, velocity=84, time=185),\n",
       "   Message('note_on', channel=0, note=59, velocity=0, time=115),\n",
       "   Message('note_on', channel=0, note=79, velocity=76, time=162),\n",
       "   Message('note_on', channel=0, note=67, velocity=86, time=2),\n",
       "   Message('note_on', channel=0, note=65, velocity=0, time=95),\n",
       "   Message('note_on', channel=0, note=79, velocity=0, time=124),\n",
       "   Message('note_on', channel=0, note=47, velocity=74, time=81),\n",
       "   Message('note_on', channel=0, note=53, velocity=78, time=0),\n",
       "   Message('note_on', channel=0, note=55, velocity=79, time=1),\n",
       "   Message('control_change', channel=0, control=64, value=127, time=64),\n",
       "   Message('note_on', channel=0, note=55, velocity=0, time=860),\n",
       "   Message('note_on', channel=0, note=67, velocity=0, time=0),\n",
       "   Message('note_on', channel=0, note=71, velocity=78, time=3),\n",
       "   Message('note_on', channel=0, note=59, velocity=85, time=1),\n",
       "   Message('note_on', channel=0, note=55, velocity=61, time=1),\n",
       "   Message('note_on', channel=0, note=50, velocity=70, time=0),\n",
       "   Message('note_on', channel=0, note=67, velocity=82, time=5),\n",
       "   Message('note_on', channel=0, note=65, velocity=73, time=1),\n",
       "   Message('control_change', channel=0, control=64, value=0, time=47),\n",
       "   Message('note_on', channel=0, note=53, velocity=0, time=6),\n",
       "   Message('note_on', channel=0, note=47, velocity=0, time=2),\n",
       "   Message('control_change', channel=0, control=64, value=127, time=188),\n",
       "   Message('note_on', channel=0, note=50, velocity=0, time=31),\n",
       "   Message('note_on', channel=0, note=55, velocity=0, time=192),\n",
       "   Message('note_on', channel=0, note=48, velocity=69, time=456),\n",
       "   Message('note_on', channel=0, note=71, velocity=0, time=74),\n",
       "   Message('note_on', channel=0, note=59, velocity=0, time=8),\n",
       "   Message('control_change', channel=0, control=64, value=0, time=1),\n",
       "   Message('note_on', channel=0, note=65, velocity=0, time=12),\n",
       "   Message('note_on', channel=0, note=52, velocity=73, time=193),\n",
       "   Message('note_on', channel=0, note=48, velocity=0, time=89),\n",
       "   Message('control_change', channel=0, control=64, value=127, time=73),\n",
       "   Message('note_on', channel=0, note=55, velocity=73, time=119),\n",
       "   Message('control_change', channel=0, control=64, value=0, time=111),\n",
       "   Message('note_on', channel=0, note=52, velocity=0, time=48),\n",
       "   Message('note_on', channel=0, note=60, velocity=76, time=136),\n",
       "   Message('note_on', channel=0, note=67, velocity=0, time=70),\n",
       "   Message('note_on', channel=0, note=55, velocity=0, time=21),\n",
       "   Message('note_on', channel=0, note=64, velocity=85, time=203),\n",
       "   Message('note_on', channel=0, note=60, velocity=0, time=126),\n",
       "   Message('note_on', channel=0, note=79, velocity=76, time=164),\n",
       "   Message('note_on', channel=0, note=67, velocity=86, time=2),\n",
       "   Message('note_on', channel=0, note=79, velocity=0, time=6),\n",
       "   Message('note_on', channel=0, note=64, velocity=0, time=70),\n",
       "   Message('note_on', channel=0, note=72, velocity=74, time=236),\n",
       "   Message('note_on', channel=0, note=60, velocity=76, time=0),\n",
       "   Message('note_on', channel=0, note=55, velocity=66, time=3),\n",
       "   Message('note_on', channel=0, note=48, velocity=63, time=2),\n",
       "   Message('note_on', channel=0, note=52, velocity=66, time=0),\n",
       "   Message('control_change', channel=0, control=64, value=127, time=134),\n",
       "   Message('note_on', channel=0, note=52, velocity=0, time=1635),\n",
       "   Message('control_change', channel=0, control=64, value=0, time=0),\n",
       "   Message('note_on', channel=0, note=55, velocity=0, time=2),\n",
       "   Message('note_on', channel=0, note=48, velocity=0, time=1),\n",
       "   Message('note_on', channel=0, note=67, velocity=0, time=14),\n",
       "   Message('note_on', channel=0, note=72, velocity=0, time=15),\n",
       "   Message('note_on', channel=0, note=60, velocity=0, time=8),\n",
       "   Message('control_change', channel=0, control=64, value=127, time=1835),\n",
       "   Message('note_on', channel=0, note=55, velocity=77, time=113),\n",
       "   Message('note_on', channel=0, note=48, velocity=76, time=3),\n",
       "   Message('note_on', channel=0, note=52, velocity=74, time=1),\n",
       "   Message('note_on', channel=0, note=64, velocity=67, time=332),\n",
       "   Message('note_on', channel=0, note=52, velocity=0, time=296),\n",
       "   Message('note_on', channel=0, note=55, velocity=0, time=8),\n",
       "   Message('note_on', channel=0, note=52, velocity=47, time=3),\n",
       "   Message('note_on', channel=0, note=55, velocity=53, time=1),\n",
       "   Message('note_on', channel=0, note=62, velocity=59, time=2),\n",
       "   Message('control_change', channel=0, control=64, value=0, time=2),\n",
       "   Message('control_change', channel=0, control=64, value=127, time=7),\n",
       "   Message('note_on', channel=0, note=64, velocity=0, time=238),\n",
       "   Message('note_on', channel=0, note=60, velocity=55, time=36),\n",
       "   Message('note_on', channel=0, note=48, velocity=0, time=69),\n",
       "   Message('control_change', channel=0, control=64, value=0, time=3),\n",
       "   Message('note_on', channel=0, note=55, velocity=0, time=7),\n",
       "   Message('note_on', channel=0, note=62, velocity=0, time=72),\n",
       "   Message('note_on', channel=0, note=60, velocity=0, time=32),\n",
       "   Message('note_on', channel=0, note=55, velocity=75, time=108),\n",
       "   Message('note_on', channel=0, note=47, velocity=67, time=5),\n",
       "   Message('note_on', channel=0, note=53, velocity=71, time=2),\n",
       "   Message('note_on', channel=0, note=52, velocity=0, time=17),\n",
       "   Message('control_change', channel=0, control=64, value=127, time=87),\n",
       "   Message('note_on', channel=0, note=65, velocity=80, time=214),\n",
       "   Message('note_on', channel=0, note=64, velocity=80, time=282),\n",
       "   Message('control_change', channel=0, control=64, value=0, time=23),\n",
       "   Message('note_on', channel=0, note=65, velocity=0, time=31),\n",
       "   Message('note_on', channel=0, note=53, velocity=0, time=241),\n",
       "   Message('note_on', channel=0, note=48, velocity=45, time=4),\n",
       "   Message('note_on', channel=0, note=53, velocity=50, time=1),\n",
       "   Message('note_on', channel=0, note=62, velocity=60, time=2),\n",
       "   Message('note_on', channel=0, note=55, velocity=0, time=0),\n",
       "   Message('note_on', channel=0, note=47, velocity=0, time=2),\n",
       "   Message('control_change', channel=0, control=64, value=127, time=22),\n",
       "   Message('note_on', channel=0, note=48, velocity=0, time=69),\n",
       "   Message('note_on', channel=0, note=64, velocity=0, time=10),\n",
       "   Message('note_on', channel=0, note=62, velocity=0, time=83),\n",
       "   Message('control_change', channel=0, control=64, value=0, time=7),\n",
       "   Message('note_on', channel=0, note=48, velocity=70, time=102),\n",
       "   Message('note_on', channel=0, note=52, velocity=67, time=1),\n",
       "   Message('note_on', channel=0, note=55, velocity=69, time=0),\n",
       "   Message('note_on', channel=0, note=53, velocity=0, time=44),\n",
       "   Message('control_change', channel=0, control=64, value=127, time=260),\n",
       "   Message('note_on', channel=0, note=67, velocity=74, time=4),\n",
       "   Message('control_change', channel=0, control=64, value=0, time=267),\n",
       "   Message('note_on', channel=0, note=55, velocity=0, time=2),\n",
       "   Message('note_on', channel=0, note=65, velocity=75, time=16),\n",
       "   Message('note_on', channel=0, note=67, velocity=0, time=57),\n",
       "   Message('note_on', channel=0, note=48, velocity=0, time=222),\n",
       "   Message('note_on', channel=0, note=64, velocity=77, time=7),\n",
       "   Message('note_on', channel=0, note=65, velocity=0, time=83),\n",
       "   Message('note_on', channel=0, note=64, velocity=0, time=59),\n",
       "   Message('note_on', channel=0, note=53, velocity=63, time=167),\n",
       "   Message('note_on', channel=0, note=48, velocity=59, time=4),\n",
       "   Message('note_on', channel=0, note=64, velocity=78, time=2),\n",
       "   Message('note_on', channel=0, note=57, velocity=56, time=1),\n",
       "   Message('note_on', channel=0, note=52, velocity=0, time=53),\n",
       "   Message('control_change', channel=0, control=64, value=127, time=62),\n",
       "   Message('control_change', channel=0, control=64, value=0, time=519),\n",
       "   Message('note_on', channel=0, note=48, velocity=0, time=18),\n",
       "   Message('note_on', channel=0, note=53, velocity=0, time=0),\n",
       "   Message('note_on', channel=0, note=48, velocity=35, time=5),\n",
       "   Message('note_on', channel=0, note=62, velocity=50, time=0),\n",
       "   Message('note_on', channel=0, note=53, velocity=40, time=4),\n",
       "   Message('note_on', channel=0, note=64, velocity=0, time=72),\n",
       "   Message('note_on', channel=0, note=48, velocity=0, time=212),\n",
       "   Message('control_change', channel=0, control=64, value=127, time=15),\n",
       "   Message('note_on', channel=0, note=57, velocity=0, time=23),\n",
       "   Message('note_on', channel=0, note=62, velocity=0, time=156),\n",
       "   Message('control_change', channel=0, control=64, value=0, time=5),\n",
       "   Message('note_on', channel=0, note=48, velocity=61, time=114),\n",
       "   Message('note_on', channel=0, note=52, velocity=64, time=3),\n",
       "   Message('note_on', channel=0, note=55, velocity=62, time=1),\n",
       "   Message('control_change', channel=0, control=64, value=127, time=28),\n",
       "   Message('note_on', channel=0, note=53, velocity=0, time=7),\n",
       "   Message('control_change', channel=0, control=64, value=0, time=47),\n",
       "   Message('control_change', channel=0, control=64, value=127, time=115),\n",
       "   Message('note_on', channel=0, note=64, velocity=64, time=125),\n",
       "   Message('note_on', channel=0, note=48, velocity=0, time=274),\n",
       "   Message('note_on', channel=0, note=52, velocity=0, time=8),\n",
       "   Message('note_on', channel=0, note=48, velocity=41, time=2),\n",
       "   Message('note_on', channel=0, note=62, velocity=62, time=3),\n",
       "   Message('note_on', channel=0, note=52, velocity=44, time=2),\n",
       "   Message('note_on', channel=0, note=74, velocity=59, time=4),\n",
       "   Message('note_on', channel=0, note=74, velocity=0, time=4),\n",
       "   Message('control_change', channel=0, control=64, value=0, time=42),\n",
       "   Message('note_on', channel=0, note=64, velocity=0, time=39),\n",
       "   Message('note_on', channel=0, note=48, velocity=0, time=173),\n",
       "   Message('note_on', channel=0, note=52, velocity=0, time=0),\n",
       "   Message('note_on', channel=0, note=48, velocity=40, time=6),\n",
       "   Message('note_on', channel=0, note=52, velocity=38, time=2),\n",
       "   Message('note_on', channel=0, note=60, velocity=55, time=3),\n",
       "   Message('note_on', channel=0, note=55, velocity=0, time=74),\n",
       "   Message('note_on', channel=0, note=48, velocity=0, time=47),\n",
       "   Message('note_on', channel=0, note=60, velocity=0, time=9),\n",
       "   Message('note_on', channel=0, note=62, velocity=0, time=15),\n",
       "   Message('note_on', channel=0, note=55, velocity=71, time=149),\n",
       "   Message('note_on', channel=0, note=53, velocity=72, time=1),\n",
       "   Message('note_on', channel=0, note=47, velocity=69, time=4),\n",
       "   Message('note_on', channel=0, note=52, velocity=0, time=36),\n",
       "   Message('control_change', channel=0, control=64, value=127, time=68),\n",
       "   Message('note_on', channel=0, note=65, velocity=73, time=203),\n",
       "   Message('note_on', channel=0, note=64, velocity=78, time=271),\n",
       "   Message('control_change', channel=0, control=64, value=0, time=33),\n",
       "   Message('note_on', channel=0, note=65, velocity=0, time=44),\n",
       "   Message('note_on', channel=0, note=55, velocity=0, time=194),\n",
       "   Message('note_on', channel=0, note=55, velocity=46, time=7),\n",
       "   Message('control_change', channel=0, control=64, value=127, time=1),\n",
       "   Message('note_on', channel=0, note=62, velocity=63, time=4),\n",
       "   Message('note_on', channel=0, note=47, velocity=0, time=8),\n",
       "   Message('note_on', channel=0, note=55, velocity=0, time=80),\n",
       "   Message('note_on', channel=0, note=64, velocity=0, time=28),\n",
       "   Message('control_change', channel=0, control=64, value=0, time=8),\n",
       "   Message('note_on', channel=0, note=62, velocity=0, time=40),\n",
       "   Message('note_on', channel=0, note=48, velocity=70, time=127),\n",
       "   Message('note_on', channel=0, note=52, velocity=69, time=1),\n",
       "   Message('note_on', channel=0, note=67, velocity=67, time=0),\n",
       "   Message('note_on', channel=0, note=55, velocity=69, time=1),\n",
       "   Message('note_on', channel=0, note=53, velocity=0, time=49),\n",
       "   Message('control_change', channel=0, control=64, value=127, time=122),\n",
       "   Message('control_change', channel=0, control=64, value=0, time=16),\n",
       "   Message('note_on', channel=0, note=67, velocity=0, time=100),\n",
       "   Message('note_on', channel=0, note=67, velocity=72, time=7),\n",
       "   Message('control_change', channel=0, control=64, value=127, time=46),\n",
       "   Message('control_change', channel=0, control=64, value=0, time=236),\n",
       "   Message('note_on', channel=0, note=48, velocity=0, time=15),\n",
       "   Message('note_on', channel=0, note=60, velocity=72, time=5),\n",
       "   Message('note_on', channel=0, note=67, velocity=0, time=29),\n",
       "   Message('note_on', channel=0, note=55, velocity=0, time=17),\n",
       "   Message('control_change', channel=0, control=64, value=127, time=44),\n",
       "   Message('note_on', channel=0, note=53, velocity=71, time=195),\n",
       "   Message('note_on', channel=0, note=55, velocity=70, time=2),\n",
       "   Message('note_on', channel=0, note=47, velocity=65, time=2),\n",
       "   Message('note_on', channel=0, note=62, velocity=69, time=2),\n",
       "   Message('note_on', channel=0, note=52, velocity=0, time=33),\n",
       "   Message('note_on', channel=0, note=60, velocity=0, time=1),\n",
       "   Message('control_change', channel=0, control=64, value=0, time=22),\n",
       "   Message('note_on', channel=0, note=47, velocity=0, time=83),\n",
       "   Message('note_on', channel=0, note=55, velocity=0, time=63),\n",
       "   Message('note_on', channel=0, note=60, velocity=70, time=141),\n",
       "   Message('note_on', channel=0, note=55, velocity=59, time=2),\n",
       "   Message('note_on', channel=0, note=52, velocity=68, time=4),\n",
       "   Message('note_on', channel=0, note=48, velocity=62, time=4),\n",
       "   Message('note_on', channel=0, note=53, velocity=0, time=45),\n",
       "   Message('note_on', channel=0, note=62, velocity=0, time=5),\n",
       "   Message('control_change', channel=0, control=64, value=127, time=402),\n",
       "   Message('control_change', channel=0, control=64, value=0, time=238),\n",
       "   Message('control_change', channel=0, control=64, value=127, time=292),\n",
       "   Message('note_on', channel=0, note=52, velocity=0, time=91),\n",
       "   Message('control_change', channel=0, control=64, value=0, time=3),\n",
       "   Message('note_on', channel=0, note=48, velocity=0, time=2),\n",
       "   Message('note_on', channel=0, note=55, velocity=0, time=5),\n",
       "   Message('note_on', channel=0, note=60, velocity=0, time=10),\n",
       "   Message('note_on', channel=0, note=72, velocity=74, time=2022),\n",
       "   Message('note_on', channel=0, note=60, velocity=80, time=3),\n",
       "   Message('note_on', channel=0, note=62, velocity=58, time=259),\n",
       "   Message('note_on', channel=0, note=72, velocity=0, time=78),\n",
       "   Message('note_on', channel=0, note=60, velocity=0, time=4),\n",
       "   Message('note_on', channel=0, note=64, velocity=72, time=154),\n",
       "   Message('note_on', channel=0, note=62, velocity=0, time=45),\n",
       "   Message('note_on', channel=0, note=72, velocity=77, time=197),\n",
       "   Message('note_on', channel=0, note=60, velocity=84, time=1),\n",
       "   Message('note_on', channel=0, note=64, velocity=0, time=69),\n",
       "   Message('note_on', channel=0, note=62, velocity=62, time=179),\n",
       "   Message('note_on', channel=0, note=60, velocity=0, time=61),\n",
       "   Message('note_on', channel=0, note=72, velocity=0, time=27),\n",
       "   Message('note_on', channel=0, note=64, velocity=65, time=148),\n",
       "   Message('note_on', channel=0, note=62, velocity=0, time=29),\n",
       "   Message('note_on', channel=0, note=62, velocity=78, time=202),\n",
       "   Message('note_on', channel=0, note=64, velocity=0, time=75),\n",
       "   Message('note_on', channel=0, note=64, velocity=58, time=165),\n",
       "   Message('note_on', channel=0, note=62, velocity=0, time=128),\n",
       "   Message('note_on', channel=0, note=65, velocity=60, time=112),\n",
       "   Message('note_on', channel=0, note=64, velocity=0, time=16),\n",
       "   Message('note_on', channel=0, note=62, velocity=76, time=213),\n",
       "   Message('note_on', channel=0, note=65, velocity=0, time=67),\n",
       "   Message('note_on', channel=0, note=64, velocity=63, time=183),\n",
       "   Message('note_on', channel=0, note=62, velocity=0, time=104),\n",
       "   Message('note_on', channel=0, note=65, velocity=66, time=130),\n",
       "   Message('note_on', channel=0, note=64, velocity=0, time=25),\n",
       "   Message('note_on', channel=0, note=64, velocity=86, time=199),\n",
       "   Message('note_on', channel=0, note=65, velocity=0, time=88),\n",
       "   Message('note_on', channel=0, note=65, velocity=68, time=159),\n",
       "   Message('note_on', channel=0, note=64, velocity=0, time=41),\n",
       "   Message('note_on', channel=0, note=67, velocity=64, time=209),\n",
       "   Message('note_on', channel=0, note=65, velocity=0, time=22),\n",
       "   Message('note_on', channel=0, note=64, velocity=84, time=199),\n",
       "   Message('note_on', channel=0, note=67, velocity=0, time=67),\n",
       "   Message('note_on', channel=0, note=65, velocity=64, time=192),\n",
       "   Message('note_on', channel=0, note=64, velocity=0, time=47),\n",
       "   Message('note_on', channel=0, note=67, velocity=66, time=202),\n",
       "   Message('note_on', channel=0, note=65, velocity=0, time=24),\n",
       "   Message('note_on', channel=0, note=65, velocity=81, time=229),\n",
       "   Message('note_on', channel=0, note=67, velocity=0, time=51),\n",
       "   Message('note_on', channel=0, note=64, velocity=66, time=183),\n",
       "   Message('note_on', channel=0, note=65, velocity=0, time=60),\n",
       "   Message('note_on', channel=0, note=62, velocity=58, time=219),\n",
       "   Message('note_on', channel=0, note=64, velocity=0, time=26),\n",
       "   Message('note_on', channel=0, note=60, velocity=71, time=224),\n",
       "   Message('note_on', channel=0, note=72, velocity=65, time=0),\n",
       "   Message('note_on', channel=0, note=62, velocity=0, time=81),\n",
       "   Message('control_change', channel=0, control=64, value=127, time=144),\n",
       "   Message('note_on', channel=0, note=60, velocity=0, time=634),\n",
       "   Message('control_change', channel=0, control=64, value=0, time=0),\n",
       "   Message('note_on', channel=0, note=72, velocity=0, time=11),\n",
       "   Message('note_on', channel=0, note=48, velocity=80, time=1113),\n",
       "   Message('note_on', channel=0, note=50, velocity=57, time=265),\n",
       "   Message('note_on', channel=0, note=48, velocity=0, time=1),\n",
       "   Message('note_on', channel=0, note=62, velocity=50, time=3),\n",
       "   Message('note_on', channel=0, note=62, velocity=0, time=8),\n",
       "   Message('note_on', channel=0, note=52, velocity=66, time=226),\n",
       "   Message('note_on', channel=0, note=50, velocity=0, time=20),\n",
       "   Message('note_on', channel=0, note=48, velocity=80, time=203),\n",
       "   Message('note_on', channel=0, note=52, velocity=0, time=30),\n",
       "   Message('note_on', channel=0, note=50, velocity=57, time=239),\n",
       "   Message('note_on', channel=0, note=62, velocity=48, time=2),\n",
       "   Message('note_on', channel=0, note=62, velocity=0, time=9),\n",
       "   Message('note_on', channel=0, note=48, velocity=0, time=3),\n",
       "   Message('note_on', channel=0, note=52, velocity=55, time=227),\n",
       "   Message('note_on', channel=0, note=50, velocity=0, time=21),\n",
       "   Message('note_on', channel=0, note=50, velocity=77, time=215),\n",
       "   Message('note_on', channel=0, note=62, velocity=65, time=1),\n",
       "   Message('note_on', channel=0, note=52, velocity=0, time=40),\n",
       "   Message('note_on', channel=0, note=52, velocity=64, time=208),\n",
       "   Message('note_on', channel=0, note=50, velocity=0, time=50),\n",
       "   Message('note_on', channel=0, note=62, velocity=0, time=27),\n",
       "   Message('note_on', channel=0, note=52, velocity=0, time=149),\n",
       "   Message('note_on', channel=0, note=53, velocity=60, time=7),\n",
       "   Message('note_on', channel=0, note=50, velocity=73, time=246),\n",
       "   Message('note_on', channel=0, note=62, velocity=63, time=0),\n",
       "   Message('note_on', channel=0, note=53, velocity=0, time=29),\n",
       "   Message('note_on', channel=0, note=52, velocity=67, time=215),\n",
       "   Message('note_on', channel=0, note=50, velocity=0, time=41),\n",
       "   Message('note_on', channel=0, note=62, velocity=0, time=27),\n",
       "   Message('note_on', channel=0, note=53, velocity=55, time=181),\n",
       "   Message('note_on', channel=0, note=52, velocity=0, time=13),\n",
       "   Message('note_on', channel=0, note=64, velocity=66, time=224),\n",
       "   Message('note_on', channel=0, note=52, velocity=82, time=1),\n",
       "   Message('note_on', channel=0, note=53, velocity=0, time=31),\n",
       "   Message('note_on', channel=0, note=64, velocity=0, time=187),\n",
       "   Message('note_on', channel=0, note=53, velocity=64, time=27),\n",
       "   Message('note_on', channel=0, note=52, velocity=0, time=8),\n",
       "   Message('note_on', channel=0, note=55, velocity=53, time=229),\n",
       "   Message('note_on', channel=0, note=67, velocity=45, time=1),\n",
       "   Message('note_on', channel=0, note=53, velocity=0, time=25),\n",
       "   Message('note_on', channel=0, note=64, velocity=59, time=212),\n",
       "   Message('note_on', channel=0, note=52, velocity=75, time=0),\n",
       "   Message('note_on', channel=0, note=64, velocity=0, time=5),\n",
       "   Message('note_on', channel=0, note=55, velocity=0, time=54),\n",
       "   Message('note_on', channel=0, note=67, velocity=0, time=15),\n",
       "   Message('note_on', channel=0, note=53, velocity=58, time=196),\n",
       "   Message('note_on', channel=0, note=52, velocity=0, time=7),\n",
       "   Message('note_on', channel=0, note=55, velocity=52, time=246),\n",
       "   Message('note_on', channel=0, note=67, velocity=45, time=1),\n",
       "   Message('note_on', channel=0, note=53, velocity=0, time=29),\n",
       "   Message('note_on', channel=0, note=53, velocity=79, time=208),\n",
       "   Message('note_on', channel=0, note=65, velocity=62, time=4),\n",
       "   Message('note_on', channel=0, note=55, velocity=0, time=32),\n",
       "   Message('note_on', channel=0, note=67, velocity=0, time=14),\n",
       "   Message('control_change', channel=0, control=64, value=127, time=31),\n",
       "   Message('note_on', channel=0, note=52, velocity=54, time=194),\n",
       "   Message('note_on', channel=0, note=53, velocity=0, time=9),\n",
       "   Message('control_change', channel=0, control=64, value=0, time=5),\n",
       "   Message('note_on', channel=0, note=65, velocity=0, time=7),\n",
       "   Message('note_on', channel=0, note=52, velocity=0, time=211),\n",
       "   Message('note_on', channel=0, note=62, velocity=54, time=6),\n",
       "   Message('note_on', channel=0, note=50, velocity=61, time=0),\n",
       "   Message('note_on', channel=0, note=48, velocity=73, time=264),\n",
       "   Message('note_on', channel=0, note=60, velocity=62, time=0),\n",
       "   Message('note_on', channel=0, note=50, velocity=0, time=10),\n",
       "   Message('note_on', channel=0, note=62, velocity=0, time=16),\n",
       "   Message('note_on', channel=0, note=60, velocity=0, time=69),\n",
       "   Message('note_on', channel=0, note=48, velocity=0, time=772),\n",
       "   Message('note_on', channel=0, note=72, velocity=82, time=1695),\n",
       "   Message('note_on', channel=0, note=60, velocity=85, time=1),\n",
       "   Message('control_change', channel=0, control=64, value=127, time=74),\n",
       "   Message('note_on', channel=0, note=72, velocity=0, time=69),\n",
       "   Message('control_change', channel=0, control=64, value=0, time=304),\n",
       "   Message('note_on', channel=0, note=60, velocity=0, time=13),\n",
       "   Message('note_on', channel=0, note=72, velocity=65, time=136),\n",
       "   Message('note_on', channel=0, note=60, velocity=71, time=2),\n",
       "   Message('control_change', channel=0, control=64, value=127, time=75),\n",
       "   Message('note_on', channel=0, note=74, velocity=74, time=216),\n",
       "   Message('note_on', channel=0, note=62, velocity=81, time=0),\n",
       "   Message('note_on', channel=0, note=72, velocity=0, time=22),\n",
       "   Message('control_change', channel=0, control=64, value=0, time=3),\n",
       "   Message('note_on', channel=0, note=60, velocity=0, time=2),\n",
       "   Message('note_on', channel=0, note=74, velocity=0, time=95),\n",
       "   Message('note_on', channel=0, note=62, velocity=0, time=332),\n",
       "   Message('note_on', channel=0, note=74, velocity=61, time=108),\n",
       "   Message('note_on', channel=0, note=62, velocity=66, time=1),\n",
       "   Message('note_on', channel=0, note=74, velocity=0, time=143),\n",
       "   Message('note_on', channel=0, note=64, velocity=89, time=115),\n",
       "   Message('note_on', channel=0, note=76, velocity=76, time=2),\n",
       "   Message('note_on', channel=0, note=62, velocity=0, time=21),\n",
       "   Message('note_on', channel=0, note=76, velocity=0, time=200),\n",
       "   Message('note_on', channel=0, note=64, velocity=0, time=181),\n",
       "   Message('note_on', channel=0, note=64, velocity=87, time=144),\n",
       "   Message('note_on', channel=0, note=76, velocity=74, time=1),\n",
       "   Message('note_on', channel=0, note=65, velocity=81, time=284),\n",
       "   Message('note_on', channel=0, note=77, velocity=70, time=1),\n",
       "   Message('note_on', channel=0, note=64, velocity=0, time=79),\n",
       "   Message('note_on', channel=0, note=76, velocity=0, time=1),\n",
       "   Message('note_on', channel=0, note=77, velocity=0, time=46),\n",
       "   Message('note_on', channel=0, note=65, velocity=0, time=257),\n",
       "   Message('note_on', channel=0, note=65, velocity=85, time=145),\n",
       "   Message('note_on', channel=0, note=77, velocity=73, time=1),\n",
       "   Message('note_on', channel=0, note=77, velocity=0, time=4),\n",
       "   Message('note_on', channel=0, note=64, velocity=86, time=271),\n",
       "   Message('note_on', channel=0, note=76, velocity=73, time=1),\n",
       "   Message('note_on', channel=0, note=65, velocity=0, time=71),\n",
       "   Message('note_on', channel=0, note=76, velocity=0, time=241),\n",
       "   Message('note_on', channel=0, note=64, velocity=0, time=77),\n",
       "   Message('note_on', channel=0, note=64, velocity=70, time=166),\n",
       "   Message('note_on', channel=0, note=76, velocity=56, time=4),\n",
       "   Message('note_on', channel=0, note=76, velocity=0, time=252),\n",
       "   Message('note_on', channel=0, note=62, velocity=78, time=28),\n",
       "   Message('note_on', channel=0, note=74, velocity=69, time=0),\n",
       "   Message('note_on', channel=0, note=64, velocity=0, time=61),\n",
       "   Message('note_on', channel=0, note=74, velocity=0, time=42),\n",
       "   Message('control_change', channel=0, control=64, value=127, time=138),\n",
       "   Message('control_change', channel=0, control=64, value=0, time=100),\n",
       "   Message('note_on', channel=0, note=62, velocity=0, time=32),\n",
       "   Message('note_on', channel=0, note=62, velocity=66, time=126),\n",
       "   Message('note_on', channel=0, note=74, velocity=58, time=2),\n",
       "   Message('note_on', channel=0, note=74, velocity=0, time=9),\n",
       "   Message('control_change', channel=0, control=64, value=127, time=130),\n",
       "   Message('note_on', channel=0, note=72, velocity=69, time=142),\n",
       "   Message('note_on', channel=0, note=60, velocity=76, time=0),\n",
       "   Message('control_change', channel=0, control=64, value=0, time=42),\n",
       "   Message('note_on', channel=0, note=62, velocity=0, time=71),\n",
       "   Message('control_change', channel=0, control=64, value=127, time=198),\n",
       "   Message('note_on', channel=0, note=72, velocity=0, time=669),\n",
       "   Message('control_change', channel=0, control=64, value=0, time=0),\n",
       "   Message('control_change', channel=0, control=64, value=127, time=230),\n",
       "   Message('control_change', channel=0, control=64, value=0, time=226),\n",
       "   Message('note_on', channel=0, note=60, velocity=0, time=16),\n",
       "   Message('note_on', channel=0, note=48, velocity=78, time=818),\n",
       "   Message('note_on', channel=0, note=48, velocity=0, time=397),\n",
       "   Message('note_on', channel=0, note=48, velocity=73, time=140),\n",
       "   Message('note_on', channel=0, note=62, velocity=69, time=277),\n",
       "   Message('note_on', channel=0, note=50, velocity=79, time=1),\n",
       "   Message('note_on', channel=0, note=48, velocity=0, time=51),\n",
       "   Message('note_on', channel=0, note=50, velocity=0, time=320),\n",
       "   Message('note_on', channel=0, note=62, velocity=0, time=12),\n",
       "   Message('note_on', channel=0, note=50, velocity=78, time=135),\n",
       "   Message('note_on', channel=0, note=62, velocity=64, time=0),\n",
       "   Message('note_on', channel=0, note=52, velocity=90, time=260),\n",
       "   Message('note_on', channel=0, note=50, velocity=0, time=30),\n",
       "   Message('note_on', channel=0, note=62, velocity=0, time=20),\n",
       "   Message('control_change', channel=0, control=64, value=127, time=69),\n",
       "   Message('control_change', channel=0, control=64, value=0, time=234),\n",
       "   Message('note_on', channel=0, note=52, velocity=0, time=1),\n",
       "   Message('note_on', channel=0, note=52, velocity=82, time=178),\n",
       "   Message('control_change', channel=0, control=64, value=127, time=79),\n",
       "   Message('control_change', channel=0, control=64, value=0, time=159),\n",
       "   Message('note_on', channel=0, note=53, velocity=86, time=36),\n",
       "   Message('note_on', channel=0, note=52, velocity=0, time=30),\n",
       "   Message('control_change', channel=0, control=64, value=127, time=105),\n",
       "   Message('control_change', channel=0, control=64, value=0, time=218),\n",
       "   Message('note_on', channel=0, note=53, velocity=0, time=4),\n",
       "   Message('note_on', channel=0, note=53, velocity=80, time=182),\n",
       "   Message('control_change', channel=0, control=64, value=127, time=57),\n",
       "   Message('control_change', channel=0, control=64, value=0, time=199),\n",
       "   Message('note_on', channel=0, note=52, velocity=82, time=5),\n",
       "   Message('note_on', channel=0, note=64, velocity=65, time=0),\n",
       "   Message('note_on', channel=0, note=53, velocity=0, time=49),\n",
       "   Message('note_on', channel=0, note=64, velocity=0, time=285),\n",
       "   Message('note_on', channel=0, note=52, velocity=0, time=25),\n",
       "   Message('note_on', channel=0, note=64, velocity=65, time=167),\n",
       "   Message('note_on', channel=0, note=52, velocity=83, time=1),\n",
       "   Message('note_on', channel=0, note=64, velocity=0, time=6),\n",
       "   Message('control_change', channel=0, control=64, value=127, time=62),\n",
       "   Message('control_change', channel=0, control=64, value=0, time=168),\n",
       "   Message('note_on', channel=0, note=50, velocity=72, time=28),\n",
       "   Message('note_on', channel=0, note=62, velocity=61, time=0),\n",
       "   Message('note_on', channel=0, note=52, velocity=0, time=46),\n",
       "   Message('note_on', channel=0, note=50, velocity=0, time=306),\n",
       "   Message('note_on', channel=0, note=62, velocity=0, time=12),\n",
       "   Message('note_on', channel=0, note=50, velocity=71, time=127),\n",
       "   Message('note_on', channel=0, note=62, velocity=57, time=1),\n",
       "   Message('note_on', channel=0, note=48, velocity=76, time=266),\n",
       "   Message('note_on', channel=0, note=50, velocity=0, time=49),\n",
       "   Message('note_on', channel=0, note=62, velocity=0, time=10),\n",
       "   Message('control_change', channel=0, control=64, value=127, time=477),\n",
       "   Message('control_change', channel=0, control=64, value=0, time=731),\n",
       "   Message('note_on', channel=0, note=48, velocity=0, time=3),\n",
       "   Message('note_on', channel=0, note=48, velocity=53, time=3262),\n",
       "   Message('note_on', channel=0, note=55, velocity=58, time=1),\n",
       "   Message('note_on', channel=0, note=52, velocity=49, time=2),\n",
       "   Message('control_change', channel=0, control=64, value=127, time=155),\n",
       "   Message('control_change', channel=0, control=64, value=0, time=377),\n",
       "   Message('note_on', channel=0, note=67, velocity=71, time=78),\n",
       "   Message('control_change', channel=0, control=64, value=127, time=137),\n",
       "   Message('control_change', channel=0, control=64, value=0, time=245),\n",
       "   Message('note_on', channel=0, note=64, velocity=71, time=3),\n",
       "   Message('note_on', channel=0, note=67, velocity=0, time=68),\n",
       "   Message('control_change', channel=0, control=64, value=127, time=122),\n",
       "   Message('note_on', channel=0, note=48, velocity=0, time=438),\n",
       "   Message('note_on', channel=0, note=67, velocity=70, time=17),\n",
       "   Message('control_change', channel=0, control=64, value=0, time=18),\n",
       "   Message('note_on', channel=0, note=64, velocity=0, time=51),\n",
       "   Message('control_change', channel=0, control=64, value=127, time=113),\n",
       "   Message('control_change', channel=0, control=64, value=0, time=123),\n",
       "   Message('note_on', channel=0, note=55, velocity=0, time=8),\n",
       "   Message('note_on', channel=0, note=47, velocity=61, time=4),\n",
       "   Message('note_on', channel=0, note=55, velocity=58, time=2),\n",
       "   Message('note_on', channel=0, note=53, velocity=66, time=3),\n",
       "   Message('note_on', channel=0, note=67, velocity=0, time=94),\n",
       "   Message('note_on', channel=0, note=52, velocity=0, time=4),\n",
       "   Message('control_change', channel=0, control=64, value=127, time=31),\n",
       "   Message('note_on', channel=0, note=79, velocity=75, time=480),\n",
       "   Message('note_on', channel=0, note=67, velocity=82, time=1),\n",
       "   Message('note_on', channel=0, note=79, velocity=0, time=26),\n",
       "   Message('note_on', channel=0, note=74, velocity=85, time=283),\n",
       "   Message('control_change', channel=0, control=64, value=0, time=54),\n",
       "   Message('note_on', channel=0, note=67, velocity=0, time=6),\n",
       "   Message('control_change', channel=0, control=64, value=127, time=217),\n",
       "   Message('control_change', channel=0, control=64, value=0, time=338),\n",
       "   Message('note_on', channel=0, note=46, velocity=31, time=84),\n",
       "   Message('note_on', channel=0, note=47, velocity=0, time=4),\n",
       "   Message('note_on', channel=0, note=46, velocity=0, time=4),\n",
       "   Message('note_on', channel=0, note=55, velocity=0, time=48),\n",
       "   Message('control_change', channel=0, control=64, value=127, time=83),\n",
       "   Message('note_on', channel=0, note=48, velocity=63, time=134),\n",
       "   Message('note_on', channel=0, note=52, velocity=65, time=0),\n",
       "   Message('note_on', channel=0, note=55, velocity=63, time=2),\n",
       "   Message('control_change', channel=0, control=64, value=0, time=33),\n",
       "   Message('note_on', channel=0, note=53, velocity=0, time=20),\n",
       "   Message('note_on', channel=0, note=52, velocity=0, time=533),\n",
       "   Message('note_on', channel=0, note=67, velocity=74, time=6),\n",
       "   Message('note_on', channel=0, note=52, velocity=48, time=1),\n",
       "   Message('control_change', channel=0, control=64, value=127, time=200),\n",
       "   Message('control_change', channel=0, control=64, value=0, time=77),\n",
       "   Message('note_on', channel=0, note=74, velocity=0, time=38),\n",
       "   Message('note_on', channel=0, note=64, velocity=60, time=13),\n",
       "   Message('note_on', channel=0, note=67, velocity=0, time=38),\n",
       "   Message('control_change', channel=0, control=64, value=127, time=180),\n",
       "   Message('note_on', channel=0, note=67, velocity=67, time=395),\n",
       "   Message('control_change', channel=0, control=64, value=0, time=104),\n",
       "   Message('control_change', channel=0, control=64, value=127, time=15),\n",
       "   Message('note_on', channel=0, note=55, velocity=0, time=16),\n",
       "   Message('note_on', channel=0, note=64, velocity=0, time=146),\n",
       "   Message('note_on', channel=0, note=55, velocity=68, time=19),\n",
       "   Message('note_on', channel=0, note=53, velocity=72, time=3),\n",
       "   Message('note_on', channel=0, note=47, velocity=62, time=5),\n",
       "   Message('control_change', channel=0, control=64, value=0, time=34),\n",
       "   Message('note_on', channel=0, note=48, velocity=0, time=8),\n",
       "   Message('note_on', channel=0, note=52, velocity=0, time=11),\n",
       "   Message('control_change', channel=0, control=64, value=127, time=104),\n",
       "   Message('note_on', channel=0, note=67, velocity=0, time=430),\n",
       "   Message('note_on', channel=0, note=79, velocity=74, time=8),\n",
       "   Message('note_on', channel=0, note=67, velocity=83, time=3),\n",
       "   Message('note_on', channel=0, note=74, velocity=81, time=303),\n",
       "   Message('note_on', channel=0, note=79, velocity=0, time=1),\n",
       "   Message('control_change', channel=0, control=64, value=0, time=58),\n",
       "   Message('note_on', channel=0, note=67, velocity=0, time=25),\n",
       "   Message('control_change', channel=0, control=64, value=127, time=109),\n",
       "   Message('note_on', channel=0, note=47, velocity=0, time=459),\n",
       "   Message('control_change', channel=0, control=64, value=0, time=39),\n",
       "   Message('note_on', channel=0, note=55, velocity=0, time=22),\n",
       "   Message('control_change', channel=0, control=64, value=127, time=79),\n",
       "   Message('note_on', channel=0, note=52, velocity=71, time=151),\n",
       "   Message('note_on', channel=0, note=48, velocity=70, time=3),\n",
       "   Message('note_on', channel=0, note=55, velocity=63, time=1),\n",
       "   Message('note_on', channel=0, note=53, velocity=0, time=49),\n",
       "   Message('control_change', channel=0, control=64, value=0, time=11),\n",
       "   Message('control_change', channel=0, control=64, value=127, time=184),\n",
       "   Message('control_change', channel=0, control=64, value=0, time=338),\n",
       "   Message('note_on', channel=0, note=72, velocity=78, time=27),\n",
       "   Message('note_on', channel=0, note=74, velocity=0, time=12),\n",
       "   Message('control_change', channel=0, control=64, value=127, time=115),\n",
       "   Message('note_on', channel=0, note=72, velocity=0, time=192),\n",
       "   Message('note_on', channel=0, note=79, velocity=64, time=4),\n",
       "   Message('note_on', channel=0, note=67, velocity=68, time=2),\n",
       "   Message('note_on', channel=0, note=79, velocity=0, time=2),\n",
       "   Message('note_on', channel=0, note=72, velocity=55, time=1),\n",
       "   Message('note_on', channel=0, note=72, velocity=0, time=60),\n",
       "   Message('control_change', channel=0, control=64, value=0, time=487),\n",
       "   Message('note_on', channel=0, note=72, velocity=71, time=6),\n",
       "   Message('note_on', channel=0, note=48, velocity=0, time=29),\n",
       "   Message('note_on', channel=0, note=55, velocity=0, time=4),\n",
       "   Message('note_on', channel=0, note=67, velocity=0, time=6),\n",
       "   Message('control_change', channel=0, control=64, value=127, time=67),\n",
       "   Message('note_on', channel=0, note=48, velocity=69, time=196),\n",
       "   Message('note_on', channel=0, note=53, velocity=68, time=3),\n",
       "   Message('control_change', channel=0, control=64, value=0, time=0),\n",
       "   Message('note_on', channel=0, note=57, velocity=67, time=4),\n",
       "   Message('note_on', channel=0, note=52, velocity=0, time=70),\n",
       "   Message('control_change', channel=0, control=64, value=127, time=142),\n",
       "   Message('note_on', channel=0, note=72, velocity=0, time=368),\n",
       "   Message('note_on', channel=0, note=72, velocity=87, time=5),\n",
       "   Message('control_change', channel=0, control=64, value=0, time=7),\n",
       "   Message('control_change', channel=0, control=64, value=127, time=65),\n",
       "   Message('note_on', channel=0, note=65, velocity=62, time=252),\n",
       "   Message('control_change', channel=0, control=64, value=0, time=723),\n",
       "   Message('note_on', channel=0, note=57, velocity=0, time=2),\n",
       "   Message('note_on', channel=0, note=72, velocity=0, time=1),\n",
       "   Message('note_on', channel=0, note=53, velocity=0, time=0),\n",
       "   Message('note_on', channel=0, note=48, velocity=0, time=0),\n",
       "   Message('note_on', channel=0, note=53, velocity=57, time=177),\n",
       "   Message('note_on', channel=0, note=55, velocity=59, time=6),\n",
       "   Message('note_on', channel=0, note=47, velocity=63, time=3),\n",
       "   Message('control_change', channel=0, control=64, value=127, time=34),\n",
       "   Message('control_change', channel=0, control=64, value=0, time=242),\n",
       "   Message('note_on', channel=0, note=79, velocity=70, time=32),\n",
       "   Message('note_on', channel=0, note=67, velocity=73, time=1),\n",
       "   Message('control_change', channel=0, control=64, value=127, time=2),\n",
       "   Message('note_on', channel=0, note=79, velocity=0, time=7),\n",
       "   Message('note_on', channel=0, note=81, velocity=70, time=274),\n",
       "   Message('note_on', channel=0, note=69, velocity=76, time=0),\n",
       "   Message('control_change', channel=0, control=64, value=0, time=8),\n",
       "   Message('note_on', channel=0, note=81, velocity=0, time=3),\n",
       "   Message('note_on', channel=0, note=67, velocity=0, time=16),\n",
       "   Message('control_change', channel=0, control=64, value=127, time=91),\n",
       "   Message('note_on', channel=0, note=71, velocity=83, time=187),\n",
       "   Message('note_on', channel=0, note=69, velocity=0, time=94),\n",
       "   Message('control_change', channel=0, control=64, value=0, time=72),\n",
       "   Message('note_on', channel=0, note=72, velocity=88, time=114),\n",
       "   Message('note_on', channel=0, note=71, velocity=0, time=89),\n",
       "   Message('note_on', channel=0, note=65, velocity=0, time=36),\n",
       "   Message('note_on', channel=0, note=74, velocity=91, time=166),\n",
       "   Message('note_on', channel=0, note=72, velocity=0, time=37),\n",
       "   Message('note_on', channel=0, note=55, velocity=0, time=12),\n",
       "   Message('note_on', channel=0, note=72, velocity=85, time=257),\n",
       "   Message('note_on', channel=0, note=47, velocity=0, time=4),\n",
       "   Message('note_on', channel=0, note=55, velocity=63, time=24),\n",
       "   Message('note_on', channel=0, note=48, velocity=64, time=1),\n",
       "   Message('note_on', channel=0, note=52, velocity=65, time=0),\n",
       "   Message('note_on', channel=0, note=53, velocity=0, time=41),\n",
       "   Message('note_on', channel=0, note=74, velocity=0, time=5),\n",
       "   Message('control_change', channel=0, control=64, value=127, time=1603),\n",
       "   Message('note_on', channel=0, note=55, velocity=0, time=49),\n",
       "   Message('control_change', channel=0, control=64, value=0, time=1),\n",
       "   Message('note_on', channel=0, note=52, velocity=0, time=0),\n",
       "   Message('note_on', channel=0, note=48, velocity=0, time=3),\n",
       "   Message('note_on', channel=0, note=72, velocity=0, time=2),\n",
       "   Message('note_on', channel=0, note=60, velocity=91, time=4219),\n",
       "   Message('note_on', channel=0, note=48, velocity=88, time=0),\n",
       "   Message('control_change', channel=0, control=64, value=127, time=19),\n",
       "   Message('control_change', channel=0, control=64, value=0, time=22),\n",
       "   Message('control_change', channel=0, control=64, value=127, time=9),\n",
       "   Message('note_on', channel=0, note=60, velocity=0, time=23),\n",
       "   Message('control_change', channel=0, control=64, value=0, time=0),\n",
       "   Message('note_on', channel=0, note=48, velocity=0, time=7),\n",
       "   Message('note_on', channel=0, note=50, velocity=84, time=537),\n",
       "   Message('note_on', channel=0, note=62, velocity=91, time=12),\n",
       "   Message('note_on', channel=0, note=52, velocity=68, time=0),\n",
       "   Message('note_on', channel=0, note=52, velocity=0, time=4),\n",
       "   Message('control_change', channel=0, control=64, value=127, time=16),\n",
       "   Message('control_change', channel=0, control=64, value=0, time=15),\n",
       "   Message('note_on', channel=0, note=62, velocity=0, time=13),\n",
       "   Message('note_on', channel=0, note=50, velocity=0, time=0),\n",
       "   Message('note_on', channel=0, note=64, velocity=101, time=536),\n",
       "   Message('note_on', channel=0, note=52, velocity=88, time=0),\n",
       "   Message('note_on', channel=0, note=52, velocity=0, time=49),\n",
       "   Message('note_on', channel=0, note=64, velocity=0, time=47),\n",
       "   Message('note_on', channel=0, note=53, velocity=85, time=499),\n",
       "   Message('note_on', channel=0, note=77, velocity=79, time=2),\n",
       "   Message('note_on', channel=0, note=65, velocity=89, time=0),\n",
       "   Message('note_on', channel=0, note=53, velocity=0, time=72),\n",
       "   Message('note_on', channel=0, note=65, velocity=0, time=8),\n",
       "   Message('note_on', channel=0, note=77, velocity=0, time=3),\n",
       "   Message('note_on', channel=0, note=79, velocity=86, time=519),\n",
       "   Message('note_on', channel=0, note=55, velocity=87, time=1),\n",
       "   Message('note_on', channel=0, note=67, velocity=91, time=0),\n",
       "   Message('note_on', channel=0, note=67, velocity=0, time=94),\n",
       "   Message('note_on', channel=0, note=79, velocity=0, time=0),\n",
       "   Message('note_on', channel=0, note=55, velocity=0, time=4),\n",
       "   Message('note_on', channel=0, note=53, velocity=79, time=515),\n",
       "   Message('note_on', channel=0, note=77, velocity=79, time=0),\n",
       "   Message('note_on', channel=0, note=65, velocity=86, time=1),\n",
       "   Message('note_on', channel=0, note=65, velocity=0, time=53),\n",
       "   Message('note_on', channel=0, note=53, velocity=0, time=1),\n",
       "   Message('note_on', channel=0, note=77, velocity=0, time=41),\n",
       "   Message('note_on', channel=0, note=64, velocity=99, time=511),\n",
       "   Message('note_on', channel=0, note=52, velocity=77, time=0),\n",
       "   Message('note_on', channel=0, note=76, velocity=83, time=2),\n",
       "   Message('note_on', channel=0, note=52, velocity=0, time=43),\n",
       "   Message('note_on', channel=0, note=64, velocity=0, time=1),\n",
       "   Message('note_on', channel=0, note=76, velocity=0, time=49),\n",
       "   Message('note_on', channel=0, note=50, velocity=80, time=488),\n",
       "   Message('note_on', channel=0, note=62, velocity=89, time=0),\n",
       "   Message('note_on', channel=0, note=62, velocity=0, time=55),\n",
       "   Message('note_on', channel=0, note=50, velocity=0, time=1),\n",
       "   Message('note_on', channel=0, note=48, velocity=80, time=519),\n",
       "   Message('note_on', channel=0, note=60, velocity=87, time=1),\n",
       "   Message('note_on', channel=0, note=60, velocity=0, time=42),\n",
       "   Message('note_on', channel=0, note=48, velocity=0, time=4),\n",
       "   Message('control_change', channel=0, control=64, value=127, time=949),\n",
       "   Message('control_change', channel=0, control=64, value=0, time=276),\n",
       "   Message('control_change', channel=0, control=64, value=127, time=346),\n",
       "   Message('control_change', channel=0, control=64, value=0, time=31),\n",
       "   Message('control_change', channel=0, control=64, value=127, time=130),\n",
       "   Message('control_change', channel=0, control=64, value=0, time=131),\n",
       "   Message('control_change', channel=0, control=64, value=127, time=468),\n",
       "   Message('control_change', channel=0, control=64, value=0, time=277),\n",
       "   Message('note_on', channel=0, note=48, velocity=86, time=75),\n",
       "   Message('note_on', channel=0, note=48, velocity=0, time=60),\n",
       "   Message('note_on', channel=0, note=64, velocity=65, time=201),\n",
       "   Message('note_on', channel=0, note=64, velocity=0, time=45),\n",
       "   Message('note_on', channel=0, note=60, velocity=74, time=200),\n",
       "   Message('note_on', channel=0, note=60, velocity=0, time=68),\n",
       "   Message('note_on', channel=0, note=52, velocity=95, time=162),\n",
       "   Message('note_on', channel=0, note=52, velocity=0, time=64),\n",
       "   Message('note_on', channel=0, note=64, velocity=70, time=175),\n",
       "   Message('note_on', channel=0, note=64, velocity=0, time=36),\n",
       "   Message('note_on', channel=0, note=60, velocity=76, time=205),\n",
       "   Message('note_on', channel=0, note=60, velocity=0, time=40),\n",
       "   Message('note_on', channel=0, note=50, velocity=87, time=184),\n",
       "   Message('note_on', channel=0, note=62, velocity=79, time=1),\n",
       "   Message('note_on', channel=0, note=50, velocity=0, time=62),\n",
       "   Message('note_on', channel=0, note=62, velocity=0, time=50),\n",
       "   Message('note_on', channel=0, note=65, velocity=73, time=145),\n",
       "   Message('note_on', channel=0, note=65, velocity=0, time=35),\n",
       "   Message('note_on', channel=0, note=59, velocity=80, time=204),\n",
       "   Message('note_on', channel=0, note=59, velocity=0, time=39),\n",
       "   Message('note_on', channel=0, note=79, velocity=84, time=198),\n",
       "   Message('note_on', channel=0, note=67, velocity=91, time=2),\n",
       "   Message('note_on', channel=0, note=52, velocity=84, time=224),\n",
       "   Message('note_on', channel=0, note=52, velocity=0, time=47),\n",
       "   Message('note_on', channel=0, note=62, velocity=62, time=186),\n",
       "   Message('note_on', channel=0, note=50, velocity=74, time=0),\n",
       "   Message('note_on', channel=0, note=52, velocity=43, time=36),\n",
       "   Message('note_on', channel=0, note=50, velocity=0, time=0),\n",
       "   Message('note_on', channel=0, note=52, velocity=0, time=20),\n",
       "   Message('note_on', channel=0, note=62, velocity=0, time=0),\n",
       "   Message('note_on', channel=0, note=79, velocity=0, time=139),\n",
       "   Message('note_on', channel=0, note=48, velocity=85, time=36),\n",
       "   Message('note_on', channel=0, note=67, velocity=0, time=43),\n",
       "   Message('note_on', channel=0, note=48, velocity=0, time=10),\n",
       "   Message('note_on', channel=0, note=64, velocity=72, time=190),\n",
       "   Message('note_on', channel=0, note=64, velocity=0, time=41),\n",
       "   Message('note_on', channel=0, note=60, velocity=69, time=196),\n",
       "   Message('note_on', channel=0, note=60, velocity=0, time=42),\n",
       "   Message('note_on', channel=0, note=52, velocity=87, time=176),\n",
       "   Message('note_on', channel=0, note=52, velocity=0, time=39),\n",
       "   Message('note_on', channel=0, note=64, velocity=64, time=186),\n",
       "   Message('note_on', channel=0, note=64, velocity=0, time=37),\n",
       "   Message('note_on', channel=0, note=72, velocity=63, time=195),\n",
       "   Message('note_on', channel=0, note=60, velocity=71, time=1),\n",
       "   Message('note_on', channel=0, note=72, velocity=0, time=6),\n",
       "   Message('note_on', channel=0, note=60, velocity=0, time=38),\n",
       "   Message('note_on', channel=0, note=50, velocity=85, time=167),\n",
       "   Message('note_on', channel=0, note=62, velocity=77, time=3),\n",
       "   Message('note_on', channel=0, note=50, velocity=0, time=107),\n",
       "   Message('note_on', channel=0, note=62, velocity=0, time=30),\n",
       "   Message('note_on', channel=0, note=65, velocity=68, time=97),\n",
       "   Message('note_on', channel=0, note=65, velocity=0, time=37),\n",
       "   Message('note_on', channel=0, note=59, velocity=78, time=185),\n",
       "   Message('note_on', channel=0, note=59, velocity=0, time=45),\n",
       "   Message('note_on', channel=0, note=79, velocity=82, time=189),\n",
       "   Message('note_on', channel=0, note=67, velocity=88, time=1),\n",
       "   Message('note_on', channel=0, note=79, velocity=0, time=122),\n",
       "   Message('note_on', channel=0, note=52, velocity=80, time=97),\n",
       "   Message('note_on', channel=0, note=52, velocity=0, time=39),\n",
       "   Message('note_on', channel=0, note=50, velocity=64, time=199),\n",
       "   Message('note_on', channel=0, note=50, velocity=0, time=36),\n",
       "   Message('note_on', channel=0, note=48, velocity=82, time=183),\n",
       "   Message('note_on', channel=0, note=67, velocity=0, time=41),\n",
       "   Message('note_on', channel=0, note=48, velocity=0, time=14),\n",
       "   Message('note_on', channel=0, note=64, velocity=72, time=184),\n",
       "   Message('note_on', channel=0, note=64, velocity=0, time=40),\n",
       "   Message('note_on', channel=0, note=60, velocity=68, time=190),\n",
       "   Message('note_on', channel=0, note=60, velocity=0, time=42),\n",
       "   Message('note_on', channel=0, note=52, velocity=84, time=160),\n",
       "   Message('note_on', channel=0, note=52, velocity=0, time=39),\n",
       "   Message('note_on', channel=0, note=64, velocity=57, time=203),\n",
       "   Message('note_on', channel=0, note=64, velocity=0, time=43),\n",
       "   Message('note_on', channel=0, note=60, velocity=71, time=179),\n",
       "   Message('note_on', channel=0, note=60, velocity=0, time=36),\n",
       "   Message('note_on', channel=0, note=53, velocity=88, time=176),\n",
       "   Message('note_on', channel=0, note=53, velocity=0, time=73),\n",
       "   Message('note_on', channel=0, note=65, velocity=65, time=157),\n",
       "   Message('note_on', channel=0, note=65, velocity=0, time=37),\n",
       "   Message('note_on', channel=0, note=72, velocity=67, time=178),\n",
       "   Message('note_on', channel=0, note=60, velocity=75, time=1),\n",
       "   Message('note_on', channel=0, note=72, velocity=0, time=3),\n",
       "   Message('note_on', channel=0, note=60, velocity=0, time=33),\n",
       "   Message('note_on', channel=0, note=81, velocity=83, time=187),\n",
       "   Message('note_on', channel=0, note=69, velocity=89, time=2),\n",
       "   Message('note_on', channel=0, note=52, velocity=79, time=213),\n",
       "   Message('note_on', channel=0, note=52, velocity=0, time=47),\n",
       "   Message('note_on', channel=0, note=53, velocity=77, time=189),\n",
       "   Message('note_on', channel=0, note=53, velocity=0, time=40),\n",
       "   Message('note_on', channel=0, note=81, velocity=0, time=157),\n",
       "   Message('note_on', channel=0, note=55, velocity=84, time=25),\n",
       "   Message('note_on', channel=0, note=69, velocity=0, time=41),\n",
       "   Message('note_on', channel=0, note=55, velocity=0, time=45),\n",
       "   Message('note_on', channel=0, note=64, velocity=62, time=154),\n",
       "   Message('note_on', channel=0, note=64, velocity=0, time=39),\n",
       "   Message('note_on', channel=0, note=43, velocity=69, time=390),\n",
       "   Message('note_on', channel=0, note=62, velocity=59, time=0),\n",
       "   Message('note_on', channel=0, note=55, velocity=56, time=2),\n",
       "   Message('note_on', channel=0, note=43, velocity=0, time=44),\n",
       "   Message('note_on', channel=0, note=55, velocity=0, time=59),\n",
       "   Message('note_on', channel=0, note=62, velocity=0, time=23),\n",
       "   Message('note_on', channel=0, note=65, velocity=72, time=102),\n",
       "   Message('note_on', channel=0, note=65, velocity=0, time=42),\n",
       "   Message('note_on', channel=0, note=59, velocity=75, time=182),\n",
       "   Message('note_on', channel=0, note=59, velocity=0, time=51),\n",
       "   Message('note_on', channel=0, note=48, velocity=84, time=157),\n",
       "   Message('note_on', channel=0, note=48, velocity=0, time=61),\n",
       "   Message('note_on', channel=0, note=64, velocity=66, time=171),\n",
       "   Message('note_on', channel=0, note=64, velocity=0, time=44),\n",
       "   Message('note_on', channel=0, note=60, velocity=73, time=168),\n",
       "   Message('note_on', channel=0, note=60, velocity=0, time=40),\n",
       "   Message('note_on', channel=0, note=36, velocity=64, time=162),\n",
       "   Message('note_on', channel=0, note=36, velocity=0, time=42),\n",
       "   Message('control_change', channel=0, control=64, value=127, time=1642),\n",
       "   Message('control_change', channel=0, control=64, value=0, time=876),\n",
       "   Message('note_on', channel=0, note=72, velocity=86, time=43),\n",
       "   Message('note_on', channel=0, note=53, velocity=89, time=0),\n",
       "   Message('note_on', channel=0, note=60, velocity=89, time=1),\n",
       "   Message('note_on', channel=0, note=53, velocity=0, time=80),\n",
       "   Message('note_on', channel=0, note=60, velocity=0, time=4),\n",
       "   Message('note_on', channel=0, note=72, velocity=0, time=10),\n",
       "   Message('note_on', channel=0, note=53, velocity=50, time=163),\n",
       "   Message('note_on', channel=0, note=69, velocity=63, time=0),\n",
       "   Message('note_on', channel=0, note=65, velocity=55, time=3),\n",
       "   Message('note_on', channel=0, note=69, velocity=0, time=39),\n",
       "   Message('note_on', channel=0, note=53, velocity=0, time=17),\n",
       "   Message('note_on', channel=0, note=65, velocity=0, time=5),\n",
       "   Message('note_on', channel=0, note=69, velocity=71, time=165),\n",
       "   Message('note_on', channel=0, note=65, velocity=52, time=13),\n",
       "   Message('note_on', channel=0, note=69, velocity=0, time=30),\n",
       "   Message('note_on', channel=0, note=65, velocity=0, time=15),\n",
       "   Message('note_on', channel=0, note=53, velocity=88, time=151),\n",
       "   Message('note_on', channel=0, note=72, velocity=86, time=0),\n",
       "   Message('note_on', channel=0, note=60, velocity=87, time=1),\n",
       "   Message('note_on', channel=0, note=65, velocity=77, time=1),\n",
       "   Message('note_on', channel=0, note=65, velocity=0, time=86),\n",
       "   Message('note_on', channel=0, note=53, velocity=0, time=0),\n",
       "   Message('note_on', channel=0, note=60, velocity=0, time=7),\n",
       "   Message('note_on', channel=0, note=72, velocity=0, time=2),\n",
       "   Message('note_on', channel=0, note=69, velocity=67, time=139),\n",
       "   Message('note_on', channel=0, note=65, velocity=58, time=3),\n",
       "   Message('note_on', channel=0, note=53, velocity=52, time=1),\n",
       "   Message('note_on', channel=0, note=69, velocity=0, time=40),\n",
       "   Message('note_on', channel=0, note=65, velocity=0, time=7),\n",
       "   Message('note_on', channel=0, note=53, velocity=0, time=15),\n",
       "   Message('note_on', channel=0, note=53, velocity=50, time=167),\n",
       "   Message('note_on', channel=0, note=55, velocity=48, time=1),\n",
       "   Message('note_on', channel=0, note=69, velocity=65, time=1),\n",
       "   Message('note_on', channel=0, note=53, velocity=0, time=3),\n",
       "   Message('note_on', channel=0, note=55, velocity=0, time=0),\n",
       "   Message('note_on', channel=0, note=65, velocity=54, time=1),\n",
       "   Message('note_on', channel=0, note=69, velocity=0, time=30),\n",
       "   Message('note_on', channel=0, note=65, velocity=0, time=4),\n",
       "   Message('note_on', channel=0, note=53, velocity=70, time=204),\n",
       "   Message('note_on', channel=0, note=60, velocity=75, time=3),\n",
       "   Message('note_on', channel=0, note=69, velocity=81, time=1),\n",
       "   Message('control_change', channel=0, control=64, value=127, time=42),\n",
       "   Message('note_on', channel=0, note=67, velocity=80, time=181),\n",
       "   Message('note_on', channel=0, note=69, velocity=0, time=63),\n",
       "   Message('control_change', channel=0, control=64, value=0, time=11),\n",
       "   Message('control_change', channel=0, control=64, value=127, time=83),\n",
       "   Message('control_change', channel=0, control=64, value=0, time=46),\n",
       "   Message('note_on', channel=0, note=60, velocity=0, time=7),\n",
       "   Message('note_on', channel=0, note=53, velocity=0, time=31),\n",
       "   Message('note_on', channel=0, note=53, velocity=59, time=6),\n",
       "   Message('note_on', channel=0, note=81, velocity=81, time=2),\n",
       "   Message('note_on', channel=0, note=69, velocity=84, time=2),\n",
       "   Message('note_on', channel=0, note=67, velocity=0, time=63),\n",
       "   Message('note_on', channel=0, note=72, velocity=72, time=187),\n",
       "   Message('note_on', channel=0, note=70, velocity=79, time=3),\n",
       "   Message('note_on', channel=0, note=60, velocity=66, time=5),\n",
       "   Message('note_on', channel=0, note=81, velocity=0, time=1),\n",
       "   Message('note_on', channel=0, note=48, velocity=56, time=1),\n",
       "   Message('note_on', channel=0, note=67, velocity=59, time=2),\n",
       "   Message('note_on', channel=0, note=55, velocity=60, time=1),\n",
       "   Message('note_on', channel=0, note=53, velocity=0, time=27),\n",
       "   Message('note_on', channel=0, note=69, velocity=0, time=3),\n",
       "   Message('control_change', channel=0, control=64, value=127, time=196),\n",
       "   Message('control_change', channel=0, control=64, value=0, time=350),\n",
       "   Message('note_on', channel=0, note=55, velocity=0, time=17),\n",
       "   Message('note_on', channel=0, note=60, velocity=0, time=4),\n",
       "   Message('note_on', channel=0, note=48, velocity=0, time=6),\n",
       "   Message('note_on', channel=0, note=67, velocity=0, time=15),\n",
       "   Message('note_on', channel=0, note=72, velocity=0, time=0),\n",
       "   Message('note_on', channel=0, note=55, velocity=83, time=119),\n",
       "   Message('note_on', channel=0, note=72, velocity=78, time=0),\n",
       "   Message('note_on', channel=0, note=67, velocity=69, time=1),\n",
       "   Message('note_on', channel=0, note=60, velocity=84, time=0),\n",
       "   Message('note_on', channel=0, note=70, velocity=0, time=10),\n",
       "   Message('note_on', channel=0, note=55, velocity=0, time=86),\n",
       "   Message('note_on', channel=0, note=60, velocity=0, time=1),\n",
       "   Message('note_on', channel=0, note=67, velocity=0, time=13),\n",
       "   Message('note_on', channel=0, note=72, velocity=0, time=8),\n",
       "   Message('note_on', channel=0, note=67, velocity=64, time=135),\n",
       "   Message('note_on', channel=0, note=64, velocity=57, time=5),\n",
       "   Message('note_on', channel=0, note=67, velocity=0, time=32),\n",
       "   Message('note_on', channel=0, note=64, velocity=0, time=7),\n",
       "   Message('note_on', channel=0, note=79, velocity=68, time=171),\n",
       "   Message('note_on', channel=0, note=67, velocity=74, time=2),\n",
       "   Message('note_on', channel=0, note=64, velocity=57, time=13),\n",
       "   Message('note_on', channel=0, note=79, velocity=0, time=20),\n",
       "   Message('note_on', channel=0, note=67, velocity=0, time=2),\n",
       "   Message('note_on', channel=0, note=64, velocity=0, time=28),\n",
       "   Message('note_on', channel=0, note=72, velocity=81, time=152),\n",
       "   Message('note_on', channel=0, note=60, velocity=85, time=3),\n",
       "   Message('note_on', channel=0, note=55, velocity=84, time=1),\n",
       "   Message('note_on', channel=0, note=72, velocity=0, time=82),\n",
       "   Message('note_on', channel=0, note=60, velocity=0, time=10),\n",
       "   Message('note_on', channel=0, note=55, velocity=0, time=1),\n",
       "   Message('note_on', channel=0, note=79, velocity=61, time=146),\n",
       "   Message('note_on', channel=0, note=64, velocity=66, time=0),\n",
       "   Message('note_on', channel=0, note=67, velocity=62, time=2),\n",
       "   Message('note_on', channel=0, note=76, velocity=58, time=1),\n",
       "   Message('note_on', channel=0, note=79, velocity=0, time=1),\n",
       "   Message('note_on', channel=0, note=64, velocity=0, time=36),\n",
       "   Message('note_on', channel=0, note=67, velocity=0, time=2),\n",
       "   Message('note_on', channel=0, note=76, velocity=0, time=39),\n",
       "   Message('note_on', channel=0, note=79, velocity=63, time=140),\n",
       "   Message('note_on', channel=0, note=67, velocity=64, time=2),\n",
       "   Message('note_on', channel=0, note=76, velocity=56, time=0),\n",
       "   Message('note_on', channel=0, note=64, velocity=62, time=1),\n",
       "   Message('note_on', channel=0, note=79, velocity=0, time=28),\n",
       "   Message('note_on', channel=0, note=67, velocity=0, time=3),\n",
       "   Message('note_on', channel=0, note=64, velocity=0, time=1),\n",
       "   Message('note_on', channel=0, note=76, velocity=0, time=12),\n",
       "   Message('note_on', channel=0, note=79, velocity=77, time=189),\n",
       "   Message('note_on', channel=0, note=67, velocity=80, time=1),\n",
       "   Message('note_on', channel=0, note=58, velocity=77, time=3),\n",
       "   Message('note_on', channel=0, note=60, velocity=72, time=0),\n",
       "   Message('note_on', channel=0, note=65, velocity=66, time=248),\n",
       "   Message('note_on', channel=0, note=77, velocity=61, time=2),\n",
       "   Message('note_on', channel=0, note=67, velocity=0, time=51),\n",
       "   Message('note_on', channel=0, note=79, velocity=0, time=33),\n",
       "   Message('note_on', channel=0, note=79, velocity=67, time=156),\n",
       "   Message('note_on', channel=0, note=67, velocity=76, time=1),\n",
       "   Message('note_on', channel=0, note=60, velocity=0, time=15),\n",
       "   Message('note_on', channel=0, note=65, velocity=0, time=32),\n",
       "   Message('note_on', channel=0, note=77, velocity=0, time=42),\n",
       "   Message('note_on', channel=0, note=81, velocity=71, time=172),\n",
       "   Message('note_on', channel=0, note=69, velocity=74, time=3),\n",
       "   Message('note_on', channel=0, note=77, velocity=57, time=2),\n",
       "   Message('note_on', channel=0, note=60, velocity=59, time=3),\n",
       "   Message('note_on', channel=0, note=53, velocity=50, time=9),\n",
       "   Message('note_on', channel=0, note=67, velocity=0, time=32),\n",
       "   Message('note_on', channel=0, note=79, velocity=0, time=2),\n",
       "   Message('note_on', channel=0, note=58, velocity=0, time=15),\n",
       "   Message('control_change', channel=0, control=64, value=127, time=130),\n",
       "   Message('control_change', channel=0, control=64, value=0, time=334),\n",
       "   Message('note_on', channel=0, note=81, velocity=0, time=12),\n",
       "   Message('note_on', channel=0, note=53, velocity=0, time=70),\n",
       "   Message('note_on', channel=0, note=77, velocity=0, time=22),\n",
       "   Message('note_on', channel=0, note=60, velocity=0, time=3),\n",
       "   Message('control_change', channel=0, control=64, value=127, time=20),\n",
       "   Message('note_on', channel=0, note=69, velocity=0, time=39),\n",
       "   Message('control_change', channel=0, control=64, value=0, time=15),\n",
       "   Message('note_on', channel=0, note=53, velocity=77, time=51),\n",
       "   Message('note_on', channel=0, note=60, velocity=79, time=1),\n",
       "   Message('note_on', channel=0, note=53, velocity=0, time=42),\n",
       "   Message('note_on', channel=0, note=60, velocity=0, time=53),\n",
       "   Message('note_on', channel=0, note=69, velocity=58, time=155),\n",
       "   Message('note_on', channel=0, note=65, velocity=41, time=20),\n",
       "   Message('note_on', channel=0, note=69, velocity=0, time=18),\n",
       "   Message('note_on', channel=0, note=65, velocity=0, time=30),\n",
       "   Message('note_on', channel=0, note=65, velocity=55, time=157),\n",
       "   Message('note_on', channel=0, note=69, velocity=65, time=0),\n",
       "   Message('note_on', channel=0, note=69, velocity=0, time=34),\n",
       "   Message('note_on', channel=0, note=65, velocity=0, time=2),\n",
       "   Message('note_on', channel=0, note=53, velocity=83, time=178),\n",
       "   Message('note_on', channel=0, note=60, velocity=83, time=0),\n",
       "   Message('note_on', channel=0, note=65, velocity=70, time=1),\n",
       "   Message('note_on', channel=0, note=53, velocity=0, time=39),\n",
       "   Message('note_on', channel=0, note=65, velocity=0, time=6),\n",
       "   Message('note_on', channel=0, note=60, velocity=0, time=43),\n",
       "   Message('note_on', channel=0, note=69, velocity=72, time=149),\n",
       "   Message('note_on', channel=0, note=65, velocity=64, time=1),\n",
       "   Message('note_on', channel=0, note=69, velocity=0, time=35),\n",
       "   Message('note_on', channel=0, note=65, velocity=0, time=1),\n",
       "   Message('note_on', channel=0, note=69, velocity=65, time=204),\n",
       "   Message('note_on', channel=0, note=65, velocity=59, time=2),\n",
       "   Message('note_on', channel=0, note=69, velocity=0, time=31),\n",
       "   Message('note_on', channel=0, note=65, velocity=0, time=2),\n",
       "   Message('note_on', channel=0, note=69, velocity=87, time=207),\n",
       "   Message('note_on', channel=0, note=53, velocity=77, time=1),\n",
       "   Message('note_on', channel=0, note=60, velocity=78, time=2),\n",
       "   Message('note_on', channel=0, note=65, velocity=70, time=0),\n",
       "   Message('control_change', channel=0, control=64, value=127, time=63),\n",
       "   Message('note_on', channel=0, note=67, velocity=79, time=159),\n",
       "   Message('note_on', channel=0, note=69, velocity=0, time=53),\n",
       "   Message('control_change', channel=0, control=64, value=0, time=43),\n",
       "   Message('control_change', channel=0, control=64, value=127, time=22),\n",
       "   Message('note_on', channel=0, note=81, velocity=81, time=121),\n",
       "   Message('note_on', channel=0, note=69, velocity=85, time=3),\n",
       "   Message('note_on', channel=0, note=60, velocity=0, time=42),\n",
       "   Message('control_change', channel=0, control=64, value=0, time=3),\n",
       "   Message('note_on', channel=0, note=67, velocity=0, time=11),\n",
       "   Message('note_on', channel=0, note=70, velocity=77, time=200),\n",
       "   Message('note_on', channel=0, note=72, velocity=67, time=0),\n",
       "   Message('note_on', channel=0, note=67, velocity=63, time=6),\n",
       "   Message('note_on', channel=0, note=55, velocity=63, time=2),\n",
       "   Message('note_on', channel=0, note=60, velocity=66, time=0),\n",
       "   Message('note_on', channel=0, note=65, velocity=0, time=4),\n",
       "   Message('note_on', channel=0, note=81, velocity=0, time=3),\n",
       "   Message('note_on', channel=0, note=53, velocity=0, time=1),\n",
       "   Message('note_on', channel=0, note=69, velocity=0, time=34),\n",
       "   Message('control_change', channel=0, control=64, value=127, time=123),\n",
       "   Message('note_on', channel=0, note=70, velocity=0, time=463),\n",
       "   Message('note_on', channel=0, note=72, velocity=0, time=69),\n",
       "   Message('note_on', channel=0, note=60, velocity=0, time=2),\n",
       "   Message('control_change', channel=0, control=64, value=0, time=0),\n",
       "   Message('note_on', channel=0, note=67, velocity=0, time=3),\n",
       "   Message('note_on', channel=0, note=70, velocity=84, time=35),\n",
       "   Message('note_on', channel=0, note=55, velocity=0, time=14),\n",
       "   Message('control_change', channel=0, control=64, value=127, time=74),\n",
       "   Message('note_on', channel=0, note=48, velocity=67, time=145),\n",
       "   Message('control_change', channel=0, control=64, value=0, time=1),\n",
       "   Message('note_on', channel=0, note=74, velocity=84, time=2),\n",
       "   Message('note_on', channel=0, note=60, velocity=77, time=1),\n",
       "   Message('note_on', channel=0, note=72, velocity=76, time=1),\n",
       "   Message('note_on', channel=0, note=58, velocity=76, time=0),\n",
       "   Message('note_on', channel=0, note=48, velocity=0, time=4),\n",
       "   Message('note_on', channel=0, note=70, velocity=0, time=27),\n",
       "   Message('note_on', channel=0, note=60, velocity=0, time=6),\n",
       "   Message('note_on', channel=0, note=58, velocity=0, time=0),\n",
       "   Message('note_on', channel=0, note=74, velocity=0, time=2),\n",
       "   Message('note_on', channel=0, note=72, velocity=0, time=6),\n",
       "   Message('note_on', channel=0, note=79, velocity=74, time=185),\n",
       "   Message('note_on', channel=0, note=67, velocity=81, time=2),\n",
       "   Message('note_on', channel=0, note=48, velocity=63, time=7),\n",
       "   Message('note_on', channel=0, note=58, velocity=69, time=8),\n",
       "   Message('note_on', channel=0, note=48, velocity=0, time=3),\n",
       "   Message('note_on', channel=0, note=60, velocity=70, time=1),\n",
       "   Message('note_on', channel=0, note=79, velocity=0, time=23),\n",
       "   Message('note_on', channel=0, note=67, velocity=0, time=3),\n",
       "   Message('note_on', channel=0, note=58, velocity=0, time=7),\n",
       "   Message('note_on', channel=0, note=60, velocity=0, time=1),\n",
       "   Message('note_on', channel=0, note=57, velocity=51, time=168),\n",
       "   Message('note_on', channel=0, note=81, velocity=85, time=1),\n",
       "   Message('note_on', channel=0, note=69, velocity=89, time=2),\n",
       "   Message('note_on', channel=0, note=57, velocity=0, time=1),\n",
       "   Message('note_on', channel=0, note=72, velocity=80, time=237),\n",
       "   Message('note_on', channel=0, note=60, velocity=67, time=4),\n",
       "   Message('note_on', channel=0, note=57, velocity=67, time=1),\n",
       "   Message('note_on', channel=0, note=81, velocity=0, time=30),\n",
       "   Message('note_on', channel=0, note=69, velocity=0, time=3),\n",
       "   Message('note_on', channel=0, note=60, velocity=0, time=8),\n",
       "   Message('note_on', channel=0, note=72, velocity=0, time=3),\n",
       "   Message('note_on', channel=0, note=57, velocity=0, time=2),\n",
       "   Message('note_on', channel=0, note=65, velocity=69, time=179),\n",
       "   Message('note_on', channel=0, note=57, velocity=66, time=12),\n",
       "   Message('note_on', channel=0, note=50, velocity=51, time=1),\n",
       "   Message('note_on', channel=0, note=60, velocity=59, time=9),\n",
       "   Message('note_on', channel=0, note=50, velocity=0, time=3),\n",
       "   Message('note_on', channel=0, note=65, velocity=0, time=19),\n",
       "   Message('note_on', channel=0, note=57, velocity=0, time=1),\n",
       "   Message('note_on', channel=0, note=60, velocity=0, time=8),\n",
       "   Message('note_on', channel=0, note=79, velocity=75, time=165),\n",
       "   Message('note_on', channel=0, note=67, velocity=86, time=1),\n",
       "   Message('note_on', channel=0, note=79, velocity=0, time=174),\n",
       "   Message('note_on', channel=0, note=70, velocity=76, time=68),\n",
       "   Message('note_on', channel=0, note=55, velocity=72, time=12),\n",
       "   Message('note_on', channel=0, note=60, velocity=74, time=1),\n",
       "   Message('note_on', channel=0, note=52, velocity=58, time=1),\n",
       "   Message('note_on', channel=0, note=48, velocity=63, time=0),\n",
       "   Message('note_on', channel=0, note=67, velocity=0, time=28),\n",
       "   Message('note_on', channel=0, note=55, velocity=0, time=9),\n",
       "   Message('note_on', channel=0, note=70, velocity=0, time=1),\n",
       "   Message('note_on', channel=0, note=60, velocity=0, time=1),\n",
       "   Message('note_on', channel=0, note=48, velocity=0, time=5),\n",
       "   Message('note_on', channel=0, note=52, velocity=0, time=5),\n",
       "   Message('note_on', channel=0, note=64, velocity=79, time=164),\n",
       "   Message('note_on', channel=0, note=55, velocity=69, time=9),\n",
       "   Message('note_on', channel=0, note=52, velocity=57, time=0),\n",
       "   Message('note_on', channel=0, note=48, velocity=59, time=2),\n",
       "   Message('note_on', channel=0, note=60, velocity=74, time=1),\n",
       "   Message('note_on', channel=0, note=48, velocity=0, time=8),\n",
       "   Message('note_on', channel=0, note=55, velocity=0, time=26),\n",
       "   Message('note_on', channel=0, note=60, velocity=0, time=1),\n",
       "   Message('note_on', channel=0, note=64, velocity=0, time=1),\n",
       "   Message('note_on', channel=0, note=52, velocity=0, time=3),\n",
       "   Message('note_on', channel=0, note=77, velocity=75, time=216),\n",
       "   Message('note_on', channel=0, note=65, velocity=79, time=1),\n",
       "   Message('note_on', channel=0, note=60, velocity=73, time=0),\n",
       "   Message('note_on', channel=0, note=72, velocity=74, time=1),\n",
       "   Message('note_on', channel=0, note=53, velocity=61, time=3),\n",
       "   Message('note_on', channel=0, note=57, velocity=60, time=3),\n",
       "   Message('note_on', channel=0, note=77, velocity=0, time=83),\n",
       "   Message('control_change', channel=0, control=64, value=127, time=38),\n",
       "   Message('note_on', channel=0, note=65, velocity=0, time=645),\n",
       "   Message('note_on', channel=0, note=65, velocity=35, time=4),\n",
       "   Message('control_change', channel=0, control=64, value=0, time=26),\n",
       "   Message('note_on', channel=0, note=53, velocity=0, time=5),\n",
       "   Message('note_on', channel=0, note=60, velocity=0, time=1),\n",
       "   Message('note_on', channel=0, note=57, velocity=0, time=0),\n",
       "   Message('note_on', channel=0, note=72, velocity=0, time=5),\n",
       "   Message('note_on', channel=0, note=65, velocity=0, time=43),\n",
       "   Message('note_on', channel=0, note=79, velocity=76, time=4535),\n",
       "   Message('note_on', channel=0, note=67, velocity=83, time=1),\n",
       "   Message('note_on', channel=0, note=55, velocity=75, time=1),\n",
       "   Message('note_on', channel=0, note=67, velocity=0, time=233),\n",
       "   Message('note_on', channel=0, note=74, velocity=68, time=4),\n",
       "   Message('note_on', channel=0, note=67, velocity=61, time=3),\n",
       "   Message('note_on', channel=0, note=62, velocity=53, time=5),\n",
       "   Message('note_on', channel=0, note=55, velocity=0, time=4),\n",
       "   Message('note_on', channel=0, note=55, velocity=48, time=4),\n",
       "   Message('note_on', channel=0, note=79, velocity=0, time=3),\n",
       "   Message('note_on', channel=0, note=67, velocity=0, time=20),\n",
       "   Message('note_on', channel=0, note=55, velocity=0, time=50),\n",
       "   Message('note_on', channel=0, note=60, velocity=67, time=126),\n",
       "   Message('note_on', channel=0, note=72, velocity=79, time=1),\n",
       "   Message('note_on', channel=0, note=74, velocity=0, time=40),\n",
       "   Message('note_on', channel=0, note=62, velocity=0, time=1),\n",
       "   Message('note_on', channel=0, note=60, velocity=0, time=154),\n",
       "   Message('note_on', channel=0, note=74, velocity=68, time=5),\n",
       "   Message('note_on', channel=0, note=60, velocity=50, time=4),\n",
       "   Message('note_on', channel=0, note=62, velocity=49, time=3),\n",
       "   Message('note_on', channel=0, note=72, velocity=0, time=39),\n",
       "   Message('note_on', channel=0, note=60, velocity=0, time=6),\n",
       "   Message('note_on', channel=0, note=59, velocity=78, time=145),\n",
       "   Message('note_on', channel=0, note=71, velocity=86, time=2),\n",
       "   Message('note_on', channel=0, note=74, velocity=0, time=34),\n",
       "   Message('note_on', channel=0, note=62, velocity=0, time=15),\n",
       "   Message('note_on', channel=0, note=62, velocity=51, time=166),\n",
       "   Message('note_on', channel=0, note=74, velocity=55, time=1),\n",
       "   Message('note_on', channel=0, note=71, velocity=0, time=58),\n",
       "   Message('note_on', channel=0, note=59, velocity=0, time=40),\n",
       "   Message('note_on', channel=0, note=69, velocity=70, time=110),\n",
       "   Message('note_on', channel=0, note=57, velocity=58, time=4),\n",
       "   Message('note_on', channel=0, note=74, velocity=0, time=40),\n",
       "   Message('note_on', channel=0, note=62, velocity=0, time=9),\n",
       "   Message('note_on', channel=0, note=74, velocity=65, time=137),\n",
       "   Message('note_on', channel=0, note=62, velocity=42, time=21),\n",
       "   Message('note_on', channel=0, note=57, velocity=0, time=19),\n",
       "   Message('note_on', channel=0, note=69, velocity=0, time=13),\n",
       "   Message('note_on', channel=0, note=55, velocity=76, time=131),\n",
       "   Message('note_on', channel=0, note=79, velocity=72, time=1),\n",
       "   Message('note_on', channel=0, note=67, velocity=78, time=2),\n",
       "   Message('note_on', channel=0, note=62, velocity=0, time=38),\n",
       "   Message('note_on', channel=0, note=74, velocity=0, time=40),\n",
       "   Message('note_on', channel=0, note=79, velocity=0, time=138),\n",
       "   Message('note_on', channel=0, note=74, velocity=43, time=19),\n",
       "   Message('note_on', channel=0, note=62, velocity=43, time=1),\n",
       "   Message('note_on', channel=0, note=55, velocity=0, time=26),\n",
       "   Message('note_on', channel=0, note=74, velocity=0, time=23),\n",
       "   Message('note_on', channel=0, note=67, velocity=0, time=23),\n",
       "   Message('note_on', channel=0, note=72, velocity=89, time=106),\n",
       "   Message('note_on', channel=0, note=60, velocity=74, time=1),\n",
       "   Message('note_on', channel=0, note=62, velocity=0, time=36),\n",
       "   Message('note_on', channel=0, note=74, velocity=59, time=145),\n",
       "   Message('note_on', channel=0, note=60, velocity=0, time=27),\n",
       "   Message('note_on', channel=0, note=62, velocity=45, time=4),\n",
       "   Message('note_on', channel=0, note=60, velocity=47, time=1),\n",
       "   Message('note_on', channel=0, note=72, velocity=0, time=6),\n",
       "   Message('note_on', channel=0, note=60, velocity=0, time=35),\n",
       "   Message('note_on', channel=0, note=74, velocity=0, time=85),\n",
       "   Message('note_on', channel=0, note=59, velocity=76, time=50),\n",
       "   Message('note_on', channel=0, note=71, velocity=83, time=6),\n",
       "   Message('note_on', channel=0, note=62, velocity=0, time=55),\n",
       "   Message('note_on', channel=0, note=62, velocity=52, time=162),\n",
       "   Message('note_on', channel=0, note=74, velocity=55, time=7),\n",
       "   Message('note_on', channel=0, note=59, velocity=0, time=27),\n",
       "   Message('note_on', channel=0, note=71, velocity=0, time=4),\n",
       "   Message('note_on', channel=0, note=59, velocity=41, time=1),\n",
       "   Message('note_on', channel=0, note=59, velocity=0, time=33),\n",
       "   Message('note_on', channel=0, note=81, velocity=74, time=112),\n",
       "   Message('note_on', channel=0, note=69, velocity=75, time=3),\n",
       "   Message('note_on', channel=0, note=57, velocity=66, time=2),\n",
       "   Message('note_on', channel=0, note=74, velocity=0, time=22),\n",
       "   Message('note_on', channel=0, note=62, velocity=0, time=24),\n",
       "   Message('note_on', channel=0, note=62, velocity=52, time=162),\n",
       "   Message('note_on', channel=0, note=74, velocity=56, time=1),\n",
       "   Message('note_on', channel=0, note=57, velocity=0, time=28),\n",
       "   Message('note_on', channel=0, note=69, velocity=0, time=12),\n",
       "   Message('note_on', channel=0, note=81, velocity=0, time=80),\n",
       "   Message('note_on', channel=0, note=55, velocity=74, time=44),\n",
       "   Message('note_on', channel=0, note=79, velocity=76, time=0),\n",
       "   Message('note_on', channel=0, note=67, velocity=81, time=1),\n",
       "   Message('note_on', channel=0, note=62, velocity=0, time=36),\n",
       "   Message('note_on', channel=0, note=74, velocity=0, time=34),\n",
       "   Message('note_on', channel=0, note=67, velocity=0, time=54),\n",
       "   Message('note_on', channel=0, note=74, velocity=53, time=64),\n",
       "   Message('note_on', channel=0, note=79, velocity=0, time=30),\n",
       "   Message('note_on', channel=0, note=55, velocity=0, time=3),\n",
       "   Message('note_on', channel=0, note=74, velocity=0, time=13),\n",
       "   Message('note_on', channel=0, note=62, velocity=33, time=24),\n",
       "   Message('note_on', channel=0, note=72, velocity=85, time=148),\n",
       "   Message('note_on', channel=0, note=60, velocity=71, time=4),\n",
       "   Message('note_on', channel=0, note=62, velocity=0, time=39),\n",
       "   Message('note_on', channel=0, note=62, velocity=52, time=140),\n",
       "   Message('note_on', channel=0, note=74, velocity=59, time=15),\n",
       "   Message('note_on', channel=0, note=72, velocity=0, time=11),\n",
       "   Message('note_on', channel=0, note=60, velocity=0, time=8),\n",
       "   Message('note_on', channel=0, note=72, velocity=44, time=4),\n",
       "   Message('note_on', channel=0, note=60, velocity=39, time=1),\n",
       "   Message('note_on', channel=0, note=72, velocity=0, time=24),\n",
       "   Message('note_on', channel=0, note=60, velocity=0, time=7),\n",
       "   Message('note_on', channel=0, note=59, velocity=75, time=132),\n",
       "   Message('note_on', channel=0, note=71, velocity=86, time=3),\n",
       "   Message('note_on', channel=0, note=74, velocity=0, time=25),\n",
       "   Message('note_on', channel=0, note=62, velocity=0, time=7),\n",
       "   Message('note_on', channel=0, note=62, velocity=54, time=186),\n",
       "   Message('note_on', channel=0, note=74, velocity=59, time=0),\n",
       "   Message('note_on', channel=0, note=59, velocity=0, time=18),\n",
       "   Message('note_on', channel=0, note=59, velocity=40, time=6),\n",
       "   Message('note_on', channel=0, note=71, velocity=0, time=22),\n",
       "   Message('note_on', channel=0, note=59, velocity=0, time=7),\n",
       "   Message('note_on', channel=0, note=81, velocity=75, time=122),\n",
       "   Message('note_on', channel=0, note=69, velocity=74, time=1),\n",
       "   Message('note_on', channel=0, note=57, velocity=64, time=4),\n",
       "   Message('note_on', channel=0, note=74, velocity=0, time=35),\n",
       "   Message('note_on', channel=0, note=62, velocity=0, time=21),\n",
       "   Message('note_on', channel=0, note=62, velocity=56, time=141),\n",
       "   Message('note_on', channel=0, note=69, velocity=0, time=2),\n",
       "   Message('note_on', channel=0, note=69, velocity=54, time=8),\n",
       "   Message('note_on', channel=0, note=74, velocity=68, time=1),\n",
       "   Message('note_on', channel=0, note=57, velocity=0, time=19),\n",
       "   Message('note_on', channel=0, note=69, velocity=0, time=13),\n",
       "   Message('note_on', channel=0, note=81, velocity=0, time=5),\n",
       "   Message('note_on', channel=0, note=74, velocity=0, time=161),\n",
       "   Message('note_on', channel=0, note=79, velocity=74, time=7),\n",
       "   Message('note_on', channel=0, note=55, velocity=67, time=1),\n",
       "   Message('note_on', channel=0, note=67, velocity=79, time=2),\n",
       "   Message('note_on', channel=0, note=74, velocity=62, time=1),\n",
       "   Message('note_on', channel=0, note=62, velocity=0, time=46),\n",
       "   Message('control_change', channel=0, control=64, value=127, time=281),\n",
       "   Message('note_on', channel=0, note=74, velocity=0, time=1022),\n",
       "   Message('control_change', channel=0, control=64, value=0, time=15),\n",
       "   Message('note_on', channel=0, note=79, velocity=0, time=4),\n",
       "   Message('note_on', channel=0, note=67, velocity=0, time=6),\n",
       "   Message('note_on', channel=0, note=55, velocity=0, time=1),\n",
       "   Message('note_on', channel=0, note=79, velocity=77, time=181),\n",
       "   Message('note_on', channel=0, note=67, velocity=85, time=0),\n",
       "   Message('note_on', channel=0, note=55, velocity=79, time=2),\n",
       "   Message('note_on', channel=0, note=67, velocity=0, time=205),\n",
       "   Message('note_on', channel=0, note=74, velocity=63, time=10),\n",
       "   Message('note_on', channel=0, note=67, velocity=55, time=1),\n",
       "   Message('note_on', channel=0, note=62, velocity=42, time=1),\n",
       "   Message('note_on', channel=0, note=79, velocity=0, time=48),\n",
       "   Message('note_on', channel=0, note=67, velocity=0, time=6),\n",
       "   Message('note_on', channel=0, note=55, velocity=0, time=19),\n",
       "   Message('note_on', channel=0, note=60, velocity=73, time=113),\n",
       "   Message('note_on', channel=0, note=72, velocity=87, time=4),\n",
       "   Message('note_on', channel=0, note=74, velocity=0, time=13),\n",
       "   Message('note_on', channel=0, note=62, velocity=0, time=65),\n",
       "   Message('note_on', channel=0, note=74, velocity=59, time=117),\n",
       "   Message('note_on', channel=0, note=60, velocity=0, time=18),\n",
       "   Message('note_on', channel=0, note=60, velocity=34, time=6),\n",
       "   Message('note_on', channel=0, note=62, velocity=33, time=6),\n",
       "   Message('note_on', channel=0, note=72, velocity=0, time=31),\n",
       "   Message('note_on', channel=0, note=60, velocity=0, time=23),\n",
       "   Message('note_on', channel=0, note=59, velocity=75, time=114),\n",
       "   Message('note_on', channel=0, note=71, velocity=84, time=4),\n",
       "   Message('note_on', channel=0, note=74, velocity=0, time=31),\n",
       "   Message('note_on', channel=0, note=62, velocity=0, time=36),\n",
       "   Message('note_on', channel=0, note=62, velocity=50, time=152),\n",
       "   Message('note_on', channel=0, note=74, velocity=47, time=2),\n",
       "   Message('note_on', channel=0, note=71, velocity=0, time=40),\n",
       "   Message('note_on', channel=0, note=59, velocity=0, time=16),\n",
       "   Message('note_on', channel=0, note=74, velocity=0, time=107),\n",
       "   Message('note_on', channel=0, note=57, velocity=65, time=20),\n",
       "   Message('note_on', channel=0, note=69, velocity=74, time=0),\n",
       "   Message('note_on', channel=0, note=62, velocity=0, time=59),\n",
       "   Message('note_on', channel=0, note=74, velocity=60, time=154),\n",
       "   Message('note_on', channel=0, note=62, velocity=49, time=1),\n",
       "   Message('note_on', channel=0, note=57, velocity=0, time=10),\n",
       "   Message('note_on', channel=0, note=69, velocity=0, time=45),\n",
       "   Message('note_on', channel=0, note=74, velocity=0, time=103),\n",
       "   Message('note_on', channel=0, note=55, velocity=77, time=3),\n",
       "   Message('note_on', channel=0, note=79, velocity=74, time=0),\n",
       "   Message('note_on', channel=0, note=74, velocity=69, time=1),\n",
       "   Message('note_on', channel=0, note=67, velocity=78, time=1),\n",
       "   Message('note_on', channel=0, note=62, velocity=0, time=45),\n",
       "   Message('note_on', channel=0, note=74, velocity=0, time=173),\n",
       "   Message('note_on', channel=0, note=55, velocity=0, time=7),\n",
       "   Message('note_on', channel=0, note=74, velocity=51, time=3),\n",
       "   Message('note_on', channel=0, note=62, velocity=40, time=1),\n",
       "   Message('note_on', channel=0, note=55, velocity=37, time=7),\n",
       "   Message('note_on', channel=0, note=74, velocity=0, time=26),\n",
       "   Message('note_on', channel=0, note=55, velocity=0, time=17),\n",
       "   Message('note_on', channel=0, note=67, velocity=0, time=16),\n",
       "   Message('note_on', channel=0, note=79, velocity=0, time=0),\n",
       "   Message('note_on', channel=0, note=60, velocity=69, time=107),\n",
       "   Message('note_on', channel=0, note=72, velocity=82, time=1),\n",
       "   Message('note_on', channel=0, note=62, velocity=0, time=42),\n",
       "   Message('note_on', channel=0, note=74, velocity=57, time=152),\n",
       "   Message('note_on', channel=0, note=62, velocity=35, time=10),\n",
       "   Message('note_on', channel=0, note=72, velocity=0, time=36),\n",
       "   Message('note_on', channel=0, note=60, velocity=0, time=23),\n",
       "   Message('note_on', channel=0, note=59, velocity=74, time=124),\n",
       "   Message('note_on', channel=0, note=71, velocity=81, time=4),\n",
       "   Message('note_on', channel=0, note=74, velocity=0, time=23),\n",
       "   Message('note_on', channel=0, note=62, velocity=0, time=38),\n",
       "   Message('note_on', channel=0, note=62, velocity=47, time=150),\n",
       "   Message('note_on', channel=0, note=74, velocity=57, time=4),\n",
       "   Message('note_on', channel=0, note=71, velocity=0, time=49),\n",
       "   Message('note_on', channel=0, note=59, velocity=0, time=14),\n",
       "   Message('note_on', channel=0, note=81, velocity=72, time=119),\n",
       "   Message('note_on', channel=0, note=57, velocity=65, time=0),\n",
       "   Message('note_on', channel=0, note=69, velocity=73, time=4),\n",
       "   Message('note_on', channel=0, note=74, velocity=0, time=36),\n",
       "   Message('note_on', channel=0, note=62, velocity=0, time=4),\n",
       "   Message('note_on', channel=0, note=69, velocity=0, time=165),\n",
       "   Message('note_on', channel=0, note=74, velocity=61, time=3),\n",
       "   Message('note_on', channel=0, note=69, velocity=45, time=2),\n",
       "   Message('note_on', channel=0, note=57, velocity=0, time=13),\n",
       "   Message('note_on', channel=0, note=62, velocity=39, time=1),\n",
       "   Message('note_on', channel=0, note=69, velocity=0, time=38),\n",
       "   Message('note_on', channel=0, note=81, velocity=0, time=36),\n",
       "   Message('note_on', channel=0, note=74, velocity=0, time=69),\n",
       "   Message('note_on', channel=0, note=55, velocity=78, time=3),\n",
       "   Message('note_on', channel=0, note=79, velocity=75, time=3),\n",
       "   Message('note_on', channel=0, note=67, velocity=80, time=4),\n",
       "   Message('note_on', channel=0, note=74, velocity=68, time=0),\n",
       "   Message('note_on', channel=0, note=62, velocity=0, time=41),\n",
       "   Message('note_on', channel=0, note=74, velocity=0, time=18),\n",
       "   Message('note_on', channel=0, note=74, velocity=59, time=152),\n",
       "   Message('note_on', channel=0, note=55, velocity=0, time=1),\n",
       "   Message('note_on', channel=0, note=62, velocity=46, time=10),\n",
       "   Message('note_on', channel=0, note=55, velocity=43, time=0),\n",
       "   Message('note_on', channel=0, note=67, velocity=0, time=26),\n",
       "   Message('note_on', channel=0, note=55, velocity=0, time=26),\n",
       "   Message('note_on', channel=0, note=74, velocity=0, time=0),\n",
       "   Message('note_on', channel=0, note=79, velocity=0, time=8),\n",
       "   Message('note_on', channel=0, note=72, velocity=79, time=106),\n",
       "   Message('note_on', channel=0, note=60, velocity=71, time=1),\n",
       "   Message('note_on', channel=0, note=62, velocity=0, time=43),\n",
       "   Message('note_on', channel=0, note=74, velocity=54, time=164),\n",
       "   Message('note_on', channel=0, note=60, velocity=0, time=16),\n",
       "   Message('note_on', channel=0, note=62, velocity=34, time=9),\n",
       "   Message('note_on', channel=0, note=60, velocity=41, time=2),\n",
       "   Message('note_on', channel=0, note=72, velocity=0, time=18),\n",
       "   Message('note_on', channel=0, note=60, velocity=0, time=32),\n",
       "   Message('note_on', channel=0, note=59, velocity=75, time=99),\n",
       "   Message('note_on', channel=0, note=74, velocity=0, time=1),\n",
       "   Message('note_on', channel=0, note=71, velocity=80, time=3),\n",
       "   Message('note_on', channel=0, note=62, velocity=0, time=66),\n",
       "   Message('note_on', channel=0, note=62, velocity=52, time=135),\n",
       "   Message('note_on', channel=0, note=74, velocity=61, time=1),\n",
       "   Message('note_on', channel=0, note=71, velocity=0, time=45),\n",
       "   Message('note_on', channel=0, note=59, velocity=0, time=9),\n",
       "   Message('note_on', channel=0, note=69, velocity=70, time=130),\n",
       "   Message('note_on', channel=0, note=57, velocity=64, time=1),\n",
       "   Message('note_on', channel=0, note=74, velocity=0, time=55),\n",
       "   Message('note_on', channel=0, note=62, velocity=0, time=10),\n",
       "   Message('note_on', channel=0, note=57, velocity=0, time=134),\n",
       "   Message('note_on', channel=0, note=62, velocity=39, time=17),\n",
       "   Message('note_on', channel=0, note=74, velocity=48, time=2),\n",
       "   Message('note_on', channel=0, note=69, velocity=0, time=28),\n",
       "   Message('note_on', channel=0, note=74, velocity=0, time=178),\n",
       "   Message('note_on', channel=0, note=67, velocity=66, time=3),\n",
       "   Message('note_on', channel=0, note=55, velocity=48, time=1),\n",
       "   Message('note_on', channel=0, note=74, velocity=49, time=1),\n",
       "   Message('note_on', channel=0, note=62, velocity=0, time=62),\n",
       "   Message('note_on', channel=0, note=74, velocity=0, time=1193),\n",
       "   Message('note_on', channel=0, note=67, velocity=0, time=335),\n",
       "   Message('note_on', channel=0, note=55, velocity=0, time=0),\n",
       "   Message('note_on', channel=0, note=74, velocity=86, time=1863),\n",
       "   Message('note_on', channel=0, note=59, velocity=61, time=20),\n",
       "   Message('note_on', channel=0, note=60, velocity=40, time=342),\n",
       "   Message('note_on', channel=0, note=62, velocity=46, time=1),\n",
       "   Message('note_on', channel=0, note=60, velocity=0, time=4),\n",
       "   Message('note_on', channel=0, note=59, velocity=0, time=25),\n",
       "   Message('note_on', channel=0, note=57, velocity=57, time=273),\n",
       "   Message('note_on', channel=0, note=72, velocity=84, time=5),\n",
       "   Message('note_on', channel=0, note=62, velocity=0, time=104),\n",
       "   Message('note_on', channel=0, note=74, velocity=0, time=12),\n",
       "   Message('note_on', channel=0, note=62, velocity=54, time=205),\n",
       "   Message('note_on', channel=0, note=57, velocity=0, time=24),\n",
       "   Message('note_on', channel=0, note=55, velocity=52, time=276),\n",
       "   Message('note_on', channel=0, note=71, velocity=75, time=0),\n",
       "   Message('note_on', channel=0, note=62, velocity=0, time=86),\n",
       "   Message('note_on', channel=0, note=72, velocity=0, time=76),\n",
       "   Message('note_on', channel=0, note=62, velocity=34, time=176),\n",
       "   Message('note_on', channel=0, note=55, velocity=0, time=9),\n",
       "   Message('note_on', channel=0, note=71, velocity=0, time=288),\n",
       "   Message('note_on', channel=0, note=59, velocity=56, time=4),\n",
       "   Message('note_on', channel=0, note=71, velocity=47, time=1),\n",
       "   Message('note_on', channel=0, note=62, velocity=0, time=124),\n",
       "   Message('note_on', channel=0, note=59, velocity=0, time=186),\n",
       "   Message('note_on', channel=0, note=62, velocity=50, time=3),\n",
       "   Message('note_on', channel=0, note=59, velocity=42, time=1),\n",
       "   Message('note_on', channel=0, note=59, velocity=0, time=38),\n",
       "   Message('note_on', channel=0, note=69, velocity=75, time=247),\n",
       "   Message('note_on', channel=0, note=60, velocity=62, time=1),\n",
       "   Message('note_on', channel=0, note=81, velocity=72, time=0),\n",
       "   Message('note_on', channel=0, note=81, velocity=0, time=9),\n",
       "   Message('note_on', channel=0, note=71, velocity=0, time=12),\n",
       "   Message('note_on', channel=0, note=62, velocity=0, time=126),\n",
       "   Message('note_on', channel=0, note=71, velocity=85, time=149),\n",
       "   Message('note_on', channel=0, note=69, velocity=0, time=23),\n",
       "   Message('control_change', channel=0, control=64, value=127, time=28),\n",
       "   Message('control_change', channel=0, control=64, value=0, time=39),\n",
       "   Message('note_on', channel=0, note=72, velocity=85, time=213),\n",
       "   Message('note_on', channel=0, note=60, velocity=0, time=2),\n",
       "   Message('note_on', channel=0, note=57, velocity=63, time=9),\n",
       "   Message('note_on', channel=0, note=60, velocity=52, time=2),\n",
       "   Message('note_on', channel=0, note=71, velocity=0, time=92),\n",
       "   Message('note_on', channel=0, note=60, velocity=0, time=7),\n",
       "   Message('note_on', channel=0, note=69, velocity=73, time=206),\n",
       "   Message('note_on', channel=0, note=72, velocity=0, time=106),\n",
       "   Message('note_on', channel=0, note=67, velocity=72, time=189),\n",
       "   Message('note_on', channel=0, note=55, velocity=49, time=3),\n",
       "   Message('note_on', channel=0, note=69, velocity=0, time=88),\n",
       "   Message('note_on', channel=0, note=57, velocity=0, time=12),\n",
       "   Message('note_on', channel=0, note=62, velocity=42, time=231),\n",
       "   Message('note_on', channel=0, note=55, velocity=0, time=40),\n",
       "   Message('note_on', channel=0, note=59, velocity=54, time=239),\n",
       "   Message('note_on', channel=0, note=62, velocity=0, time=123),\n",
       "   Message('note_on', channel=0, note=62, velocity=47, time=193),\n",
       "   Message('note_on', channel=0, note=59, velocity=0, time=9),\n",
       "   Message('note_on', channel=0, note=71, velocity=76, time=252),\n",
       "   Message('note_on', channel=0, note=62, velocity=0, time=26),\n",
       "   Message('note_on', channel=0, note=55, velocity=53, time=5),\n",
       "   Message('note_on', channel=0, note=62, velocity=42, time=5),\n",
       "   Message('control_change', channel=0, control=64, value=127, time=90),\n",
       "   Message('note_on', channel=0, note=62, velocity=0, time=10),\n",
       "   Message('note_on', channel=0, note=67, velocity=0, time=21),\n",
       "   Message('control_change', channel=0, control=64, value=0, time=31),\n",
       "   Message('note_on', channel=0, note=72, velocity=89, time=122),\n",
       "   Message('control_change', channel=0, control=64, value=127, time=16),\n",
       "   Message('note_on', channel=0, note=71, velocity=0, time=15),\n",
       "   Message('control_change', channel=0, control=64, value=0, time=85),\n",
       "   Message('note_on', channel=0, note=74, velocity=87, time=167),\n",
       "   Message('note_on', channel=0, note=59, velocity=70, time=15),\n",
       "   Message('note_on', channel=0, note=55, velocity=0, time=82),\n",
       "   Message('note_on', channel=0, note=72, velocity=0, time=1),\n",
       "   Message('note_on', channel=0, note=71, velocity=78, time=187),\n",
       "   Message('note_on', channel=0, note=74, velocity=0, time=67),\n",
       "   Message('note_on', channel=0, note=69, velocity=80, time=222),\n",
       "   Message('note_on', channel=0, note=60, velocity=72, time=30),\n",
       "   Message('note_on', channel=0, note=59, velocity=0, time=40),\n",
       "   Message('note_on', channel=0, note=71, velocity=0, time=8),\n",
       "   Message('note_on', channel=0, note=71, velocity=86, time=220),\n",
       "   Message('control_change', channel=0, control=64, value=127, time=13),\n",
       "   Message('note_on', channel=0, note=69, velocity=0, time=83),\n",
       "   Message('control_change', channel=0, control=64, value=0, time=25),\n",
       "   Message('note_on', channel=0, note=72, velocity=82, time=170),\n",
       "   Message('note_on', channel=0, note=57, velocity=66, time=5),\n",
       "   Message('note_on', channel=0, note=69, velocity=63, time=5),\n",
       "   Message('note_on', channel=0, note=71, velocity=0, time=50),\n",
       "   Message('note_on', channel=0, note=60, velocity=0, time=11),\n",
       "   Message('note_on', channel=0, note=69, velocity=0, time=212),\n",
       "   Message('note_on', channel=0, note=69, velocity=67, time=4),\n",
       "   Message('note_on', channel=0, note=72, velocity=0, time=135),\n",
       "   Message('note_on', channel=0, note=71, velocity=79, time=157),\n",
       "   Message('note_on', channel=0, note=55, velocity=65, time=3),\n",
       "   Message('note_on', channel=0, note=69, velocity=0, time=72),\n",
       "   Message('note_on', channel=0, note=57, velocity=0, time=13),\n",
       "   Message('note_on', channel=0, note=72, velocity=83, time=199),\n",
       "   Message('note_on', channel=0, note=71, velocity=0, time=0),\n",
       "   Message('note_on', channel=0, note=71, velocity=66, time=4),\n",
       "   Message('note_on', channel=0, note=71, velocity=0, time=78),\n",
       "   Message('note_on', channel=0, note=74, velocity=84, time=185),\n",
       "   Message('note_on', channel=0, note=59, velocity=71, time=16),\n",
       "   Message('note_on', channel=0, note=71, velocity=64, time=4),\n",
       "   Message('note_on', channel=0, note=72, velocity=0, time=23),\n",
       "   Message('note_on', channel=0, note=55, velocity=0, time=82),\n",
       "   Message('note_on', channel=0, note=71, velocity=0, time=161),\n",
       "   Message('note_on', channel=0, note=71, velocity=79, time=9),\n",
       "   Message('note_on', channel=0, note=74, velocity=0, time=62),\n",
       "   Message('note_on', channel=0, note=69, velocity=75, time=234),\n",
       "   Message('note_on', channel=0, note=60, velocity=70, time=9),\n",
       "   Message('note_on', channel=0, note=71, velocity=0, time=76),\n",
       "   Message('note_on', channel=0, note=59, velocity=0, time=0),\n",
       "   Message('note_on', channel=0, note=71, velocity=80, time=193),\n",
       "   Message('control_change', channel=0, control=64, value=127, time=16),\n",
       "   Message('note_on', channel=0, note=69, velocity=0, time=149),\n",
       "   Message('control_change', channel=0, control=64, value=0, time=20),\n",
       "   Message('note_on', channel=0, note=72, velocity=76, time=102),\n",
       "   Message('note_on', channel=0, note=57, velocity=55, time=17),\n",
       "   Message('note_on', channel=0, note=71, velocity=0, time=46),\n",
       "   Message('note_on', channel=0, note=60, velocity=0, time=50),\n",
       "   Message('note_on', channel=0, note=69, velocity=50, time=208),\n",
       "   Message('note_on', channel=0, note=72, velocity=0, time=114),\n",
       "   Message('note_on', channel=0, note=74, velocity=79, time=166),\n",
       "   Message('note_on', channel=0, note=59, velocity=56, time=3),\n",
       "   Message('note_on', channel=0, note=69, velocity=0, time=90),\n",
       "   Message('note_on', channel=0, note=57, velocity=0, time=7),\n",
       "   Message('note_on', channel=0, note=62, velocity=40, time=230),\n",
       "   Message('note_on', channel=0, note=59, velocity=0, time=47),\n",
       "   Message('note_on', channel=0, note=72, velocity=75, time=199),\n",
       "   Message('note_on', channel=0, note=57, velocity=43, time=31),\n",
       "   Message('note_on', channel=0, note=74, velocity=0, time=60),\n",
       "   Message('note_on', channel=0, note=62, velocity=0, time=51),\n",
       "   Message('note_on', channel=0, note=62, velocity=51, time=221),\n",
       "   Message('note_on', channel=0, note=57, velocity=0, time=5),\n",
       "   Message('control_change', channel=0, control=64, value=127, time=173),\n",
       "   Message('control_change', channel=0, control=64, value=0, time=54),\n",
       "   Message('note_on', channel=0, note=55, velocity=48, time=29),\n",
       "   Message('note_on', channel=0, note=71, velocity=68, time=2),\n",
       "   Message('note_on', channel=0, note=62, velocity=0, time=102),\n",
       "   Message('note_on', channel=0, note=72, velocity=0, time=36),\n",
       "   Message('note_on', channel=0, note=55, velocity=0, time=176),\n",
       "   Message('note_on', channel=0, note=62, velocity=37, time=11),\n",
       "   Message('note_on', channel=0, note=59, velocity=51, time=275),\n",
       "   Message('note_on', channel=0, note=62, velocity=0, time=93),\n",
       "   Message('note_on', channel=0, note=60, velocity=37, time=223),\n",
       "   Message('note_on', channel=0, note=62, velocity=44, time=2),\n",
       "   Message('note_on', channel=0, note=60, velocity=0, time=4),\n",
       "   Message('note_on', channel=0, note=71, velocity=0, time=18),\n",
       "   Message('note_on', channel=0, note=59, velocity=0, time=11),\n",
       "   Message('control_change', channel=0, control=64, value=127, time=124),\n",
       "   Message('control_change', channel=0, control=64, value=0, time=92),\n",
       "   Message('note_on', channel=0, note=60, velocity=63, time=27),\n",
       "   Message('note_on', channel=0, note=69, velocity=74, time=0),\n",
       "   Message('note_on', channel=0, note=62, velocity=0, time=139),\n",
       "   Message('note_on', channel=0, note=71, velocity=82, time=153),\n",
       "   Message('note_on', channel=0, note=69, velocity=0, time=107),\n",
       "   Message('note_on', channel=0, note=72, velocity=72, time=175),\n",
       "   Message('note_on', channel=0, note=57, velocity=51, time=18),\n",
       "   Message('note_on', channel=0, note=60, velocity=0, time=77),\n",
       "   Message('note_on', channel=0, note=71, velocity=0, time=1),\n",
       "   Message('note_on', channel=0, note=69, velocity=59, time=220),\n",
       "   Message('note_on', channel=0, note=72, velocity=0, time=87),\n",
       "   Message('note_on', channel=0, note=59, velocity=53, time=205),\n",
       "   Message('note_on', channel=0, note=67, velocity=62, time=8),\n",
       "   Message('note_on', channel=0, note=57, velocity=0, time=61),\n",
       "   Message('note_on', channel=0, note=69, velocity=0, time=15),\n",
       "   Message('note_on', channel=0, note=62, velocity=41, time=242),\n",
       "   Message('note_on', channel=0, note=60, velocity=33, time=3),\n",
       "   Message('note_on', channel=0, note=59, velocity=0, time=20),\n",
       "   Message('note_on', channel=0, note=60, velocity=0, time=262),\n",
       "   Message('note_on', channel=0, note=67, velocity=0, time=8),\n",
       "   Message('note_on', channel=0, note=55, velocity=39, time=4),\n",
       "   Message('note_on', channel=0, note=67, velocity=35, time=2),\n",
       "   Message('note_on', channel=0, note=62, velocity=0, time=142),\n",
       "   Message('note_on', channel=0, note=55, velocity=0, time=554),\n",
       "   Message('note_on', channel=0, note=67, velocity=0, time=8),\n",
       "   Message('control_change', channel=0, control=64, value=127, time=3929),\n",
       "   Message('control_change', channel=0, control=64, value=0, time=15),\n",
       "   Message('control_change', channel=0, control=64, value=127, time=85),\n",
       "   Message('control_change', channel=0, control=64, value=0, time=146),\n",
       "   Message('note_on', channel=0, note=45, velocity=88, time=242),\n",
       "   Message('note_on', channel=0, note=52, velocity=90, time=2),\n",
       "   Message('note_on', channel=0, note=52, velocity=0, time=66),\n",
       "   Message('note_on', channel=0, note=45, velocity=0, time=4),\n",
       "   Message('note_on', channel=0, note=52, velocity=69, time=221),\n",
       "   Message('note_on', channel=0, note=45, velocity=49, time=25),\n",
       "   Message('note_on', channel=0, note=52, velocity=0, time=50),\n",
       "   Message('note_on', channel=0, note=45, velocity=0, time=5),\n",
       "   Message('note_on', channel=0, note=52, velocity=67, time=208),\n",
       "   Message('note_on', channel=0, note=45, velocity=50, time=11),\n",
       "   Message('note_on', channel=0, note=52, velocity=0, time=66),\n",
       "   Message('note_on', channel=0, note=45, velocity=0, time=4),\n",
       "   Message('note_on', channel=0, note=52, velocity=72, time=191),\n",
       "   Message('note_on', channel=0, note=45, velocity=61, time=2),\n",
       "   Message('note_on', channel=0, note=52, velocity=0, time=53),\n",
       "   Message('note_on', channel=0, note=45, velocity=0, time=17),\n",
       "   Message('note_on', channel=0, note=52, velocity=96, time=197),\n",
       "   Message('note_on', channel=0, note=45, velocity=88, time=1),\n",
       "   Message('note_on', channel=0, note=52, velocity=0, time=98),\n",
       "   Message('note_on', channel=0, note=45, velocity=0, time=27),\n",
       "   Message('note_on', channel=0, note=45, velocity=51, time=173),\n",
       "   Message('note_on', channel=0, note=52, velocity=62, time=0),\n",
       "   Message('note_on', channel=0, note=52, velocity=0, time=54),\n",
       "   Message('note_on', channel=0, note=45, velocity=0, time=9),\n",
       "   Message('note_on', channel=0, note=52, velocity=56, time=219),\n",
       "   Message('note_on', channel=0, note=45, velocity=41, time=17),\n",
       "   Message('note_on', channel=0, note=52, velocity=0, time=64),\n",
       "   Message('note_on', channel=0, note=45, velocity=0, time=4),\n",
       "   Message('note_on', channel=0, note=52, velocity=64, time=189),\n",
       "   Message('note_on', channel=0, note=45, velocity=47, time=6),\n",
       "   Message('note_on', channel=0, note=52, velocity=0, time=46),\n",
       "   Message('note_on', channel=0, note=45, velocity=0, time=4),\n",
       "   Message('note_on', channel=0, note=72, velocity=97, time=209),\n",
       "   Message('note_on', channel=0, note=52, velocity=74, time=7),\n",
       "   Message('note_on', channel=0, note=45, velocity=69, time=1),\n",
       "   Message('note_on', channel=0, note=52, velocity=0, time=46),\n",
       "   Message('note_on', channel=0, note=45, velocity=0, time=0),\n",
       "   Message('note_on', channel=0, note=69, velocity=78, time=80),\n",
       "   Message('note_on', channel=0, note=72, velocity=0, time=49),\n",
       "   Message('note_on', channel=0, note=52, velocity=58, time=127),\n",
       "   Message('note_on', channel=0, note=45, velocity=40, time=27),\n",
       "   Message('note_on', channel=0, note=45, velocity=0, time=50),\n",
       "   Message('note_on', channel=0, note=52, velocity=0, time=3),\n",
       "   Message('note_on', channel=0, note=52, velocity=69, time=196),\n",
       "   Message('note_on', channel=0, note=43, velocity=50, time=11),\n",
       "   Message('note_on', channel=0, note=45, velocity=50, time=5),\n",
       "   Message('note_on', channel=0, note=43, velocity=0, time=1),\n",
       "   Message('note_on', channel=0, note=52, velocity=0, time=73),\n",
       "   Message('note_on', channel=0, note=45, velocity=0, time=4),\n",
       "   Message('note_on', channel=0, note=52, velocity=75, time=174),\n",
       "   Message('note_on', channel=0, note=45, velocity=58, time=7),\n",
       "   Message('note_on', channel=0, note=52, velocity=0, time=43),\n",
       "   Message('note_on', channel=0, note=45, velocity=0, time=10),\n",
       "   Message('note_on', channel=0, note=69, velocity=0, time=7),\n",
       "   Message('note_on', channel=0, note=72, velocity=99, time=199),\n",
       "   Message('note_on', channel=0, note=52, velocity=77, time=11),\n",
       "   Message('note_on', channel=0, note=45, velocity=73, time=2),\n",
       "   Message('note_on', channel=0, note=52, velocity=0, time=75),\n",
       "   Message('note_on', channel=0, note=45, velocity=0, time=25),\n",
       "   Message('note_on', channel=0, note=69, velocity=79, time=19),\n",
       "   Message('note_on', channel=0, note=72, velocity=0, time=73),\n",
       "   Message('note_on', channel=0, note=52, velocity=69, time=105),\n",
       "   Message('note_on', channel=0, note=45, velocity=57, time=6),\n",
       "   Message('note_on', channel=0, note=52, velocity=0, time=69),\n",
       "   Message('note_on', channel=0, note=45, velocity=0, time=6),\n",
       "   Message('note_on', channel=0, note=52, velocity=71, time=187),\n",
       "   Message('note_on', channel=0, note=45, velocity=57, time=6),\n",
       "   Message('note_on', channel=0, note=52, velocity=0, time=87),\n",
       "   Message('note_on', channel=0, note=45, velocity=0, time=4),\n",
       "   Message('note_on', channel=0, note=52, velocity=80, time=176),\n",
       "   Message('note_on', channel=0, note=45, velocity=67, time=2),\n",
       "   Message('note_on', channel=0, note=69, velocity=0, time=33),\n",
       "   Message('note_on', channel=0, note=52, velocity=0, time=12),\n",
       "   Message('note_on', channel=0, note=45, velocity=0, time=3),\n",
       "   Message('note_on', channel=0, note=79, velocity=85, time=211),\n",
       "   Message('note_on', channel=0, note=67, velocity=95, time=6),\n",
       "   Message('note_on', channel=0, note=79, velocity=0, time=1),\n",
       "   Message('note_on', channel=0, note=52, velocity=76, time=7),\n",
       "   Message('note_on', channel=0, note=45, velocity=69, time=2),\n",
       "   Message('note_on', channel=0, note=52, velocity=0, time=56),\n",
       "   Message('note_on', channel=0, note=45, velocity=0, time=42),\n",
       "   Message('note_on', channel=0, note=64, velocity=80, time=17),\n",
       "   Message('note_on', channel=0, note=76, velocity=73, time=1),\n",
       "   Message('note_on', channel=0, note=67, velocity=0, time=56),\n",
       "   Message('note_on', channel=0, note=52, velocity=66, time=122),\n",
       "   Message('note_on', channel=0, note=45, velocity=58, time=5),\n",
       "   Message('note_on', channel=0, note=52, velocity=0, time=47),\n",
       "   Message('note_on', channel=0, note=45, velocity=0, time=29),\n",
       "   Message('note_on', channel=0, note=52, velocity=66, time=189),\n",
       "   Message('note_on', channel=0, note=64, velocity=0, time=15),\n",
       "   Message('note_on', channel=0, note=45, velocity=48, time=11),\n",
       "   Message('note_on', channel=0, note=52, velocity=0, time=48),\n",
       "   Message('note_on', channel=0, note=45, velocity=0, time=2),\n",
       "   Message('note_on', channel=0, note=52, velocity=76, time=185),\n",
       "   Message('note_on', channel=0, note=45, velocity=63, time=5),\n",
       "   Message('note_on', channel=0, note=76, velocity=0, time=21),\n",
       "   Message('note_on', channel=0, note=52, velocity=0, time=37),\n",
       "   Message('note_on', channel=0, note=45, velocity=0, time=3),\n",
       "   Message('note_on', channel=0, note=79, velocity=87, time=188),\n",
       "   Message('note_on', channel=0, note=67, velocity=93, time=5),\n",
       "   Message('note_on', channel=0, note=52, velocity=82, time=12),\n",
       "   Message('note_on', channel=0, note=45, velocity=69, time=4),\n",
       "   Message('note_on', channel=0, note=52, velocity=0, time=62),\n",
       "   Message('note_on', channel=0, note=45, velocity=0, time=23),\n",
       "   Message('note_on', channel=0, note=64, velocity=85, time=25),\n",
       "   Message('note_on', channel=0, note=76, velocity=77, time=1),\n",
       "   Message('note_on', channel=0, note=67, velocity=0, time=48),\n",
       "   Message('note_on', channel=0, note=52, velocity=72, time=112),\n",
       "   Message('note_on', channel=0, note=45, velocity=62, time=4),\n",
       "   Message('note_on', channel=0, note=45, velocity=0, time=41),\n",
       "   Message('note_on', channel=0, note=52, velocity=0, time=7),\n",
       "   Message('note_on', channel=0, note=52, velocity=65, time=217),\n",
       "   Message('note_on', channel=0, note=45, velocity=61, time=1),\n",
       "   Message('note_on', channel=0, note=52, velocity=0, time=62),\n",
       "   Message('note_on', channel=0, note=45, velocity=0, time=12),\n",
       "   Message('note_on', channel=0, note=79, velocity=0, time=173),\n",
       "   Message('note_on', channel=0, note=52, velocity=68, time=11),\n",
       "   Message('note_on', channel=0, note=49, velocity=48, time=1),\n",
       "   Message('note_on', channel=0, note=45, velocity=56, time=6),\n",
       "   Message('note_on', channel=0, note=49, velocity=0, time=5),\n",
       "   Message('note_on', channel=0, note=52, velocity=0, time=37),\n",
       "   Message('note_on', channel=0, note=45, velocity=0, time=8),\n",
       "   Message('note_on', channel=0, note=76, velocity=0, time=16),\n",
       "   Message('note_on', channel=0, note=64, velocity=0, time=69),\n",
       "   Message('note_on', channel=0, note=62, velocity=70, time=143),\n",
       "   Message('note_on', channel=0, note=53, velocity=62, time=0),\n",
       "   Message('note_on', channel=0, note=50, velocity=50, time=3),\n",
       "   Message('note_on', channel=0, note=45, velocity=54, time=0),\n",
       "   Message('note_on', channel=0, note=50, velocity=0, time=69),\n",
       "   Message('note_on', channel=0, note=53, velocity=0, time=3),\n",
       "   Message('note_on', channel=0, note=45, velocity=0, time=2),\n",
       "   Message('note_on', channel=0, note=62, velocity=0, time=28),\n",
       "   Message('note_on', channel=0, note=64, velocity=94, time=157),\n",
       "   Message('note_on', channel=0, note=62, velocity=89, time=7),\n",
       "   Message('note_on', channel=0, note=53, velocity=83, time=0),\n",
       "   Message('note_on', channel=0, note=45, velocity=77, time=1),\n",
       "   Message('note_on', channel=0, note=53, velocity=0, time=76),\n",
       "   Message('note_on', channel=0, note=45, velocity=0, time=48),\n",
       "   Message('note_on', channel=0, note=62, velocity=0, time=24),\n",
       "   Message('note_on', channel=0, note=64, velocity=0, time=0),\n",
       "   Message('note_on', channel=0, note=62, velocity=66, time=123),\n",
       "   Message('note_on', channel=0, note=45, velocity=50, time=12),\n",
       "   Message('note_on', channel=0, note=50, velocity=41, time=0),\n",
       "   Message('note_on', channel=0, note=53, velocity=54, time=3),\n",
       "   Message('note_on', channel=0, note=53, velocity=0, time=71),\n",
       "   Message('note_on', channel=0, note=45, velocity=0, time=2),\n",
       "   Message('note_on', channel=0, note=50, velocity=0, time=4),\n",
       "   Message('note_on', channel=0, note=62, velocity=0, time=42),\n",
       "   Message('note_on', channel=0, note=64, velocity=92, time=130),\n",
       "   Message('note_on', channel=0, note=50, velocity=68, time=3),\n",
       "   Message('note_on', channel=0, note=45, velocity=72, time=0),\n",
       "   Message('note_on', channel=0, note=62, velocity=86, time=0),\n",
       "   Message('note_on', channel=0, note=53, velocity=83, time=0),\n",
       "   Message('note_on', channel=0, note=53, velocity=0, time=85),\n",
       "   Message('note_on', channel=0, note=45, velocity=0, time=5),\n",
       "   Message('note_on', channel=0, note=50, velocity=0, time=12),\n",
       "   Message('note_on', channel=0, note=62, velocity=0, time=13),\n",
       "   Message('note_on', channel=0, note=64, velocity=0, time=10),\n",
       "   Message('note_on', channel=0, note=62, velocity=61, time=154),\n",
       "   Message('note_on', channel=0, note=45, velocity=47, time=8),\n",
       "   Message('note_on', channel=0, note=53, velocity=49, time=2),\n",
       "   Message('note_on', channel=0, note=50, velocity=39, time=0),\n",
       "   Message('note_on', channel=0, note=53, velocity=0, time=63),\n",
       "   Message('note_on', channel=0, note=45, velocity=0, time=4),\n",
       "   Message('note_on', channel=0, note=62, velocity=0, time=8),\n",
       "   Message('note_on', channel=0, note=50, velocity=0, time=6),\n",
       "   Message('note_on', channel=0, note=50, velocity=71, time=158),\n",
       "   Message('note_on', channel=0, note=53, velocity=85, time=1),\n",
       "   Message('note_on', channel=0, note=45, velocity=75, time=1),\n",
       "   Message('note_on', channel=0, note=64, velocity=93, time=1),\n",
       "   Message('note_on', channel=0, note=62, velocity=89, time=3),\n",
       "   Message('note_on', channel=0, note=52, velocity=72, time=2),\n",
       "   Message('note_on', channel=0, note=50, velocity=0, time=49),\n",
       "   Message('note_on', channel=0, note=53, velocity=0, time=37),\n",
       "   Message('note_on', channel=0, note=45, velocity=0, time=3),\n",
       "   Message('note_on', channel=0, note=52, velocity=0, time=14),\n",
       "   Message('note_on', channel=0, note=64, velocity=0, time=23),\n",
       "   Message('note_on', channel=0, note=62, velocity=0, time=8),\n",
       "   Message('note_on', channel=0, note=62, velocity=69, time=139),\n",
       "   Message('note_on', channel=0, note=53, velocity=46, time=11),\n",
       "   Message('note_on', channel=0, note=45, velocity=40, time=3),\n",
       "   Message('note_on', channel=0, note=53, velocity=0, time=57),\n",
       "   Message('note_on', channel=0, note=45, velocity=0, time=2),\n",
       "   Message('note_on', channel=0, note=62, velocity=0, time=5),\n",
       "   Message('note_on', channel=0, note=64, velocity=77, time=188),\n",
       "   Message('note_on', channel=0, note=62, velocity=73, time=1),\n",
       "   Message('note_on', channel=0, note=53, velocity=67, time=3),\n",
       "   Message('note_on', channel=0, note=45, velocity=57, time=0),\n",
       "   Message('note_on', channel=0, note=52, velocity=57, time=3),\n",
       "   Message('note_on', channel=0, note=50, velocity=55, time=1),\n",
       "   Message('note_on', channel=0, note=50, velocity=0, time=9),\n",
       "   Message('note_on', channel=0, note=53, velocity=0, time=26),\n",
       "   Message('note_on', channel=0, note=45, velocity=0, time=8),\n",
       "   Message('note_on', channel=0, note=52, velocity=0, time=12),\n",
       "   Message('note_on', channel=0, note=64, velocity=0, time=8),\n",
       "   Message('note_on', channel=0, note=62, velocity=0, time=23),\n",
       "   Message('note_on', channel=0, note=72, velocity=90, time=158),\n",
       "   Message('note_on', channel=0, note=60, velocity=90, time=2),\n",
       "   Message('note_on', channel=0, note=52, velocity=78, time=7),\n",
       "   Message('note_on', channel=0, note=45, velocity=67, time=3),\n",
       "   Message('note_on', channel=0, note=52, velocity=0, time=79),\n",
       "   Message('note_on', channel=0, note=45, velocity=0, time=1),\n",
       "   Message('note_on', channel=0, note=57, velocity=75, time=48),\n",
       "   Message('note_on', channel=0, note=60, velocity=0, time=54),\n",
       "   Message('note_on', channel=0, note=52, velocity=67, time=104),\n",
       "   Message('note_on', channel=0, note=45, velocity=58, time=2),\n",
       "   Message('note_on', channel=0, note=52, velocity=0, time=76),\n",
       "   Message('note_on', channel=0, note=45, velocity=0, time=1),\n",
       "   Message('note_on', channel=0, note=57, velocity=0, time=195),\n",
       "   Message('note_on', channel=0, note=52, velocity=63, time=3),\n",
       "   Message('note_on', channel=0, note=45, velocity=54, time=2),\n",
       "   Message('note_on', channel=0, note=57, velocity=52, time=1),\n",
       "   Message('note_on', channel=0, note=52, velocity=0, time=75),\n",
       "   Message('note_on', channel=0, note=45, velocity=0, time=0),\n",
       "   Message('note_on', channel=0, note=52, velocity=70, time=190),\n",
       "   Message('note_on', channel=0, note=45, velocity=50, time=23),\n",
       "   Message('note_on', channel=0, note=72, velocity=0, time=44),\n",
       "   Message('note_on', channel=0, note=52, velocity=0, time=1),\n",
       "   Message('note_on', channel=0, note=45, velocity=0, time=2),\n",
       "   Message('note_on', channel=0, note=57, velocity=0, time=27),\n",
       "   Message('note_on', channel=0, note=72, velocity=89, time=153),\n",
       "   Message('note_on', channel=0, note=60, velocity=89, time=2),\n",
       "   Message('note_on', channel=0, note=52, velocity=74, time=19),\n",
       "   Message('note_on', channel=0, note=45, velocity=66, time=4),\n",
       "   Message('note_on', channel=0, note=52, velocity=0, time=67),\n",
       "   Message('note_on', channel=0, note=45, velocity=0, time=10),\n",
       "   Message('note_on', channel=0, note=57, velocity=75, time=35),\n",
       "   Message('note_on', channel=0, note=60, velocity=0, time=59),\n",
       "   Message('note_on', channel=0, note=52, velocity=73, time=106),\n",
       "   Message('note_on', channel=0, note=45, velocity=47, time=18),\n",
       "   Message('note_on', channel=0, note=52, velocity=0, time=41),\n",
       "   Message('note_on', channel=0, note=45, velocity=0, time=2),\n",
       "   Message('note_on', channel=0, note=52, velocity=67, time=217),\n",
       "   Message('note_on', channel=0, note=45, velocity=49, time=10),\n",
       "   Message('note_on', channel=0, note=45, velocity=0, time=61),\n",
       "   Message('note_on', channel=0, note=52, velocity=0, time=0),\n",
       "   Message('note_on', channel=0, note=52, velocity=74, time=199),\n",
       "   Message('note_on', channel=0, note=45, velocity=51, time=23),\n",
       "   Message('note_on', channel=0, note=52, velocity=0, time=25),\n",
       "   Message('note_on', channel=0, note=57, velocity=0, time=1),\n",
       "   Message('note_on', channel=0, note=72, velocity=0, time=16),\n",
       "   Message('note_on', channel=0, note=45, velocity=0, time=15),\n",
       "   Message('note_on', channel=0, note=72, velocity=99, time=186),\n",
       "   Message('note_on', channel=0, note=52, velocity=80, time=10),\n",
       "   Message('note_on', channel=0, note=45, velocity=71, time=2),\n",
       "   Message('note_on', channel=0, note=52, velocity=0, time=48),\n",
       "   Message('note_on', channel=0, note=45, velocity=0, time=4),\n",
       "   Message('note_on', channel=0, note=69, velocity=84, time=40),\n",
       "   Message('note_on', channel=0, note=52, velocity=68, time=196),\n",
       "   Message('note_on', channel=0, note=45, velocity=53, time=8),\n",
       "   Message('note_on', channel=0, note=52, velocity=0, time=40),\n",
       "   Message('note_on', channel=0, note=45, velocity=0, time=7),\n",
       "   Message('note_on', channel=0, note=52, velocity=65, time=215),\n",
       "   Message('note_on', channel=0, note=45, velocity=45, time=25),\n",
       "   Message('note_on', channel=0, note=52, velocity=0, time=38),\n",
       "   Message('note_on', channel=0, note=45, velocity=0, time=7),\n",
       "   Message('note_on', channel=0, note=72, velocity=0, time=4),\n",
       "   Message('note_on', channel=0, note=52, velocity=76, time=203),\n",
       "   Message('note_on', channel=0, note=45, velocity=61, time=13),\n",
       "   Message('note_on', channel=0, note=52, velocity=0, time=40),\n",
       "   Message('note_on', channel=0, note=45, velocity=0, time=12),\n",
       "   Message('note_on', channel=0, note=69, velocity=0, time=13),\n",
       "   Message('note_on', channel=0, note=72, velocity=98, time=182),\n",
       "   Message('note_on', channel=0, note=52, velocity=79, time=14),\n",
       "   Message('note_on', channel=0, note=45, velocity=75, time=2),\n",
       "   Message('note_on', channel=0, note=52, velocity=0, time=69),\n",
       "   Message('note_on', channel=0, note=45, velocity=0, time=14),\n",
       "   Message('note_on', channel=0, note=69, velocity=78, time=32),\n",
       "   Message('note_on', channel=0, note=72, velocity=0, time=63),\n",
       "   Message('note_on', channel=0, note=52, velocity=73, time=100),\n",
       "   Message('note_on', channel=0, note=45, velocity=59, time=10),\n",
       "   Message('note_on', channel=0, note=45, velocity=0, time=45),\n",
       "   Message('note_on', channel=0, note=52, velocity=0, time=0),\n",
       "   Message('note_on', channel=0, note=52, velocity=72, time=215),\n",
       "   Message('note_on', channel=0, note=45, velocity=56, time=12),\n",
       "   Message('note_on', channel=0, note=52, velocity=0, time=40),\n",
       "   Message('note_on', channel=0, note=45, velocity=0, time=8),\n",
       "   Message('note_on', channel=0, note=52, velocity=64, time=222),\n",
       "   Message('note_on', channel=0, note=45, velocity=53, time=5),\n",
       "   Message('note_on', channel=0, note=52, velocity=0, time=32),\n",
       "   Message('note_on', channel=0, note=45, velocity=0, time=3),\n",
       "   Message('note_on', channel=0, note=69, velocity=0, time=38),\n",
       "   Message('note_on', channel=0, note=67, velocity=93, time=161),\n",
       "   Message('note_on', channel=0, note=52, velocity=82, time=5),\n",
       "   Message('note_on', channel=0, note=45, velocity=74, time=2),\n",
       "   Message('note_on', channel=0, note=52, velocity=0, time=63),\n",
       "   Message('note_on', channel=0, note=45, velocity=0, time=21),\n",
       "   Message('note_on', channel=0, note=64, velocity=83, time=45),\n",
       "   Message('note_on', channel=0, note=76, velocity=75, time=2),\n",
       "   Message('note_on', channel=0, note=67, velocity=0, time=40),\n",
       "   Message('note_on', channel=0, note=52, velocity=72, time=130),\n",
       "   Message('note_on', channel=0, note=45, velocity=63, time=6),\n",
       "   Message('note_on', channel=0, note=52, velocity=0, time=47),\n",
       "   Message('note_on', channel=0, note=45, velocity=0, time=5),\n",
       "   Message('note_on', channel=0, note=52, velocity=71, time=216),\n",
       "   Message('note_on', channel=0, note=45, velocity=59, time=4),\n",
       "   Message('note_on', channel=0, note=45, velocity=0, time=49),\n",
       "   Message('note_on', channel=0, note=52, velocity=0, time=0),\n",
       "   Message('note_on', channel=0, note=52, velocity=74, time=223),\n",
       "   Message('note_on', channel=0, note=45, velocity=64, time=2),\n",
       "   Message('note_on', channel=0, note=49, velocity=54, time=1),\n",
       "   Message('note_on', channel=0, note=76, velocity=0, time=2),\n",
       "   Message('note_on', channel=0, note=49, velocity=0, time=8),\n",
       "   Message('note_on', channel=0, note=52, velocity=0, time=33),\n",
       "   Message('note_on', channel=0, note=45, velocity=0, time=36),\n",
       "   Message('note_on', channel=0, note=64, velocity=0, time=54),\n",
       "   Message('note_on', channel=0, note=79, velocity=89, time=133),\n",
       "   Message('note_on', channel=0, note=67, velocity=96, time=1),\n",
       "   Message('note_on', channel=0, note=52, velocity=80, time=17),\n",
       "   Message('note_on', channel=0, note=45, velocity=72, time=3),\n",
       "   Message('note_on', channel=0, note=52, velocity=0, time=50),\n",
       "   Message('note_on', channel=0, note=45, velocity=0, time=7),\n",
       "   Message('note_on', channel=0, note=64, velocity=87, time=47),\n",
       "   Message('note_on', channel=0, note=67, velocity=0, time=51),\n",
       "   Message('note_on', channel=0, note=79, velocity=0, time=121),\n",
       "   Message('note_on', channel=0, note=52, velocity=72, time=2),\n",
       "   Message('note_on', channel=0, note=45, velocity=65, time=1),\n",
       "   Message('note_on', channel=0, note=52, velocity=0, time=46),\n",
       "   Message('note_on', channel=0, note=45, velocity=0, time=4),\n",
       "   Message('note_on', channel=0, note=52, velocity=74, time=222),\n",
       "   Message('note_on', channel=0, note=45, velocity=65, time=4),\n",
       "   Message('note_on', channel=0, note=49, velocity=56, time=0),\n",
       "   Message('note_on', channel=0, note=49, velocity=0, time=5),\n",
       "   Message('note_on', channel=0, note=52, velocity=0, time=57),\n",
       "   Message('note_on', channel=0, note=45, velocity=0, time=16),\n",
       "   Message('note_on', channel=0, note=52, velocity=68, time=192),\n",
       "   Message('note_on', channel=0, note=49, velocity=49, time=4),\n",
       "   Message('note_on', channel=0, note=45, velocity=60, time=1),\n",
       "   Message('note_on', channel=0, note=49, velocity=0, time=6),\n",
       "   Message('note_on', channel=0, note=52, velocity=0, time=43),\n",
       "   Message('note_on', channel=0, note=45, velocity=0, time=6),\n",
       "   Message('note_on', channel=0, note=64, velocity=0, time=0),\n",
       "   Message('note_on', channel=0, note=53, velocity=62, time=212),\n",
       "   Message('note_on', channel=0, note=62, velocity=65, time=2),\n",
       "   Message('note_on', channel=0, note=45, velocity=51, time=2),\n",
       "   Message('note_on', channel=0, note=50, velocity=47, time=0),\n",
       "   Message('note_on', channel=0, note=50, velocity=0, time=73),\n",
       "   Message('note_on', channel=0, note=53, velocity=0, time=5),\n",
       "   Message('note_on', channel=0, note=45, velocity=0, time=3),\n",
       "   Message('note_on', channel=0, note=62, velocity=0, time=22),\n",
       "   Message('note_on', channel=0, note=76, velocity=79, time=161),\n",
       "   Message('note_on', channel=0, note=64, velocity=91, time=1),\n",
       "   Message('note_on', channel=0, note=53, velocity=82, time=2),\n",
       "   Message('note_on', channel=0, note=74, velocity=80, time=1),\n",
       "   Message('note_on', channel=0, note=45, velocity=73, time=1),\n",
       "   Message('note_on', channel=0, note=50, velocity=69, time=0),\n",
       "   Message('note_on', channel=0, note=65, velocity=80, time=0),\n",
       "   Message('note_on', channel=0, note=62, velocity=84, time=0),\n",
       "   Message('note_on', channel=0, note=65, velocity=0, time=4),\n",
       "   Message('note_on', channel=0, note=50, velocity=0, time=84),\n",
       "   Message('note_on', channel=0, note=45, velocity=0, time=3),\n",
       "   Message('note_on', channel=0, note=53, velocity=0, time=1),\n",
       "   Message('note_on', channel=0, note=76, velocity=0, time=4),\n",
       "   Message('note_on', channel=0, note=64, velocity=0, time=57),\n",
       "   Message('note_on', channel=0, note=62, velocity=0, time=2),\n",
       "   Message('note_on', channel=0, note=74, velocity=0, time=10),\n",
       "   Message('note_on', channel=0, note=62, velocity=58, time=113),\n",
       "   Message('note_on', channel=0, note=53, velocity=48, time=14),\n",
       "   Message('note_on', channel=0, note=50, velocity=40, time=1),\n",
       "   Message('note_on', channel=0, note=45, velocity=43, time=4),\n",
       "   Message('note_on', channel=0, note=50, velocity=0, time=48),\n",
       "   Message('note_on', channel=0, note=45, velocity=0, time=2),\n",
       "   Message('note_on', channel=0, note=53, velocity=0, time=1),\n",
       "   Message('note_on', channel=0, note=62, velocity=0, time=45),\n",
       "   Message('note_on', channel=0, note=64, velocity=91, time=144),\n",
       "   Message('note_on', channel=0, note=76, velocity=77, time=2),\n",
       "   Message('note_on', channel=0, note=74, velocity=79, time=4),\n",
       "   Message('note_on', channel=0, note=62, velocity=87, time=1),\n",
       "   Message('note_on', channel=0, note=53, velocity=82, time=1),\n",
       "   Message('note_on', channel=0, note=50, velocity=64, time=1),\n",
       "   Message('note_on', channel=0, note=45, velocity=70, time=0),\n",
       "   Message('note_on', channel=0, note=52, velocity=68, time=1),\n",
       "   Message('note_on', channel=0, note=52, velocity=0, time=10),\n",
       "   Message('note_on', channel=0, note=76, velocity=0, time=54),\n",
       "   Message('note_on', channel=0, note=50, velocity=0, time=23),\n",
       "   Message('note_on', channel=0, note=45, velocity=0, time=11),\n",
       "   Message('note_on', channel=0, note=53, velocity=0, time=0),\n",
       "   Message('note_on', channel=0, note=64, velocity=0, time=35),\n",
       "   Message('note_on', channel=0, note=74, velocity=0, time=8),\n",
       "   Message('note_on', channel=0, note=62, velocity=0, time=15),\n",
       "   Message('note_on', channel=0, note=74, velocity=50, time=126),\n",
       "   Message('note_on', channel=0, note=62, velocity=54, time=1),\n",
       "   Message('note_on', channel=0, note=74, velocity=0, time=3),\n",
       "   Message('note_on', channel=0, note=50, velocity=31, time=12),\n",
       "   Message('note_on', channel=0, note=53, velocity=33, time=0),\n",
       "   Message('note_on', channel=0, note=45, velocity=37, time=1),\n",
       "   Message('note_on', channel=0, note=53, velocity=0, time=52),\n",
       "   Message('note_on', channel=0, note=45, velocity=0, time=1),\n",
       "   Message('note_on', channel=0, note=62, velocity=0, time=12),\n",
       "   Message('note_on', channel=0, note=50, velocity=0, time=7),\n",
       "   Message('note_on', channel=0, note=64, velocity=93, time=151),\n",
       "   Message('note_on', channel=0, note=76, velocity=78, time=2),\n",
       "   Message('note_on', channel=0, note=62, velocity=87, time=3),\n",
       "   Message('note_on', channel=0, note=74, velocity=80, time=1),\n",
       "   Message('note_on', channel=0, note=53, velocity=76, time=1),\n",
       "   Message('note_on', channel=0, note=45, velocity=70, time=1),\n",
       "   Message('note_on', channel=0, note=76, velocity=0, time=2),\n",
       "   Message('note_on', channel=0, note=53, velocity=0, time=96),\n",
       "   Message('note_on', channel=0, note=45, velocity=0, time=13),\n",
       "   Message('note_on', channel=0, note=74, velocity=0, time=22),\n",
       "   Message('note_on', channel=0, note=62, velocity=0, time=15),\n",
       "   Message('note_on', channel=0, note=64, velocity=0, time=0),\n",
       "   Message('note_on', channel=0, note=74, velocity=60, time=152),\n",
       "   Message('note_on', channel=0, note=62, velocity=68, time=2),\n",
       "   Message('note_on', channel=0, note=53, velocity=58, time=2),\n",
       "   Message('note_on', channel=0, note=45, velocity=49, time=1),\n",
       "   Message('note_on', channel=0, note=53, velocity=0, time=53),\n",
       "   Message('note_on', channel=0, note=45, velocity=0, time=3),\n",
       "   Message('note_on', channel=0, note=62, velocity=0, time=11),\n",
       "   Message('note_on', channel=0, note=74, velocity=0, time=30),\n",
       "   Message('note_on', channel=0, note=64, velocity=89, time=125),\n",
       "   Message('note_on', channel=0, note=62, velocity=86, time=1),\n",
       "   Message('note_on', channel=0, note=50, velocity=64, time=1),\n",
       "   Message('note_on', channel=0, note=53, velocity=77, time=0),\n",
       "   Message('note_on', channel=0, note=74, velocity=76, time=1),\n",
       "   Message('note_on', channel=0, note=76, velocity=75, time=0),\n",
       "   Message('note_on', channel=0, note=45, velocity=69, time=3),\n",
       "   Message('note_on', channel=0, note=76, velocity=0, time=7),\n",
       "   Message('note_on', channel=0, note=64, velocity=0, time=37),\n",
       "   Message('note_on', channel=0, note=50, velocity=0, time=1),\n",
       "   Message('note_on', channel=0, note=53, velocity=0, time=3),\n",
       "   Message('note_on', channel=0, note=45, velocity=0, time=10),\n",
       "   Message('note_on', channel=0, note=62, velocity=0, time=33),\n",
       "   Message('note_on', channel=0, note=74, velocity=0, time=46),\n",
       "   Message('note_on', channel=0, note=72, velocity=85, time=120),\n",
       "   Message('note_on', channel=0, note=60, velocity=87, time=0),\n",
       "   Message('note_on', channel=0, note=52, velocity=74, time=6),\n",
       "   Message('note_on', channel=0, note=45, velocity=69, time=0),\n",
       "   Message('note_on', channel=0, note=52, velocity=0, time=46),\n",
       "   Message('note_on', channel=0, note=45, velocity=0, time=7),\n",
       "   Message('note_on', channel=0, note=57, velocity=70, time=72),\n",
       "   Message('note_on', channel=0, note=60, velocity=0, time=72),\n",
       "   Message('note_on', channel=0, note=52, velocity=66, time=97),\n",
       "   Message('note_on', channel=0, note=45, velocity=48, time=6),\n",
       "   Message('note_on', channel=0, note=45, velocity=0, time=62),\n",
       "   Message('note_on', channel=0, note=52, velocity=0, time=7),\n",
       "   Message('note_on', channel=0, note=72, velocity=0, time=12),\n",
       "   Message('note_on', channel=0, note=52, velocity=64, time=203),\n",
       "   Message('note_on', channel=0, note=45, velocity=56, time=1),\n",
       "   Message('note_on', channel=0, note=45, velocity=0, time=47),\n",
       "   Message('note_on', channel=0, note=52, velocity=0, time=14),\n",
       "   Message('note_on', channel=0, note=52, velocity=73, time=183),\n",
       "   Message('note_on', channel=0, note=45, velocity=52, time=18),\n",
       "   Message('note_on', channel=0, note=52, velocity=0, time=27),\n",
       "   Message('note_on', channel=0, note=57, velocity=0, time=2),\n",
       "   Message('note_on', channel=0, note=45, velocity=0, time=35),\n",
       "   Message('note_on', channel=0, note=72, velocity=97, time=174),\n",
       "   Message('note_on', channel=0, note=52, velocity=66, time=15),\n",
       "   Message('note_on', channel=0, note=45, velocity=63, time=0),\n",
       "   Message('note_on', channel=0, note=52, velocity=0, time=58),\n",
       "   Message('note_on', channel=0, note=45, velocity=0, time=5),\n",
       "   Message('note_on', channel=0, note=69, velocity=81, time=24),\n",
       "   Message('note_on', channel=0, note=72, velocity=0, time=68),\n",
       "   Message('note_on', channel=0, note=52, velocity=62, time=119),\n",
       "   Message('note_on', channel=0, note=45, velocity=44, time=23),\n",
       "   Message('note_on', channel=0, note=52, velocity=0, time=26),\n",
       "   Message('note_on', channel=0, note=45, velocity=0, time=33),\n",
       "   Message('note_on', channel=0, note=52, velocity=71, time=181),\n",
       "   Message('note_on', channel=0, note=45, velocity=52, time=16),\n",
       "   Message('note_on', channel=0, note=52, velocity=0, time=46),\n",
       "   Message('note_on', channel=0, note=45, velocity=0, time=7),\n",
       "   Message('note_on', channel=0, note=52, velocity=82, time=195),\n",
       "   Message('note_on', channel=0, note=45, velocity=63, time=14),\n",
       "   Message('note_on', channel=0, note=69, velocity=0, time=17),\n",
       "   Message('note_on', channel=0, note=52, velocity=0, time=12),\n",
       "   Message('note_on', channel=0, note=45, velocity=0, time=20),\n",
       "   Message('note_on', channel=0, note=84, velocity=97, time=200),\n",
       "   Message('note_on', channel=0, note=52, velocity=82, time=10),\n",
       "   Message('note_on', channel=0, note=45, velocity=71, time=10),\n",
       "   Message('note_on', channel=0, note=52, velocity=0, time=55),\n",
       "   Message('note_on', channel=0, note=45, velocity=0, time=3),\n",
       "   Message('note_on', channel=0, note=81, velocity=79, time=47),\n",
       "   Message('note_on', channel=0, note=84, velocity=0, time=35),\n",
       "   Message('note_on', channel=0, note=52, velocity=75, time=128),\n",
       "   Message('note_on', channel=0, note=45, velocity=61, time=8),\n",
       "   Message('note_on', channel=0, note=52, velocity=0, time=43),\n",
       "   Message('note_on', channel=0, note=45, velocity=0, time=2),\n",
       "   Message('note_on', channel=0, note=52, velocity=70, time=182),\n",
       "   Message('note_on', channel=0, note=45, velocity=55, time=4),\n",
       "   Message('note_on', channel=0, note=52, velocity=0, time=75),\n",
       "   Message('note_on', channel=0, note=45, velocity=0, time=0),\n",
       "   Message('note_on', channel=0, note=52, velocity=85, time=214),\n",
       "   Message('note_on', channel=0, note=57, velocity=64, time=4),\n",
       "   Message('note_on', channel=0, note=45, velocity=69, time=2),\n",
       "   Message('note_on', channel=0, note=52, velocity=0, time=33),\n",
       "   Message('note_on', channel=0, note=45, velocity=0, time=0),\n",
       "   Message('note_on', channel=0, note=81, velocity=0, time=35),\n",
       "   Message('note_on', channel=0, note=57, velocity=0, time=8),\n",
       "   Message('note_on', channel=0, note=81, velocity=101, time=1185),\n",
       "   Message('note_on', channel=0, note=76, velocity=83, time=0),\n",
       "   Message('note_on', channel=0, note=69, velocity=102, time=1),\n",
       "   Message('note_on', channel=0, note=57, velocity=94, time=1),\n",
       "   Message('note_on', channel=0, note=52, velocity=96, time=2),\n",
       "   Message('control_change', channel=0, control=64, value=127, time=1),\n",
       "   Message('note_on', channel=0, note=45, velocity=97, time=2),\n",
       "   Message('note_on', channel=0, note=52, velocity=0, time=33),\n",
       "   Message('note_on', channel=0, note=45, velocity=0, time=1),\n",
       "   Message('note_on', channel=0, note=69, velocity=0, time=0),\n",
       "   Message('control_change', channel=0, control=64, value=0, time=18),\n",
       "   Message('note_on', channel=0, note=76, velocity=0, time=38),\n",
       "   Message('note_on', channel=0, note=57, velocity=0, time=8),\n",
       "   Message('note_on', channel=0, note=81, velocity=0, time=23),\n",
       "   Message('note_on', channel=0, note=53, velocity=75, time=2902),\n",
       "   Message('note_on', channel=0, note=57, velocity=68, time=295),\n",
       "   Message('note_on', channel=0, note=53, velocity=0, time=23),\n",
       "   Message('note_on', channel=0, note=60, velocity=69, time=238),\n",
       "   Message('note_on', channel=0, note=57, velocity=0, time=104),\n",
       "   Message('control_change', channel=0, control=64, value=127, time=17),\n",
       "   Message('note_on', channel=0, note=65, velocity=79, time=142),\n",
       "   Message('control_change', channel=0, control=64, value=0, time=27),\n",
       "   Message('note_on', channel=0, note=60, velocity=0, time=43),\n",
       "   Message('note_on', channel=0, note=81, velocity=80, time=198),\n",
       "   Message('note_on', channel=0, note=69, velocity=81, time=2),\n",
       "   Message('note_on', channel=0, note=65, velocity=0, time=85),\n",
       "   Message('note_on', channel=0, note=72, velocity=90, time=161),\n",
       "   Message('note_on', channel=0, note=69, velocity=0, time=31),\n",
       "   Message('note_on', channel=0, note=81, velocity=0, time=10),\n",
       "   Message('note_on', channel=0, note=72, velocity=0, time=222),\n",
       "   Message('note_on', channel=0, note=72, velocity=73, time=12),\n",
       "   Message('note_on', channel=0, note=60, velocity=73, time=0),\n",
       "   Message('note_on', channel=0, note=53, velocity=68, time=1),\n",
       "   Message('note_on', channel=0, note=65, velocity=62, time=6),\n",
       "   Message('note_on', channel=0, note=57, velocity=66, time=2),\n",
       "   Message('control_change', channel=0, control=64, value=127, time=110),\n",
       "   Message('note_on', channel=0, note=53, velocity=0, time=714),\n",
       "   Message('note_on', channel=0, note=57, velocity=0, time=8),\n",
       "   Message('note_on', channel=0, note=60, velocity=0, time=0),\n",
       "   Message('note_on', channel=0, note=65, velocity=0, time=0),\n",
       "   Message('note_on', channel=0, note=72, velocity=0, time=0),\n",
       "   Message('note_on', channel=0, note=53, velocity=54, time=1),\n",
       "   Message('note_on', channel=0, note=72, velocity=87, time=3),\n",
       "   Message('note_on', channel=0, note=77, velocity=77, time=2),\n",
       "   Message('note_on', channel=0, note=57, velocity=56, time=1),\n",
       "   Message('note_on', channel=0, note=60, velocity=54, time=1),\n",
       "   Message('note_on', channel=0, note=69, velocity=79, time=0),\n",
       "   Message('note_on', channel=0, note=65, velocity=73, time=2),\n",
       "   Message('control_change', channel=0, control=64, value=0, time=45),\n",
       "   Message('control_change', channel=0, control=64, value=127, time=206),\n",
       "   Message('note_on', channel=0, note=77, velocity=0, time=269),\n",
       "   Message('note_on', channel=0, note=53, velocity=0, time=338),\n",
       "   Message('note_on', channel=0, note=53, velocity=77, time=11),\n",
       "   Message('note_on', channel=0, note=72, velocity=0, time=27),\n",
       "   Message('control_change', channel=0, control=64, value=0, time=3),\n",
       "   Message('note_on', channel=0, note=65, velocity=0, time=4),\n",
       "   Message('note_on', channel=0, note=60, velocity=0, time=1),\n",
       "   Message('note_on', channel=0, note=69, velocity=0, time=5),\n",
       "   Message('note_on', channel=0, note=57, velocity=0, time=2),\n",
       "   Message('control_change', channel=0, control=64, value=127, time=46),\n",
       "   Message('note_on', channel=0, note=58, velocity=78, time=168),\n",
       "   Message('control_change', channel=0, control=64, value=0, time=40),\n",
       "   Message('note_on', channel=0, note=53, velocity=0, time=16),\n",
       "   Message('note_on', channel=0, note=62, velocity=66, time=197),\n",
       "   Message('control_change', channel=0, control=64, value=127, time=109),\n",
       "   Message('note_on', channel=0, note=58, velocity=0, time=36),\n",
       "   Message('control_change', channel=0, control=64, value=0, time=18),\n",
       "   Message('note_on', channel=0, note=65, velocity=81, time=101),\n",
       "   Message('note_on', channel=0, note=62, velocity=0, time=117),\n",
       "   Message('note_on', channel=0, note=77, velocity=62, time=138),\n",
       "   Message('note_on', channel=0, note=70, velocity=85, time=1),\n",
       "   Message('note_on', channel=0, note=65, velocity=0, time=107),\n",
       "   Message('note_on', channel=0, note=77, velocity=0, time=20),\n",
       "   Message('note_on', channel=0, note=74, velocity=91, time=135),\n",
       "   Message('note_on', channel=0, note=70, velocity=0, time=89),\n",
       "   Message('note_on', channel=0, note=62, velocity=73, time=186),\n",
       "   Message('note_on', channel=0, note=53, velocity=69, time=1),\n",
       "   Message('note_on', channel=0, note=58, velocity=72, time=2),\n",
       "   Message('control_change', channel=0, control=64, value=127, time=178),\n",
       "   Message('note_on', channel=0, note=74, velocity=0, time=377),\n",
       "   Message('note_on', channel=0, note=74, velocity=87, time=269),\n",
       "   Message('note_on', channel=0, note=70, velocity=83, time=5),\n",
       "   Message('note_on', channel=0, note=65, velocity=71, time=0),\n",
       "   Message('control_change', channel=0, control=64, value=0, time=30),\n",
       "   Message('control_change', channel=0, control=64, value=127, time=11),\n",
       "   Message('control_change', channel=0, control=64, value=0, time=69),\n",
       "   Message('note_on', channel=0, note=53, velocity=0, time=15),\n",
       "   Message('note_on', channel=0, note=58, velocity=0, time=15),\n",
       "   Message('note_on', channel=0, note=62, velocity=0, time=39),\n",
       "   Message('control_change', channel=0, control=64, value=127, time=69),\n",
       "   Message('note_on', channel=0, note=52, velocity=79, time=583),\n",
       "   Message('note_on', channel=0, note=74, velocity=0, time=103),\n",
       "   Message('control_change', channel=0, control=64, value=0, time=2),\n",
       "   Message('note_on', channel=0, note=70, velocity=0, time=5),\n",
       "   Message('note_on', channel=0, note=65, velocity=0, time=3),\n",
       "   Message('note_on', channel=0, note=70, velocity=62, time=154),\n",
       "   Message('note_on', channel=0, note=58, velocity=70, time=1),\n",
       "   Message('note_on', channel=0, note=52, velocity=0, time=80),\n",
       "   Message('note_on', channel=0, note=72, velocity=64, time=158),\n",
       "   Message('note_on', channel=0, note=60, velocity=70, time=0),\n",
       "   Message('note_on', channel=0, note=70, velocity=0, time=132),\n",
       "   Message('note_on', channel=0, note=58, velocity=0, time=14),\n",
       "   Message('note_on', channel=0, note=64, velocity=83, time=115),\n",
       "   Message('note_on', channel=0, note=76, velocity=69, time=2),\n",
       "   Message('note_on', channel=0, note=72, velocity=0, time=76),\n",
       "   Message('note_on', channel=0, note=60, velocity=0, time=3),\n",
       "   Message('note_on', channel=0, note=70, velocity=83, time=178),\n",
       "   Message('note_on', channel=0, note=64, velocity=0, time=153),\n",
       "   Message('note_on', channel=0, note=72, velocity=89, time=82),\n",
       "   Message('note_on', channel=0, note=70, velocity=0, time=25),\n",
       "   Message('note_on', channel=0, note=76, velocity=0, time=97),\n",
       "   Message('note_on', channel=0, note=72, velocity=0, time=146),\n",
       "   Message('note_on', channel=0, note=60, velocity=78, time=6),\n",
       "   Message('note_on', channel=0, note=72, velocity=72, time=2),\n",
       "   Message('note_on', channel=0, note=52, velocity=72, time=2),\n",
       "   Message('note_on', channel=0, note=58, velocity=79, time=1),\n",
       "   Message('control_change', channel=0, control=64, value=127, time=89),\n",
       "   Message('note_on', channel=0, note=58, velocity=0, time=729),\n",
       "   Message('note_on', channel=0, note=60, velocity=0, time=0),\n",
       "   Message('note_on', channel=0, note=72, velocity=0, time=0),\n",
       "   Message('note_on', channel=0, note=64, velocity=78, time=5),\n",
       "   Message('note_on', channel=0, note=55, velocity=55, time=1),\n",
       "   Message('note_on', channel=0, note=60, velocity=61, time=1),\n",
       "   Message('note_on', channel=0, note=58, velocity=60, time=2),\n",
       "   Message('note_on', channel=0, note=72, velocity=86, time=0),\n",
       "   Message('note_on', channel=0, note=48, velocity=55, time=3),\n",
       "   Message('note_on', channel=0, note=76, velocity=77, time=0),\n",
       "   Message('note_on', channel=0, note=48, velocity=0, time=11),\n",
       "   Message('note_on', channel=0, note=52, velocity=0, time=38),\n",
       "   Message('control_change', channel=0, control=64, value=0, time=6),\n",
       "   Message('note_on', channel=0, note=55, velocity=0, time=171),\n",
       "   Message('note_on', channel=0, note=60, velocity=0, time=39),\n",
       "   Message('note_on', channel=0, note=58, velocity=0, time=115),\n",
       "   Message('control_change', channel=0, control=64, value=127, time=100),\n",
       "   Message('note_on', channel=0, note=53, velocity=78, time=331),\n",
       "   Message('note_on', channel=0, note=64, velocity=0, time=67),\n",
       "   Message('control_change', channel=0, control=64, value=0, time=5),\n",
       "   Message('note_on', channel=0, note=72, velocity=0, time=19),\n",
       "   Message('note_on', channel=0, note=76, velocity=0, time=62),\n",
       "   Message('note_on', channel=0, note=57, velocity=73, time=102),\n",
       "   Message('note_on', channel=0, note=53, velocity=0, time=89),\n",
       "   Message('note_on', channel=0, note=72, velocity=68, time=144),\n",
       "   Message('note_on', channel=0, note=60, velocity=75, time=3),\n",
       "   Message('control_change', channel=0, control=64, value=127, time=130),\n",
       "   Message('note_on', channel=0, note=57, velocity=0, time=13),\n",
       "   Message('control_change', channel=0, control=64, value=0, time=26),\n",
       "   Message('note_on', channel=0, note=65, velocity=83, time=91),\n",
       "   Message('note_on', channel=0, note=72, velocity=0, time=101),\n",
       "   Message('note_on', channel=0, note=60, velocity=0, time=9),\n",
       "   Message('note_on', channel=0, note=81, velocity=79, time=142),\n",
       "   Message('note_on', channel=0, note=69, velocity=86, time=2),\n",
       "   Message('note_on', channel=0, note=65, velocity=0, time=111),\n",
       "   Message('note_on', channel=0, note=81, velocity=0, time=112),\n",
       "   Message('note_on', channel=0, note=72, velocity=91, time=42),\n",
       "   Message('note_on', channel=0, note=69, velocity=0, time=47),\n",
       "   Message('note_on', channel=0, note=65, velocity=79, time=222),\n",
       "   Message('note_on', channel=0, note=77, velocity=71, time=1),\n",
       "   Message('note_on', channel=0, note=72, velocity=0, time=3),\n",
       "   Message('note_on', channel=0, note=72, velocity=68, time=7),\n",
       "   Message('note_on', channel=0, note=77, velocity=0, time=0),\n",
       "   Message('note_on', channel=0, note=53, velocity=62, time=10),\n",
       "   Message('note_on', channel=0, note=60, velocity=63, time=0),\n",
       "   Message('note_on', channel=0, note=57, velocity=58, time=10),\n",
       "   Message('control_change', channel=0, control=64, value=127, time=219),\n",
       "   Message('control_change', channel=0, control=64, value=0, time=1244),\n",
       "   Message('note_on', channel=0, note=60, velocity=0, time=21),\n",
       "   Message('note_on', channel=0, note=72, velocity=0, time=17),\n",
       "   Message('note_on', channel=0, note=57, velocity=0, time=9),\n",
       "   Message('note_on', channel=0, note=53, velocity=0, time=3),\n",
       "   Message('note_on', channel=0, note=65, velocity=0, time=7),\n",
       "   Message('note_on', channel=0, note=65, velocity=84, time=3090),\n",
       "   Message('note_on', channel=0, note=65, velocity=0, time=117),\n",
       "   Message('note_on', channel=0, note=65, velocity=78, time=118),\n",
       "   Message('note_on', channel=0, note=65, velocity=0, time=100),\n",
       "   Message('note_on', channel=0, note=72, velocity=81, time=139),\n",
       "   Message('note_on', channel=0, note=77, velocity=85, time=1),\n",
       "   Message('note_on', channel=0, note=53, velocity=71, time=0),\n",
       "   Message('note_on', channel=0, note=60, velocity=78, time=1),\n",
       "   Message('note_on', channel=0, note=57, velocity=78, time=1),\n",
       "   Message('note_on', channel=0, note=65, velocity=87, time=0),\n",
       "   Message('note_on', channel=0, note=77, velocity=0, time=62),\n",
       "   Message('note_on', channel=0, note=65, velocity=0, time=355),\n",
       "   Message('note_on', channel=0, note=79, velocity=61, time=72),\n",
       "   Message('note_on', channel=0, note=67, velocity=67, time=1),\n",
       "   Message('note_on', channel=0, note=79, velocity=0, time=10),\n",
       "   Message('note_on', channel=0, note=57, velocity=0, time=14),\n",
       "   Message('note_on', channel=0, note=53, velocity=0, time=2),\n",
       "   Message('note_on', channel=0, note=72, velocity=0, time=45),\n",
       "   Message('note_on', channel=0, note=67, velocity=0, time=9),\n",
       "   Message('note_on', channel=0, note=60, velocity=0, time=5),\n",
       "   Message('note_on', channel=0, note=79, velocity=64, time=145),\n",
       "   Message('note_on', channel=0, note=67, velocity=70, time=1),\n",
       "   Message('note_on', channel=0, note=67, velocity=0, time=43),\n",
       "   Message('note_on', channel=0, note=79, velocity=0, time=7),\n",
       "   Message('note_on', channel=0, note=79, velocity=81, time=185),\n",
       "   Message('note_on', channel=0, note=60, velocity=78, time=1),\n",
       "   Message('note_on', channel=0, note=52, velocity=75, time=1),\n",
       "   Message('note_on', channel=0, note=58, velocity=83, time=0),\n",
       "   Message('note_on', channel=0, note=67, velocity=87, time=1),\n",
       "   Message('control_change', channel=0, control=64, value=127, time=109),\n",
       "   Message('note_on', channel=0, note=58, velocity=0, time=300),\n",
       "   Message('note_on', channel=0, note=60, velocity=0, time=7),\n",
       "   Message('note_on', channel=0, note=55, velocity=53, time=3),\n",
       "   Message('note_on', channel=0, note=58, velocity=63, time=1),\n",
       "   Message('note_on', channel=0, note=81, velocity=79, time=0),\n",
       "   Message('note_on', channel=0, note=69, velocity=84, time=1),\n",
       "   Message('note_on', channel=0, note=55, velocity=0, time=3),\n",
       "   Message('note_on', channel=0, note=60, velocity=55, time=2),\n",
       "   Message('control_change', channel=0, control=64, value=0, time=4),\n",
       "   Message('note_on', channel=0, note=67, velocity=0, time=6),\n",
       "   Message('note_on', channel=0, note=52, velocity=0, time=7),\n",
       "   Message('note_on', channel=0, note=79, velocity=0, time=35),\n",
       "   Message('note_on', channel=0, note=60, velocity=0, time=54),\n",
       "   Message('note_on', channel=0, note=58, velocity=0, time=23),\n",
       "   Message('note_on', channel=0, note=81, velocity=0, time=61),\n",
       "   Message('note_on', channel=0, note=82, velocity=75, time=19),\n",
       "   Message('note_on', channel=0, note=70, velocity=85, time=3),\n",
       "   Message('note_on', channel=0, note=82, velocity=0, time=9),\n",
       "   Message('note_on', channel=0, note=69, velocity=0, time=24),\n",
       "   Message('note_on', channel=0, note=72, velocity=90, time=202),\n",
       "   Message('note_on', channel=0, note=70, velocity=0, time=20),\n",
       "   Message('note_on', channel=0, note=60, velocity=67, time=1),\n",
       "   Message('note_on', channel=0, note=57, velocity=66, time=2),\n",
       "   Message('note_on', channel=0, note=53, velocity=58, time=1),\n",
       "   Message('control_change', channel=0, control=64, value=127, time=111),\n",
       "   Message('control_change', channel=0, control=64, value=0, time=84),\n",
       "   Message('note_on', channel=0, note=65, velocity=75, time=12),\n",
       "   Message('note_on', channel=0, note=77, velocity=69, time=1),\n",
       "   Message('note_on', channel=0, note=77, velocity=0, time=10),\n",
       "   Message('note_on', channel=0, note=57, velocity=0, time=31),\n",
       "   Message('control_change', channel=0, control=64, value=127, time=31),\n",
       "   Message('note_on', channel=0, note=72, velocity=0, time=7),\n",
       "   Message('control_change', channel=0, control=64, value=0, time=98),\n",
       "   Message('note_on', channel=0, note=64, velocity=86, time=55),\n",
       "   Message('note_on', channel=0, note=76, velocity=73, time=3),\n",
       "   Message('note_on', channel=0, note=65, velocity=0, time=55),\n",
       "   Message('note_on', channel=0, note=53, velocity=0, time=27),\n",
       "   Message('note_on', channel=0, note=60, velocity=0, time=119),\n",
       "   Message('note_on', channel=0, note=65, velocity=76, time=32),\n",
       "   Message('note_on', channel=0, note=77, velocity=71, time=1),\n",
       "   Message('control_change', channel=0, control=64, value=127, time=17),\n",
       "   Message('note_on', channel=0, note=64, velocity=0, time=60),\n",
       "   Message('note_on', channel=0, note=76, velocity=0, time=17),\n",
       "   Message('control_change', channel=0, control=64, value=0, time=82),\n",
       "   Message('note_on', channel=0, note=79, velocity=79, time=50),\n",
       "   Message('note_on', channel=0, note=52, velocity=70, time=3),\n",
       "   Message('note_on', channel=0, note=58, velocity=77, time=0),\n",
       "   Message('note_on', channel=0, note=67, velocity=82, time=0),\n",
       "   Message('note_on', channel=0, note=60, velocity=70, time=1),\n",
       "   Message('note_on', channel=0, note=79, velocity=0, time=2),\n",
       "   Message('note_on', channel=0, note=48, velocity=65, time=1),\n",
       "   Message('note_on', channel=0, note=77, velocity=0, time=7),\n",
       "   Message('note_on', channel=0, note=65, velocity=0, time=27),\n",
       "   Message('note_on', channel=0, note=60, velocity=0, time=155),\n",
       "   Message('note_on', channel=0, note=48, velocity=0, time=18),\n",
       "   Message('note_on', channel=0, note=60, velocity=76, time=27),\n",
       "   Message('note_on', channel=0, note=52, velocity=0, time=31),\n",
       "   Message('note_on', channel=0, note=67, velocity=0, time=6),\n",
       "   Message('note_on', channel=0, note=58, velocity=0, time=28),\n",
       "   Message('note_on', channel=0, note=65, velocity=71, time=163),\n",
       "   Message('note_on', channel=0, note=77, velocity=65, time=2),\n",
       "   Message('note_on', channel=0, note=60, velocity=0, time=37),\n",
       "   Message('note_on', channel=0, note=77, velocity=0, time=32),\n",
       "   Message('note_on', channel=0, note=65, velocity=0, time=5),\n",
       "   Message('note_on', channel=0, note=65, velocity=77, time=164),\n",
       "   Message('note_on', channel=0, note=65, velocity=0, time=37),\n",
       "   Message('note_on', channel=0, note=65, velocity=84, time=190),\n",
       "   Message('note_on', channel=0, note=77, velocity=76, time=1),\n",
       "   Message('note_on', channel=0, note=72, velocity=70, time=4),\n",
       "   Message('note_on', channel=0, note=77, velocity=0, time=2),\n",
       "   Message('note_on', channel=0, note=60, velocity=67, time=5),\n",
       "   Message('note_on', channel=0, note=53, velocity=64, time=0),\n",
       "   Message('note_on', channel=0, note=57, velocity=69, time=6),\n",
       "   Message('control_change', channel=0, control=64, value=127, time=274),\n",
       "   Message('note_on', channel=0, note=65, velocity=0, time=73),\n",
       "   Message('control_change', channel=0, control=64, value=0, time=6),\n",
       "   Message('note_on', channel=0, note=72, velocity=0, time=36),\n",
       "   Message('note_on', channel=0, note=79, velocity=78, time=62),\n",
       "   Message('note_on', channel=0, note=67, velocity=83, time=1),\n",
       "   Message('note_on', channel=0, note=60, velocity=0, time=20),\n",
       "   Message('note_on', channel=0, note=53, velocity=0, time=3),\n",
       "   Message('note_on', channel=0, note=57, velocity=0, time=21),\n",
       "   Message('note_on', channel=0, note=67, velocity=0, time=58),\n",
       "   Message('note_on', channel=0, note=79, velocity=0, time=7),\n",
       "   Message('note_on', channel=0, note=79, velocity=72, time=115),\n",
       "   Message('note_on', channel=0, note=67, velocity=76, time=1),\n",
       "   Message('note_on', channel=0, note=67, velocity=0, time=45),\n",
       "   Message('note_on', channel=0, note=79, velocity=0, time=5),\n",
       "   Message('note_on', channel=0, note=79, velocity=78, time=185),\n",
       "   Message('note_on', channel=0, note=67, velocity=84, time=4),\n",
       "   Message('note_on', channel=0, note=52, velocity=70, time=1),\n",
       "   Message('note_on', channel=0, note=58, velocity=76, time=4),\n",
       "   Message('note_on', channel=0, note=60, velocity=72, time=0),\n",
       "   Message('note_on', channel=0, note=48, velocity=65, time=0),\n",
       "   Message('note_on', channel=0, note=48, velocity=0, time=5),\n",
       "   Message('control_change', channel=0, control=64, value=127, time=131),\n",
       "   Message('control_change', channel=0, control=64, value=0, time=287),\n",
       "   Message('note_on', channel=0, note=58, velocity=0, time=1),\n",
       "   Message('note_on', channel=0, note=52, velocity=0, time=1),\n",
       "   Message('note_on', channel=0, note=60, velocity=0, time=1),\n",
       "   Message('note_on', channel=0, note=81, velocity=79, time=16),\n",
       "   Message('note_on', channel=0, note=69, velocity=82, time=3),\n",
       "   Message('note_on', channel=0, note=79, velocity=0, time=44),\n",
       "   Message('note_on', channel=0, note=67, velocity=0, time=13),\n",
       "   Message('note_on', channel=0, note=81, velocity=0, time=125),\n",
       "   Message('note_on', channel=0, note=70, velocity=84, time=40),\n",
       "   Message('note_on', channel=0, note=69, velocity=0, time=32),\n",
       "   Message('note_on', channel=0, note=72, velocity=89, time=195),\n",
       "   Message('note_on', channel=0, note=53, velocity=63, time=20),\n",
       "   Message('note_on', channel=0, note=57, velocity=65, time=2),\n",
       "   Message('note_on', channel=0, note=60, velocity=64, time=0),\n",
       "   Message('note_on', channel=0, note=70, velocity=0, time=34),\n",
       "   Message('note_on', channel=0, note=65, velocity=79, time=173),\n",
       "   Message('note_on', channel=0, note=77, velocity=74, time=2),\n",
       "   Message('note_on', channel=0, note=53, velocity=0, time=20),\n",
       "   Message('note_on', channel=0, note=72, velocity=0, time=32),\n",
       "   Message('note_on', channel=0, note=60, velocity=0, time=10),\n",
       "   Message('note_on', channel=0, note=57, velocity=0, time=4),\n",
       "   Message('note_on', channel=0, note=79, velocity=79, time=157),\n",
       "   Message('note_on', channel=0, note=67, velocity=85, time=5),\n",
       "   Message('note_on', channel=0, note=52, velocity=68, time=0),\n",
       "   Message('note_on', channel=0, note=48, velocity=65, time=3),\n",
       "   Message('note_on', channel=0, note=79, velocity=0, time=1),\n",
       "   Message('note_on', channel=0, note=58, velocity=74, time=4),\n",
       "   Message('note_on', channel=0, note=60, velocity=68, time=5),\n",
       "   Message('note_on', channel=0, note=77, velocity=0, time=6),\n",
       "   Message('note_on', channel=0, note=65, velocity=0, time=23),\n",
       "   Message('note_on', channel=0, note=64, velocity=80, time=183),\n",
       "   Message('note_on', channel=0, note=76, velocity=71, time=2),\n",
       "   Message('note_on', channel=0, note=52, velocity=0, time=18),\n",
       "   Message('note_on', channel=0, note=60, velocity=0, time=23),\n",
       "   Message('note_on', channel=0, note=48, velocity=0, time=5),\n",
       "   Message('note_on', channel=0, note=58, velocity=0, time=0),\n",
       "   Message('note_on', channel=0, note=67, velocity=0, time=2),\n",
       "   Message('note_on', channel=0, note=65, velocity=77, time=195),\n",
       "   Message('note_on', channel=0, note=77, velocity=71, time=3),\n",
       "   Message('note_on', channel=0, note=53, velocity=57, time=9),\n",
       "   Message('note_on', channel=0, note=81, velocity=61, time=5),\n",
       "   Message('note_on', channel=0, note=57, velocity=60, time=7),\n",
       "   Message('note_on', channel=0, note=60, velocity=58, time=0),\n",
       "   Message('note_on', channel=0, note=81, velocity=0, time=2),\n",
       "   Message('note_on', channel=0, note=76, velocity=0, time=23),\n",
       "   Message('note_on', channel=0, note=64, velocity=0, time=8),\n",
       "   Message('note_on', channel=0, note=77, velocity=0, time=22),\n",
       "   Message('control_change', channel=0, control=64, value=127, time=77),\n",
       "   Message('note_on', channel=0, note=65, velocity=0, time=104),\n",
       "   Message('note_on', channel=0, note=53, velocity=0, time=1),\n",
       "   Message('control_change', channel=0, control=64, value=0, time=15),\n",
       "   Message('note_on', channel=0, note=60, velocity=0, time=156),\n",
       "   Message('note_on', channel=0, note=57, velocity=0, time=1),\n",
       "   Message('note_on', channel=0, note=65, velocity=73, time=34),\n",
       "   Message('note_on', channel=0, note=77, velocity=64, time=0),\n",
       "   Message('note_on', channel=0, note=77, velocity=0, time=65),\n",
       "   Message('note_on', channel=0, note=65, velocity=0, time=42),\n",
       "   Message('note_on', channel=0, note=65, velocity=76, time=111),\n",
       "   Message('note_on', channel=0, note=77, velocity=66, time=3),\n",
       "   Message('note_on', channel=0, note=77, velocity=0, time=6),\n",
       "   Message('note_on', channel=0, note=65, velocity=0, time=90),\n",
       "   Message('note_on', channel=0, note=53, velocity=63, time=121),\n",
       "   Message('note_on', channel=0, note=65, velocity=76, time=0),\n",
       "   Message('note_on', channel=0, note=60, velocity=66, time=1),\n",
       "   Message('note_on', channel=0, note=57, velocity=64, time=5),\n",
       "   Message('note_on', channel=0, note=65, velocity=0, time=103),\n",
       "   Message('note_on', channel=0, note=65, velocity=74, time=112),\n",
       "   Message('note_on', channel=0, note=77, velocity=67, time=2),\n",
       "   Message('note_on', channel=0, note=77, velocity=0, time=11),\n",
       "   Message('note_on', channel=0, note=60, velocity=0, time=34),\n",
       "   Message('note_on', channel=0, note=65, velocity=0, time=112),\n",
       "   Message('note_on', channel=0, note=53, velocity=0, time=8),\n",
       "   Message('note_on', channel=0, note=57, velocity=0, time=46),\n",
       "   Message('note_on', channel=0, note=79, velocity=81, time=13),\n",
       "   Message('note_on', channel=0, note=67, velocity=87, time=5),\n",
       "   Message('note_on', channel=0, note=58, velocity=81, time=2),\n",
       "   Message('note_on', channel=0, note=52, velocity=70, time=4),\n",
       "   Message('note_on', channel=0, note=60, velocity=73, time=1),\n",
       "   Message('note_on', channel=0, note=79, velocity=0, time=52),\n",
       "   Message('note_on', channel=0, note=52, velocity=0, time=220),\n",
       "   Message('note_on', channel=0, note=60, velocity=0, time=64),\n",
       "   Message('note_on', channel=0, note=65, velocity=63, time=149),\n",
       "   Message('note_on', channel=0, note=60, velocity=54, time=8),\n",
       "   Message('note_on', channel=0, note=53, velocity=54, time=4),\n",
       "   Message('note_on', channel=0, note=57, velocity=57, time=2),\n",
       "   Message('note_on', channel=0, note=58, velocity=0, time=49),\n",
       "   Message('note_on', channel=0, note=67, velocity=0, time=16),\n",
       "   Message('note_on', channel=0, note=65, velocity=0, time=106),\n",
       "   Message('note_on', channel=0, note=65, velocity=71, time=263),\n",
       "   Message('note_on', channel=0, note=53, velocity=0, time=33),\n",
       "   Message('note_on', channel=0, note=57, velocity=0, time=84),\n",
       "   Message('note_on', channel=0, note=60, velocity=0, time=0),\n",
       "   Message('note_on', channel=0, note=65, velocity=0, time=12),\n",
       "   Message('note_on', channel=0, note=65, velocity=69, time=92),\n",
       "   Message('note_on', channel=0, note=65, velocity=0, time=77),\n",
       "   Message('note_on', channel=0, note=65, velocity=65, time=160),\n",
       "   Message('note_on', channel=0, note=60, velocity=56, time=16),\n",
       "   Message('note_on', channel=0, note=57, velocity=54, time=1),\n",
       "   Message('note_on', channel=0, note=53, velocity=47, time=6),\n",
       "   Message('note_on', channel=0, note=65, velocity=0, time=63),\n",
       "   Message('note_on', channel=0, note=60, velocity=0, time=167),\n",
       "   Message('note_on', channel=0, note=65, velocity=60, time=1),\n",
       "   Message('note_on', channel=0, note=79, velocity=73, time=270),\n",
       "   Message('note_on', channel=0, note=67, velocity=79, time=6),\n",
       "   Message('note_on', channel=0, note=58, velocity=67, time=2),\n",
       "   Message('note_on', channel=0, note=79, velocity=0, time=3),\n",
       "   Message('note_on', channel=0, note=52, velocity=54, time=8),\n",
       "   Message('note_on', channel=0, note=60, velocity=55, time=12),\n",
       "   Message('note_on', channel=0, note=57, velocity=0, time=20),\n",
       "   Message('note_on', channel=0, note=65, velocity=0, time=0),\n",
       "   Message('note_on', channel=0, note=53, velocity=0, time=21),\n",
       "   Message('note_on', channel=0, note=52, velocity=0, time=193),\n",
       "   Message('note_on', channel=0, note=60, velocity=0, time=89),\n",
       "   Message('note_on', channel=0, note=65, velocity=65, time=236),\n",
       "   Message('note_on', channel=0, note=60, velocity=53, time=36),\n",
       "   Message('note_on', channel=0, note=53, velocity=42, time=10),\n",
       "   Message('note_on', channel=0, note=58, velocity=0, time=8),\n",
       "   Message('note_on', channel=0, note=67, velocity=0, time=2),\n",
       "   Message('note_on', channel=0, note=57, velocity=43, time=0),\n",
       "   Message('note_on', channel=0, note=53, velocity=0, time=783),\n",
       "   Message('note_on', channel=0, note=57, velocity=0, time=8),\n",
       "   Message('note_on', channel=0, note=60, velocity=0, time=8),\n",
       "   Message('note_on', channel=0, note=65, velocity=0, time=80),\n",
       "   Message('note_on', channel=0, note=60, velocity=78, time=4727),\n",
       "   Message('note_on', channel=0, note=67, velocity=64, time=299),\n",
       "   Message('note_on', channel=0, note=60, velocity=0, time=57),\n",
       "   Message('note_on', channel=0, note=67, velocity=0, time=12),\n",
       "   Message('note_on', channel=0, note=64, velocity=67, time=192),\n",
       "   Message('note_on', channel=0, note=67, velocity=65, time=6),\n",
       "   Message('note_on', channel=0, note=60, velocity=53, time=1),\n",
       "   Message('note_on', channel=0, note=64, velocity=0, time=76),\n",
       "   Message('note_on', channel=0, note=67, velocity=0, time=0),\n",
       "   Message('note_on', channel=0, note=60, velocity=0, time=181),\n",
       "   Message('note_on', channel=0, note=57, velocity=73, time=5),\n",
       "   Message('note_on', channel=0, note=60, velocity=51, time=2),\n",
       "   Message('note_on', channel=0, note=60, velocity=0, time=148),\n",
       "   Message('note_on', channel=0, note=64, velocity=53, time=156),\n",
       "   Message('note_on', channel=0, note=67, velocity=60, time=0),\n",
       "   Message('note_on', channel=0, note=67, velocity=0, time=72),\n",
       "   Message('note_on', channel=0, note=64, velocity=0, time=28),\n",
       "   Message('note_on', channel=0, note=64, velocity=66, time=149),\n",
       "   Message('note_on', channel=0, note=67, velocity=68, time=7),\n",
       "   Message('note_on', channel=0, note=67, velocity=0, time=75),\n",
       "   Message('note_on', channel=0, note=57, velocity=0, time=0),\n",
       "   Message('note_on', channel=0, note=64, velocity=0, time=11),\n",
       "   Message('note_on', channel=0, note=59, velocity=78, time=173),\n",
       "   Message('note_on', channel=0, note=71, velocity=68, time=1),\n",
       "   Message('note_on', channel=0, note=67, velocity=63, time=270),\n",
       "   Message('note_on', channel=0, note=65, velocity=52, time=1),\n",
       "   Message('note_on', channel=0, note=65, velocity=0, time=112),\n",
       "   Message('note_on', channel=0, note=67, velocity=0, time=9),\n",
       "   Message('note_on', channel=0, note=59, velocity=0, time=164),\n",
       "   Message('note_on', channel=0, note=65, velocity=53, time=4),\n",
       "   Message('note_on', channel=0, note=67, velocity=61, time=0),\n",
       "   Message('note_on', channel=0, note=59, velocity=49, time=1),\n",
       "   Message('note_on', channel=0, note=67, velocity=0, time=68),\n",
       "   Message('note_on', channel=0, note=65, velocity=0, time=12),\n",
       "   Message('note_on', channel=0, note=65, velocity=56, time=506),\n",
       "   Message('note_on', channel=0, note=67, velocity=59, time=3),\n",
       "   Message('note_on', channel=0, note=67, velocity=0, time=90),\n",
       "   Message('note_on', channel=0, note=65, velocity=0, time=2),\n",
       "   Message('note_on', channel=0, note=71, velocity=0, time=128),\n",
       "   Message('note_on', channel=0, note=59, velocity=0, time=38),\n",
       "   Message('note_on', channel=0, note=67, velocity=69, time=4),\n",
       "   Message('note_on', channel=0, note=65, velocity=62, time=2),\n",
       "   Message('note_on', channel=0, note=59, velocity=53, time=0),\n",
       "   Message('note_on', channel=0, note=65, velocity=0, time=67),\n",
       "   Message('note_on', channel=0, note=67, velocity=0, time=7),\n",
       "   Message('note_on', channel=0, note=59, velocity=0, time=0),\n",
       "   Message('note_on', channel=0, note=59, velocity=88, time=178),\n",
       "   Message('note_on', channel=0, note=71, velocity=78, time=1),\n",
       "   Message('note_on', channel=0, note=67, velocity=62, time=278),\n",
       "   Message('note_on', channel=0, note=65, velocity=51, time=5),\n",
       "   Message('note_on', channel=0, note=67, velocity=0, time=68),\n",
       "   Message('note_on', channel=0, note=65, velocity=0, time=16),\n",
       "   Message('note_on', channel=0, note=59, velocity=0, time=173),\n",
       "   Message('note_on', channel=0, note=67, velocity=71, time=3),\n",
       "   Message('note_on', channel=0, note=65, velocity=65, time=0),\n",
       "   Message('note_on', channel=0, note=59, velocity=60, time=1),\n",
       "   Message('note_on', channel=0, note=65, velocity=0, time=45),\n",
       "   Message('note_on', channel=0, note=67, velocity=0, time=5),\n",
       "   Message('note_on', channel=0, note=55, velocity=75, time=202),\n",
       "   Message('note_on', channel=0, note=59, velocity=0, time=171),\n",
       "   Message('note_on', channel=0, note=67, velocity=70, time=89),\n",
       "   Message('note_on', channel=0, note=65, velocity=60, time=5),\n",
       "   Message('note_on', channel=0, note=65, velocity=0, time=111),\n",
       "   Message('note_on', channel=0, note=67, velocity=0, time=11),\n",
       "   Message('note_on', channel=0, note=55, velocity=0, time=132),\n",
       "   Message('note_on', channel=0, note=65, velocity=68, time=4),\n",
       "   Message('note_on', channel=0, note=55, velocity=54, time=7),\n",
       "   Message('note_on', channel=0, note=67, velocity=63, time=8),\n",
       "   Message('note_on', channel=0, note=67, velocity=0, time=57),\n",
       "   Message('note_on', channel=0, note=65, velocity=0, time=5),\n",
       "   Message('note_on', channel=0, note=57, velocity=72, time=154),\n",
       "   Message('note_on', channel=0, note=55, velocity=0, time=113),\n",
       "   Message('note_on', channel=0, note=67, velocity=65, time=155),\n",
       "   Message('note_on', channel=0, note=64, velocity=58, time=2),\n",
       "   Message('note_on', channel=0, note=64, velocity=0, time=119),\n",
       "   Message('note_on', channel=0, note=67, velocity=0, time=10),\n",
       "   Message('note_on', channel=0, note=71, velocity=0, time=12),\n",
       "   Message('note_on', channel=0, note=64, velocity=60, time=134),\n",
       "   Message('note_on', channel=0, note=67, velocity=57, time=7),\n",
       "   Message('note_on', channel=0, note=67, velocity=0, time=110),\n",
       "   Message('note_on', channel=0, note=64, velocity=0, time=27),\n",
       "   Message('note_on', channel=0, note=64, velocity=63, time=458),\n",
       "   Message('note_on', channel=0, note=67, velocity=56, time=23),\n",
       "   Message('note_on', channel=0, note=67, velocity=0, time=75),\n",
       "   Message('note_on', channel=0, note=64, velocity=0, time=4),\n",
       "   Message('note_on', channel=0, note=64, velocity=65, time=165),\n",
       "   Message('note_on', channel=0, note=76, velocity=54, time=15),\n",
       "   Message('note_on', channel=0, note=67, velocity=59, time=5),\n",
       "   Message('note_on', channel=0, note=57, velocity=0, time=32),\n",
       "   Message('note_on', channel=0, note=67, velocity=0, time=65),\n",
       "   Message('note_on', channel=0, note=64, velocity=0, time=29),\n",
       "   Message('note_on', channel=0, note=76, velocity=0, time=3),\n",
       "   Message('note_on', channel=0, note=57, velocity=81, time=109),\n",
       "   Message('note_on', channel=0, note=69, velocity=68, time=1),\n",
       "   Message('note_on', channel=0, note=61, velocity=61, time=277),\n",
       "   Message('note_on', channel=0, note=67, velocity=65, time=1),\n",
       "   Message('note_on', channel=0, note=79, velocity=60, time=4),\n",
       "   Message('note_on', channel=0, note=79, velocity=0, time=7),\n",
       "   Message('note_on', channel=0, note=67, velocity=0, time=97),\n",
       "   Message('note_on', channel=0, note=61, velocity=0, time=9),\n",
       "   Message('note_on', channel=0, note=61, velocity=59, time=133),\n",
       "   Message('note_on', channel=0, note=67, velocity=65, time=11),\n",
       "   Message('note_on', channel=0, note=79, velocity=62, time=0),\n",
       "   Message('note_on', channel=0, note=67, velocity=0, time=97),\n",
       "   Message('note_on', channel=0, note=61, velocity=0, time=0),\n",
       "   Message('note_on', channel=0, note=79, velocity=0, time=29),\n",
       "   Message('note_on', channel=0, note=69, velocity=0, time=39),\n",
       "   Message('note_on', channel=0, note=52, velocity=76, time=78),\n",
       "   Message('note_on', channel=0, note=57, velocity=0, time=60),\n",
       "   Message('control_change', channel=0, control=64, value=127, time=100),\n",
       "   Message('control_change', channel=0, control=64, value=0, time=5),\n",
       "   Message('control_change', channel=0, control=64, value=127, time=10),\n",
       "   Message('control_change', channel=0, control=64, value=0, time=54),\n",
       "   Message('note_on', channel=0, note=52, velocity=0, time=31),\n",
       "   Message('note_on', channel=0, note=79, velocity=64, time=4),\n",
       "   Message('note_on', channel=0, note=67, velocity=67, time=1),\n",
       "   Message('note_on', channel=0, note=61, velocity=60, time=4),\n",
       "   Message('note_on', channel=0, note=52, velocity=56, time=1),\n",
       "   Message('note_on', channel=0, note=79, velocity=0, time=66),\n",
       "   Message('note_on', channel=0, note=67, velocity=0, time=28),\n",
       "   Message('note_on', channel=0, note=61, velocity=0, time=5),\n",
       "   Message('note_on', channel=0, note=61, velocity=65, time=148),\n",
       "   Message('note_on', channel=0, note=73, velocity=60, time=0),\n",
       "   Message('note_on', channel=0, note=61, velocity=0, time=75),\n",
       "   Message('note_on', channel=0, note=52, velocity=0, time=6),\n",
       "   Message('note_on', channel=0, note=52, velocity=39, time=4),\n",
       "   Message('note_on', channel=0, note=73, velocity=0, time=103),\n",
       "   Message('note_on', channel=0, note=50, velocity=62, time=55),\n",
       "   Message('note_on', channel=0, note=62, velocity=55, time=1),\n",
       "   Message('note_on', channel=0, note=52, velocity=0, time=87),\n",
       "   Message('note_on', channel=0, note=62, velocity=0, time=157),\n",
       "   Message('note_on', channel=0, note=65, velocity=71, time=3),\n",
       "   Message('note_on', channel=0, note=62, velocity=66, time=3),\n",
       "   Message('note_on', channel=0, note=52, velocity=71, time=5),\n",
       "   Message('note_on', channel=0, note=50, velocity=0, time=38),\n",
       "   Message('note_on', channel=0, note=62, velocity=0, time=58),\n",
       "   Message('note_on', channel=0, note=65, velocity=0, time=34),\n",
       "   Message('note_on', channel=0, note=53, velocity=79, time=106),\n",
       "   Message('note_on', channel=0, note=65, velocity=66, time=21),\n",
       "   Message('note_on', channel=0, note=62, velocity=64, time=8),\n",
       "   Message('note_on', channel=0, note=52, velocity=0, time=17),\n",
       "   Message('note_on', channel=0, note=65, velocity=0, time=116),\n",
       "   Message('note_on', channel=0, note=62, velocity=0, time=9),\n",
       "   Message('note_on', channel=0, note=57, velocity=70, time=98),\n",
       "   Message('note_on', channel=0, note=53, velocity=0, time=61),\n",
       "   Message('note_on', channel=0, note=65, velocity=56, time=187),\n",
       "   Message('note_on', channel=0, note=62, velocity=46, time=21),\n",
       "   Message('note_on', channel=0, note=65, velocity=0, time=71),\n",
       "   Message('note_on', channel=0, note=62, velocity=0, time=54),\n",
       "   Message('note_on', channel=0, note=65, velocity=62, time=109),\n",
       "   Message('note_on', channel=0, note=62, velocity=54, time=11),\n",
       "   Message('note_on', channel=0, note=57, velocity=0, time=56),\n",
       "   Message('note_on', channel=0, note=65, velocity=0, time=44),\n",
       "   Message('note_on', channel=0, note=62, velocity=0, time=1),\n",
       "   Message('note_on', channel=0, note=57, velocity=79, time=157),\n",
       "   Message('note_on', channel=0, note=57, velocity=0, time=240),\n",
       "   Message('note_on', channel=0, note=66, velocity=64, time=5),\n",
       "   Message('note_on', channel=0, note=60, velocity=59, time=5),\n",
       "   Message('note_on', channel=0, note=57, velocity=46, time=1),\n",
       "   Message('note_on', channel=0, note=66, velocity=0, time=124),\n",
       "   Message('note_on', channel=0, note=60, velocity=0, time=3),\n",
       "   Message('note_on', channel=0, note=66, velocity=66, time=141),\n",
       "   Message('note_on', channel=0, note=60, velocity=68, time=2),\n",
       "   Message('note_on', channel=0, note=60, velocity=0, time=67),\n",
       "   Message('note_on', channel=0, note=66, velocity=0, time=6),\n",
       "   Message('note_on', channel=0, note=62, velocity=74, time=180),\n",
       "   Message('note_on', channel=0, note=74, velocity=69, time=0),\n",
       "   Message('note_on', channel=0, note=74, velocity=0, time=11),\n",
       "   Message('note_on', channel=0, note=57, velocity=0, time=77),\n",
       "   Message('note_on', channel=0, note=72, velocity=61, time=158),\n",
       "   Message('note_on', channel=0, note=60, velocity=64, time=1),\n",
       "   Message('note_on', channel=0, note=66, velocity=65, time=3),\n",
       "   Message('note_on', channel=0, note=66, velocity=0, time=90),\n",
       "   Message('note_on', channel=0, note=60, velocity=0, time=5),\n",
       "   Message('note_on', channel=0, note=62, velocity=0, time=181),\n",
       "   Message('note_on', channel=0, note=60, velocity=65, time=3),\n",
       "   Message('note_on', channel=0, note=62, velocity=48, time=1),\n",
       "   Message('note_on', channel=0, note=66, velocity=62, time=0),\n",
       "   Message('note_on', channel=0, note=66, velocity=0, time=85),\n",
       "   Message('note_on', channel=0, note=72, velocity=0, time=18),\n",
       "   Message('note_on', channel=0, note=60, velocity=0, time=3),\n",
       "   Message('note_on', channel=0, note=62, velocity=0, time=21),\n",
       "   Message('note_on', channel=0, note=62, velocity=56, time=117),\n",
       "   Message('note_on', channel=0, note=65, velocity=60, time=272),\n",
       "   Message('note_on', channel=0, note=59, velocity=70, time=5),\n",
       "   Message('note_on', channel=0, note=67, velocity=60, time=2),\n",
       "   Message('note_on', channel=0, note=67, velocity=0, time=83),\n",
       "   Message('note_on', channel=0, note=62, velocity=0, time=33),\n",
       "   Message('note_on', channel=0, note=65, velocity=0, time=12),\n",
       "   Message('note_on', channel=0, note=57, velocity=72, time=106),\n",
       "   Message('note_on', channel=0, note=59, velocity=0, time=7),\n",
       "   Message('note_on', channel=0, note=59, velocity=64, time=4),\n",
       "   Message('note_on', channel=0, note=79, velocity=58, time=8),\n",
       "   Message('note_on', channel=0, note=65, velocity=58, time=2),\n",
       "   Message('note_on', channel=0, note=67, velocity=67, time=4),\n",
       "   Message('note_on', channel=0, note=79, velocity=0, time=5),\n",
       "   Message('note_on', channel=0, note=59, velocity=0, time=42),\n",
       "   Message('note_on', channel=0, note=67, velocity=0, time=62),\n",
       "   Message('note_on', channel=0, note=65, velocity=0, time=13),\n",
       "   Message('note_on', channel=0, note=55, velocity=73, time=114),\n",
       "   Message('note_on', channel=0, note=67, velocity=58, time=0),\n",
       "   Message('note_on', channel=0, note=57, velocity=0, time=81),\n",
       "   Message('note_on', channel=0, note=57, velocity=72, time=169),\n",
       "   Message('note_on', channel=0, note=77, velocity=60, time=17),\n",
       "   Message('note_on', channel=0, note=67, velocity=0, time=1),\n",
       "   Message('note_on', channel=0, note=65, velocity=60, time=4),\n",
       "   Message('note_on', channel=0, note=67, velocity=66, time=3),\n",
       "   Message('note_on', channel=0, note=77, velocity=0, time=1),\n",
       "   Message('note_on', channel=0, note=55, velocity=0, time=73),\n",
       "   Message('note_on', channel=0, note=67, velocity=0, time=31),\n",
       "   Message('note_on', channel=0, note=65, velocity=0, time=19),\n",
       "   Message('note_on', channel=0, note=59, velocity=84, time=98),\n",
       "   Message('note_on', channel=0, note=65, velocity=55, time=36),\n",
       "   Message('note_on', channel=0, note=67, velocity=68, time=0),\n",
       "   Message('note_on', channel=0, note=57, velocity=0, time=39),\n",
       "   Message('note_on', channel=0, note=65, velocity=0, time=52),\n",
       "   Message('note_on', channel=0, note=67, velocity=0, time=1),\n",
       "   Message('note_on', channel=0, note=72, velocity=72, time=139),\n",
       "   Message('note_on', channel=0, note=60, velocity=77, time=1),\n",
       "   Message('note_on', channel=0, note=59, velocity=0, time=82),\n",
       "   Message('note_on', channel=0, note=67, velocity=60, time=192),\n",
       "   Message('note_on', channel=0, note=64, velocity=37, time=24),\n",
       "   Message('note_on', channel=0, note=67, velocity=0, time=54),\n",
       "   Message('note_on', channel=0, note=64, velocity=0, time=8),\n",
       "   Message('note_on', channel=0, note=67, velocity=63, time=161),\n",
       "   Message('note_on', channel=0, note=64, velocity=60, time=0),\n",
       "   Message('note_on', channel=0, note=64, velocity=0, time=85),\n",
       "   Message('note_on', channel=0, note=67, velocity=0, time=5),\n",
       "   Message('note_on', channel=0, note=60, velocity=0, time=167),\n",
       "   Message('note_on', channel=0, note=60, velocity=56, time=5),\n",
       "   Message('note_on', channel=0, note=57, velocity=71, time=1),\n",
       "   Message('note_on', channel=0, note=60, velocity=0, time=101),\n",
       "   Message('note_on', channel=0, note=72, velocity=0, time=162),\n",
       "   Message('note_on', channel=0, note=64, velocity=47, time=11),\n",
       "   Message('note_on', channel=0, note=67, velocity=53, time=1),\n",
       "   Message('note_on', channel=0, note=67, velocity=0, time=68),\n",
       "   Message('note_on', channel=0, note=64, velocity=0, time=14),\n",
       "   Message('note_on', channel=0, note=64, velocity=60, time=156),\n",
       "   Message('note_on', channel=0, note=67, velocity=57, time=6),\n",
       "   Message('note_on', channel=0, note=57, velocity=0, time=55),\n",
       "   Message('note_on', channel=0, note=67, velocity=0, time=6),\n",
       "   Message('note_on', channel=0, note=64, velocity=0, time=1),\n",
       "   Message('note_on', channel=0, note=59, velocity=76, time=199),\n",
       "   Message('note_on', channel=0, note=71, velocity=66, time=1),\n",
       "   Message('note_on', channel=0, note=65, velocity=56, time=254),\n",
       "   Message('note_on', channel=0, note=67, velocity=60, time=1),\n",
       "   Message('note_on', channel=0, note=65, velocity=0, time=84),\n",
       "   Message('note_on', channel=0, note=67, velocity=0, time=1),\n",
       "   Message('note_on', channel=0, note=65, velocity=53, time=197),\n",
       "   Message('note_on', channel=0, note=67, velocity=59, time=0),\n",
       "   Message('note_on', channel=0, note=67, velocity=0, time=67),\n",
       "   Message('note_on', channel=0, note=65, velocity=0, time=16),\n",
       "   Message('note_on', channel=0, note=67, velocity=60, time=496),\n",
       "   Message('note_on', channel=0, note=65, velocity=53, time=5),\n",
       "   Message('note_on', channel=0, note=67, velocity=0, time=85),\n",
       "   Message('note_on', channel=0, note=65, velocity=0, time=7),\n",
       "   Message('note_on', channel=0, note=65, velocity=55, time=162),\n",
       "   Message('note_on', channel=0, note=67, velocity=55, time=9),\n",
       "   Message('note_on', channel=0, note=67, velocity=0, time=67),\n",
       "   Message('note_on', channel=0, note=65, velocity=0, time=2),\n",
       "   Message('note_on', channel=0, note=71, velocity=0, time=12),\n",
       "   Message('note_on', channel=0, note=59, velocity=0, time=3),\n",
       "   Message('note_on', channel=0, note=59, velocity=82, time=155),\n",
       "   Message('note_on', channel=0, note=71, velocity=72, time=3),\n",
       "   Message('note_on', channel=0, note=67, velocity=63, time=261),\n",
       "   Message('note_on', channel=0, note=65, velocity=57, time=1),\n",
       "   Message('note_on', channel=0, note=77, velocity=54, time=4),\n",
       "   Message('note_on', channel=0, note=77, velocity=0, time=9),\n",
       "   Message('note_on', channel=0, note=67, velocity=0, time=56),\n",
       "   Message('note_on', channel=0, note=65, velocity=0, time=1),\n",
       "   Message('note_on', channel=0, note=65, velocity=67, time=186),\n",
       "   Message('note_on', channel=0, note=77, velocity=62, time=2),\n",
       "   Message('note_on', channel=0, note=67, velocity=64, time=5),\n",
       "   Message('note_on', channel=0, note=67, velocity=0, time=53),\n",
       "   Message('note_on', channel=0, note=65, velocity=0, time=5),\n",
       "   Message('note_on', channel=0, note=77, velocity=0, time=14),\n",
       "   Message('note_on', channel=0, note=55, velocity=75, time=185),\n",
       "   Message('note_on', channel=0, note=59, velocity=0, time=125),\n",
       "   Message('note_on', channel=0, note=79, velocity=58, time=120),\n",
       "   Message('note_on', channel=0, note=67, velocity=64, time=4),\n",
       "   Message('note_on', channel=0, note=79, velocity=0, time=4),\n",
       "   Message('note_on', channel=0, note=65, velocity=56, time=1),\n",
       "   Message('note_on', channel=0, note=67, velocity=0, time=96),\n",
       "   Message('note_on', channel=0, note=65, velocity=0, time=8),\n",
       "   Message('note_on', channel=0, note=65, velocity=65, time=168),\n",
       "   Message('note_on', channel=0, note=67, velocity=69, time=1),\n",
       "   Message('note_on', channel=0, note=79, velocity=60, time=0),\n",
       "   Message('note_on', channel=0, note=77, velocity=63, time=3),\n",
       "   Message('note_on', channel=0, note=79, velocity=0, time=7),\n",
       "   Message('note_on', channel=0, note=67, velocity=0, time=52),\n",
       "   Message('note_on', channel=0, note=65, velocity=0, time=0),\n",
       "   Message('note_on', channel=0, note=77, velocity=0, time=10),\n",
       "   Message('note_on', channel=0, note=57, velocity=72, time=152),\n",
       "   Message('note_on', channel=0, note=71, velocity=0, time=40),\n",
       "   Message('note_on', channel=0, note=55, velocity=0, time=60),\n",
       "   Message('note_on', channel=0, note=67, velocity=65, time=169),\n",
       "   Message('note_on', channel=0, note=64, velocity=61, time=3),\n",
       "   Message('note_on', channel=0, note=64, velocity=0, time=91),\n",
       "   Message('note_on', channel=0, note=67, velocity=0, time=36),\n",
       "   Message('note_on', channel=0, note=64, velocity=63, time=129),\n",
       "   Message('note_on', channel=0, note=67, velocity=57, time=6),\n",
       "   Message('note_on', channel=0, note=79, velocity=53, time=1),\n",
       "   Message('note_on', channel=0, note=67, velocity=0, time=62),\n",
       "   Message('note_on', channel=0, note=64, velocity=0, time=1),\n",
       "   Message('note_on', channel=0, note=79, velocity=0, time=10),\n",
       "   Message('note_on', channel=0, note=64, velocity=57, time=498),\n",
       "   Message('note_on', channel=0, note=67, velocity=58, time=4),\n",
       "   Message('note_on', channel=0, note=67, velocity=0, time=81),\n",
       "   Message('note_on', channel=0, note=64, velocity=0, time=14),\n",
       "   Message('note_on', channel=0, note=64, velocity=62, time=154),\n",
       "   Message('note_on', channel=0, note=76, velocity=52, time=11),\n",
       "   Message('note_on', channel=0, note=79, velocity=52, time=2),\n",
       "   Message('note_on', channel=0, note=67, velocity=57, time=1),\n",
       "   Message('note_on', channel=0, note=76, velocity=0, time=3),\n",
       "   Message('note_on', channel=0, note=79, velocity=0, time=8),\n",
       "   Message('note_on', channel=0, note=57, velocity=0, time=4),\n",
       "   Message('note_on', channel=0, note=67, velocity=0, time=77),\n",
       "   Message('note_on', channel=0, note=64, velocity=0, time=12),\n",
       "   Message('note_on', channel=0, note=57, velocity=81, time=139),\n",
       "   Message('note_on', channel=0, note=69, velocity=67, time=2),\n",
       "   Message('note_on', channel=0, note=61, velocity=56, time=242),\n",
       "   Message('note_on', channel=0, note=67, velocity=59, time=13),\n",
       "   Message('note_on', channel=0, note=79, velocity=56, time=0),\n",
       "   Message('note_on', channel=0, note=61, velocity=0, time=88),\n",
       "   Message('note_on', channel=0, note=67, velocity=0, time=2),\n",
       "   Message('note_on', channel=0, note=79, velocity=0, time=4),\n",
       "   Message('note_on', channel=0, note=61, velocity=59, time=141),\n",
       "   Message('note_on', channel=0, note=67, velocity=58, time=18),\n",
       "   Message('note_on', channel=0, note=79, velocity=57, time=0),\n",
       "   Message('note_on', channel=0, note=57, velocity=0, time=39),\n",
       "   Message('note_on', channel=0, note=61, velocity=0, time=16),\n",
       "   Message('note_on', channel=0, note=67, velocity=0, time=10),\n",
       "   Message('note_on', channel=0, note=79, velocity=0, time=61),\n",
       "   Message('note_on', channel=0, note=69, velocity=0, time=23),\n",
       "   Message('note_on', channel=0, note=52, velocity=77, time=80),\n",
       "   Message('note_on', channel=0, note=64, velocity=62, time=1),\n",
       "   Message('note_on', channel=0, note=64, velocity=0, time=42),\n",
       "   Message('note_on', channel=0, note=52, velocity=0, time=7),\n",
       "   Message('control_change', channel=0, control=64, value=127, time=85),\n",
       "   Message('control_change', channel=0, control=64, value=0, time=48),\n",
       "   Message('control_change', channel=0, control=64, value=127, time=5),\n",
       "   Message('control_change', channel=0, control=64, value=0, time=39),\n",
       "   Message('note_on', channel=0, note=61, velocity=58, time=3),\n",
       "   Message('note_on', channel=0, note=52, velocity=53, time=11),\n",
       "   Message('note_on', channel=0, note=79, velocity=62, time=1),\n",
       "   Message('note_on', channel=0, note=67, velocity=61, time=5),\n",
       "   Message('note_on', channel=0, note=67, velocity=0, time=108),\n",
       "   Message('note_on', channel=0, note=79, velocity=0, time=2),\n",
       "   Message('note_on', channel=0, note=61, velocity=0, time=3),\n",
       "   Message('note_on', channel=0, note=61, velocity=61, time=143),\n",
       "   Message('note_on', channel=0, note=52, velocity=0, time=0),\n",
       "   Message('note_on', channel=0, note=52, velocity=53, time=10),\n",
       "   Message('note_on', channel=0, note=79, velocity=58, time=3),\n",
       "   Message('note_on', channel=0, note=67, velocity=59, time=5),\n",
       "   Message('note_on', channel=0, note=79, velocity=0, time=44),\n",
       "   Message('note_on', channel=0, note=67, velocity=0, time=17),\n",
       "   Message('note_on', channel=0, note=61, velocity=0, time=4),\n",
       "   Message('note_on', channel=0, note=62, velocity=58, time=173),\n",
       "   Message('note_on', channel=0, note=50, velocity=66, time=1),\n",
       "   Message('note_on', channel=0, note=52, velocity=0, time=47),\n",
       "   Message('note_on', channel=0, note=52, velocity=80, time=199),\n",
       "   Message('note_on', channel=0, note=64, velocity=69, time=2),\n",
       "   Message('note_on', channel=0, note=65, velocity=73, time=2),\n",
       "   Message('note_on', channel=0, note=77, velocity=70, time=2),\n",
       "   Message('note_on', channel=0, note=64, velocity=0, time=6),\n",
       "   Message('note_on', channel=0, note=77, velocity=0, time=0),\n",
       "   Message('note_on', channel=0, note=50, velocity=0, time=41),\n",
       "   Message('note_on', channel=0, note=62, velocity=0, time=66),\n",
       "   Message('note_on', channel=0, note=65, velocity=0, time=14),\n",
       "   Message('note_on', channel=0, note=53, velocity=82, time=115),\n",
       "   Message('note_on', channel=0, note=65, velocity=61, time=23),\n",
       "   Message('note_on', channel=0, note=62, velocity=48, time=14),\n",
       "   Message('note_on', channel=0, note=52, velocity=0, time=0),\n",
       "   Message('note_on', channel=0, note=65, velocity=0, time=73),\n",
       "   Message('note_on', channel=0, note=53, velocity=0, time=26),\n",
       "   Message('note_on', channel=0, note=62, velocity=0, time=4),\n",
       "   Message('note_on', channel=0, note=53, velocity=78, time=118),\n",
       "   Message('control_change', channel=0, control=64, value=127, time=59),\n",
       "   Message('note_on', channel=0, note=55, velocity=83, time=198),\n",
       "   Message('note_on', channel=0, note=65, velocity=71, time=7),\n",
       "   Message('note_on', channel=0, note=62, velocity=61, time=0),\n",
       "   Message('control_change', channel=0, control=64, value=0, time=3),\n",
       "   Message('note_on', channel=0, note=53, velocity=0, time=30),\n",
       "   Message('note_on', channel=0, note=65, velocity=0, time=101),\n",
       "   Message('note_on', channel=0, note=62, velocity=0, time=3),\n",
       "   Message('note_on', channel=0, note=65, velocity=73, time=108),\n",
       "   Message('note_on', channel=0, note=55, velocity=0, time=3),\n",
       "   Message('note_on', channel=0, note=55, velocity=64, time=5),\n",
       "   Message('note_on', channel=0, note=57, velocity=77, time=0),\n",
       "   Message('note_on', channel=0, note=62, velocity=61, time=10),\n",
       "   Message('note_on', channel=0, note=55, velocity=0, time=55),\n",
       "   Message('note_on', channel=0, note=62, velocity=0, time=39),\n",
       "   Message('note_on', channel=0, note=65, velocity=0, time=7),\n",
       "   Message('note_on', channel=0, note=64, velocity=92, time=173),\n",
       "   Message('note_on', channel=0, note=57, velocity=0, time=55),\n",
       "   Message('note_on', channel=0, note=67, velocity=64, time=212),\n",
       "   Message('note_on', channel=0, note=65, velocity=39, time=25),\n",
       "   Message('note_on', channel=0, note=67, velocity=0, time=40),\n",
       "   Message('note_on', channel=0, note=65, velocity=0, time=8),\n",
       "   Message('note_on', channel=0, note=67, velocity=65, time=185),\n",
       "   Message('note_on', channel=0, note=65, velocity=46, time=26),\n",
       "   Message('note_on', channel=0, note=67, velocity=0, time=24),\n",
       "   Message('note_on', channel=0, note=65, velocity=0, time=11),\n",
       "   Message('note_on', channel=0, note=62, velocity=73, time=199),\n",
       "   Message('note_on', channel=0, note=64, velocity=0, time=145),\n",
       "   Message('note_on', channel=0, note=67, velocity=60, time=112),\n",
       "   Message('note_on', channel=0, note=65, velocity=39, time=34),\n",
       "   Message('note_on', channel=0, note=65, velocity=0, time=69),\n",
       "   Message('note_on', channel=0, note=67, velocity=0, time=6),\n",
       "   Message('note_on', channel=0, note=67, velocity=64, time=180),\n",
       "   Message('note_on', channel=0, note=65, velocity=55, time=1),\n",
       "   Message('note_on', channel=0, note=55, velocity=41, time=4),\n",
       "   Message('note_on', channel=0, note=55, velocity=0, time=11),\n",
       "   Message('note_on', channel=0, note=67, velocity=0, time=53),\n",
       "   Message('note_on', channel=0, note=65, velocity=0, time=11),\n",
       "   Message('note_on', channel=0, note=60, velocity=65, time=177),\n",
       "   Message('note_on', channel=0, note=72, velocity=57, time=2),\n",
       "   Message('control_change', channel=0, control=64, value=127, time=110),\n",
       "   Message('control_change', channel=0, control=64, value=0, time=46),\n",
       "   Message('note_on', channel=0, note=62, velocity=0, time=12),\n",
       "   Message('note_on', channel=0, note=67, velocity=51, time=151),\n",
       "   Message('note_on', channel=0, note=64, velocity=43, time=5),\n",
       "   Message('note_on', channel=0, note=67, velocity=0, time=90),\n",
       "   Message('note_on', channel=0, note=64, velocity=0, time=1),\n",
       "   Message('note_on', channel=0, note=60, velocity=0, time=202),\n",
       "   Message('note_on', channel=0, note=67, velocity=59, time=5),\n",
       "   Message('note_on', channel=0, note=60, velocity=38, time=3),\n",
       "   Message('note_on', channel=0, note=64, velocity=50, time=3),\n",
       "   Message('note_on', channel=0, note=64, velocity=0, time=96),\n",
       "   Message('note_on', channel=0, note=67, velocity=0, time=3),\n",
       "   Message('note_on', channel=0, note=67, velocity=53, time=333),\n",
       "   Message('note_on', channel=0, note=64, velocity=37, time=3),\n",
       "   Message('control_change', channel=0, control=64, value=127, time=975),\n",
       "   Message('note_on', channel=0, note=64, velocity=0, time=34),\n",
       "   Message('note_on', channel=0, note=60, velocity=0, time=0),\n",
       "   Message('note_on', channel=0, note=72, velocity=0, time=1),\n",
       "   Message('note_on', channel=0, note=67, velocity=0, time=1),\n",
       "   Message('control_change', channel=0, control=64, value=0, time=0),\n",
       "   Message('note_on', channel=0, note=55, velocity=82, time=4936),\n",
       "   Message('note_on', channel=0, note=59, velocity=86, time=247),\n",
       "   Message('note_on', channel=0, note=55, velocity=0, time=104),\n",
       "   Message('note_on', channel=0, note=59, velocity=0, time=137),\n",
       "   Message('note_on', channel=0, note=59, velocity=67, time=6),\n",
       "   Message('note_on', channel=0, note=62, velocity=78, time=0),\n",
       "   Message('note_on', channel=0, note=59, velocity=0, time=114),\n",
       "   Message('note_on', channel=0, note=79, velocity=75, time=128),\n",
       "   Message('note_on', channel=0, note=67, velocity=85, time=1),\n",
       "   Message('note_on', channel=0, note=79, velocity=0, time=51),\n",
       "   Message('note_on', channel=0, note=62, velocity=0, time=84),\n",
       "   Message('note_on', channel=0, note=71, velocity=91, time=106),\n",
       "   Message('note_on', channel=0, note=67, velocity=0, time=76),\n",
       "   Message('note_on', channel=0, note=74, velocity=92, time=170),\n",
       "   Message('note_on', channel=0, note=71, velocity=0, time=84),\n",
       "   Message('note_on', channel=0, note=62, velocity=71, time=160),\n",
       "   Message('note_on', channel=0, note=59, velocity=76, time=5),\n",
       "   Message('note_on', channel=0, note=55, velocity=67, time=2),\n",
       "   Message('control_change', channel=0, control=64, value=127, time=219),\n",
       "   Message('note_on', channel=0, note=74, velocity=0, time=622),\n",
       "   Message('note_on', channel=0, note=74, velocity=85, time=4),\n",
       "   Message('note_on', channel=0, note=67, velocity=82, time=1),\n",
       "   Message('note_on', channel=0, note=71, velocity=84, time=1),\n",
       "   Message('control_change', channel=0, control=64, value=0, time=15),\n",
       "   Message('note_on', channel=0, note=59, velocity=0, time=84),\n",
       "   Message('note_on', channel=0, note=55, velocity=0, time=18),\n",
       "   Message('note_on', channel=0, note=62, velocity=0, time=8),\n",
       "   Message('control_change', channel=0, control=64, value=127, time=153),\n",
       "   Message('note_on', channel=0, note=55, velocity=78, time=548),\n",
       "   Message('control_change', channel=0, control=64, value=0, time=88),\n",
       "   Message('note_on', channel=0, note=74, velocity=0, time=3),\n",
       "   Message('note_on', channel=0, note=67, velocity=0, time=2),\n",
       "   Message('note_on', channel=0, note=71, velocity=0, time=2),\n",
       "   Message('note_on', channel=0, note=60, velocity=77, time=145),\n",
       "   Message('note_on', channel=0, note=55, velocity=0, time=116),\n",
       "   Message('note_on', channel=0, note=64, velocity=71, time=110),\n",
       "   Message('note_on', channel=0, note=60, velocity=0, time=146),\n",
       "   Message('note_on', channel=0, note=79, velocity=74, time=95),\n",
       "   Message('note_on', channel=0, note=67, velocity=83, time=1),\n",
       "   Message('note_on', channel=0, note=64, velocity=0, time=101),\n",
       "   Message('note_on', channel=0, note=72, velocity=86, time=128),\n",
       "   Message('note_on', channel=0, note=79, velocity=0, time=51),\n",
       "   Message('note_on', channel=0, note=67, velocity=0, time=58),\n",
       "   Message('note_on', channel=0, note=76, velocity=85, time=124),\n",
       "   Message('note_on', channel=0, note=72, velocity=0, time=114),\n",
       "   Message('note_on', channel=0, note=64, velocity=74, time=120),\n",
       "   Message('note_on', channel=0, note=60, velocity=70, time=3),\n",
       "   Message('note_on', channel=0, note=55, velocity=68, time=6),\n",
       "   Message('control_change', channel=0, control=64, value=127, time=266),\n",
       "   Message('note_on', channel=0, note=60, velocity=0, time=546),\n",
       "   Message('note_on', channel=0, note=76, velocity=0, time=0),\n",
       "   Message('note_on', channel=0, note=76, velocity=84, time=6),\n",
       "   Message('note_on', channel=0, note=60, velocity=59, time=1),\n",
       "   Message('note_on', channel=0, note=67, velocity=75, time=2),\n",
       "   Message('note_on', channel=0, note=72, velocity=78, time=1),\n",
       "   Message('control_change', channel=0, control=64, value=0, time=82),\n",
       "   Message('note_on', channel=0, note=55, velocity=0, time=2),\n",
       "   Message('note_on', channel=0, note=60, velocity=0, time=7),\n",
       "   Message('control_change', channel=0, control=64, value=127, time=98),\n",
       "   Message('note_on', channel=0, note=64, velocity=0, time=46),\n",
       "   Message('note_on', channel=0, note=54, velocity=73, time=565),\n",
       "   Message('note_on', channel=0, note=76, velocity=0, time=71),\n",
       "   Message('control_change', channel=0, control=64, value=0, time=3),\n",
       "   Message('note_on', channel=0, note=67, velocity=0, time=24),\n",
       "   Message('note_on', channel=0, note=72, velocity=0, time=4),\n",
       "   Message('note_on', channel=0, note=60, velocity=75, time=135),\n",
       "   Message('note_on', channel=0, note=54, velocity=0, time=131),\n",
       "   Message('note_on', channel=0, note=62, velocity=68, time=106),\n",
       "   Message('note_on', channel=0, note=60, velocity=0, time=37),\n",
       "   Message('note_on', channel=0, note=60, velocity=35, time=4),\n",
       "   Message('note_on', channel=0, note=60, velocity=0, time=61),\n",
       "   Message('note_on', channel=0, note=66, velocity=77, time=118),\n",
       "   Message('note_on', channel=0, note=62, velocity=0, time=138),\n",
       "   Message('note_on', channel=0, note=72, velocity=82, time=116),\n",
       "   Message('note_on', channel=0, note=66, velocity=0, time=125),\n",
       "   Message('note_on', channel=0, note=74, velocity=84, time=108),\n",
       "   Message('note_on', channel=0, note=72, velocity=0, time=69),\n",
       "   Message('note_on', channel=0, note=74, velocity=0, time=159),\n",
       "   Message('note_on', channel=0, note=74, velocity=68, time=11),\n",
       "   Message('note_on', channel=0, note=72, velocity=68, time=4),\n",
       "   Message('note_on', channel=0, note=62, velocity=71, time=1),\n",
       "   Message('note_on', channel=0, note=60, velocity=72, time=4),\n",
       "   Message('note_on', channel=0, note=54, velocity=67, time=1),\n",
       "   Message('note_on', channel=0, note=50, velocity=54, time=2),\n",
       "   Message('control_change', channel=0, control=64, value=127, time=108),\n",
       "   Message('note_on', channel=0, note=72, velocity=0, time=683),\n",
       "   Message('note_on', channel=0, note=74, velocity=0, time=0),\n",
       "   Message('note_on', channel=0, note=66, velocity=79, time=7),\n",
       "   Message('note_on', channel=0, note=74, velocity=82, time=3),\n",
       "   Message('note_on', channel=0, note=72, velocity=80, time=1),\n",
       "   Message('control_change', channel=0, control=64, value=0, time=77),\n",
       "   Message('note_on', channel=0, note=60, velocity=0, time=7),\n",
       "   Message('note_on', channel=0, note=54, velocity=0, time=1),\n",
       "   Message('note_on', channel=0, note=50, velocity=0, time=66),\n",
       "   Message('control_change', channel=0, control=64, value=127, time=92),\n",
       "   Message('note_on', channel=0, note=62, velocity=0, time=69),\n",
       "   Message('note_on', channel=0, note=55, velocity=70, time=472),\n",
       "   Message('control_change', channel=0, control=64, value=0, time=70),\n",
       "   Message('note_on', channel=0, note=72, velocity=0, time=6),\n",
       "   Message('note_on', channel=0, note=74, velocity=0, time=0),\n",
       "   Message('note_on', channel=0, note=66, velocity=0, time=24),\n",
       "   Message('control_change', channel=0, control=64, value=127, time=73),\n",
       "   Message('note_on', channel=0, note=59, velocity=82, time=52),\n",
       "   Message('control_change', channel=0, control=64, value=0, time=17),\n",
       "   Message('note_on', channel=0, note=55, velocity=0, time=134),\n",
       "   Message('note_on', channel=0, note=62, velocity=74, time=71),\n",
       "   Message('note_on', channel=0, note=59, velocity=0, time=112),\n",
       "   Message('note_on', channel=0, note=79, velocity=72, time=125),\n",
       "   Message('note_on', channel=0, note=67, velocity=81, time=0),\n",
       "   Message('note_on', channel=0, note=62, velocity=0, time=118),\n",
       "   Message('note_on', channel=0, note=79, velocity=0, time=62),\n",
       "   Message('note_on', channel=0, note=71, velocity=89, time=65),\n",
       "   Message('note_on', channel=0, note=67, velocity=0, time=85),\n",
       "   Message('note_on', channel=0, note=74, velocity=87, time=144),\n",
       "   Message('note_on', channel=0, note=71, velocity=0, time=64),\n",
       "   Message('note_on', channel=0, note=79, velocity=79, time=194),\n",
       "   Message('note_on', channel=0, note=74, velocity=0, time=1),\n",
       "   Message('note_on', channel=0, note=67, velocity=87, time=3),\n",
       "   Message('note_on', channel=0, note=59, velocity=75, time=0),\n",
       "   Message('note_on', channel=0, note=55, velocity=66, time=1),\n",
       "   Message('note_on', channel=0, note=74, velocity=67, time=0),\n",
       "   Message('note_on', channel=0, note=50, velocity=61, time=1),\n",
       "   Message('note_on', channel=0, note=71, velocity=69, time=0),\n",
       "   Message('note_on', channel=0, note=62, velocity=67, time=0),\n",
       "   Message('note_on', channel=0, note=47, velocity=63, time=1),\n",
       "   Message('control_change', channel=0, control=64, value=127, time=225),\n",
       "   Message('note_on', channel=0, note=47, velocity=0, time=15),\n",
       "   Message('note_on', channel=0, note=79, velocity=0, time=1152),\n",
       "   Message('note_on', channel=0, note=50, velocity=0, time=31),\n",
       "   Message('control_change', channel=0, control=64, value=0, time=70),\n",
       "   Message('note_on', channel=0, note=55, velocity=0, time=4),\n",
       "   Message('note_on', channel=0, note=71, velocity=0, time=10),\n",
       "   Message('note_on', channel=0, note=74, velocity=0, time=0),\n",
       "   Message('note_on', channel=0, note=62, velocity=0, time=11),\n",
       "   Message('note_on', channel=0, note=67, velocity=0, time=5),\n",
       "   Message('note_on', channel=0, note=59, velocity=0, time=3),\n",
       "   Message('note_on', channel=0, note=74, velocity=92, time=2183),\n",
       "   Message('note_on', channel=0, note=72, velocity=83, time=142),\n",
       "   Message('note_on', channel=0, note=74, velocity=0, time=70),\n",
       "   Message('note_on', channel=0, note=71, velocity=86, time=75),\n",
       "   Message('note_on', channel=0, note=72, velocity=0, time=32),\n",
       "   Message('note_on', channel=0, note=69, velocity=78, time=102),\n",
       "   Message('note_on', channel=0, note=71, velocity=0, time=90),\n",
       "   Message('note_on', channel=0, note=55, velocity=62, time=56),\n",
       "   Message('note_on', channel=0, note=62, velocity=65, time=1),\n",
       "   Message('note_on', channel=0, note=59, velocity=72, time=6),\n",
       "   Message('note_on', channel=0, note=67, velocity=77, time=7),\n",
       "   Message('note_on', channel=0, note=69, velocity=0, time=39),\n",
       "   Message('note_on', channel=0, note=67, velocity=0, time=69),\n",
       "   Message('note_on', channel=0, note=67, velocity=83, time=171),\n",
       "   Message('note_on', channel=0, note=79, velocity=77, time=0),\n",
       "   Message('note_on', channel=0, note=67, velocity=0, time=36),\n",
       "   Message('note_on', channel=0, note=79, velocity=0, time=5),\n",
       "   Message('note_on', channel=0, note=55, velocity=0, time=3),\n",
       "   Message('note_on', channel=0, note=62, velocity=0, time=212),\n",
       "   Message('note_on', channel=0, note=81, velocity=83, time=24),\n",
       "   Message('note_on', channel=0, note=69, velocity=86, time=0),\n",
       "   Message('note_on', channel=0, note=74, velocity=69, time=1),\n",
       "   Message('note_on', channel=0, note=62, velocity=69, time=3),\n",
       "   Message('note_on', channel=0, note=60, velocity=73, time=1),\n",
       "   Message('note_on', channel=0, note=54, velocity=71, time=5),\n",
       "   Message('note_on', channel=0, note=50, velocity=63, time=0),\n",
       "   Message('note_on', channel=0, note=59, velocity=0, time=27),\n",
       "   Message('note_on', channel=0, note=74, velocity=0, time=2),\n",
       "   Message('note_on', channel=0, note=69, velocity=0, time=10),\n",
       "   Message('note_on', channel=0, note=81, velocity=0, time=11),\n",
       "   Message('note_on', channel=0, note=81, velocity=73, time=201),\n",
       "   Message('note_on', channel=0, note=69, velocity=78, time=2),\n",
       "   Message('note_on', channel=0, note=81, velocity=0, time=31),\n",
       "   Message('note_on', channel=0, note=69, velocity=0, time=1),\n",
       "   Message('note_on', channel=0, note=54, velocity=0, time=5),\n",
       "   Message('note_on', channel=0, note=50, velocity=0, time=6),\n",
       "   Message('note_on', channel=0, note=62, velocity=0, time=115),\n",
       "   Message('note_on', channel=0, note=71, velocity=85, time=121),\n",
       "   Message('note_on', channel=0, note=55, velocity=52, time=18),\n",
       "   Message('note_on', channel=0, note=62, velocity=55, time=7),\n",
       "   Message('note_on', channel=0, note=59, velocity=65, time=1),\n",
       "   Message('note_on', channel=0, note=60, velocity=0, time=136),\n",
       "   Message('note_on', channel=0, note=74, velocity=65, time=128),\n",
       "   Message('note_on', channel=0, note=71, velocity=0, time=32),\n",
       "   Message('note_on', channel=0, note=74, velocity=0, time=6),\n",
       "   Message('note_on', channel=0, note=74, velocity=74, time=232),\n",
       "   Message('note_on', channel=0, note=59, velocity=0, time=79),\n",
       "   Message('note_on', channel=0, note=72, velocity=81, time=64),\n",
       "   Message('note_on', channel=0, note=55, velocity=0, time=13),\n",
       "   Message('note_on', channel=0, note=74, velocity=0, time=28),\n",
       "   Message('note_on', channel=0, note=62, velocity=0, time=11),\n",
       "   Message('note_on', channel=0, note=71, velocity=80, time=74),\n",
       "   Message('note_on', channel=0, note=72, velocity=0, time=52),\n",
       "   Message('note_on', channel=0, note=81, velocity=68, time=73),\n",
       "   Message('note_on', channel=0, note=69, velocity=74, time=4),\n",
       "   Message('note_on', channel=0, note=81, velocity=0, time=4),\n",
       "   Message('note_on', channel=0, note=71, velocity=0, time=16),\n",
       "   Message('note_on', channel=0, note=79, velocity=73, time=120),\n",
       "   Message('note_on', channel=0, note=67, velocity=77, time=1),\n",
       "   Message('note_on', channel=0, note=59, velocity=72, time=7),\n",
       "   Message('note_on', channel=0, note=62, velocity=61, time=0),\n",
       "   Message('note_on', channel=0, note=55, velocity=61, time=4),\n",
       "   Message('note_on', channel=0, note=69, velocity=0, time=18),\n",
       "   Message('note_on', channel=0, note=67, velocity=0, time=13),\n",
       "   Message('note_on', channel=0, note=55, velocity=0, time=52),\n",
       "   Message('note_on', channel=0, note=79, velocity=0, time=0),\n",
       "   Message('note_on', channel=0, note=79, velocity=69, time=179),\n",
       "   Message('note_on', channel=0, note=67, velocity=76, time=0),\n",
       "   Message('note_on', channel=0, note=79, velocity=0, time=26),\n",
       "   Message('note_on', channel=0, note=67, velocity=0, time=6),\n",
       "   Message('note_on', channel=0, note=62, velocity=0, time=234),\n",
       "   Message('note_on', channel=0, note=81, velocity=79, time=3),\n",
       "   Message('note_on', channel=0, note=72, velocity=66, time=1),\n",
       "   Message('note_on', channel=0, note=69, velocity=83, time=1),\n",
       "   Message('note_on', channel=0, note=54, velocity=65, time=5),\n",
       "   Message('note_on', channel=0, note=60, velocity=71, time=1),\n",
       "   Message('note_on', channel=0, note=62, velocity=64, time=0),\n",
       "   Message('note_on', channel=0, note=59, velocity=0, time=35),\n",
       "   Message('note_on', channel=0, note=72, velocity=0, time=0),\n",
       "   Message('note_on', channel=0, note=69, velocity=0, time=11),\n",
       "   Message('note_on', channel=0, note=81, velocity=0, time=4),\n",
       "   Message('note_on', channel=0, note=81, velocity=71, time=218),\n",
       "   Message('note_on', channel=0, note=69, velocity=76, time=2),\n",
       "   Message('note_on', channel=0, note=69, velocity=0, time=32),\n",
       "   Message('note_on', channel=0, note=81, velocity=0, time=2),\n",
       "   Message('note_on', channel=0, note=54, velocity=0, time=2),\n",
       "   Message('note_on', channel=0, note=62, velocity=0, time=75),\n",
       "   Message('note_on', channel=0, note=71, velocity=86, time=164),\n",
       "   Message('note_on', channel=0, note=83, velocity=69, time=0),\n",
       "   Message('note_on', channel=0, note=83, velocity=0, time=5),\n",
       "   Message('note_on', channel=0, note=59, velocity=58, time=20),\n",
       "   Message('note_on', channel=0, note=55, velocity=46, time=0),\n",
       "   Message('note_on', channel=0, note=62, velocity=50, time=2),\n",
       "   Message('note_on', channel=0, note=60, velocity=0, time=52),\n",
       "   Message('note_on', channel=0, note=71, velocity=0, time=371),\n",
       "   Message('note_on', channel=0, note=71, velocity=34, time=11),\n",
       "   Message('note_on', channel=0, note=71, velocity=0, time=30),\n",
       "   Message('note_on', channel=0, note=86, velocity=81, time=104),\n",
       "   Message('note_on', channel=0, note=74, velocity=89, time=0),\n",
       "   Message('note_on', channel=0, note=86, velocity=0, time=9),\n",
       "   Message('note_on', channel=0, note=55, velocity=0, time=71),\n",
       "   Message('note_on', channel=0, note=59, velocity=0, time=9),\n",
       "   Message('note_on', channel=0, note=72, velocity=84, time=52),\n",
       "   Message('note_on', channel=0, note=74, velocity=0, time=64),\n",
       "   Message('note_on', channel=0, note=62, velocity=0, time=26),\n",
       "   Message('note_on', channel=0, note=71, velocity=81, time=27),\n",
       "   Message('note_on', channel=0, note=83, velocity=64, time=1),\n",
       "   Message('note_on', channel=0, note=83, velocity=0, time=11),\n",
       "   Message('note_on', channel=0, note=72, velocity=0, time=55),\n",
       "   Message('note_on', channel=0, note=81, velocity=66, time=62),\n",
       "   Message('note_on', channel=0, note=69, velocity=69, time=1),\n",
       "   Message('note_on', channel=0, note=71, velocity=0, time=86),\n",
       "   Message('note_on', channel=0, note=67, velocity=74, time=59),\n",
       "   Message('note_on', channel=0, note=79, velocity=71, time=0),\n",
       "   Message('note_on', channel=0, note=59, velocity=66, time=11),\n",
       "   Message('note_on', channel=0, note=55, velocity=54, time=1),\n",
       "   Message('note_on', channel=0, note=62, velocity=55, time=0),\n",
       "   Message('note_on', channel=0, note=69, velocity=0, time=28),\n",
       "   Message('note_on', channel=0, note=79, velocity=0, time=8),\n",
       "   Message('note_on', channel=0, note=81, velocity=0, time=4),\n",
       "   Message('note_on', channel=0, note=67, velocity=0, time=2),\n",
       "   Message('note_on', channel=0, note=55, velocity=0, time=3),\n",
       "   Message('note_on', channel=0, note=79, velocity=68, time=216),\n",
       "   Message('note_on', channel=0, note=67, velocity=72, time=1),\n",
       "   Message('note_on', channel=0, note=79, velocity=0, time=44),\n",
       "   Message('note_on', channel=0, note=67, velocity=0, time=0),\n",
       "   Message('note_on', channel=0, note=62, velocity=0, time=80),\n",
       "   Message('note_on', channel=0, note=81, velocity=83, time=138),\n",
       "   Message('note_on', channel=0, note=69, velocity=87, time=3),\n",
       "   Message('note_on', channel=0, note=60, velocity=72, time=7),\n",
       "   Message('note_on', channel=0, note=54, velocity=67, time=0),\n",
       "   Message('note_on', channel=0, note=62, velocity=68, time=1),\n",
       "   Message('note_on', channel=0, note=59, velocity=0, time=36),\n",
       "   Message('note_on', channel=0, note=81, velocity=0, time=14),\n",
       "   Message('note_on', channel=0, note=69, velocity=0, time=3),\n",
       "   Message('note_on', channel=0, note=81, velocity=75, time=209),\n",
       "   Message('note_on', channel=0, note=69, velocity=80, time=1),\n",
       "   Message('note_on', channel=0, note=81, velocity=0, time=33),\n",
       "   Message('note_on', channel=0, note=54, velocity=0, time=13),\n",
       "   Message('note_on', channel=0, note=69, velocity=0, time=1),\n",
       "   Message('note_on', channel=0, note=62, velocity=0, time=70),\n",
       "   Message('note_on', channel=0, note=71, velocity=86, time=149),\n",
       "   Message('note_on', channel=0, note=62, velocity=60, time=28),\n",
       "   Message('note_on', channel=0, note=55, velocity=58, time=1),\n",
       "   Message('note_on', channel=0, note=59, velocity=69, time=2),\n",
       "   Message('note_on', channel=0, note=60, velocity=0, time=26),\n",
       "   Message('note_on', channel=0, note=74, velocity=76, time=214),\n",
       "   Message('note_on', channel=0, note=71, velocity=0, time=44),\n",
       "   Message('note_on', channel=0, note=74, velocity=0, time=1),\n",
       "   Message('note_on', channel=0, note=74, velocity=83, time=216),\n",
       "   Message('note_on', channel=0, note=55, velocity=0, time=59),\n",
       "   Message('note_on', channel=0, note=59, velocity=0, time=9),\n",
       "   Message('note_on', channel=0, note=72, velocity=86, time=56),\n",
       "   Message('note_on', channel=0, note=62, velocity=0, time=25),\n",
       "   Message('note_on', channel=0, note=74, velocity=0, time=26),\n",
       "   Message('note_on', channel=0, note=71, velocity=84, time=72),\n",
       "   Message('note_on', channel=0, note=72, velocity=0, time=47),\n",
       "   Message('note_on', channel=0, note=81, velocity=75, time=86),\n",
       "   Message('note_on', channel=0, note=69, velocity=81, time=1),\n",
       "   Message('note_on', channel=0, note=71, velocity=0, time=83),\n",
       "   Message('note_on', channel=0, note=67, velocity=79, time=55),\n",
       "   Message('note_on', channel=0, note=79, velocity=74, time=1),\n",
       "   Message('note_on', channel=0, note=55, velocity=64, time=3),\n",
       "   Message('note_on', channel=0, note=62, velocity=65, time=4),\n",
       "   Message('note_on', channel=0, note=59, velocity=69, time=1),\n",
       "   Message('note_on', channel=0, note=81, velocity=0, time=20),\n",
       "   Message('note_on', channel=0, note=69, velocity=0, time=7),\n",
       "   Message('note_on', channel=0, note=79, velocity=0, time=36),\n",
       "   Message('note_on', channel=0, note=67, velocity=0, time=6),\n",
       "   Message('note_on', channel=0, note=79, velocity=72, time=186),\n",
       "   Message('note_on', channel=0, note=67, velocity=80, time=0),\n",
       "   Message('note_on', channel=0, note=67, velocity=0, time=40),\n",
       "   Message('note_on', channel=0, note=79, velocity=0, time=6),\n",
       "   Message('note_on', channel=0, note=55, velocity=0, time=3),\n",
       "   Message('note_on', channel=0, note=62, velocity=0, time=72),\n",
       "   Message('note_on', channel=0, note=81, velocity=84, time=144),\n",
       "   Message('note_on', channel=0, note=69, velocity=89, time=2),\n",
       "   Message('note_on', channel=0, note=60, velocity=71, time=9),\n",
       "   Message('note_on', channel=0, note=62, velocity=66, time=1),\n",
       "   Message('note_on', channel=0, note=54, velocity=58, time=13),\n",
       "   Message('note_on', channel=0, note=50, velocity=52, time=0),\n",
       "   Message('note_on', channel=0, note=59, velocity=0, time=9),\n",
       "   Message('note_on', channel=0, note=81, velocity=0, time=34),\n",
       "   Message('note_on', channel=0, note=69, velocity=0, time=19),\n",
       "   Message('note_on', channel=0, note=81, velocity=78, time=177),\n",
       "   Message('note_on', channel=0, note=69, velocity=83, time=1),\n",
       "   Message('note_on', channel=0, note=54, velocity=0, time=46),\n",
       "   Message('note_on', channel=0, note=81, velocity=0, time=3),\n",
       "   Message('note_on', channel=0, note=69, velocity=0, time=9),\n",
       "   Message('note_on', channel=0, note=50, velocity=0, time=6),\n",
       "   Message('note_on', channel=0, note=62, velocity=0, time=93),\n",
       "   Message('note_on', channel=0, note=79, velocity=73, time=140),\n",
       "   Message('note_on', channel=0, note=67, velocity=80, time=2),\n",
       "   Message('note_on', channel=0, note=79, velocity=0, time=4),\n",
       "   Message('note_on', channel=0, note=59, velocity=66, time=6),\n",
       "   Message('note_on', channel=0, note=71, velocity=63, time=4),\n",
       "   Message('note_on', channel=0, note=50, velocity=52, time=1),\n",
       "   Message('note_on', channel=0, note=55, velocity=53, time=1),\n",
       "   Message('note_on', channel=0, note=47, velocity=56, time=1),\n",
       "   Message('note_on', channel=0, note=71, velocity=0, time=2),\n",
       "   Message('note_on', channel=0, note=47, velocity=0, time=8),\n",
       "   Message('note_on', channel=0, note=60, velocity=0, time=106),\n",
       "   Message('control_change', channel=0, control=64, value=127, time=316),\n",
       "   Message('note_on', channel=0, note=50, velocity=0, time=123),\n",
       "   Message('control_change', channel=0, control=64, value=0, time=203),\n",
       "   Message('note_on', channel=0, note=55, velocity=0, time=6),\n",
       "   Message('note_on', channel=0, note=67, velocity=0, time=48),\n",
       "   Message('note_on', channel=0, note=59, velocity=0, time=1),\n",
       "   Message('note_on', channel=0, note=67, velocity=79, time=2654),\n",
       "   Message('note_on', channel=0, note=79, velocity=69, time=0),\n",
       "   Message('note_on', channel=0, note=79, velocity=0, time=6),\n",
       "   Message('note_on', channel=0, note=72, velocity=86, time=241),\n",
       "   Message('note_on', channel=0, note=64, velocity=77, time=12),\n",
       "   Message('note_on', channel=0, note=58, velocity=68, time=1),\n",
       "   Message('note_on', channel=0, note=60, velocity=73, time=1),\n",
       "   Message('note_on', channel=0, note=58, velocity=0, time=37),\n",
       "   Message('note_on', channel=0, note=67, velocity=0, time=42),\n",
       "   Message('note_on', channel=0, note=79, velocity=69, time=127),\n",
       "   Message('note_on', channel=0, note=67, velocity=76, time=2),\n",
       "   Message('note_on', channel=0, note=79, velocity=0, time=6),\n",
       "   Message('control_change', channel=0, control=64, value=127, time=61),\n",
       "   Message('control_change', channel=0, control=64, value=0, time=143),\n",
       "   Message('note_on', channel=0, note=72, velocity=0, time=3),\n",
       "   Message('note_on', channel=0, note=72, velocity=86, time=5),\n",
       "   Message('note_on', channel=0, note=67, velocity=0, time=100),\n",
       "   Message('note_on', channel=0, note=68, velocity=73, time=123),\n",
       "   Message('note_on', channel=0, note=74, velocity=92, time=1),\n",
       "   Message('note_on', channel=0, note=65, velocity=72, time=1),\n",
       "   Message('note_on', channel=0, note=59, velocity=79, time=0),\n",
       "   Message('note_on', channel=0, note=64, velocity=0, time=77),\n",
       "   Message('note_on', channel=0, note=60, velocity=0, time=23),\n",
       "   Message('note_on', channel=0, note=72, velocity=0, time=0),\n",
       "   Message('note_on', channel=0, note=79, velocity=74, time=119),\n",
       "   Message('note_on', channel=0, note=67, velocity=82, time=1),\n",
       "   Message('note_on', channel=0, note=79, velocity=0, time=3),\n",
       "   Message('note_on', channel=0, note=68, velocity=0, time=23),\n",
       "   Message('note_on', channel=0, note=74, velocity=0, time=35),\n",
       "   Message('note_on', channel=0, note=74, velocity=86, time=151),\n",
       "   Message('note_on', channel=0, note=67, velocity=0, time=58),\n",
       "   Message('note_on', channel=0, note=72, velocity=89, time=185),\n",
       "   Message('note_on', channel=0, note=60, velocity=69, time=7),\n",
       "   Message('note_on', channel=0, note=64, velocity=74, time=1),\n",
       "   Message('note_on', channel=0, note=59, velocity=0, time=73),\n",
       "   Message('note_on', channel=0, note=74, velocity=0, time=8),\n",
       "   Message('note_on', channel=0, note=65, velocity=0, time=1),\n",
       "   Message('note_on', channel=0, note=60, velocity=0, time=375),\n",
       "   Message('note_on', channel=0, note=64, velocity=0, time=17),\n",
       "   Message('note_on', channel=0, note=84, velocity=66, time=330),\n",
       "   Message('note_on', channel=0, note=84, velocity=0, time=285),\n",
       "   Message('note_on', channel=0, note=79, velocity=54, time=263),\n",
       "   Message('note_on', channel=0, note=72, velocity=0, time=1),\n",
       "   Message('note_on', channel=0, note=67, velocity=63, time=1),\n",
       "   Message('note_on', channel=0, note=72, velocity=42, time=5),\n",
       "   Message('note_on', channel=0, note=79, velocity=0, time=1),\n",
       "   Message('note_on', channel=0, note=72, velocity=0, time=62),\n",
       "   Message('note_on', channel=0, note=64, velocity=78, time=164),\n",
       "   Message('note_on', channel=0, note=72, velocity=87, time=0),\n",
       "   Message('note_on', channel=0, note=60, velocity=69, time=2),\n",
       "   Message('note_on', channel=0, note=67, velocity=0, time=38),\n",
       "   Message('note_on', channel=0, note=79, velocity=69, time=199),\n",
       "   Message('note_on', channel=0, note=67, velocity=76, time=1),\n",
       "   Message('note_on', channel=0, note=79, velocity=0, time=80),\n",
       "   Message('note_on', channel=0, note=72, velocity=0, time=115),\n",
       "   Message('note_on', channel=0, note=72, velocity=82, time=4),\n",
       "   Message('note_on', channel=0, note=67, velocity=0, time=85),\n",
       "   Message('note_on', channel=0, note=74, velocity=90, time=156),\n",
       "   Message('note_on', channel=0, note=65, velocity=78, time=0),\n",
       "   Message('note_on', channel=0, note=71, velocity=80, time=1),\n",
       "   Message('note_on', channel=0, note=59, velocity=82, time=1),\n",
       "   Message('note_on', channel=0, note=72, velocity=0, time=68),\n",
       "   Message('note_on', channel=0, note=64, velocity=0, time=5),\n",
       "   Message('note_on', channel=0, note=60, velocity=0, time=2),\n",
       "   Message('note_on', channel=0, note=79, velocity=76, time=144),\n",
       "   Message('note_on', channel=0, note=65, velocity=0, time=2),\n",
       "   Message('note_on', channel=0, note=67, velocity=85, time=1),\n",
       "   Message('note_on', channel=0, note=65, velocity=56, time=10),\n",
       "   Message('note_on', channel=0, note=74, velocity=0, time=68),\n",
       "   Message('note_on', channel=0, note=71, velocity=0, time=14),\n",
       "   Message('note_on', channel=0, note=79, velocity=0, time=99),\n",
       "   Message('note_on', channel=0, note=74, velocity=84, time=30),\n",
       "   Message('note_on', channel=0, note=67, velocity=0, time=36),\n",
       "   Message('note_on', channel=0, note=72, velocity=90, time=199),\n",
       "   Message('note_on', channel=0, note=64, velocity=71, time=19),\n",
       "   Message('note_on', channel=0, note=60, velocity=64, time=1),\n",
       "   Message('note_on', channel=0, note=74, velocity=0, time=65),\n",
       "   Message('note_on', channel=0, note=65, velocity=0, time=2),\n",
       "   Message('note_on', channel=0, note=59, velocity=0, time=1),\n",
       "   Message('note_on', channel=0, note=60, velocity=0, time=311),\n",
       "   Message('note_on', channel=0, note=64, velocity=0, time=33),\n",
       "   Message('note_on', channel=0, note=84, velocity=71, time=321),\n",
       "   Message('note_on', channel=0, note=72, velocity=0, time=21),\n",
       "   Message('note_on', channel=0, note=67, velocity=68, time=481),\n",
       "   Message('note_on', channel=0, note=84, velocity=0, time=55),\n",
       "   Message('note_on', channel=0, note=64, velocity=83, time=165),\n",
       "   Message('note_on', channel=0, note=60, velocity=62, time=9),\n",
       "   Message('note_on', channel=0, note=72, velocity=85, time=0),\n",
       "   Message('note_on', channel=0, note=67, velocity=0, time=2),\n",
       "   Message('note_on', channel=0, note=67, velocity=61, time=11),\n",
       "   Message('note_on', channel=0, note=67, velocity=0, time=55),\n",
       "   Message('note_on', channel=0, note=67, velocity=72, time=173),\n",
       "   Message('note_on', channel=0, note=79, velocity=67, time=2),\n",
       "   Message('note_on', channel=0, note=79, velocity=0, time=5),\n",
       "   Message('note_on', channel=0, note=72, velocity=0, time=86),\n",
       "   Message('note_on', channel=0, note=72, velocity=83, time=113),\n",
       "   Message('note_on', channel=0, note=67, velocity=0, time=83),\n",
       "   Message('note_on', channel=0, note=74, velocity=89, time=159),\n",
       "   Message('note_on', channel=0, note=59, velocity=79, time=10),\n",
       "   Message('note_on', channel=0, note=71, velocity=75, time=1),\n",
       "   Message('note_on', channel=0, note=65, velocity=73, time=2),\n",
       "   Message('note_on', channel=0, note=64, velocity=0, time=59),\n",
       "   Message('note_on', channel=0, note=72, velocity=0, time=1),\n",
       "   Message('note_on', channel=0, note=79, velocity=73, time=148),\n",
       "   Message('note_on', channel=0, note=67, velocity=80, time=3),\n",
       "   Message('note_on', channel=0, note=79, velocity=0, time=3),\n",
       "   Message('note_on', channel=0, note=74, velocity=0, time=68),\n",
       "   Message('note_on', channel=0, note=74, velocity=77, time=156),\n",
       "   Message('note_on', channel=0, note=67, velocity=0, time=37),\n",
       "   Message('note_on', channel=0, note=71, velocity=0, time=31),\n",
       "   Message('note_on', channel=0, note=60, velocity=0, time=62),\n",
       "   Message('note_on', channel=0, note=72, velocity=83, time=98),\n",
       "   Message('note_on', channel=0, note=48, velocity=55, time=27),\n",
       "   Message('note_on', channel=0, note=64, velocity=76, time=4),\n",
       "   Message('note_on', channel=0, note=48, velocity=0, time=1),\n",
       "   Message('note_on', channel=0, note=60, velocity=68, time=1),\n",
       "   Message('note_on', channel=0, note=65, velocity=0, time=21),\n",
       "   Message('note_on', channel=0, note=74, velocity=0, time=4),\n",
       "   Message('note_on', channel=0, note=59, velocity=0, time=0),\n",
       "   Message('note_on', channel=0, note=74, velocity=79, time=178),\n",
       "   Message('note_on', channel=0, note=72, velocity=0, time=92),\n",
       "   Message('note_on', channel=0, note=72, velocity=79, time=131),\n",
       "   Message('note_on', channel=0, note=60, velocity=0, time=42),\n",
       "   Message('note_on', channel=0, note=74, velocity=0, time=48),\n",
       "   Message('note_on', channel=0, note=72, velocity=0, time=144),\n",
       "   Message('note_on', channel=0, note=69, velocity=77, time=5),\n",
       "   Message('note_on', channel=0, note=72, velocity=61, time=2),\n",
       "   Message('note_on', channel=0, note=60, velocity=61, time=1),\n",
       "   Message('note_on', channel=0, note=65, velocity=65, time=20),\n",
       "   Message('note_on', channel=0, note=64, velocity=0, time=69),\n",
       "   Message('note_on', channel=0, note=72, velocity=0, time=29),\n",
       "   Message('note_on', channel=0, note=72, velocity=78, time=108),\n",
       "   Message('note_on', channel=0, note=69, velocity=0, time=85),\n",
       "   Message('note_on', channel=0, note=72, velocity=0, time=157),\n",
       "   Message('note_on', channel=0, note=72, velocity=49, time=4),\n",
       "   Message('note_on', channel=0, note=69, velocity=60, time=1),\n",
       "   Message('note_on', channel=0, note=60, velocity=0, time=11),\n",
       "   Message('note_on', channel=0, note=72, velocity=0, time=183),\n",
       "   Message('note_on', channel=0, note=67, velocity=72, time=47),\n",
       "   Message('note_on', channel=0, note=64, velocity=64, time=2),\n",
       "   Message('note_on', channel=0, note=76, velocity=61, time=1),\n",
       "   Message('note_on', channel=0, note=60, velocity=61, time=28),\n",
       "   Message('note_on', channel=0, note=65, velocity=0, time=20),\n",
       "   Message('note_on', channel=0, note=69, velocity=0, time=12),\n",
       "   Message('note_on', channel=0, note=69, velocity=68, time=202),\n",
       "   Message('note_on', channel=0, note=81, velocity=66, time=0),\n",
       "   Message('note_on', channel=0, note=67, velocity=0, time=54),\n",
       "   Message('note_on', channel=0, note=79, velocity=66, time=179),\n",
       "   Message('note_on', channel=0, note=67, velocity=68, time=1),\n",
       "   Message('note_on', channel=0, note=81, velocity=0, time=15),\n",
       "   Message('note_on', channel=0, note=76, velocity=0, time=8),\n",
       "   Message('note_on', channel=0, note=79, velocity=0, time=46),\n",
       "   Message('note_on', channel=0, note=67, velocity=0, time=10),\n",
       "   Message('note_on', channel=0, note=69, velocity=0, time=8),\n",
       "   Message('note_on', channel=0, note=64, velocity=0, time=90),\n",
       "   Message('note_on', channel=0, note=65, velocity=63, time=19),\n",
       "   Message('note_on', channel=0, note=59, velocity=70, time=8),\n",
       "   Message('note_on', channel=0, note=79, velocity=59, time=15),\n",
       "   Message('note_on', channel=0, note=67, velocity=64, time=4),\n",
       "   Message('note_on', channel=0, note=60, velocity=0, time=92),\n",
       "   Message('note_on', channel=0, note=79, velocity=0, time=15),\n",
       "   Message('control_change', channel=0, control=64, value=127, time=61),\n",
       "   Message('control_change', channel=0, control=64, value=0, time=16),\n",
       "   Message('note_on', channel=0, note=81, velocity=66, time=52),\n",
       "   Message('note_on', channel=0, note=69, velocity=71, time=2),\n",
       "   Message('note_on', channel=0, note=81, velocity=0, time=61),\n",
       "   Message('note_on', channel=0, note=67, velocity=0, time=10),\n",
       "   Message('note_on', channel=0, note=67, velocity=62, time=171),\n",
       "   Message('note_on', channel=0, note=79, velocity=58, time=1),\n",
       "   Message('note_on', channel=0, note=79, velocity=0, time=10),\n",
       "   Message('note_on', channel=0, note=59, velocity=0, time=35),\n",
       "   Message('note_on', channel=0, note=65, velocity=0, time=4),\n",
       "   Message('note_on', channel=0, note=67, velocity=0, time=41),\n",
       "   Message('note_on', channel=0, note=69, velocity=0, time=61),\n",
       "   Message('note_on', channel=0, note=79, velocity=61, time=67),\n",
       "   Message('note_on', channel=0, note=59, velocity=65, time=2),\n",
       "   Message('note_on', channel=0, note=67, velocity=64, time=1),\n",
       "   Message('note_on', channel=0, note=77, velocity=55, time=4),\n",
       "   Message('note_on', channel=0, note=65, velocity=54, time=2),\n",
       "   Message('note_on', channel=0, note=77, velocity=0, time=6),\n",
       "   Message('note_on', channel=0, note=79, velocity=0, time=30),\n",
       "   Message('note_on', channel=0, note=81, velocity=73, time=189),\n",
       "   Message('note_on', channel=0, note=69, velocity=77, time=1),\n",
       "   Message('note_on', channel=0, note=81, velocity=0, time=49),\n",
       "   Message('note_on', channel=0, note=67, velocity=0, time=36),\n",
       "   Message('note_on', channel=0, note=71, velocity=80, time=164),\n",
       "   Message('note_on', channel=0, note=83, velocity=65, time=1),\n",
       "   Message('note_on', channel=0, note=83, velocity=0, time=6),\n",
       "   Message('note_on', channel=0, note=69, velocity=0, time=94),\n",
       "   Message('note_on', channel=0, note=72, velocity=75, time=140),\n",
       "   Message('note_on', channel=0, note=76, velocity=59, time=6),\n",
       "   Message('note_on', channel=0, note=64, velocity=55, time=30),\n",
       "   Message('note_on', channel=0, note=60, velocity=43, time=3),\n",
       "   Message('note_on', channel=0, note=59, velocity=0, time=36),\n",
       "   Message('note_on', channel=0, note=71, velocity=0, time=16),\n",
       "   Message('note_on', channel=0, note=65, velocity=0, time=55),\n",
       "   Message('note_on', channel=0, note=60, velocity=0, time=388),\n",
       "   Message('note_on', channel=0, note=64, velocity=0, time=3),\n",
       "   Message('note_on', channel=0, note=76, velocity=0, time=35),\n",
       "   Message('note_on', channel=0, note=72, velocity=0, time=9),\n",
       "   Message('note_on', channel=0, note=79, velocity=63, time=641),\n",
       "   Message('note_on', channel=0, note=76, velocity=55, time=45),\n",
       "   Message('note_on', channel=0, note=72, velocity=48, time=6),\n",
       "   Message('note_on', channel=0, note=81, velocity=68, time=204),\n",
       "   Message('note_on', channel=0, note=79, velocity=0, time=63),\n",
       "   Message('note_on', channel=0, note=79, velocity=69, time=171),\n",
       "   Message('note_on', channel=0, note=79, velocity=0, time=87),\n",
       "   Message('note_on', channel=0, note=81, velocity=0, time=0),\n",
       "   Message('note_on', channel=0, note=76, velocity=0, time=149),\n",
       "   Message('note_on', channel=0, note=79, velocity=71, time=2),\n",
       "   Message('note_on', channel=0, note=77, velocity=69, time=1),\n",
       "   Message('note_on', channel=0, note=76, velocity=56, time=7),\n",
       "   Message('note_on', channel=0, note=71, velocity=45, time=24),\n",
       "   Message('control_change', channel=0, control=64, value=127, time=43),\n",
       "   Message('note_on', channel=0, note=76, velocity=0, time=128),\n",
       "   Message('control_change', channel=0, control=64, value=0, time=2),\n",
       "   Message('note_on', channel=0, note=81, velocity=66, time=51),\n",
       "   Message('note_on', channel=0, note=79, velocity=0, time=38),\n",
       "   Message('note_on', channel=0, note=79, velocity=61, time=207),\n",
       "   Message('control_change', channel=0, control=64, value=127, time=27),\n",
       "   Message('note_on', channel=0, note=77, velocity=0, time=29),\n",
       "   Message('control_change', channel=0, control=64, value=0, time=9),\n",
       "   Message('note_on', channel=0, note=79, velocity=0, time=33),\n",
       "   Message('note_on', channel=0, note=81, velocity=0, time=3),\n",
       "   Message('note_on', channel=0, note=71, velocity=0, time=3),\n",
       "   Message('note_on', channel=0, note=72, velocity=0, time=7),\n",
       "   Message('note_on', channel=0, note=79, velocity=65, time=121),\n",
       "   Message('note_on', channel=0, note=77, velocity=63, time=26),\n",
       "   Message('note_on', channel=0, note=71, velocity=51, time=10),\n",
       "   Message('note_on', channel=0, note=81, velocity=77, time=215),\n",
       "   Message('note_on', channel=0, note=79, velocity=0, time=51),\n",
       "   Message('note_on', channel=0, note=83, velocity=79, time=182),\n",
       "   Message('note_on', channel=0, note=81, velocity=0, time=93),\n",
       "   Message('note_on', channel=0, note=77, velocity=0, time=132),\n",
       "   Message('note_on', channel=0, note=84, velocity=65, time=16),\n",
       "   Message('note_on', channel=0, note=72, velocity=51, time=34),\n",
       "   Message('note_on', channel=0, note=76, velocity=46, time=23),\n",
       "   Message('note_on', channel=0, note=83, velocity=0, time=52),\n",
       "   Message('note_on', channel=0, note=71, velocity=0, time=5),\n",
       "   Message('note_on', channel=0, note=84, velocity=0, time=192),\n",
       "   Message('note_on', channel=0, note=76, velocity=0, time=180),\n",
       "   Message('note_on', channel=0, note=72, velocity=0, time=18),\n",
       "   Message('note_on', channel=0, note=67, velocity=62, time=463),\n",
       "   Message('note_on', channel=0, note=64, velocity=50, time=43),\n",
       "   Message('note_on', channel=0, note=60, velocity=50, time=51),\n",
       "   Message('note_on', channel=0, note=69, velocity=62, time=153),\n",
       "   Message('note_on', channel=0, note=67, velocity=0, time=64),\n",
       "   Message('control_change', channel=0, control=64, value=127, time=50),\n",
       "   Message('note_on', channel=0, note=67, velocity=63, time=126),\n",
       "   Message('note_on', channel=0, note=64, velocity=0, time=24),\n",
       "   Message('note_on', channel=0, note=67, velocity=0, time=62),\n",
       "   Message('control_change', channel=0, control=64, value=0, time=11),\n",
       "   Message('note_on', channel=0, note=69, velocity=0, time=10),\n",
       "   Message('note_on', channel=0, note=67, velocity=65, time=115),\n",
       "   Message('note_on', channel=0, note=65, velocity=54, time=9),\n",
       "   Message('note_on', channel=0, note=59, velocity=57, time=27),\n",
       "   Message('control_change', channel=0, control=64, value=127, time=69),\n",
       "   Message('note_on', channel=0, note=60, velocity=0, time=43),\n",
       "   Message('control_change', channel=0, control=64, value=0, time=64),\n",
       "   Message('note_on', channel=0, note=69, velocity=65, time=49),\n",
       "   Message('note_on', channel=0, note=67, velocity=0, time=96),\n",
       "   Message('note_on', channel=0, note=67, velocity=56, time=135),\n",
       "   Message('note_on', channel=0, note=65, velocity=0, time=65),\n",
       "   Message('note_on', channel=0, note=59, velocity=0, time=4),\n",
       "   Message('note_on', channel=0, note=67, velocity=0, time=63),\n",
       "   Message('note_on', channel=0, note=69, velocity=0, time=1),\n",
       "   Message('note_on', channel=0, note=79, velocity=60, time=99),\n",
       "   Message('note_on', channel=0, note=67, velocity=65, time=1),\n",
       "   Message('note_on', channel=0, note=59, velocity=53, time=47),\n",
       "   Message('note_on', channel=0, note=65, velocity=49, time=4),\n",
       "   Message('note_on', channel=0, note=79, velocity=0, time=36),\n",
       "   Message('note_on', channel=0, note=81, velocity=68, time=167),\n",
       "   Message('note_on', channel=0, note=69, velocity=71, time=0),\n",
       "   Message('note_on', channel=0, note=81, velocity=0, time=9),\n",
       "   Message('note_on', channel=0, note=67, velocity=0, time=144),\n",
       "   Message('note_on', channel=0, note=71, velocity=78, time=90),\n",
       "   Message('note_on', channel=0, note=69, velocity=0, time=109),\n",
       "   Message('note_on', channel=0, note=72, velocity=68, time=163),\n",
       "   Message('note_on', channel=0, note=65, velocity=0, time=44),\n",
       "   Message('note_on', channel=0, note=71, velocity=0, time=2),\n",
       "   Message('note_on', channel=0, note=64, velocity=48, time=4),\n",
       "   Message('note_on', channel=0, note=60, velocity=38, time=4),\n",
       "   Message('note_on', channel=0, note=59, velocity=0, time=59),\n",
       "   Message('note_on', channel=0, note=60, velocity=0, time=782),\n",
       "   Message('note_on', channel=0, note=64, velocity=0, time=3),\n",
       "   Message('note_on', channel=0, note=72, velocity=0, time=17),\n",
       "   Message('note_on', channel=0, note=66, velocity=69, time=5558),\n",
       "   Message('note_on', channel=0, note=50, velocity=46, time=17),\n",
       "   Message('note_on', channel=0, note=54, velocity=51, time=3),\n",
       "   Message('note_on', channel=0, note=62, velocity=47, time=1),\n",
       "   Message('note_on', channel=0, note=57, velocity=47, time=1),\n",
       "   Message('control_change', channel=0, control=64, value=127, time=111),\n",
       "   Message('note_on', channel=0, note=64, velocity=75, time=629),\n",
       "   Message('control_change', channel=0, control=64, value=0, time=39),\n",
       "   Message('note_on', channel=0, note=66, velocity=0, time=96),\n",
       "   Message('note_on', channel=0, note=50, velocity=0, time=17),\n",
       "   Message('note_on', channel=0, note=62, velocity=0, time=33),\n",
       "   Message('note_on', channel=0, note=57, velocity=0, time=8),\n",
       "   Message('note_on', channel=0, note=54, velocity=0, time=22),\n",
       "   Message('note_on', channel=0, note=74, velocity=61, time=141),\n",
       "   Message('note_on', channel=0, note=62, velocity=62, time=2),\n",
       "   Message('note_on', channel=0, note=74, velocity=0, time=4),\n",
       "   Message('note_on', channel=0, note=54, velocity=51, time=7),\n",
       "   Message('note_on', channel=0, note=50, velocity=47, time=5),\n",
       "   Message('note_on', channel=0, note=57, velocity=49, time=1),\n",
       "   Message('note_on', channel=0, note=64, velocity=0, time=85),\n",
       "   Message('control_change', channel=0, control=64, value=127, time=117),\n",
       "   Message('note_on', channel=0, note=57, velocity=0, time=448),\n",
       "   Message('control_change', channel=0, control=64, value=0, time=3),\n",
       "   Message('note_on', channel=0, note=50, velocity=0, time=17),\n",
       "   Message('note_on', channel=0, note=50, velocity=34, time=6),\n",
       "   Message('note_on', channel=0, note=54, velocity=0, time=2),\n",
       "   Message('note_on', channel=0, note=62, velocity=0, time=0),\n",
       "   Message('note_on', channel=0, note=54, velocity=40, time=4),\n",
       "   Message('note_on', channel=0, note=62, velocity=56, time=0),\n",
       "   Message('control_change', channel=0, control=64, value=127, time=50),\n",
       "   Message('note_on', channel=0, note=49, velocity=57, time=251),\n",
       "   Message('note_on', channel=0, note=64, velocity=69, time=21),\n",
       "   Message('note_on', channel=0, note=55, velocity=57, time=31),\n",
       "   Message('note_on', channel=0, note=57, velocity=54, time=0),\n",
       "   Message('control_change', channel=0, control=64, value=0, time=6),\n",
       "   Message('control_change', channel=0, control=64, value=127, time=59),\n",
       "   Message('note_on', channel=0, note=54, velocity=0, time=19),\n",
       "   Message('note_on', channel=0, note=62, velocity=0, time=2),\n",
       "   Message('note_on', channel=0, note=50, velocity=0, time=33),\n",
       "   Message('note_on', channel=0, note=49, velocity=0, time=154),\n",
       "   Message('note_on', channel=0, note=55, velocity=0, time=0),\n",
       "   Message('control_change', channel=0, control=64, value=0, time=0),\n",
       "   Message('note_on', channel=0, note=55, velocity=46, time=6),\n",
       "   Message('note_on', channel=0, note=62, velocity=66, time=1),\n",
       "   Message('note_on', channel=0, note=49, velocity=50, time=0),\n",
       "   Message('note_on', channel=0, note=64, velocity=0, time=104),\n",
       "   Message('note_on', channel=0, note=49, velocity=0, time=184),\n",
       "   Message('note_on', channel=0, note=57, velocity=0, time=4),\n",
       "   Message('note_on', channel=0, note=64, velocity=77, time=4),\n",
       "   Message('note_on', channel=0, note=62, velocity=0, time=128),\n",
       "   Message('note_on', channel=0, note=66, velocity=75, time=205),\n",
       "   Message('note_on', channel=0, note=62, velocity=45, time=37),\n",
       "   Message('note_on', channel=0, note=50, velocity=44, time=5),\n",
       "   Message('note_on', channel=0, note=57, velocity=45, time=0),\n",
       "   Message('note_on', channel=0, note=54, velocity=44, time=3),\n",
       "   Message('note_on', channel=0, note=62, velocity=0, time=2),\n",
       "   Message('note_on', channel=0, note=64, velocity=0, time=65),\n",
       "   Message('note_on', channel=0, note=55, velocity=0, time=73),\n",
       "   Message('control_change', channel=0, control=64, value=127, time=261),\n",
       "   Message('control_change', channel=0, control=64, value=0, time=235),\n",
       "   Message('note_on', channel=0, note=50, velocity=0, time=3),\n",
       "   Message('note_on', channel=0, note=54, velocity=0, time=0),\n",
       "   Message('note_on', channel=0, note=57, velocity=0, time=0),\n",
       "   Message('note_on', channel=0, note=62, velocity=49, time=6),\n",
       "   Message('note_on', channel=0, note=50, velocity=30, time=3),\n",
       "   Message('note_on', channel=0, note=57, velocity=31, time=1),\n",
       "   Message('note_on', channel=0, note=54, velocity=37, time=1),\n",
       "   Message('note_on', channel=0, note=66, velocity=0, time=54),\n",
       "   Message('note_on', channel=0, note=50, velocity=0, time=5),\n",
       "   Message('note_on', channel=0, note=54, velocity=0, time=15),\n",
       "   Message('note_on', channel=0, note=57, velocity=0, time=8),\n",
       "   Message('note_on', channel=0, note=78, velocity=75, time=244),\n",
       "   Message('note_on', channel=0, note=50, velocity=55, time=4),\n",
       "   Message('note_on', channel=0, note=66, velocity=75, time=1),\n",
       "   Message('note_on', channel=0, note=54, velocity=56, time=3),\n",
       "   Message('note_on', channel=0, note=78, velocity=0, time=1),\n",
       "   Message('note_on', channel=0, note=57, velocity=57, time=4),\n",
       "   Message('control_change', channel=0, control=64, value=127, time=219),\n",
       "   Message('control_change', channel=0, control=64, value=0, time=31),\n",
       "   Message('control_change', channel=0, control=64, value=127, time=84),\n",
       "   Message('note_on', channel=0, note=64, velocity=67, time=289),\n",
       "   Message('note_on', channel=0, note=76, velocity=56, time=2),\n",
       "   Message('note_on', channel=0, note=54, velocity=0, time=26),\n",
       "   Message('control_change', channel=0, control=64, value=0, time=3),\n",
       "   Message('note_on', channel=0, note=57, velocity=0, time=0),\n",
       "   Message('note_on', channel=0, note=62, velocity=0, time=0),\n",
       "   Message('note_on', channel=0, note=66, velocity=0, time=0),\n",
       "   Message('note_on', channel=0, note=50, velocity=0, time=1),\n",
       "   Message('note_on', channel=0, note=74, velocity=61, time=300),\n",
       "   Message('note_on', channel=0, note=62, velocity=65, time=4),\n",
       "   Message('note_on', channel=0, note=54, velocity=57, time=2),\n",
       "   Message('note_on', channel=0, note=50, velocity=55, time=4),\n",
       "   Message('note_on', channel=0, note=57, velocity=56, time=3),\n",
       "   Message('note_on', channel=0, note=76, velocity=0, time=80),\n",
       "   Message('note_on', channel=0, note=64, velocity=0, time=13),\n",
       "   Message('note_on', channel=0, note=74, velocity=0, time=210),\n",
       "   Message('note_on', channel=0, note=62, velocity=0, time=174),\n",
       "   Message('note_on', channel=0, note=50, velocity=0, time=122),\n",
       "   Message('note_on', channel=0, note=54, velocity=0, time=50),\n",
       "   Message('note_on', channel=0, note=74, velocity=57, time=4),\n",
       "   Message('note_on', channel=0, note=54, velocity=47, time=3),\n",
       "   Message('note_on', channel=0, note=62, velocity=67, time=0),\n",
       "   Message('note_on', channel=0, note=50, velocity=37, time=1),\n",
       "   Message('note_on', channel=0, note=57, velocity=0, time=41),\n",
       "   Message('control_change', channel=0, control=64, value=127, time=43),\n",
       "   Message('note_on', channel=0, note=74, velocity=0, time=15),\n",
       "   Message('note_on', channel=0, note=64, velocity=69, time=189),\n",
       "   Message('note_on', channel=0, note=76, velocity=57, time=1),\n",
       "   Message('note_on', channel=0, note=76, velocity=0, time=10),\n",
       "   Message('note_on', channel=0, note=49, velocity=51, time=3),\n",
       "   Message('note_on', channel=0, note=52, velocity=37, time=5),\n",
       "   Message('note_on', channel=0, note=55, velocity=52, time=1),\n",
       "   Message('note_on', channel=0, note=57, velocity=48, time=3),\n",
       "   Message('control_change', channel=0, control=64, value=0, time=46),\n",
       "   Message('note_on', channel=0, note=50, velocity=0, time=11),\n",
       "   Message('note_on', channel=0, note=62, velocity=0, time=94),\n",
       "   Message('note_on', channel=0, note=54, velocity=0, time=21),\n",
       "   Message('note_on', channel=0, note=64, velocity=0, time=36),\n",
       "   Message('note_on', channel=0, note=52, velocity=0, time=18),\n",
       "   Message('note_on', channel=0, note=64, velocity=67, time=73),\n",
       "   Message('note_on', channel=0, note=64, velocity=0, time=191),\n",
       "   Message('note_on', channel=0, note=55, velocity=0, time=120),\n",
       "   Message('note_on', channel=0, note=64, velocity=62, time=4),\n",
       "   Message('note_on', channel=0, note=76, velocity=51, time=4),\n",
       "   Message('note_on', channel=0, note=55, velocity=35, time=1),\n",
       "   Message('note_on', channel=0, note=49, velocity=0, time=8),\n",
       "   Message('note_on', channel=0, note=57, velocity=0, time=37),\n",
       "   Message('note_on', channel=0, note=76, velocity=0, time=268),\n",
       "   Message('note_on', channel=0, note=48, velocity=39, time=10),\n",
       "   Message('note_on', channel=0, note=62, velocity=61, time=1),\n",
       "   Message('note_on', channel=0, note=48, velocity=0, time=5),\n",
       "   Message('note_on', channel=0, note=54, velocity=47, time=27),\n",
       "   Message('note_on', channel=0, note=66, velocity=40, time=0),\n",
       "   Message('note_on', channel=0, note=50, velocity=38, time=5),\n",
       "   Message('note_on', channel=0, note=57, velocity=42, time=3),\n",
       "   Message('note_on', channel=0, note=64, velocity=0, time=71),\n",
       "   Message('note_on', channel=0, note=55, velocity=0, time=1),\n",
       "   Message('control_change', channel=0, control=64, value=127, time=492),\n",
       "   Message('note_on', channel=0, note=66, velocity=0, time=54),\n",
       "   Message('note_on', channel=0, note=50, velocity=0, time=49),\n",
       "   Message('note_on', channel=0, note=57, velocity=0, time=48),\n",
       "   Message('note_on', channel=0, note=54, velocity=0, time=0),\n",
       "   Message('control_change', channel=0, control=64, value=0, time=14),\n",
       "   Message('note_on', channel=0, note=62, velocity=0, time=45),\n",
       "   Message('note_on', channel=0, note=66, velocity=68, time=119),\n",
       "   Message('note_on', channel=0, note=78, velocity=60, time=0),\n",
       "   Message('note_on', channel=0, note=78, velocity=0, time=9),\n",
       "   Message('note_on', channel=0, note=50, velocity=38, time=37),\n",
       "   Message('note_on', channel=0, note=57, velocity=39, time=1),\n",
       "   Message('note_on', channel=0, note=54, velocity=42, time=3),\n",
       "   Message('note_on', channel=0, note=79, velocity=73, time=258),\n",
       "   Message('note_on', channel=0, note=67, velocity=83, time=1),\n",
       "   Message('note_on', channel=0, note=79, velocity=0, time=7),\n",
       "   Message('note_on', channel=0, note=66, velocity=0, time=97),\n",
       "   Message('note_on', channel=0, note=81, velocity=76, time=215),\n",
       "   Message('note_on', channel=0, note=69, velocity=82, time=1),\n",
       "   Message('note_on', channel=0, note=50, velocity=0, time=8),\n",
       "   Message('note_on', channel=0, note=67, velocity=0, time=82),\n",
       "   Message('note_on', channel=0, note=81, velocity=0, time=27),\n",
       "   Message('note_on', channel=0, note=64, velocity=68, time=214),\n",
       "   Message('note_on', channel=0, note=76, velocity=61, time=3),\n",
       "   Message('note_on', channel=0, note=49, velocity=52, time=2),\n",
       "   Message('note_on', channel=0, note=57, velocity=0, time=27),\n",
       "   Message('note_on', channel=0, note=57, velocity=35, time=9),\n",
       "   Message('note_on', channel=0, note=55, velocity=39, time=0),\n",
       "   Message('note_on', channel=0, note=54, velocity=0, time=49),\n",
       "   Message('note_on', channel=0, note=69, velocity=0, time=26),\n",
       "   Message('control_change', channel=0, control=64, value=127, time=154),\n",
       "   Message('note_on', channel=0, note=76, velocity=0, time=77),\n",
       "   Message('control_change', channel=0, control=64, value=0, time=334),\n",
       "   Message('note_on', channel=0, note=49, velocity=0, time=2),\n",
       "   Message('note_on', channel=0, note=57, velocity=0, time=90),\n",
       "   Message('note_on', channel=0, note=66, velocity=58, time=235),\n",
       "   Message('note_on', channel=0, note=54, velocity=46, time=9),\n",
       "   Message('note_on', channel=0, note=57, velocity=33, time=17),\n",
       "   Message('note_on', channel=0, note=50, velocity=35, time=7),\n",
       "   Message('note_on', channel=0, note=55, velocity=0, time=36),\n",
       "   Message('note_on', channel=0, note=64, velocity=0, time=1),\n",
       "   Message('note_on', channel=0, note=54, velocity=0, time=229),\n",
       "   Message('note_on', channel=0, note=67, velocity=74, time=5),\n",
       "   Message('note_on', channel=0, note=54, velocity=44, time=3),\n",
       "   Message('note_on', channel=0, note=54, velocity=0, time=230),\n",
       "   Message('note_on', channel=0, note=66, velocity=0, time=0),\n",
       "   Message('note_on', channel=0, note=49, velocity=30, time=8),\n",
       "   Message('note_on', channel=0, note=54, velocity=30, time=3),\n",
       "   Message('note_on', channel=0, note=50, velocity=0, time=2),\n",
       "   Message('note_on', channel=0, note=49, velocity=0, time=2),\n",
       "   Message('note_on', channel=0, note=69, velocity=79, time=81),\n",
       "   Message('note_on', channel=0, note=57, velocity=0, time=73),\n",
       "   Message('note_on', channel=0, note=67, velocity=0, time=9),\n",
       "   Message('control_change', channel=0, control=64, value=127, time=106),\n",
       "   Message('note_on', channel=0, note=64, velocity=66, time=149),\n",
       "   Message('note_on', channel=0, note=49, velocity=48, time=21),\n",
       "   Message('note_on', channel=0, note=52, velocity=36, time=5),\n",
       "   Message('note_on', channel=0, note=57, velocity=50, time=6),\n",
       "   Message('note_on', channel=0, note=55, velocity=48, time=2),\n",
       "   Message('control_change', channel=0, control=64, value=0, time=9),\n",
       "   Message('note_on', channel=0, note=69, velocity=0, time=80),\n",
       "   Message('note_on', channel=0, note=54, velocity=0, time=35),\n",
       "   Message('note_on', channel=0, note=52, velocity=0, time=23),\n",
       "   Message('control_change', channel=0, control=64, value=127, time=177),\n",
       "   Message('control_change', channel=0, control=64, value=0, time=289),\n",
       "   Message('note_on', channel=0, note=49, velocity=0, time=4),\n",
       "   Message('note_on', channel=0, note=57, velocity=0, time=91),\n",
       "   Message('control_change', channel=0, control=64, value=127, time=184),\n",
       "   Message('note_on', channel=0, note=66, velocity=54, time=119),\n",
       "   Message('note_on', channel=0, note=54, velocity=44, time=9),\n",
       "   Message('note_on', channel=0, note=57, velocity=48, time=6),\n",
       "   Message('control_change', channel=0, control=64, value=0, time=4),\n",
       "   Message('note_on', channel=0, note=64, velocity=0, time=99),\n",
       "   Message('note_on', channel=0, note=55, velocity=0, time=33),\n",
       "   Message('control_change', channel=0, control=64, value=127, time=222),\n",
       "   Message('control_change', channel=0, control=64, value=0, time=161),\n",
       "   Message('note_on', channel=0, note=64, velocity=63, time=133),\n",
       "   Message('note_on', channel=0, note=54, velocity=0, time=53),\n",
       "   Message('note_on', channel=0, note=57, velocity=0, time=5),\n",
       "   Message('note_on', channel=0, note=66, velocity=0, time=151),\n",
       "   Message('note_on', channel=0, note=62, velocity=60, time=107),\n",
       "   Message('note_on', channel=0, note=50, velocity=46, time=1),\n",
       "   Message('note_on', channel=0, note=54, velocity=52, time=6),\n",
       "   Message('note_on', channel=0, note=57, velocity=39, time=32),\n",
       "   Message('note_on', channel=0, note=64, velocity=0, time=79),\n",
       "   Message('note_on', channel=0, note=62, velocity=0, time=443),\n",
       "   Message('note_on', channel=0, note=50, velocity=0, time=13),\n",
       "   Message('note_on', channel=0, note=62, velocity=54, time=78),\n",
       "   Message('note_on', channel=0, note=57, velocity=0, time=31),\n",
       "   Message('control_change', channel=0, control=64, value=127, time=43),\n",
       "   Message('note_on', channel=0, note=49, velocity=55, time=211),\n",
       "   Message('note_on', channel=0, note=64, velocity=68, time=6),\n",
       "   Message('note_on', channel=0, note=52, velocity=39, time=28),\n",
       "   Message('note_on', channel=0, note=55, velocity=61, time=8),\n",
       "   Message('note_on', channel=0, note=52, velocity=0, time=0),\n",
       "   Message('note_on', channel=0, note=57, velocity=49, time=4),\n",
       "   Message('note_on', channel=0, note=54, velocity=0, time=119),\n",
       "   Message('note_on', channel=0, note=62, velocity=0, time=8),\n",
       "   Message('note_on', channel=0, note=64, velocity=0, time=71),\n",
       "   Message('control_change', channel=0, control=64, value=0, time=9),\n",
       "   Message('note_on', channel=0, note=49, velocity=0, time=81),\n",
       "   Message('note_on', channel=0, note=64, velocity=61, time=5),\n",
       "   Message('note_on', channel=0, note=49, velocity=41, time=4),\n",
       "   Message('note_on', channel=0, note=64, velocity=0, time=164),\n",
       "   Message('note_on', channel=0, note=49, velocity=0, time=124),\n",
       "   Message('note_on', channel=0, note=57, velocity=0, time=12),\n",
       "   Message('note_on', channel=0, note=64, velocity=63, time=13),\n",
       "   Message('note_on', channel=0, note=62, velocity=57, time=355),\n",
       "   Message('note_on', channel=0, note=54, velocity=50, time=3),\n",
       "   Message('note_on', channel=0, note=50, velocity=44, time=5),\n",
       "   Message('note_on', channel=0, note=57, velocity=39, time=34),\n",
       "   Message('note_on', channel=0, note=55, velocity=0, time=42),\n",
       "   Message('note_on', channel=0, note=64, velocity=0, time=20),\n",
       "   Message('control_change', channel=0, control=64, value=127, time=456),\n",
       "   Message('control_change', channel=0, control=64, value=0, time=484),\n",
       "   Message('note_on', channel=0, note=54, velocity=0, time=74),\n",
       "   Message('note_on', channel=0, note=50, velocity=0, time=18),\n",
       "   Message('note_on', channel=0, note=57, velocity=0, time=1),\n",
       "   Message('note_on', channel=0, note=62, velocity=0, time=17),\n",
       "   Message('note_on', channel=0, note=48, velocity=78, time=2712),\n",
       "   Message('note_on', channel=0, note=55, velocity=83, time=0),\n",
       "   Message('control_change', channel=0, control=64, value=127, time=19),\n",
       "   Message('note_on', channel=0, note=64, velocity=68, time=210),\n",
       "   Message('control_change', channel=0, control=64, value=0, time=105),\n",
       "   Message('note_on', channel=0, note=63, velocity=60, time=81),\n",
       "   Message('note_on', channel=0, note=64, velocity=0, time=53),\n",
       "   Message('note_on', channel=0, note=63, velocity=0, time=43),\n",
       "   Message('note_on', channel=0, note=64, velocity=65, time=118),\n",
       "   Message('control_change', channel=0, control=64, value=127, time=28),\n",
       "   Message('note_on', channel=0, note=48, velocity=0, time=169),\n",
       "   Message('note_on', channel=0, note=48, velocity=53, time=5),\n",
       "   Message('note_on', channel=0, note=63, velocity=69, time=2),\n",
       "   Message('note_on', channel=0, note=75, velocity=64, time=2),\n",
       "   Message('control_change', channel=0, control=64, value=0, time=14),\n",
       "   Message('note_on', channel=0, note=64, velocity=0, time=35),\n",
       "   Message('note_on', channel=0, note=63, velocity=0, time=57),\n",
       "   Message('note_on', channel=0, note=75, velocity=0, time=7),\n",
       "   Message('note_on', channel=0, note=64, velocity=67, time=82),\n",
       "   Message('note_on', channel=0, note=63, velocity=65, time=183),\n",
       "   Message('note_on', channel=0, note=75, velocity=58, time=2),\n",
       "   Message('note_on', channel=0, note=55, velocity=0, time=61),\n",
       "   Message('note_on', channel=0, note=64, velocity=0, time=5),\n",
       "   Message('note_on', channel=0, note=63, velocity=0, time=1),\n",
       "   Message('note_on', channel=0, note=64, velocity=69, time=141),\n",
       "   Message('note_on', channel=0, note=48, velocity=0, time=25),\n",
       "   Message('note_on', channel=0, note=75, velocity=0, time=107),\n",
       "   Message('note_on', channel=0, note=47, velocity=72, time=56),\n",
       "   Message('note_on', channel=0, note=55, velocity=78, time=0),\n",
       "   Message('note_on', channel=0, note=64, velocity=0, time=84),\n",
       "   Message('note_on', channel=0, note=65, velocity=72, time=134),\n",
       "   Message('note_on', channel=0, note=64, velocity=80, time=191),\n",
       "   Message('note_on', channel=0, note=76, velocity=69, time=1),\n",
       "   Message('note_on', channel=0, note=65, velocity=0, time=81),\n",
       "   Message('note_on', channel=0, note=65, velocity=74, time=117),\n",
       "   Message('note_on', channel=0, note=77, velocity=68, time=1),\n",
       "   Message('note_on', channel=0, note=77, velocity=0, time=11),\n",
       "   Message('note_on', channel=0, note=76, velocity=0, time=38),\n",
       "   Message('note_on', channel=0, note=64, velocity=0, time=9),\n",
       "   Message('note_on', channel=0, note=64, velocity=79, time=132),\n",
       "   Message('note_on', channel=0, note=76, velocity=69, time=0),\n",
       "   Message('note_on', channel=0, note=65, velocity=0, time=78),\n",
       "   Message('note_on', channel=0, note=65, velocity=73, time=122),\n",
       "   Message('note_on', channel=0, note=77, velocity=65, time=0),\n",
       "   Message('note_on', channel=0, note=77, velocity=0, time=5),\n",
       "   Message('note_on', channel=0, note=76, velocity=0, time=61),\n",
       "   Message('note_on', channel=0, note=64, velocity=0, time=4),\n",
       "   Message('note_on', channel=0, note=55, velocity=0, time=122),\n",
       "   Message('note_on', channel=0, note=64, velocity=75, time=19),\n",
       "   Message('note_on', channel=0, note=76, velocity=64, time=2),\n",
       "   Message('note_on', channel=0, note=65, velocity=0, time=90),\n",
       "   Message('note_on', channel=0, note=65, velocity=69, time=124),\n",
       "   Message('note_on', channel=0, note=77, velocity=61, time=2),\n",
       "   Message('note_on', channel=0, note=77, velocity=0, time=6),\n",
       "   Message('note_on', channel=0, note=64, velocity=0, time=53),\n",
       "   Message('note_on', channel=0, note=76, velocity=0, time=8),\n",
       "   Message('note_on', channel=0, note=55, velocity=83, time=127),\n",
       "   Message('note_on', channel=0, note=52, velocity=75, time=3),\n",
       "   Message('note_on', channel=0, note=47, velocity=0, time=39),\n",
       "   Message('note_on', channel=0, note=65, velocity=0, time=28),\n",
       "   Message('note_on', channel=0, note=79, velocity=73, time=123),\n",
       "   Message('note_on', channel=0, note=67, velocity=80, time=1),\n",
       "   Message('note_on', channel=0, note=79, velocity=0, time=179),\n",
       "   Message('note_on', channel=0, note=78, velocity=72, time=19),\n",
       "   Message('note_on', channel=0, note=66, velocity=79, time=1),\n",
       "   Message('note_on', channel=0, note=67, velocity=0, time=31),\n",
       "   Message('note_on', channel=0, note=78, velocity=0, time=164),\n",
       "   Message('note_on', channel=0, note=52, velocity=0, time=7),\n",
       "   Message('note_on', channel=0, note=79, velocity=75, time=6),\n",
       "   Message('note_on', channel=0, note=52, velocity=60, time=1),\n",
       "   Message('note_on', channel=0, note=67, velocity=80, time=0),\n",
       "   Message('note_on', channel=0, note=66, velocity=0, time=56),\n",
       "   Message('note_on', channel=0, note=79, velocity=0, time=137),\n",
       "   Message('note_on', channel=0, note=78, velocity=68, time=7),\n",
       "   Message('note_on', channel=0, note=66, velocity=74, time=3),\n",
       "   Message('note_on', channel=0, note=67, velocity=0, time=59),\n",
       "   Message('note_on', channel=0, note=78, velocity=0, time=108),\n",
       "   Message('note_on', channel=0, note=79, velocity=67, time=18),\n",
       "   Message('note_on', channel=0, note=67, velocity=70, time=1),\n",
       "   Message('note_on', channel=0, note=66, velocity=0, time=67),\n",
       "   Message('note_on', channel=0, note=79, velocity=0, time=121),\n",
       "   Message('note_on', channel=0, note=78, velocity=65, time=6),\n",
       "   Message('note_on', channel=0, note=66, velocity=70, time=3),\n",
       "   Message('note_on', channel=0, note=67, velocity=0, time=44),\n",
       "   Message('note_on', channel=0, note=79, velocity=71, time=158),\n",
       "   Message('note_on', channel=0, note=67, velocity=76, time=1),\n",
       "   Message('note_on', channel=0, note=66, velocity=0, time=65),\n",
       "   Message('note_on', channel=0, note=78, velocity=0, time=23),\n",
       "   Message('note_on', channel=0, note=55, velocity=0, time=99),\n",
       "   Message('note_on', channel=0, note=48, velocity=73, time=19),\n",
       "   Message('note_on', channel=0, note=81, velocity=69, time=2),\n",
       "   Message('note_on', channel=0, note=57, velocity=69, time=21),\n",
       "   Message('note_on', channel=0, note=67, velocity=0, time=8),\n",
       "   Message('note_on', channel=0, note=52, velocity=0, time=23),\n",
       "   Message('note_on', channel=0, note=81, velocity=0, time=158),\n",
       "   Message('note_on', channel=0, note=81, velocity=76, time=10),\n",
       "   Message('note_on', channel=0, note=69, velocity=80, time=1),\n",
       "   Message('note_on', channel=0, note=79, velocity=0, time=58),\n",
       "   Message('note_on', channel=0, note=80, velocity=75, time=142),\n",
       "   Message('note_on', channel=0, note=68, velocity=82, time=1),\n",
       "   Message('note_on', channel=0, note=69, velocity=0, time=68),\n",
       "   Message('note_on', channel=0, note=81, velocity=0, time=58),\n",
       "   Message('note_on', channel=0, note=81, velocity=70, time=70),\n",
       "   Message('note_on', channel=0, note=69, velocity=75, time=2),\n",
       "   Message('note_on', channel=0, note=68, velocity=0, time=55),\n",
       "   Message('note_on', channel=0, note=80, velocity=0, time=3),\n",
       "   Message('note_on', channel=0, note=80, velocity=73, time=140),\n",
       "   Message('note_on', channel=0, note=68, velocity=78, time=2),\n",
       "   Message('note_on', channel=0, note=69, velocity=0, time=64),\n",
       "   Message('note_on', channel=0, note=81, velocity=0, time=17),\n",
       "   Message('note_on', channel=0, note=81, velocity=76, time=115),\n",
       "   Message('note_on', channel=0, note=69, velocity=80, time=2),\n",
       "   Message('note_on', channel=0, note=80, velocity=0, time=60),\n",
       "   Message('note_on', channel=0, note=68, velocity=0, time=7),\n",
       "   Message('note_on', channel=0, note=71, velocity=79, time=128),\n",
       "   Message('note_on', channel=0, note=69, velocity=0, time=84),\n",
       "   Message('note_on', channel=0, note=81, velocity=0, time=49),\n",
       "   Message('note_on', channel=0, note=48, velocity=0, time=57),\n",
       "   Message('note_on', channel=0, note=72, velocity=81, time=7),\n",
       "   Message('note_on', channel=0, note=76, velocity=58, time=1),\n",
       "   Message('note_on', channel=0, note=71, velocity=0, time=11),\n",
       "   Message('note_on', channel=0, note=57, velocity=0, time=63),\n",
       "   Message('note_on', channel=0, note=55, velocity=63, time=141),\n",
       "   Message('note_on', channel=0, note=52, velocity=60, time=1),\n",
       "   Message('note_on', channel=0, note=72, velocity=0, time=38),\n",
       "   Message('note_on', channel=0, note=52, velocity=0, time=181),\n",
       "   Message('note_on', channel=0, note=67, velocity=55, time=4),\n",
       "   Message('note_on', channel=0, note=52, velocity=40, time=1),\n",
       "   Message('note_on', channel=0, note=66, velocity=64, time=215),\n",
       "   Message('note_on', channel=0, note=76, velocity=0, time=2),\n",
       "   Message('note_on', channel=0, note=67, velocity=0, time=13),\n",
       "   Message('note_on', channel=0, note=79, velocity=68, time=191),\n",
       "   Message('note_on', channel=0, note=67, velocity=73, time=1),\n",
       "   Message('note_on', channel=0, note=66, velocity=0, time=23),\n",
       "   Message('note_on', channel=0, note=78, velocity=61, time=170),\n",
       "   Message('note_on', channel=0, note=66, velocity=65, time=5),\n",
       "   Message('note_on', channel=0, note=79, velocity=0, time=12),\n",
       "   Message('note_on', channel=0, note=67, velocity=0, time=5),\n",
       "   Message('note_on', channel=0, note=52, velocity=0, time=187),\n",
       "   Message('note_on', channel=0, note=78, velocity=0, time=8),\n",
       "   Message('note_on', channel=0, note=79, velocity=67, time=0),\n",
       "   Message('note_on', channel=0, note=52, velocity=48, time=2),\n",
       "   Message('note_on', channel=0, note=67, velocity=73, time=0),\n",
       "   Message('note_on', channel=0, note=66, velocity=0, time=32),\n",
       "   Message('note_on', channel=0, note=79, velocity=0, time=50),\n",
       "   Message('note_on', channel=0, note=78, velocity=60, time=112),\n",
       "   Message('note_on', channel=0, note=66, velocity=66, time=5),\n",
       "   Message('note_on', channel=0, note=78, velocity=0, time=6),\n",
       "   Message('note_on', channel=0, note=67, velocity=0, time=23),\n",
       "   Message('note_on', channel=0, note=79, velocity=64, time=189),\n",
       "   Message('note_on', channel=0, note=67, velocity=68, time=1),\n",
       "   Message('note_on', channel=0, note=66, velocity=0, time=56),\n",
       "   Message('note_on', channel=0, note=79, velocity=0, time=31),\n",
       "   Message('note_on', channel=0, note=55, velocity=0, time=100),\n",
       "   Message('note_on', channel=0, note=47, velocity=67, time=6),\n",
       "   Message('note_on', channel=0, note=55, velocity=72, time=3),\n",
       "   Message('note_on', channel=0, note=79, velocity=64, time=3),\n",
       "   Message('note_on', channel=0, note=52, velocity=0, time=41),\n",
       "   Message('control_change', channel=0, control=64, value=127, time=69),\n",
       "   Message('note_on', channel=0, note=65, velocity=62, time=107),\n",
       "   Message('note_on', channel=0, note=77, velocity=56, time=4),\n",
       "   Message('note_on', channel=0, note=79, velocity=0, time=97),\n",
       "   Message('control_change', channel=0, control=64, value=0, time=99),\n",
       "   Message('note_on', channel=0, note=64, velocity=66, time=9),\n",
       "   Message('note_on', channel=0, note=76, velocity=55, time=2),\n",
       "   Message('note_on', channel=0, note=65, velocity=0, time=70),\n",
       "   Message('note_on', channel=0, note=77, velocity=0, time=42),\n",
       "   Message('note_on', channel=0, note=65, velocity=63, time=68),\n",
       "   Message('note_on', channel=0, note=77, velocity=57, time=1),\n",
       "   Message('note_on', channel=0, note=64, velocity=0, time=44),\n",
       "   Message('note_on', channel=0, note=76, velocity=0, time=4),\n",
       "   Message('note_on', channel=0, note=67, velocity=0, time=45),\n",
       "   Message('note_on', channel=0, note=64, velocity=78, time=141),\n",
       "   Message('note_on', channel=0, note=76, velocity=65, time=1),\n",
       "   Message('note_on', channel=0, note=65, velocity=0, time=70),\n",
       "   Message('note_on', channel=0, note=77, velocity=0, time=18),\n",
       "   Message('note_on', channel=0, note=65, velocity=67, time=109),\n",
       "   Message('note_on', channel=0, note=77, velocity=61, time=1),\n",
       "   Message('note_on', channel=0, note=76, velocity=0, time=50),\n",
       "   Message('note_on', channel=0, note=64, velocity=0, time=7),\n",
       "   Message('note_on', channel=0, note=64, velocity=77, time=161),\n",
       "   Message('note_on', channel=0, note=76, velocity=65, time=0),\n",
       "   Message('note_on', channel=0, note=77, velocity=0, time=2),\n",
       "   Message('note_on', channel=0, note=65, velocity=0, time=90),\n",
       "   Message('note_on', channel=0, note=65, velocity=70, time=131),\n",
       "   Message('note_on', channel=0, note=77, velocity=64, time=1),\n",
       "   Message('note_on', channel=0, note=64, velocity=0, time=46),\n",
       "   Message('note_on', channel=0, note=76, velocity=0, time=5),\n",
       "   Message('note_on', channel=0, note=55, velocity=0, time=19),\n",
       "   Message('note_on', channel=0, note=48, velocity=68, time=135),\n",
       "   Message('note_on', channel=0, note=55, velocity=63, time=1),\n",
       "   Message('note_on', channel=0, note=79, velocity=58, time=2),\n",
       "   Message('note_on', channel=0, note=77, velocity=0, time=0),\n",
       "   Message('note_on', channel=0, note=79, velocity=0, time=8),\n",
       "   Message('note_on', channel=0, note=47, velocity=0, time=46),\n",
       "   Message('note_on', channel=0, note=65, velocity=0, time=5),\n",
       "   Message('note_on', channel=0, note=64, velocity=69, time=134),\n",
       "   Message('note_on', channel=0, note=76, velocity=58, time=3),\n",
       "   Message('note_on', channel=0, note=48, velocity=0, time=204),\n",
       "   Message('note_on', channel=0, note=48, velocity=48, time=10),\n",
       "   Message('note_on', channel=0, note=63, velocity=66, time=2),\n",
       "   Message('note_on', channel=0, note=75, velocity=59, time=2),\n",
       "   Message('note_on', channel=0, note=75, velocity=0, time=55),\n",
       "   Message('note_on', channel=0, note=64, velocity=0, time=11),\n",
       "   Message('note_on', channel=0, note=76, velocity=0, time=4),\n",
       "   Message('note_on', channel=0, note=63, velocity=0, time=16),\n",
       "   Message('note_on', channel=0, note=64, velocity=67, time=104),\n",
       "   Message('note_on', channel=0, note=76, velocity=54, time=2),\n",
       "   Message('note_on', channel=0, note=63, velocity=69, time=205),\n",
       "   Message('note_on', channel=0, note=75, velocity=62, time=2),\n",
       "   Message('note_on', channel=0, note=76, velocity=0, time=48),\n",
       "   Message('note_on', channel=0, note=64, velocity=0, time=33),\n",
       "   Message('note_on', channel=0, note=63, velocity=0, time=51),\n",
       "   Message('note_on', channel=0, note=75, velocity=0, time=0),\n",
       "   Message('note_on', channel=0, note=64, velocity=66, time=66),\n",
       "   Message('note_on', channel=0, note=76, velocity=54, time=1),\n",
       "   Message('note_on', channel=0, note=63, velocity=64, time=211),\n",
       "   Message('note_on', channel=0, note=75, velocity=57, time=1),\n",
       "   Message('note_on', channel=0, note=76, velocity=0, time=28),\n",
       "   Message('note_on', channel=0, note=64, velocity=0, time=30),\n",
       "   Message('note_on', channel=0, note=48, velocity=0, time=56),\n",
       "   Message('note_on', channel=0, note=55, velocity=0, time=14),\n",
       "   Message('note_on', channel=0, note=64, velocity=64, time=76),\n",
       "   Message('note_on', channel=0, note=76, velocity=56, time=3),\n",
       "   Message('note_on', channel=0, note=63, velocity=0, time=29),\n",
       "   Message('note_on', channel=0, note=75, velocity=0, time=7),\n",
       "   Message('note_on', channel=0, note=47, velocity=51, time=217),\n",
       "   Message('note_on', channel=0, note=74, velocity=54, time=1),\n",
       "   Message('note_on', channel=0, note=62, velocity=53, time=1),\n",
       "   Message('note_on', channel=0, note=76, velocity=0, time=4),\n",
       "   Message('note_on', channel=0, note=55, velocity=50, time=3),\n",
       "   Message('note_on', channel=0, note=64, velocity=0, time=41),\n",
       "   Message('note_on', channel=0, note=74, velocity=0, time=102),\n",
       "   Message('control_change', channel=0, control=64, value=127, time=77),\n",
       "   Message('note_on', channel=0, note=47, velocity=0, time=1079),\n",
       "   Message('note_on', channel=0, note=55, velocity=0, time=43),\n",
       "   Message('control_change', channel=0, control=64, value=0, time=50),\n",
       "   Message('note_on', channel=0, note=62, velocity=0, time=38),\n",
       "   Message('note_on', channel=0, note=48, velocity=61, time=211),\n",
       "   Message('note_on', channel=0, note=55, velocity=61, time=3),\n",
       "   Message('note_on', channel=0, note=67, velocity=56, time=2),\n",
       "   Message('control_change', channel=0, control=64, value=127, time=41),\n",
       "   Message('note_on', channel=0, note=64, velocity=59, time=181),\n",
       "   Message('note_on', channel=0, note=63, velocity=66, time=178),\n",
       "   Message('note_on', channel=0, note=75, velocity=60, time=2),\n",
       "   Message('control_change', channel=0, control=64, value=0, time=9),\n",
       "   Message('note_on', channel=0, note=64, velocity=0, time=41),\n",
       "   Message('note_on', channel=0, note=75, velocity=0, time=19),\n",
       "   Message('note_on', channel=0, note=63, velocity=0, time=7),\n",
       "   Message('note_on', channel=0, note=64, velocity=80, time=136),\n",
       "   Message('note_on', channel=0, note=76, velocity=68, time=1),\n",
       "   Message('note_on', channel=0, note=76, velocity=0, time=178),\n",
       "   Message('note_on', channel=0, note=63, velocity=81, time=24),\n",
       "   Message('note_on', channel=0, note=75, velocity=68, time=2),\n",
       "   Message('note_on', channel=0, note=64, velocity=0, time=88),\n",
       "   Message('note_on', channel=0, note=67, velocity=0, time=2),\n",
       "   Message('note_on', channel=0, note=75, velocity=0, time=53),\n",
       "   Message('note_on', channel=0, note=64, velocity=77, time=54),\n",
       "   Message('note_on', channel=0, note=76, velocity=65, time=1),\n",
       "   Message('note_on', channel=0, note=63, velocity=0, time=30),\n",
       "   Message('note_on', channel=0, note=63, velocity=73, time=171),\n",
       "   Message('note_on', channel=0, note=75, velocity=69, time=1),\n",
       "   Message('note_on', channel=0, note=76, velocity=0, time=4),\n",
       "   Message('note_on', channel=0, note=64, velocity=0, time=73),\n",
       "   Message('note_on', channel=0, note=75, velocity=0, time=104),\n",
       "   Message('note_on', channel=0, note=64, velocity=69, time=19),\n",
       "   Message('note_on', channel=0, note=76, velocity=58, time=0),\n",
       "   Message('note_on', channel=0, note=75, velocity=55, time=1),\n",
       "   Message('note_on', channel=0, note=76, velocity=0, time=11),\n",
       "   Message('note_on', channel=0, note=48, velocity=0, time=14),\n",
       "   Message('note_on', channel=0, note=55, velocity=0, time=11),\n",
       "   Message('note_on', channel=0, note=63, velocity=0, time=15),\n",
       "   Message('note_on', channel=0, note=75, velocity=0, time=129),\n",
       "   Message('note_on', channel=0, note=47, velocity=74, time=19),\n",
       "   Message('note_on', channel=0, note=55, velocity=73, time=1),\n",
       "   Message('control_change', channel=0, control=64, value=127, time=57),\n",
       "   Message('note_on', channel=0, note=64, velocity=0, time=42),\n",
       "   Message('control_change', channel=0, control=64, value=0, time=19),\n",
       "   Message('control_change', channel=0, control=64, value=127, time=84),\n",
       "   Message('note_on', channel=0, note=77, velocity=67, time=18),\n",
       "   Message('note_on', channel=0, note=65, velocity=75, time=0),\n",
       "   Message('note_on', channel=0, note=64, velocity=81, time=193),\n",
       "   Message('note_on', channel=0, note=76, velocity=70, time=1),\n",
       "   Message('control_change', channel=0, control=64, value=0, time=11),\n",
       "   Message('note_on', channel=0, note=77, velocity=0, time=69),\n",
       "   Message('note_on', channel=0, note=65, velocity=0, time=11),\n",
       "   Message('note_on', channel=0, note=77, velocity=63, time=102),\n",
       "   Message('note_on', channel=0, note=65, velocity=72, time=1),\n",
       "   Message('note_on', channel=0, note=76, velocity=0, time=9),\n",
       "   Message('note_on', channel=0, note=64, velocity=0, time=49),\n",
       "   Message('note_on', channel=0, note=77, velocity=0, time=166),\n",
       "   Message('note_on', channel=0, note=64, velocity=84, time=5),\n",
       "   Message('note_on', channel=0, note=76, velocity=73, time=1),\n",
       "   Message('note_on', channel=0, note=65, velocity=0, time=95),\n",
       "   Message('note_on', channel=0, note=65, velocity=74, time=87),\n",
       "   Message('note_on', channel=0, note=77, velocity=62, time=1),\n",
       "   Message('note_on', channel=0, note=76, velocity=0, time=72),\n",
       "   Message('note_on', channel=0, note=64, velocity=0, time=11),\n",
       "   Message('note_on', channel=0, note=77, velocity=0, time=35),\n",
       "   Message('note_on', channel=0, note=64, velocity=78, time=89),\n",
       "   Message('note_on', channel=0, note=76, velocity=66, time=0),\n",
       "   Message('note_on', channel=0, note=65, velocity=0, time=99),\n",
       "   Message('note_on', channel=0, note=55, velocity=0, time=31),\n",
       "   Message('note_on', channel=0, note=77, velocity=68, time=75),\n",
       "   Message('note_on', channel=0, note=65, velocity=73, time=0),\n",
       "   Message('note_on', channel=0, note=77, velocity=0, time=6),\n",
       "   Message('note_on', channel=0, note=64, velocity=0, time=64),\n",
       "   Message('note_on', channel=0, note=76, velocity=0, time=5),\n",
       "   Message('note_on', channel=0, note=55, velocity=82, time=130),\n",
       "   Message('note_on', channel=0, note=52, velocity=75, time=3),\n",
       "   Message('note_on', channel=0, note=47, velocity=0, time=51),\n",
       "   Message('note_on', channel=0, note=65, velocity=0, time=35),\n",
       "   Message('note_on', channel=0, note=52, velocity=0, time=104),\n",
       "   Message('note_on', channel=0, note=79, velocity=69, time=4),\n",
       "   Message('note_on', channel=0, note=52, velocity=58, time=0),\n",
       "   Message('note_on', channel=0, note=67, velocity=76, time=0),\n",
       "   Message('note_on', channel=0, note=79, velocity=0, time=65),\n",
       "   Message('note_on', channel=0, note=78, velocity=69, time=142),\n",
       "   Message('note_on', channel=0, note=66, velocity=77, time=2),\n",
       "   Message('note_on', channel=0, note=67, velocity=0, time=22),\n",
       "   Message('note_on', channel=0, note=52, velocity=0, time=187),\n",
       "   Message('note_on', channel=0, note=79, velocity=74, time=3),\n",
       "   Message('note_on', channel=0, note=67, velocity=82, time=2),\n",
       "   Message('note_on', channel=0, note=52, velocity=59, time=3),\n",
       "   Message('note_on', channel=0, note=66, velocity=0, time=43),\n",
       "   Message('note_on', channel=0, note=78, velocity=0, time=3),\n",
       "   Message('note_on', channel=0, note=78, velocity=73, time=154),\n",
       "   Message('note_on', channel=0, note=66, velocity=79, time=2),\n",
       "   Message('note_on', channel=0, note=79, velocity=0, time=13),\n",
       "   Message('note_on', channel=0, note=67, velocity=0, time=62),\n",
       "   Message('note_on', channel=0, note=52, velocity=0, time=114),\n",
       "   Message('note_on', channel=0, note=52, velocity=57, time=4),\n",
       "   Message('note_on', channel=0, note=79, velocity=74, time=1),\n",
       "   Message('note_on', channel=0, note=67, velocity=81, time=2),\n",
       "   Message('note_on', channel=0, note=66, velocity=0, time=65),\n",
       "   Message('note_on', channel=0, note=78, velocity=0, time=0),\n",
       "   Message('note_on', channel=0, note=52, velocity=0, time=120),\n",
       "   Message('note_on', channel=0, note=78, velocity=71, time=7),\n",
       "   Message('note_on', channel=0, note=79, velocity=0, time=1),\n",
       "   Message('note_on', channel=0, note=52, velocity=53, time=3),\n",
       "   Message('note_on', channel=0, note=66, velocity=76, time=0),\n",
       "   Message('note_on', channel=0, note=67, velocity=0, time=59),\n",
       "   Message('note_on', channel=0, note=55, velocity=0, time=140),\n",
       "   Message('note_on', channel=0, note=79, velocity=71, time=9),\n",
       "   Message('note_on', channel=0, note=67, velocity=78, time=0),\n",
       "   Message('note_on', channel=0, note=78, velocity=0, time=50),\n",
       "   Message('note_on', channel=0, note=66, velocity=0, time=27),\n",
       "   Message('note_on', channel=0, note=57, velocity=79, time=109),\n",
       "   Message('note_on', channel=0, note=60, velocity=70, time=2),\n",
       "   Message('note_on', channel=0, note=48, velocity=73, time=1),\n",
       "   Message('note_on', channel=0, note=81, velocity=72, time=2),\n",
       "   Message('note_on', channel=0, note=67, velocity=0, time=18),\n",
       "   Message('note_on', channel=0, note=52, velocity=0, time=30),\n",
       "   Message('note_on', channel=0, note=79, velocity=0, time=65),\n",
       "   Message('note_on', channel=0, note=81, velocity=0, time=84),\n",
       "   Message('note_on', channel=0, note=81, velocity=84, time=8),\n",
       "   Message('note_on', channel=0, note=69, velocity=88, time=2),\n",
       "   Message('note_on', channel=0, note=80, velocity=75, time=196),\n",
       "   Message('note_on', channel=0, note=68, velocity=86, time=0),\n",
       "   Message('note_on', channel=0, note=69, velocity=0, time=56),\n",
       "   Message('note_on', channel=0, note=81, velocity=0, time=84),\n",
       "   Message('note_on', channel=0, note=81, velocity=76, time=60),\n",
       "   Message('note_on', channel=0, note=69, velocity=82, time=2),\n",
       "   Message('note_on', channel=0, note=68, velocity=0, time=54),\n",
       "   Message('note_on', channel=0, note=80, velocity=0, time=22),\n",
       "   Message('note_on', channel=0, note=80, velocity=78, time=125),\n",
       "   Message('note_on', channel=0, note=68, velocity=87, time=1),\n",
       "   Message('note_on', channel=0, note=69, velocity=0, time=44),\n",
       "   Message('note_on', channel=0, note=81, velocity=0, time=53),\n",
       "   Message('note_on', channel=0, note=81, velocity=80, time=105),\n",
       "   Message('note_on', channel=0, note=69, velocity=84, time=1),\n",
       "   Message('note_on', channel=0, note=68, velocity=0, time=64),\n",
       "   Message('note_on', channel=0, note=80, velocity=0, time=22),\n",
       "   Message('note_on', channel=0, note=71, velocity=80, time=115),\n",
       "   Message('note_on', channel=0, note=69, velocity=0, time=89),\n",
       "   Message('note_on', channel=0, note=60, velocity=0, time=80),\n",
       "   Message('note_on', channel=0, note=72, velocity=88, time=25),\n",
       "   Message('note_on', channel=0, note=76, velocity=64, time=0),\n",
       "   Message('note_on', channel=0, note=71, velocity=0, time=25),\n",
       "   Message('note_on', channel=0, note=81, velocity=0, time=11),\n",
       "   Message('note_on', channel=0, note=55, velocity=67, time=186),\n",
       "   Message('note_on', channel=0, note=52, velocity=57, time=16),\n",
       "   Message('note_on', channel=0, note=67, velocity=46, time=2),\n",
       "   Message('note_on', channel=0, note=67, velocity=0, time=11),\n",
       "   Message('note_on', channel=0, note=72, velocity=0, time=10),\n",
       "   Message('note_on', channel=0, note=52, velocity=0, time=152),\n",
       "   Message('note_on', channel=0, note=52, velocity=51, time=10),\n",
       "   Message('note_on', channel=0, note=79, velocity=67, time=1),\n",
       "   Message('note_on', channel=0, note=67, velocity=71, time=0),\n",
       "   Message('control_change', channel=0, control=64, value=127, time=42),\n",
       "   Message('note_on', channel=0, note=76, velocity=0, time=8),\n",
       "   Message('note_on', channel=0, note=79, velocity=0, time=154),\n",
       "   Message('note_on', channel=0, note=78, velocity=68, time=2),\n",
       "   Message('note_on', channel=0, note=66, velocity=71, time=1),\n",
       "   Message('control_change', channel=0, control=64, value=0, time=9),\n",
       "   Message('note_on', channel=0, note=67, velocity=0, time=21),\n",
       "   Message('note_on', channel=0, note=48, velocity=0, time=113),\n",
       "   Message('note_on', channel=0, note=57, velocity=0, time=0),\n",
       "   Message('note_on', channel=0, note=79, velocity=70, time=49),\n",
       "   Message('note_on', channel=0, note=67, velocity=74, time=1),\n",
       "   Message('note_on', channel=0, note=66, velocity=0, time=38),\n",
       "   Message('note_on', channel=0, note=78, velocity=0, time=4),\n",
       "   Message('note_on', channel=0, note=79, velocity=0, time=161),\n",
       "   Message('note_on', channel=0, note=78, velocity=63, time=12),\n",
       "   Message('note_on', channel=0, note=66, velocity=65, time=2),\n",
       "   Message('note_on', channel=0, note=67, velocity=0, time=21),\n",
       "   Message('note_on', channel=0, note=78, velocity=0, time=103),\n",
       "   Message('note_on', channel=0, note=52, velocity=0, time=54),\n",
       "   Message('note_on', channel=0, note=55, velocity=0, time=8),\n",
       "   Message('note_on', channel=0, note=79, velocity=66, time=1),\n",
       "   Message('note_on', channel=0, note=52, velocity=49, time=2),\n",
       "   Message('note_on', channel=0, note=67, velocity=70, time=0),\n",
       "   Message('note_on', channel=0, note=55, velocity=41, time=1),\n",
       "   Message('note_on', channel=0, note=66, velocity=0, time=38),\n",
       "   Message('note_on', channel=0, note=79, velocity=0, time=73),\n",
       "   Message('note_on', channel=0, note=66, velocity=64, time=98),\n",
       "   Message('note_on', channel=0, note=52, velocity=0, time=2),\n",
       "   Message('note_on', channel=0, note=52, velocity=41, time=4),\n",
       "   Message('note_on', channel=0, note=67, velocity=0, time=16),\n",
       "   Message('note_on', channel=0, note=79, velocity=68, time=185),\n",
       "   Message('note_on', channel=0, note=67, velocity=75, time=1),\n",
       "   Message('note_on', channel=0, note=52, velocity=0, time=3),\n",
       "   Message('note_on', channel=0, note=55, velocity=0, time=10),\n",
       "   Message('note_on', channel=0, note=66, velocity=0, time=87),\n",
       "   Message('note_on', channel=0, note=47, velocity=66, time=91),\n",
       "   Message('note_on', channel=0, note=67, velocity=0, time=2),\n",
       "   Message('note_on', channel=0, note=79, velocity=0, time=0),\n",
       "   Message('note_on', channel=0, note=55, velocity=69, time=4),\n",
       "   Message('note_on', channel=0, note=79, velocity=65, time=0),\n",
       "   Message('note_on', channel=0, note=67, velocity=59, time=7),\n",
       "   Message('note_on', channel=0, note=79, velocity=0, time=135),\n",
       "   Message('note_on', channel=0, note=65, velocity=66, time=72),\n",
       "   Message('note_on', channel=0, note=77, velocity=58, time=1),\n",
       "   Message('control_change', channel=0, control=64, value=127, time=19),\n",
       "   Message('control_change', channel=0, control=64, value=0, time=169),\n",
       "   Message('note_on', channel=0, note=64, velocity=74, time=1),\n",
       "   Message('note_on', channel=0, note=76, velocity=63, time=2),\n",
       "   Message('note_on', channel=0, note=67, velocity=0, time=74),\n",
       "   Message('note_on', channel=0, note=65, velocity=0, time=5),\n",
       "   Message('note_on', channel=0, note=77, velocity=0, time=41),\n",
       "   Message('note_on', channel=0, note=55, velocity=0, time=69),\n",
       "   Message('note_on', channel=0, note=55, velocity=48, time=5),\n",
       "   Message('note_on', channel=0, note=65, velocity=67, time=9),\n",
       "   Message('note_on', channel=0, note=77, velocity=62, time=0),\n",
       "   Message('note_on', channel=0, note=76, velocity=0, time=65),\n",
       "   Message('note_on', channel=0, note=64, velocity=0, time=4),\n",
       "   Message('note_on', channel=0, note=55, velocity=0, time=147),\n",
       "   Message('note_on', channel=0, note=55, velocity=49, time=5),\n",
       "   Message('note_on', channel=0, note=62, velocity=61, time=4),\n",
       "   Message('note_on', channel=0, note=74, velocity=56, time=2),\n",
       "   Message('note_on', channel=0, note=74, velocity=0, time=5),\n",
       "   Message('note_on', channel=0, note=77, velocity=0, time=31),\n",
       "   Message('note_on', channel=0, note=65, velocity=0, time=28),\n",
       "   Message('note_on', channel=0, note=64, velocity=74, time=137),\n",
       "   Message('note_on', channel=0, note=76, velocity=62, time=2),\n",
       "   Message('note_on', channel=0, note=47, velocity=0, time=8),\n",
       "   Message('note_on', channel=0, note=62, velocity=0, time=49),\n",
       "   Message('note_on', channel=0, note=55, velocity=0, time=15),\n",
       "   Message('note_on', channel=0, note=55, velocity=60, time=143),\n",
       "   Message('note_on', channel=0, note=48, velocity=66, time=2),\n",
       "   Message('note_on', channel=0, note=64, velocity=0, time=69),\n",
       "   Message('note_on', channel=0, note=76, velocity=0, time=7),\n",
       "   Message('note_on', channel=0, note=64, velocity=66, time=95),\n",
       "   Message('note_on', channel=0, note=48, velocity=0, time=213),\n",
       "   Message('note_on', channel=0, note=48, velocity=48, time=5),\n",
       "   Message('note_on', channel=0, note=63, velocity=69, time=6),\n",
       "   Message('note_on', channel=0, note=75, velocity=61, time=0),\n",
       "   Message('note_on', channel=0, note=63, velocity=0, time=4),\n",
       "   Message('note_on', channel=0, note=64, velocity=0, time=44),\n",
       "   Message('note_on', channel=0, note=48, velocity=0, time=148),\n",
       "   Message('note_on', channel=0, note=75, velocity=0, time=0),\n",
       "   Message('note_on', channel=0, note=48, velocity=41, time=6),\n",
       "   Message('note_on', channel=0, note=64, velocity=69, time=4),\n",
       "   Message('note_on', channel=0, note=76, velocity=57, time=2),\n",
       "   Message('note_on', channel=0, note=48, velocity=0, time=180),\n",
       "   Message('note_on', channel=0, note=48, velocity=46, time=11),\n",
       "   Message('note_on', channel=0, note=63, velocity=69, time=4),\n",
       "   Message('note_on', channel=0, note=75, velocity=59, time=2),\n",
       "   Message('note_on', channel=0, note=76, velocity=0, time=60),\n",
       "   Message('note_on', channel=0, note=64, velocity=0, time=11),\n",
       "   Message('note_on', channel=0, note=63, velocity=0, time=19),\n",
       "   Message('note_on', channel=0, note=48, velocity=0, time=116),\n",
       "   Message('note_on', channel=0, note=64, velocity=65, time=6),\n",
       "   Message('note_on', channel=0, note=48, velocity=39, time=3),\n",
       "   Message('note_on', channel=0, note=76, velocity=54, time=1),\n",
       "   Message('note_on', channel=0, note=75, velocity=0, time=28),\n",
       "   Message('note_on', channel=0, note=76, velocity=0, time=169),\n",
       "   Message('note_on', channel=0, note=63, velocity=67, time=18),\n",
       "   Message('note_on', channel=0, note=75, velocity=56, time=2),\n",
       "   Message('note_on', channel=0, note=64, velocity=0, time=46),\n",
       "   Message('note_on', channel=0, note=63, velocity=0, time=18),\n",
       "   Message('note_on', channel=0, note=48, velocity=0, time=139),\n",
       "   Message('note_on', channel=0, note=48, velocity=41, time=9),\n",
       "   Message('note_on', channel=0, note=64, velocity=65, time=1),\n",
       "   Message('note_on', channel=0, note=76, velocity=54, time=2),\n",
       "   Message('note_on', channel=0, note=76, velocity=0, time=11),\n",
       "   Message('note_on', channel=0, note=75, velocity=0, time=23),\n",
       "   Message('note_on', channel=0, note=60, velocity=61, time=220),\n",
       "   Message('note_on', channel=0, note=64, velocity=0, time=63),\n",
       "   Message('note_on', channel=0, note=55, velocity=0, time=1237),\n",
       "   Message('note_on', channel=0, note=48, velocity=0, time=3),\n",
       "   Message('note_on', channel=0, note=60, velocity=0, time=12),\n",
       "   Message('note_on', channel=0, note=58, velocity=68, time=5466),\n",
       "   Message('note_on', channel=0, note=58, velocity=0, time=567),\n",
       "   Message('note_on', channel=0, note=58, velocity=57, time=136),\n",
       "   Message('note_on', channel=0, note=58, velocity=0, time=172),\n",
       "   Message('note_on', channel=0, note=58, velocity=57, time=116),\n",
       "   Message('note_on', channel=0, note=58, velocity=0, time=142),\n",
       "   Message('note_on', channel=0, note=62, velocity=73, time=181),\n",
       "   Message('note_on', channel=0, note=58, velocity=76, time=34),\n",
       "   Message('control_change', channel=0, control=64, value=127, time=460),\n",
       "   Message('control_change', channel=0, control=64, value=0, time=72),\n",
       "   Message('note_on', channel=0, note=58, velocity=0, time=5),\n",
       "   Message('note_on', channel=0, note=62, velocity=0, time=0),\n",
       "   Message('note_on', channel=0, note=62, velocity=55, time=104),\n",
       "   Message('note_on', channel=0, note=58, velocity=53, time=1),\n",
       "   Message('note_on', channel=0, note=58, velocity=0, time=143),\n",
       "   Message('note_on', channel=0, note=62, velocity=0, time=32),\n",
       "   Message('note_on', channel=0, note=46, velocity=50, time=91),\n",
       "   Message('note_on', channel=0, note=62, velocity=65, time=3),\n",
       "   Message('note_on', channel=0, note=46, velocity=0, time=2),\n",
       "   Message('note_on', channel=0, note=58, velocity=65, time=6),\n",
       "   Message('note_on', channel=0, note=58, velocity=0, time=117),\n",
       "   Message('note_on', channel=0, note=62, velocity=0, time=48),\n",
       "   Message('note_on', channel=0, note=65, velocity=80, time=152),\n",
       "   Message('note_on', channel=0, note=53, velocity=58, time=4),\n",
       "   Message('note_on', channel=0, note=58, velocity=78, time=0),\n",
       "   Message('note_on', channel=0, note=62, velocity=72, time=1),\n",
       "   Message('note_on', channel=0, note=53, velocity=0, time=71),\n",
       "   Message('control_change', channel=0, control=64, value=127, time=115),\n",
       "   Message('note_on', channel=0, note=58, velocity=0, time=292),\n",
       "   Message('note_on', channel=0, note=65, velocity=0, time=4),\n",
       "   Message('note_on', channel=0, note=62, velocity=0, time=1),\n",
       "   Message('control_change', channel=0, control=64, value=0, time=8),\n",
       "   Message('note_on', channel=0, note=65, velocity=74, time=117),\n",
       "   Message('note_on', channel=0, note=53, velocity=55, time=1),\n",
       "   Message('note_on', channel=0, note=58, velocity=69, time=4),\n",
       "   Message('note_on', channel=0, note=62, velocity=65, time=0),\n",
       "   Message('note_on', channel=0, note=53, velocity=0, time=80),\n",
       "   Message('note_on', channel=0, note=65, velocity=0, time=109),\n",
       "   Message('note_on', channel=0, note=62, velocity=0, time=3),\n",
       "   Message('note_on', channel=0, note=58, velocity=0, time=0),\n",
       "   Message('note_on', channel=0, note=65, velocity=76, time=86),\n",
       "   Message('note_on', channel=0, note=62, velocity=68, time=6),\n",
       "   Message('note_on', channel=0, note=58, velocity=72, time=3),\n",
       "   Message('note_on', channel=0, note=58, velocity=0, time=144),\n",
       "   Message('note_on', channel=0, note=65, velocity=0, time=7),\n",
       "   Message('note_on', channel=0, note=62, velocity=0, time=34),\n",
       "   Message('note_on', channel=0, note=63, velocity=83, time=157),\n",
       "   Message('note_on', channel=0, note=65, velocity=80, time=1),\n",
       "   Message('note_on', channel=0, note=53, velocity=70, time=6),\n",
       "   Message('control_change', channel=0, control=64, value=127, time=235),\n",
       "   Message('control_change', channel=0, control=64, value=0, time=16),\n",
       "   Message('control_change', channel=0, control=64, value=127, time=84),\n",
       "   Message('control_change', channel=0, control=64, value=0, time=627),\n",
       "   Message('note_on', channel=0, note=53, velocity=0, time=1),\n",
       "   Message('note_on', channel=0, note=63, velocity=0, time=1),\n",
       "   Message('note_on', channel=0, note=65, velocity=0, time=5),\n",
       "   Message('note_on', channel=0, note=65, velocity=58, time=400),\n",
       "   Message('note_on', channel=0, note=53, velocity=31, time=24),\n",
       "   Message('note_on', channel=0, note=58, velocity=53, time=2),\n",
       "   Message('note_on', channel=0, note=62, velocity=39, time=4),\n",
       "   Message('control_change', channel=0, control=64, value=127, time=273),\n",
       "   Message('note_on', channel=0, note=58, velocity=0, time=157),\n",
       "   Message('control_change', channel=0, control=64, value=0, time=4),\n",
       "   Message('note_on', channel=0, note=62, velocity=0, time=2),\n",
       "   Message('note_on', channel=0, note=65, velocity=0, time=19),\n",
       "   Message('note_on', channel=0, note=53, velocity=0, time=10),\n",
       "   Message('note_on', channel=0, note=58, velocity=62, time=148),\n",
       "   Message('note_on', channel=0, note=62, velocity=58, time=1),\n",
       "   Message('note_on', channel=0, note=65, velocity=60, time=1),\n",
       "   Message('note_on', channel=0, note=58, velocity=0, time=162),\n",
       "   Message('note_on', channel=0, note=62, velocity=0, time=7),\n",
       "   Message('note_on', channel=0, note=65, velocity=0, time=7),\n",
       "   Message('note_on', channel=0, note=58, velocity=66, time=92),\n",
       "   Message('note_on', channel=0, note=62, velocity=65, time=0),\n",
       "   Message('note_on', channel=0, note=53, velocity=51, time=1),\n",
       "   Message('note_on', channel=0, note=50, velocity=53, time=1),\n",
       "   Message('note_on', channel=0, note=46, velocity=56, time=1),\n",
       "   Message('note_on', channel=0, note=65, velocity=62, time=0),\n",
       "   Message('note_on', channel=0, note=46, velocity=0, time=9),\n",
       "   Message('note_on', channel=0, note=50, velocity=0, time=46),\n",
       "   Message('note_on', channel=0, note=58, velocity=0, time=101),\n",
       "   Message('note_on', channel=0, note=65, velocity=0, time=26),\n",
       "   Message('note_on', channel=0, note=53, velocity=0, time=3),\n",
       "   Message('note_on', channel=0, note=62, velocity=0, time=22),\n",
       "   Message('note_on', channel=0, note=63, velocity=74, time=113),\n",
       "   Message('note_on', channel=0, note=58, velocity=72, time=0),\n",
       "   Message('note_on', channel=0, note=53, velocity=58, time=1),\n",
       "   Message('note_on', channel=0, note=65, velocity=67, time=0),\n",
       "   Message('note_on', channel=0, note=70, velocity=68, time=1),\n",
       "   Message('note_on', channel=0, note=65, velocity=0, time=453),\n",
       "   Message('note_on', channel=0, note=53, velocity=0, time=9),\n",
       "   Message('note_on', channel=0, note=63, velocity=0, time=13),\n",
       "   Message('note_on', channel=0, note=57, velocity=75, time=155),\n",
       "   Message('note_on', channel=0, note=63, velocity=71, time=2),\n",
       "   Message('note_on', channel=0, note=75, velocity=72, time=3),\n",
       "   Message('note_on', channel=0, note=65, velocity=65, time=0),\n",
       "   Message('note_on', channel=0, note=58, velocity=0, time=17),\n",
       "   Message('note_on', channel=0, note=70, velocity=0, time=71),\n",
       "   Message('note_on', channel=0, note=65, velocity=0, time=303),\n",
       "   Message('note_on', channel=0, note=63, velocity=0, time=7),\n",
       "   Message('note_on', channel=0, note=75, velocity=0, time=21),\n",
       "   Message('note_on', channel=0, note=55, velocity=73, time=183),\n",
       "   Message('note_on', channel=0, note=75, velocity=71, time=4),\n",
       "   Message('note_on', channel=0, note=63, velocity=68, time=1),\n",
       "   Message('note_on', channel=0, note=67, velocity=62, time=2),\n",
       "   Message('note_on', channel=0, note=65, velocity=66, time=0),\n",
       "   Message('note_on', channel=0, note=57, velocity=0, time=9),\n",
       "   Message('note_on', channel=0, note=65, velocity=0, time=428),\n",
       "   Message('note_on', channel=0, note=63, velocity=0, time=16),\n",
       "   Message('note_on', channel=0, note=65, velocity=65, time=127),\n",
       "   Message('note_on', channel=0, note=57, velocity=74, time=6),\n",
       "   Message('note_on', channel=0, note=63, velocity=64, time=4),\n",
       "   Message('note_on', channel=0, note=55, velocity=0, time=49),\n",
       "   Message('note_on', channel=0, note=67, velocity=0, time=15),\n",
       "   Message('note_on', channel=0, note=65, velocity=0, time=96),\n",
       "   Message('note_on', channel=0, note=63, velocity=0, time=20),\n",
       "   Message('note_on', channel=0, note=57, velocity=0, time=27),\n",
       "   Message('note_on', channel=0, note=75, velocity=0, time=3),\n",
       "   Message('note_on', channel=0, note=57, velocity=70, time=81),\n",
       "   Message('note_on', channel=0, note=63, velocity=64, time=8),\n",
       "   Message('note_on', channel=0, note=65, velocity=63, time=0),\n",
       "   Message('note_on', channel=0, note=75, velocity=62, time=5),\n",
       "   Message('note_on', channel=0, note=65, velocity=0, time=170),\n",
       "   Message('note_on', channel=0, note=63, velocity=0, time=21),\n",
       "   Message('note_on', channel=0, note=75, velocity=0, time=15),\n",
       "   Message('note_on', channel=0, note=57, velocity=0, time=84),\n",
       "   Message('note_on', channel=0, note=53, velocity=72, time=47),\n",
       "   Message('note_on', channel=0, note=65, velocity=69, time=2),\n",
       "   Message('note_on', channel=0, note=56, velocity=59, time=1),\n",
       "   Message('note_on', channel=0, note=62, velocity=64, time=1),\n",
       "   Message('control_change', channel=0, control=64, value=127, time=594),\n",
       "   Message('control_change', channel=0, control=64, value=0, time=327),\n",
       "   Message('note_on', channel=0, note=56, velocity=0, time=27),\n",
       "   Message('note_on', channel=0, note=53, velocity=0, time=7),\n",
       "   Message('note_on', channel=0, note=65, velocity=0, time=17),\n",
       "   Message('note_on', channel=0, note=62, velocity=0, time=15),\n",
       "   Message('note_on', channel=0, note=58, velocity=67, time=271),\n",
       "   Message('note_on', channel=0, note=65, velocity=60, time=1),\n",
       "   Message('note_on', channel=0, note=62, velocity=55, time=1),\n",
       "   Message('control_change', channel=0, control=64, value=127, time=241),\n",
       "   Message('note_on', channel=0, note=58, velocity=0, time=196),\n",
       "   Message('control_change', channel=0, control=64, value=0, time=11),\n",
       "   Message('note_on', channel=0, note=65, velocity=0, time=15),\n",
       "   Message('note_on', channel=0, note=62, velocity=0, time=20),\n",
       "   Message('note_on', channel=0, note=58, velocity=68, time=108),\n",
       "   Message('note_on', channel=0, note=65, velocity=63, time=4),\n",
       "   Message('note_on', channel=0, note=62, velocity=56, time=3),\n",
       "   Message('note_on', channel=0, note=58, velocity=0, time=170),\n",
       "   Message('note_on', channel=0, note=65, velocity=0, time=6),\n",
       "   Message('note_on', channel=0, note=62, velocity=0, time=43),\n",
       "   Message('note_on', channel=0, note=58, velocity=70, time=58),\n",
       "   Message('note_on', channel=0, note=62, velocity=64, time=8),\n",
       "   Message('note_on', channel=0, note=65, velocity=66, time=0),\n",
       "   Message('note_on', channel=0, note=58, velocity=0, time=181),\n",
       "   Message('note_on', channel=0, note=65, velocity=0, time=7),\n",
       "   Message('note_on', channel=0, note=62, velocity=0, time=9),\n",
       "   Message('note_on', channel=0, note=58, velocity=73, time=108),\n",
       "   Message('note_on', channel=0, note=53, velocity=56, time=3),\n",
       "   Message('note_on', channel=0, note=63, velocity=74, time=8),\n",
       "   Message('note_on', channel=0, note=70, velocity=67, time=0),\n",
       "   Message('note_on', channel=0, note=65, velocity=66, time=4),\n",
       "   Message('note_on', channel=0, note=75, velocity=70, time=1),\n",
       "   Message('note_on', channel=0, note=53, velocity=0, time=43),\n",
       "   Message('note_on', channel=0, note=75, velocity=0, time=130),\n",
       "   Message('control_change', channel=0, control=64, value=127, time=208),\n",
       "   Message('control_change', channel=0, control=64, value=0, time=46),\n",
       "   Message('note_on', channel=0, note=65, velocity=0, time=27),\n",
       "   Message('note_on', channel=0, note=63, velocity=0, time=14),\n",
       "   Message('note_on', channel=0, note=70, velocity=0, time=120),\n",
       "   Message('note_on', channel=0, note=57, velocity=81, time=28),\n",
       "   Message('note_on', channel=0, note=53, velocity=61, time=7),\n",
       "   Message('note_on', channel=0, note=63, velocity=73, time=4),\n",
       "   Message('note_on', channel=0, note=65, velocity=66, time=0),\n",
       "   Message('note_on', channel=0, note=75, velocity=72, time=2),\n",
       "   Message('note_on', channel=0, note=58, velocity=0, time=21),\n",
       "   Message('note_on', channel=0, note=53, velocity=0, time=38),\n",
       "   Message('note_on', channel=0, note=65, velocity=0, time=302),\n",
       "   Message('note_on', channel=0, note=75, velocity=0, time=5),\n",
       "   Message('note_on', channel=0, note=63, velocity=0, time=10),\n",
       "   Message('note_on', channel=0, note=48, velocity=62, time=207),\n",
       "   Message('note_on', channel=0, note=48, velocity=0, time=6),\n",
       "   Message('note_on', channel=0, note=55, velocity=80, time=2),\n",
       "   Message('note_on', channel=0, note=63, velocity=73, time=10),\n",
       "   Message('note_on', channel=0, note=65, velocity=70, time=3),\n",
       "   Message('note_on', channel=0, note=57, velocity=0, time=16),\n",
       "   Message('note_on', channel=0, note=65, velocity=0, time=372),\n",
       "   Message('note_on', channel=0, note=63, velocity=0, time=16),\n",
       "   Message('note_on', channel=0, note=63, velocity=68, time=174),\n",
       "   Message('note_on', channel=0, note=65, velocity=68, time=1),\n",
       "   Message('note_on', channel=0, note=57, velocity=73, time=2),\n",
       "   Message('note_on', channel=0, note=55, velocity=0, time=15),\n",
       "   Message('note_on', channel=0, note=65, velocity=0, time=185),\n",
       "   Message('note_on', channel=0, note=57, velocity=0, time=6),\n",
       "   Message('note_on', channel=0, note=63, velocity=0, time=4),\n",
       "   Message('note_on', channel=0, note=57, velocity=67, time=81),\n",
       "   Message('note_on', channel=0, note=63, velocity=63, time=8),\n",
       "   Message('note_on', channel=0, note=65, velocity=56, time=8),\n",
       "   Message('note_on', channel=0, note=65, velocity=0, time=185),\n",
       "   Message('note_on', channel=0, note=63, velocity=0, time=12),\n",
       "   Message('note_on', channel=0, note=57, velocity=0, time=129),\n",
       "   Message('note_on', channel=0, note=57, velocity=62, time=9),\n",
       "   Message('note_on', channel=0, note=58, velocity=74, time=2),\n",
       "   Message('note_on', channel=0, note=50, velocity=54, time=1),\n",
       "   Message('note_on', channel=0, note=65, velocity=64, time=1),\n",
       "   Message('note_on', channel=0, note=62, velocity=65, time=2),\n",
       "   Message('note_on', channel=0, note=57, velocity=0, time=27),\n",
       "   Message('note_on', channel=0, note=50, velocity=0, time=119),\n",
       "   Message('note_on', channel=0, note=58, velocity=0, time=816),\n",
       "   Message('note_on', channel=0, note=65, velocity=0, time=6),\n",
       "   Message('note_on', channel=0, note=62, velocity=0, time=5),\n",
       "   Message('note_on', channel=0, note=65, velocity=62, time=376),\n",
       "   Message('note_on', channel=0, note=65, velocity=0, time=421),\n",
       "   Message('note_on', channel=0, note=65, velocity=61, time=156),\n",
       "   Message('note_on', channel=0, note=65, velocity=0, time=180),\n",
       "   Message('note_on', channel=0, note=65, velocity=75, time=93),\n",
       "   Message('note_on', channel=0, note=77, velocity=66, time=1),\n",
       "   Message('note_on', channel=0, note=77, velocity=0, time=4),\n",
       "   Message('note_on', channel=0, note=65, velocity=0, time=160),\n",
       "   Message('note_on', channel=0, note=63, velocity=69, time=162),\n",
       "   Message('note_on', channel=0, note=65, velocity=66, time=5),\n",
       "   Message('note_on', channel=0, note=75, velocity=63, time=2),\n",
       "   Message('note_on', channel=0, note=77, velocity=60, time=4),\n",
       "   Message('note_on', channel=0, note=77, velocity=0, time=5),\n",
       "   Message('note_on', channel=0, note=75, velocity=0, time=277),\n",
       "   Message('control_change', channel=0, control=64, value=127, time=76),\n",
       "   Message('control_change', channel=0, control=64, value=0, time=56),\n",
       "   Message('note_on', channel=0, note=65, velocity=0, time=55),\n",
       "   Message('note_on', channel=0, note=63, velocity=0, time=9),\n",
       "   Message('note_on', channel=0, note=63, velocity=58, time=123),\n",
       "   Message('note_on', channel=0, note=65, velocity=57, time=14),\n",
       "   Message('note_on', channel=0, note=65, velocity=0, time=133),\n",
       "   Message('note_on', channel=0, note=63, velocity=0, time=10),\n",
       "   Message('note_on', channel=0, note=59, velocity=48, time=119),\n",
       "   Message('note_on', channel=0, note=63, velocity=54, time=1),\n",
       "   Message('note_on', channel=0, note=65, velocity=60, time=8),\n",
       "   Message('note_on', channel=0, note=59, velocity=0, time=2),\n",
       "   Message('note_on', channel=0, note=65, velocity=0, time=102),\n",
       "   Message('note_on', channel=0, note=63, velocity=0, time=33),\n",
       "   Message('note_on', channel=0, note=63, velocity=61, time=178),\n",
       "   Message('note_on', channel=0, note=65, velocity=63, time=1),\n",
       "   Message('note_on', channel=0, note=55, velocity=55, time=2),\n",
       "   Message('control_change', channel=0, control=64, value=127, time=153),\n",
       "   Message('control_change', channel=0, control=64, value=0, time=251),\n",
       "   Message('note_on', channel=0, note=65, velocity=0, time=50),\n",
       "   Message('note_on', channel=0, note=63, velocity=0, time=1),\n",
       "   Message('note_on', channel=0, note=63, velocity=61, time=198),\n",
       "   Message('note_on', channel=0, note=48, velocity=51, time=1),\n",
       "   Message('note_on', channel=0, note=53, velocity=49, time=0),\n",
       "   Message('note_on', channel=0, note=65, velocity=60, time=2),\n",
       "   Message('note_on', channel=0, note=48, velocity=0, time=4),\n",
       "   Message('note_on', channel=0, note=53, velocity=0, time=0),\n",
       "   Message('note_on', channel=0, note=55, velocity=0, time=19),\n",
       "   Message('note_on', channel=0, note=57, velocity=63, time=12),\n",
       "   Message('note_on', channel=0, note=65, velocity=0, time=414),\n",
       "   Message('note_on', channel=0, note=63, velocity=0, time=31),\n",
       "   Message('note_on', channel=0, note=65, velocity=56, time=285),\n",
       "   Message('note_on', channel=0, note=58, velocity=57, time=11),\n",
       "   Message('note_on', channel=0, note=62, velocity=52, time=1),\n",
       "   Message('note_on', channel=0, note=57, velocity=0, time=33),\n",
       "   Message('note_on', channel=0, note=58, velocity=0, time=1631),\n",
       "   Message('note_on', channel=0, note=65, velocity=0, time=40),\n",
       "   Message('note_on', channel=0, note=62, velocity=0, time=46),\n",
       "   Message('control_change', channel=0, control=64, value=127, time=1386),\n",
       "   Message('note_on', channel=0, note=52, velocity=74, time=374),\n",
       "   Message('note_on', channel=0, note=48, velocity=70, time=2),\n",
       "   Message('note_on', channel=0, note=55, velocity=70, time=2),\n",
       "   Message('note_on', channel=0, note=60, velocity=73, time=179),\n",
       "   Message('control_change', channel=0, control=64, value=0, time=14),\n",
       "   Message('note_on', channel=0, note=52, velocity=0, time=158),\n",
       "   Message('note_on', channel=0, note=52, velocity=52, time=4),\n",
       "   Message('note_on', channel=0, note=62, velocity=66, time=3),\n",
       "   Message('note_on', channel=0, note=60, velocity=0, time=43),\n",
       "   Message('note_on', channel=0, note=64, velocity=84, time=104),\n",
       "   Message('note_on', channel=0, note=62, velocity=0, time=49),\n",
       "   Message('note_on', channel=0, note=65, velocity=79, time=120),\n",
       "   Message('note_on', channel=0, note=64, velocity=0, time=39),\n",
       "   Message('note_on', channel=0, note=79, velocity=80, time=122),\n",
       "   Message('note_on', channel=0, note=67, velocity=88, time=2),\n",
       "   Message('note_on', channel=0, note=79, velocity=0, time=37),\n",
       "   Message('note_on', channel=0, note=65, velocity=0, time=26),\n",
       "   Message('note_on', channel=0, note=81, velocity=84, time=107),\n",
       "   Message('note_on', channel=0, note=69, velocity=84, time=0),\n",
       "   Message('note_on', channel=0, note=55, velocity=0, time=65),\n",
       "   Message('note_on', channel=0, note=67, velocity=0, time=3),\n",
       "   Message('note_on', channel=0, note=81, velocity=0, time=67),\n",
       "   Message('note_on', channel=0, note=71, velocity=86, time=10),\n",
       "   Message('note_on', channel=0, note=69, velocity=0, time=49),\n",
       "   Message('note_on', channel=0, note=72, velocity=88, time=158),\n",
       "   Message('note_on', channel=0, note=71, velocity=0, time=27),\n",
       "   Message('note_on', channel=0, note=52, velocity=0, time=79),\n",
       "   Message('note_on', channel=0, note=48, velocity=0, time=21),\n",
       "   Message('note_on', channel=0, note=48, velocity=60, time=252),\n",
       "   Message('note_on', channel=0, note=55, velocity=58, time=0),\n",
       "   Message('note_on', channel=0, note=52, velocity=60, time=2),\n",
       "   Message('note_on', channel=0, note=52, velocity=0, time=120),\n",
       "   Message('note_on', channel=0, note=48, velocity=0, time=2),\n",
       "   Message('note_on', channel=0, note=55, velocity=0, time=30),\n",
       "   Message('note_on', channel=0, note=52, velocity=60, time=215),\n",
       "   Message('note_on', channel=0, note=48, velocity=59, time=0),\n",
       "   Message('note_on', channel=0, note=55, velocity=59, time=1),\n",
       "   Message('note_on', channel=0, note=52, velocity=0, time=102),\n",
       "   Message('note_on', channel=0, note=48, velocity=0, time=8),\n",
       "   Message('note_on', channel=0, note=55, velocity=0, time=26),\n",
       "   Message('note_on', channel=0, note=55, velocity=66, time=200),\n",
       "   Message('note_on', channel=0, note=48, velocity=60, time=1),\n",
       "   Message('note_on', channel=0, note=52, velocity=58, time=7),\n",
       "   Message('note_on', channel=0, note=52, velocity=0, time=115),\n",
       "   Message('note_on', channel=0, note=48, velocity=0, time=1),\n",
       "   Message('note_on', channel=0, note=55, velocity=0, time=5),\n",
       "   Message('note_on', channel=0, note=72, velocity=0, time=13),\n",
       "   Message('note_on', channel=0, note=55, velocity=73, time=211),\n",
       "   Message('note_on', channel=0, note=53, velocity=72, time=1),\n",
       "   Message('note_on', channel=0, note=47, velocity=71, time=2),\n",
       "   Message('control_change', channel=0, control=64, value=127, time=63),\n",
       "   Message('note_on', channel=0, note=47, velocity=0, time=100),\n",
       "   Message('note_on', channel=0, note=47, velocity=48, time=7),\n",
       "   Message('note_on', channel=0, note=62, velocity=60, time=2),\n",
       "   Message('note_on', channel=0, note=64, velocity=74, time=156),\n",
       "   Message('note_on', channel=0, note=62, velocity=0, time=85),\n",
       "   Message('note_on', channel=0, note=65, velocity=76, time=62),\n",
       "   Message('control_change', channel=0, control=64, value=0, time=41),\n",
       "   Message('note_on', channel=0, note=64, velocity=0, time=32),\n",
       "   Message('note_on', channel=0, note=79, velocity=80, time=101),\n",
       "   Message('note_on', channel=0, note=67, velocity=81, time=1),\n",
       "   Message('note_on', channel=0, note=65, velocity=0, time=28),\n",
       "   Message('note_on', channel=0, note=81, velocity=80, time=126),\n",
       "   Message('note_on', channel=0, note=69, velocity=81, time=2),\n",
       "   Message('note_on', channel=0, note=79, velocity=0, time=17),\n",
       "   Message('note_on', channel=0, note=67, velocity=0, time=41),\n",
       "   Message('note_on', channel=0, note=55, velocity=0, time=8),\n",
       "   Message('control_change', channel=0, control=64, value=127, time=66),\n",
       "   Message('note_on', channel=0, note=71, velocity=86, time=28),\n",
       "   Message('note_on', channel=0, note=83, velocity=72, time=0),\n",
       "   Message('note_on', channel=0, note=81, velocity=0, time=3),\n",
       "   Message('note_on', channel=0, note=83, velocity=0, time=8),\n",
       "   Message('note_on', channel=0, note=53, velocity=0, time=108),\n",
       "   Message('note_on', channel=0, note=69, velocity=0, time=1),\n",
       "   Message('control_change', channel=0, control=64, value=0, time=21),\n",
       "   Message('note_on', channel=0, note=72, velocity=88, time=21),\n",
       "   Message('note_on', channel=0, note=71, velocity=0, time=31),\n",
       "   Message('note_on', channel=0, note=74, velocity=87, time=142),\n",
       "   Message('note_on', channel=0, note=72, velocity=0, time=40),\n",
       "   Message('note_on', channel=0, note=47, velocity=0, time=50),\n",
       "   Message('note_on', channel=0, note=55, velocity=54, time=267),\n",
       "   Message('note_on', channel=0, note=53, velocity=56, time=6),\n",
       "   Message('note_on', channel=0, note=47, velocity=54, time=1),\n",
       "   Message('note_on', channel=0, note=47, velocity=0, time=138),\n",
       "   Message('note_on', channel=0, note=53, velocity=0, time=6),\n",
       "   Message('note_on', channel=0, note=55, velocity=0, time=28),\n",
       "   Message('note_on', channel=0, note=55, velocity=55, time=181),\n",
       "   Message('note_on', channel=0, note=47, velocity=50, time=4),\n",
       "   Message('note_on', channel=0, note=53, velocity=50, time=13),\n",
       "   Message('note_on', channel=0, note=47, velocity=0, time=90),\n",
       "   Message('note_on', channel=0, note=53, velocity=0, time=13),\n",
       "   Message('note_on', channel=0, note=55, velocity=0, time=49),\n",
       "   Message('note_on', channel=0, note=47, velocity=61, time=174),\n",
       "   Message('note_on', channel=0, note=53, velocity=58, time=1),\n",
       "   Message('note_on', channel=0, note=55, velocity=57, time=1),\n",
       "   Message('note_on', channel=0, note=47, velocity=0, time=77),\n",
       "   Message('note_on', channel=0, note=53, velocity=0, time=57),\n",
       "   Message('note_on', channel=0, note=74, velocity=0, time=4),\n",
       "   Message('note_on', channel=0, note=55, velocity=0, time=2),\n",
       "   Message('note_on', channel=0, note=52, velocity=71, time=189),\n",
       "   Message('note_on', channel=0, note=55, velocity=66, time=1),\n",
       "   Message('note_on', channel=0, note=48, velocity=69, time=0),\n",
       "   Message('control_change', channel=0, control=64, value=127, time=104),\n",
       "   Message('note_on', channel=0, note=64, velocity=68, time=64),\n",
       "   Message('note_on', channel=0, note=65, velocity=70, time=160),\n",
       "   Message('note_on', channel=0, note=64, velocity=0, time=84),\n",
       "   Message('control_change', channel=0, control=64, value=0, time=34),\n",
       "   Message('note_on', channel=0, note=79, velocity=75, time=41),\n",
       "   Message('note_on', channel=0, note=67, velocity=80, time=2),\n",
       "   Message('note_on', channel=0, note=79, velocity=0, time=6),\n",
       "   Message('note_on', channel=0, note=65, velocity=0, time=75),\n",
       "   Message('note_on', channel=0, note=81, velocity=79, time=84),\n",
       "   Message('note_on', channel=0, note=69, velocity=80, time=0),\n",
       "   Message('note_on', channel=0, note=55, velocity=0, time=44),\n",
       "   Message('note_on', channel=0, note=67, velocity=0, time=1),\n",
       "   Message('note_on', channel=0, note=71, velocity=85, time=109),\n",
       "   Message('note_on', channel=0, note=83, velocity=72, time=0),\n",
       "   Message('note_on', channel=0, note=83, velocity=0, time=10),\n",
       "   Message('note_on', channel=0, note=69, velocity=0, time=29),\n",
       "   Message('note_on', channel=0, note=81, velocity=0, time=9),\n",
       "   Message('note_on', channel=0, note=72, velocity=91, time=106),\n",
       "   Message('note_on', channel=0, note=71, velocity=0, time=18),\n",
       "   Message('note_on', channel=0, note=74, velocity=89, time=145),\n",
       "   Message('note_on', channel=0, note=72, velocity=0, time=83),\n",
       "   Message('note_on', channel=0, note=76, velocity=89, time=89),\n",
       "   Message('note_on', channel=0, note=52, velocity=0, time=56),\n",
       "   Message('note_on', channel=0, note=74, velocity=0, time=8),\n",
       "   Message('note_on', channel=0, note=48, velocity=0, time=1),\n",
       "   Message('note_on', channel=0, note=55, velocity=64, time=271),\n",
       "   Message('note_on', channel=0, note=48, velocity=59, time=5),\n",
       "   Message('note_on', channel=0, note=52, velocity=59, time=4),\n",
       "   Message('note_on', channel=0, note=52, velocity=0, time=132),\n",
       "   Message('note_on', channel=0, note=48, velocity=0, time=5),\n",
       "   Message('note_on', channel=0, note=55, velocity=0, time=9),\n",
       "   Message('note_on', channel=0, note=55, velocity=55, time=193),\n",
       "   Message('note_on', channel=0, note=52, velocity=52, time=7),\n",
       "   Message('note_on', channel=0, note=48, velocity=54, time=2),\n",
       "   Message('note_on', channel=0, note=52, velocity=0, time=111),\n",
       "   Message('note_on', channel=0, note=48, velocity=0, time=3),\n",
       "   Message('note_on', channel=0, note=55, velocity=0, time=33),\n",
       "   Message('note_on', channel=0, note=55, velocity=63, time=174),\n",
       "   Message('note_on', channel=0, note=48, velocity=54, time=6),\n",
       "   Message('note_on', channel=0, note=52, velocity=54, time=3),\n",
       "   Message('note_on', channel=0, note=76, velocity=0, time=8),\n",
       "   Message('note_on', channel=0, note=48, velocity=0, time=91),\n",
       "   Message('note_on', channel=0, note=52, velocity=0, time=23),\n",
       "   Message('note_on', channel=0, note=55, velocity=0, time=0),\n",
       "   Message('note_on', channel=0, note=53, velocity=68, time=192),\n",
       "   Message('note_on', channel=0, note=57, velocity=69, time=0),\n",
       "   Message('note_on', channel=0, note=48, velocity=59, time=9),\n",
       "   Message('control_change', channel=0, control=64, value=127, time=87),\n",
       "   Message('note_on', channel=0, note=65, velocity=58, time=81),\n",
       "   Message('note_on', channel=0, note=67, velocity=74, time=143),\n",
       "   Message('note_on', channel=0, note=65, velocity=0, time=72),\n",
       "   Message('control_change', channel=0, control=64, value=0, time=11),\n",
       "   Message('note_on', channel=0, note=81, velocity=76, time=92),\n",
       "   Message('note_on', channel=0, note=69, velocity=79, time=2),\n",
       "   Message('note_on', channel=0, note=67, velocity=0, time=75),\n",
       "   Message('note_on', channel=0, note=71, velocity=87, time=89),\n",
       "   Message('note_on', channel=0, note=69, velocity=0, time=24),\n",
       "   Message('note_on', channel=0, note=81, velocity=0, time=26),\n",
       "   Message('note_on', channel=0, note=72, velocity=90, time=103),\n",
       "   Message('note_on', channel=0, note=71, velocity=0, time=26),\n",
       "   Message('note_on', channel=0, note=74, velocity=90, time=127),\n",
       "   Message('note_on', channel=0, note=72, velocity=0, time=23),\n",
       "   Message('note_on', channel=0, note=76, velocity=82, time=140),\n",
       "   Message('note_on', channel=0, note=74, velocity=0, time=65),\n",
       "   Message('note_on', channel=0, note=77, velocity=94, time=107),\n",
       "   Message('note_on', channel=0, note=48, velocity=0, time=18),\n",
       "   Message('note_on', channel=0, note=53, velocity=0, time=1),\n",
       "   Message('note_on', channel=0, note=57, velocity=0, time=7),\n",
       "   Message('note_on', channel=0, note=76, velocity=0, time=43),\n",
       "   Message('note_on', channel=0, note=60, velocity=54, time=264),\n",
       "   Message('note_on', channel=0, note=48, velocity=60, time=1),\n",
       "   Message('note_on', channel=0, note=53, velocity=59, time=1),\n",
       "   Message('note_on', channel=0, note=57, velocity=56, time=0),\n",
       "   Message('note_on', channel=0, note=60, velocity=0, time=3),\n",
       "   Message('note_on', channel=0, note=53, velocity=0, time=151),\n",
       "   Message('note_on', channel=0, note=48, velocity=0, time=1),\n",
       "   Message('note_on', channel=0, note=57, velocity=0, time=25),\n",
       "   Message('note_on', channel=0, note=53, velocity=62, time=167),\n",
       "   Message('note_on', channel=0, note=60, velocity=57, time=3),\n",
       "   Message('note_on', channel=0, note=57, velocity=61, time=1),\n",
       "   Message('note_on', channel=0, note=48, velocity=59, time=0),\n",
       "   Message('note_on', channel=0, note=60, velocity=0, time=143),\n",
       "   Message('note_on', channel=0, note=48, velocity=0, time=4),\n",
       "   Message('note_on', channel=0, note=53, velocity=0, time=0),\n",
       "   Message('note_on', channel=0, note=57, velocity=0, time=21),\n",
       "   Message('note_on', channel=0, note=57, velocity=57, time=167),\n",
       "   Message('note_on', channel=0, note=53, velocity=61, time=0),\n",
       "   Message('note_on', channel=0, note=48, velocity=57, time=2),\n",
       "   Message('note_on', channel=0, note=48, velocity=0, time=86),\n",
       "   Message('note_on', channel=0, note=53, velocity=0, time=25),\n",
       "   Message('note_on', channel=0, note=57, velocity=0, time=8),\n",
       "   Message('note_on', channel=0, note=55, velocity=63, time=202),\n",
       "   Message('note_on', channel=0, note=48, velocity=61, time=4),\n",
       "   Message('note_on', channel=0, note=52, velocity=59, time=0),\n",
       "   Message('note_on', channel=0, note=77, velocity=0, time=88),\n",
       "   Message('note_on', channel=0, note=67, velocity=69, time=88),\n",
       "   Message('note_on', channel=0, note=69, velocity=77, time=149),\n",
       "   Message('control_change', channel=0, control=64, value=127, time=63),\n",
       "   Message('note_on', channel=0, note=67, velocity=0, time=15),\n",
       "   Message('control_change', channel=0, control=64, value=0, time=16),\n",
       "   Message('note_on', channel=0, note=71, velocity=87, time=76),\n",
       "   Message('note_on', channel=0, note=69, velocity=0, time=39),\n",
       "   Message('note_on', channel=0, note=72, velocity=89, time=120),\n",
       "   Message('note_on', channel=0, note=71, velocity=0, time=29),\n",
       "   Message('note_on', channel=0, note=74, velocity=88, time=115),\n",
       "   Message('note_on', channel=0, note=72, velocity=0, time=52),\n",
       "   Message('note_on', channel=0, note=76, velocity=92, time=112),\n",
       "   Message('note_on', channel=0, note=74, velocity=0, time=13),\n",
       "   Message('note_on', channel=0, note=77, velocity=89, time=141),\n",
       "   Message('note_on', channel=0, note=76, velocity=0, time=51),\n",
       "   Message('note_on', channel=0, note=79, velocity=91, time=131),\n",
       "   Message('note_on', channel=0, note=77, velocity=0, time=29),\n",
       "   Message('note_on', channel=0, note=52, velocity=0, time=36),\n",
       "   Message('note_on', channel=0, note=48, velocity=0, time=46),\n",
       "   Message('note_on', channel=0, note=55, velocity=0, time=16),\n",
       "   Message('note_on', channel=0, note=55, velocity=62, time=218),\n",
       "   Message('note_on', channel=0, note=48, velocity=56, time=1),\n",
       "   Message('note_on', channel=0, note=52, velocity=60, time=9),\n",
       "   Message('note_on', channel=0, note=52, velocity=0, time=141),\n",
       "   Message('note_on', channel=0, note=48, velocity=0, time=1),\n",
       "   Message('note_on', channel=0, note=55, velocity=0, time=8),\n",
       "   Message('note_on', channel=0, note=55, velocity=60, time=179),\n",
       "   Message('note_on', channel=0, note=48, velocity=58, time=1),\n",
       "   Message('note_on', channel=0, note=52, velocity=57, time=1),\n",
       "   Message('note_on', channel=0, note=52, velocity=0, time=136),\n",
       "   Message('note_on', channel=0, note=48, velocity=0, time=2),\n",
       "   Message('note_on', channel=0, note=55, velocity=0, time=8),\n",
       "   Message('note_on', channel=0, note=55, velocity=55, time=180),\n",
       "   Message('note_on', channel=0, note=48, velocity=52, time=4),\n",
       "   Message('note_on', channel=0, note=52, velocity=51, time=6),\n",
       "   Message('note_on', channel=0, note=48, velocity=0, time=84),\n",
       "   Message('note_on', channel=0, note=52, velocity=0, time=2),\n",
       "   Message('note_on', channel=0, note=55, velocity=0, time=5),\n",
       "   Message('note_on', channel=0, note=53, velocity=61, time=224),\n",
       "   Message('note_on', channel=0, note=57, velocity=63, time=5),\n",
       "   Message('note_on', channel=0, note=48, velocity=58, time=2),\n",
       "   Message('control_change', channel=0, control=64, value=127, time=65),\n",
       "   Message('note_on', channel=0, note=69, velocity=68, time=109),\n",
       "   Message('note_on', channel=0, note=79, velocity=0, time=37),\n",
       "   Message('note_on', channel=0, note=71, velocity=78, time=112),\n",
       "   Message('control_change', channel=0, control=64, value=0, time=14),\n",
       "   Message('note_on', channel=0, note=69, velocity=0, time=38),\n",
       "   Message('control_change', channel=0, control=64, value=127, time=51),\n",
       "   Message('note_on', channel=0, note=72, velocity=86, time=58),\n",
       "   Message('note_on', channel=0, note=71, velocity=0, time=30),\n",
       "   Message('control_change', channel=0, control=64, value=0, time=89),\n",
       "   Message('note_on', channel=0, note=74, velocity=85, time=33),\n",
       "   Message('note_on', channel=0, note=72, velocity=0, time=31),\n",
       "   Message('note_on', channel=0, note=76, velocity=85, time=117),\n",
       "   Message('note_on', channel=0, note=74, velocity=0, time=36),\n",
       "   Message('control_change', channel=0, control=64, value=127, time=82),\n",
       "   Message('control_change', channel=0, control=64, value=0, time=23),\n",
       "   Message('note_on', channel=0, note=77, velocity=94, time=10),\n",
       "   Message('note_on', channel=0, note=76, velocity=0, time=55),\n",
       "   Message('note_on', channel=0, note=79, velocity=87, time=120),\n",
       "   Message('note_on', channel=0, note=77, velocity=0, time=70),\n",
       "   Message('note_on', channel=0, note=81, velocity=91, time=103),\n",
       "   Message('note_on', channel=0, note=79, velocity=0, time=38),\n",
       "   Message('note_on', channel=0, note=48, velocity=0, time=38),\n",
       "   Message('note_on', channel=0, note=53, velocity=0, time=0),\n",
       "   Message('note_on', channel=0, note=57, velocity=0, time=3),\n",
       "   Message('note_on', channel=0, note=53, velocity=61, time=266),\n",
       "   Message('note_on', channel=0, note=48, velocity=58, time=13),\n",
       "   Message('note_on', channel=0, note=57, velocity=60, time=1),\n",
       "   Message('note_on', channel=0, note=48, velocity=0, time=116),\n",
       "   Message('note_on', channel=0, note=53, velocity=0, time=1),\n",
       "   Message('note_on', channel=0, note=57, velocity=0, time=31),\n",
       "   Message('note_on', channel=0, note=81, velocity=0, time=88),\n",
       "   Message('note_on', channel=0, note=81, velocity=38, time=8),\n",
       "   Message('note_on', channel=0, note=48, velocity=58, time=96),\n",
       "   Message('note_on', channel=0, note=53, velocity=57, time=7),\n",
       "   Message('note_on', channel=0, note=57, velocity=56, time=0),\n",
       "   Message('note_on', channel=0, note=81, velocity=0, time=49),\n",
       "   Message('note_on', channel=0, note=48, velocity=0, time=73),\n",
       "   Message('note_on', channel=0, note=53, velocity=0, time=1),\n",
       "   Message('note_on', channel=0, note=57, velocity=0, time=38),\n",
       "   Message('note_on', channel=0, note=48, velocity=60, time=173),\n",
       "   Message('note_on', channel=0, note=57, velocity=60, time=0),\n",
       "   Message('note_on', channel=0, note=53, velocity=56, time=4),\n",
       "   Message('note_on', channel=0, note=48, velocity=0, time=100),\n",
       "   Message('note_on', channel=0, note=53, velocity=0, time=1),\n",
       "   Message('note_on', channel=0, note=57, velocity=0, time=7),\n",
       "   Message('note_on', channel=0, note=55, velocity=65, time=220),\n",
       "   Message('note_on', channel=0, note=47, velocity=58, time=2),\n",
       "   Message('note_on', channel=0, note=53, velocity=60, time=2),\n",
       "   Message('control_change', channel=0, control=64, value=127, time=86),\n",
       "   Message('note_on', channel=0, note=71, velocity=66, time=80),\n",
       "   Message('note_on', channel=0, note=47, velocity=0, time=136),\n",
       "   Message('note_on', channel=0, note=47, velocity=42, time=10),\n",
       "   Message('note_on', channel=0, note=72, velocity=79, time=3),\n",
       "   Message('note_on', channel=0, note=71, velocity=0, time=24),\n",
       "   Message('control_change', channel=0, control=64, value=0, time=91),\n",
       "   Message('note_on', channel=0, note=53, velocity=0, time=33),\n",
       "   Message('note_on', channel=0, note=53, velocity=52, time=5),\n",
       "   Message('note_on', channel=0, note=74, velocity=87, time=1),\n",
       "   Message('note_on', channel=0, note=72, velocity=0, time=82),\n",
       "   Message('note_on', channel=0, note=76, velocity=80, time=63),\n",
       "   Message('note_on', channel=0, note=74, velocity=0, time=35),\n",
       "   Message('note_on', channel=0, note=77, velocity=90, time=110),\n",
       "   Message('note_on', channel=0, note=76, velocity=0, time=36),\n",
       "   Message('note_on', channel=0, note=79, velocity=89, time=134),\n",
       "   Message('note_on', channel=0, note=77, velocity=0, time=66),\n",
       "   Message('note_on', channel=0, note=81, velocity=87, time=96),\n",
       "   Message('note_on', channel=0, note=79, velocity=0, time=44),\n",
       "   Message('note_on', channel=0, note=81, velocity=0, time=134),\n",
       "   Message('note_on', channel=0, note=83, velocity=87, time=6),\n",
       "   Message('note_on', channel=0, note=81, velocity=71, time=2),\n",
       "   Message('note_on', channel=0, note=81, velocity=0, time=32),\n",
       "   Message('note_on', channel=0, note=47, velocity=0, time=49),\n",
       "   Message('note_on', channel=0, note=53, velocity=0, time=8),\n",
       "   Message('note_on', channel=0, note=55, velocity=0, time=37),\n",
       "   Message('note_on', channel=0, note=55, velocity=59, time=230),\n",
       "   Message('note_on', channel=0, note=53, velocity=61, time=7),\n",
       "   Message('note_on', channel=0, note=47, velocity=52, time=20),\n",
       "   Message('control_change', channel=0, control=64, value=127, time=70),\n",
       "   Message('control_change', channel=0, control=64, value=0, time=46),\n",
       "   Message('note_on', channel=0, note=53, velocity=0, time=3),\n",
       "   Message('note_on', channel=0, note=47, velocity=0, time=10),\n",
       "   Message('note_on', channel=0, note=55, velocity=0, time=13),\n",
       "   Message('note_on', channel=0, note=83, velocity=0, time=12),\n",
       "   Message('note_on', channel=0, note=47, velocity=58, time=167),\n",
       "   Message('note_on', channel=0, note=53, velocity=63, time=0),\n",
       "   Message('note_on', channel=0, note=55, velocity=63, time=1),\n",
       "   Message('note_on', channel=0, note=53, velocity=0, time=136),\n",
       "   Message('note_on', channel=0, note=47, velocity=0, time=2),\n",
       "   Message('note_on', channel=0, note=55, velocity=0, time=21),\n",
       "   Message('note_on', channel=0, note=53, velocity=55, time=180),\n",
       "   Message('note_on', channel=0, note=47, velocity=54, time=3),\n",
       "   Message('note_on', channel=0, note=50, velocity=43, time=1),\n",
       "   Message('note_on', channel=0, note=55, velocity=54, time=1),\n",
       "   Message('note_on', channel=0, note=53, velocity=0, time=93),\n",
       "   Message('note_on', channel=0, note=47, velocity=0, time=2),\n",
       "   Message('note_on', channel=0, note=50, velocity=0, time=0),\n",
       "   Message('note_on', channel=0, note=55, velocity=0, time=7),\n",
       "   Message('note_on', channel=0, note=55, velocity=60, time=218),\n",
       "   Message('note_on', channel=0, note=48, velocity=59, time=1),\n",
       "   Message('note_on', channel=0, note=52, velocity=58, time=0),\n",
       "   Message('control_change', channel=0, control=64, value=127, time=120),\n",
       "   Message('note_on', channel=0, note=72, velocity=65, time=49),\n",
       "   Message('note_on', channel=0, note=74, velocity=78, time=147),\n",
       "   Message('control_change', channel=0, control=64, value=0, time=53),\n",
       "   Message('note_on', channel=0, note=72, velocity=0, time=15),\n",
       "   Message('note_on', channel=0, note=76, velocity=84, time=86),\n",
       "   Message('note_on', channel=0, note=74, velocity=0, time=72),\n",
       "   Message('note_on', channel=0, note=77, velocity=89, time=74),\n",
       "   Message('note_on', channel=0, note=76, velocity=0, time=38),\n",
       "   Message('note_on', channel=0, note=79, velocity=84, time=112),\n",
       "   Message('note_on', channel=0, note=77, velocity=0, time=34),\n",
       "   Message('note_on', channel=0, note=81, velocity=87, time=132),\n",
       "   Message('note_on', channel=0, note=71, velocity=55, time=5),\n",
       "   Message('note_on', channel=0, note=71, velocity=0, time=5),\n",
       "   Message('note_on', channel=0, note=79, velocity=0, time=158),\n",
       "   Message('note_on', channel=0, note=83, velocity=80, time=8),\n",
       "   Message('note_on', channel=0, note=81, velocity=0, time=67),\n",
       "   Message('note_on', channel=0, note=84, velocity=82, time=108),\n",
       "   Message('note_on', channel=0, note=83, velocity=0, time=227),\n",
       "   Message('control_change', channel=0, control=64, value=127, time=130),\n",
       "   Message('control_change', channel=0, control=64, value=0, time=47),\n",
       "   Message('control_change', channel=0, control=64, value=127, time=883),\n",
       "   Message('control_change', channel=0, control=64, value=0, time=23),\n",
       "   Message('control_change', channel=0, control=64, value=127, time=84),\n",
       "   Message('control_change', channel=0, control=64, value=0, time=64),\n",
       "   Message('note_on', channel=0, note=84, velocity=0, time=1),\n",
       "   Message('note_on', channel=0, note=48, velocity=0, time=1),\n",
       "   Message('note_on', channel=0, note=52, velocity=0, time=0),\n",
       "   Message('note_on', channel=0, note=55, velocity=0, time=1),\n",
       "   Message('note_on', channel=0, note=73, velocity=69, time=4340),\n",
       "   Message('note_on', channel=0, note=61, velocity=75, time=1),\n",
       "   Message('note_on', channel=0, note=57, velocity=51, time=27),\n",
       "   Message('note_on', channel=0, note=52, velocity=58, time=0),\n",
       "   Message('note_on', channel=0, note=45, velocity=50, time=1),\n",
       "   Message('control_change', channel=0, control=64, value=127, time=103),\n",
       "   Message('control_change', channel=0, control=64, value=0, time=530),\n",
       "   Message('note_on', channel=0, note=64, velocity=74, time=82),\n",
       "   Message('note_on', channel=0, note=61, velocity=0, time=24),\n",
       "   Message('note_on', channel=0, note=73, velocity=0, time=63),\n",
       "   Message('note_on', channel=0, note=64, velocity=0, time=56),\n",
       "   Message('note_on', channel=0, note=64, velocity=82, time=140),\n",
       "   Message('note_on', channel=0, note=52, velocity=0, time=280),\n",
       "   Message('note_on', channel=0, note=74, velocity=73, time=5),\n",
       "   Message('note_on', channel=0, note=62, velocity=79, time=0),\n",
       "   Message('note_on', channel=0, note=52, velocity=49, time=1),\n",
       "   Message('note_on', channel=0, note=64, velocity=0, time=68),\n",
       "   Message('note_on', channel=0, note=61, velocity=85, time=188),\n",
       "   Message('note_on', channel=0, note=73, velocity=75, time=1),\n",
       "   Message('note_on', channel=0, note=62, velocity=0, time=17),\n",
       "   Message('note_on', channel=0, note=74, velocity=0, time=20),\n",
       "   Message('control_change', channel=0, control=64, value=127, time=38),\n",
       "   Message('note_on', channel=0, note=57, velocity=0, time=46),\n",
       "   Message('note_on', channel=0, note=45, velocity=0, time=11),\n",
       "   Message('note_on', channel=0, note=52, velocity=0, time=5),\n",
       "   Message('control_change', channel=0, control=64, value=0, time=0),\n",
       "   Message('note_on', channel=0, note=59, velocity=82, time=155),\n",
       "   Message('note_on', channel=0, note=71, velocity=83, time=1),\n",
       "   Message('note_on', channel=0, note=73, velocity=0, time=5),\n",
       "   Message('note_on', channel=0, note=52, velocity=74, time=0),\n",
       "   Message('note_on', channel=0, note=45, velocity=60, time=16),\n",
       "   Message('note_on', channel=0, note=61, velocity=0, time=68),\n",
       "   Message('note_on', channel=0, note=52, velocity=0, time=461),\n",
       "   Message('note_on', channel=0, note=59, velocity=0, time=0),\n",
       "   Message('note_on', channel=0, note=52, velocity=49, time=4),\n",
       "   Message('note_on', channel=0, note=62, velocity=70, time=0),\n",
       "   Message('note_on', channel=0, note=59, velocity=59, time=7),\n",
       "   Message('note_on', channel=0, note=59, velocity=0, time=38),\n",
       "   Message('note_on', channel=0, note=71, velocity=0, time=228),\n",
       "   Message('note_on', channel=0, note=59, velocity=78, time=6),\n",
       "   Message('note_on', channel=0, note=71, velocity=73, time=2),\n",
       "   Message('note_on', channel=0, note=62, velocity=0, time=95),\n",
       "   Message('note_on', channel=0, note=59, velocity=0, time=434),\n",
       "   Message('note_on', channel=0, note=62, velocity=64, time=4),\n",
       "   Message('note_on', channel=0, note=59, velocity=54, time=1),\n",
       "   Message('note_on', channel=0, note=45, velocity=0, time=15),\n",
       "   Message('note_on', channel=0, note=52, velocity=0, time=4),\n",
       "   Message('note_on', channel=0, note=71, velocity=0, time=5),\n",
       "   Message('note_on', channel=0, note=59, velocity=0, time=33),\n",
       "   Message('note_on', channel=0, note=61, velocity=74, time=218),\n",
       "   Message('note_on', channel=0, note=52, velocity=62, time=0),\n",
       "   Message('note_on', channel=0, note=57, velocity=56, time=3),\n",
       "   Message('note_on', channel=0, note=45, velocity=52, time=5),\n",
       "   Message('note_on', channel=0, note=62, velocity=0, time=22),\n",
       "   Message('note_on', channel=0, note=57, velocity=0, time=474),\n",
       "   Message('note_on', channel=0, note=57, velocity=48, time=4),\n",
       "   Message('note_on', channel=0, note=57, velocity=0, time=84),\n",
       "   Message('note_on', channel=0, note=61, velocity=0, time=3),\n",
       "   Message('note_on', channel=0, note=45, velocity=0, time=177),\n",
       "   Message('note_on', channel=0, note=52, velocity=0, time=0),\n",
       "   Message('note_on', channel=0, note=45, velocity=38, time=5),\n",
       "   Message('note_on', channel=0, note=52, velocity=41, time=1),\n",
       "   Message('note_on', channel=0, note=57, velocity=59, time=0),\n",
       "   Message('note_on', channel=0, note=59, velocity=83, time=255),\n",
       "   Message('note_on', channel=0, note=71, velocity=79, time=3),\n",
       "   Message('note_on', channel=0, note=71, velocity=0, time=5),\n",
       "   Message('note_on', channel=0, note=57, velocity=0, time=79),\n",
       "   Message('note_on', channel=0, note=52, velocity=0, time=159),\n",
       "   Message('note_on', channel=0, note=52, velocity=54, time=8),\n",
       "   Message('note_on', channel=0, note=61, velocity=79, time=1),\n",
       "   Message('note_on', channel=0, note=73, velocity=71, time=1),\n",
       "   Message('note_on', channel=0, note=73, velocity=0, time=6),\n",
       "   Message('note_on', channel=0, note=59, velocity=0, time=51),\n",
       "   Message('note_on', channel=0, note=59, velocity=79, time=221),\n",
       "   Message('note_on', channel=0, note=61, velocity=0, time=77),\n",
       "   Message('note_on', channel=0, note=52, velocity=0, time=607),\n",
       "   Message('note_on', channel=0, note=45, velocity=0, time=4),\n",
       "   Message('note_on', channel=0, note=52, velocity=68, time=221),\n",
       "   Message('note_on', channel=0, note=45, velocity=60, time=5),\n",
       "   Message('note_on', channel=0, note=52, velocity=0, time=643),\n",
       "   Message('note_on', channel=0, note=45, velocity=0, time=2),\n",
       "   Message('note_on', channel=0, note=61, velocity=79, time=216),\n",
       "   Message('note_on', channel=0, note=73, velocity=73, time=1),\n",
       "   Message('note_on', channel=0, note=52, velocity=71, time=6),\n",
       "   Message('note_on', channel=0, note=57, velocity=64, time=1),\n",
       "   Message('note_on', channel=0, note=45, velocity=58, time=6),\n",
       "   Message('note_on', channel=0, note=59, velocity=0, time=4),\n",
       "   Message('control_change', channel=0, control=64, value=127, time=108),\n",
       "   Message('control_change', channel=0, control=64, value=0, time=369),\n",
       "   Message('note_on', channel=0, note=64, velocity=77, time=68),\n",
       "   Message('note_on', channel=0, note=73, velocity=0, time=82),\n",
       "   Message('note_on', channel=0, note=61, velocity=0, time=0),\n",
       "   Message('note_on', channel=0, note=64, velocity=0, time=22),\n",
       "   Message('note_on', channel=0, note=64, velocity=82, time=184),\n",
       "   Message('note_on', channel=0, note=76, velocity=69, time=3),\n",
       "   Message('note_on', channel=0, note=76, velocity=0, time=9),\n",
       "   Message('note_on', channel=0, note=52, velocity=0, time=231),\n",
       "   Message('note_on', channel=0, note=62, velocity=77, time=6),\n",
       "   Message('note_on', channel=0, note=52, velocity=53, time=3),\n",
       "   Message('note_on', channel=0, note=64, velocity=0, time=43),\n",
       "   Message('note_on', channel=0, note=52, velocity=0, time=193),\n",
       "   Message('note_on', channel=0, note=52, velocity=59, time=12),\n",
       "   Message('note_on', channel=0, note=61, velocity=84, time=0),\n",
       "   Message('note_on', channel=0, note=73, velocity=73, time=1),\n",
       "   Message('note_on', channel=0, note=57, velocity=0, time=49),\n",
       "   Message('note_on', channel=0, note=62, velocity=0, time=38),\n",
       "   Message('note_on', channel=0, note=52, velocity=0, time=18),\n",
       "   Message('note_on', channel=0, note=45, velocity=0, time=1),\n",
       "   Message('note_on', channel=0, note=59, velocity=81, time=184),\n",
       "   Message('note_on', channel=0, note=71, velocity=78, time=4),\n",
       "   Message('note_on', channel=0, note=52, velocity=70, time=6),\n",
       "   Message('note_on', channel=0, note=45, velocity=58, time=6),\n",
       "   Message('note_on', channel=0, note=61, velocity=0, time=56),\n",
       "   Message('note_on', channel=0, note=73, velocity=0, time=2),\n",
       "   Message('note_on', channel=0, note=59, velocity=0, time=461),\n",
       "   Message('note_on', channel=0, note=62, velocity=71, time=7),\n",
       "   Message('note_on', channel=0, note=59, velocity=61, time=3),\n",
       "   Message('note_on', channel=0, note=59, velocity=0, time=41),\n",
       "   Message('note_on', channel=0, note=52, velocity=0, time=225),\n",
       "   Message('note_on', channel=0, note=71, velocity=0, time=0),\n",
       "   Message('note_on', channel=0, note=59, velocity=79, time=9),\n",
       "   Message('note_on', channel=0, note=52, velocity=52, time=2),\n",
       "   Message('note_on', channel=0, note=71, velocity=76, time=0),\n",
       "   Message('note_on', channel=0, note=62, velocity=0, time=118),\n",
       "   Message('note_on', channel=0, note=59, velocity=0, time=416),\n",
       "   Message('note_on', channel=0, note=74, velocity=68, time=4),\n",
       "   Message('note_on', channel=0, note=62, velocity=75, time=0),\n",
       "   Message('note_on', channel=0, note=59, velocity=63, time=2),\n",
       "   Message('note_on', channel=0, note=45, velocity=0, time=14),\n",
       "   Message('note_on', channel=0, note=52, velocity=0, time=2),\n",
       "   Message('note_on', channel=0, note=71, velocity=0, time=16),\n",
       "   Message('note_on', channel=0, note=59, velocity=0, time=6),\n",
       "   Message('note_on', channel=0, note=61, velocity=79, time=216),\n",
       "   Message('note_on', channel=0, note=73, velocity=75, time=0),\n",
       "   Message('note_on', channel=0, note=45, velocity=64, time=4),\n",
       "   Message('note_on', channel=0, note=52, velocity=72, time=1),\n",
       "   Message('note_on', channel=0, note=57, velocity=67, time=0),\n",
       "   Message('note_on', channel=0, note=74, velocity=0, time=19),\n",
       "   Message('note_on', channel=0, note=62, velocity=0, time=6),\n",
       "   Message('note_on', channel=0, note=52, velocity=0, time=225),\n",
       "   Message('note_on', channel=0, note=61, velocity=0, time=0),\n",
       "   Message('note_on', channel=0, note=73, velocity=0, time=0),\n",
       "   Message('note_on', channel=0, note=62, velocity=78, time=5),\n",
       "   Message('note_on', channel=0, note=52, velocity=59, time=1),\n",
       "   Message('note_on', channel=0, note=73, velocity=67, time=0),\n",
       "   Message('note_on', channel=0, note=74, velocity=73, time=3),\n",
       "   Message('note_on', channel=0, note=61, velocity=70, time=1),\n",
       "   Message('note_on', channel=0, note=74, velocity=0, time=5),\n",
       "   Message('note_on', channel=0, note=61, velocity=0, time=27),\n",
       "   Message('note_on', channel=0, note=57, velocity=0, time=58),\n",
       "   Message('note_on', channel=0, note=52, velocity=0, time=146),\n",
       "   Message('note_on', channel=0, note=73, velocity=0, time=0),\n",
       "   Message('note_on', channel=0, note=73, velocity=72, time=4),\n",
       "   Message('note_on', channel=0, note=61, velocity=80, time=0),\n",
       "   Message('note_on', channel=0, note=52, velocity=60, time=2),\n",
       "   Message('note_on', channel=0, note=62, velocity=0, time=147),\n",
       "   Message('note_on', channel=0, note=59, velocity=84, time=126),\n",
       "   Message('note_on', channel=0, note=71, velocity=80, time=1),\n",
       "   Message('note_on', channel=0, note=73, velocity=0, time=88),\n",
       "   Message('note_on', channel=0, note=61, velocity=0, time=4),\n",
       "   Message('note_on', channel=0, note=52, velocity=0, time=142),\n",
       "   Message('note_on', channel=0, note=52, velocity=53, time=4),\n",
       "   Message('note_on', channel=0, note=61, velocity=77, time=2),\n",
       "   Message('note_on', channel=0, note=73, velocity=71, time=0),\n",
       "   Message('note_on', channel=0, note=59, velocity=0, time=74),\n",
       "   Message('note_on', channel=0, note=71, velocity=0, time=28),\n",
       "   Message('note_on', channel=0, note=59, velocity=80, time=147),\n",
       "   Message('note_on', channel=0, note=71, velocity=76, time=2),\n",
       "   Message('note_on', channel=0, note=73, velocity=0, time=73),\n",
       "   Message('note_on', channel=0, note=61, velocity=0, time=25),\n",
       "   Message('note_on', channel=0, note=69, velocity=62, time=190),\n",
       "   Message('note_on', channel=0, note=52, velocity=0, time=0),\n",
       "   Message('note_on', channel=0, note=57, velocity=72, time=2),\n",
       "   Message('note_on', channel=0, note=52, velocity=44, time=4),\n",
       "   Message('note_on', channel=0, note=59, velocity=0, time=57),\n",
       "   Message('note_on', channel=0, note=71, velocity=0, time=7),\n",
       "   Message('note_on', channel=0, note=52, velocity=0, time=600),\n",
       "   Message('note_on', channel=0, note=45, velocity=0, time=3),\n",
       "   Message('note_on', channel=0, note=52, velocity=66, time=269),\n",
       "   Message('note_on', channel=0, note=57, velocity=0, time=3),\n",
       "   Message('note_on', channel=0, note=57, velocity=52, time=6),\n",
       "   Message('note_on', channel=0, note=45, velocity=56, time=3),\n",
       "   Message('note_on', channel=0, note=52, velocity=0, time=945),\n",
       "   Message('note_on', channel=0, note=45, velocity=0, time=17),\n",
       "   Message('note_on', channel=0, note=69, velocity=0, time=4),\n",
       "   Message('note_on', channel=0, note=57, velocity=0, time=4),\n",
       "   Message('control_change', channel=0, control=64, value=127, time=2155),\n",
       "   Message('note_on', channel=0, note=52, velocity=76, time=402),\n",
       "   Message('note_on', channel=0, note=48, velocity=77, time=1),\n",
       "   Message('note_on', channel=0, note=55, velocity=70, time=0),\n",
       "   Message('note_on', channel=0, note=72, velocity=89, time=215),\n",
       "   Message('control_change', channel=0, control=64, value=0, time=23),\n",
       "   Message('control_change', channel=0, control=64, value=127, time=11),\n",
       "   Message('note_on', channel=0, note=72, velocity=0, time=131),\n",
       "   Message('note_on', channel=0, note=48, velocity=0, time=15),\n",
       "   Message('note_on', channel=0, note=52, velocity=0, time=0),\n",
       "   Message('control_change', channel=0, control=64, value=0, time=4),\n",
       "   Message('note_on', channel=0, note=71, velocity=84, time=5),\n",
       "   Message('note_on', channel=0, note=52, velocity=55, time=1),\n",
       "   Message('note_on', channel=0, note=48, velocity=57, time=0),\n",
       "   Message('note_on', channel=0, note=52, velocity=0, time=167),\n",
       "   Message('note_on', channel=0, note=55, velocity=0, time=0),\n",
       "   Message('note_on', channel=0, note=52, velocity=59, time=4),\n",
       "   Message('note_on', channel=0, note=55, velocity=54, time=1),\n",
       "   Message('note_on', channel=0, note=81, velocity=82, time=1),\n",
       "   Message('note_on', channel=0, note=69, velocity=87, time=0),\n",
       "   Message('note_on', channel=0, note=71, velocity=0, time=63),\n",
       "   Message('note_on', channel=0, note=52, velocity=0, time=108),\n",
       "   Message('note_on', channel=0, note=48, velocity=0, time=7),\n",
       "   Message('note_on', channel=0, note=52, velocity=53, time=3),\n",
       "   Message('note_on', channel=0, note=79, velocity=77, time=1),\n",
       "   Message('note_on', channel=0, note=67, velocity=85, time=1),\n",
       "   Message('note_on', channel=0, note=48, velocity=51, time=0),\n",
       "   Message('note_on', channel=0, note=69, velocity=0, time=49),\n",
       "   Message('note_on', channel=0, note=81, velocity=0, time=23),\n",
       "   Message('note_on', channel=0, note=79, velocity=0, time=85),\n",
       "   Message('note_on', channel=0, note=65, velocity=74, time=32),\n",
       "   Message('note_on', channel=0, note=77, velocity=70, time=0),\n",
       "   Message('note_on', channel=0, note=67, velocity=0, time=19),\n",
       "   Message('note_on', channel=0, note=77, velocity=0, time=148),\n",
       "   Message('note_on', channel=0, note=64, velocity=80, time=11),\n",
       "   Message('note_on', channel=0, note=76, velocity=68, time=1),\n",
       "   Message('note_on', channel=0, note=65, velocity=0, time=35),\n",
       "   Message('note_on', channel=0, note=74, velocity=65, time=144),\n",
       "   Message('note_on', channel=0, note=62, velocity=71, time=2),\n",
       "   Message('note_on', channel=0, note=76, velocity=0, time=38),\n",
       "   Message('note_on', channel=0, note=52, velocity=0, time=12),\n",
       "   Message('note_on', channel=0, note=64, velocity=0, time=7),\n",
       "   Message('note_on', channel=0, note=74, velocity=0, time=111),\n",
       "   Message('note_on', channel=0, note=72, velocity=71, time=21),\n",
       "   Message('note_on', channel=0, note=60, velocity=76, time=2),\n",
       "   Message('note_on', channel=0, note=62, velocity=0, time=66),\n",
       "   Message('note_on', channel=0, note=48, velocity=0, time=32),\n",
       "   Message('note_on', channel=0, note=55, velocity=0, time=2),\n",
       "   Message('note_on', channel=0, note=55, velocity=52, time=325),\n",
       "   Message('note_on', channel=0, note=52, velocity=47, time=1),\n",
       "   Message('note_on', channel=0, note=48, velocity=46, time=0),\n",
       "   Message('note_on', channel=0, note=52, velocity=0, time=112),\n",
       "   Message('note_on', channel=0, note=48, velocity=0, time=14),\n",
       "   Message('note_on', channel=0, note=55, velocity=0, time=23),\n",
       "   Message('note_on', channel=0, note=48, velocity=59, time=213),\n",
       "   Message('note_on', channel=0, note=55, velocity=63, time=2),\n",
       "   Message('note_on', channel=0, note=52, velocity=55, time=7),\n",
       "   Message('note_on', channel=0, note=52, velocity=0, time=121),\n",
       "   Message('note_on', channel=0, note=48, velocity=0, time=9),\n",
       "   Message('note_on', channel=0, note=55, velocity=0, time=10),\n",
       "   Message('note_on', channel=0, note=55, velocity=72, time=212),\n",
       "   Message('note_on', channel=0, note=52, velocity=60, time=3),\n",
       "   Message('note_on', channel=0, note=48, velocity=64, time=2),\n",
       "   Message('note_on', channel=0, note=52, velocity=0, time=61),\n",
       "   Message('note_on', channel=0, note=48, velocity=0, time=15),\n",
       "   Message('note_on', channel=0, note=55, velocity=0, time=24),\n",
       "   Message('note_on', channel=0, note=72, velocity=0, time=121),\n",
       "   Message('note_on', channel=0, note=55, velocity=77, time=118),\n",
       "   Message('note_on', channel=0, note=53, velocity=77, time=0),\n",
       "   Message('note_on', channel=0, note=47, velocity=75, time=0),\n",
       "   Message('note_on', channel=0, note=60, velocity=0, time=28),\n",
       "   Message('control_change', channel=0, control=64, value=127, time=31),\n",
       "   Message('note_on', channel=0, note=74, velocity=87, time=110),\n",
       "   Message('note_on', channel=0, note=72, velocity=88, time=192),\n",
       "   Message('control_change', channel=0, control=64, value=0, time=8),\n",
       "   Message('control_change', channel=0, control=64, value=127, time=4),\n",
       "   Message('note_on', channel=0, note=74, velocity=0, time=53),\n",
       "   Message('control_change', channel=0, control=64, value=0, time=1),\n",
       "   Message('note_on', channel=0, note=71, velocity=87, time=85),\n",
       "   Message('note_on', channel=0, note=72, velocity=0, time=53),\n",
       "   Message('note_on', channel=0, note=53, velocity=0, time=116),\n",
       "   Message('note_on', channel=0, note=53, velocity=52, time=9),\n",
       "   Message('note_on', channel=0, note=81, velocity=78, time=1),\n",
       "   Message('note_on', channel=0, note=69, velocity=81, time=0),\n",
       "   Message('note_on', channel=0, note=71, velocity=0, time=36),\n",
       "   Message('note_on', channel=0, note=79, velocity=76, time=133),\n",
       "   Message('note_on', channel=0, note=67, velocity=81, time=1),\n",
       "   Message('note_on', channel=0, note=81, velocity=0, time=12),\n",
       "   Message('note_on', channel=0, note=69, velocity=0, time=27),\n",
       "   Message('note_on', channel=0, note=79, velocity=0, time=65),\n",
       "   Message('note_on', channel=0, note=65, velocity=77, time=73),\n",
       "   Message('note_on', channel=0, note=77, velocity=72, time=1),\n",
       "   Message('note_on', channel=0, note=67, velocity=0, time=23),\n",
       "   Message('note_on', channel=0, note=55, velocity=0, time=6),\n",
       "   Message('note_on', channel=0, note=77, velocity=0, time=127),\n",
       "   Message('note_on', channel=0, note=64, velocity=79, time=8),\n",
       "   Message('note_on', channel=0, note=76, velocity=66, time=2),\n",
       "   Message('note_on', channel=0, note=65, velocity=0, time=70),\n",
       "   Message('note_on', channel=0, note=62, velocity=74, time=117),\n",
       "   Message('note_on', channel=0, note=74, velocity=65, time=1),\n",
       "   Message('note_on', channel=0, note=74, velocity=0, time=10),\n",
       "   Message('note_on', channel=0, note=64, velocity=0, time=51),\n",
       "   Message('note_on', channel=0, note=76, velocity=0, time=10),\n",
       "   Message('note_on', channel=0, note=53, velocity=0, time=47),\n",
       "   Message('note_on', channel=0, note=47, velocity=0, time=3),\n",
       "   Message('note_on', channel=0, note=47, velocity=56, time=243),\n",
       "   Message('note_on', channel=0, note=53, velocity=55, time=2),\n",
       "   Message('note_on', channel=0, note=55, velocity=55, time=1),\n",
       "   Message('note_on', channel=0, note=47, velocity=0, time=123),\n",
       "   Message('note_on', channel=0, note=53, velocity=0, time=1),\n",
       "   Message('note_on', channel=0, note=55, velocity=0, time=35),\n",
       "   Message('note_on', channel=0, note=55, velocity=68, time=191),\n",
       "   Message('note_on', channel=0, note=47, velocity=64, time=2),\n",
       "   Message('note_on', channel=0, note=50, velocity=52, time=5),\n",
       "   Message('note_on', channel=0, note=53, velocity=65, time=1),\n",
       "   Message('note_on', channel=0, note=47, velocity=0, time=124),\n",
       "   Message('note_on', channel=0, note=53, velocity=0, time=1),\n",
       "   Message('note_on', channel=0, note=50, velocity=0, time=20),\n",
       "   Message('note_on', channel=0, note=55, velocity=0, time=9),\n",
       "   Message('note_on', channel=0, note=53, velocity=63, time=187),\n",
       "   Message('note_on', channel=0, note=47, velocity=62, time=0),\n",
       "   Message('note_on', channel=0, note=55, velocity=68, time=1),\n",
       "   Message('note_on', channel=0, note=47, velocity=0, time=64),\n",
       "   Message('note_on', channel=0, note=53, velocity=0, time=40),\n",
       "   Message('note_on', channel=0, note=62, velocity=0, time=1),\n",
       "   Message('note_on', channel=0, note=55, velocity=0, time=8),\n",
       "   Message('note_on', channel=0, note=48, velocity=71, time=224),\n",
       "   Message('note_on', channel=0, note=55, velocity=69, time=1),\n",
       "   Message('note_on', channel=0, note=52, velocity=70, time=2),\n",
       "   Message('control_change', channel=0, control=64, value=127, time=131),\n",
       "   Message('note_on', channel=0, note=76, velocity=81, time=47),\n",
       "   Message('note_on', channel=0, note=74, velocity=90, time=170),\n",
       "   Message('control_change', channel=0, control=64, value=0, time=6),\n",
       "   Message('note_on', channel=0, note=76, velocity=0, time=20),\n",
       "   Message('note_on', channel=0, note=72, velocity=94, time=126),\n",
       "   Message('note_on', channel=0, note=74, velocity=0, time=65),\n",
       "   Message('note_on', channel=0, note=48, velocity=0, time=88),\n",
       "   Message('note_on', channel=0, note=52, velocity=0, time=0),\n",
       "   Message('note_on', channel=0, note=48, velocity=48, time=11),\n",
       "   Message('note_on', channel=0, note=52, velocity=49, time=1),\n",
       "   Message('note_on', channel=0, note=71, velocity=81, time=0),\n",
       "   Message('note_on', channel=0, note=72, velocity=0, time=86),\n",
       "   Message('note_on', channel=0, note=81, velocity=73, time=80),\n",
       "   Message('note_on', channel=0, note=69, velocity=76, time=2),\n",
       "   Message('note_on', channel=0, note=52, velocity=0, time=12),\n",
       "   Message('note_on', channel=0, note=71, velocity=0, time=8),\n",
       "   Message('note_on', channel=0, note=52, velocity=44, time=2),\n",
       "   Message('note_on', channel=0, note=52, velocity=0, time=128),\n",
       "   Message('note_on', channel=0, note=52, velocity=53, time=10),\n",
       "   Message('note_on', channel=0, note=79, velocity=75, time=0),\n",
       "   Message('note_on', channel=0, note=67, velocity=81, time=1),\n",
       "   Message('note_on', channel=0, note=79, velocity=0, time=5),\n",
       "   Message('note_on', channel=0, note=81, velocity=0, time=7),\n",
       "   Message('note_on', channel=0, note=69, velocity=0, time=13),\n",
       "   Message('note_on', channel=0, note=65, velocity=75, time=133),\n",
       "   Message('note_on', channel=0, note=77, velocity=67, time=0),\n",
       "   Message('note_on', channel=0, note=67, velocity=0, time=58),\n",
       "   Message('note_on', channel=0, note=77, velocity=0, time=11),\n",
       "   Message('note_on', channel=0, note=64, velocity=81, time=121),\n",
       "   Message('note_on', channel=0, note=76, velocity=67, time=2),\n",
       "   Message('note_on', channel=0, note=65, velocity=0, time=61),\n",
       "   Message('note_on', channel=0, note=52, velocity=0, time=76),\n",
       "   Message('note_on', channel=0, note=48, velocity=0, time=4),\n",
       "   Message('note_on', channel=0, note=55, velocity=0, time=28),\n",
       "   Message('note_on', channel=0, note=48, velocity=64, time=196),\n",
       "   Message('note_on', channel=0, note=55, velocity=65, time=3),\n",
       "   Message('note_on', channel=0, note=52, velocity=59, time=3),\n",
       "   Message('note_on', channel=0, note=52, velocity=0, time=107),\n",
       "   Message('note_on', channel=0, note=48, velocity=0, time=10),\n",
       "   Message('note_on', channel=0, note=55, velocity=0, time=30),\n",
       "   Message('note_on', channel=0, note=48, velocity=60, time=208),\n",
       "   Message('note_on', channel=0, note=55, velocity=67, time=0),\n",
       "   Message('note_on', channel=0, note=52, velocity=57, time=5),\n",
       "   Message('note_on', channel=0, note=52, velocity=0, time=97),\n",
       "   Message('note_on', channel=0, note=48, velocity=0, time=7),\n",
       "   Message('note_on', channel=0, note=55, velocity=0, time=20),\n",
       "   Message('note_on', channel=0, note=55, velocity=62, time=200),\n",
       "   Message('note_on', channel=0, note=48, velocity=56, time=1),\n",
       "   Message('note_on', channel=0, note=52, velocity=53, time=15),\n",
       "   Message('note_on', channel=0, note=76, velocity=0, time=21),\n",
       "   Message('note_on', channel=0, note=48, velocity=0, time=63),\n",
       "   Message('note_on', channel=0, note=52, velocity=0, time=13),\n",
       "   Message('note_on', channel=0, note=55, velocity=0, time=9),\n",
       "   Message('note_on', channel=0, note=64, velocity=0, time=21),\n",
       "   Message('note_on', channel=0, note=57, velocity=74, time=175),\n",
       "   Message('note_on', channel=0, note=53, velocity=69, time=1),\n",
       "   Message('note_on', channel=0, note=60, velocity=64, time=3),\n",
       "   Message('note_on', channel=0, note=48, velocity=64, time=3),\n",
       "   Message('control_change', channel=0, control=64, value=127, time=149),\n",
       "   Message('note_on', channel=0, note=77, velocity=86, time=17),\n",
       "   Message('note_on', channel=0, note=76, velocity=83, time=165),\n",
       "   Message('control_change', channel=0, control=64, value=0, time=19),\n",
       "   Message('note_on', channel=0, note=77, velocity=0, time=18),\n",
       "   Message('note_on', channel=0, note=74, velocity=86, time=115),\n",
       "   Message('note_on', channel=0, note=72, velocity=88, time=163),\n",
       "   Message('note_on', channel=0, note=74, velocity=0, time=76),\n",
       "   Message('note_on', channel=0, note=71, velocity=80, time=81),\n",
       "   Message('note_on', channel=0, note=76, velocity=0, time=14),\n",
       "   Message('note_on', channel=0, note=72, velocity=0, time=23),\n",
       "   Message('note_on', channel=0, note=60, velocity=0, time=54),\n",
       "   Message('note_on', channel=0, note=81, velocity=75, time=81),\n",
       "   Message('note_on', channel=0, note=69, velocity=75, time=0),\n",
       "   Message('note_on', channel=0, note=71, velocity=0, time=38),\n",
       "   Message('note_on', channel=0, note=79, velocity=72, time=122),\n",
       "   Message('note_on', channel=0, note=67, velocity=81, time=0),\n",
       "   Message('note_on', channel=0, note=69, velocity=0, time=47),\n",
       "   Message('note_on', channel=0, note=81, velocity=0, time=111),\n",
       "   Message('note_on', channel=0, note=65, velocity=77, time=28),\n",
       "   Message('note_on', channel=0, note=77, velocity=68, time=1),\n",
       "   Message('note_on', channel=0, note=79, velocity=0, time=17),\n",
       "   Message('note_on', channel=0, note=67, velocity=0, time=20),\n",
       "   Message('note_on', channel=0, note=53, velocity=0, time=65),\n",
       "   Message('note_on', channel=0, note=48, velocity=0, time=12),\n",
       "   Message('note_on', channel=0, note=57, velocity=0, time=7),\n",
       "   Message('note_on', channel=0, note=77, velocity=0, time=219),\n",
       "   Message('note_on', channel=0, note=53, velocity=54, time=3),\n",
       "   Message('note_on', channel=0, note=57, velocity=60, time=2),\n",
       "   Message('note_on', channel=0, note=48, velocity=60, time=4),\n",
       "   Message('note_on', channel=0, note=53, velocity=0, time=144),\n",
       "   Message('note_on', channel=0, note=48, velocity=0, time=3),\n",
       "   Message('note_on', channel=0, note=57, velocity=0, time=8),\n",
       "   Message('note_on', channel=0, note=48, velocity=63, time=189),\n",
       "   Message('note_on', channel=0, note=53, velocity=62, time=1),\n",
       "   Message('note_on', channel=0, note=57, velocity=64, time=2),\n",
       "   Message('note_on', channel=0, note=48, velocity=0, time=118),\n",
       "   Message('note_on', channel=0, note=53, velocity=0, time=12),\n",
       "   Message('note_on', channel=0, note=57, velocity=0, time=9),\n",
       "   Message('note_on', channel=0, note=48, velocity=62, time=199),\n",
       "   Message('note_on', channel=0, note=57, velocity=63, time=0),\n",
       "   Message('note_on', channel=0, note=53, velocity=63, time=0),\n",
       "   Message('note_on', channel=0, note=48, velocity=0, time=76),\n",
       "   Message('note_on', channel=0, note=57, velocity=0, time=25),\n",
       "   Message('note_on', channel=0, note=53, velocity=0, time=7),\n",
       "   Message('note_on', channel=0, note=65, velocity=0, time=2),\n",
       "   Message('note_on', channel=0, note=48, velocity=66, time=210),\n",
       "   Message('note_on', channel=0, note=55, velocity=70, time=1),\n",
       "   Message('note_on', channel=0, note=52, velocity=64, time=1),\n",
       "   Message('control_change', channel=0, control=64, value=127, time=105),\n",
       "   Message('note_on', channel=0, note=79, velocity=84, time=77),\n",
       "   Message('control_change', channel=0, control=64, value=0, time=114),\n",
       "   Message('control_change', channel=0, control=64, value=127, time=24),\n",
       "   Message('note_on', channel=0, note=77, velocity=89, time=31),\n",
       "   Message('note_on', channel=0, note=79, velocity=0, time=35),\n",
       "   Message('control_change', channel=0, control=64, value=0, time=11),\n",
       "   Message('note_on', channel=0, note=76, velocity=88, time=98),\n",
       "   Message('note_on', channel=0, note=77, velocity=0, time=44),\n",
       "   Message('note_on', channel=0, note=74, velocity=87, time=120),\n",
       "   Message('note_on', channel=0, note=76, velocity=0, time=129),\n",
       "   Message('note_on', channel=0, note=72, velocity=84, time=32),\n",
       "   Message('note_on', channel=0, note=74, velocity=0, time=49),\n",
       "   Message('note_on', channel=0, note=55, velocity=0, time=96),\n",
       "   Message('note_on', channel=0, note=55, velocity=52, time=10),\n",
       "   Message('note_on', channel=0, note=71, velocity=81, time=0),\n",
       "   Message('note_on', channel=0, note=72, velocity=0, time=36),\n",
       "   Message('note_on', channel=0, note=81, velocity=75, time=121),\n",
       "   Message('note_on', channel=0, note=69, velocity=81, time=3),\n",
       "   Message('note_on', channel=0, note=81, velocity=0, time=7),\n",
       "   Message('note_on', channel=0, note=71, velocity=0, time=30),\n",
       "   Message('note_on', channel=0, note=79, velocity=74, time=138),\n",
       "   Message('note_on', channel=0, note=67, velocity=82, time=1),\n",
       "   Message('note_on', channel=0, note=69, velocity=0, time=40),\n",
       "   Message('note_on', channel=0, note=48, velocity=0, time=80),\n",
       "   Message('note_on', channel=0, note=52, velocity=0, time=10),\n",
       "   Message('note_on', channel=0, note=55, velocity=0, time=39),\n",
       "   Message('note_on', channel=0, note=79, velocity=0, time=107),\n",
       "   Message('note_on', channel=0, note=55, velocity=58, time=81),\n",
       "   Message('note_on', channel=0, note=48, velocity=56, time=5),\n",
       "   Message('note_on', channel=0, note=52, velocity=56, time=0),\n",
       "   Message('note_on', channel=0, note=52, velocity=0, time=139),\n",
       "   Message('note_on', channel=0, note=48, velocity=0, time=2),\n",
       "   Message('note_on', channel=0, note=55, velocity=0, time=7),\n",
       "   Message('note_on', channel=0, note=48, velocity=63, time=195),\n",
       "   Message('note_on', channel=0, note=55, velocity=70, time=3),\n",
       "   Message('note_on', channel=0, note=52, velocity=64, time=2),\n",
       "   Message('note_on', channel=0, note=52, velocity=0, time=128),\n",
       "   Message('note_on', channel=0, note=48, velocity=0, time=9),\n",
       "   Message('note_on', channel=0, note=55, velocity=0, time=8),\n",
       "   Message('note_on', channel=0, note=55, velocity=69, time=191),\n",
       "   Message('note_on', channel=0, note=48, velocity=63, time=1),\n",
       "   Message('note_on', channel=0, note=52, velocity=64, time=1),\n",
       "   Message('note_on', channel=0, note=48, velocity=0, time=109),\n",
       "   Message('note_on', channel=0, note=52, velocity=0, time=5),\n",
       "   Message('note_on', channel=0, note=55, velocity=0, time=2),\n",
       "   Message('note_on', channel=0, note=67, velocity=0, time=26),\n",
       "   Message('note_on', channel=0, note=53, velocity=65, time=196),\n",
       "   Message('note_on', channel=0, note=57, velocity=69, time=1),\n",
       "   Message('note_on', channel=0, note=48, velocity=66, time=2),\n",
       "   Message('note_on', channel=0, note=81, velocity=86, time=176),\n",
       "   Message('control_change', channel=0, control=64, value=127, time=55),\n",
       "   Message('note_on', channel=0, note=79, velocity=86, time=96),\n",
       "   Message('control_change', channel=0, control=64, value=0, time=35),\n",
       "   Message('note_on', channel=0, note=81, velocity=0, time=23),\n",
       "   Message('note_on', channel=0, note=77, velocity=92, time=87),\n",
       "   Message('note_on', channel=0, note=79, velocity=0, time=112),\n",
       "   Message('note_on', channel=0, note=76, velocity=86, time=54),\n",
       "   Message('note_on', channel=0, note=77, velocity=0, time=74),\n",
       "   Message('note_on', channel=0, note=74, velocity=84, time=84),\n",
       "   Message('note_on', channel=0, note=76, velocity=0, time=52),\n",
       "   Message('note_on', channel=0, note=72, velocity=85, time=101),\n",
       "   Message('note_on', channel=0, note=74, velocity=0, time=36),\n",
       "   Message('note_on', channel=0, note=71, velocity=80, time=122),\n",
       "   Message('note_on', channel=0, note=72, velocity=0, time=86),\n",
       "   Message('note_on', channel=0, note=71, velocity=0, time=60),\n",
       "   Message('note_on', channel=0, note=81, velocity=78, time=39),\n",
       "   Message('note_on', channel=0, note=69, velocity=79, time=1),\n",
       "   Message('note_on', channel=0, note=57, velocity=0, time=71),\n",
       "   Message('note_on', channel=0, note=53, velocity=0, time=6),\n",
       "   Message('note_on', channel=0, note=48, velocity=0, time=1),\n",
       "   Message('note_on', channel=0, note=53, velocity=58, time=255),\n",
       "   Message('note_on', channel=0, note=48, velocity=59, time=6),\n",
       "   Message('note_on', channel=0, note=57, velocity=59, time=0),\n",
       "   Message('note_on', channel=0, note=53, velocity=0, time=140),\n",
       "   Message('note_on', channel=0, note=48, velocity=0, time=0),\n",
       "   Message('note_on', channel=0, note=57, velocity=0, time=2),\n",
       "   Message('note_on', channel=0, note=48, velocity=61, time=197),\n",
       "   Message('note_on', channel=0, note=57, velocity=66, time=0),\n",
       "   Message('note_on', channel=0, note=53, velocity=59, time=0),\n",
       "   Message('note_on', channel=0, note=81, velocity=0, time=57),\n",
       "   Message('note_on', channel=0, note=53, velocity=0, time=74),\n",
       "   Message('note_on', channel=0, note=48, velocity=0, time=6),\n",
       "   Message('note_on', channel=0, note=57, velocity=0, time=23),\n",
       "   Message('note_on', channel=0, note=57, velocity=70, time=164),\n",
       "   Message('note_on', channel=0, note=48, velocity=62, time=5),\n",
       "   Message('note_on', channel=0, note=53, velocity=60, time=2),\n",
       "   Message('note_on', channel=0, note=48, velocity=0, time=76),\n",
       "   Message('note_on', channel=0, note=69, velocity=0, time=5),\n",
       "   Message('note_on', channel=0, note=57, velocity=0, time=18),\n",
       "   Message('note_on', channel=0, note=53, velocity=0, time=7),\n",
       "   Message('note_on', channel=0, note=55, velocity=81, time=215),\n",
       "   Message('note_on', channel=0, note=53, velocity=76, time=4),\n",
       "   Message('note_on', channel=0, note=47, velocity=71, time=1),\n",
       "   Message('control_change', channel=0, control=64, value=127, time=53),\n",
       "   Message('note_on', channel=0, note=83, velocity=77, time=109),\n",
       "   Message('note_on', channel=0, note=81, velocity=82, time=164),\n",
       "   Message('control_change', channel=0, control=64, value=0, time=43),\n",
       "   Message('note_on', channel=0, note=79, velocity=87, time=105),\n",
       "   Message('note_on', channel=0, note=83, velocity=0, time=71),\n",
       "   Message('note_on', channel=0, note=81, velocity=0, time=3),\n",
       "   Message('note_on', channel=0, note=77, velocity=86, time=93),\n",
       "   Message('note_on', channel=0, note=79, velocity=0, time=49),\n",
       "   Message('note_on', channel=0, note=76, velocity=81, time=98),\n",
       "   Message('note_on', channel=0, note=77, velocity=0, time=46),\n",
       "   Message('note_on', channel=0, note=74, velocity=83, time=113),\n",
       "   Message('note_on', channel=0, note=76, velocity=0, time=46),\n",
       "   Message('note_on', channel=0, note=72, velocity=83, time=115),\n",
       "   Message('note_on', channel=0, note=74, velocity=0, time=61),\n",
       "   Message('note_on', channel=0, note=71, velocity=82, time=113),\n",
       "   Message('note_on', channel=0, note=53, velocity=0, time=92),\n",
       "   Message('note_on', channel=0, note=72, velocity=0, time=15),\n",
       "   Message('note_on', channel=0, note=47, velocity=0, time=8),\n",
       "   Message('note_on', channel=0, note=55, velocity=0, time=11),\n",
       "   Message('note_on', channel=0, note=55, velocity=61, time=215),\n",
       "   Message('note_on', channel=0, note=53, velocity=62, time=8),\n",
       "   Message('note_on', channel=0, note=47, velocity=56, time=0),\n",
       "   Message('note_on', channel=0, note=53, velocity=0, time=130),\n",
       "   Message('note_on', channel=0, note=47, velocity=0, time=1),\n",
       "   Message('note_on', channel=0, note=55, velocity=0, time=17),\n",
       "   Message('note_on', channel=0, note=55, velocity=67, time=175),\n",
       "   Message('note_on', channel=0, note=47, velocity=57, time=1),\n",
       "   Message('note_on', channel=0, note=53, velocity=66, time=5),\n",
       "   Message('note_on', channel=0, note=53, velocity=0, time=110),\n",
       "   Message('note_on', channel=0, note=47, velocity=0, time=6),\n",
       "   Message('note_on', channel=0, note=55, velocity=0, time=25),\n",
       "   Message('note_on', channel=0, note=55, velocity=67, time=196),\n",
       "   Message('note_on', channel=0, note=47, velocity=60, time=2),\n",
       "   Message('note_on', channel=0, note=53, velocity=65, time=0),\n",
       "   Message('note_on', channel=0, note=47, velocity=0, time=54),\n",
       "   Message('note_on', channel=0, note=53, velocity=0, time=47),\n",
       "   Message('note_on', channel=0, note=55, velocity=0, time=21),\n",
       "   Message('note_on', channel=0, note=71, velocity=0, time=44),\n",
       "   Message('note_on', channel=0, note=48, velocity=70, time=160),\n",
       "   Message('note_on', channel=0, note=55, velocity=70, time=0),\n",
       "   Message('note_on', channel=0, note=52, velocity=70, time=3),\n",
       "   Message('control_change', channel=0, control=64, value=127, time=59),\n",
       "   Message('note_on', channel=0, note=84, velocity=81, time=108),\n",
       "   Message('note_on', channel=0, note=83, velocity=84, time=155),\n",
       "   Message('note_on', channel=0, note=84, velocity=0, time=26),\n",
       "   Message('note_on', channel=0, note=81, velocity=88, time=121),\n",
       "   Message('note_on', channel=0, note=83, velocity=0, time=48),\n",
       "   Message('control_change', channel=0, control=64, value=0, time=26),\n",
       "   Message('note_on', channel=0, note=79, velocity=82, time=78),\n",
       "   Message('note_on', channel=0, note=81, velocity=0, time=82),\n",
       "   Message('note_on', channel=0, note=77, velocity=86, time=72),\n",
       "   Message('note_on', channel=0, note=79, velocity=0, time=22),\n",
       "   Message('note_on', channel=0, note=76, velocity=81, time=145),\n",
       "   Message('note_on', channel=0, note=77, velocity=0, time=31),\n",
       "   Message('note_on', channel=0, note=74, velocity=82, time=130),\n",
       "   Message('note_on', channel=0, note=76, velocity=0, time=85),\n",
       "   Message('note_on', channel=0, note=72, velocity=72, time=105),\n",
       "   Message('note_on', channel=0, note=74, velocity=0, time=41),\n",
       "   Message('control_change', channel=0, control=64, value=127, time=1129),\n",
       "   Message('note_on', channel=0, note=72, velocity=0, time=304),\n",
       "   Message('note_on', channel=0, note=48, velocity=0, time=3),\n",
       "   Message('note_on', channel=0, note=52, velocity=0, time=4),\n",
       "   Message('control_change', channel=0, control=64, value=0, time=15),\n",
       "   Message('note_on', channel=0, note=55, velocity=0, time=27),\n",
       "   Message('note_on', channel=0, note=64, velocity=53, time=4572),\n",
       "   Message('note_on', channel=0, note=67, velocity=70, time=299),\n",
       "   Message('note_on', channel=0, note=64, velocity=0, time=31),\n",
       "   Message('note_on', channel=0, note=69, velocity=78, time=231),\n",
       "   Message('note_on', channel=0, note=67, velocity=0, time=26),\n",
       "   Message('note_on', channel=0, note=72, velocity=74, time=246),\n",
       "   Message('note_on', channel=0, note=69, velocity=0, time=111),\n",
       "   Message('note_on', channel=0, note=69, velocity=61, time=134),\n",
       "   Message('note_on', channel=0, note=72, velocity=0, time=77),\n",
       "   Message('note_on', channel=0, note=67, velocity=74, time=170),\n",
       "   Message('note_on', channel=0, note=69, velocity=0, time=74),\n",
       "   Message('note_on', channel=0, note=64, velocity=66, time=199),\n",
       "   Message('note_on', channel=0, note=67, velocity=0, time=88),\n",
       "   Message('note_on', channel=0, note=60, velocity=51, time=440),\n",
       "   Message('note_on', channel=0, note=57, velocity=48, time=25),\n",
       "   Message('control_change', channel=0, control=64, value=127, time=143),\n",
       "   Message('note_on', channel=0, note=55, velocity=46, time=371),\n",
       "   Message('note_on', channel=0, note=64, velocity=0, time=118),\n",
       "   Message('control_change', channel=0, control=64, value=0, time=6),\n",
       "   Message('note_on', channel=0, note=57, velocity=0, time=11),\n",
       "   Message('control_change', channel=0, control=64, value=127, time=109),\n",
       "   Message('note_on', channel=0, note=64, velocity=65, time=252),\n",
       "   Message('control_change', channel=0, control=64, value=0, time=55),\n",
       "   Message('note_on', channel=0, note=55, velocity=0, time=18),\n",
       "   Message('note_on', channel=0, note=60, velocity=0, time=2),\n",
       "   Message('control_change', channel=0, control=64, value=127, time=141),\n",
       "   Message('note_on', channel=0, note=60, velocity=52, time=295),\n",
       "   Message('control_change', channel=0, control=64, value=0, time=35),\n",
       "   Message('note_on', channel=0, note=57, velocity=39, time=13),\n",
       "   Message('control_change', channel=0, control=64, value=127, time=80),\n",
       "   Message('note_on', channel=0, note=55, velocity=49, time=379),\n",
       "   Message('control_change', channel=0, control=64, value=0, time=83),\n",
       "   Message('note_on', channel=0, note=57, velocity=0, time=3),\n",
       "   Message('control_change', channel=0, control=64, value=127, time=149),\n",
       "   Message('note_on', channel=0, note=79, velocity=69, time=255),\n",
       "   Message('note_on', channel=0, note=67, velocity=77, time=0),\n",
       "   Message('note_on', channel=0, note=64, velocity=0, time=49),\n",
       "   Message('note_on', channel=0, note=60, velocity=0, time=8),\n",
       "   Message('control_change', channel=0, control=64, value=0, time=12),\n",
       "   Message('note_on', channel=0, note=55, velocity=0, time=8),\n",
       "   Message('note_on', channel=0, note=79, velocity=0, time=14),\n",
       "   Message('control_change', channel=0, control=64, value=127, time=46),\n",
       "   Message('note_on', channel=0, note=60, velocity=55, time=324),\n",
       "   Message('note_on', channel=0, note=57, velocity=49, time=23),\n",
       "   Message('control_change', channel=0, control=64, value=0, time=49),\n",
       "   Message('control_change', channel=0, control=64, value=127, time=111),\n",
       "   Message('note_on', channel=0, note=55, velocity=50, time=326),\n",
       "   Message('note_on', channel=0, note=57, velocity=0, time=140),\n",
       "   Message('control_change', channel=0, control=64, value=0, time=4),\n",
       "   Message('control_change', channel=0, control=64, value=127, time=159),\n",
       "   Message('note_on', channel=0, note=64, velocity=62, time=141),\n",
       "   Message('control_change', channel=0, control=64, value=0, time=28),\n",
       "   Message('note_on', channel=0, note=67, velocity=0, time=97),\n",
       "   Message('note_on', channel=0, note=60, velocity=0, time=1),\n",
       "   Message('note_on', channel=0, note=55, velocity=0, time=5),\n",
       "   Message('note_on', channel=0, note=67, velocity=79, time=107),\n",
       "   Message('note_on', channel=0, note=64, velocity=0, time=141),\n",
       "   Message('note_on', channel=0, note=81, velocity=80, time=89),\n",
       "   Message('note_on', channel=0, note=69, velocity=85, time=1),\n",
       "   Message('note_on', channel=0, note=67, velocity=0, time=32),\n",
       "   Message('note_on', channel=0, note=72, velocity=79, time=209),\n",
       "   Message('note_on', channel=0, note=81, velocity=0, time=109),\n",
       "   Message('note_on', channel=0, note=69, velocity=0, time=0),\n",
       "   Message('note_on', channel=0, note=69, velocity=72, time=100),\n",
       "   Message('note_on', channel=0, note=72, velocity=0, time=104),\n",
       "   Message('note_on', channel=0, note=67, velocity=79, time=140),\n",
       "   Message('note_on', channel=0, note=69, velocity=0, time=69),\n",
       "   Message('note_on', channel=0, note=64, velocity=72, time=194),\n",
       "   Message('note_on', channel=0, note=67, velocity=0, time=102),\n",
       "   Message('note_on', channel=0, note=60, velocity=60, time=379),\n",
       "   Message('note_on', channel=0, note=57, velocity=54, time=21),\n",
       "   Message('control_change', channel=0, control=64, value=127, time=159),\n",
       "   Message('note_on', channel=0, note=55, velocity=51, time=314),\n",
       "   Message('control_change', channel=0, control=64, value=0, time=46),\n",
       "   Message('note_on', channel=0, note=57, velocity=0, time=74),\n",
       "   Message('note_on', channel=0, note=64, velocity=0, time=85),\n",
       "   Message('note_on', channel=0, note=64, velocity=64, time=270),\n",
       "   Message('note_on', channel=0, note=55, velocity=0, time=73),\n",
       "   Message('note_on', channel=0, note=60, velocity=0, time=3),\n",
       "   Message('note_on', channel=0, note=60, velocity=46, time=410),\n",
       "   Message('note_on', channel=0, note=57, velocity=46, time=19),\n",
       "   Message('control_change', channel=0, control=64, value=127, time=195),\n",
       "   Message('control_change', channel=0, control=64, value=0, time=252),\n",
       "   Message('note_on', channel=0, note=55, velocity=55, time=22),\n",
       "   Message('control_change', channel=0, control=64, value=127, time=87),\n",
       "   Message('control_change', channel=0, control=64, value=0, time=54),\n",
       "   Message('note_on', channel=0, note=57, velocity=0, time=4),\n",
       "   Message('note_on', channel=0, note=65, velocity=75, time=319),\n",
       "   Message('note_on', channel=0, note=77, velocity=66, time=3),\n",
       "   Message('note_on', channel=0, note=55, velocity=0, time=47),\n",
       "   Message('note_on', channel=0, note=60, velocity=0, time=1),\n",
       "   Message('note_on', channel=0, note=64, velocity=0, time=123),\n",
       "   Message('note_on', channel=0, note=59, velocity=50, time=305),\n",
       "   Message('note_on', channel=0, note=57, velocity=47, time=9),\n",
       "   Message('note_on', channel=0, note=77, velocity=0, time=103),\n",
       "   Message('control_change', channel=0, control=64, value=127, time=292),\n",
       "   Message('note_on', channel=0, note=55, velocity=56, time=103),\n",
       "   Message('control_change', channel=0, control=64, value=0, time=127),\n",
       "   Message('note_on', channel=0, note=57, velocity=0, time=64),\n",
       "   Message('note_on', channel=0, note=65, velocity=0, time=48),\n",
       "   Message('note_on', channel=0, note=74, velocity=75, time=215),\n",
       "   Message('note_on', channel=0, note=71, velocity=85, time=202),\n",
       "   Message('note_on', channel=0, note=59, velocity=0, time=32),\n",
       "   Message('note_on', channel=0, note=55, velocity=0, time=15),\n",
       "   Message('note_on', channel=0, note=74, velocity=0, time=36),\n",
       "   Message('note_on', channel=0, note=81, velocity=77, time=133),\n",
       "   Message('note_on', channel=0, note=69, velocity=87, time=3),\n",
       "   Message('note_on', channel=0, note=71, velocity=0, time=94),\n",
       "   Message('note_on', channel=0, note=81, velocity=0, time=103),\n",
       "   Message('note_on', channel=0, note=67, velocity=81, time=30),\n",
       "   Message('note_on', channel=0, note=69, velocity=0, time=85),\n",
       "   Message('note_on', channel=0, note=65, velocity=72, time=156),\n",
       "   Message('note_on', channel=0, note=67, velocity=0, time=63),\n",
       "   Message('note_on', channel=0, note=67, velocity=70, time=148),\n",
       "   Message('note_on', channel=0, note=65, velocity=0, time=62),\n",
       "   Message('note_on', channel=0, note=65, velocity=71, time=206),\n",
       "   Message('note_on', channel=0, note=67, velocity=0, time=57),\n",
       "   Message('control_change', channel=0, control=64, value=127, time=376),\n",
       "   Message('note_on', channel=0, note=59, velocity=55, time=49),\n",
       "   Message('control_change', channel=0, control=64, value=0, time=12),\n",
       "   Message('note_on', channel=0, note=57, velocity=48, time=10),\n",
       "   Message('control_change', channel=0, control=64, value=127, time=113),\n",
       "   Message('control_change', channel=0, control=64, value=0, time=246),\n",
       "   Message('note_on', channel=0, note=55, velocity=52, time=104),\n",
       "   Message('note_on', channel=0, note=57, velocity=0, time=132),\n",
       "   Message('note_on', channel=0, note=65, velocity=0, time=71),\n",
       "   Message('note_on', channel=0, note=65, velocity=65, time=269),\n",
       "   Message('note_on', channel=0, note=59, velocity=0, time=57),\n",
       "   Message('note_on', channel=0, note=55, velocity=0, time=2),\n",
       "   Message('note_on', channel=0, note=59, velocity=56, time=413),\n",
       "   Message('note_on', channel=0, note=57, velocity=49, time=7),\n",
       "   Message('note_on', channel=0, note=55, velocity=59, time=488),\n",
       "   Message('note_on', channel=0, note=57, velocity=0, time=126),\n",
       "   Message('control_change', channel=0, control=64, value=127, time=74),\n",
       "   Message('note_on', channel=0, note=81, velocity=71, time=236),\n",
       "   Message('note_on', channel=0, note=69, velocity=78, time=1),\n",
       "   Message('control_change', channel=0, control=64, value=0, time=57),\n",
       "   Message('note_on', channel=0, note=55, velocity=0, time=33),\n",
       "   Message('note_on', channel=0, note=59, velocity=0, time=2),\n",
       "   Message('note_on', channel=0, note=65, velocity=0, time=44),\n",
       "   Message('note_on', channel=0, note=59, velocity=50, time=319),\n",
       "   Message('note_on', channel=0, note=57, velocity=37, time=36),\n",
       "   Message('control_change', channel=0, control=64, value=127, time=55),\n",
       "   Message('note_on', channel=0, note=81, velocity=0, time=62),\n",
       "   Message('note_on', channel=0, note=55, velocity=56, time=302),\n",
       "   Message('note_on', channel=0, note=74, velocity=76, time=432),\n",
       "   Message('note_on', channel=0, note=59, velocity=0, time=31),\n",
       "   Message('control_change', channel=0, control=64, value=0, time=2),\n",
       "   Message('note_on', channel=0, note=69, velocity=0, time=64),\n",
       "   Message('note_on', channel=0, note=57, velocity=0, time=6),\n",
       "   Message('note_on', channel=0, note=55, velocity=0, time=31),\n",
       "   Message('note_on', channel=0, note=71, velocity=74, time=96),\n",
       "   Message('note_on', channel=0, note=74, velocity=0, time=100),\n",
       "   Message('note_on', channel=0, note=69, velocity=82, time=99),\n",
       "   Message('note_on', channel=0, note=71, velocity=0, time=96),\n",
       "   Message('note_on', channel=0, note=67, velocity=77, time=128),\n",
       "   Message('note_on', channel=0, note=69, velocity=0, time=84),\n",
       "   Message('note_on', channel=0, note=65, velocity=65, time=155),\n",
       "   Message('note_on', channel=0, note=67, velocity=0, time=61),\n",
       "   Message('note_on', channel=0, note=67, velocity=69, time=143),\n",
       "   Message('note_on', channel=0, note=65, velocity=0, time=74),\n",
       "   Message('note_on', channel=0, note=65, velocity=69, time=189),\n",
       "   Message('note_on', channel=0, note=67, velocity=0, time=91),\n",
       "   Message('control_change', channel=0, control=64, value=127, time=358),\n",
       "   Message('note_on', channel=0, note=59, velocity=59, time=2),\n",
       "   Message('note_on', channel=0, note=57, velocity=49, time=19),\n",
       "   Message('control_change', channel=0, control=64, value=0, time=102),\n",
       "   Message('control_change', channel=0, control=64, value=127, time=92),\n",
       "   Message('control_change', channel=0, control=64, value=0, time=115),\n",
       "   Message('note_on', channel=0, note=55, velocity=52, time=153),\n",
       "   Message('note_on', channel=0, note=57, velocity=0, time=119),\n",
       "   Message('control_change', channel=0, control=64, value=127, time=74),\n",
       "   Message('note_on', channel=0, note=69, velocity=70, time=224),\n",
       "   Message('control_change', channel=0, control=64, value=0, time=19),\n",
       "   Message('note_on', channel=0, note=55, velocity=0, time=31),\n",
       "   Message('note_on', channel=0, note=59, velocity=0, time=11),\n",
       "   Message('note_on', channel=0, note=65, velocity=0, time=101),\n",
       "   Message('note_on', channel=0, note=59, velocity=50, time=300),\n",
       "   Message('note_on', channel=0, note=57, velocity=45, time=9),\n",
       "   Message('control_change', channel=0, control=64, value=127, time=395),\n",
       "   Message('note_on', channel=0, note=55, velocity=52, time=51),\n",
       "   Message('control_change', channel=0, control=64, value=0, time=19),\n",
       "   Message('control_change', channel=0, control=64, value=127, time=84),\n",
       "   Message('note_on', channel=0, note=57, velocity=0, time=56),\n",
       "   Message('note_on', channel=0, note=67, velocity=71, time=286),\n",
       "   Message('note_on', channel=0, note=59, velocity=0, time=17),\n",
       "   Message('note_on', channel=0, note=69, velocity=0, time=2),\n",
       "   Message('note_on', channel=0, note=55, velocity=0, time=4),\n",
       "   Message('control_change', channel=0, control=64, value=0, time=0),\n",
       "   Message('control_change', channel=0, control=64, value=127, time=180),\n",
       "   Message('note_on', channel=0, note=60, velocity=58, time=218),\n",
       "   Message('control_change', channel=0, control=64, value=0, time=33),\n",
       "   Message('note_on', channel=0, note=57, velocity=47, time=5),\n",
       "   Message('control_change', channel=0, control=64, value=127, time=36),\n",
       "   Message('note_on', channel=0, note=55, velocity=52, time=420),\n",
       "   Message('control_change', channel=0, control=64, value=0, time=10),\n",
       "   Message('note_on', channel=0, note=67, velocity=0, time=154),\n",
       "   Message('note_on', channel=0, note=67, velocity=34, time=5),\n",
       "   Message('note_on', channel=0, note=57, velocity=0, time=29),\n",
       "   Message('note_on', channel=0, note=67, velocity=0, time=242),\n",
       "   Message('note_on', channel=0, note=64, velocity=56, time=28),\n",
       "   Message('note_on', channel=0, note=60, velocity=0, time=29),\n",
       "   Message('note_on', channel=0, note=55, velocity=0, time=85),\n",
       "   Message('control_change', channel=0, control=64, value=127, time=81),\n",
       "   Message('note_on', channel=0, note=64, velocity=0, time=18),\n",
       "   Message('note_on', channel=0, note=79, velocity=70, time=10),\n",
       "   Message('note_on', channel=0, note=67, velocity=80, time=1),\n",
       "   Message('control_change', channel=0, control=64, value=0, time=4),\n",
       "   Message('note_on', channel=0, note=79, velocity=0, time=5),\n",
       "   Message('note_on', channel=0, note=81, velocity=75, time=207),\n",
       "   Message('note_on', channel=0, note=69, velocity=80, time=2),\n",
       "   Message('note_on', channel=0, note=67, velocity=0, time=139),\n",
       "   Message('note_on', channel=0, note=81, velocity=0, time=52),\n",
       "   Message('note_on', channel=0, note=72, velocity=81, time=34),\n",
       "   Message('note_on', channel=0, note=69, velocity=0, time=119),\n",
       "   Message('note_on', channel=0, note=81, velocity=66, time=89),\n",
       "   Message('note_on', channel=0, note=69, velocity=71, time=0),\n",
       "   Message('note_on', channel=0, note=72, velocity=0, time=123),\n",
       "   Message('note_on', channel=0, note=79, velocity=72, time=111),\n",
       "   Message('note_on', channel=0, note=67, velocity=80, time=1),\n",
       "   Message('note_on', channel=0, note=81, velocity=0, time=7),\n",
       "   Message('note_on', channel=0, note=69, velocity=0, time=63),\n",
       "   Message('note_on', channel=0, note=64, velocity=65, time=169),\n",
       "   Message('note_on', channel=0, note=76, velocity=56, time=5),\n",
       "   Message('note_on', channel=0, note=79, velocity=0, time=1),\n",
       "   Message('note_on', channel=0, note=67, velocity=0, time=89),\n",
       "   Message('note_on', channel=0, note=60, velocity=57, time=372),\n",
       "   Message('note_on', channel=0, note=57, velocity=57, time=17),\n",
       "   Message('control_change', channel=0, control=64, value=127, time=205),\n",
       "   Message('note_on', channel=0, note=55, velocity=50, time=282),\n",
       "   Message('note_on', channel=0, note=76, velocity=0, time=87),\n",
       "   Message('control_change', channel=0, control=64, value=0, time=15),\n",
       "   Message('note_on', channel=0, note=57, velocity=0, time=58),\n",
       "   Message('note_on', channel=0, note=64, velocity=0, time=257),\n",
       "   Message('note_on', channel=0, note=64, velocity=68, time=10),\n",
       "   Message('note_on', channel=0, note=60, velocity=0, time=60),\n",
       "   Message('note_on', channel=0, note=55, velocity=0, time=0),\n",
       "   Message('note_on', channel=0, note=60, velocity=51, time=402),\n",
       "   Message('note_on', channel=0, note=57, velocity=51, time=22),\n",
       "   Message('control_change', channel=0, control=64, value=127, time=144),\n",
       "   Message('control_change', channel=0, control=64, value=0, time=327),\n",
       "   Message('note_on', channel=0, note=55, velocity=46, time=1),\n",
       "   Message('control_change', channel=0, control=64, value=127, time=132),\n",
       "   Message('control_change', channel=0, control=64, value=0, time=16),\n",
       "   Message('note_on', channel=0, note=57, velocity=0, time=16),\n",
       "   Message('note_on', channel=0, note=60, velocity=0, time=78),\n",
       "   Message('note_on', channel=0, note=79, velocity=68, time=201),\n",
       "   Message('note_on', channel=0, note=67, velocity=77, time=0),\n",
       "   Message('note_on', channel=0, note=55, velocity=0, time=17),\n",
       "   Message('note_on', channel=0, note=64, velocity=0, time=102),\n",
       "   Message('control_change', channel=0, control=64, value=127, time=139),\n",
       "   Message('note_on', channel=0, note=60, velocity=56, time=162),\n",
       "   Message('note_on', channel=0, note=57, velocity=48, time=26),\n",
       "   Message('note_on', channel=0, note=79, velocity=0, time=326),\n",
       "   Message('control_change', channel=0, control=64, value=0, time=36),\n",
       "   Message('note_on', channel=0, note=55, velocity=51, time=68),\n",
       "   Message('note_on', channel=0, note=57, velocity=0, time=59),\n",
       "   Message('note_on', channel=0, note=67, velocity=0, time=144),\n",
       "   Message('note_on', channel=0, note=64, velocity=60, time=236),\n",
       "   Message('note_on', channel=0, note=55, velocity=0, time=103),\n",
       "   Message('note_on', channel=0, note=60, velocity=0, time=2),\n",
       "   Message('note_on', channel=0, note=67, velocity=77, time=103),\n",
       "   Message('note_on', channel=0, note=64, velocity=0, time=23),\n",
       "   Message('note_on', channel=0, note=81, velocity=77, time=194),\n",
       "   Message('note_on', channel=0, note=69, velocity=83, time=2),\n",
       "   Message('note_on', channel=0, note=67, velocity=0, time=117),\n",
       "   Message('note_on', channel=0, note=81, velocity=0, time=81),\n",
       "   Message('note_on', channel=0, note=72, velocity=80, time=11),\n",
       "   Message('note_on', channel=0, note=69, velocity=0, time=95),\n",
       "   Message('note_on', channel=0, note=69, velocity=66, time=119),\n",
       "   Message('note_on', channel=0, note=72, velocity=0, time=105),\n",
       "   Message('note_on', channel=0, note=67, velocity=70, time=127),\n",
       "   Message('note_on', channel=0, note=69, velocity=0, time=53),\n",
       "   Message('note_on', channel=0, note=64, velocity=63, time=184),\n",
       "   Message('note_on', channel=0, note=67, velocity=0, time=102),\n",
       "   Message('note_on', channel=0, note=61, velocity=47, time=393),\n",
       "   Message('note_on', channel=0, note=57, velocity=39, time=5),\n",
       "   Message('control_change', channel=0, control=64, value=127, time=196),\n",
       "   Message('note_on', channel=0, note=55, velocity=44, time=307),\n",
       "   Message('control_change', channel=0, control=64, value=0, time=122),\n",
       "   Message('note_on', channel=0, note=57, velocity=0, time=0),\n",
       "   Message('note_on', channel=0, note=64, velocity=0, time=3),\n",
       "   Message('control_change', channel=0, control=64, value=127, time=151),\n",
       "   Message('note_on', channel=0, note=64, velocity=71, time=150),\n",
       "   Message('control_change', channel=0, control=64, value=0, time=27),\n",
       "   Message('note_on', channel=0, note=55, velocity=0, time=49),\n",
       "   Message('note_on', channel=0, note=61, velocity=0, time=2),\n",
       "   Message('control_change', channel=0, control=64, value=127, time=156),\n",
       "   Message('control_change', channel=0, control=64, value=0, time=177),\n",
       "   Message('note_on', channel=0, note=61, velocity=52, time=19),\n",
       "   Message('note_on', channel=0, note=57, velocity=47, time=25),\n",
       "   Message('control_change', channel=0, control=64, value=127, time=302),\n",
       "   Message('control_change', channel=0, control=64, value=0, time=76),\n",
       "   Message('note_on', channel=0, note=61, velocity=0, time=54),\n",
       "   Message('note_on', channel=0, note=61, velocity=29, time=7),\n",
       "   Message('note_on', channel=0, note=55, velocity=51, time=5),\n",
       "   Message('note_on', channel=0, note=57, velocity=0, time=90),\n",
       "   Message('control_change', channel=0, control=64, value=127, time=52),\n",
       "   Message('control_change', channel=0, control=64, value=0, time=280),\n",
       "   Message('note_on', channel=0, note=81, velocity=70, time=6),\n",
       "   Message('note_on', channel=0, note=69, velocity=77, time=1),\n",
       "   Message('note_on', channel=0, note=64, velocity=0, time=7),\n",
       "   Message('note_on', channel=0, note=61, velocity=0, time=1),\n",
       "   Message('note_on', channel=0, note=55, velocity=0, time=4),\n",
       "   Message('control_change', channel=0, control=64, value=127, time=115),\n",
       "   Message('note_on', channel=0, note=62, velocity=55, time=283),\n",
       "   Message('note_on', channel=0, note=57, velocity=52, time=7),\n",
       "   Message('note_on', channel=0, note=81, velocity=0, time=2),\n",
       "   Message('control_change', channel=0, control=64, value=0, time=31),\n",
       "   Message('control_change', channel=0, control=64, value=127, time=238),\n",
       "   Message('note_on', channel=0, note=53, velocity=55, time=173),\n",
       "   Message('note_on', channel=0, note=68, velocity=84, time=462),\n",
       "   Message('note_on', channel=0, note=62, velocity=0, time=30),\n",
       "   Message('control_change', channel=0, control=64, value=0, time=1),\n",
       "   Message('note_on', channel=0, note=69, velocity=0, time=2),\n",
       "   Message('note_on', channel=0, note=53, velocity=0, time=1),\n",
       "   Message('note_on', channel=0, note=57, velocity=0, time=15),\n",
       "   Message('control_change', channel=0, control=64, value=127, time=176),\n",
       "   Message('note_on', channel=0, note=58, velocity=65, time=218),\n",
       "   Message('note_on', channel=0, note=60, velocity=58, time=22),\n",
       "   Message('note_on', channel=0, note=56, velocity=50, time=456),\n",
       "   Message('note_on', channel=0, note=58, velocity=0, time=123),\n",
       "   Message('control_change', channel=0, control=64, value=0, time=0),\n",
       "   Message('note_on', channel=0, note=56, velocity=0, time=1),\n",
       "   Message('note_on', channel=0, note=68, velocity=0, time=5),\n",
       "   Message('control_change', channel=0, control=64, value=127, time=105),\n",
       "   Message('note_on', channel=0, note=80, velocity=74, time=204),\n",
       "   Message('note_on', channel=0, note=68, velocity=84, time=0),\n",
       "   Message('note_on', channel=0, note=60, velocity=0, time=53),\n",
       "   Message('control_change', channel=0, control=64, value=0, time=19),\n",
       "   Message('control_change', channel=0, control=64, value=127, time=161),\n",
       "   Message('note_on', channel=0, note=60, velocity=53, time=201),\n",
       "   Message('note_on', channel=0, note=58, velocity=56, time=2),\n",
       "   Message('note_on', channel=0, note=56, velocity=45, time=470),\n",
       "   Message('control_change', channel=0, control=64, value=0, time=105),\n",
       "   Message('note_on', channel=0, note=58, velocity=0, time=1),\n",
       "   Message('note_on', channel=0, note=68, velocity=0, time=10),\n",
       "   Message('control_change', channel=0, control=64, value=127, time=194),\n",
       "   Message('note_on', channel=0, note=80, velocity=0, time=100),\n",
       "   Message('note_on', channel=0, note=67, velocity=68, time=29),\n",
       "   Message('note_on', channel=0, note=60, velocity=0, time=83),\n",
       "   Message('control_change', channel=0, control=64, value=0, time=26),\n",
       "   Message('note_on', channel=0, note=56, velocity=0, time=54),\n",
       "   Message('note_on', channel=0, note=69, velocity=74, time=38),\n",
       "   Message('note_on', channel=0, note=67, velocity=0, time=75),\n",
       "   Message('note_on', channel=0, note=67, velocity=80, time=132),\n",
       "   Message('note_on', channel=0, note=69, velocity=0, time=98),\n",
       "   Message('note_on', channel=0, note=64, velocity=73, time=128),\n",
       "   Message('note_on', channel=0, note=67, velocity=0, time=113),\n",
       "   Message('note_on', channel=0, note=60, velocity=63, time=92),\n",
       "   Message('note_on', channel=0, note=64, velocity=0, time=76),\n",
       "   Message('note_on', channel=0, note=57, velocity=56, time=144),\n",
       "   Message('note_on', channel=0, note=60, velocity=0, time=130),\n",
       "   Message('note_on', channel=0, note=55, velocity=49, time=140),\n",
       "   Message('note_on', channel=0, note=57, velocity=0, time=133),\n",
       "   Message('note_on', channel=0, note=55, velocity=0, time=232),\n",
       "   Message('note_on', channel=0, note=57, velocity=50, time=96),\n",
       "   Message('note_on', channel=0, note=60, velocity=59, time=223),\n",
       "   Message('note_on', channel=0, note=57, velocity=0, time=160),\n",
       "   Message('note_on', channel=0, note=64, velocity=65, time=61),\n",
       "   Message('note_on', channel=0, note=60, velocity=0, time=139),\n",
       "   Message('note_on', channel=0, note=67, velocity=84, time=62),\n",
       "   Message('note_on', channel=0, note=79, velocity=74, time=1),\n",
       "   Message('note_on', channel=0, note=64, velocity=0, time=4),\n",
       "   Message('note_on', channel=0, note=81, velocity=76, time=224),\n",
       "   Message('note_on', channel=0, note=69, velocity=80, time=0),\n",
       "   Message('note_on', channel=0, note=67, velocity=0, time=115),\n",
       "   Message('note_on', channel=0, note=79, velocity=0, time=26),\n",
       "   Message('note_on', channel=0, note=59, velocity=55, time=337),\n",
       "   Message('note_on', channel=0, note=57, velocity=48, time=26),\n",
       "   Message('note_on', channel=0, note=55, velocity=50, time=461),\n",
       "   Message('control_change', channel=0, control=64, value=127, time=90),\n",
       "   Message('note_on', channel=0, note=57, velocity=0, time=48),\n",
       "   Message('note_on', channel=0, note=81, velocity=0, time=60),\n",
       "   Message('note_on', channel=0, note=59, velocity=0, time=205),\n",
       "   Message('note_on', channel=0, note=79, velocity=67, time=51),\n",
       "   Message('note_on', channel=0, note=67, velocity=76, time=0),\n",
       "   Message('control_change', channel=0, control=64, value=0, time=6),\n",
       "   Message('note_on', channel=0, note=55, velocity=0, time=6),\n",
       "   Message('note_on', channel=0, note=69, velocity=0, time=151),\n",
       "   Message('control_change', channel=0, control=64, value=127, time=87),\n",
       "   Message('note_on', channel=0, note=79, velocity=0, time=169),\n",
       "   Message('note_on', channel=0, note=59, velocity=51, time=10),\n",
       "   Message('note_on', channel=0, note=57, velocity=43, time=20),\n",
       "   Message('control_change', channel=0, control=64, value=0, time=316),\n",
       "   Message('note_on', channel=0, note=55, velocity=51, time=98),\n",
       "   Message('note_on', channel=0, note=57, velocity=0, time=120),\n",
       "   Message('note_on', channel=0, note=59, velocity=0, time=205),\n",
       "   Message('note_on', channel=0, note=72, velocity=79, time=107),\n",
       "   Message('note_on', channel=0, note=55, velocity=0, time=20),\n",
       "   Message('note_on', channel=0, note=67, velocity=0, time=26),\n",
       "   Message('note_on', channel=0, note=60, velocity=54, time=407),\n",
       "   Message('note_on', channel=0, note=57, velocity=46, time=26),\n",
       "   Message('control_change', channel=0, control=64, value=127, time=335),\n",
       "   Message('control_change', channel=0, control=64, value=0, time=31),\n",
       "   Message('note_on', channel=0, note=55, velocity=58, time=155),\n",
       "   Message('note_on', channel=0, note=60, velocity=0, time=150),\n",
       "   Message('note_on', channel=0, note=57, velocity=0, time=13),\n",
       "   Message('note_on', channel=0, note=48, velocity=45, time=456),\n",
       "   Message('note_on', channel=0, note=55, velocity=0, time=211),\n",
       "   Message('note_on', channel=0, note=72, velocity=0, time=459),\n",
       "   Message('note_on', channel=0, note=48, velocity=0, time=980),\n",
       "   Message('note_on', channel=0, note=48, velocity=74, time=4476),\n",
       "   Message('note_on', channel=0, note=48, velocity=0, time=55),\n",
       "   Message('note_on', channel=0, note=51, velocity=71, time=268),\n",
       "   Message('note_on', channel=0, note=51, velocity=0, time=31),\n",
       "   Message('note_on', channel=0, note=55, velocity=81, time=305),\n",
       "   Message('note_on', channel=0, note=55, velocity=0, time=42),\n",
       "   Message('note_on', channel=0, note=60, velocity=83, time=258),\n",
       "   Message('note_on', channel=0, note=60, velocity=0, time=38),\n",
       "   Message('note_on', channel=0, note=63, velocity=84, time=281),\n",
       "   Message('note_on', channel=0, note=75, velocity=80, time=3),\n",
       "   Message('note_on', channel=0, note=54, velocity=85, time=1),\n",
       "   Message('control_change', channel=0, control=64, value=127, time=158),\n",
       "   Message('note_on', channel=0, note=55, velocity=55, time=435),\n",
       "   Message('note_on', channel=0, note=47, velocity=46, time=6),\n",
       "   Message('note_on', channel=0, note=59, velocity=53, time=7),\n",
       "   Message('note_on', channel=0, note=62, velocity=44, time=2),\n",
       "   Message('note_on', channel=0, note=75, velocity=0, time=57),\n",
       "   Message('control_change', channel=0, control=64, value=0, time=4),\n",
       "   Message('note_on', channel=0, note=59, velocity=0, time=12),\n",
       "   Message('note_on', channel=0, note=63, velocity=0, time=15),\n",
       "   Message('note_on', channel=0, note=54, velocity=0, time=12),\n",
       "   Message('note_on', channel=0, note=47, velocity=0, time=3),\n",
       "   Message('note_on', channel=0, note=55, velocity=0, time=4),\n",
       "   Message('note_on', channel=0, note=62, velocity=0, time=27),\n",
       "   Message('note_on', channel=0, note=48, velocity=58, time=487),\n",
       "   Message('note_on', channel=0, note=48, velocity=0, time=76),\n",
       "   Message('note_on', channel=0, note=51, velocity=75, time=211),\n",
       "   Message('note_on', channel=0, note=51, velocity=0, time=58),\n",
       "   Message('note_on', channel=0, note=55, velocity=87, time=251),\n",
       "   Message('note_on', channel=0, note=55, velocity=0, time=50),\n",
       "   Message('note_on', channel=0, note=72, velocity=80, time=237),\n",
       "   Message('note_on', channel=0, note=60, velocity=88, time=0),\n",
       "   Message('note_on', channel=0, note=60, velocity=0, time=74),\n",
       "   Message('note_on', channel=0, note=72, velocity=0, time=15),\n",
       "   Message('note_on', channel=0, note=63, velocity=90, time=218),\n",
       "   Message('note_on', channel=0, note=75, velocity=81, time=1),\n",
       "   Message('note_on', channel=0, note=54, velocity=88, time=1),\n",
       "   Message('control_change', channel=0, control=64, value=127, time=133),\n",
       "   Message('note_on', channel=0, note=54, velocity=0, time=500),\n",
       "   Message('note_on', channel=0, note=59, velocity=56, time=9),\n",
       "   Message('note_on', channel=0, note=54, velocity=48, time=2),\n",
       "   Message('note_on', channel=0, note=55, velocity=44, time=0),\n",
       "   Message('note_on', channel=0, note=62, velocity=49, time=1),\n",
       "   Message('note_on', channel=0, note=55, velocity=0, time=11),\n",
       "   Message('note_on', channel=0, note=59, velocity=0, time=76),\n",
       "   Message('note_on', channel=0, note=54, velocity=0, time=3),\n",
       "   Message('control_change', channel=0, control=64, value=0, time=0),\n",
       "   Message('note_on', channel=0, note=75, velocity=0, time=5),\n",
       "   Message('note_on', channel=0, note=63, velocity=0, time=23),\n",
       "   Message('note_on', channel=0, note=62, velocity=0, time=4),\n",
       "   Message('note_on', channel=0, note=80, velocity=78, time=499),\n",
       "   Message('note_on', channel=0, note=68, velocity=90, time=1),\n",
       "   Message('note_on', channel=0, note=68, velocity=0, time=122),\n",
       "   Message('note_on', channel=0, note=80, velocity=0, time=2),\n",
       "   Message('note_on', channel=0, note=65, velocity=73, time=183),\n",
       "   Message('note_on', channel=0, note=65, velocity=0, time=65),\n",
       "   Message('note_on', channel=0, note=62, velocity=63, time=219),\n",
       "   Message('note_on', channel=0, note=62, velocity=0, time=72),\n",
       "   Message('note_on', channel=0, note=59, velocity=77, time=198),\n",
       "   Message('note_on', channel=0, note=59, velocity=0, time=45),\n",
       "   Message('note_on', channel=0, note=79, velocity=78, time=228),\n",
       "   Message('note_on', channel=0, note=67, velocity=86, time=1),\n",
       "   Message('note_on', channel=0, note=79, velocity=0, time=35),\n",
       "   Message('note_on', channel=0, note=67, velocity=0, time=67),\n",
       "   Message('note_on', channel=0, note=63, velocity=71, time=186),\n",
       "   Message('note_on', channel=0, note=75, velocity=57, time=2),\n",
       "   Message('note_on', channel=0, note=63, velocity=0, time=41),\n",
       "   Message('note_on', channel=0, note=75, velocity=0, time=27),\n",
       "   Message('note_on', channel=0, note=60, velocity=66, time=213),\n",
       "   Message('note_on', channel=0, note=60, velocity=0, time=44),\n",
       "   Message('note_on', channel=0, note=55, velocity=72, time=214),\n",
       "   Message('note_on', channel=0, note=55, velocity=0, time=39),\n",
       "   Message('note_on', channel=0, note=80, velocity=83, time=237),\n",
       "   Message('note_on', channel=0, note=68, velocity=95, time=1),\n",
       "   Message('control_change', channel=0, control=64, value=127, time=20),\n",
       "   Message('note_on', channel=0, note=80, velocity=0, time=96),\n",
       "   Message('note_on', channel=0, note=68, velocity=0, time=1),\n",
       "   Message('control_change', channel=0, control=64, value=0, time=3),\n",
       "   Message('note_on', channel=0, note=65, velocity=61, time=173),\n",
       "   Message('note_on', channel=0, note=65, velocity=0, time=42),\n",
       "   Message('note_on', channel=0, note=62, velocity=55, time=238),\n",
       "   Message('note_on', channel=0, note=62, velocity=0, time=43),\n",
       "   Message('note_on', channel=0, note=59, velocity=75, time=217),\n",
       "   Message('note_on', channel=0, note=59, velocity=0, time=57),\n",
       "   Message('note_on', channel=0, note=79, velocity=79, time=217),\n",
       "   Message('note_on', channel=0, note=67, velocity=87, time=0),\n",
       "   Message('control_change', channel=0, control=64, value=127, time=19),\n",
       "   Message('note_on', channel=0, note=67, velocity=0, time=86),\n",
       "   Message('note_on', channel=0, note=79, velocity=0, time=6),\n",
       "   Message('control_change', channel=0, control=64, value=0, time=0),\n",
       "   Message('note_on', channel=0, note=63, velocity=74, time=164),\n",
       "   Message('note_on', channel=0, note=75, velocity=59, time=0),\n",
       "   Message('note_on', channel=0, note=63, velocity=0, time=40),\n",
       "   Message('note_on', channel=0, note=75, velocity=0, time=34),\n",
       "   Message('note_on', channel=0, note=60, velocity=78, time=200),\n",
       "   Message('note_on', channel=0, note=60, velocity=0, time=35),\n",
       "   Message('note_on', channel=0, note=55, velocity=61, time=238),\n",
       "   Message('note_on', channel=0, note=55, velocity=0, time=37),\n",
       "   Message('note_on', channel=0, note=80, velocity=83, time=216),\n",
       "   Message('note_on', channel=0, note=68, velocity=96, time=1),\n",
       "   Message('control_change', channel=0, control=64, value=127, time=10),\n",
       "   Message('note_on', channel=0, note=80, velocity=0, time=104),\n",
       "   Message('note_on', channel=0, note=68, velocity=0, time=1),\n",
       "   Message('control_change', channel=0, control=64, value=0, time=9),\n",
       "   Message('note_on', channel=0, note=65, velocity=94, time=161),\n",
       "   Message('note_on', channel=0, note=77, velocity=82, time=1),\n",
       "   Message('note_on', channel=0, note=65, velocity=0, time=97),\n",
       "   Message('note_on', channel=0, note=77, velocity=0, time=4),\n",
       "   Message('note_on', channel=0, note=74, velocity=82, time=174),\n",
       "   Message('note_on', channel=0, note=62, velocity=93, time=2),\n",
       "   Message('note_on', channel=0, note=62, velocity=0, time=86),\n",
       "   Message('note_on', channel=0, note=74, velocity=0, time=22),\n",
       "   Message('note_on', channel=0, note=59, velocity=92, time=174),\n",
       "   Message('note_on', channel=0, note=71, velocity=86, time=2),\n",
       "   Message('note_on', channel=0, note=59, velocity=0, time=85),\n",
       "   Message('control_change', channel=0, control=64, value=127, time=84),\n",
       "   Message('note_on', channel=0, note=74, velocity=99, time=133),\n",
       "   Message('note_on', channel=0, note=68, velocity=98, time=1),\n",
       "   Message('note_on', channel=0, note=59, velocity=73, time=0),\n",
       "   Message('control_change', channel=0, control=64, value=0, time=35),\n",
       "   Message('note_on', channel=0, note=71, velocity=0, time=5),\n",
       "   Message('control_change', channel=0, control=64, value=127, time=326),\n",
       "   Message('control_change', channel=0, control=64, value=0, time=587),\n",
       "   Message('note_on', channel=0, note=74, velocity=0, time=8),\n",
       "   Message('note_on', channel=0, note=68, velocity=0, time=35),\n",
       "   Message('note_on', channel=0, note=59, velocity=0, time=8),\n",
       "   Message('note_on', channel=0, note=68, velocity=53, time=358),\n",
       "   Message('note_on', channel=0, note=68, velocity=0, time=104),\n",
       "   Message('note_on', channel=0, note=65, velocity=65, time=154),\n",
       "   Message('note_on', channel=0, note=65, velocity=0, time=109),\n",
       "   Message('note_on', channel=0, note=62, velocity=42, time=197),\n",
       "   Message('note_on', channel=0, note=62, velocity=0, time=83),\n",
       "   Message('note_on', channel=0, note=59, velocity=57, time=219),\n",
       "   Message('note_on', channel=0, note=68, velocity=64, time=339),\n",
       "   Message('note_on', channel=0, note=74, velocity=65, time=26),\n",
       "   Message('control_change', channel=0, control=64, value=127, time=46),\n",
       "   Message('control_change', channel=0, control=64, value=0, time=1049),\n",
       "   Message('note_on', channel=0, note=74, velocity=0, time=4),\n",
       "   Message('note_on', channel=0, note=59, velocity=0, time=5),\n",
       "   Message('note_on', channel=0, note=68, velocity=0, time=40),\n",
       "   Message('note_on', channel=0, note=48, velocity=51, time=484),\n",
       "   Message('note_on', channel=0, note=48, velocity=0, time=68),\n",
       "   Message('note_on', channel=0, note=51, velocity=66, time=204),\n",
       "   Message('note_on', channel=0, note=51, velocity=0, time=67),\n",
       "   Message('note_on', channel=0, note=55, velocity=76, time=206),\n",
       "   Message('note_on', channel=0, note=55, velocity=0, time=45),\n",
       "   Message('note_on', channel=0, note=60, velocity=85, time=217),\n",
       "   Message('note_on', channel=0, note=60, velocity=0, time=51),\n",
       "   Message('note_on', channel=0, note=63, velocity=86, time=254),\n",
       "   Message('note_on', channel=0, note=75, velocity=79, time=3),\n",
       "   Message('note_on', channel=0, note=54, velocity=77, time=8),\n",
       "   Message('control_change', channel=0, control=64, value=127, time=83),\n",
       "   Message('note_on', channel=0, note=75, velocity=0, time=445),\n",
       "   Message('note_on', channel=0, note=59, velocity=60, time=55),\n",
       "   Message('note_on', channel=0, note=54, velocity=0, time=7),\n",
       "   Message('note_on', channel=0, note=47, velocity=45, time=1),\n",
       "   Message('note_on', channel=0, note=55, velocity=47, time=8),\n",
       "   Message('note_on', channel=0, note=54, velocity=48, time=2),\n",
       "   Message('note_on', channel=0, note=62, velocity=43, time=5),\n",
       "   Message('control_change', channel=0, control=64, value=0, time=65),\n",
       "   Message('note_on', channel=0, note=59, velocity=0, time=3),\n",
       "   Message('note_on', channel=0, note=47, velocity=0, time=15),\n",
       "   Message('note_on', channel=0, note=63, velocity=0, time=0),\n",
       "   Message('note_on', channel=0, note=54, velocity=0, time=23),\n",
       "   Message('note_on', channel=0, note=55, velocity=0, time=6),\n",
       "   Message('note_on', channel=0, note=62, velocity=0, time=12),\n",
       "   Message('note_on', channel=0, note=48, velocity=47, time=473),\n",
       "   Message('note_on', channel=0, note=48, velocity=0, time=66),\n",
       "   Message('note_on', channel=0, note=51, velocity=61, time=232),\n",
       "   Message('note_on', channel=0, note=51, velocity=0, time=54),\n",
       "   Message('note_on', channel=0, note=55, velocity=58, time=243),\n",
       "   Message('note_on', channel=0, note=55, velocity=0, time=78),\n",
       "   Message('note_on', channel=0, note=60, velocity=57, time=220),\n",
       "   Message('note_on', channel=0, note=60, velocity=0, time=111),\n",
       "   Message('note_on', channel=0, note=84, velocity=99, time=751),\n",
       "   Message('note_on', channel=0, note=72, velocity=91, time=0),\n",
       "   Message('note_on', channel=0, note=48, velocity=83, time=1),\n",
       "   Message('note_on', channel=0, note=36, velocity=87, time=2),\n",
       "   Message('note_on', channel=0, note=72, velocity=0, time=2),\n",
       "   Message('control_change', channel=0, control=64, value=127, time=7),\n",
       "   Message('note_on', channel=0, note=36, velocity=0, time=76),\n",
       "   Message('control_change', channel=0, control=64, value=0, time=16),\n",
       "   Message('note_on', channel=0, note=48, velocity=0, time=31),\n",
       "   Message('note_on', channel=0, note=84, velocity=0, time=100),\n",
       "   Message('control_change', channel=0, control=64, value=127, time=906),\n",
       "   Message('control_change', channel=0, control=64, value=0, time=2327),\n",
       "   Message('note_on', channel=0, note=52, velocity=85, time=58),\n",
       "   Message('note_on', channel=0, note=48, velocity=86, time=0),\n",
       "   Message('note_on', channel=0, note=52, velocity=0, time=60),\n",
       "   Message('note_on', channel=0, note=48, velocity=0, time=6),\n",
       "   Message('note_on', channel=0, note=48, velocity=84, time=472),\n",
       "   Message('note_on', channel=0, note=52, velocity=85, time=0),\n",
       "   Message('note_on', channel=0, note=52, velocity=0, time=47),\n",
       "   Message('note_on', channel=0, note=48, velocity=0, time=27),\n",
       "   Message('note_on', channel=0, note=52, velocity=87, time=462),\n",
       "   Message('note_on', channel=0, note=48, velocity=81, time=1),\n",
       "   Message('note_on', channel=0, note=52, velocity=0, time=48),\n",
       "   Message('note_on', channel=0, note=48, velocity=0, time=11),\n",
       "   Message('note_on', channel=0, note=52, velocity=86, time=217),\n",
       "   Message('note_on', channel=0, note=48, velocity=84, time=1),\n",
       "   Message('note_on', channel=0, note=52, velocity=0, time=38),\n",
       "   Message('note_on', channel=0, note=48, velocity=0, time=2),\n",
       "   Message('note_on', channel=0, note=52, velocity=88, time=228),\n",
       "   Message('note_on', channel=0, note=48, velocity=84, time=0),\n",
       "   Message('note_on', channel=0, note=52, velocity=0, time=45),\n",
       "   Message('note_on', channel=0, note=48, velocity=0, time=18),\n",
       "   Message('note_on', channel=0, note=60, velocity=83, time=474),\n",
       "   Message('note_on', channel=0, note=48, velocity=79, time=7),\n",
       "   Message('note_on', channel=0, note=52, velocity=75, time=2),\n",
       "   Message('note_on', channel=0, note=52, velocity=0, time=56),\n",
       "   Message('note_on', channel=0, note=48, velocity=0, time=37),\n",
       "   Message('note_on', channel=0, note=64, velocity=84, time=152),\n",
       "   Message('note_on', channel=0, note=76, velocity=77, time=1),\n",
       "   Message('note_on', channel=0, note=60, velocity=0, time=63),\n",
       "   Message('note_on', channel=0, note=72, velocity=77, time=208),\n",
       "   Message('note_on', channel=0, note=60, velocity=78, time=2),\n",
       "   Message('note_on', channel=0, note=52, velocity=77, time=1),\n",
       "   Message('note_on', channel=0, note=48, velocity=75, time=1),\n",
       "   Message('note_on', channel=0, note=76, velocity=0, time=5),\n",
       "   Message('note_on', channel=0, note=64, velocity=0, time=9),\n",
       "   Message('note_on', channel=0, note=52, velocity=0, time=47),\n",
       "   Message('note_on', channel=0, note=48, velocity=0, time=13),\n",
       "   Message('note_on', channel=0, note=64, velocity=88, time=173),\n",
       "   Message('note_on', channel=0, note=76, velocity=79, time=1),\n",
       "   Message('note_on', channel=0, note=60, velocity=0, time=72),\n",
       "   Message('note_on', channel=0, note=72, velocity=0, time=38),\n",
       "   Message('note_on', channel=0, note=67, velocity=77, time=145),\n",
       "   Message('note_on', channel=0, note=52, velocity=74, time=1),\n",
       "   Message('note_on', channel=0, note=48, velocity=76, time=0),\n",
       "   Message('note_on', channel=0, note=64, velocity=0, time=42),\n",
       "   Message('note_on', channel=0, note=52, velocity=0, time=0),\n",
       "   Message('note_on', channel=0, note=48, velocity=0, time=47),\n",
       "   Message('note_on', channel=0, note=76, velocity=0, time=11),\n",
       "   Message('note_on', channel=0, note=67, velocity=0, time=16),\n",
       "   Message('note_on', channel=0, note=79, velocity=79, time=134),\n",
       "   Message('note_on', channel=0, note=67, velocity=83, time=0),\n",
       "   Message('note_on', channel=0, note=48, velocity=68, time=23),\n",
       "   Message('note_on', channel=0, note=52, velocity=69, time=0),\n",
       "   Message('note_on', channel=0, note=52, velocity=0, time=44),\n",
       "   Message('note_on', channel=0, note=48, velocity=0, time=15),\n",
       "   Message('note_on', channel=0, note=79, velocity=0, time=7),\n",
       "   Message('note_on', channel=0, note=67, velocity=0, time=6),\n",
       "   Message('note_on', channel=0, note=79, velocity=88, time=173),\n",
       "   Message('note_on', channel=0, note=67, velocity=93, time=0),\n",
       "   Message('note_on', channel=0, note=52, velocity=66, time=39),\n",
       "   Message('note_on', channel=0, note=48, velocity=67, time=1),\n",
       "   Message('note_on', channel=0, note=52, velocity=0, time=37),\n",
       "   Message('note_on', channel=0, note=48, velocity=0, time=10),\n",
       "   Message('control_change', channel=0, control=64, value=127, time=201),\n",
       "   Message('control_change', channel=0, control=64, value=0, time=239),\n",
       "   Message('note_on', channel=0, note=81, velocity=83, time=6),\n",
       "   Message('note_on', channel=0, note=53, velocity=72, time=3),\n",
       "   Message('note_on', channel=0, note=69, velocity=88, time=1),\n",
       "   Message('note_on', channel=0, note=48, velocity=71, time=3),\n",
       "   Message('note_on', channel=0, note=67, velocity=0, time=51),\n",
       "   Message('note_on', channel=0, note=79, velocity=0, time=12),\n",
       "   Message('note_on', channel=0, note=53, velocity=0, time=10),\n",
       "   Message('note_on', channel=0, note=48, velocity=0, time=7),\n",
       "   Message('note_on', channel=0, note=72, velocity=91, time=156),\n",
       "   Message('note_on', channel=0, note=81, velocity=0, time=32),\n",
       "   Message('note_on', channel=0, note=69, velocity=0, time=5),\n",
       "   Message('note_on', channel=0, note=53, velocity=76, time=222),\n",
       "   Message('note_on', channel=0, note=71, velocity=85, time=2),\n",
       "   Message('note_on', channel=0, note=48, velocity=78, time=1),\n",
       "   Message('note_on', channel=0, note=53, velocity=0, time=39),\n",
       "   Message('note_on', channel=0, note=48, velocity=0, time=17),\n",
       "   Message('note_on', channel=0, note=72, velocity=0, time=9),\n",
       "   Message('note_on', channel=0, note=81, velocity=82, time=175),\n",
       "   Message('note_on', channel=0, note=69, velocity=88, time=1),\n",
       "   Message('note_on', channel=0, note=71, velocity=0, time=77),\n",
       "   Message('note_on', channel=0, note=81, velocity=0, time=161),\n",
       "   Message('note_on', channel=0, note=67, velocity=84, time=16),\n",
       "   Message('note_on', channel=0, note=79, velocity=79, time=1),\n",
       "   Message('note_on', channel=0, note=52, velocity=72, time=9),\n",
       "   Message('note_on', channel=0, note=48, velocity=70, time=1),\n",
       "   Message('note_on', channel=0, note=52, velocity=0, time=54),\n",
       "   Message('note_on', channel=0, note=48, velocity=0, time=6),\n",
       "   Message('note_on', channel=0, note=69, velocity=0, time=32),\n",
       "   Message('note_on', channel=0, note=79, velocity=0, time=127),\n",
       "   Message('note_on', channel=0, note=52, velocity=78, time=34),\n",
       "   Message('note_on', channel=0, note=48, velocity=72, time=1),\n",
       "   Message('note_on', channel=0, note=52, velocity=0, time=45),\n",
       "   Message('note_on', channel=0, note=48, velocity=0, time=10),\n",
       "   Message('note_on', channel=0, note=52, velocity=79, time=224),\n",
       "   Message('note_on', channel=0, note=48, velocity=70, time=1),\n",
       "   Message('note_on', channel=0, note=52, velocity=0, time=79),\n",
       "   Message('note_on', channel=0, note=48, velocity=0, time=5),\n",
       "   Message('note_on', channel=0, note=67, velocity=0, time=162),\n",
       "   Message('note_on', channel=0, note=60, velocity=83, time=279),\n",
       "   Message('note_on', channel=0, note=52, velocity=76, time=7),\n",
       "   Message('note_on', channel=0, note=48, velocity=72, time=2),\n",
       "   Message('note_on', channel=0, note=52, velocity=0, time=84),\n",
       "   Message('note_on', channel=0, note=48, velocity=0, time=3),\n",
       "   Message('note_on', channel=0, note=64, velocity=80, time=149),\n",
       "   Message('note_on', channel=0, note=60, velocity=0, time=68),\n",
       "   Message('note_on', channel=0, note=60, velocity=82, time=195),\n",
       "   Message('note_on', channel=0, note=52, velocity=81, time=0),\n",
       "   Message('note_on', channel=0, note=48, velocity=81, time=0),\n",
       "   Message('note_on', channel=0, note=64, velocity=0, time=3),\n",
       "   Message('note_on', channel=0, note=52, velocity=0, time=76),\n",
       "   Message('note_on', channel=0, note=48, velocity=0, time=7),\n",
       "   Message('note_on', channel=0, note=64, velocity=82, time=167),\n",
       "   Message('note_on', channel=0, note=76, velocity=76, time=1),\n",
       "   Message('note_on', channel=0, note=60, velocity=0, time=92),\n",
       "   Message('note_on', channel=0, note=52, velocity=73, time=155),\n",
       "   Message('note_on', channel=0, note=48, velocity=74, time=2),\n",
       "   Message('note_on', channel=0, note=67, velocity=77, time=1),\n",
       "   Message('note_on', channel=0, note=79, velocity=74, time=2),\n",
       "   Message('note_on', channel=0, note=64, velocity=0, time=25),\n",
       "   Message('note_on', channel=0, note=52, velocity=0, time=8),\n",
       "   Message('note_on', channel=0, note=48, velocity=0, time=30),\n",
       "   Message('note_on', channel=0, note=76, velocity=0, time=49),\n",
       "   Message('note_on', channel=0, note=67, velocity=0, time=9),\n",
       "   Message('note_on', channel=0, note=79, velocity=0, time=22),\n",
       "   Message('note_on', channel=0, note=79, velocity=76, time=87),\n",
       "   Message('note_on', channel=0, note=67, velocity=80, time=1),\n",
       "   Message('note_on', channel=0, note=48, velocity=71, time=24),\n",
       "   Message('note_on', channel=0, note=52, velocity=71, time=0),\n",
       "   Message('note_on', channel=0, note=52, velocity=0, time=45),\n",
       "   Message('note_on', channel=0, note=79, velocity=0, time=17),\n",
       "   Message('note_on', channel=0, note=48, velocity=0, time=1),\n",
       "   Message('note_on', channel=0, note=67, velocity=0, time=4),\n",
       "   Message('note_on', channel=0, note=79, velocity=84, time=171),\n",
       "   Message('note_on', channel=0, note=67, velocity=90, time=1),\n",
       "   Message('note_on', channel=0, note=52, velocity=74, time=14),\n",
       "   Message('note_on', channel=0, note=48, velocity=69, time=0),\n",
       "   Message('note_on', channel=0, note=52, velocity=0, time=47),\n",
       "   Message('note_on', channel=0, note=48, velocity=0, time=14),\n",
       "   Message('note_on', channel=0, note=53, velocity=71, time=438),\n",
       "   Message('note_on', channel=0, note=60, velocity=69, time=2),\n",
       "   Message('note_on', channel=0, note=69, velocity=85, time=0),\n",
       "   Message('note_on', channel=0, note=81, velocity=82, time=1),\n",
       "   Message('note_on', channel=0, note=48, velocity=71, time=2),\n",
       "   Message('note_on', channel=0, note=67, velocity=0, time=39),\n",
       "   Message('note_on', channel=0, note=79, velocity=0, time=13),\n",
       "   Message('note_on', channel=0, note=53, velocity=0, time=20),\n",
       "   Message('note_on', channel=0, note=60, velocity=0, time=2),\n",
       "   Message('note_on', channel=0, note=48, velocity=0, time=4),\n",
       "   Message('note_on', channel=0, note=79, velocity=75, time=170),\n",
       "   Message('note_on', channel=0, note=67, velocity=82, time=1),\n",
       "   Message('note_on', channel=0, note=81, velocity=0, time=3),\n",
       "   Message('note_on', channel=0, note=69, velocity=0, time=83),\n",
       "   Message('note_on', channel=0, note=79, velocity=0, time=163),\n",
       "   Message('note_on', channel=0, note=77, velocity=79, time=2),\n",
       "   Message('note_on', channel=0, note=53, velocity=72, time=0),\n",
       "   Message('note_on', channel=0, note=65, velocity=82, time=2),\n",
       "   Message('note_on', channel=0, note=48, velocity=69, time=3),\n",
       "   Message('note_on', channel=0, note=67, velocity=0, time=36),\n",
       "   Message('note_on', channel=0, note=53, velocity=0, time=23),\n",
       "   Message('note_on', channel=0, note=48, velocity=0, time=0),\n",
       "   Message('note_on', channel=0, note=64, velocity=82, time=192),\n",
       "   Message('note_on', channel=0, note=76, velocity=75, time=1),\n",
       "   Message('note_on', channel=0, note=65, velocity=0, time=76),\n",
       "   Message('note_on', channel=0, note=77, velocity=0, time=3),\n",
       "   Message('note_on', channel=0, note=53, velocity=73, time=160),\n",
       "   Message('note_on', channel=0, note=47, velocity=72, time=4),\n",
       "   Message('note_on', channel=0, note=62, velocity=75, time=0),\n",
       "   Message('note_on', channel=0, note=64, velocity=0, time=47),\n",
       "   Message('note_on', channel=0, note=76, velocity=0, time=4),\n",
       "   Message('note_on', channel=0, note=53, velocity=0, time=0),\n",
       "   Message('note_on', channel=0, note=47, velocity=0, time=1),\n",
       "   Message('note_on', channel=0, note=47, velocity=80, time=196),\n",
       "   Message('note_on', channel=0, note=53, velocity=77, time=2),\n",
       "   Message('note_on', channel=0, note=53, velocity=0, time=41),\n",
       "   Message('note_on', channel=0, note=47, velocity=0, time=2),\n",
       "   Message('note_on', channel=0, note=53, velocity=80, time=221),\n",
       "   Message('note_on', channel=0, note=47, velocity=78, time=0),\n",
       "   Message('note_on', channel=0, note=53, velocity=0, time=46),\n",
       "   Message('note_on', channel=0, note=47, velocity=0, time=2),\n",
       "   Message('note_on', channel=0, note=62, velocity=0, time=65),\n",
       "   Message('note_on', channel=0, note=60, velocity=81, time=427),\n",
       "   Message('note_on', channel=0, note=52, velocity=70, time=18),\n",
       "   Message('note_on', channel=0, note=48, velocity=70, time=3),\n",
       "   Message('note_on', channel=0, note=52, velocity=0, time=55),\n",
       "   Message('note_on', channel=0, note=48, velocity=0, time=30),\n",
       "   Message('note_on', channel=0, note=64, velocity=83, time=136),\n",
       "   Message('note_on', channel=0, note=60, velocity=0, time=85),\n",
       "   Message('note_on', channel=0, note=52, velocity=72, time=185),\n",
       "   Message('note_on', channel=0, note=60, velocity=77, time=1),\n",
       "   Message('note_on', channel=0, note=48, velocity=73, time=0),\n",
       "   Message('note_on', channel=0, note=64, velocity=0, time=31),\n",
       "   Message('note_on', channel=0, note=52, velocity=0, time=12),\n",
       "   Message('note_on', channel=0, note=48, velocity=0, time=31),\n",
       "   Message('note_on', channel=0, note=64, velocity=84, time=177),\n",
       "   Message('note_on', channel=0, note=76, velocity=76, time=2),\n",
       "   Message('note_on', channel=0, note=60, velocity=0, time=83),\n",
       "   Message('note_on', channel=0, note=67, velocity=80, time=158),\n",
       "   Message('note_on', channel=0, note=79, velocity=73, time=1),\n",
       "   Message('note_on', channel=0, note=48, velocity=70, time=4),\n",
       "   Message('note_on', channel=0, note=52, velocity=66, time=1),\n",
       "   Message('note_on', channel=0, note=79, velocity=0, time=4),\n",
       "   Message('note_on', channel=0, note=64, velocity=0, time=28),\n",
       "   Message('note_on', channel=0, note=52, velocity=0, time=13),\n",
       "   Message('note_on', channel=0, note=48, velocity=0, time=15),\n",
       "   Message('note_on', channel=0, note=76, velocity=0, time=5),\n",
       "   Message('note_on', channel=0, note=67, velocity=0, time=58),\n",
       "   Message('note_on', channel=0, note=79, velocity=81, time=112),\n",
       "   Message('note_on', channel=0, note=67, velocity=85, time=2),\n",
       "   Message('note_on', channel=0, note=52, velocity=72, time=29),\n",
       "   Message('note_on', channel=0, note=48, velocity=64, time=2),\n",
       "   Message('note_on', channel=0, note=52, velocity=0, time=42),\n",
       "   Message('note_on', channel=0, note=48, velocity=0, time=20),\n",
       "   Message('note_on', channel=0, note=67, velocity=0, time=1),\n",
       "   Message('note_on', channel=0, note=79, velocity=0, time=6),\n",
       "   Message('note_on', channel=0, note=79, velocity=84, time=162),\n",
       "   Message('note_on', channel=0, note=67, velocity=90, time=0),\n",
       "   Message('note_on', channel=0, note=48, velocity=69, time=15),\n",
       "   Message('note_on', channel=0, note=52, velocity=67, time=1),\n",
       "   Message('note_on', channel=0, note=52, velocity=0, time=48),\n",
       "   Message('note_on', channel=0, note=48, velocity=0, time=15),\n",
       "   Message('note_on', channel=0, note=53, velocity=74, time=435),\n",
       "   Message('note_on', channel=0, note=81, velocity=85, time=0),\n",
       "   Message('note_on', channel=0, note=69, velocity=89, time=2),\n",
       "   Message('note_on', channel=0, note=48, velocity=70, time=1),\n",
       "   Message('note_on', channel=0, note=79, velocity=0, time=50),\n",
       "   Message('note_on', channel=0, note=67, velocity=0, time=2),\n",
       "   Message('note_on', channel=0, note=53, velocity=0, time=23),\n",
       "   Message('note_on', channel=0, note=48, velocity=0, time=7),\n",
       "   Message('note_on', channel=0, note=72, velocity=90, time=148),\n",
       "   Message('note_on', channel=0, note=69, velocity=0, time=43),\n",
       "   Message('note_on', channel=0, note=81, velocity=0, time=5),\n",
       "   Message('note_on', channel=0, note=53, velocity=76, time=212),\n",
       "   Message('note_on', channel=0, note=71, velocity=84, time=5),\n",
       "   Message('note_on', channel=0, note=48, velocity=73, time=2),\n",
       "   Message('note_on', channel=0, note=53, velocity=0, time=75),\n",
       "   Message('note_on', channel=0, note=48, velocity=0, time=3),\n",
       "   Message('note_on', channel=0, note=72, velocity=0, time=6),\n",
       "   Message('note_on', channel=0, note=81, velocity=78, time=156),\n",
       "   Message('note_on', channel=0, note=69, velocity=87, time=1),\n",
       "   Message('note_on', channel=0, note=71, velocity=0, time=91),\n",
       "   Message('note_on', channel=0, note=81, velocity=0, time=163),\n",
       "   Message('note_on', channel=0, note=71, velocity=87, time=1),\n",
       "   Message('note_on', channel=0, note=56, velocity=76, time=4),\n",
       "   Message('note_on', channel=0, note=52, velocity=73, time=4),\n",
       "   Message('note_on', channel=0, note=56, velocity=0, time=91),\n",
       "   Message('note_on', channel=0, note=52, velocity=0, time=10),\n",
       "   Message('note_on', channel=0, note=52, velocity=76, time=157),\n",
       "   Message('note_on', channel=0, note=56, velocity=77, time=2),\n",
       "   Message('note_on', channel=0, note=56, velocity=0, time=44),\n",
       "   Message('note_on', channel=0, note=71, velocity=0, time=27),\n",
       "   Message('note_on', channel=0, note=52, velocity=0, time=2),\n",
       "   Message('note_on', channel=0, note=56, velocity=81, time=183),\n",
       "   Message('note_on', channel=0, note=52, velocity=72, time=1),\n",
       "   Message('note_on', channel=0, note=48, velocity=62, time=1),\n",
       "   Message('note_on', channel=0, note=48, velocity=0, time=11),\n",
       "   Message('note_on', channel=0, note=56, velocity=0, time=25),\n",
       "   Message('note_on', channel=0, note=52, velocity=0, time=63),\n",
       "   Message('note_on', channel=0, note=69, velocity=0, time=42),\n",
       "   Message('note_on', channel=0, note=72, velocity=94, time=380),\n",
       "   Message('note_on', channel=0, note=48, velocity=74, time=1),\n",
       "   Message('note_on', channel=0, note=53, velocity=74, time=1),\n",
       "   Message('note_on', channel=0, note=53, velocity=0, time=66),\n",
       "   Message('note_on', channel=0, note=48, velocity=0, time=21),\n",
       "   Message('note_on', channel=0, note=72, velocity=0, time=38),\n",
       "   Message('note_on', channel=0, note=72, velocity=88, time=101),\n",
       "   Message('note_on', channel=0, note=53, velocity=73, time=272),\n",
       "   Message('note_on', channel=0, note=48, velocity=77, time=4),\n",
       "   Message('note_on', channel=0, note=71, velocity=84, time=3),\n",
       "   Message('note_on', channel=0, note=53, velocity=0, time=45),\n",
       "   Message('note_on', channel=0, note=72, velocity=0, time=13),\n",
       "   Message('note_on', channel=0, note=48, velocity=0, time=6),\n",
       "   Message('note_on', channel=0, note=81, velocity=78, time=178),\n",
       "   Message('note_on', channel=0, note=69, velocity=85, time=3),\n",
       "   Message('note_on', channel=0, note=71, velocity=0, time=82),\n",
       "   Message('note_on', channel=0, note=67, velocity=84, time=151),\n",
       "   Message('note_on', channel=0, note=79, velocity=77, time=1),\n",
       "   Message('note_on', channel=0, note=81, velocity=0, time=1),\n",
       "   Message('note_on', channel=0, note=48, velocity=73, time=6),\n",
       "   Message('note_on', channel=0, note=52, velocity=77, time=0),\n",
       "   Message('note_on', channel=0, note=79, velocity=0, time=71),\n",
       "   Message('note_on', channel=0, note=52, velocity=0, time=5),\n",
       "   Message('note_on', channel=0, note=48, velocity=0, time=10),\n",
       "   Message('note_on', channel=0, note=72, velocity=94, time=139),\n",
       "   Message('note_on', channel=0, note=52, velocity=83, time=11),\n",
       "   Message('note_on', channel=0, note=48, velocity=78, time=2),\n",
       "   Message('note_on', channel=0, note=69, velocity=0, time=17),\n",
       "   Message('note_on', channel=0, note=67, velocity=0, time=6),\n",
       "   Message('note_on', channel=0, note=52, velocity=0, time=52),\n",
       "   Message('note_on', channel=0, note=48, velocity=0, time=2),\n",
       "   Message('note_on', channel=0, note=76, velocity=68, time=158),\n",
       "   Message('note_on', channel=0, note=64, velocity=85, time=1),\n",
       "   Message('note_on', channel=0, note=76, velocity=0, time=4),\n",
       "   Message('note_on', channel=0, note=52, velocity=77, time=12),\n",
       "   Message('note_on', channel=0, note=48, velocity=73, time=1),\n",
       "   Message('note_on', channel=0, note=52, velocity=0, time=45),\n",
       "   Message('note_on', channel=0, note=48, velocity=0, time=16),\n",
       "   Message('note_on', channel=0, note=72, velocity=0, time=18),\n",
       "   Message('note_on', channel=0, note=67, velocity=85, time=168),\n",
       "   Message('note_on', channel=0, note=79, velocity=73, time=0),\n",
       "   Message('note_on', channel=0, note=64, velocity=0, time=68),\n",
       "   Message('note_on', channel=0, note=81, velocity=86, time=183),\n",
       "   Message('note_on', channel=0, note=54, velocity=86, time=0),\n",
       "   Message('note_on', channel=0, note=69, velocity=89, time=1),\n",
       "   Message('note_on', channel=0, note=50, velocity=80, time=0),\n",
       "   Message('note_on', channel=0, note=79, velocity=0, time=18),\n",
       "   Message('note_on', channel=0, note=69, velocity=0, time=50),\n",
       "   Message('note_on', channel=0, note=54, velocity=0, time=1),\n",
       "   Message('note_on', channel=0, note=67, velocity=0, time=11),\n",
       "   Message('note_on', channel=0, note=50, velocity=0, time=0),\n",
       "   Message('note_on', channel=0, note=81, velocity=0, time=38),\n",
       "   Message('note_on', channel=0, note=53, velocity=82, time=404),\n",
       "   Message('note_on', channel=0, note=83, velocity=87, time=0),\n",
       "   Message('note_on', channel=0, note=77, velocity=79, time=1),\n",
       "   Message('note_on', channel=0, note=71, velocity=96, time=0),\n",
       "   Message('note_on', channel=0, note=50, velocity=81, time=3),\n",
       "   Message('note_on', channel=0, note=71, velocity=0, time=36),\n",
       "   Message('note_on', channel=0, note=83, velocity=0, time=1),\n",
       "   Message('note_on', channel=0, note=77, velocity=0, time=16),\n",
       "   Message('note_on', channel=0, note=53, velocity=0, time=2),\n",
       "   Message('note_on', channel=0, note=50, velocity=0, time=16),\n",
       "   Message('note_on', channel=0, note=72, velocity=98, time=424),\n",
       "   Message('note_on', channel=0, note=48, velocity=79, time=3),\n",
       "   Message('note_on', channel=0, note=52, velocity=78, time=2),\n",
       "   Message('note_on', channel=0, note=52, velocity=0, time=41),\n",
       "   Message('note_on', channel=0, note=48, velocity=0, time=2),\n",
       "   Message('note_on', channel=0, note=52, velocity=81, time=198),\n",
       "   Message('note_on', channel=0, note=48, velocity=75, time=3),\n",
       "   Message('note_on', channel=0, note=55, velocity=67, time=1),\n",
       "   Message('note_on', channel=0, note=55, velocity=0, time=7),\n",
       "   Message('note_on', channel=0, note=52, velocity=0, time=27),\n",
       "   Message('note_on', channel=0, note=48, velocity=0, time=1),\n",
       "   Message('note_on', channel=0, note=60, velocity=80, time=204),\n",
       "   Message('note_on', channel=0, note=48, velocity=86, time=1),\n",
       "   Message('note_on', channel=0, note=52, velocity=85, time=1),\n",
       "   Message('note_on', channel=0, note=55, velocity=70, time=0),\n",
       "   Message('note_on', channel=0, note=52, velocity=0, time=40),\n",
       "   Message('note_on', channel=0, note=48, velocity=0, time=5),\n",
       "   Message('note_on', channel=0, note=60, velocity=0, time=20),\n",
       "   Message('note_on', channel=0, note=55, velocity=0, time=8),\n",
       "   Message('note_on', channel=0, note=72, velocity=0, time=23),\n",
       "   Message('note_on', channel=0, note=79, velocity=81, time=5430),\n",
       "   Message('note_on', channel=0, note=79, velocity=0, time=32),\n",
       "   Message('note_on', channel=0, note=79, velocity=86, time=187),\n",
       "   Message('note_on', channel=0, note=79, velocity=0, time=33),\n",
       "   Message('note_on', channel=0, note=79, velocity=86, time=182),\n",
       "   Message('note_on', channel=0, note=79, velocity=0, time=34),\n",
       "   Message('note_on', channel=0, note=79, velocity=83, time=185),\n",
       "   Message('note_on', channel=0, note=77, velocity=89, time=1),\n",
       "   Message('note_on', channel=0, note=79, velocity=0, time=36),\n",
       "   Message('note_on', channel=0, note=77, velocity=0, time=28),\n",
       "   Message('note_on', channel=0, note=79, velocity=76, time=157),\n",
       "   Message('note_on', channel=0, note=77, velocity=76, time=3),\n",
       "   Message('note_on', channel=0, note=79, velocity=0, time=40),\n",
       "   Message('note_on', channel=0, note=77, velocity=0, time=15),\n",
       "   Message('note_on', channel=0, note=79, velocity=79, time=163),\n",
       "   Message('note_on', channel=0, note=77, velocity=70, time=9),\n",
       "   Message('note_on', channel=0, note=79, velocity=0, time=26),\n",
       "   Message('note_on', channel=0, note=77, velocity=0, time=35),\n",
       "   Message('note_on', channel=0, note=74, velocity=89, time=160),\n",
       "   Message('note_on', channel=0, note=79, velocity=85, time=4),\n",
       "   Message('note_on', channel=0, note=77, velocity=84, time=10),\n",
       "   Message('note_on', channel=0, note=79, velocity=0, time=37),\n",
       "   Message('note_on', channel=0, note=77, velocity=0, time=27),\n",
       "   Message('note_on', channel=0, note=79, velocity=71, time=155),\n",
       "   Message('note_on', channel=0, note=77, velocity=68, time=3),\n",
       "   Message('note_on', channel=0, note=79, velocity=0, time=42),\n",
       "   Message('note_on', channel=0, note=77, velocity=0, time=24),\n",
       "   Message('note_on', channel=0, note=79, velocity=73, time=168),\n",
       "   Message('note_on', channel=0, note=77, velocity=66, time=6),\n",
       "   Message('note_on', channel=0, note=79, velocity=0, time=31),\n",
       "   Message('note_on', channel=0, note=77, velocity=0, time=20),\n",
       "   Message('note_on', channel=0, note=79, velocity=71, time=178),\n",
       "   Message('note_on', channel=0, note=74, velocity=0, time=4),\n",
       "   Message('note_on', channel=0, note=77, velocity=68, time=3),\n",
       "   Message('note_on', channel=0, note=71, velocity=60, time=1),\n",
       "   Message('note_on', channel=0, note=74, velocity=54, time=1),\n",
       "   Message('note_on', channel=0, note=79, velocity=0, time=42),\n",
       "   Message('note_on', channel=0, note=77, velocity=0, time=15),\n",
       "   Message('note_on', channel=0, note=74, velocity=0, time=45),\n",
       "   Message('note_on', channel=0, note=71, velocity=0, time=92),\n",
       "   Message('note_on', channel=0, note=79, velocity=65, time=29),\n",
       "   Message('note_on', channel=0, note=77, velocity=60, time=5),\n",
       "   Message('note_on', channel=0, note=79, velocity=0, time=24),\n",
       "   Message('note_on', channel=0, note=77, velocity=0, time=15),\n",
       "   Message('note_on', channel=0, note=79, velocity=74, time=175),\n",
       "   Message('note_on', channel=0, note=79, velocity=0, time=25),\n",
       "   Message('note_on', channel=0, note=79, velocity=65, time=217),\n",
       "   Message('note_on', channel=0, note=67, velocity=75, time=1),\n",
       "   Message('note_on', channel=0, note=67, velocity=0, time=35),\n",
       "   Message('note_on', channel=0, note=79, velocity=0, time=4),\n",
       "   Message('note_on', channel=0, note=79, velocity=63, time=183),\n",
       "   Message('note_on', channel=0, note=67, velocity=71, time=1),\n",
       "   Message('note_on', channel=0, note=67, velocity=0, time=59),\n",
       "   Message('note_on', channel=0, note=79, velocity=0, time=11),\n",
       "   Message('note_on', channel=0, note=79, velocity=52, time=151),\n",
       "   Message('note_on', channel=0, note=67, velocity=57, time=2),\n",
       "   Message('note_on', channel=0, note=79, velocity=0, time=39),\n",
       "   Message('note_on', channel=0, note=67, velocity=0, time=4),\n",
       "   Message('note_on', channel=0, note=67, velocity=54, time=163),\n",
       "   Message('note_on', channel=0, note=79, velocity=50, time=0),\n",
       "   Message('note_on', channel=0, note=79, velocity=0, time=48),\n",
       "   Message('note_on', channel=0, note=65, velocity=30, time=12),\n",
       "   Message('note_on', channel=0, note=77, velocity=20, time=1),\n",
       "   Message('note_on', channel=0, note=77, velocity=0, time=10),\n",
       "   Message('note_on', channel=0, note=65, velocity=0, time=59),\n",
       "   Message('note_on', channel=0, note=67, velocity=0, time=6),\n",
       "   Message('note_on', channel=0, note=79, velocity=52, time=93),\n",
       "   Message('note_on', channel=0, note=67, velocity=61, time=1),\n",
       "   Message('note_on', channel=0, note=65, velocity=46, time=5),\n",
       "   Message('note_on', channel=0, note=77, velocity=49, time=1),\n",
       "   Message('note_on', channel=0, note=77, velocity=0, time=4),\n",
       "   Message('note_on', channel=0, note=79, velocity=0, time=15),\n",
       "   Message('note_on', channel=0, note=65, velocity=0, time=66),\n",
       "   Message('note_on', channel=0, note=67, velocity=0, time=6),\n",
       "   Message('note_on', channel=0, note=79, velocity=57, time=139),\n",
       "   Message('note_on', channel=0, note=67, velocity=61, time=2),\n",
       "   Message('note_on', channel=0, note=65, velocity=49, time=6),\n",
       "   Message('note_on', channel=0, note=67, velocity=0, time=53),\n",
       "   Message('note_on', channel=0, note=65, velocity=0, time=11),\n",
       "   Message('note_on', channel=0, note=79, velocity=0, time=9),\n",
       "   Message('note_on', channel=0, note=67, velocity=72, time=134),\n",
       "   Message('note_on', channel=0, note=62, velocity=65, time=1),\n",
       "   Message('note_on', channel=0, note=74, velocity=58, time=0),\n",
       "   Message('note_on', channel=0, note=79, velocity=63, time=1),\n",
       "   Message('note_on', channel=0, note=65, velocity=45, time=33),\n",
       "   Message('note_on', channel=0, note=79, velocity=0, time=23),\n",
       "   Message('note_on', channel=0, note=74, velocity=0, time=23),\n",
       "   Message('note_on', channel=0, note=65, velocity=0, time=7),\n",
       "   Message('note_on', channel=0, note=67, velocity=0, time=20),\n",
       "   Message('note_on', channel=0, note=79, velocity=62, time=132),\n",
       "   Message('note_on', channel=0, note=67, velocity=69, time=1),\n",
       "   Message('note_on', channel=0, note=65, velocity=57, time=4),\n",
       "   Message('note_on', channel=0, note=77, velocity=53, time=1),\n",
       "   Message('note_on', channel=0, note=79, velocity=0, time=19),\n",
       "   Message('note_on', channel=0, note=67, velocity=0, time=19),\n",
       "   Message('note_on', channel=0, note=65, velocity=0, time=2),\n",
       "   Message('note_on', channel=0, note=77, velocity=0, time=2),\n",
       "   Message('note_on', channel=0, note=79, velocity=61, time=177),\n",
       "   Message('note_on', channel=0, note=67, velocity=66, time=3),\n",
       "   Message('note_on', channel=0, note=65, velocity=50, time=18),\n",
       "   Message('note_on', channel=0, note=67, velocity=0, time=23),\n",
       "   Message('note_on', channel=0, note=79, velocity=0, time=10),\n",
       "   Message('note_on', channel=0, note=65, velocity=0, time=4),\n",
       "   Message('note_on', channel=0, note=79, velocity=67, time=170),\n",
       "   Message('note_on', channel=0, note=59, velocity=71, time=1),\n",
       "   Message('note_on', channel=0, note=55, velocity=47, time=0),\n",
       "   Message('note_on', channel=0, note=67, velocity=74, time=4),\n",
       "   Message('note_on', channel=0, note=55, velocity=0, time=5),\n",
       "   Message('note_on', channel=0, note=65, velocity=45, time=22),\n",
       "   Message('note_on', channel=0, note=67, velocity=0, time=32),\n",
       "   Message('note_on', channel=0, note=65, velocity=0, time=4),\n",
       "   Message('note_on', channel=0, note=79, velocity=0, time=73),\n",
       "   Message('note_on', channel=0, note=62, velocity=0, time=7),\n",
       "   Message('note_on', channel=0, note=79, velocity=63, time=97),\n",
       "   Message('note_on', channel=0, note=67, velocity=71, time=0),\n",
       "   Message('note_on', channel=0, note=67, velocity=0, time=48),\n",
       "   Message('note_on', channel=0, note=79, velocity=0, time=70),\n",
       "   Message('note_on', channel=0, note=79, velocity=65, time=127),\n",
       "   Message('note_on', channel=0, note=67, velocity=71, time=0),\n",
       "   Message('note_on', channel=0, note=65, velocity=35, time=37),\n",
       "   Message('note_on', channel=0, note=67, velocity=0, time=16),\n",
       "   Message('note_on', channel=0, note=65, velocity=0, time=16),\n",
       "   Message('note_on', channel=0, note=79, velocity=0, time=35),\n",
       "   Message('note_on', channel=0, note=79, velocity=58, time=165),\n",
       "   Message('note_on', channel=0, note=67, velocity=63, time=1),\n",
       "   Message('note_on', channel=0, note=55, velocity=49, time=5),\n",
       "   Message('note_on', channel=0, note=65, velocity=45, time=18),\n",
       "   Message('note_on', channel=0, note=77, velocity=40, time=6),\n",
       "   Message('note_on', channel=0, note=67, velocity=0, time=132),\n",
       "   Message('note_on', channel=0, note=65, velocity=0, time=5),\n",
       "   Message('note_on', channel=0, note=59, velocity=0, time=0),\n",
       "   Message('note_on', channel=0, note=77, velocity=0, time=13),\n",
       "   Message('note_on', channel=0, note=55, velocity=0, time=34),\n",
       "   Message('note_on', channel=0, note=79, velocity=0, time=36),\n",
       "   Message('note_on', channel=0, note=79, velocity=78, time=751),\n",
       "   Message('note_on', channel=0, note=77, velocity=76, time=3),\n",
       "   Message('note_on', channel=0, note=71, velocity=73, time=2),\n",
       "   Message('note_on', channel=0, note=71, velocity=0, time=37),\n",
       "   Message('note_on', channel=0, note=77, velocity=0, time=19),\n",
       "   Message('note_on', channel=0, note=79, velocity=0, time=25),\n",
       "   Message('note_on', channel=0, note=79, velocity=64, time=165),\n",
       "   Message('note_on', channel=0, note=77, velocity=61, time=3),\n",
       "   Message('note_on', channel=0, note=76, velocity=49, time=3),\n",
       "   Message('note_on', channel=0, note=79, velocity=0, time=22),\n",
       "   Message('note_on', channel=0, note=76, velocity=0, time=10),\n",
       "   Message('note_on', channel=0, note=77, velocity=0, time=22),\n",
       "   Message('note_on', channel=0, note=79, velocity=71, time=154),\n",
       "   Message('note_on', channel=0, note=76, velocity=48, time=6),\n",
       "   Message('note_on', channel=0, note=77, velocity=63, time=1),\n",
       "   Message('note_on', channel=0, note=79, velocity=0, time=22),\n",
       "   Message('note_on', channel=0, note=77, velocity=0, time=34),\n",
       "   Message('note_on', channel=0, note=76, velocity=0, time=3),\n",
       "   Message('note_on', channel=0, note=67, velocity=80, time=168),\n",
       "   Message('note_on', channel=0, note=79, velocity=85, time=3),\n",
       "   Message('note_on', channel=0, note=77, velocity=84, time=2),\n",
       "   Message('note_on', channel=0, note=79, velocity=0, time=67),\n",
       "   Message('note_on', channel=0, note=77, velocity=0, time=12),\n",
       "   Message('note_on', channel=0, note=79, velocity=69, time=146),\n",
       "   Message('note_on', channel=0, note=77, velocity=57, time=8),\n",
       "   Message('note_on', channel=0, note=79, velocity=0, time=29),\n",
       "   Message('note_on', channel=0, note=77, velocity=0, time=15),\n",
       "   Message('note_on', channel=0, note=79, velocity=78, time=161),\n",
       "   Message('note_on', channel=0, note=77, velocity=63, time=7),\n",
       "   Message('note_on', channel=0, note=79, velocity=0, time=32),\n",
       "   Message('note_on', channel=0, note=77, velocity=0, time=15),\n",
       "   Message('note_on', channel=0, note=72, velocity=79, time=168),\n",
       "   Message('note_on', channel=0, note=79, velocity=81, time=6),\n",
       "   Message('note_on', channel=0, note=76, velocity=82, time=2),\n",
       "   Message('note_on', channel=0, note=67, velocity=0, time=12),\n",
       "   Message('note_on', channel=0, note=72, velocity=0, time=10),\n",
       "   Message('note_on', channel=0, note=76, velocity=0, time=2),\n",
       "   Message('note_on', channel=0, note=79, velocity=0, time=18),\n",
       "   Message('note_on', channel=0, note=79, velocity=68, time=179),\n",
       "   Message('note_on', channel=0, note=76, velocity=57, time=8),\n",
       "   Message('note_on', channel=0, note=79, velocity=0, time=18),\n",
       "   Message('note_on', channel=0, note=76, velocity=0, time=26),\n",
       "   Message('note_on', channel=0, note=79, velocity=61, time=165),\n",
       "   Message('note_on', channel=0, note=76, velocity=56, time=3),\n",
       "   Message('note_on', channel=0, note=79, velocity=0, time=20),\n",
       "   Message('note_on', channel=0, note=76, velocity=0, time=27),\n",
       "   Message('note_on', channel=0, note=67, velocity=78, time=158),\n",
       "   Message('note_on', channel=0, note=79, velocity=83, time=6),\n",
       "   Message('note_on', channel=0, note=76, velocity=78, time=2),\n",
       "   Message('note_on', channel=0, note=79, velocity=0, time=23),\n",
       "   Message('note_on', channel=0, note=76, velocity=0, time=34),\n",
       "   Message('note_on', channel=0, note=79, velocity=73, time=163),\n",
       "   Message('note_on', channel=0, note=76, velocity=67, time=1),\n",
       "   Message('note_on', channel=0, note=79, velocity=0, time=30),\n",
       "   Message('note_on', channel=0, note=76, velocity=0, time=1),\n",
       "   Message('note_on', channel=0, note=79, velocity=75, time=184),\n",
       "   Message('note_on', channel=0, note=76, velocity=64, time=8),\n",
       "   Message('note_on', channel=0, note=79, velocity=0, time=19),\n",
       "   Message('note_on', channel=0, note=76, velocity=0, time=31),\n",
       "   Message('note_on', channel=0, note=74, velocity=70, time=157),\n",
       "   Message('note_on', channel=0, note=77, velocity=72, time=8),\n",
       "   Message('note_on', channel=0, note=83, velocity=66, time=4),\n",
       "   Message('note_on', channel=0, note=74, velocity=0, time=33),\n",
       "   Message('note_on', channel=0, note=77, velocity=0, time=18),\n",
       "   Message('note_on', channel=0, note=83, velocity=0, time=8),\n",
       "   Message('note_on', channel=0, note=67, velocity=0, time=3),\n",
       "   Message('note_on', channel=0, note=83, velocity=67, time=157),\n",
       "   Message('note_on', channel=0, note=77, velocity=74, time=0),\n",
       "   Message('note_on', channel=0, note=77, velocity=0, time=43),\n",
       "   Message('note_on', channel=0, note=83, velocity=0, time=5),\n",
       "   Message('note_on', channel=0, note=77, velocity=77, time=170),\n",
       "   Message('note_on', channel=0, note=83, velocity=63, time=2),\n",
       "   Message('note_on', channel=0, note=77, velocity=0, time=42),\n",
       "   Message('note_on', channel=0, note=83, velocity=0, time=11),\n",
       "   Message('note_on', channel=0, note=79, velocity=70, time=151),\n",
       "   Message('note_on', channel=0, note=67, velocity=74, time=5),\n",
       "   Message('note_on', channel=0, note=77, velocity=75, time=14),\n",
       "   Message('note_on', channel=0, note=83, velocity=74, time=2),\n",
       "   Message('note_on', channel=0, note=77, velocity=0, time=62),\n",
       "   Message('note_on', channel=0, note=83, velocity=0, time=2),\n",
       "   Message('note_on', channel=0, note=79, velocity=0, time=2),\n",
       "   Message('note_on', channel=0, note=77, velocity=76, time=155),\n",
       "   Message('note_on', channel=0, note=83, velocity=67, time=1),\n",
       "   Message('note_on', channel=0, note=77, velocity=0, time=45),\n",
       "   Message('note_on', channel=0, note=83, velocity=0, time=10),\n",
       "   Message('note_on', channel=0, note=83, velocity=68, time=159),\n",
       "   Message('note_on', channel=0, note=77, velocity=72, time=1),\n",
       "   Message('note_on', channel=0, note=77, velocity=0, time=54),\n",
       "   Message('note_on', channel=0, note=83, velocity=0, time=32),\n",
       "   Message('note_on', channel=0, note=72, velocity=83, time=129),\n",
       "   Message('note_on', channel=0, note=84, velocity=80, time=4),\n",
       "   Message('note_on', channel=0, note=76, velocity=82, time=1),\n",
       "   Message('note_on', channel=0, note=72, velocity=0, time=20),\n",
       "   Message('note_on', channel=0, note=67, velocity=0, time=3),\n",
       "   Message('note_on', channel=0, note=84, velocity=0, time=5),\n",
       "   Message('note_on', channel=0, note=76, velocity=0, time=18),\n",
       "   Message('note_on', channel=0, note=76, velocity=75, time=427),\n",
       "   Message('note_on', channel=0, note=84, velocity=68, time=0),\n",
       "   Message('note_on', channel=0, note=76, velocity=0, time=30),\n",
       "   Message('note_on', channel=0, note=84, velocity=0, time=35),\n",
       "   Message('note_on', channel=0, note=79, velocity=69, time=155),\n",
       "   Message('note_on', channel=0, note=84, velocity=77, time=4),\n",
       "   Message('note_on', channel=0, note=67, velocity=67, time=1),\n",
       "   Message('note_on', channel=0, note=76, velocity=82, time=1),\n",
       "   Message('note_on', channel=0, note=76, velocity=0, time=36),\n",
       "   Message('note_on', channel=0, note=83, velocity=71, time=185),\n",
       "   Message('note_on', channel=0, note=76, velocity=72, time=1),\n",
       "   Message('note_on', channel=0, note=76, velocity=0, time=36),\n",
       "   Message('note_on', channel=0, note=83, velocity=0, time=15),\n",
       "   Message('note_on', channel=0, note=84, velocity=0, time=4),\n",
       "   Message('note_on', channel=0, note=79, velocity=0, time=7),\n",
       "   Message('note_on', channel=0, note=81, velocity=72, time=157),\n",
       "   Message('note_on', channel=0, note=76, velocity=70, time=1),\n",
       "   Message('note_on', channel=0, note=76, velocity=0, time=32),\n",
       "   Message('note_on', channel=0, note=81, velocity=0, time=6),\n",
       "   Message('note_on', channel=0, note=79, velocity=75, time=186),\n",
       "   Message('note_on', channel=0, note=71, velocity=64, time=5),\n",
       "   Message('note_on', channel=0, note=77, velocity=71, time=1),\n",
       "   Message('note_on', channel=0, note=79, velocity=0, time=27),\n",
       "   Message('note_on', channel=0, note=71, velocity=0, time=5),\n",
       "   Message('note_on', channel=0, note=77, velocity=0, time=6),\n",
       "   Message('note_on', channel=0, note=67, velocity=0, time=20),\n",
       "   Message('note_on', channel=0, note=79, velocity=56, time=162),\n",
       "   Message('note_on', channel=0, note=77, velocity=56, time=2),\n",
       "   Message('note_on', channel=0, note=79, velocity=0, time=24),\n",
       "   Message('note_on', channel=0, note=77, velocity=0, time=7),\n",
       "   Message('note_on', channel=0, note=79, velocity=67, time=186),\n",
       "   Message('note_on', channel=0, note=77, velocity=52, time=8),\n",
       "   Message('note_on', channel=0, note=79, velocity=0, time=22),\n",
       "   Message('note_on', channel=0, note=77, velocity=0, time=7),\n",
       "   Message('note_on', channel=0, note=67, velocity=73, time=167),\n",
       "   Message('note_on', channel=0, note=79, velocity=79, time=2),\n",
       "   Message('note_on', channel=0, note=77, velocity=70, time=17),\n",
       "   Message('note_on', channel=0, note=79, velocity=0, time=37),\n",
       "   Message('note_on', channel=0, note=77, velocity=0, time=9),\n",
       "   Message('note_on', channel=0, note=79, velocity=66, time=155),\n",
       "   Message('note_on', channel=0, note=77, velocity=57, time=7),\n",
       "   Message('note_on', channel=0, note=79, velocity=0, time=34),\n",
       "   Message('note_on', channel=0, note=77, velocity=0, time=32),\n",
       "   Message('note_on', channel=0, note=79, velocity=72, time=158),\n",
       "   Message('note_on', channel=0, note=77, velocity=69, time=6),\n",
       "   Message('note_on', channel=0, note=79, velocity=0, time=30),\n",
       "   Message('note_on', channel=0, note=77, velocity=0, time=21),\n",
       "   Message('note_on', channel=0, note=72, velocity=75, time=146),\n",
       "   Message('note_on', channel=0, note=79, velocity=70, time=21),\n",
       "   Message('note_on', channel=0, note=76, velocity=69, time=2),\n",
       "   Message('note_on', channel=0, note=67, velocity=0, time=5),\n",
       "   Message('note_on', channel=0, note=76, velocity=0, time=20),\n",
       "   Message('note_on', channel=0, note=79, velocity=0, time=18),\n",
       "   Message('note_on', channel=0, note=72, velocity=0, time=42),\n",
       "   Message('note_on', channel=0, note=79, velocity=64, time=122),\n",
       "   Message('note_on', channel=0, note=76, velocity=56, time=3),\n",
       "   Message('note_on', channel=0, note=79, velocity=0, time=22),\n",
       "   Message('note_on', channel=0, note=76, velocity=0, time=26),\n",
       "   Message('note_on', channel=0, note=79, velocity=63, time=157),\n",
       "   Message('note_on', channel=0, note=76, velocity=60, time=1),\n",
       "   Message('note_on', channel=0, note=76, velocity=0, time=26),\n",
       "   Message('note_on', channel=0, note=79, velocity=0, time=3),\n",
       "   Message('note_on', channel=0, note=67, velocity=70, time=195),\n",
       "   Message('note_on', channel=0, note=79, velocity=80, time=3),\n",
       "   Message('note_on', channel=0, note=76, velocity=72, time=3),\n",
       "   Message('note_on', channel=0, note=79, velocity=0, time=31),\n",
       "   Message('note_on', channel=0, note=76, velocity=0, time=5),\n",
       "   Message('note_on', channel=0, note=79, velocity=69, time=165),\n",
       "   Message('note_on', channel=0, note=76, velocity=66, time=2),\n",
       "   Message('note_on', channel=0, note=76, velocity=0, time=29),\n",
       "   Message('note_on', channel=0, note=79, velocity=0, time=1),\n",
       "   Message('note_on', channel=0, note=79, velocity=72, time=196),\n",
       "   Message('note_on', channel=0, note=76, velocity=67, time=1),\n",
       "   Message('note_on', channel=0, note=79, velocity=0, time=27),\n",
       "   Message('note_on', channel=0, note=76, velocity=0, time=3),\n",
       "   Message('note_on', channel=0, note=77, velocity=85, time=179),\n",
       "   Message('note_on', channel=0, note=74, velocity=75, time=0),\n",
       "   Message('note_on', channel=0, note=83, velocity=76, time=4),\n",
       "   Message('note_on', channel=0, note=77, velocity=0, time=46),\n",
       "   Message('note_on', channel=0, note=67, velocity=0, time=22),\n",
       "   Message('note_on', channel=0, note=83, velocity=0, time=4),\n",
       "   Message('note_on', channel=0, note=74, velocity=0, time=9),\n",
       "   Message('note_on', channel=0, note=77, velocity=73, time=147),\n",
       "   Message('note_on', channel=0, note=83, velocity=65, time=2),\n",
       "   Message('note_on', channel=0, note=77, velocity=0, time=52),\n",
       "   Message('note_on', channel=0, note=83, velocity=0, time=1),\n",
       "   Message('note_on', channel=0, note=83, velocity=62, time=151),\n",
       "   Message('note_on', channel=0, note=77, velocity=65, time=3),\n",
       "   Message('note_on', channel=0, note=77, velocity=0, time=44),\n",
       "   Message('note_on', channel=0, note=83, velocity=0, time=3),\n",
       "   Message('note_on', channel=0, note=79, velocity=73, time=154),\n",
       "   Message('note_on', channel=0, note=67, velocity=79, time=2),\n",
       "   Message('note_on', channel=0, note=77, velocity=79, time=18),\n",
       "   Message('note_on', channel=0, note=83, velocity=78, time=4),\n",
       "   Message('note_on', channel=0, note=77, velocity=0, time=58),\n",
       "   Message('note_on', channel=0, note=83, velocity=0, time=3),\n",
       "   Message('note_on', channel=0, note=79, velocity=0, time=13),\n",
       "   Message('note_on', channel=0, note=77, velocity=74, time=132),\n",
       "   Message('note_on', channel=0, note=83, velocity=67, time=1),\n",
       "   Message('note_on', channel=0, note=77, velocity=0, time=49),\n",
       "   Message('note_on', channel=0, note=83, velocity=0, time=15),\n",
       "   Message('note_on', channel=0, note=83, velocity=67, time=138),\n",
       "   Message('note_on', channel=0, note=77, velocity=75, time=1),\n",
       "   Message('note_on', channel=0, note=77, velocity=0, time=57),\n",
       "   Message('note_on', channel=0, note=83, velocity=0, time=25),\n",
       "   Message('note_on', channel=0, note=84, velocity=79, time=140),\n",
       "   Message('note_on', channel=0, note=72, velocity=79, time=0),\n",
       "   Message('note_on', channel=0, note=76, velocity=84, time=0),\n",
       "   Message('note_on', channel=0, note=67, velocity=0, time=25),\n",
       "   Message('note_on', channel=0, note=76, velocity=0, time=8),\n",
       "   Message('note_on', channel=0, note=72, velocity=0, time=2),\n",
       "   Message('note_on', channel=0, note=84, velocity=0, time=13),\n",
       "   Message('note_on', channel=0, note=79, velocity=61, time=450),\n",
       "   Message('note_on', channel=0, note=67, velocity=67, time=1),\n",
       "   Message('note_on', channel=0, note=84, velocity=73, time=230),\n",
       "   Message('note_on', channel=0, note=72, velocity=68, time=2),\n",
       "   Message('note_on', channel=0, note=76, velocity=74, time=0),\n",
       "   Message('note_on', channel=0, note=60, velocity=71, time=4),\n",
       "   Message('note_on', channel=0, note=72, velocity=0, time=5),\n",
       "   Message('note_on', channel=0, note=79, velocity=0, time=39),\n",
       "   Message('note_on', channel=0, note=84, velocity=0, time=12),\n",
       "   Message('note_on', channel=0, note=76, velocity=0, time=6),\n",
       "   Message('note_on', channel=0, note=67, velocity=0, time=9),\n",
       "   Message('note_on', channel=0, note=60, velocity=0, time=6),\n",
       "   Message('note_on', channel=0, note=67, velocity=70, time=749),\n",
       "   Message('note_on', channel=0, note=79, velocity=63, time=0),\n",
       "   Message('note_on', channel=0, note=59, velocity=71, time=4),\n",
       "   Message('note_on', channel=0, note=77, velocity=56, time=0),\n",
       "   Message('note_on', channel=0, note=65, velocity=54, time=1),\n",
       "   Message('note_on', channel=0, note=79, velocity=0, time=3),\n",
       "   Message('note_on', channel=0, note=65, velocity=0, time=42),\n",
       "   Message('note_on', channel=0, note=67, velocity=0, time=6),\n",
       "   Message('note_on', channel=0, note=77, velocity=0, time=44),\n",
       "   Message('note_on', channel=0, note=59, velocity=0, time=10),\n",
       "   Message('note_on', channel=0, note=79, velocity=57, time=117),\n",
       "   Message('note_on', channel=0, note=67, velocity=58, time=1),\n",
       "   Message('note_on', channel=0, note=65, velocity=48, time=4),\n",
       "   Message('note_on', channel=0, note=79, velocity=0, time=25),\n",
       "   Message('note_on', channel=0, note=67, velocity=0, time=9),\n",
       "   Message('note_on', channel=0, note=65, velocity=0, time=5),\n",
       "   Message('note_on', channel=0, note=79, velocity=60, time=165),\n",
       "   Message('note_on', channel=0, note=67, velocity=64, time=1),\n",
       "   Message('note_on', channel=0, note=79, velocity=0, time=34),\n",
       "   Message('note_on', channel=0, note=67, velocity=0, time=1),\n",
       "   Message('note_on', channel=0, note=55, velocity=79, time=178),\n",
       "   Message('note_on', channel=0, note=79, velocity=67, time=4),\n",
       "   Message('note_on', channel=0, note=67, velocity=72, time=11),\n",
       "   Message('note_on', channel=0, note=65, velocity=57, time=10),\n",
       "   Message('note_on', channel=0, note=65, velocity=0, time=74),\n",
       "   Message('note_on', channel=0, note=67, velocity=0, time=16),\n",
       "   Message('note_on', channel=0, note=79, velocity=0, time=103),\n",
       "   Message('note_on', channel=0, note=79, velocity=62, time=11),\n",
       "   Message('note_on', channel=0, note=67, velocity=66, time=2),\n",
       "   Message('note_on', channel=0, note=65, velocity=52, time=8),\n",
       "   Message('note_on', channel=0, note=55, velocity=0, time=10),\n",
       "   Message('note_on', channel=0, note=55, velocity=39, time=11),\n",
       "   Message('note_on', channel=0, note=67, velocity=0, time=16),\n",
       "   Message('note_on', channel=0, note=65, velocity=0, time=6),\n",
       "   Message('note_on', channel=0, note=79, velocity=0, time=36),\n",
       "   Message('note_on', channel=0, note=55, velocity=0, time=115),\n",
       "   Message('note_on', channel=0, note=79, velocity=64, time=3),\n",
       "   Message('note_on', channel=0, note=67, velocity=68, time=2),\n",
       "   Message('note_on', channel=0, note=55, velocity=53, time=4),\n",
       "   Message('note_on', channel=0, note=65, velocity=55, time=0),\n",
       "   Message('note_on', channel=0, note=67, velocity=0, time=41),\n",
       "   Message('note_on', channel=0, note=65, velocity=0, time=1),\n",
       "   Message('note_on', channel=0, note=60, velocity=72, time=164),\n",
       "   Message('note_on', channel=0, note=79, velocity=0, time=8),\n",
       "   Message('note_on', channel=0, note=52, velocity=54, time=10),\n",
       "   Message('note_on', channel=0, note=79, velocity=69, time=1),\n",
       "   Message('note_on', channel=0, note=64, velocity=70, time=2),\n",
       "   Message('note_on', channel=0, note=67, velocity=71, time=0),\n",
       "   Message('note_on', channel=0, note=52, velocity=0, time=2),\n",
       "   Message('note_on', channel=0, note=79, velocity=0, time=42),\n",
       "   Message('note_on', channel=0, note=67, velocity=0, time=2),\n",
       "   Message('note_on', channel=0, note=55, velocity=0, time=1),\n",
       "   Message('note_on', channel=0, note=64, velocity=0, time=1),\n",
       "   Message('note_on', channel=0, note=60, velocity=0, time=43),\n",
       "   Message('note_on', channel=0, note=79, velocity=59, time=131),\n",
       "   Message('note_on', channel=0, note=67, velocity=64, time=1),\n",
       "   Message('note_on', channel=0, note=64, velocity=57, time=5),\n",
       "   Message('note_on', channel=0, note=79, velocity=0, time=27),\n",
       "   Message('note_on', channel=0, note=67, velocity=0, time=4),\n",
       "   Message('note_on', channel=0, note=64, velocity=0, time=6),\n",
       "   Message('note_on', channel=0, note=67, velocity=62, time=166),\n",
       "   Message('note_on', channel=0, note=79, velocity=58, time=0),\n",
       "   Message('note_on', channel=0, note=64, velocity=55, time=5),\n",
       "   Message('note_on', channel=0, note=79, velocity=0, time=28),\n",
       "   Message('note_on', channel=0, note=67, velocity=0, time=3),\n",
       "   Message('note_on', channel=0, note=64, velocity=0, time=3),\n",
       "   Message('note_on', channel=0, note=55, velocity=77, time=166),\n",
       "   Message('note_on', channel=0, note=79, velocity=71, time=6),\n",
       "   Message('note_on', channel=0, note=67, velocity=78, time=6),\n",
       "   Message('note_on', channel=0, note=64, velocity=71, time=6),\n",
       "   Message('note_on', channel=0, note=55, velocity=0, time=8),\n",
       "   Message('note_on', channel=0, note=76, velocity=64, time=0),\n",
       "   Message('note_on', channel=0, note=64, velocity=0, time=47),\n",
       "   Message('note_on', channel=0, note=67, velocity=0, time=41),\n",
       "   Message('note_on', channel=0, note=79, velocity=0, time=28),\n",
       "   Message('note_on', channel=0, note=79, velocity=62, time=81),\n",
       "   Message('note_on', channel=0, note=67, velocity=67, time=3),\n",
       "   Message('note_on', channel=0, note=64, velocity=60, time=4),\n",
       "   Message('note_on', channel=0, note=55, velocity=55, time=1),\n",
       "   Message('note_on', channel=0, note=79, velocity=0, time=47),\n",
       "   Message('note_on', channel=0, note=67, velocity=0, time=11),\n",
       "   Message('note_on', channel=0, note=64, velocity=0, time=0),\n",
       "   Message('note_on', channel=0, note=76, velocity=0, time=22),\n",
       "   Message('note_on', channel=0, note=79, velocity=67, time=118),\n",
       "   Message('note_on', channel=0, note=67, velocity=73, time=1),\n",
       "   Message('note_on', channel=0, note=55, velocity=0, time=19),\n",
       "   Message('note_on', channel=0, note=64, velocity=52, time=2),\n",
       "   Message('note_on', channel=0, note=55, velocity=45, time=5),\n",
       "   Message('note_on', channel=0, note=67, velocity=0, time=28),\n",
       "   Message('note_on', channel=0, note=64, velocity=0, time=0),\n",
       "   Message('note_on', channel=0, note=71, velocity=76, time=171),\n",
       "   Message('note_on', channel=0, note=74, velocity=65, time=3),\n",
       "   Message('note_on', channel=0, note=65, velocity=72, time=1),\n",
       "   Message('note_on', channel=0, note=62, velocity=69, time=1),\n",
       "   Message('note_on', channel=0, note=77, velocity=60, time=1),\n",
       "   Message('note_on', channel=0, note=79, velocity=0, time=26),\n",
       "   Message('note_on', channel=0, note=55, velocity=0, time=20),\n",
       "   Message('note_on', channel=0, note=65, velocity=0, time=23),\n",
       "   Message('note_on', channel=0, note=77, velocity=0, time=3),\n",
       "   Message('note_on', channel=0, note=71, velocity=0, time=16),\n",
       "   Message('note_on', channel=0, note=74, velocity=0, time=23),\n",
       "   Message('note_on', channel=0, note=62, velocity=0, time=31),\n",
       "   Message('note_on', channel=0, note=65, velocity=65, time=80),\n",
       "   Message('note_on', channel=0, note=71, velocity=62, time=1),\n",
       "   Message('note_on', channel=0, note=77, velocity=55, time=2),\n",
       "   Message('note_on', channel=0, note=65, velocity=0, time=31),\n",
       "   Message('note_on', channel=0, note=71, velocity=0, time=8),\n",
       "   Message('note_on', channel=0, note=77, velocity=0, time=39),\n",
       "   Message('note_on', channel=0, note=71, velocity=71, time=127),\n",
       "   Message('note_on', channel=0, note=65, velocity=66, time=2),\n",
       "   Message('note_on', channel=0, note=77, velocity=60, time=1),\n",
       "   Message('note_on', channel=0, note=65, velocity=0, time=37),\n",
       "   Message('note_on', channel=0, note=71, velocity=0, time=3),\n",
       "   Message('note_on', channel=0, note=77, velocity=0, time=13),\n",
       "   Message('note_on', channel=0, note=55, velocity=79, time=165),\n",
       "   Message('note_on', channel=0, note=65, velocity=75, time=10),\n",
       "   Message('note_on', channel=0, note=71, velocity=79, time=2),\n",
       "   Message('note_on', channel=0, note=77, velocity=51, time=13),\n",
       "   Message('note_on', channel=0, note=65, velocity=0, time=87),\n",
       "   Message('note_on', channel=0, note=71, velocity=0, time=1),\n",
       "   Message('note_on', channel=0, note=77, velocity=0, time=30),\n",
       "   Message('note_on', channel=0, note=55, velocity=0, time=69),\n",
       "   Message('note_on', channel=0, note=65, velocity=66, time=6),\n",
       "   Message('note_on', channel=0, note=55, velocity=57, time=5),\n",
       "   Message('note_on', channel=0, note=77, velocity=60, time=0),\n",
       "   Message('note_on', channel=0, note=71, velocity=64, time=1),\n",
       "   Message('note_on', channel=0, note=65, velocity=0, time=87),\n",
       "   Message('note_on', channel=0, note=71, velocity=0, time=1),\n",
       "   Message('note_on', channel=0, note=55, velocity=0, time=108),\n",
       "   Message('note_on', channel=0, note=71, velocity=72, time=8),\n",
       "   Message('note_on', channel=0, note=55, velocity=59, time=1),\n",
       "   Message('note_on', channel=0, note=65, velocity=68, time=1),\n",
       "   Message('note_on', channel=0, note=77, velocity=0, time=74),\n",
       "   Message('note_on', channel=0, note=65, velocity=0, time=5),\n",
       "   Message('note_on', channel=0, note=71, velocity=0, time=18),\n",
       "   Message('note_on', channel=0, note=64, velocity=85, time=120),\n",
       "   Message('note_on', channel=0, note=72, velocity=82, time=0),\n",
       "   Message('note_on', channel=0, note=60, velocity=78, time=0),\n",
       "   Message('note_on', channel=0, note=60, velocity=0, time=47),\n",
       "   Message('note_on', channel=0, note=55, velocity=0, time=2),\n",
       "   Message('note_on', channel=0, note=64, velocity=0, time=54),\n",
       "   Message('note_on', channel=0, note=72, velocity=0, time=0),\n",
       "   Message('note_on', channel=0, note=72, velocity=74, time=355),\n",
       "   Message('note_on', channel=0, note=64, velocity=75, time=0),\n",
       "   Message('note_on', channel=0, note=64, velocity=0, time=38),\n",
       "   Message('note_on', channel=0, note=72, velocity=0, time=2),\n",
       "   Message('note_on', channel=0, note=55, velocity=81, time=170),\n",
       "   Message('note_on', channel=0, note=72, velocity=83, time=6),\n",
       "   Message('note_on', channel=0, note=64, velocity=82, time=1),\n",
       "   Message('note_on', channel=0, note=64, velocity=0, time=101),\n",
       "   Message('note_on', channel=0, note=72, velocity=0, time=11),\n",
       "   Message('note_on', channel=0, note=55, velocity=0, time=99),\n",
       "   Message('note_on', channel=0, note=64, velocity=71, time=3),\n",
       "   Message('note_on', channel=0, note=76, velocity=64, time=1),\n",
       "   Message('note_on', channel=0, note=71, velocity=70, time=1),\n",
       "   Message('note_on', channel=0, note=55, velocity=60, time=0),\n",
       "   Message('note_on', channel=0, note=64, velocity=0, time=95),\n",
       "   Message('note_on', channel=0, note=71, velocity=0, time=0),\n",
       "   Message('note_on', channel=0, note=76, velocity=0, time=0),\n",
       "   Message('note_on', channel=0, note=81, velocity=68, time=134),\n",
       "   Message('note_on', channel=0, note=64, velocity=68, time=3),\n",
       "   Message('note_on', channel=0, note=69, velocity=72, time=0),\n",
       "   Message('note_on', channel=0, note=67, velocity=61, time=3),\n",
       "   Message('note_on', channel=0, note=55, velocity=0, time=14),\n",
       "   Message('note_on', channel=0, note=69, velocity=0, time=27),\n",
       "   Message('note_on', channel=0, note=64, velocity=0, time=12),\n",
       "   Message('note_on', channel=0, note=81, velocity=0, time=22),\n",
       "   Message('note_on', channel=0, note=67, velocity=0, time=16),\n",
       "   Message('note_on', channel=0, note=59, velocity=78, time=113),\n",
       "   Message('note_on', channel=0, note=79, velocity=61, time=3),\n",
       "   Message('note_on', channel=0, note=55, velocity=55, time=2),\n",
       "   Message('note_on', channel=0, note=67, velocity=66, time=3),\n",
       "   Message('note_on', channel=0, note=65, velocity=63, time=0),\n",
       "   Message('note_on', channel=0, note=79, velocity=0, time=2),\n",
       "   Message('note_on', channel=0, note=67, velocity=0, time=50),\n",
       "   Message('note_on', channel=0, note=65, velocity=0, time=1),\n",
       "   Message('note_on', channel=0, note=55, velocity=0, time=2),\n",
       "   Message('note_on', channel=0, note=59, velocity=0, time=3),\n",
       "   Message('note_on', channel=0, note=79, velocity=54, time=163),\n",
       "   Message('note_on', channel=0, note=67, velocity=59, time=0),\n",
       "   Message('note_on', channel=0, note=79, velocity=0, time=31),\n",
       "   Message('note_on', channel=0, note=67, velocity=0, time=4),\n",
       "   Message('note_on', channel=0, note=79, velocity=62, time=164),\n",
       "   Message('note_on', channel=0, note=67, velocity=70, time=2),\n",
       "   Message('note_on', channel=0, note=65, velocity=56, time=1),\n",
       "   Message('note_on', channel=0, note=79, velocity=0, time=28),\n",
       "   Message('note_on', channel=0, note=67, velocity=0, time=4),\n",
       "   Message('note_on', channel=0, note=65, velocity=0, time=2),\n",
       "   Message('note_on', channel=0, note=55, velocity=77, time=164),\n",
       "   Message('note_on', channel=0, note=79, velocity=65, time=6),\n",
       "   Message('note_on', channel=0, note=67, velocity=72, time=10),\n",
       "   Message('note_on', channel=0, note=65, velocity=64, time=8),\n",
       "   Message('note_on', channel=0, note=77, velocity=55, time=0),\n",
       "   Message('note_on', channel=0, note=79, velocity=0, time=36),\n",
       "   Message('note_on', channel=0, note=67, velocity=0, time=26),\n",
       "   Message('note_on', channel=0, note=65, velocity=0, time=10),\n",
       "   Message('note_on', channel=0, note=77, velocity=0, time=68),\n",
       "   Message('note_on', channel=0, note=79, velocity=57, time=69),\n",
       "   Message('note_on', channel=0, note=67, velocity=62, time=3),\n",
       "   Message('note_on', channel=0, note=65, velocity=52, time=2),\n",
       "   Message('note_on', channel=0, note=67, velocity=0, time=36),\n",
       "   Message('note_on', channel=0, note=65, velocity=0, time=9),\n",
       "   Message('note_on', channel=0, note=79, velocity=0, time=142),\n",
       "   Message('note_on', channel=0, note=79, velocity=64, time=5),\n",
       "   Message('note_on', channel=0, note=67, velocity=72, time=0),\n",
       "   Message('note_on', channel=0, note=67, velocity=0, time=42),\n",
       "   Message('note_on', channel=0, note=79, velocity=0, time=68),\n",
       "   Message('note_on', channel=0, note=60, velocity=79, time=103),\n",
       "   Message('note_on', channel=0, note=64, velocity=73, time=1),\n",
       "   Message('note_on', channel=0, note=79, velocity=71, time=0),\n",
       "   Message('note_on', channel=0, note=76, velocity=68, time=3),\n",
       "   Message('note_on', channel=0, note=67, velocity=74, time=1),\n",
       "   Message('note_on', channel=0, note=79, velocity=0, time=41),\n",
       "   Message('note_on', channel=0, note=67, velocity=0, time=1),\n",
       "   Message('note_on', channel=0, note=55, velocity=0, time=4),\n",
       "   Message('note_on', channel=0, note=64, velocity=0, time=2),\n",
       "   Message('note_on', channel=0, note=76, velocity=0, time=2),\n",
       "   Message('note_on', channel=0, note=60, velocity=0, time=62),\n",
       "   Message('note_on', channel=0, note=79, velocity=63, time=106),\n",
       "   Message('note_on', channel=0, note=67, velocity=66, time=1),\n",
       "   Message('note_on', channel=0, note=64, velocity=27, time=31),\n",
       "   Message('note_on', channel=0, note=79, velocity=0, time=7),\n",
       "   Message('note_on', channel=0, note=67, velocity=0, time=1),\n",
       "   Message('note_on', channel=0, note=64, velocity=0, time=34),\n",
       "   Message('note_on', channel=0, note=64, velocity=58, time=119),\n",
       "   Message('note_on', channel=0, note=67, velocity=67, time=2),\n",
       "   Message('note_on', channel=0, note=79, velocity=66, time=0),\n",
       "   Message('note_on', channel=0, note=79, velocity=0, time=37),\n",
       "   Message('note_on', channel=0, note=67, velocity=0, time=7),\n",
       "   Message('note_on', channel=0, note=64, velocity=0, time=4),\n",
       "   Message('note_on', channel=0, note=55, velocity=75, time=146),\n",
       "   Message('note_on', channel=0, note=79, velocity=68, time=5),\n",
       "   Message('note_on', channel=0, note=79, velocity=0, time=10),\n",
       "   Message('note_on', channel=0, note=67, velocity=76, time=4),\n",
       "   Message('note_on', channel=0, note=64, velocity=63, time=22),\n",
       "   Message('note_on', channel=0, note=64, velocity=0, time=76),\n",
       "   Message('note_on', channel=0, note=67, velocity=0, time=6),\n",
       "   Message('note_on', channel=0, note=79, velocity=59, time=103),\n",
       "   Message('note_on', channel=0, note=67, velocity=67, time=1),\n",
       "   Message('note_on', channel=0, note=64, velocity=58, time=3),\n",
       "   Message('note_on', channel=0, note=76, velocity=55, time=2),\n",
       "   Message('note_on', channel=0, note=67, velocity=0, time=63),\n",
       "   Message('note_on', channel=0, note=64, velocity=0, time=1),\n",
       "   Message('note_on', channel=0, note=79, velocity=0, time=41),\n",
       "   Message('note_on', channel=0, note=79, velocity=62, time=107),\n",
       "   Message('note_on', channel=0, note=67, velocity=67, time=4),\n",
       "   Message('note_on', channel=0, note=64, velocity=58, time=8),\n",
       "   Message('note_on', channel=0, note=64, velocity=0, time=79),\n",
       "   Message('note_on', channel=0, note=55, velocity=0, time=2),\n",
       "   Message('note_on', channel=0, note=67, velocity=0, time=3),\n",
       "   Message('note_on', channel=0, note=76, velocity=0, time=20),\n",
       "   Message('note_on', channel=0, note=79, velocity=0, time=92),\n",
       "   Message('note_on', channel=0, note=71, velocity=82, time=5),\n",
       "   Message('note_on', channel=0, note=65, velocity=76, time=1),\n",
       "   Message('note_on', channel=0, note=79, velocity=71, time=0),\n",
       "   Message('note_on', channel=0, note=62, velocity=74, time=1),\n",
       "   Message('note_on', channel=0, note=74, velocity=70, time=2),\n",
       "   Message('note_on', channel=0, note=65, velocity=0, time=82),\n",
       "   Message('note_on', channel=0, note=71, velocity=0, time=5),\n",
       "   Message('note_on', channel=0, note=74, velocity=0, time=50),\n",
       "   Message('note_on', channel=0, note=62, velocity=0, time=85),\n",
       "   Message('note_on', channel=0, note=65, velocity=68, time=8),\n",
       "   Message('note_on', channel=0, note=77, velocity=54, time=3),\n",
       "   Message('note_on', channel=0, note=71, velocity=66, time=1),\n",
       "   Message('note_on', channel=0, note=79, velocity=0, time=18),\n",
       "   Message('note_on', channel=0, note=65, velocity=0, time=21),\n",
       "   Message('note_on', channel=0, note=71, velocity=0, time=5),\n",
       "   Message('note_on', channel=0, note=77, velocity=0, time=36),\n",
       "   Message('note_on', channel=0, note=83, velocity=62, time=110),\n",
       "   Message('note_on', channel=0, note=65, velocity=70, time=1),\n",
       "   Message('note_on', channel=0, note=71, velocity=69, time=1),\n",
       "   Message('note_on', channel=0, note=77, velocity=60, time=1),\n",
       "   Message('note_on', channel=0, note=83, velocity=0, time=2),\n",
       "   Message('note_on', channel=0, note=65, velocity=0, time=35),\n",
       "   Message('note_on', channel=0, note=71, velocity=0, time=1),\n",
       "   Message('note_on', channel=0, note=77, velocity=0, time=33),\n",
       "   Message('note_on', channel=0, note=55, velocity=81, time=140),\n",
       "   Message('note_on', channel=0, note=65, velocity=77, time=13),\n",
       "   Message('note_on', channel=0, note=71, velocity=81, time=0),\n",
       "   Message('note_on', channel=0, note=77, velocity=63, time=7),\n",
       "   Message('note_on', channel=0, note=65, velocity=0, time=93),\n",
       "   Message('note_on', channel=0, note=71, velocity=0, time=4),\n",
       "   Message('note_on', channel=0, note=55, velocity=0, time=96),\n",
       "   Message('note_on', channel=0, note=77, velocity=0, time=0),\n",
       "   Message('note_on', channel=0, note=71, velocity=74, time=4),\n",
       "   Message('note_on', channel=0, note=65, velocity=68, time=1),\n",
       "   Message('note_on', channel=0, note=77, velocity=62, time=0),\n",
       "   Message('note_on', channel=0, note=55, velocity=61, time=5),\n",
       "   Message('note_on', channel=0, note=65, velocity=0, time=76),\n",
       "   Message('note_on', channel=0, note=71, velocity=0, time=22),\n",
       "   Message('note_on', channel=0, note=77, velocity=0, time=31),\n",
       "   Message('note_on', channel=0, note=55, velocity=0, time=69),\n",
       "   Message('note_on', channel=0, note=55, velocity=60, time=5),\n",
       "   Message('note_on', channel=0, note=65, velocity=70, time=1),\n",
       "   Message('note_on', channel=0, note=77, velocity=65, time=0),\n",
       "   Message('note_on', channel=0, note=71, velocity=73, time=1),\n",
       "   Message('note_on', channel=0, note=65, velocity=0, time=44),\n",
       "   Message('note_on', channel=0, note=77, velocity=0, time=49),\n",
       "   Message('note_on', channel=0, note=71, velocity=0, time=7),\n",
       "   Message('note_on', channel=0, note=55, velocity=0, time=100),\n",
       "   Message('note_on', channel=0, note=72, velocity=90, time=4),\n",
       "   Message('note_on', channel=0, note=64, velocity=86, time=1),\n",
       "   Message('note_on', channel=0, note=55, velocity=69, time=4),\n",
       "   Message('note_on', channel=0, note=60, velocity=81, time=0),\n",
       "   Message('note_on', channel=0, note=55, velocity=0, time=48),\n",
       "   Message('note_on', channel=0, note=64, velocity=0, time=48),\n",
       "   Message('note_on', channel=0, note=72, velocity=0, time=10),\n",
       "   Message('note_on', channel=0, note=60, velocity=0, time=8),\n",
       "   Message('note_on', channel=0, note=55, velocity=80, time=350),\n",
       "   Message('note_on', channel=0, note=55, velocity=0, time=72),\n",
       "   Message('note_on', channel=0, note=72, velocity=85, time=151),\n",
       "   Message('note_on', channel=0, note=64, velocity=80, time=1),\n",
       "   Message('note_on', channel=0, note=55, velocity=66, time=2),\n",
       "   Message('note_on', channel=0, note=60, velocity=72, time=2),\n",
       "   Message('note_on', channel=0, note=48, velocity=73, time=0),\n",
       "   Message('note_on', channel=0, note=55, velocity=0, time=42),\n",
       "   Message('note_on', channel=0, note=64, velocity=0, time=1),\n",
       "   Message('note_on', channel=0, note=72, velocity=0, time=63),\n",
       "   Message('note_on', channel=0, note=48, velocity=0, time=0),\n",
       "   Message('note_on', channel=0, note=60, velocity=0, time=23),\n",
       "   Message('control_change', channel=0, control=64, value=127, time=668),\n",
       "   Message('note_on', channel=0, note=79, velocity=71, time=19),\n",
       "   Message('note_on', channel=0, note=79, velocity=0, time=45),\n",
       "   Message('control_change', channel=0, control=64, value=0, time=36),\n",
       "   Message('note_on', channel=0, note=79, velocity=69, time=136),\n",
       "   Message('note_on', channel=0, note=79, velocity=0, time=37),\n",
       "   Message('note_on', channel=0, note=79, velocity=80, time=168),\n",
       "   Message('note_on', channel=0, note=79, velocity=0, time=39),\n",
       "   Message('note_on', channel=0, note=79, velocity=80, time=177),\n",
       "   Message('note_on', channel=0, note=77, velocity=82, time=5),\n",
       "   Message('note_on', channel=0, note=79, velocity=0, time=54),\n",
       "   Message('note_on', channel=0, note=77, velocity=0, time=5),\n",
       "   Message('note_on', channel=0, note=79, velocity=73, time=151),\n",
       "   Message('note_on', channel=0, note=77, velocity=74, time=5),\n",
       "   Message('note_on', channel=0, note=79, velocity=0, time=35),\n",
       "   Message('note_on', channel=0, note=77, velocity=0, time=22),\n",
       "   Message('note_on', channel=0, note=79, velocity=78, time=145),\n",
       "   Message('note_on', channel=0, note=79, velocity=0, time=25),\n",
       "   Message('note_on', channel=0, note=74, velocity=87, time=179),\n",
       "   Message('note_on', channel=0, note=79, velocity=89, time=4),\n",
       "   Message('note_on', channel=0, note=77, velocity=82, time=7),\n",
       "   Message('note_on', channel=0, note=79, velocity=0, time=49),\n",
       "   Message('note_on', channel=0, note=77, velocity=0, time=15),\n",
       "   Message('note_on', channel=0, note=79, velocity=79, time=149),\n",
       "   Message('note_on', channel=0, note=76, velocity=49, time=23),\n",
       "   Message('note_on', channel=0, note=77, velocity=55, time=4),\n",
       "   Message('note_on', channel=0, note=76, velocity=0, time=2),\n",
       "   Message('note_on', channel=0, note=79, velocity=0, time=7),\n",
       "   Message('note_on', channel=0, note=77, velocity=0, time=54),\n",
       "   Message('note_on', channel=0, note=79, velocity=75, time=123),\n",
       "   Message('note_on', channel=0, note=77, velocity=62, time=12),\n",
       "   Message('note_on', channel=0, note=79, velocity=0, time=22),\n",
       "   Message('note_on', channel=0, note=77, velocity=0, time=21),\n",
       "   Message('note_on', channel=0, note=79, velocity=76, time=163),\n",
       "   Message('note_on', channel=0, note=76, velocity=58, time=5),\n",
       "   Message('note_on', channel=0, note=77, velocity=69, time=1),\n",
       "   Message('note_on', channel=0, note=71, velocity=59, time=4),\n",
       "   Message('note_on', channel=0, note=77, velocity=0, time=76),\n",
       "   Message('note_on', channel=0, note=71, velocity=0, time=7),\n",
       "   Message('note_on', channel=0, note=76, velocity=0, time=4),\n",
       "   Message('note_on', channel=0, note=79, velocity=0, time=0),\n",
       "   Message('note_on', channel=0, note=74, velocity=0, time=8),\n",
       "   Message('note_on', channel=0, note=79, velocity=63, time=108),\n",
       "   Message('note_on', channel=0, note=77, velocity=53, time=5),\n",
       "   Message('note_on', channel=0, note=76, velocity=43, time=4),\n",
       "   Message('note_on', channel=0, note=79, velocity=0, time=22),\n",
       "   Message('note_on', channel=0, note=77, velocity=0, time=19),\n",
       "   Message('note_on', channel=0, note=76, velocity=0, time=18),\n",
       "   Message('note_on', channel=0, note=79, velocity=75, time=134),\n",
       "   Message('note_on', channel=0, note=77, velocity=68, time=5),\n",
       "   Message('note_on', channel=0, note=79, velocity=0, time=28),\n",
       "   Message('note_on', channel=0, note=77, velocity=0, time=11),\n",
       "   Message('note_on', channel=0, note=79, velocity=64, time=196),\n",
       "   Message('note_on', channel=0, note=67, velocity=74, time=1),\n",
       "   Message('note_on', channel=0, note=67, velocity=0, time=37),\n",
       "   Message('note_on', channel=0, note=79, velocity=0, time=3),\n",
       "   Message('note_on', channel=0, note=79, velocity=64, time=159),\n",
       "   Message('note_on', channel=0, note=67, velocity=73, time=1),\n",
       "   Message('note_on', channel=0, note=67, velocity=0, time=43),\n",
       "   Message('note_on', channel=0, note=79, velocity=0, time=12),\n",
       "   Message('note_on', channel=0, note=79, velocity=60, time=141),\n",
       "   Message('note_on', channel=0, note=67, velocity=64, time=0),\n",
       "   Message('note_on', channel=0, note=67, velocity=0, time=43),\n",
       "   Message('note_on', channel=0, note=79, velocity=0, time=31),\n",
       "   Message('note_on', channel=0, note=79, velocity=69, time=135),\n",
       "   Message('note_on', channel=0, note=67, velocity=79, time=3),\n",
       "   Message('note_on', channel=0, note=77, velocity=49, time=22),\n",
       "   Message('note_on', channel=0, note=65, velocity=59, time=4),\n",
       "   Message('note_on', channel=0, note=77, velocity=0, time=5),\n",
       "   Message('note_on', channel=0, note=65, velocity=0, time=38),\n",
       "   Message('note_on', channel=0, note=67, velocity=0, time=37),\n",
       "   Message('note_on', channel=0, note=79, velocity=0, time=17),\n",
       "   Message('note_on', channel=0, note=79, velocity=66, time=96),\n",
       "   Message('note_on', channel=0, note=67, velocity=73, time=1),\n",
       "   Message('note_on', channel=0, note=65, velocity=54, time=21),\n",
       "   Message('note_on', channel=0, note=77, velocity=47, time=0),\n",
       "   Message('note_on', channel=0, note=79, velocity=0, time=26),\n",
       "   Message('note_on', channel=0, note=67, velocity=0, time=6),\n",
       "   Message('note_on', channel=0, note=65, velocity=0, time=7),\n",
       "   Message('note_on', channel=0, note=77, velocity=0, time=27),\n",
       "   Message('note_on', channel=0, note=79, velocity=69, time=118),\n",
       "   Message('note_on', channel=0, note=67, velocity=76, time=1),\n",
       "   Message('note_on', channel=0, note=77, velocity=46, time=18),\n",
       "   Message('note_on', channel=0, note=65, velocity=53, time=6),\n",
       "   Message('note_on', channel=0, note=65, velocity=0, time=38),\n",
       "   Message('note_on', channel=0, note=67, velocity=0, time=0),\n",
       "   Message('note_on', channel=0, note=79, velocity=0, time=11),\n",
       "   Message('note_on', channel=0, note=77, velocity=0, time=16),\n",
       "   Message('note_on', channel=0, note=62, velocity=80, time=133),\n",
       "   Message('note_on', channel=0, note=74, velocity=70, time=1),\n",
       "   Message('note_on', channel=0, note=79, velocity=78, time=1),\n",
       "   Message('note_on', channel=0, note=67, velocity=83, time=1),\n",
       "   Message('note_on', channel=0, note=65, velocity=68, time=3),\n",
       "   Message('note_on', channel=0, note=74, velocity=0, time=61),\n",
       "   Message('note_on', channel=0, note=79, velocity=0, time=7),\n",
       "   Message('note_on', channel=0, note=65, velocity=0, time=4),\n",
       "   Message('note_on', channel=0, note=67, velocity=0, time=25),\n",
       "   Message('note_on', channel=0, note=79, velocity=61, time=129),\n",
       "   Message('note_on', channel=0, note=67, velocity=68, time=1),\n",
       "   Message('note_on', channel=0, note=65, velocity=40, time=37),\n",
       "   Message('note_on', channel=0, note=67, velocity=0, time=8),\n",
       "   Message('note_on', channel=0, note=79, velocity=0, time=27),\n",
       "   Message('note_on', channel=0, note=65, velocity=0, time=4),\n",
       "   Message('note_on', channel=0, note=79, velocity=70, time=131),\n",
       "   Message('note_on', channel=0, note=67, velocity=79, time=2),\n",
       "   Message('note_on', channel=0, note=65, velocity=46, time=28),\n",
       "   Message('note_on', channel=0, note=67, velocity=0, time=37),\n",
       "   Message('note_on', channel=0, note=79, velocity=0, time=13),\n",
       "   Message('note_on', channel=0, note=65, velocity=0, time=6),\n",
       "   Message('note_on', channel=0, note=79, velocity=67, time=136),\n",
       "   Message('note_on', channel=0, note=59, velocity=72, time=2),\n",
       "   Message('note_on', channel=0, note=67, velocity=77, time=1),\n",
       "   Message('note_on', channel=0, note=65, velocity=56, time=12),\n",
       "   Message('note_on', channel=0, note=65, velocity=0, time=81),\n",
       "   Message('note_on', channel=0, note=79, velocity=0, time=0),\n",
       "   Message('note_on', channel=0, note=67, velocity=0, time=15),\n",
       "   Message('note_on', channel=0, note=62, velocity=0, time=11),\n",
       "   Message('note_on', channel=0, note=79, velocity=65, time=101),\n",
       "   Message('note_on', channel=0, note=67, velocity=71, time=2),\n",
       "   Message('note_on', channel=0, note=65, velocity=45, time=41),\n",
       "   Message('note_on', channel=0, note=67, velocity=0, time=33),\n",
       "   Message('note_on', channel=0, note=65, velocity=0, time=13),\n",
       "   Message('note_on', channel=0, note=79, velocity=0, time=22),\n",
       "   Message('note_on', channel=0, note=79, velocity=60, time=102),\n",
       "   Message('note_on', channel=0, note=67, velocity=66, time=2),\n",
       "   Message('note_on', channel=0, note=65, velocity=52, time=5),\n",
       "   Message('note_on', channel=0, note=77, velocity=51, time=1),\n",
       "   Message('note_on', channel=0, note=55, velocity=41, time=0),\n",
       "   Message('note_on', channel=0, note=55, velocity=0, time=5),\n",
       "   Message('note_on', channel=0, note=77, velocity=0, time=0),\n",
       "   Message('note_on', channel=0, note=67, velocity=0, time=57),\n",
       "   Message('note_on', channel=0, note=65, velocity=0, time=6),\n",
       "   Message('note_on', channel=0, note=79, velocity=0, time=75),\n",
       "   Message('note_on', channel=0, note=64, velocity=65, time=111),\n",
       "   Message('note_on', channel=0, note=76, velocity=56, time=5),\n",
       "   Message('note_on', channel=0, note=60, velocity=61, time=21),\n",
       "   Message('note_on', channel=0, note=72, velocity=52, time=1),\n",
       "   Message('note_on', channel=0, note=72, velocity=0, time=8),\n",
       "   Message('control_change', channel=0, control=64, value=127, time=0),\n",
       "   Message('note_on', channel=0, note=59, velocity=0, time=17),\n",
       "   Message('note_on', channel=0, note=60, velocity=0, time=83),\n",
       "   Message('control_change', channel=0, control=64, value=0, time=8),\n",
       "   Message('note_on', channel=0, note=64, velocity=0, time=26),\n",
       "   Message('note_on', channel=0, note=76, velocity=0, time=4),\n",
       "   Message('note_on', channel=0, note=55, velocity=77, time=526),\n",
       "   Message('note_on', channel=0, note=48, velocity=85, time=107),\n",
       "   Message('note_on', channel=0, note=60, velocity=81, time=2),\n",
       "   Message('note_on', channel=0, note=55, velocity=0, time=47),\n",
       "   Message('note_on', channel=0, note=48, velocity=0, time=37),\n",
       "   Message('note_on', channel=0, note=60, velocity=0, time=0),\n",
       "   Message('note_on', channel=0, note=71, velocity=83, time=4009),\n",
       "   Message('note_on', channel=0, note=55, velocity=73, time=0),\n",
       "   Message('note_on', channel=0, note=67, velocity=78, time=2),\n",
       "   Message('note_on', channel=0, note=71, velocity=0, time=124),\n",
       "   Message('note_on', channel=0, note=55, velocity=0, time=8),\n",
       "   Message('note_on', channel=0, note=67, velocity=0, time=8),\n",
       "   Message('note_on', channel=0, note=71, velocity=78, time=79),\n",
       "   Message('note_on', channel=0, note=55, velocity=62, time=1),\n",
       "   Message('note_on', channel=0, note=67, velocity=71, time=2),\n",
       "   Message('note_on', channel=0, note=62, velocity=66, time=8),\n",
       "   Message('note_on', channel=0, note=55, velocity=0, time=111),\n",
       "   Message('note_on', channel=0, note=71, velocity=0, time=8),\n",
       "   Message('note_on', channel=0, note=62, velocity=0, time=105),\n",
       "   Message('note_on', channel=0, note=67, velocity=0, time=0),\n",
       "   Message('note_on', channel=0, note=59, velocity=78, time=6),\n",
       "   Message('note_on', channel=0, note=67, velocity=77, time=4),\n",
       "   Message('note_on', channel=0, note=71, velocity=82, time=0),\n",
       "   Message('note_on', channel=0, note=62, velocity=64, time=2),\n",
       "   Message('note_on', channel=0, note=62, velocity=0, time=104),\n",
       "   Message('note_on', channel=0, note=59, velocity=0, time=53),\n",
       "   Message('note_on', channel=0, note=62, velocity=61, time=82),\n",
       "   Message('note_on', channel=0, note=59, velocity=56, time=4),\n",
       "   Message('note_on', channel=0, note=59, velocity=0, time=76),\n",
       "   Message('note_on', channel=0, note=71, velocity=0, time=0),\n",
       "   Message('note_on', channel=0, note=67, velocity=0, time=5),\n",
       "   Message('note_on', channel=0, note=62, velocity=0, time=125),\n",
       "   Message('note_on', channel=0, note=55, velocity=66, time=6),\n",
       "   Message('note_on', channel=0, note=71, velocity=79, time=3),\n",
       "   Message('note_on', channel=0, note=62, velocity=59, time=1),\n",
       "   Message('note_on', channel=0, note=67, velocity=73, time=0),\n",
       "   Message('note_on', channel=0, note=71, velocity=0, time=90),\n",
       "   Message('note_on', channel=0, note=62, velocity=0, time=24),\n",
       "   Message('note_on', channel=0, note=55, velocity=0, time=10),\n",
       "   Message('note_on', channel=0, note=67, velocity=0, time=6),\n",
       "   Message('note_on', channel=0, note=55, velocity=60, time=106),\n",
       "   Message('note_on', channel=0, note=62, velocity=66, time=2),\n",
       "   Message('note_on', channel=0, note=71, velocity=80, time=2),\n",
       "   Message('note_on', channel=0, note=67, velocity=73, time=0),\n",
       "   Message('note_on', channel=0, note=79, velocity=74, time=0),\n",
       "   Message('note_on', channel=0, note=79, velocity=0, time=42),\n",
       "   Message('note_on', channel=0, note=71, velocity=0, time=70),\n",
       "   Message('note_on', channel=0, note=67, velocity=0, time=8),\n",
       "   Message('note_on', channel=0, note=55, velocity=0, time=7),\n",
       "   Message('note_on', channel=0, note=59, velocity=76, time=109),\n",
       "   Message('note_on', channel=0, note=55, velocity=62, time=0),\n",
       "   Message('note_on', channel=0, note=71, velocity=83, time=2),\n",
       "   Message('note_on', channel=0, note=67, velocity=77, time=1),\n",
       "   Message('note_on', channel=0, note=62, velocity=0, time=106),\n",
       "   Message('note_on', channel=0, note=59, velocity=0, time=127),\n",
       "   Message('note_on', channel=0, note=62, velocity=68, time=3),\n",
       "   Message('note_on', channel=0, note=59, velocity=58, time=1),\n",
       "   Message('note_on', channel=0, note=59, velocity=0, time=62),\n",
       "   Message('note_on', channel=0, note=55, velocity=0, time=49),\n",
       "   Message('note_on', channel=0, note=67, velocity=0, time=11),\n",
       "   Message('note_on', channel=0, note=71, velocity=0, time=25),\n",
       "   Message('note_on', channel=0, note=62, velocity=0, time=80),\n",
       "   Message('note_on', channel=0, note=71, velocity=80, time=4),\n",
       "   Message('note_on', channel=0, note=79, velocity=75, time=0),\n",
       "   Message('note_on', channel=0, note=55, velocity=69, time=0),\n",
       "   Message('note_on', channel=0, note=67, velocity=77, time=1),\n",
       "   Message('note_on', channel=0, note=62, velocity=65, time=1),\n",
       "   Message('note_on', channel=0, note=79, velocity=0, time=70),\n",
       "   Message('note_on', channel=0, note=62, velocity=0, time=50),\n",
       "   Message('note_on', channel=0, note=55, velocity=0, time=119),\n",
       "   Message('note_on', channel=0, note=74, velocity=86, time=3),\n",
       "   Message('note_on', channel=0, note=62, velocity=66, time=5),\n",
       "   Message('note_on', channel=0, note=55, velocity=57, time=3),\n",
       "   Message('note_on', channel=0, note=71, velocity=0, time=31),\n",
       "   Message('note_on', channel=0, note=55, velocity=0, time=41),\n",
       "   Message('note_on', channel=0, note=67, velocity=0, time=2),\n",
       "   Message('note_on', channel=0, note=74, velocity=0, time=92),\n",
       "   Message('note_on', channel=0, note=62, velocity=0, time=54),\n",
       "   Message('note_on', channel=0, note=79, velocity=73, time=4),\n",
       "   Message('note_on', channel=0, note=67, velocity=85, time=1),\n",
       "   Message('note_on', channel=0, note=59, velocity=74, time=2),\n",
       "   Message('note_on', channel=0, note=62, velocity=62, time=3),\n",
       "   Message('note_on', channel=0, note=79, velocity=0, time=90),\n",
       "   Message('note_on', channel=0, note=62, velocity=0, time=38),\n",
       "   Message('note_on', channel=0, note=59, velocity=0, time=92),\n",
       "   Message('note_on', channel=0, note=81, velocity=73, time=10),\n",
       "   Message('note_on', channel=0, note=62, velocity=66, time=1),\n",
       "   Message('note_on', channel=0, note=59, velocity=62, time=0),\n",
       "   Message('note_on', channel=0, note=69, velocity=79, time=1),\n",
       "   Message('note_on', channel=0, note=59, velocity=0, time=57),\n",
       "   Message('note_on', channel=0, note=67, velocity=0, time=4),\n",
       "   Message('note_on', channel=0, note=81, velocity=0, time=142),\n",
       "   Message('note_on', channel=0, note=62, velocity=0, time=39),\n",
       "   Message('note_on', channel=0, note=71, velocity=78, time=6),\n",
       "   Message('note_on', channel=0, note=59, velocity=55, time=1),\n",
       "   Message('note_on', channel=0, note=55, velocity=61, time=2),\n",
       "   Message('note_on', channel=0, note=79, velocity=70, time=0),\n",
       "   Message('note_on', channel=0, note=62, velocity=60, time=1),\n",
       "   Message('note_on', channel=0, note=67, velocity=70, time=1),\n",
       "   Message('note_on', channel=0, note=59, velocity=0, time=4),\n",
       "   Message('note_on', channel=0, note=69, velocity=0, time=27),\n",
       "   Message('note_on', channel=0, note=79, velocity=0, time=42),\n",
       "   Message('note_on', channel=0, note=62, velocity=0, time=18),\n",
       "   Message('note_on', channel=0, note=55, velocity=0, time=143),\n",
       "   Message('note_on', channel=0, note=67, velocity=0, time=0),\n",
       "   Message('note_on', channel=0, note=74, velocity=48, time=5),\n",
       "   Message('note_on', channel=0, note=62, velocity=58, time=0),\n",
       "   Message('note_on', channel=0, note=55, velocity=47, time=3),\n",
       "   Message('note_on', channel=0, note=67, velocity=50, time=3),\n",
       "   Message('control_change', channel=0, control=64, value=127, time=58),\n",
       "   Message('note_on', channel=0, note=71, velocity=0, time=169),\n",
       "   Message('note_on', channel=0, note=59, velocity=66, time=7),\n",
       "   Message('note_on', channel=0, note=71, velocity=54, time=2),\n",
       "   Message('note_on', channel=0, note=55, velocity=0, time=14),\n",
       "   Message('note_on', channel=0, note=62, velocity=0, time=82),\n",
       "   Message('note_on', channel=0, note=74, velocity=0, time=18),\n",
       "   Message('control_change', channel=0, control=64, value=0, time=31),\n",
       "   Message('note_on', channel=0, note=71, velocity=0, time=63),\n",
       "   Message('note_on', channel=0, note=67, velocity=0, time=6),\n",
       "   Message('note_on', channel=0, note=62, velocity=54, time=14),\n",
       "   Message('note_on', channel=0, note=74, velocity=45, time=1),\n",
       "   Message('note_on', channel=0, note=59, velocity=0, time=0),\n",
       "   Message('note_on', channel=0, note=59, velocity=47, time=4),\n",
       "   Message('note_on', channel=0, note=59, velocity=0, time=54),\n",
       "   Message('note_on', channel=0, note=72, velocity=80, time=172),\n",
       "   Message('note_on', channel=0, note=69, velocity=73, time=4),\n",
       "   Message('note_on', channel=0, note=60, velocity=47, time=1),\n",
       "   Message('note_on', channel=0, note=57, velocity=60, time=2),\n",
       "   Message('note_on', channel=0, note=74, velocity=0, time=11),\n",
       "   Message('control_change', channel=0, control=64, value=127, time=21),\n",
       "   Message('note_on', channel=0, note=62, velocity=0, time=81),\n",
       "   Message('note_on', channel=0, note=69, velocity=0, time=42),\n",
       "   Message('note_on', channel=0, note=72, velocity=0, time=10),\n",
       "   Message('control_change', channel=0, control=64, value=0, time=5),\n",
       "   Message('note_on', channel=0, note=60, velocity=0, time=16),\n",
       "   Message('note_on', channel=0, note=57, velocity=0, time=8),\n",
       "   Message('note_on', channel=0, note=57, velocity=45, time=9),\n",
       "   Message('note_on', channel=0, note=62, velocity=58, time=19),\n",
       "   Message('note_on', channel=0, note=69, velocity=71, time=7),\n",
       "   Message('note_on', channel=0, note=72, velocity=76, time=2),\n",
       "   Message('note_on', channel=0, note=57, velocity=0, time=26),\n",
       "   Message('control_change', channel=0, control=64, value=127, time=29),\n",
       "   Message('note_on', channel=0, note=69, velocity=0, time=83),\n",
       "   Message('control_change', channel=0, control=64, value=0, time=5),\n",
       "   Message('note_on', channel=0, note=72, velocity=0, time=9),\n",
       "   Message('note_on', channel=0, note=72, velocity=77, time=77),\n",
       "   Message('note_on', channel=0, note=60, velocity=75, time=1),\n",
       "   Message('note_on', channel=0, note=69, velocity=78, time=4),\n",
       "   Message('control_change', channel=0, control=64, value=127, time=51),\n",
       "   Message('note_on', channel=0, note=62, velocity=0, time=74),\n",
       "   Message('control_change', channel=0, control=64, value=0, time=15),\n",
       "   Message('note_on', channel=0, note=69, velocity=0, time=19),\n",
       "   Message('note_on', channel=0, note=72, velocity=0, time=2),\n",
       "   Message('note_on', channel=0, note=60, velocity=0, time=59),\n",
       "   Message('note_on', channel=0, note=62, velocity=67, time=4),\n",
       "   Message('note_on', channel=0, note=50, velocity=61, time=1),\n",
       "   Message('note_on', channel=0, note=69, velocity=75, time=1),\n",
       "   Message('note_on', channel=0, note=72, velocity=78, time=0),\n",
       "   Message('note_on', channel=0, note=60, velocity=62, time=1),\n",
       "   Message('note_on', channel=0, note=72, velocity=0, time=28),\n",
       "   Message('note_on', channel=0, note=60, velocity=0, time=19),\n",
       "   Message('note_on', channel=0, note=50, velocity=0, time=31),\n",
       "   Message('note_on', channel=0, note=69, velocity=0, time=35),\n",
       "   Message('note_on', channel=0, note=72, velocity=77, time=123),\n",
       "   Message('note_on', channel=0, note=55, velocity=70, time=4),\n",
       "   Message('note_on', channel=0, note=69, velocity=76, time=1),\n",
       "   Message('note_on', channel=0, note=48, velocity=58, time=1),\n",
       "   Message('note_on', channel=0, note=48, velocity=0, time=4),\n",
       "   Message('note_on', channel=0, note=72, velocity=0, time=70),\n",
       "   Message('note_on', channel=0, note=55, velocity=0, time=7),\n",
       "   Message('control_change', channel=0, control=64, value=127, time=62),\n",
       "   Message('control_change', channel=0, control=64, value=0, time=69),\n",
       "   Message('note_on', channel=0, note=55, velocity=63, time=15),\n",
       "   Message('note_on', channel=0, note=67, velocity=70, time=1),\n",
       "   Message('note_on', channel=0, note=71, velocity=76, time=1),\n",
       "   Message('note_on', channel=0, note=62, velocity=0, time=67),\n",
       "   Message('note_on', channel=0, note=69, velocity=0, time=8),\n",
       "   Message('note_on', channel=0, note=55, velocity=0, time=35),\n",
       "   Message('note_on', channel=0, note=67, velocity=0, time=5),\n",
       "   Message('note_on', channel=0, note=71, velocity=0, time=2),\n",
       "   Message('note_on', channel=0, note=55, velocity=66, time=116),\n",
       "   Message('note_on', channel=0, note=79, velocity=77, time=4),\n",
       "   Message('note_on', channel=0, note=71, velocity=82, time=1),\n",
       "   Message('note_on', channel=0, note=67, velocity=76, time=2),\n",
       "   Message('control_change', channel=0, control=64, value=127, time=12),\n",
       "   Message('note_on', channel=0, note=55, velocity=0, time=14),\n",
       "   Message('control_change', channel=0, control=64, value=0, time=125),\n",
       "   Message('note_on', channel=0, note=71, velocity=0, time=68),\n",
       "   Message('control_change', channel=0, control=64, value=127, time=0),\n",
       "   Message('note_on', channel=0, note=62, velocity=70, time=2),\n",
       "   Message('note_on', channel=0, note=74, velocity=62, time=1),\n",
       "   Message('note_on', channel=0, note=71, velocity=56, time=4),\n",
       "   Message('note_on', channel=0, note=62, velocity=0, time=45),\n",
       "   Message('note_on', channel=0, note=71, velocity=0, time=86),\n",
       "   Message('note_on', channel=0, note=62, velocity=61, time=2),\n",
       "   Message('note_on', channel=0, note=59, velocity=54, time=1),\n",
       "   Message('note_on', channel=0, note=71, velocity=54, time=1),\n",
       "   Message('note_on', channel=0, note=62, velocity=0, time=50),\n",
       "   Message('note_on', channel=0, note=71, velocity=0, time=1),\n",
       "   Message('note_on', channel=0, note=67, velocity=0, time=5),\n",
       "   Message('control_change', channel=0, control=64, value=0, time=3),\n",
       "   Message('note_on', channel=0, note=74, velocity=0, time=14),\n",
       "   Message('note_on', channel=0, note=79, velocity=0, time=0),\n",
       "   Message('note_on', channel=0, note=59, velocity=0, time=23),\n",
       "   Message('note_on', channel=0, note=79, velocity=80, time=36),\n",
       "   Message('note_on', channel=0, note=67, velocity=75, time=3),\n",
       "   Message('note_on', channel=0, note=71, velocity=81, time=0),\n",
       "   Message('note_on', channel=0, note=55, velocity=67, time=1),\n",
       "   Message('note_on', channel=0, note=61, velocity=73, time=8),\n",
       "   Message('note_on', channel=0, note=52, velocity=59, time=2),\n",
       "   Message('note_on', channel=0, note=52, velocity=0, time=4),\n",
       "   Message('note_on', channel=0, note=57, velocity=66, time=5),\n",
       "   Message('note_on', channel=0, note=69, velocity=63, time=0),\n",
       "   Message('note_on', channel=0, note=57, velocity=0, time=218),\n",
       "   Message('note_on', channel=0, note=69, velocity=0, time=0),\n",
       "   Message('note_on', channel=0, note=71, velocity=0, time=0),\n",
       "   Message('note_on', channel=0, note=57, velocity=52, time=4),\n",
       "   Message('note_on', channel=0, note=69, velocity=78, time=1),\n",
       "   Message('note_on', channel=0, note=71, velocity=65, time=4),\n",
       "   Message('note_on', channel=0, note=71, velocity=0, time=71),\n",
       "   Message('note_on', channel=0, note=69, velocity=0, time=9),\n",
       "   Message('note_on', channel=0, note=79, velocity=0, time=64),\n",
       "   Message('note_on', channel=0, note=57, velocity=0, time=69),\n",
       "   Message('note_on', channel=0, note=61, velocity=0, time=0),\n",
       "   Message('note_on', channel=0, note=57, velocity=50, time=6),\n",
       "   Message('note_on', channel=0, note=61, velocity=53, time=2),\n",
       "   Message('note_on', channel=0, note=81, velocity=67, time=2),\n",
       "   Message('note_on', channel=0, note=69, velocity=72, time=1),\n",
       "   Message('note_on', channel=0, note=67, velocity=0, time=29),\n",
       "   Message('note_on', channel=0, note=61, velocity=0, time=206),\n",
       "   Message('note_on', channel=0, note=71, velocity=75, time=6),\n",
       "   Message('note_on', channel=0, note=61, velocity=48, time=2),\n",
       "   Message('note_on', channel=0, note=81, velocity=0, time=15),\n",
       "   Message('note_on', channel=0, note=69, velocity=0, time=29),\n",
       "   Message('note_on', channel=0, note=57, velocity=0, time=48),\n",
       "   Message('note_on', channel=0, note=55, velocity=0, time=77),\n",
       "   Message('note_on', channel=0, note=78, velocity=75, time=74),\n",
       "   Message('note_on', channel=0, note=81, velocity=69, time=2),\n",
       "   Message('note_on', channel=0, note=66, velocity=81, time=2),\n",
       "   Message('note_on', channel=0, note=69, velocity=76, time=2),\n",
       "   Message('note_on', channel=0, note=74, velocity=64, time=7),\n",
       "   Message('note_on', channel=0, note=62, velocity=66, time=1),\n",
       "   Message('note_on', channel=0, note=74, velocity=0, time=12),\n",
       "   Message('note_on', channel=0, note=71, velocity=0, time=2),\n",
       "   Message('note_on', channel=0, note=61, velocity=0, time=6),\n",
       "   Message('note_on', channel=0, note=81, velocity=0, time=99),\n",
       "   Message('note_on', channel=0, note=60, velocity=67, time=127),\n",
       "   Message('note_on', channel=0, note=62, velocity=0, time=68),\n",
       "   Message('note_on', channel=0, note=78, velocity=0, time=28),\n",
       "   Message('note_on', channel=0, note=59, velocity=73, time=153),\n",
       "   Message('note_on', channel=0, note=74, velocity=82, time=3),\n",
       "   Message('note_on', channel=0, note=60, velocity=0, time=47),\n",
       "   Message('note_on', channel=0, note=69, velocity=0, time=31),\n",
       "   Message('note_on', channel=0, note=57, velocity=67, time=145),\n",
       "   Message('note_on', channel=0, note=59, velocity=0, time=47),\n",
       "   Message('note_on', channel=0, note=66, velocity=0, time=16),\n",
       "   Message('note_on', channel=0, note=79, velocity=74, time=161),\n",
       "   Message('note_on', channel=0, note=67, velocity=78, time=3),\n",
       "   Message('note_on', channel=0, note=74, velocity=0, time=0),\n",
       "   Message('note_on', channel=0, note=55, velocity=70, time=4),\n",
       "   Message('note_on', channel=0, note=59, velocity=55, time=0),\n",
       "   Message('note_on', channel=0, note=74, velocity=64, time=1),\n",
       "   Message('note_on', channel=0, note=71, velocity=72, time=1),\n",
       "   Message('note_on', channel=0, note=57, velocity=0, time=30),\n",
       "   Message('note_on', channel=0, note=74, velocity=0, time=22),\n",
       "   Message('note_on', channel=0, note=55, velocity=0, time=0),\n",
       "   Message('note_on', channel=0, note=79, velocity=0, time=6),\n",
       "   Message('note_on', channel=0, note=67, velocity=0, time=0),\n",
       "   Message('note_on', channel=0, note=71, velocity=0, time=36),\n",
       "   Message('note_on', channel=0, note=59, velocity=0, time=8),\n",
       "   Message('note_on', channel=0, note=55, velocity=58, time=145),\n",
       "   Message('note_on', channel=0, note=59, velocity=61, time=2),\n",
       "   Message('note_on', channel=0, note=74, velocity=59, time=0),\n",
       "   Message('note_on', channel=0, note=71, velocity=69, time=1),\n",
       "   Message('note_on', channel=0, note=62, velocity=67, time=1),\n",
       "   Message('note_on', channel=0, note=79, velocity=63, time=0),\n",
       "   Message('note_on', channel=0, note=79, velocity=0, time=5),\n",
       "   Message('note_on', channel=0, note=67, velocity=57, time=0),\n",
       "   Message('note_on', channel=0, note=67, velocity=0, time=7),\n",
       "   Message('note_on', channel=0, note=71, velocity=0, time=28),\n",
       "   Message('note_on', channel=0, note=55, velocity=0, time=7),\n",
       "   Message('note_on', channel=0, note=59, velocity=0, time=19),\n",
       "   Message('note_on', channel=0, note=74, velocity=0, time=46),\n",
       "   Message('note_on', channel=0, note=71, velocity=82, time=119),\n",
       "   Message('note_on', channel=0, note=62, velocity=0, time=4),\n",
       "   Message('note_on', channel=0, note=79, velocity=70, time=2),\n",
       "   Message('note_on', channel=0, note=67, velocity=71, time=3),\n",
       "   Message('note_on', channel=0, note=62, velocity=52, time=1),\n",
       "   Message('note_on', channel=0, note=59, velocity=60, time=3),\n",
       "   Message('note_on', channel=0, note=79, velocity=0, time=52),\n",
       "   Message('note_on', channel=0, note=62, velocity=0, time=52),\n",
       "   Message('note_on', channel=0, note=59, velocity=0, time=33),\n",
       "   Message('note_on', channel=0, note=71, velocity=0, time=84),\n",
       "   Message('note_on', channel=0, note=74, velocity=55, time=5),\n",
       "   Message('note_on', channel=0, note=62, velocity=65, time=2),\n",
       "   Message('note_on', channel=0, note=59, velocity=54, time=3),\n",
       "   Message('note_on', channel=0, note=71, velocity=57, time=1),\n",
       "   Message('note_on', channel=0, note=59, velocity=0, time=56),\n",
       "   Message('note_on', channel=0, note=71, velocity=0, time=7),\n",
       "   Message('note_on', channel=0, note=67, velocity=0, time=10),\n",
       "   Message('note_on', channel=0, note=62, velocity=0, time=139),\n",
       "   Message('note_on', channel=0, note=71, velocity=84, time=3),\n",
       "   Message('note_on', channel=0, note=55, velocity=60, time=0),\n",
       "   Message('note_on', channel=0, note=59, velocity=59, time=1),\n",
       "   Message('note_on', channel=0, note=79, velocity=75, time=1),\n",
       "   Message('note_on', channel=0, note=62, velocity=60, time=1),\n",
       "   Message('note_on', channel=0, note=67, velocity=72, time=5),\n",
       "   Message('note_on', channel=0, note=74, velocity=0, time=58),\n",
       "   Message('note_on', channel=0, note=79, velocity=0, time=0),\n",
       "   Message('note_on', channel=0, note=67, velocity=0, time=29),\n",
       "   Message('note_on', channel=0, note=62, velocity=0, time=2),\n",
       "   Message('note_on', channel=0, note=55, velocity=0, time=4),\n",
       "   Message('note_on', channel=0, note=71, velocity=0, time=30),\n",
       "   Message('note_on', channel=0, note=59, velocity=0, time=4),\n",
       "   Message('note_on', channel=0, note=55, velocity=59, time=104),\n",
       "   Message('note_on', channel=0, note=71, velocity=80, time=0),\n",
       "   Message('note_on', channel=0, note=59, velocity=58, time=1),\n",
       "   Message('note_on', channel=0, note=67, velocity=73, time=2),\n",
       "   Message('note_on', channel=0, note=79, velocity=73, time=0),\n",
       "   Message('note_on', channel=0, note=62, velocity=62, time=3),\n",
       "   Message('note_on', channel=0, note=79, velocity=0, time=44),\n",
       "   Message('note_on', channel=0, note=67, velocity=0, time=21),\n",
       "   Message('note_on', channel=0, note=71, velocity=0, time=25),\n",
       "   Message('note_on', channel=0, note=59, velocity=0, time=23),\n",
       "   Message('note_on', channel=0, note=55, velocity=0, time=23),\n",
       "   Message('note_on', channel=0, note=71, velocity=81, time=88),\n",
       "   Message('note_on', channel=0, note=62, velocity=0, time=4),\n",
       "   Message('note_on', channel=0, note=79, velocity=73, time=3),\n",
       "   Message('note_on', channel=0, note=62, velocity=55, time=2),\n",
       "   Message('note_on', channel=0, note=67, velocity=72, time=1),\n",
       "   Message('note_on', channel=0, note=59, velocity=64, time=3),\n",
       "   Message('note_on', channel=0, note=62, velocity=0, time=105),\n",
       "   Message('note_on', channel=0, note=59, velocity=0, time=32),\n",
       "   Message('note_on', channel=0, note=79, velocity=0, time=46),\n",
       "   Message('note_on', channel=0, note=62, velocity=63, time=44),\n",
       "   Message('note_on', channel=0, note=59, velocity=54, time=1),\n",
       "   Message('note_on', channel=0, note=74, velocity=50, time=0),\n",
       "   Message('note_on', channel=0, note=59, velocity=0, time=60),\n",
       "   Message('note_on', channel=0, note=71, velocity=0, time=3),\n",
       "   Message('note_on', channel=0, note=67, velocity=0, time=2),\n",
       "   Message('note_on', channel=0, note=62, velocity=0, time=159),\n",
       "   Message('note_on', channel=0, note=71, velocity=82, time=2),\n",
       "   Message('note_on', channel=0, note=79, velocity=75, time=4),\n",
       "   Message('note_on', channel=0, note=59, velocity=58, time=1),\n",
       "   Message('note_on', channel=0, note=62, velocity=59, time=3),\n",
       "   Message('note_on', channel=0, note=67, velocity=78, time=1),\n",
       "   Message('note_on', channel=0, note=55, velocity=67, time=0),\n",
       "   Message('note_on', channel=0, note=74, velocity=0, time=135),\n",
       "   Message('note_on', channel=0, note=62, velocity=0, time=14),\n",
       "   Message('note_on', channel=0, note=74, velocity=84, time=91),\n",
       "   Message('note_on', channel=0, note=79, velocity=0, time=3),\n",
       "   Message('note_on', channel=0, note=71, velocity=0, time=44),\n",
       "   Message('note_on', channel=0, note=55, velocity=0, time=8),\n",
       "   Message('note_on', channel=0, note=67, velocity=0, time=6),\n",
       "   Message('note_on', channel=0, note=59, velocity=0, time=3),\n",
       "   Message('note_on', channel=0, note=79, velocity=76, time=174),\n",
       "   Message('note_on', channel=0, note=67, velocity=85, time=0),\n",
       "   Message('note_on', channel=0, note=59, velocity=77, time=3),\n",
       "   Message('note_on', channel=0, note=71, velocity=72, time=3),\n",
       "   Message('note_on', channel=0, note=55, velocity=60, time=0),\n",
       "   Message('note_on', channel=0, note=74, velocity=0, time=82),\n",
       "   Message('note_on', channel=0, note=59, velocity=0, time=137),\n",
       "   Message('note_on', channel=0, note=59, velocity=64, time=5),\n",
       "   Message('note_on', channel=0, note=81, velocity=74, time=1),\n",
       "   Message('note_on', channel=0, note=69, velocity=80, time=0),\n",
       "   Message('note_on', channel=0, note=62, velocity=68, time=0),\n",
       "   Message('note_on', channel=0, note=74, velocity=59, time=5),\n",
       "   Message('note_on', channel=0, note=71, velocity=0, time=33),\n",
       "   Message('note_on', channel=0, note=59, velocity=0, time=5),\n",
       "   Message('note_on', channel=0, note=79, velocity=0, time=5),\n",
       "   Message('note_on', channel=0, note=55, velocity=0, time=8),\n",
       "   Message('note_on', channel=0, note=67, velocity=0, time=12),\n",
       "   Message('note_on', channel=0, note=74, velocity=0, time=80),\n",
       "   Message('note_on', channel=0, note=71, velocity=79, time=90),\n",
       "   Message('note_on', channel=0, note=59, velocity=58, time=2),\n",
       "   Message('note_on', channel=0, note=62, velocity=0, time=0),\n",
       "   Message('note_on', channel=0, note=81, velocity=0, time=0),\n",
       "   Message('note_on', channel=0, note=79, velocity=72, time=3),\n",
       "   Message('note_on', channel=0, note=62, velocity=56, time=1),\n",
       "   Message('note_on', channel=0, note=55, velocity=58, time=1),\n",
       "   Message('note_on', channel=0, note=67, velocity=71, time=5),\n",
       "   Message('note_on', channel=0, note=67, velocity=0, time=5),\n",
       "   Message('note_on', channel=0, note=59, velocity=0, time=54),\n",
       "   Message('note_on', channel=0, note=69, velocity=0, time=16),\n",
       "   Message('note_on', channel=0, note=62, velocity=0, time=18),\n",
       "   Message('note_on', channel=0, note=79, velocity=0, time=135),\n",
       "   Message('note_on', channel=0, note=62, velocity=58, time=10),\n",
       "   Message('note_on', channel=0, note=67, velocity=52, time=1),\n",
       "   Message('note_on', channel=0, note=74, velocity=50, time=0),\n",
       "   Message('note_on', channel=0, note=79, velocity=53, time=0),\n",
       "   Message('note_on', channel=0, note=55, velocity=0, time=42),\n",
       "   Message('control_change', channel=0, control=64, value=127, time=78),\n",
       "   Message('note_on', channel=0, note=59, velocity=65, time=124),\n",
       "   Message('note_on', channel=0, note=79, velocity=0, time=83),\n",
       "   Message('control_change', channel=0, control=64, value=0, time=0),\n",
       "   Message('note_on', channel=0, note=62, velocity=0, time=5),\n",
       "   Message('note_on', channel=0, note=74, velocity=0, time=41),\n",
       "   Message('note_on', channel=0, note=62, velocity=52, time=110),\n",
       "   Message('note_on', channel=0, note=81, velocity=51, time=0),\n",
       "   Message('note_on', channel=0, note=74, velocity=45, time=1),\n",
       "   Message('note_on', channel=0, note=81, velocity=0, time=4),\n",
       "   Message('note_on', channel=0, note=59, velocity=0, time=43),\n",
       "   Message('note_on', channel=0, note=69, velocity=66, time=170),\n",
       "   Message('note_on', channel=0, note=62, velocity=0, time=2),\n",
       "   Message('note_on', channel=0, note=81, velocity=63, time=1),\n",
       "   Message('note_on', channel=0, note=72, velocity=67, time=1),\n",
       "   Message('note_on', channel=0, note=60, velocity=52, time=0),\n",
       "   Message('note_on', channel=0, note=62, velocity=54, time=2),\n",
       "   Message('note_on', channel=0, note=57, velocity=58, time=3),\n",
       "   Message('note_on', channel=0, note=67, velocity=0, time=1),\n",
       "   Message('note_on', channel=0, note=60, velocity=0, time=0),\n",
       "   Message('note_on', channel=0, note=74, velocity=0, time=12),\n",
       "   Message('note_on', channel=0, note=71, velocity=0, time=2),\n",
       "   Message('note_on', channel=0, note=81, velocity=0, time=32),\n",
       "   Message('note_on', channel=0, note=62, velocity=0, time=62),\n",
       "   Message('note_on', channel=0, note=69, velocity=0, time=19),\n",
       "   Message('note_on', channel=0, note=72, velocity=0, time=7),\n",
       "   Message('note_on', channel=0, note=69, velocity=76, time=85),\n",
       "   Message('note_on', channel=0, note=72, velocity=74, time=0),\n",
       "   Message('note_on', channel=0, note=81, velocity=69, time=0),\n",
       "   Message('note_on', channel=0, note=62, velocity=64, time=0),\n",
       "   Message('note_on', channel=0, note=60, velocity=55, time=2),\n",
       "   Message('note_on', channel=0, note=57, velocity=0, time=27),\n",
       "   Message('note_on', channel=0, note=81, velocity=0, time=29),\n",
       "   Message('note_on', channel=0, note=60, velocity=0, time=84),\n",
       "   Message('note_on', channel=0, note=69, velocity=0, time=4),\n",
       "   Message('note_on', channel=0, note=72, velocity=0, time=11),\n",
       "   Message('note_on', channel=0, note=60, velocity=71, time=83),\n",
       "   Message('note_on', channel=0, note=81, velocity=71, time=2),\n",
       "   Message('note_on', channel=0, note=69, velocity=76, time=1),\n",
       "   Message('note_on', channel=0, note=72, velocity=74, time=1),\n",
       "   Message('note_on', channel=0, note=81, velocity=0, time=6),\n",
       "   Message('control_change', channel=0, control=64, value=127, time=30),\n",
       "   Message('note_on', channel=0, note=69, velocity=0, time=97),\n",
       "   Message('note_on', channel=0, note=62, velocity=0, time=3),\n",
       "   Message('control_change', channel=0, control=64, value=0, time=0),\n",
       "   Message('note_on', channel=0, note=72, velocity=0, time=9),\n",
       "   Message('note_on', channel=0, note=60, velocity=0, time=68),\n",
       "   Message('note_on', channel=0, note=81, velocity=75, time=6),\n",
       "   Message('note_on', channel=0, note=69, velocity=78, time=2),\n",
       "   Message('note_on', channel=0, note=60, velocity=64, time=1),\n",
       "   Message('note_on', channel=0, note=72, velocity=77, time=0),\n",
       "   Message('note_on', channel=0, note=74, velocity=64, time=3),\n",
       "   Message('note_on', channel=0, note=60, velocity=0, time=23),\n",
       "   Message('note_on', channel=0, note=69, velocity=0, time=74),\n",
       "   Message('note_on', channel=0, note=81, velocity=0, time=11),\n",
       "   Message('note_on', channel=0, note=72, velocity=0, time=16),\n",
       "   Message('note_on', channel=0, note=72, velocity=82, time=100),\n",
       "   Message('note_on', channel=0, note=81, velocity=75, time=4),\n",
       "   Message('note_on', channel=0, note=69, velocity=77, time=1),\n",
       "   Message('note_on', channel=0, note=55, velocity=68, time=1),\n",
       "   Message('note_on', channel=0, note=74, velocity=0, time=73),\n",
       "   Message('control_change', channel=0, control=64, value=127, time=0),\n",
       "   Message('note_on', channel=0, note=71, velocity=79, time=158),\n",
       "   Message('note_on', channel=0, note=79, velocity=74, time=0),\n",
       "   Message('note_on', channel=0, note=67, velocity=74, time=1),\n",
       "   Message('control_change', channel=0, control=64, value=0, time=47),\n",
       "   Message('note_on', channel=0, note=69, velocity=0, time=40),\n",
       "   Message('note_on', channel=0, note=72, velocity=0, time=7),\n",
       "   Message('note_on', channel=0, note=81, velocity=0, time=8),\n",
       "   Message('note_on', channel=0, note=79, velocity=0, time=30),\n",
       "   Message('note_on', channel=0, note=67, velocity=0, time=3),\n",
       "   Message('note_on', channel=0, note=71, velocity=0, time=2),\n",
       "   Message('note_on', channel=0, note=55, velocity=0, time=0),\n",
       "   Message('note_on', channel=0, note=55, velocity=64, time=103),\n",
       "   Message('note_on', channel=0, note=71, velocity=82, time=2),\n",
       "   Message('note_on', channel=0, note=79, velocity=77, time=0),\n",
       "   Message('note_on', channel=0, note=67, velocity=75, time=3),\n",
       "   Message('note_on', channel=0, note=55, velocity=0, time=110),\n",
       "   Message('control_change', channel=0, control=64, value=127, time=62),\n",
       "   Message('note_on', channel=0, note=71, velocity=0, time=69),\n",
       "   Message('note_on', channel=0, note=62, velocity=69, time=3),\n",
       "   Message('note_on', channel=0, note=74, velocity=57, time=1),\n",
       "   Message('note_on', channel=0, note=71, velocity=56, time=0),\n",
       "   Message('control_change', channel=0, control=64, value=0, time=17),\n",
       "   Message('note_on', channel=0, note=67, velocity=0, time=22),\n",
       "   Message('note_on', channel=0, note=71, velocity=0, time=1),\n",
       "   Message('note_on', channel=0, note=62, velocity=0, time=2),\n",
       "   Message('note_on', channel=0, note=74, velocity=0, time=23),\n",
       "   Message('note_on', channel=0, note=79, velocity=0, time=8),\n",
       "   Message('note_on', channel=0, note=62, velocity=69, time=31),\n",
       "   Message('note_on', channel=0, note=74, velocity=63, time=2),\n",
       "   Message('note_on', channel=0, note=62, velocity=0, time=34),\n",
       "   Message('note_on', channel=0, note=74, velocity=0, time=102),\n",
       "   Message('note_on', channel=0, note=66, velocity=86, time=2),\n",
       "   Message('note_on', channel=0, note=57, velocity=78, time=3),\n",
       "   Message('note_on', channel=0, note=60, velocity=79, time=2),\n",
       "   Message('note_on', channel=0, note=74, velocity=85, time=2),\n",
       "   Message('note_on', channel=0, note=74, velocity=0, time=148),\n",
       "   Message('note_on', channel=0, note=74, velocity=85, time=95),\n",
       "   Message('note_on', channel=0, note=72, velocity=83, time=243),\n",
       "   Message('note_on', channel=0, note=74, velocity=0, time=38),\n",
       "   Message('note_on', channel=0, note=72, velocity=0, time=89),\n",
       "   Message('note_on', channel=0, note=81, velocity=72, time=99),\n",
       "   Message('note_on', channel=0, note=69, velocity=78, time=2),\n",
       "   Message('note_on', channel=0, note=72, velocity=66, time=1),\n",
       "   Message('note_on', channel=0, note=72, velocity=0, time=47),\n",
       "   Message('note_on', channel=0, note=66, velocity=0, time=24),\n",
       "   Message('note_on', channel=0, note=59, velocity=82, time=140),\n",
       "   Message('note_on', channel=0, note=79, velocity=79, time=0),\n",
       "   Message('note_on', channel=0, note=67, velocity=85, time=1),\n",
       "   Message('note_on', channel=0, note=55, velocity=70, time=1),\n",
       "   Message('note_on', channel=0, note=71, velocity=75, time=3),\n",
       "   Message('note_on', channel=0, note=81, velocity=0, time=43),\n",
       "   Message('note_on', channel=0, note=69, velocity=0, time=3),\n",
       "   Message('note_on', channel=0, note=57, velocity=0, time=6),\n",
       "   Message('note_on', channel=0, note=60, velocity=0, time=1),\n",
       "   Message('note_on', channel=0, note=62, velocity=75, time=169),\n",
       "   Message('note_on', channel=0, note=74, velocity=60, time=3),\n",
       "   Message('note_on', channel=0, note=74, velocity=0, time=10),\n",
       "   Message('note_on', channel=0, note=55, velocity=0, time=65),\n",
       "   Message('note_on', channel=0, note=59, velocity=0, time=7),\n",
       "   Message('note_on', channel=0, note=62, velocity=0, time=2),\n",
       "   Message('note_on', channel=0, note=79, velocity=0, time=3),\n",
       "   Message('note_on', channel=0, note=71, velocity=0, time=7),\n",
       "   Message('note_on', channel=0, note=67, velocity=0, time=54),\n",
       "   Message('note_on', channel=0, note=79, velocity=100, time=100),\n",
       "   Message('note_on', channel=0, note=55, velocity=83, time=3),\n",
       "   Message('note_on', channel=0, note=59, velocity=86, time=1),\n",
       "   Message('note_on', channel=0, note=71, velocity=84, time=1),\n",
       "   Message('control_change', channel=0, control=64, value=127, time=241),\n",
       "   Message('note_on', channel=0, note=79, velocity=0, time=288),\n",
       "   Message('note_on', channel=0, note=71, velocity=0, time=6),\n",
       "   Message('control_change', channel=0, control=64, value=0, time=4),\n",
       "   Message('note_on', channel=0, note=55, velocity=0, time=10),\n",
       "   Message('note_on', channel=0, note=59, velocity=0, time=3),\n",
       "   Message('note_on', channel=0, note=48, velocity=66, time=1048),\n",
       "   Message('note_on', channel=0, note=60, velocity=72, time=0),\n",
       "   Message('control_change', channel=0, control=64, value=127, time=61),\n",
       "   Message('note_on', channel=0, note=62, velocity=77, time=246),\n",
       "   Message('note_on', channel=0, note=50, velocity=71, time=12),\n",
       "   Message('note_on', channel=0, note=48, velocity=0, time=29),\n",
       "   Message('control_change', channel=0, control=64, value=0, time=2),\n",
       "   Message('note_on', channel=0, note=60, velocity=0, time=12),\n",
       "   Message('note_on', channel=0, note=64, velocity=86, time=224),\n",
       "   Message('note_on', channel=0, note=52, velocity=74, time=7),\n",
       "   Message('note_on', channel=0, note=50, velocity=0, time=40),\n",
       "   Message('note_on', channel=0, note=62, velocity=0, time=2),\n",
       "   Message('note_on', channel=0, note=53, velocity=75, time=219),\n",
       "   Message('note_on', channel=0, note=65, velocity=77, time=9),\n",
       "   Message('note_on', channel=0, note=52, velocity=0, time=17),\n",
       "   Message('note_on', channel=0, note=64, velocity=0, time=14),\n",
       "   Message('note_on', channel=0, note=79, velocity=77, time=238),\n",
       "   Message('note_on', channel=0, note=67, velocity=85, time=0),\n",
       "   Message('note_on', channel=0, note=55, velocity=76, time=1),\n",
       "   Message('note_on', channel=0, note=53, velocity=0, time=37),\n",
       "   Message('note_on', channel=0, note=65, velocity=0, time=28),\n",
       "   Message('note_on', channel=0, note=79, velocity=0, time=31),\n",
       "   Message('note_on', channel=0, note=55, velocity=0, time=169),\n",
       "   Message('note_on', channel=0, note=55, velocity=66, time=9),\n",
       "   Message('note_on', channel=0, note=81, velocity=78, time=1),\n",
       "   Message('note_on', channel=0, note=57, velocity=76, time=2),\n",
       "   Message('note_on', channel=0, note=69, velocity=83, time=0),\n",
       "   Message('note_on', channel=0, note=81, velocity=0, time=3),\n",
       "   Message('note_on', channel=0, note=55, velocity=0, time=73),\n",
       "   Message('note_on', channel=0, note=67, velocity=0, time=2),\n",
       "   Message('note_on', channel=0, note=59, velocity=78, time=182),\n",
       "   Message('note_on', channel=0, note=71, velocity=83, time=10),\n",
       "   Message('note_on', channel=0, note=69, velocity=0, time=29),\n",
       "   Message('note_on', channel=0, note=57, velocity=0, time=2),\n",
       "   Message('note_on', channel=0, note=72, velocity=90, time=229),\n",
       "   Message('note_on', channel=0, note=60, velocity=75, time=7),\n",
       "   Message('note_on', channel=0, note=71, velocity=0, time=23),\n",
       "   Message('note_on', channel=0, note=59, velocity=0, time=7),\n",
       "   Message('note_on', channel=0, note=59, velocity=72, time=235),\n",
       "   Message('note_on', channel=0, note=83, velocity=70, time=1),\n",
       "   Message('note_on', channel=0, note=71, velocity=81, time=1),\n",
       "   Message('note_on', channel=0, note=83, velocity=0, time=5),\n",
       "   Message('note_on', channel=0, note=60, velocity=0, time=43),\n",
       "   Message('note_on', channel=0, note=72, velocity=0, time=42),\n",
       "   Message('note_on', channel=0, note=69, velocity=78, time=172),\n",
       "   Message('note_on', channel=0, note=57, velocity=73, time=0),\n",
       "   Message('note_on', channel=0, note=71, velocity=0, time=56),\n",
       "   Message('note_on', channel=0, note=59, velocity=0, time=9),\n",
       "   Message('note_on', channel=0, note=55, velocity=70, time=195),\n",
       "   Message('note_on', channel=0, note=79, velocity=73, time=0),\n",
       "   Message('note_on', channel=0, note=67, velocity=79, time=1),\n",
       "   Message('note_on', channel=0, note=69, velocity=0, time=44),\n",
       "   Message('note_on', channel=0, note=57, velocity=0, time=2),\n",
       "   Message('note_on', channel=0, note=53, velocity=71, time=216),\n",
       "   Message('note_on', channel=0, note=65, velocity=75, time=8),\n",
       "   Message('note_on', channel=0, note=77, velocity=69, time=0),\n",
       "   Message('note_on', channel=0, note=79, velocity=0, time=11),\n",
       "   Message('note_on', channel=0, note=55, velocity=0, time=24),\n",
       "   Message('note_on', channel=0, note=67, velocity=0, time=1),\n",
       "   Message('note_on', channel=0, note=77, velocity=0, time=44),\n",
       "   Message('note_on', channel=0, note=64, velocity=80, time=180),\n",
       "   Message('note_on', channel=0, note=52, velocity=72, time=6),\n",
       "   Message('note_on', channel=0, note=53, velocity=0, time=28),\n",
       "   Message('note_on', channel=0, note=65, velocity=0, time=6),\n",
       "   Message('note_on', channel=0, note=74, velocity=65, time=203),\n",
       "   Message('note_on', channel=0, note=62, velocity=71, time=3),\n",
       "   Message('note_on', channel=0, note=74, velocity=0, time=4),\n",
       "   Message('note_on', channel=0, note=50, velocity=67, time=12),\n",
       "   Message('note_on', channel=0, note=52, velocity=0, time=39),\n",
       "   Message('note_on', channel=0, note=64, velocity=0, time=14),\n",
       "   Message('note_on', channel=0, note=72, velocity=71, time=192),\n",
       "   Message('note_on', channel=0, note=60, velocity=74, time=1),\n",
       "   Message('note_on', channel=0, note=48, velocity=70, time=0),\n",
       "   Message('note_on', channel=0, note=50, velocity=0, time=34),\n",
       "   Message('note_on', channel=0, note=62, velocity=0, time=12),\n",
       "   Message('note_on', channel=0, note=48, velocity=0, time=376),\n",
       "   Message('note_on', channel=0, note=60, velocity=0, time=6),\n",
       "   Message('note_on', channel=0, note=72, velocity=0, time=21),\n",
       "   Message('note_on', channel=0, note=79, velocity=79, time=249),\n",
       "   Message('note_on', channel=0, note=60, velocity=78, time=1),\n",
       "   Message('note_on', channel=0, note=64, velocity=79, time=0),\n",
       "   Message('note_on', channel=0, note=72, velocity=73, time=0),\n",
       "   Message('note_on', channel=0, note=79, velocity=0, time=3),\n",
       "   Message('note_on', channel=0, note=67, velocity=82, time=1),\n",
       "   Message('note_on', channel=0, note=55, velocity=74, time=0),\n",
       "   Message('note_on', channel=0, note=76, velocity=72, time=3),\n",
       "   Message('note_on', channel=0, note=48, velocity=74, time=0),\n",
       "   Message('note_on', channel=0, note=52, velocity=71, time=1),\n",
       "   Message('control_change', channel=0, control=64, value=127, time=756),\n",
       "   Message('control_change', channel=0, control=64, value=0, time=220),\n",
       "   Message('note_on', channel=0, note=52, velocity=0, time=6),\n",
       "   Message('note_on', channel=0, note=48, velocity=0, time=0),\n",
       "   Message('note_on', channel=0, note=64, velocity=0, time=1),\n",
       "   Message('note_on', channel=0, note=67, velocity=0, time=0),\n",
       "   Message('note_on', channel=0, note=60, velocity=0, time=0),\n",
       "   Message('note_on', channel=0, note=55, velocity=0, time=0),\n",
       "   Message('note_on', channel=0, note=76, velocity=0, time=2),\n",
       "   Message('note_on', channel=0, note=72, velocity=0, time=16),\n",
       "   Message('note_on', channel=0, note=55, velocity=60, time=420),\n",
       "   Message('note_on', channel=0, note=67, velocity=63, time=1),\n",
       "   Message('note_on', channel=0, note=81, velocity=76, time=243),\n",
       "   Message('note_on', channel=0, note=69, velocity=79, time=1),\n",
       "   Message('note_on', channel=0, note=67, velocity=0, time=77),\n",
       "   Message('note_on', channel=0, note=55, velocity=0, time=8),\n",
       "   Message('note_on', channel=0, note=71, velocity=85, time=172),\n",
       "   Message('note_on', channel=0, note=59, velocity=75, time=2),\n",
       "   Message('note_on', channel=0, note=69, velocity=0, time=31),\n",
       "   Message('note_on', channel=0, note=81, velocity=0, time=52),\n",
       "   Message('note_on', channel=0, note=60, velocity=80, time=170),\n",
       "   Message('note_on', channel=0, note=72, velocity=88, time=0),\n",
       "   Message('note_on', channel=0, note=71, velocity=0, time=34),\n",
       "   Message('note_on', channel=0, note=59, velocity=0, time=21),\n",
       "   Message('note_on', channel=0, note=74, velocity=89, time=196),\n",
       "   Message('note_on', channel=0, note=62, velocity=72, time=3),\n",
       "   Message('note_on', channel=0, note=60, velocity=0, time=38),\n",
       "   Message('note_on', channel=0, note=72, velocity=0, time=10),\n",
       "   Message('note_on', channel=0, note=76, velocity=89, time=192),\n",
       "   Message('note_on', channel=0, note=64, velocity=79, time=2),\n",
       "   Message('note_on', channel=0, note=74, velocity=0, time=48),\n",
       "   Message('note_on', channel=0, note=62, velocity=0, time=24),\n",
       "   Message('note_on', channel=0, note=66, velocity=78, time=179),\n",
       "   Message('note_on', channel=0, note=78, velocity=94, time=0),\n",
       "   Message('note_on', channel=0, note=64, velocity=0, time=54),\n",
       "   Message('note_on', channel=0, note=76, velocity=0, time=7),\n",
       "   Message('note_on', channel=0, note=79, velocity=85, time=193),\n",
       "   Message('note_on', channel=0, note=67, velocity=78, time=1),\n",
       "   Message('note_on', channel=0, note=78, velocity=0, time=29),\n",
       "   Message('note_on', channel=0, note=66, velocity=0, time=2),\n",
       "   Message('note_on', channel=0, note=78, velocity=90, time=218),\n",
       "   Message('note_on', channel=0, note=66, velocity=78, time=2),\n",
       "   Message('note_on', channel=0, note=79, velocity=0, time=38),\n",
       "   Message('note_on', channel=0, note=67, velocity=0, time=19),\n",
       "   Message('note_on', channel=0, note=64, velocity=74, time=193),\n",
       "   Message('note_on', channel=0, note=76, velocity=80, time=0),\n",
       "   Message('note_on', channel=0, note=78, velocity=0, time=47),\n",
       "   Message('note_on', channel=0, note=66, velocity=0, time=20),\n",
       "   Message('note_on', channel=0, note=62, velocity=67, time=177),\n",
       "   Message('note_on', channel=0, note=74, velocity=80, time=1),\n",
       "   Message('note_on', channel=0, note=76, velocity=0, time=28),\n",
       "   Message('note_on', channel=0, note=64, velocity=0, time=5),\n",
       "   Message('note_on', channel=0, note=60, velocity=72, time=218),\n",
       "   Message('note_on', channel=0, note=72, velocity=81, time=0),\n",
       "   Message('note_on', channel=0, note=74, velocity=0, time=32),\n",
       "   Message('note_on', channel=0, note=62, velocity=0, time=49),\n",
       "   Message('note_on', channel=0, note=71, velocity=80, time=181),\n",
       "   Message('note_on', channel=0, note=59, velocity=72, time=0),\n",
       "   Message('note_on', channel=0, note=60, velocity=0, time=29),\n",
       "   Message('note_on', channel=0, note=72, velocity=0, time=9),\n",
       "   Message('note_on', channel=0, note=69, velocity=71, time=212),\n",
       "   Message('note_on', channel=0, note=57, velocity=59, time=19),\n",
       "   Message('note_on', channel=0, note=71, velocity=0, time=56),\n",
       "   Message('note_on', channel=0, note=59, velocity=0, time=4),\n",
       "   Message('note_on', channel=0, note=67, velocity=69, time=178),\n",
       "   Message('note_on', channel=0, note=55, velocity=55, time=20),\n",
       "   Message('note_on', channel=0, note=57, velocity=0, time=23),\n",
       "   Message('note_on', channel=0, note=69, velocity=0, time=2),\n",
       "   Message('note_on', channel=0, note=55, velocity=0, time=359),\n",
       "   Message('note_on', channel=0, note=67, velocity=0, time=2),\n",
       "   Message('note_on', channel=0, note=55, velocity=74, time=266),\n",
       "   Message('note_on', channel=0, note=74, velocity=86, time=0),\n",
       "   Message('note_on', channel=0, note=59, velocity=79, time=2),\n",
       "   Message('note_on', channel=0, note=67, velocity=87, time=0),\n",
       "   Message('note_on', channel=0, note=62, velocity=71, time=1),\n",
       "   Message('note_on', channel=0, note=71, velocity=87, time=0),\n",
       "   Message('control_change', channel=0, control=64, value=127, time=265),\n",
       "   Message('control_change', channel=0, control=64, value=0, time=648),\n",
       "   Message('note_on', channel=0, note=67, velocity=0, time=4),\n",
       "   Message('note_on', channel=0, note=71, velocity=0, time=2),\n",
       "   Message('note_on', channel=0, note=55, velocity=0, time=0),\n",
       "   Message('note_on', channel=0, note=74, velocity=0, time=1),\n",
       "   Message('note_on', channel=0, note=62, velocity=0, time=3),\n",
       "   Message('note_on', channel=0, note=59, velocity=0, time=33),\n",
       "   Message('note_on', channel=0, note=62, velocity=63, time=411),\n",
       "   Message('note_on', channel=0, note=50, velocity=59, time=1),\n",
       "   Message('note_on', channel=0, note=64, velocity=80, time=232),\n",
       "   Message('note_on', channel=0, note=52, velocity=69, time=1),\n",
       "   Message('note_on', channel=0, note=62, velocity=0, time=34),\n",
       "   Message('note_on', channel=0, note=50, velocity=0, time=3),\n",
       "   Message('note_on', channel=0, note=78, velocity=77, time=205),\n",
       "   Message('note_on', channel=0, note=54, velocity=75, time=1),\n",
       "   Message('note_on', channel=0, note=66, velocity=80, time=1),\n",
       "   Message('note_on', channel=0, note=52, velocity=0, time=73),\n",
       "   Message('note_on', channel=0, note=64, velocity=0, time=3),\n",
       "   Message('note_on', channel=0, note=55, velocity=74, time=168),\n",
       "   Message('note_on', channel=0, note=79, velocity=76, time=3),\n",
       "   Message('note_on', channel=0, note=67, velocity=78, time=5),\n",
       "   Message('note_on', channel=0, note=54, velocity=0, time=31),\n",
       "   Message('note_on', channel=0, note=66, velocity=0, time=5),\n",
       "   Message('note_on', channel=0, note=78, velocity=0, time=29),\n",
       "   Message('note_on', channel=0, note=81, velocity=76, time=174),\n",
       "   Message('note_on', channel=0, note=57, velocity=77, time=2),\n",
       "   Message('note_on', channel=0, note=69, velocity=81, time=1),\n",
       "   Message('note_on', channel=0, note=67, velocity=0, time=52),\n",
       "   Message('note_on', channel=0, note=55, velocity=0, time=14),\n",
       "   Message('note_on', channel=0, note=79, velocity=0, time=10),\n",
       "   Message('note_on', channel=0, note=59, velocity=76, time=159),\n",
       "   Message('note_on', channel=0, note=71, velocity=89, time=1),\n",
       "   Message('note_on', channel=0, note=83, velocity=72, time=3),\n",
       "   Message('note_on', channel=0, note=83, velocity=0, time=6),\n",
       "   Message('note_on', channel=0, note=69, velocity=0, time=27),\n",
       "   Message('note_on', channel=0, note=81, velocity=0, time=12),\n",
       "   Message('note_on', channel=0, note=57, velocity=0, time=7),\n",
       "   Message('note_on', channel=0, note=61, velocity=74, time=191),\n",
       "   Message('note_on', channel=0, note=73, velocity=88, time=0),\n",
       "   Message('note_on', channel=0, note=85, velocity=76, time=2),\n",
       "   Message('note_on', channel=0, note=85, velocity=0, time=53),\n",
       "   Message('note_on', channel=0, note=71, velocity=0, time=6),\n",
       "   Message('note_on', channel=0, note=59, velocity=0, time=26),\n",
       "   Message('note_on', channel=0, note=74, velocity=90, time=156),\n",
       "   Message('note_on', channel=0, note=86, velocity=79, time=0),\n",
       "   Message('note_on', channel=0, note=62, velocity=76, time=1),\n",
       "   Message('note_on', channel=0, note=86, velocity=0, time=3),\n",
       "   Message('note_on', channel=0, note=61, velocity=0, time=51),\n",
       "   Message('note_on', channel=0, note=73, velocity=0, time=14),\n",
       "   Message('note_on', channel=0, note=73, velocity=90, time=181),\n",
       "   Message('note_on', channel=0, note=61, velocity=75, time=4),\n",
       "   Message('note_on', channel=0, note=74, velocity=0, time=50),\n",
       "   Message('note_on', channel=0, note=62, velocity=0, time=15),\n",
       "   Message('note_on', channel=0, note=59, velocity=76, time=172),\n",
       "   Message('note_on', channel=0, note=71, velocity=85, time=1),\n",
       "   Message('note_on', channel=0, note=73, velocity=0, time=79),\n",
       "   Message('note_on', channel=0, note=61, velocity=0, time=10),\n",
       "   Message('note_on', channel=0, note=57, velocity=71, time=146),\n",
       "   Message('note_on', channel=0, note=69, velocity=77, time=3),\n",
       "   Message('note_on', channel=0, note=71, velocity=0, time=39),\n",
       "   Message('note_on', channel=0, note=59, velocity=0, time=3),\n",
       "   Message('note_on', channel=0, note=79, velocity=74, time=204),\n",
       "   Message('note_on', channel=0, note=67, velocity=83, time=1),\n",
       "   Message('note_on', channel=0, note=55, velocity=72, time=0),\n",
       "   Message('note_on', channel=0, note=69, velocity=0, time=43),\n",
       "   Message('note_on', channel=0, note=57, velocity=0, time=2),\n",
       "   Message('note_on', channel=0, note=78, velocity=71, time=201),\n",
       "   Message('note_on', channel=0, note=66, velocity=78, time=4),\n",
       "   Message('note_on', channel=0, note=54, velocity=71, time=4),\n",
       "   Message('note_on', channel=0, note=79, velocity=0, time=27),\n",
       "   Message('note_on', channel=0, note=67, velocity=0, time=11),\n",
       "   Message('note_on', channel=0, note=78, velocity=0, time=2),\n",
       "   Message('note_on', channel=0, note=55, velocity=0, time=34),\n",
       "   Message('note_on', channel=0, note=64, velocity=77, time=185),\n",
       "   Message('note_on', channel=0, note=52, velocity=68, time=1),\n",
       "   Message('note_on', channel=0, note=76, velocity=66, time=1),\n",
       "   Message('note_on', channel=0, note=66, velocity=0, time=53),\n",
       "   Message('note_on', channel=0, note=54, velocity=0, time=5),\n",
       "   Message('note_on', channel=0, note=76, velocity=0, time=121),\n",
       "   Message('note_on', channel=0, note=52, velocity=0, time=84),\n",
       "   Message('note_on', channel=0, note=50, velocity=64, time=9),\n",
       "   Message('note_on', channel=0, note=62, velocity=70, time=0),\n",
       "   Message('note_on', channel=0, note=52, velocity=53, time=2),\n",
       "   Message('note_on', channel=0, note=52, velocity=0, time=70),\n",
       "   Message('note_on', channel=0, note=64, velocity=0, time=15),\n",
       "   Message('note_on', channel=0, note=50, velocity=0, time=322),\n",
       "   Message('note_on', channel=0, note=62, velocity=0, time=59),\n",
       "   Message('note_on', channel=0, note=66, velocity=79, time=206),\n",
       "   Message('note_on', channel=0, note=78, velocity=80, time=2),\n",
       "   Message('note_on', channel=0, note=74, velocity=77, time=1),\n",
       "   Message('note_on', channel=0, note=69, velocity=77, time=1),\n",
       "   Message('note_on', channel=0, note=62, velocity=78, time=1),\n",
       "   Message('note_on', channel=0, note=57, velocity=74, time=1),\n",
       "   Message('note_on', channel=0, note=54, velocity=72, time=0),\n",
       "   Message('note_on', channel=0, note=50, velocity=71, time=0),\n",
       "   Message('control_change', channel=0, control=64, value=127, time=509),\n",
       "   Message('control_change', channel=0, control=64, value=0, time=357),\n",
       "   Message('note_on', channel=0, note=57, velocity=0, time=5),\n",
       "   Message('note_on', channel=0, note=69, velocity=0, time=0),\n",
       "   Message('note_on', channel=0, note=62, velocity=0, time=1),\n",
       "   Message('note_on', channel=0, note=54, velocity=0, time=0),\n",
       "   Message('note_on', channel=0, note=50, velocity=0, time=1),\n",
       "   Message('note_on', channel=0, note=78, velocity=0, time=20),\n",
       "   Message('note_on', channel=0, note=66, velocity=0, time=16),\n",
       "   Message('note_on', channel=0, note=74, velocity=0, time=7),\n",
       "   Message('note_on', channel=0, note=45, velocity=51, time=292),\n",
       "   Message('note_on', channel=0, note=57, velocity=58, time=1),\n",
       "   Message('note_on', channel=0, note=71, velocity=70, time=230),\n",
       "   Message('note_on', channel=0, note=59, velocity=77, time=1),\n",
       "   Message('note_on', channel=0, note=47, velocity=68, time=1),\n",
       "   Message('note_on', channel=0, note=45, velocity=0, time=12),\n",
       "   Message('note_on', channel=0, note=57, velocity=0, time=2),\n",
       "   Message('note_on', channel=0, note=49, velocity=71, time=226),\n",
       "   Message('note_on', channel=0, note=61, velocity=82, time=1),\n",
       "   Message('note_on', channel=0, note=73, velocity=72, time=1),\n",
       "   Message('note_on', channel=0, note=47, velocity=0, time=75),\n",
       "   Message('note_on', channel=0, note=59, velocity=0, time=12),\n",
       "   Message('note_on', channel=0, note=71, velocity=0, time=22),\n",
       "   Message('note_on', channel=0, note=61, velocity=0, time=123),\n",
       "   Message('note_on', channel=0, note=50, velocity=78, time=3),\n",
       "   Message('note_on', channel=0, note=62, velocity=79, time=1),\n",
       "   Message('note_on', channel=0, note=73, velocity=0, time=3),\n",
       "   Message('note_on', channel=0, note=61, velocity=70, time=3),\n",
       "   Message('note_on', channel=0, note=49, velocity=0, time=33),\n",
       "   Message('note_on', channel=0, note=61, velocity=0, time=14),\n",
       "   Message('note_on', channel=0, note=64, velocity=85, time=192),\n",
       "   Message('note_on', channel=0, note=52, velocity=82, time=0),\n",
       "   Message('note_on', channel=0, note=50, velocity=0, time=25),\n",
       "   Message('note_on', channel=0, note=62, velocity=0, time=3),\n",
       "   Message('note_on', channel=0, note=66, velocity=82, time=211),\n",
       "   Message('note_on', channel=0, note=54, velocity=78, time=2),\n",
       "   Message('note_on', channel=0, note=52, velocity=0, time=36),\n",
       "   Message('note_on', channel=0, note=64, velocity=0, time=0),\n",
       "   Message('note_on', channel=0, note=54, velocity=0, time=203),\n",
       "   Message('note_on', channel=0, note=80, velocity=76, time=3),\n",
       "   Message('note_on', channel=0, note=68, velocity=87, time=1),\n",
       "   Message('note_on', channel=0, note=54, velocity=69, time=3),\n",
       "   Message('note_on', channel=0, note=56, velocity=75, time=3),\n",
       "   Message('note_on', channel=0, note=54, velocity=0, time=87),\n",
       "   Message('note_on', channel=0, note=66, velocity=0, time=18),\n",
       "   Message('note_on', channel=0, note=56, velocity=0, time=24),\n",
       "   Message('note_on', channel=0, note=81, velocity=80, time=104),\n",
       "   Message('note_on', channel=0, note=57, velocity=76, time=0),\n",
       "   Message('note_on', channel=0, note=69, velocity=86, time=1),\n",
       "   Message('note_on', channel=0, note=80, velocity=0, time=10),\n",
       "   Message('note_on', channel=0, note=68, velocity=0, time=38),\n",
       "   Message('note_on', channel=0, note=80, velocity=76, time=191),\n",
       "   Message('note_on', channel=0, note=68, velocity=88, time=3),\n",
       "   Message('note_on', channel=0, note=56, velocity=76, time=2),\n",
       "   Message('note_on', channel=0, note=81, velocity=0, time=11),\n",
       "   Message('note_on', channel=0, note=57, velocity=0, time=11),\n",
       "   Message('note_on', channel=0, note=69, velocity=0, time=0),\n",
       "   Message('note_on', channel=0, note=80, velocity=0, time=74),\n",
       "   Message('note_on', channel=0, note=56, velocity=0, time=15),\n",
       "   Message('note_on', channel=0, note=78, velocity=76, time=129),\n",
       "   Message('note_on', channel=0, note=54, velocity=79, time=1),\n",
       "   Message('note_on', channel=0, note=66, velocity=82, time=2),\n",
       "   Message('note_on', channel=0, note=68, velocity=0, time=53),\n",
       "   Message('note_on', channel=0, note=52, velocity=74, time=172),\n",
       "   Message('note_on', channel=0, note=64, velocity=79, time=16),\n",
       "   Message('note_on', channel=0, note=76, velocity=68, time=1),\n",
       "   Message('note_on', channel=0, note=78, velocity=0, time=3),\n",
       "   Message('note_on', channel=0, note=54, velocity=0, time=6),\n",
       "   Message('note_on', channel=0, note=66, velocity=0, time=87),\n",
       "   Message('note_on', channel=0, note=76, velocity=0, time=76),\n",
       "   Message('note_on', channel=0, note=50, velocity=72, time=63),\n",
       "   Message('note_on', channel=0, note=62, velocity=76, time=4),\n",
       "   Message('note_on', channel=0, note=74, velocity=65, time=5),\n",
       "   Message('note_on', channel=0, note=52, velocity=0, time=23),\n",
       "   Message('note_on', channel=0, note=64, velocity=0, time=46),\n",
       "   Message('note_on', channel=0, note=74, velocity=0, time=20),\n",
       "   Message('note_on', channel=0, note=49, velocity=71, time=148),\n",
       "   Message('note_on', channel=0, note=61, velocity=79, time=2),\n",
       "   Message('note_on', channel=0, note=73, velocity=67, time=0),\n",
       "   Message('note_on', channel=0, note=50, velocity=0, time=28),\n",
       "   Message('note_on', channel=0, note=62, velocity=0, time=12),\n",
       "   Message('note_on', channel=0, note=73, velocity=0, time=179),\n",
       "   Message('note_on', channel=0, note=71, velocity=71, time=28),\n",
       "   Message('note_on', channel=0, note=59, velocity=72, time=2),\n",
       "   Message('note_on', channel=0, note=47, velocity=68, time=4),\n",
       "   Message('note_on', channel=0, note=49, velocity=0, time=42),\n",
       "   Message('note_on', channel=0, note=61, velocity=0, time=16),\n",
       "   Message('note_on', channel=0, note=69, velocity=58, time=186),\n",
       "   Message('note_on', channel=0, note=57, velocity=68, time=1),\n",
       "   Message('note_on', channel=0, note=45, velocity=60, time=2),\n",
       "   Message('note_on', channel=0, note=59, velocity=0, time=83),\n",
       "   Message('note_on', channel=0, note=71, velocity=0, time=4),\n",
       "   Message('note_on', channel=0, note=47, velocity=0, time=16),\n",
       "   Message('note_on', channel=0, note=45, velocity=0, time=284),\n",
       "   Message('note_on', channel=0, note=57, velocity=0, time=3),\n",
       "   Message('note_on', channel=0, note=69, velocity=0, time=4),\n",
       "   Message('note_on', channel=0, note=61, velocity=74, time=269),\n",
       "   Message('note_on', channel=0, note=73, velocity=66, time=8),\n",
       "   Message('note_on', channel=0, note=49, velocity=67, time=0),\n",
       "   Message('note_on', channel=0, note=52, velocity=66, time=3),\n",
       "   Message('note_on', channel=0, note=76, velocity=67, time=0),\n",
       "   Message('note_on', channel=0, note=64, velocity=69, time=1),\n",
       "   Message('note_on', channel=0, note=69, velocity=62, time=0),\n",
       "   Message('note_on', channel=0, note=45, velocity=60, time=0),\n",
       "   Message('note_on', channel=0, note=57, velocity=65, time=1),\n",
       "   Message('control_change', channel=0, control=64, value=127, time=701),\n",
       "   Message('control_change', channel=0, control=64, value=0, time=97),\n",
       "   Message('note_on', channel=0, note=73, velocity=0, time=7),\n",
       "   Message('note_on', channel=0, note=57, velocity=0, time=0),\n",
       "   Message('note_on', channel=0, note=45, velocity=0, time=1),\n",
       "   Message('note_on', channel=0, note=76, velocity=0, time=0),\n",
       "   Message('note_on', channel=0, note=52, velocity=0, time=1),\n",
       "   Message('note_on', channel=0, note=64, velocity=0, time=5),\n",
       "   Message('note_on', channel=0, note=61, velocity=0, time=20),\n",
       "   Message('note_on', channel=0, note=61, velocity=40, time=6),\n",
       "   Message('note_on', channel=0, note=49, velocity=0, time=17),\n",
       "   Message('note_on', channel=0, note=69, velocity=0, time=8),\n",
       "   Message('note_on', channel=0, note=61, velocity=0, time=5),\n",
       "   Message('note_on', channel=0, note=52, velocity=61, time=291),\n",
       "   Message('note_on', channel=0, note=64, velocity=61, time=6),\n",
       "   Message('note_on', channel=0, note=76, velocity=53, time=1),\n",
       "   Message('note_on', channel=0, note=78, velocity=70, time=233),\n",
       "   Message('note_on', channel=0, note=66, velocity=71, time=5),\n",
       "   Message('note_on', channel=0, note=54, velocity=69, time=4),\n",
       "   Message('note_on', channel=0, note=52, velocity=0, time=40),\n",
       "   Message('note_on', channel=0, note=64, velocity=0, time=7),\n",
       "   Message('note_on', channel=0, note=76, velocity=0, time=114),\n",
       "   Message('note_on', channel=0, note=54, velocity=0, time=62),\n",
       "   Message('note_on', channel=0, note=54, velocity=62, time=5),\n",
       "   Message('note_on', channel=0, note=80, velocity=73, time=3),\n",
       "   Message('note_on', channel=0, note=56, velocity=67, time=2),\n",
       "   Message('note_on', channel=0, note=68, velocity=83, time=1),\n",
       "   Message('note_on', channel=0, note=78, velocity=0, time=89),\n",
       "   Message('note_on', channel=0, note=54, velocity=0, time=10),\n",
       "   Message('note_on', channel=0, note=66, velocity=0, time=13),\n",
       "   Message('note_on', channel=0, note=57, velocity=74, time=104),\n",
       "   Message('note_on', channel=0, note=76, velocity=68, time=14),\n",
       "   Message('note_on', channel=0, note=81, velocity=75, time=1),\n",
       "   Message('note_on', channel=0, note=69, velocity=79, time=1),\n",
       "   Message('note_on', channel=0, note=56, velocity=0, time=10),\n",
       "   Message('note_on', channel=0, note=68, velocity=0, time=33),\n",
       "   Message('note_on', channel=0, note=80, velocity=0, time=13),\n",
       "   Message('note_on', channel=0, note=59, velocity=81, time=183),\n",
       "   Message('note_on', channel=0, note=71, velocity=88, time=2),\n",
       "   Message('note_on', channel=0, note=57, velocity=0, time=53),\n",
       "   Message('note_on', channel=0, note=81, velocity=0, time=0),\n",
       "   Message('note_on', channel=0, note=69, velocity=0, time=4),\n",
       "   Message('note_on', channel=0, note=76, velocity=0, time=58),\n",
       "   Message('note_on', channel=0, note=73, velocity=93, time=115),\n",
       "   Message('note_on', channel=0, note=61, velocity=78, time=6),\n",
       "   Message('note_on', channel=0, note=71, velocity=0, time=35),\n",
       "   Message('note_on', channel=0, note=59, velocity=0, time=8),\n",
       "   Message('note_on', channel=0, note=63, velocity=76, time=187),\n",
       "   Message('note_on', channel=0, note=75, velocity=93, time=2),\n",
       "   Message('note_on', channel=0, note=61, velocity=0, time=29),\n",
       "   Message('note_on', channel=0, note=73, velocity=0, time=73),\n",
       "   Message('note_on', channel=0, note=63, velocity=0, time=67),\n",
       "   Message('note_on', channel=0, note=76, velocity=91, time=57),\n",
       "   Message('note_on', channel=0, note=64, velocity=78, time=1),\n",
       "   Message('note_on', channel=0, note=75, velocity=0, time=55),\n",
       "   Message('note_on', channel=0, note=63, velocity=71, time=177),\n",
       "   Message('note_on', channel=0, note=75, velocity=94, time=1),\n",
       "   Message('note_on', channel=0, note=76, velocity=0, time=64),\n",
       "   Message('note_on', channel=0, note=64, velocity=0, time=18),\n",
       "   Message('note_on', channel=0, note=63, velocity=0, time=111),\n",
       "   Message('note_on', channel=0, note=61, velocity=74, time=50),\n",
       "   Message('note_on', channel=0, note=73, velocity=87, time=0),\n",
       "   Message('note_on', channel=0, note=75, velocity=0, time=119),\n",
       "   Message('note_on', channel=0, note=59, velocity=75, time=101),\n",
       "   Message('note_on', channel=0, note=71, velocity=85, time=17),\n",
       "   Message('note_on', channel=0, note=61, velocity=0, time=70),\n",
       "   Message('note_on', channel=0, note=73, velocity=0, time=14),\n",
       "   Message('note_on', channel=0, note=57, velocity=74, time=157),\n",
       "   Message('note_on', channel=0, note=69, velocity=76, time=2),\n",
       "   Message('note_on', channel=0, note=71, velocity=0, time=37),\n",
       "   Message('note_on', channel=0, note=59, velocity=0, time=16),\n",
       "   Message('note_on', channel=0, note=80, velocity=74, time=176),\n",
       "   Message('note_on', channel=0, note=68, velocity=86, time=3),\n",
       "   Message('note_on', channel=0, note=80, velocity=0, time=6),\n",
       "   Message('note_on', channel=0, note=56, velocity=69, time=15),\n",
       "   Message('note_on', channel=0, note=69, velocity=0, time=19),\n",
       "   Message('note_on', channel=0, note=57, velocity=0, time=4),\n",
       "   Message('note_on', channel=0, note=66, velocity=77, time=196),\n",
       "   Message('note_on', channel=0, note=54, velocity=70, time=1),\n",
       "   Message('note_on', channel=0, note=56, velocity=0, time=57),\n",
       "   Message('note_on', channel=0, note=68, velocity=0, time=6),\n",
       "   Message('note_on', channel=0, note=52, velocity=70, time=188),\n",
       "   Message('note_on', channel=0, note=64, velocity=64, time=1),\n",
       "   Message('note_on', channel=0, note=54, velocity=0, time=59),\n",
       "   Message('note_on', channel=0, note=66, velocity=0, time=10),\n",
       "   Message('note_on', channel=0, note=52, velocity=0, time=327),\n",
       "   Message('note_on', channel=0, note=64, velocity=0, time=23),\n",
       "   Message('note_on', channel=0, note=71, velocity=82, time=240),\n",
       "   Message('note_on', channel=0, note=68, velocity=79, time=0),\n",
       "   Message('note_on', channel=0, note=59, velocity=76, time=1),\n",
       "   Message('note_on', channel=0, note=64, velocity=73, time=0),\n",
       "   Message('note_on', channel=0, note=76, velocity=75, time=0),\n",
       "   Message('note_on', channel=0, note=56, velocity=70, time=1),\n",
       "   Message('note_on', channel=0, note=52, velocity=69, time=0),\n",
       "   Message('control_change', channel=0, control=64, value=127, time=296),\n",
       "   Message('control_change', channel=0, control=64, value=0, time=557),\n",
       "   Message('note_on', channel=0, note=71, velocity=0, time=6),\n",
       "   Message('note_on', channel=0, note=59, velocity=0, time=5),\n",
       "   Message('note_on', channel=0, note=52, velocity=0, time=0),\n",
       "   Message('note_on', channel=0, note=76, velocity=0, time=0),\n",
       "   Message('note_on', channel=0, note=68, velocity=0, time=40),\n",
       "   Message('note_on', channel=0, note=64, velocity=0, time=2),\n",
       "   Message('note_on', channel=0, note=56, velocity=0, time=4),\n",
       "   Message('note_on', channel=0, note=71, velocity=63, time=465),\n",
       "   Message('note_on', channel=0, note=59, velocity=73, time=0),\n",
       "   Message('note_on', channel=0, note=47, velocity=70, time=1),\n",
       "   Message('note_on', channel=0, note=49, velocity=71, time=215),\n",
       "   Message('note_on', channel=0, note=73, velocity=68, time=10),\n",
       "   Message('note_on', channel=0, note=61, velocity=76, time=3),\n",
       "   Message('note_on', channel=0, note=59, velocity=0, time=28),\n",
       "   Message('note_on', channel=0, note=47, velocity=0, time=0),\n",
       "   Message('note_on', channel=0, note=71, velocity=0, time=84),\n",
       "   Message('note_on', channel=0, note=51, velocity=80, time=104),\n",
       "   Message('note_on', channel=0, note=63, velocity=80, time=7),\n",
       "   Message('note_on', channel=0, note=49, velocity=0, time=16),\n",
       "   Message('note_on', channel=0, note=61, velocity=0, time=17),\n",
       "   Message('note_on', channel=0, note=73, velocity=0, time=2),\n",
       "   Message('note_on', channel=0, note=64, velocity=84, time=211),\n",
       "   Message('note_on', channel=0, note=52, velocity=85, time=0),\n",
       "   Message('note_on', channel=0, note=51, velocity=0, time=12),\n",
       "   Message('note_on', channel=0, note=63, velocity=0, time=18),\n",
       "   Message('note_on', channel=0, note=54, velocity=78, time=226),\n",
       "   Message('note_on', channel=0, note=66, velocity=84, time=1),\n",
       "   Message('note_on', channel=0, note=52, velocity=0, time=5),\n",
       "   Message('note_on', channel=0, note=64, velocity=0, time=78),\n",
       "   Message('note_on', channel=0, note=80, velocity=74, time=143),\n",
       "   Message('note_on', channel=0, note=56, velocity=73, time=1),\n",
       "   Message('note_on', channel=0, note=68, velocity=88, time=4),\n",
       "   Message('note_on', channel=0, note=54, velocity=0, time=26),\n",
       "   Message('note_on', channel=0, note=66, velocity=0, time=48),\n",
       "   Message('note_on', channel=0, note=56, velocity=0, time=49),\n",
       "   Message('note_on', channel=0, note=80, velocity=0, time=39),\n",
       "   Message('note_on', channel=0, note=58, velocity=80, time=59),\n",
       "   Message('note_on', channel=0, note=70, velocity=83, time=5),\n",
       "   Message('note_on', channel=0, note=68, velocity=0, time=71),\n",
       "   Message('note_on', channel=0, note=71, velocity=89, time=175),\n",
       "   Message('note_on', channel=0, note=59, velocity=78, time=1),\n",
       "   Message('note_on', channel=0, note=58, velocity=0, time=38),\n",
       "   Message('note_on', channel=0, note=70, velocity=0, time=1),\n",
       "   Message('note_on', channel=0, note=70, velocity=85, time=199),\n",
       "   Message('note_on', channel=0, note=58, velocity=81, time=0),\n",
       "   Message('note_on', channel=0, note=71, velocity=0, time=73),\n",
       "   Message('note_on', channel=0, note=59, velocity=0, time=6),\n",
       "   Message('note_on', channel=0, note=80, velocity=77, time=157),\n",
       "   Message('note_on', channel=0, note=68, velocity=84, time=1),\n",
       "   Message('note_on', channel=0, note=56, velocity=72, time=0),\n",
       "   Message('note_on', channel=0, note=70, velocity=0, time=48),\n",
       "   Message('note_on', channel=0, note=58, velocity=0, time=5),\n",
       "   Message('note_on', channel=0, note=56, velocity=0, time=59),\n",
       "   Message('note_on', channel=0, note=54, velocity=73, time=115),\n",
       "   Message('note_on', channel=0, note=78, velocity=72, time=3),\n",
       "   Message('note_on', channel=0, note=66, velocity=76, time=1),\n",
       "   Message('note_on', channel=0, note=68, velocity=0, time=61),\n",
       "   Message('note_on', channel=0, note=80, velocity=0, time=89),\n",
       "   Message('note_on', channel=0, note=52, velocity=69, time=59),\n",
       "   Message('note_on', channel=0, note=64, velocity=80, time=35),\n",
       "   Message('note_on', channel=0, note=76, velocity=64, time=1),\n",
       "   Message('note_on', channel=0, note=54, velocity=0, time=1),\n",
       "   Message('note_on', channel=0, note=66, velocity=0, time=54),\n",
       "   Message('note_on', channel=0, note=78, velocity=0, time=3),\n",
       "   Message('note_on', channel=0, note=63, velocity=78, time=165),\n",
       "   Message('note_on', channel=0, note=51, velocity=72, time=0),\n",
       "   Message('note_on', channel=0, note=75, velocity=67, time=1),\n",
       "   Message('note_on', channel=0, note=76, velocity=0, time=34),\n",
       "   Message('note_on', channel=0, note=52, velocity=0, time=1),\n",
       "   Message('note_on', channel=0, note=64, velocity=0, time=22),\n",
       "   Message('note_on', channel=0, note=75, velocity=0, time=31),\n",
       "   Message('note_on', channel=0, note=49, velocity=74, time=145),\n",
       "   Message('note_on', channel=0, note=61, velocity=79, time=4),\n",
       "   Message('note_on', channel=0, note=73, velocity=67, time=1),\n",
       "   Message('note_on', channel=0, note=51, velocity=0, time=23),\n",
       "   Message('note_on', channel=0, note=63, velocity=0, time=11),\n",
       "   Message('note_on', channel=0, note=47, velocity=68, time=236),\n",
       "   Message('note_on', channel=0, note=59, velocity=68, time=0),\n",
       "   Message('note_on', channel=0, note=73, velocity=0, time=2),\n",
       "   Message('note_on', channel=0, note=71, velocity=63, time=1),\n",
       "   Message('note_on', channel=0, note=49, velocity=0, time=44),\n",
       "   Message('note_on', channel=0, note=61, velocity=0, time=6),\n",
       "   Message('note_on', channel=0, note=47, velocity=0, time=395),\n",
       "   Message('note_on', channel=0, note=71, velocity=0, time=102),\n",
       "   Message('note_on', channel=0, note=59, velocity=0, time=1),\n",
       "   Message('note_on', channel=0, note=59, velocity=75, time=314),\n",
       "   Message('note_on', channel=0, note=63, velocity=74, time=1),\n",
       "   Message('note_on', channel=0, note=71, velocity=72, time=1),\n",
       "   Message('note_on', channel=0, note=75, velocity=69, time=0),\n",
       "   Message('note_on', channel=0, note=47, velocity=60, time=4),\n",
       "   Message('note_on', channel=0, note=66, velocity=67, time=2),\n",
       "   Message('note_on', channel=0, note=54, velocity=65, time=0),\n",
       "   Message('note_on', channel=0, note=51, velocity=64, time=1),\n",
       "   Message('control_change', channel=0, control=64, value=127, time=756),\n",
       "   Message('note_on', channel=0, note=66, velocity=0, time=346),\n",
       "   Message('note_on', channel=0, note=66, velocity=29, time=10),\n",
       "   Message('note_on', channel=0, note=71, velocity=0, time=36),\n",
       "   Message('note_on', channel=0, note=75, velocity=0, time=0),\n",
       "   Message('note_on', channel=0, note=51, velocity=0, time=1),\n",
       "   Message('note_on', channel=0, note=63, velocity=0, time=1),\n",
       "   Message('note_on', channel=0, note=59, velocity=0, time=1),\n",
       "   Message('control_change', channel=0, control=64, value=0, time=0),\n",
       "   Message('note_on', channel=0, note=47, velocity=0, time=0),\n",
       "   Message('note_on', channel=0, note=66, velocity=0, time=0),\n",
       "   Message('note_on', channel=0, note=54, velocity=0, time=1),\n",
       "   Message('note_on', channel=0, note=65, velocity=67, time=3479),\n",
       "   Message('note_on', channel=0, note=53, velocity=65, time=0),\n",
       "   Message('note_on', channel=0, note=79, velocity=78, time=238),\n",
       "   Message('note_on', channel=0, note=67, velocity=83, time=0),\n",
       "   Message('note_on', channel=0, note=55, velocity=74, time=1),\n",
       "   Message('note_on', channel=0, note=53, velocity=0, time=80),\n",
       "   Message('note_on', channel=0, note=65, velocity=0, time=26),\n",
       "   Message('note_on', channel=0, note=55, velocity=0, time=127),\n",
       "   Message('note_on', channel=0, note=55, velocity=69, time=7),\n",
       "   Message('note_on', channel=0, note=81, velocity=81, time=2),\n",
       "   Message('note_on', channel=0, note=57, velocity=75, time=0),\n",
       "   Message('note_on', channel=0, note=69, velocity=85, time=1),\n",
       "   Message('note_on', channel=0, note=79, velocity=0, time=52),\n",
       "   Message('note_on', channel=0, note=55, velocity=0, time=26),\n",
       "   Message('note_on', channel=0, note=67, velocity=0, time=12),\n",
       "   Message('note_on', channel=0, note=70, velocity=82, time=123),\n",
       "   Message('note_on', channel=0, note=58, velocity=79, time=2),\n",
       "   Message('note_on', channel=0, note=81, velocity=0, time=6),\n",
       "   Message('note_on', channel=0, note=57, velocity=0, time=44),\n",
       "   Message('note_on', channel=0, note=69, velocity=0, time=5),\n",
       "   Message('note_on', channel=0, note=72, velocity=87, time=168),\n",
       "   Message('note_on', channel=0, note=60, velocity=77, time=11),\n",
       "   Message('note_on', channel=0, note=70, velocity=0, time=31),\n",
       "   Message('note_on', channel=0, note=58, velocity=0, time=7),\n",
       "   Message('note_on', channel=0, note=74, velocity=92, time=204),\n",
       "   Message('note_on', channel=0, note=62, velocity=79, time=1),\n",
       "   Message('note_on', channel=0, note=72, velocity=0, time=40),\n",
       "   Message('note_on', channel=0, note=60, velocity=0, time=0),\n",
       "   Message('note_on', channel=0, note=64, velocity=79, time=192),\n",
       "   Message('note_on', channel=0, note=76, velocity=91, time=0),\n",
       "   Message('note_on', channel=0, note=74, velocity=0, time=80),\n",
       "   Message('note_on', channel=0, note=62, velocity=0, time=17),\n",
       "   Message('note_on', channel=0, note=77, velocity=90, time=132),\n",
       "   Message('note_on', channel=0, note=65, velocity=75, time=1),\n",
       "   Message('note_on', channel=0, note=64, velocity=0, time=78),\n",
       "   Message('note_on', channel=0, note=76, velocity=0, time=6),\n",
       "   Message('note_on', channel=0, note=76, velocity=88, time=153),\n",
       "   Message('note_on', channel=0, note=64, velocity=75, time=0),\n",
       "   Message('note_on', channel=0, note=77, velocity=0, time=74),\n",
       "   Message('note_on', channel=0, note=65, velocity=0, time=12),\n",
       "   Message('note_on', channel=0, note=62, velocity=73, time=135),\n",
       "   Message('note_on', channel=0, note=74, velocity=84, time=3),\n",
       "   Message('note_on', channel=0, note=64, velocity=0, time=30),\n",
       "   Message('note_on', channel=0, note=76, velocity=0, time=58),\n",
       "   Message('note_on', channel=0, note=60, velocity=75, time=149),\n",
       "   Message('note_on', channel=0, note=72, velocity=85, time=0),\n",
       "   Message('note_on', channel=0, note=74, velocity=0, time=38),\n",
       "   Message('note_on', channel=0, note=62, velocity=0, time=1),\n",
       "   Message('note_on', channel=0, note=70, velocity=74, time=200),\n",
       "   Message('note_on', channel=0, note=58, velocity=70, time=10),\n",
       "   Message('note_on', channel=0, note=72, velocity=0, time=55),\n",
       "   Message('note_on', channel=0, note=60, velocity=0, time=15),\n",
       "   Message('note_on', channel=0, note=69, velocity=74, time=152),\n",
       "   Message('note_on', channel=0, note=57, velocity=64, time=18),\n",
       "   Message('note_on', channel=0, note=58, velocity=0, time=15),\n",
       "   Message('note_on', channel=0, note=70, velocity=0, time=3),\n",
       "   Message('note_on', channel=0, note=79, velocity=72, time=213),\n",
       "   Message('note_on', channel=0, note=67, velocity=75, time=1),\n",
       "   Message('note_on', channel=0, note=55, velocity=66, time=1),\n",
       "   Message('note_on', channel=0, note=69, velocity=0, time=39),\n",
       "   Message('note_on', channel=0, note=57, velocity=0, time=7),\n",
       "   Message('note_on', channel=0, note=53, velocity=61, time=216),\n",
       "   Message('note_on', channel=0, note=65, velocity=64, time=1),\n",
       "   Message('note_on', channel=0, note=77, velocity=59, time=1),\n",
       "   Message('note_on', channel=0, note=72, velocity=50, time=2),\n",
       "   Message('note_on', channel=0, note=72, velocity=0, time=7),\n",
       "   Message('note_on', channel=0, note=79, velocity=0, time=0),\n",
       "   Message('note_on', channel=0, note=67, velocity=0, time=30),\n",
       "   Message('note_on', channel=0, note=77, velocity=0, time=32),\n",
       "   Message('note_on', channel=0, note=55, velocity=0, time=22),\n",
       "   Message('note_on', channel=0, note=53, velocity=0, time=328),\n",
       "   Message('note_on', channel=0, note=65, velocity=0, time=54),\n",
       "   Message('note_on', channel=0, note=72, velocity=74, time=281),\n",
       "   Message('note_on', channel=0, note=65, velocity=63, time=2),\n",
       "   Message('note_on', channel=0, note=69, velocity=65, time=8),\n",
       "   Message('note_on', channel=0, note=60, velocity=56, time=9),\n",
       "   Message('note_on', channel=0, note=53, velocity=52, time=0),\n",
       "   Message('note_on', channel=0, note=45, velocity=47, time=3),\n",
       "   Message('note_on', channel=0, note=48, velocity=46, time=3),\n",
       "   Message('note_on', channel=0, note=57, velocity=56, time=1),\n",
       "   Message('note_on', channel=0, note=45, velocity=0, time=3),\n",
       "   Message('note_on', channel=0, note=48, velocity=0, time=0),\n",
       "   Message('control_change', channel=0, control=64, value=127, time=146),\n",
       "   Message('control_change', channel=0, control=64, value=0, time=843),\n",
       "   Message('note_on', channel=0, note=60, velocity=0, time=1),\n",
       "   Message('note_on', channel=0, note=57, velocity=0, time=2),\n",
       "   Message('note_on', channel=0, note=69, velocity=0, time=1),\n",
       "   Message('note_on', channel=0, note=72, velocity=0, time=1),\n",
       "   Message('note_on', channel=0, note=53, velocity=0, time=0),\n",
       "   Message('note_on', channel=0, note=65, velocity=0, time=1),\n",
       "   Message('note_on', channel=0, note=58, velocity=76, time=681),\n",
       "   Message('note_on', channel=0, note=46, velocity=64, time=4),\n",
       "   Message('control_change', channel=0, control=64, value=127, time=71),\n",
       "   Message('note_on', channel=0, note=48, velocity=70, time=159),\n",
       "   Message('note_on', channel=0, note=60, velocity=74, time=7),\n",
       "   Message('note_on', channel=0, note=72, velocity=68, time=6),\n",
       "   Message('control_change', channel=0, control=64, value=0, time=48),\n",
       "   Message('note_on', channel=0, note=58, velocity=0, time=3),\n",
       "   Message('note_on', channel=0, note=46, velocity=0, time=61),\n",
       "   Message('note_on', channel=0, note=62, velocity=73, time=129),\n",
       "   Message('note_on', channel=0, note=50, velocity=70, time=2),\n",
       "   Message('note_on', channel=0, note=74, velocity=67, time=1),\n",
       "   Message('note_on', channel=0, note=48, velocity=0, time=5),\n",
       "   Message('note_on', channel=0, note=74, velocity=0, time=1),\n",
       "   Message('note_on', channel=0, note=72, velocity=0, time=47),\n",
       "   Message('note_on', channel=0, note=60, velocity=0, time=12),\n",
       "   Message('note_on', channel=0, note=51, velocity=71, time=169),\n",
       "   Message('note_on', channel=0, note=63, velocity=75, time=6),\n",
       "   Message('note_on', channel=0, note=75, velocity=70, time=1),\n",
       "   Message('note_on', channel=0, note=50, velocity=0, time=19),\n",
       "   Message('note_on', channel=0, note=62, velocity=0, time=4),\n",
       "   Message('note_on', channel=0, note=75, velocity=0, time=119),\n",
       "   Message('note_on', channel=0, note=53, velocity=73, time=95),\n",
       "   Message('note_on', channel=0, note=65, velocity=74, time=2),\n",
       "   Message('note_on', channel=0, note=51, velocity=0, time=41),\n",
       "   Message('note_on', channel=0, note=63, velocity=0, time=4),\n",
       "   Message('note_on', channel=0, note=79, velocity=76, time=185),\n",
       "   Message('note_on', channel=0, note=55, velocity=75, time=0),\n",
       "   Message('note_on', channel=0, note=67, velocity=85, time=1),\n",
       "   Message('note_on', channel=0, note=53, velocity=0, time=40),\n",
       "   Message('note_on', channel=0, note=65, velocity=0, time=36),\n",
       "   Message('note_on', channel=0, note=81, velocity=84, time=161),\n",
       "   Message('note_on', channel=0, note=69, velocity=87, time=2),\n",
       "   Message('note_on', channel=0, note=57, velocity=78, time=3),\n",
       "   Message('note_on', channel=0, note=55, velocity=0, time=87),\n",
       "   Message('note_on', channel=0, note=67, velocity=0, time=1),\n",
       "   Message('note_on', channel=0, note=79, velocity=0, time=2),\n",
       "   Message('note_on', channel=0, note=58, velocity=80, time=127),\n",
       "   Message('note_on', channel=0, note=70, velocity=87, time=16),\n",
       "   Message('note_on', channel=0, note=81, velocity=0, time=11),\n",
       "   Message('note_on', channel=0, note=69, velocity=0, time=8),\n",
       "   Message('note_on', channel=0, note=57, velocity=0, time=3),\n",
       "   Message('note_on', channel=0, note=57, velocity=67, time=213),\n",
       "   Message('note_on', channel=0, note=81, velocity=73, time=4),\n",
       "   Message('note_on', channel=0, note=69, velocity=76, time=3),\n",
       "   Message('note_on', channel=0, note=70, velocity=0, time=29),\n",
       "   Message('note_on', channel=0, note=58, velocity=0, time=5),\n",
       "   Message('note_on', channel=0, note=81, velocity=0, time=150),\n",
       "   Message('note_on', channel=0, note=55, velocity=69, time=41),\n",
       "   Message('note_on', channel=0, note=79, velocity=73, time=9),\n",
       "   Message('note_on', channel=0, note=67, velocity=77, time=4),\n",
       "   Message('note_on', channel=0, note=57, velocity=0, time=34),\n",
       "   Message('note_on', channel=0, note=69, velocity=0, time=14),\n",
       "   Message('note_on', channel=0, note=53, velocity=75, time=161),\n",
       "   Message('note_on', channel=0, note=79, velocity=0, time=13),\n",
       "   Message('note_on', channel=0, note=77, velocity=69, time=5),\n",
       "   Message('note_on', channel=0, note=65, velocity=75, time=0),\n",
       "   Message('note_on', channel=0, note=67, velocity=0, time=43),\n",
       "   Message('note_on', channel=0, note=55, velocity=0, time=4),\n",
       "   Message('note_on', channel=0, note=77, velocity=0, time=33),\n",
       "   Message('note_on', channel=0, note=63, velocity=76, time=148),\n",
       "   Message('note_on', channel=0, note=75, velocity=66, time=0),\n",
       "   Message('note_on', channel=0, note=51, velocity=69, time=2),\n",
       "   Message('note_on', channel=0, note=53, velocity=0, time=43),\n",
       "   Message('note_on', channel=0, note=65, velocity=0, time=3),\n",
       "   Message('note_on', channel=0, note=75, velocity=0, time=57),\n",
       "   Message('note_on', channel=0, note=74, velocity=67, time=138),\n",
       "   Message('note_on', channel=0, note=62, velocity=73, time=3),\n",
       "   Message('note_on', channel=0, note=50, velocity=72, time=2),\n",
       "   Message('note_on', channel=0, note=74, velocity=0, time=3),\n",
       "   Message('note_on', channel=0, note=63, velocity=0, time=26),\n",
       "   Message('note_on', channel=0, note=51, velocity=0, time=5),\n",
       "   Message('note_on', channel=0, note=48, velocity=70, time=203),\n",
       "   Message('note_on', channel=0, note=60, velocity=73, time=5),\n",
       "   Message('note_on', channel=0, note=72, velocity=68, time=0),\n",
       "   Message('note_on', channel=0, note=50, velocity=0, time=4),\n",
       "   Message('note_on', channel=0, note=62, velocity=0, time=13),\n",
       "   Message('note_on', channel=0, note=70, velocity=65, time=225),\n",
       "   Message('note_on', channel=0, note=58, velocity=72, time=0),\n",
       "   Message('note_on', channel=0, note=46, velocity=67, time=1),\n",
       "   Message('note_on', channel=0, note=48, velocity=0, time=51),\n",
       "   Message('note_on', channel=0, note=72, velocity=0, time=4),\n",
       "   Message('note_on', channel=0, note=60, velocity=0, time=4),\n",
       "   Message('note_on', channel=0, note=46, velocity=0, time=439),\n",
       "   Message('note_on', channel=0, note=58, velocity=0, time=1),\n",
       "   Message('note_on', channel=0, note=70, velocity=0, time=2),\n",
       "   Message('note_on', channel=0, note=58, velocity=74, time=357),\n",
       "   Message('note_on', channel=0, note=62, velocity=71, time=3),\n",
       "   Message('note_on', channel=0, note=50, velocity=69, time=3),\n",
       "   Message('note_on', channel=0, note=46, velocity=68, time=0),\n",
       "   Message('note_on', channel=0, note=53, velocity=67, time=1),\n",
       "   Message('note_on', channel=0, note=65, velocity=69, time=0),\n",
       "   Message('control_change', channel=0, control=64, value=127, time=473),\n",
       "   Message('note_on', channel=0, note=53, velocity=0, time=425),\n",
       "   Message('note_on', channel=0, note=65, velocity=0, time=1),\n",
       "   Message('note_on', channel=0, note=58, velocity=0, time=1),\n",
       "   Message('note_on', channel=0, note=46, velocity=0, time=1),\n",
       "   Message('note_on', channel=0, note=50, velocity=0, time=0),\n",
       "   Message('control_change', channel=0, control=64, value=0, time=2),\n",
       "   Message('note_on', channel=0, note=62, velocity=0, time=1),\n",
       "   Message('note_on', channel=0, note=63, velocity=67, time=473),\n",
       "   Message('note_on', channel=0, note=51, velocity=66, time=0),\n",
       "   Message('note_on', channel=0, note=53, velocity=73, time=214),\n",
       "   Message('note_on', channel=0, note=65, velocity=69, time=28),\n",
       "   Message('note_on', channel=0, note=51, velocity=0, time=60),\n",
       "   Message('note_on', channel=0, note=63, velocity=0, time=10),\n",
       "   Message('note_on', channel=0, note=65, velocity=0, time=151),\n",
       "   Message('note_on', channel=0, note=79, velocity=76, time=3),\n",
       "   Message('note_on', channel=0, note=55, velocity=76, time=1),\n",
       "   Message('note_on', channel=0, note=67, velocity=83, time=0),\n",
       "   Message('note_on', channel=0, note=65, velocity=62, time=7),\n",
       "   Message('note_on', channel=0, note=53, velocity=0, time=19),\n",
       "   Message('note_on', channel=0, note=65, velocity=0, time=67),\n",
       "   Message('note_on', channel=0, note=80, velocity=74, time=136),\n",
       "   Message('note_on', channel=0, note=68, velocity=82, time=1),\n",
       "   Message('note_on', channel=0, note=56, velocity=72, time=1),\n",
       "   Message('note_on', channel=0, note=55, velocity=0, time=31),\n",
       "   Message('note_on', channel=0, note=67, velocity=0, time=34),\n",
       "   Message('note_on', channel=0, note=79, velocity=0, time=7),\n",
       "   Message('note_on', channel=0, note=56, velocity=0, time=23),\n",
       "   Message('note_on', channel=0, note=58, velocity=77, time=127),\n",
       "   Message('note_on', channel=0, note=70, velocity=82, time=8),\n",
       "   Message('note_on', channel=0, note=68, velocity=0, time=20),\n",
       "   Message('note_on', channel=0, note=80, velocity=0, time=14),\n",
       "   Message('note_on', channel=0, note=58, velocity=0, time=115),\n",
       "   Message('note_on', channel=0, note=60, velocity=76, time=76),\n",
       "   Message('note_on', channel=0, note=58, velocity=74, time=2),\n",
       "   Message('note_on', channel=0, note=72, velocity=88, time=2),\n",
       "   Message('note_on', channel=0, note=70, velocity=0, time=35),\n",
       "   Message('note_on', channel=0, note=58, velocity=0, time=28),\n",
       "   Message('note_on', channel=0, note=60, velocity=0, time=172),\n",
       "   Message('note_on', channel=0, note=62, velocity=75, time=4),\n",
       "   Message('note_on', channel=0, note=74, velocity=84, time=2),\n",
       "   Message('note_on', channel=0, note=60, velocity=65, time=0),\n",
       "   Message('note_on', channel=0, note=60, velocity=0, time=63),\n",
       "   Message('note_on', channel=0, note=72, velocity=0, time=13),\n",
       "   Message('note_on', channel=0, note=63, velocity=73, time=146),\n",
       "   Message('note_on', channel=0, note=75, velocity=95, time=4),\n",
       "   Message('note_on', channel=0, note=74, velocity=0, time=32),\n",
       "   Message('note_on', channel=0, note=62, velocity=0, time=1),\n",
       "   Message('note_on', channel=0, note=74, velocity=84, time=182),\n",
       "   Message('note_on', channel=0, note=62, velocity=74, time=4),\n",
       "   Message('note_on', channel=0, note=63, velocity=0, time=95),\n",
       "   Message('note_on', channel=0, note=75, velocity=0, time=3),\n",
       "   Message('note_on', channel=0, note=60, velocity=79, time=144),\n",
       "   Message('note_on', channel=0, note=72, velocity=85, time=0),\n",
       "   Message('note_on', channel=0, note=74, velocity=0, time=31),\n",
       "   Message('note_on', channel=0, note=62, velocity=0, time=21),\n",
       "   Message('note_on', channel=0, note=70, velocity=75, time=174),\n",
       "   Message('note_on', channel=0, note=58, velocity=71, time=1),\n",
       "   Message('note_on', channel=0, note=72, velocity=0, time=52),\n",
       "   Message('note_on', channel=0, note=60, velocity=0, time=8),\n",
       "   Message('note_on', channel=0, note=80, velocity=67, time=169),\n",
       "   Message('note_on', channel=0, note=68, velocity=74, time=5),\n",
       "   Message('note_on', channel=0, note=56, velocity=63, time=0),\n",
       "   Message('note_on', channel=0, note=70, velocity=0, time=89),\n",
       "   Message('note_on', channel=0, note=58, velocity=0, time=1),\n",
       "   Message('note_on', channel=0, note=55, velocity=70, time=134),\n",
       "   Message('note_on', channel=0, note=79, velocity=70, time=2),\n",
       "   Message('note_on', channel=0, note=67, velocity=74, time=4),\n",
       "   Message('note_on', channel=0, note=56, velocity=0, time=68),\n",
       "   Message('note_on', channel=0, note=80, velocity=0, time=0),\n",
       "   Message('note_on', channel=0, note=68, velocity=0, time=8),\n",
       "   Message('note_on', channel=0, note=53, velocity=68, time=134),\n",
       "   Message('note_on', channel=0, note=65, velocity=70, time=25),\n",
       "   Message('note_on', channel=0, note=55, velocity=0, time=37),\n",
       "   Message('note_on', channel=0, note=79, velocity=0, time=3),\n",
       "   Message('note_on', channel=0, note=67, velocity=0, time=13),\n",
       "   Message('note_on', channel=0, note=63, velocity=69, time=184),\n",
       "   Message('note_on', channel=0, note=75, velocity=57, time=6),\n",
       "   Message('note_on', channel=0, note=75, velocity=0, time=5),\n",
       "   Message('note_on', channel=0, note=51, velocity=68, time=1),\n",
       "   Message('note_on', channel=0, note=53, velocity=0, time=26),\n",
       "   Message('note_on', channel=0, note=65, velocity=0, time=5),\n",
       "   Message('note_on', channel=0, note=51, velocity=0, time=412),\n",
       "   Message('note_on', channel=0, note=63, velocity=0, time=32),\n",
       "   Message('note_on', channel=0, note=79, velocity=77, time=356),\n",
       "   Message('note_on', channel=0, note=63, velocity=73, time=2),\n",
       "   Message('note_on', channel=0, note=75, velocity=76, time=0),\n",
       "   Message('note_on', channel=0, note=67, velocity=75, time=0),\n",
       "   Message('note_on', channel=0, note=70, velocity=78, time=6),\n",
       "   Message('note_on', channel=0, note=58, velocity=69, time=1),\n",
       "   Message('note_on', channel=0, note=51, velocity=65, time=1),\n",
       "   Message('note_on', channel=0, note=55, velocity=69, time=0),\n",
       "   Message('control_change', channel=0, control=64, value=127, time=48),\n",
       "   Message('control_change', channel=0, control=64, value=0, time=1063),\n",
       "   Message('note_on', channel=0, note=58, velocity=0, time=0),\n",
       "   Message('note_on', channel=0, note=70, velocity=0, time=9),\n",
       "   Message('note_on', channel=0, note=63, velocity=0, time=8),\n",
       "   Message('note_on', channel=0, note=51, velocity=0, time=1),\n",
       "   Message('note_on', channel=0, note=67, velocity=0, time=0),\n",
       "   Message('note_on', channel=0, note=75, velocity=0, time=1),\n",
       "   Message('note_on', channel=0, note=79, velocity=0, time=1),\n",
       "   Message('note_on', channel=0, note=55, velocity=0, time=3),\n",
       "   Message('note_on', channel=0, note=44, velocity=58, time=454),\n",
       "   Message('note_on', channel=0, note=56, velocity=60, time=2),\n",
       "   Message('note_on', channel=0, note=46, velocity=71, time=230),\n",
       "   Message('note_on', channel=0, note=58, velocity=80, time=1),\n",
       "   Message('note_on', channel=0, note=56, velocity=0, time=94),\n",
       "   Message('note_on', channel=0, note=44, velocity=0, time=30),\n",
       "   Message('note_on', channel=0, note=48, velocity=77, time=112),\n",
       "   Message('note_on', channel=0, note=60, velocity=78, time=6),\n",
       "   Message('note_on', channel=0, note=46, velocity=0, time=13),\n",
       "   Message('note_on', channel=0, note=58, velocity=0, time=11),\n",
       "   Message('note_on', channel=0, note=49, velocity=67, time=214),\n",
       "   Message('note_on', channel=0, note=61, velocity=74, time=2),\n",
       "   Message('note_on', channel=0, note=48, velocity=0, time=39),\n",
       "   Message('note_on', channel=0, note=60, velocity=0, time=57),\n",
       "   Message('note_on', channel=0, note=51, velocity=73, time=125),\n",
       "   Message('note_on', channel=0, note=63, velocity=80, time=2),\n",
       "   Message('note_on', channel=0, note=49, velocity=0, time=26),\n",
       "   Message('note_on', channel=0, note=61, velocity=0, time=4),\n",
       "   Message('note_on', channel=0, note=53, velocity=76, time=200),\n",
       "   Message('note_on', channel=0, note=65, velocity=69, time=1),\n",
       "   Message('note_on', channel=0, note=51, velocity=0, time=37),\n",
       "   Message('note_on', channel=0, note=63, velocity=0, time=12),\n",
       "   Message('note_on', channel=0, note=79, velocity=76, time=176),\n",
       "   Message('note_on', channel=0, note=67, velocity=83, time=2),\n",
       "   Message('note_on', channel=0, note=55, velocity=76, time=4),\n",
       "   Message('note_on', channel=0, note=77, velocity=45, time=20),\n",
       "   Message('note_on', channel=0, note=77, velocity=0, time=5),\n",
       "   Message('note_on', channel=0, note=53, velocity=0, time=10),\n",
       "   Message('note_on', channel=0, note=65, velocity=0, time=47),\n",
       "   Message('note_on', channel=0, note=56, velocity=74, time=139),\n",
       "   Message('note_on', channel=0, note=80, velocity=77, time=3),\n",
       "   Message('note_on', channel=0, note=68, velocity=90, time=5),\n",
       "   Message('note_on', channel=0, note=56, velocity=0, time=31),\n",
       "   Message('note_on', channel=0, note=55, velocity=0, time=3),\n",
       "   Message('note_on', channel=0, note=67, velocity=0, time=15),\n",
       "   Message('note_on', channel=0, note=79, velocity=0, time=0),\n",
       "   Message('note_on', channel=0, note=55, velocity=75, time=183),\n",
       "   Message('note_on', channel=0, note=56, velocity=72, time=4),\n",
       "   Message('note_on', channel=0, note=79, velocity=75, time=1),\n",
       "   Message('note_on', channel=0, note=67, velocity=79, time=1),\n",
       "   Message('note_on', channel=0, note=80, velocity=0, time=19),\n",
       "   Message('note_on', channel=0, note=79, velocity=0, time=30),\n",
       "   Message('note_on', channel=0, note=68, velocity=0, time=54),\n",
       "   Message('note_on', channel=0, note=56, velocity=0, time=2),\n",
       "   Message('note_on', channel=0, note=53, velocity=78, time=125),\n",
       "   Message('note_on', channel=0, note=77, velocity=68, time=24),\n",
       "   Message('note_on', channel=0, note=65, velocity=72, time=2),\n",
       "   Message('note_on', channel=0, note=55, velocity=0, time=38),\n",
       "   Message('note_on', channel=0, note=67, velocity=0, time=9),\n",
       "   Message('note_on', channel=0, note=77, velocity=0, time=23),\n",
       "   Message('note_on', channel=0, note=63, velocity=80, time=132),\n",
       "   Message('note_on', channel=0, note=75, velocity=65, time=3),\n",
       "   Message('note_on', channel=0, note=51, velocity=70, time=6),\n",
       "   Message('note_on', channel=0, note=53, velocity=0, time=39),\n",
       "   Message('note_on', channel=0, note=65, velocity=0, time=4),\n",
       "   Message('note_on', channel=0, note=75, velocity=0, time=54),\n",
       "   Message('note_on', channel=0, note=73, velocity=67, time=134),\n",
       "   Message('note_on', channel=0, note=61, velocity=76, time=1),\n",
       "   Message('note_on', channel=0, note=49, velocity=68, time=4),\n",
       "   Message('note_on', channel=0, note=51, velocity=0, time=77),\n",
       "   Message('note_on', channel=0, note=63, velocity=0, time=14),\n",
       "   Message('note_on', channel=0, note=73, velocity=0, time=108),\n",
       "   Message('note_on', channel=0, note=48, velocity=67, time=19),\n",
       "   Message('note_on', channel=0, note=60, velocity=76, time=1),\n",
       "   Message('note_on', channel=0, note=49, velocity=0, time=22),\n",
       "   Message('note_on', channel=0, note=61, velocity=0, time=19),\n",
       "   Message('note_on', channel=0, note=46, velocity=62, time=199),\n",
       "   Message('note_on', channel=0, note=70, velocity=66, time=2),\n",
       "   Message('note_on', channel=0, note=58, velocity=74, time=0),\n",
       "   Message('note_on', channel=0, note=70, velocity=0, time=7),\n",
       "   Message('note_on', channel=0, note=48, velocity=0, time=2),\n",
       "   Message('note_on', channel=0, note=60, velocity=0, time=34),\n",
       "   Message('note_on', channel=0, note=44, velocity=53, time=207),\n",
       "   Message('note_on', channel=0, note=56, velocity=58, time=0),\n",
       "   Message('note_on', channel=0, note=46, velocity=0, time=40),\n",
       "   Message('note_on', channel=0, note=58, velocity=0, time=64),\n",
       "   Message('note_on', channel=0, note=44, velocity=0, time=377),\n",
       "   Message('note_on', channel=0, note=56, velocity=0, time=0),\n",
       "   Message('note_on', channel=0, note=60, velocity=77, time=388),\n",
       "   Message('note_on', channel=0, note=56, velocity=65, time=5),\n",
       "   Message('note_on', channel=0, note=63, velocity=70, time=1),\n",
       "   Message('note_on', channel=0, note=48, velocity=63, time=0),\n",
       "   Message('note_on', channel=0, note=44, velocity=56, time=3),\n",
       "   Message('note_on', channel=0, note=51, velocity=60, time=0),\n",
       "   Message('note_on', channel=0, note=63, velocity=0, time=845),\n",
       "   Message('note_on', channel=0, note=63, velocity=25, time=7),\n",
       "   Message('note_on', channel=0, note=60, velocity=0, time=16),\n",
       "   Message('note_on', channel=0, note=60, velocity=43, time=5),\n",
       "   Message('note_on', channel=0, note=51, velocity=0, time=3),\n",
       "   Message('note_on', channel=0, note=48, velocity=0, time=3),\n",
       "   Message('note_on', channel=0, note=56, velocity=0, time=0),\n",
       "   Message('note_on', channel=0, note=51, velocity=22, time=1),\n",
       "   Message('note_on', channel=0, note=44, velocity=0, time=0),\n",
       "   Message('note_on', channel=0, note=60, velocity=0, time=38),\n",
       "   Message('note_on', channel=0, note=51, velocity=0, time=4),\n",
       "   Message('note_on', channel=0, note=63, velocity=0, time=7),\n",
       "   Message('note_on', channel=0, note=49, velocity=60, time=449),\n",
       "   Message('note_on', channel=0, note=61, velocity=69, time=0),\n",
       "   Message('note_on', channel=0, note=73, velocity=57, time=2),\n",
       "   Message('control_change', channel=0, control=64, value=127, time=164),\n",
       "   Message('note_on', channel=0, note=51, velocity=68, time=66),\n",
       "   Message('note_on', channel=0, note=63, velocity=78, time=2),\n",
       "   Message('note_on', channel=0, note=75, velocity=69, time=3),\n",
       "   Message('control_change', channel=0, control=64, value=0, time=1),\n",
       "   Message('note_on', channel=0, note=49, velocity=0, time=31),\n",
       "   Message('note_on', channel=0, note=61, velocity=0, time=5),\n",
       "   Message('note_on', channel=0, note=73, velocity=0, time=15),\n",
       "   Message('note_on', channel=0, note=75, velocity=0, time=46),\n",
       "   Message('note_on', channel=0, note=53, velocity=74, time=141),\n",
       "   Message('note_on', channel=0, note=65, velocity=72, time=1),\n",
       "   Message('note_on', channel=0, note=51, velocity=0, time=19),\n",
       "   Message('note_on', channel=0, note=63, velocity=0, time=5),\n",
       "   Message('note_on', channel=0, note=54, velocity=74, time=211),\n",
       "   Message('note_on', channel=0, note=66, velocity=81, time=1),\n",
       "   Message('note_on', channel=0, note=53, velocity=0, time=11),\n",
       "   Message('note_on', channel=0, note=65, velocity=0, time=82),\n",
       "   Message('note_on', channel=0, note=56, velocity=74, time=133),\n",
       "   Message('note_on', channel=0, note=68, velocity=88, time=13),\n",
       "   Message('note_on', channel=0, note=54, velocity=0, time=25),\n",
       "   Message('note_on', channel=0, note=56, velocity=0, time=5),\n",
       "   Message('note_on', channel=0, note=66, velocity=0, time=69),\n",
       "   Message('note_on', channel=0, note=58, velocity=81, time=110),\n",
       "   Message('note_on', channel=0, note=70, velocity=82, time=12),\n",
       "   Message('note_on', channel=0, note=68, velocity=0, time=20),\n",
       "   Message('note_on', channel=0, note=72, velocity=88, time=199),\n",
       "   Message('note_on', channel=0, note=60, velocity=76, time=22),\n",
       "   Message('note_on', channel=0, note=70, velocity=0, time=20),\n",
       "   Message('note_on', channel=0, note=58, velocity=0, time=2),\n",
       "   Message('note_on', channel=0, note=73, velocity=89, time=208),\n",
       "   Message('note_on', channel=0, note=61, velocity=81, time=0),\n",
       "   Message('note_on', channel=0, note=72, velocity=0, time=19),\n",
       "   Message('note_on', channel=0, note=60, velocity=0, time=11),\n",
       "   Message('note_on', channel=0, note=72, velocity=87, time=198),\n",
       "   Message('note_on', channel=0, note=60, velocity=75, time=2),\n",
       "   Message('note_on', channel=0, note=73, velocity=0, time=37),\n",
       "   Message('note_on', channel=0, note=61, velocity=0, time=21),\n",
       "   Message('note_on', channel=0, note=70, velocity=78, time=167),\n",
       "   Message('note_on', channel=0, note=72, velocity=0, time=17),\n",
       "   Message('note_on', channel=0, note=72, velocity=58, time=6),\n",
       "   Message('note_on', channel=0, note=58, velocity=75, time=4),\n",
       "   Message('note_on', channel=0, note=60, velocity=0, time=56),\n",
       "   Message('note_on', channel=0, note=72, velocity=0, time=19),\n",
       "   Message('note_on', channel=0, note=68, velocity=88, time=142),\n",
       "   Message('note_on', channel=0, note=56, velocity=70, time=1),\n",
       "   Message('note_on', channel=0, note=58, velocity=0, time=37),\n",
       "   Message('note_on', channel=0, note=70, velocity=0, time=1),\n",
       "   Message('note_on', channel=0, note=56, velocity=0, time=4),\n",
       "   Message('note_on', channel=0, note=54, velocity=74, time=174),\n",
       "   Message('note_on', channel=0, note=66, velocity=77, time=12),\n",
       "   Message('note_on', channel=0, note=68, velocity=0, time=96),\n",
       "   Message('note_on', channel=0, note=53, velocity=82, time=128),\n",
       "   Message('note_on', channel=0, note=65, velocity=82, time=22),\n",
       "   Message('note_on', channel=0, note=54, velocity=0, time=14),\n",
       "   Message('note_on', channel=0, note=66, velocity=0, time=33),\n",
       "   Message('note_on', channel=0, note=51, velocity=73, time=162),\n",
       "   Message('note_on', channel=0, note=63, velocity=77, time=0),\n",
       "   Message('note_on', channel=0, note=53, velocity=0, time=26),\n",
       "   Message('note_on', channel=0, note=65, velocity=0, time=19),\n",
       "   Message('note_on', channel=0, note=61, velocity=75, time=205),\n",
       "   Message('note_on', channel=0, note=49, velocity=69, time=1),\n",
       "   Message('note_on', channel=0, note=51, velocity=0, time=44),\n",
       "   Message('note_on', channel=0, note=63, velocity=0, time=12),\n",
       "   Message('control_change', channel=0, control=64, value=127, time=203),\n",
       "   Message('control_change', channel=0, control=64, value=0, time=46),\n",
       "   Message('note_on', channel=0, note=49, velocity=0, time=156),\n",
       "   Message('note_on', channel=0, note=61, velocity=0, time=2),\n",
       "   Message('note_on', channel=0, note=73, velocity=68, time=387),\n",
       "   Message('note_on', channel=0, note=68, velocity=79, time=2),\n",
       "   Message('note_on', channel=0, note=65, velocity=74, time=2),\n",
       "   Message('note_on', channel=0, note=61, velocity=72, time=1),\n",
       "   Message('note_on', channel=0, note=53, velocity=69, time=0),\n",
       "   Message('note_on', channel=0, note=56, velocity=66, time=1),\n",
       "   Message('note_on', channel=0, note=49, velocity=65, time=1),\n",
       "   Message('control_change', channel=0, control=64, value=127, time=170),\n",
       "   Message('control_change', channel=0, control=64, value=0, time=46),\n",
       "   Message('control_change', channel=0, control=64, value=127, time=116),\n",
       "   Message('note_on', channel=0, note=53, velocity=0, time=668),\n",
       "   Message('note_on', channel=0, note=56, velocity=0, time=4),\n",
       "   Message('note_on', channel=0, note=68, velocity=0, time=0),\n",
       "   Message('control_change', channel=0, control=64, value=0, time=2),\n",
       "   Message('note_on', channel=0, note=61, velocity=0, time=4),\n",
       "   Message('note_on', channel=0, note=73, velocity=0, time=13),\n",
       "   Message('note_on', channel=0, note=49, velocity=0, time=12),\n",
       "   Message('note_on', channel=0, note=65, velocity=0, time=7),\n",
       "   Message('note_on', channel=0, note=54, velocity=68, time=408),\n",
       "   Message('note_on', channel=0, note=42, velocity=60, time=6),\n",
       "   Message('note_on', channel=0, note=54, velocity=0, time=227),\n",
       "   Message('note_on', channel=0, note=44, velocity=70, time=6),\n",
       "   Message('note_on', channel=0, note=56, velocity=71, time=0),\n",
       "   Message('note_on', channel=0, note=54, velocity=59, time=2),\n",
       "   Message('note_on', channel=0, note=42, velocity=0, time=36),\n",
       "   Message('note_on', channel=0, note=54, velocity=0, time=108),\n",
       "   Message('note_on', channel=0, note=46, velocity=73, time=89),\n",
       "   Message('note_on', channel=0, note=58, velocity=76, time=1),\n",
       "   Message('note_on', channel=0, note=44, velocity=0, time=73),\n",
       "   Message('note_on', channel=0, note=56, velocity=0, time=31),\n",
       "   Message('note_on', channel=0, note=47, velocity=80, time=126),\n",
       "   Message('note_on', channel=0, note=59, velocity=83, time=1),\n",
       "   Message('note_on', channel=0, note=46, velocity=0, time=29),\n",
       "   Message('note_on', channel=0, note=58, velocity=0, time=16),\n",
       "   Message('note_on', channel=0, note=49, velocity=71, time=201),\n",
       "   Message('note_on', channel=0, note=61, velocity=80, time=7),\n",
       "   Message('note_on', channel=0, note=47, velocity=0, time=3),\n",
       "   Message('note_on', channel=0, note=59, velocity=0, time=4),\n",
       "   Message('note_on', channel=0, note=51, velocity=78, time=208),\n",
       "   Message('note_on', channel=0, note=63, velocity=84, time=8),\n",
       "   Message('note_on', channel=0, note=49, velocity=0, time=31),\n",
       "   Message('note_on', channel=0, note=61, velocity=0, time=10),\n",
       "   Message('note_on', channel=0, note=65, velocity=78, time=194),\n",
       "   Message('note_on', channel=0, note=53, velocity=77, time=2),\n",
       "   Message('note_on', channel=0, note=51, velocity=0, time=28),\n",
       "   Message('note_on', channel=0, note=63, velocity=0, time=7),\n",
       "   Message('note_on', channel=0, note=54, velocity=78, time=204),\n",
       "   Message('note_on', channel=0, note=66, velocity=75, time=3),\n",
       "   Message('note_on', channel=0, note=53, velocity=0, time=20),\n",
       "   Message('note_on', channel=0, note=65, velocity=0, time=4),\n",
       "   Message('note_on', channel=0, note=53, velocity=74, time=176),\n",
       "   Message('note_on', channel=0, note=54, velocity=0, time=35),\n",
       "   Message('note_on', channel=0, note=65, velocity=73, time=0),\n",
       "   Message('note_on', channel=0, note=66, velocity=0, time=56),\n",
       "   Message('note_on', channel=0, note=63, velocity=83, time=177),\n",
       "   Message('note_on', channel=0, note=51, velocity=71, time=0),\n",
       "   Message('note_on', channel=0, note=53, velocity=0, time=37),\n",
       "   Message('note_on', channel=0, note=65, velocity=0, time=16),\n",
       "   Message('note_on', channel=0, note=49, velocity=74, time=159),\n",
       "   Message('note_on', channel=0, note=61, velocity=79, time=6),\n",
       "   Message('note_on', channel=0, note=51, velocity=0, time=33),\n",
       "   Message('note_on', channel=0, note=63, velocity=0, time=1),\n",
       "   Message('note_on', channel=0, note=47, velocity=79, time=220),\n",
       "   Message('note_on', channel=0, note=59, velocity=79, time=0),\n",
       "   Message('note_on', channel=0, note=49, velocity=0, time=9),\n",
       "   Message('note_on', channel=0, note=61, velocity=0, time=4),\n",
       "   Message('note_on', channel=0, note=46, velocity=70, time=221),\n",
       "   Message('note_on', channel=0, note=58, velocity=80, time=0),\n",
       "   Message('note_on', channel=0, note=47, velocity=0, time=41),\n",
       "   Message('note_on', channel=0, note=59, velocity=0, time=0),\n",
       "   Message('note_on', channel=0, note=56, velocity=69, time=194),\n",
       "   Message('note_on', channel=0, note=44, velocity=67, time=1),\n",
       "   Message('note_on', channel=0, note=46, velocity=0, time=16),\n",
       "   Message('note_on', channel=0, note=58, velocity=0, time=42),\n",
       "   Message('note_on', channel=0, note=54, velocity=63, time=179),\n",
       "   Message('note_on', channel=0, note=42, velocity=55, time=18),\n",
       "   Message('note_on', channel=0, note=56, velocity=0, time=71),\n",
       "   Message('note_on', channel=0, note=44, velocity=0, time=8),\n",
       "   Message('control_change', channel=0, control=64, value=127, time=338),\n",
       "   Message('note_on', channel=0, note=42, velocity=0, time=137),\n",
       "   Message('control_change', channel=0, control=64, value=0, time=4),\n",
       "   Message('note_on', channel=0, note=54, velocity=0, time=1),\n",
       "   Message('note_on', channel=0, note=58, velocity=77, time=368),\n",
       "   Message('note_on', channel=0, note=54, velocity=68, time=1),\n",
       "   Message('note_on', channel=0, note=49, velocity=65, time=2),\n",
       "   Message('note_on', channel=0, note=46, velocity=68, time=3),\n",
       "   Message('note_on', channel=0, note=42, velocity=63, time=1),\n",
       "   Message('note_on', channel=0, note=61, velocity=71, time=1),\n",
       "   Message('control_change', channel=0, control=64, value=127, time=933),\n",
       "   Message('control_change', channel=0, control=64, value=0, time=79),\n",
       "   Message('note_on', channel=0, note=42, velocity=0, time=11),\n",
       "   Message('note_on', channel=0, note=46, velocity=0, time=0),\n",
       "   Message('note_on', channel=0, note=54, velocity=0, time=0),\n",
       "   Message('note_on', channel=0, note=49, velocity=0, time=0),\n",
       "   Message('note_on', channel=0, note=58, velocity=0, time=4),\n",
       "   Message('note_on', channel=0, note=61, velocity=0, time=2),\n",
       "   MetaMessage('end_of_track', time=1)])]"
      ]
     },
     "execution_count": 19,
     "metadata": {},
     "output_type": "execute_result"
    }
   ],
   "source": [
    "%load_ext autoreload\n",
    "%autoreload 2\n",
    "\n",
    "import mido\n",
    "mid = mido.MidiFile('data/midis/Aaron, Michael, Piano Course, V8WvKK-1b2c.mid', clip=True)\n",
    "mid.tracks"
   ]
  },
  {
   "cell_type": "code",
   "execution_count": null,
   "metadata": {},
   "outputs": [],
   "source": []
  },
  {
   "cell_type": "code",
   "execution_count": 47,
   "metadata": {},
   "outputs": [],
   "source": [
    "import string\n",
    "import numpy as np"
   ]
  },
  {
   "cell_type": "code",
   "execution_count": 48,
   "metadata": {},
   "outputs": [],
   "source": [
    "def msg2dict(msg):\n",
    "    result = {}\n",
    "    if 'note_on' in msg:\n",
    "        on_ = True\n",
    "    elif 'note_off' in msg:\n",
    "        on_ = False\n",
    "    else:\n",
    "        on_ = None\n",
    "    result['time'] = int(msg[msg.rfind('time'):].split(' ')[0].split('=')[1].translate(\n",
    "        str.maketrans({a: None for a in string.punctuation})))\n",
    "\n",
    "    if on_ is not None:\n",
    "        for k in ['note', 'velocity']:\n",
    "            result[k] = int(msg[msg.rfind(k):].split(' ')[0].split('=')[1].translate(\n",
    "                str.maketrans({a: None for a in string.punctuation})))\n",
    "    return [result, on_]"
   ]
  },
  {
   "cell_type": "code",
   "execution_count": null,
   "metadata": {},
   "outputs": [],
   "source": []
  },
  {
   "cell_type": "code",
   "execution_count": 49,
   "metadata": {},
   "outputs": [],
   "source": [
    "def switch_note(last_state, note, velocity, on_=True):\n",
    "    # piano has 88 notes, corresponding to note id 21 to 108, any note out of this range will be ignored\n",
    "    result = [0] * 88 if last_state is None else last_state.copy()\n",
    "    if 21 <= note <= 108:\n",
    "        result[note-21] = velocity if on_ else 0\n",
    "    return result"
   ]
  },
  {
   "cell_type": "code",
   "execution_count": null,
   "metadata": {},
   "outputs": [],
   "source": []
  },
  {
   "cell_type": "code",
   "execution_count": 50,
   "metadata": {},
   "outputs": [],
   "source": [
    "def get_new_state(new_msg, last_state):\n",
    "    new_msg, on_ = msg2dict(str(new_msg))\n",
    "    new_state = switch_note(last_state, note=new_msg['note'], velocity=new_msg['velocity'], on_=on_) if on_ is not None else last_state\n",
    "    return [new_state, new_msg['time']]\n",
    "def track2seq(track):\n",
    "    # piano has 88 notes, corresponding to note id 21 to 108, any note out of the id range will be ignored\n",
    "    result = []\n",
    "    last_state, last_time = get_new_state(str(track[0]), [0]*88)\n",
    "    for i in range(1, len(track)):\n",
    "        new_state, new_time = get_new_state(track[i], last_state)\n",
    "        if new_time > 0:\n",
    "            result += [last_state]*new_time\n",
    "        last_state, last_time = new_state, new_time\n",
    "    return result"
   ]
  },
  {
   "cell_type": "code",
   "execution_count": 51,
   "metadata": {},
   "outputs": [],
   "source": [
    "def mid2arry(mid, min_msg_pct=0.1):\n",
    "    tracks_len = [len(tr) for tr in mid.tracks]\n",
    "    min_n_msg = max(tracks_len) * min_msg_pct\n",
    "    # convert each track to nested list\n",
    "    all_arys = []\n",
    "    for i in range(len(mid.tracks)):\n",
    "        if len(mid.tracks[i]) > min_n_msg:\n",
    "            ary_i = track2seq(mid.tracks[i])\n",
    "            all_arys.append(ary_i)\n",
    "    # make all nested list the same length\n",
    "    max_len = max([len(ary) for ary in all_arys])\n",
    "    for i in range(len(all_arys)):\n",
    "        if len(all_arys[i]) < max_len:\n",
    "            all_arys[i] += [[0] * 88] * (max_len - len(all_arys[i]))\n",
    "    all_arys = np.array(all_arys)\n",
    "    all_arys = all_arys.max(axis=0)\n",
    "    # trim: remove consecutive 0s in the beginning and at the end\n",
    "    sums = all_arys.sum(axis=1)\n",
    "    ends = np.where(sums > 0)[0]\n",
    "    return all_arys[min(ends): max(ends)]"
   ]
  },
  {
   "cell_type": "code",
   "execution_count": 54,
   "metadata": {},
   "outputs": [],
   "source": [
    "myarray=mid2arry(mid)"
   ]
  },
  {
   "cell_type": "code",
   "execution_count": 56,
   "metadata": {},
   "outputs": [
    {
     "data": {
      "text/plain": [
       "(1194185, 88)"
      ]
     },
     "execution_count": 56,
     "metadata": {},
     "output_type": "execute_result"
    }
   ],
   "source": [
    "myarray.shape"
   ]
  },
  {
   "cell_type": "code",
   "execution_count": 53,
   "metadata": {},
   "outputs": [
    {
     "data": {
      "image/png": "iVBORw0KGgoAAAANSUhEUgAAAh8AAAHFCAYAAABSEJsFAAAAOXRFWHRTb2Z0d2FyZQBNYXRwbG90bGliIHZlcnNpb24zLjguMywgaHR0cHM6Ly9tYXRwbG90bGliLm9yZy/H5lhTAAAACXBIWXMAAA9hAAAPYQGoP6dpAABIrklEQVR4nO3deXgUZbr38V8CJEFJwh4IhAAZFGQTESEoYDCIERkcQXBwQQQdGdBB8EVwAVTGIKJyzhhhcAGcw6KouIEyrIIIogiKsi8CiomCkASQEJJ6/2DSk+70Vt2d6u7k+7muXJ2uepa7nqrqvlP9dCXCMAxDAAAAFokMdgAAAKByIfkAAACWIvkAAACWIvkAAACWIvkAAACWIvkAAACWIvkAAACWIvkAAACWIvkAAACWIvkAEFamTZumli1bqri42Os6hYWFSkpK0ssvv1xm3dy5cxUREaEffvghgFGGr6ZNm+ruu+/2WI5xgz9IPgAnFixYoBkzZgQ7jIA5c+aMsrKydP3116thw4aKjY1Vhw4dNHPmTBUVFdmVnTx5siIiIlz+bNiwwet+v/zyS40aNUqtW7fWxRdfrCZNmmjgwIHas2ePT9uRl5enZ599Vo888ogiI71/+apWrZrGjBmjv//97zp79qxPfQMInAj+twtQ1k033aTvvvuuwvxV991336ldu3a67rrrdP311ysuLk7Lly/XkiVLdNddd2nevHm2st9++62+/fbbMm08+uijOnXqlLKzsxUVFeVVvwMGDNCGDRt06623ql27dsrOztZLL72kU6dOadOmTWrTpo2p7ZgxY4YmTZqknJwcxcTEmKp78uRJJSQkaObMmbrnnntsy4uKilRYWKjo6GhFRESYarMiKigoUGRkpKpVq+a23Ny5czV06FAdPHhQTZs2tSY4VBwGgDL69OljJCcnB7zd06dPB7xNb/z666/Gd999V2b50KFDDUnG3r173dY/fPiwERERYdx7772m+t2wYYNRUFBgt2zPnj1GdHS0cfvtt5tqyzAMo127dsYdd9xhul6Jm266yejWrZvP9fFfc+bMMSQZBw8eDHYoCEN87IKQV/IxwL59+3T33XerZs2aio+P19ChQ3XmzBlbufPnz+vpp59WSkqKoqOj1bRpUz366KMqKCgo0+bHH3+sHj16KDY2VnFxcerUqZMWLFggSbr22mu1dOlSHTp0yPZRQ8lfdq4+5167dq0iIiK0du1a27Jrr71Wbdq00ZYtW9S9e3dddNFFevTRR/XDDz8oIiJC06dP1+zZs23xdurUSV9++WWZWHft2qUBAwaodu3aiomJ0ZVXXqkPPvjA1BjWrVtXrVu3LrP8T3/6kyRp586dbusvXLhQhmHo9ttvN9Vv165dy1wladGihVq3bu2xT0cHDx7Ut99+q/T09DLriouL9T//8z9q27atYmJiVK9ePd1www366quv7Mr16tVLn332mX777TfbMmf7tGnTprrpppv02Wef6aqrrlJMTIyaN2+uN954o0zfBw4c0K233qratWvroosuUpcuXbR06VK7MmaOG0n64osvdMMNNyg+Pl4XXXSRevTo4dXHXSXtvfXWW3ryySfVqFEjxcbGasCAAcrNzVVBQYFGjx6t+vXrq0aNGho6dGiZ88PZnI/vv/9ePXv2VPXq1dW4cWNNmTLF1JwbwFHVYAcAeGvgwIFq1qyZMjMz9fXXX+vVV19V/fr19eyzz0qShg8frnnz5mnAgAEaO3asvvjiC2VmZmrnzp1asmSJrZ25c+fqnnvuUevWrTVhwgTVrFlTW7du1SeffKLBgwfrscceU25urn788Ue9+OKLkqQaNWr4FPPx48eVkZGh2267TXfccYcSEhJs6xYsWKD8/Hz95S9/UUREhKZNm6ZbbrlFBw4csF3y/v7773X11VerUaNGGj9+vC6++GK99dZbuvnmm/XOO+/YkgdfZWdnS7qQnLgzf/58JSUlqXv37n71J0mGYSgnJ8dpMuTO559/Lkm64ooryqwbNmyY5s6dq4yMDA0fPlznz5/X+vXrtWnTJl155ZW2ch07dpRhGPr888910003ue1v3759GjBggIYNG6YhQ4bo9ddf1913362OHTvaYs/JyVHXrl115swZPfjgg6pTp47mzZunP/7xj3r77bd92j+rV69WRkaGOnbsqEmTJikyMlJz5sxRz549tX79el111VUe28jMzFT16tU1fvx47du3T//4xz9UrVo1RUZG6sSJE5o8ebI2bdqkuXPnqlmzZpo4caLLtrKzs5WWlqbz58/bjsHZs2erevXqprcNsAnylRfAo0mTJhmSjHvuucdu+Z/+9CejTp06hmEYxrZt2wxJxvDhw+3KPPzww4YkY/Xq1YZhGMbJkyeN2NhYo3Pnzsbvv/9uV7a4uNj2u6uPXVxdal6zZo0hyVizZo1tWY8ePQxJxqxZs+zKHjx40JBk1KlTx/jtt99sy99//31DkvHhhx/all133XVG27ZtjbNnz9rF2bVrV6NFixZl4jOjoKDAuOyyy4xmzZoZhYWFLst99913hiRj3LhxfvVX4l//+pchyXjttddM1Xv88ccNSUZ+fr7d8tWrVxuSjAcffLBMndL71DAM4+jRo4Yk49lnn7Utc7ZPk5OTDUnGunXrbMt++eUXIzo62hg7dqxt2ejRow1Jxvr1623L8vPzjWbNmhlNmzY1ioqKXPZhGGWPm+LiYqNFixZG79697WI/c+aM0axZM6NXr15ux6ikvTZt2hjnzp2zLf/zn/9sREREGBkZGXblU1NTyxznycnJxpAhQ8ps4xdffGE3FvHx8XzsAp/xsQvCxv3332/3vFu3bjp+/Ljy8vK0bNkySdKYMWPsyowdO1aSbJfBV6xYofz8fI0fP77MhMXymGwYHR2toUOHOl03aNAg1apVy/a8W7duki5cxpek3377TatXr9bAgQOVn5+vY8eO6dixYzp+/Lh69+6tvXv36qeffvI5tlGjRmnHjh166aWXVLWq64ug8+fPlyTTH7k4s2vXLo0cOVKpqakaMmSIqbrHjx9X1apVy1yFeueddxQREaFJkyaVqeO4T0vG+9ixYx77u+yyy2z7RJLq1aunSy+91LZ/JGnZsmW66qqrdM0119iW1ahRQ/fdd59++OEH7dixw7uN+49t27Zp7969Gjx4sI4fP27b56dPn9Z1112ndevWefVxx1133WU3YbRz584yDMNuom3J8iNHjuj8+fMu21q2bJm6dOlid8WlXr16ATkeUHnxsQvCRpMmTeyel7yRnDhxQocOHVJkZKT+8Ic/2JVp0KCBatasqUOHDkmS9u/fL0mmv2Xhq0aNGrn8Zoi77ZEuXPY3DENPPPGEnnjiCadt/PLLL2rUqJHpuJ577jm98sorevrpp3XjjTe6LGcYhhYsWKA2bdqoXbt2pvspLTs7W3369FF8fLzefvttValSxa/2Suzfv1+JiYmqXbu2x7LGf77c502i6bh/pAv7qGT/SNKhQ4fUuXPnMuVatWplW2/mWNu7d68kuU3McnNz7ZJWZxxjj4+PlyQlJSWVWV5cXKzc3FzVqVPHaVuutvHSSy91GwPgDskHwoarNyuj1LfFy/urkq7ad7xXRgl3n4t72p6Sv3Affvhh9e7d22lZx2TLG3PnztUjjzyi+++/X48//rjbshs2bNChQ4eUmZlpup/ScnNzlZGRoZMnT2r9+vVKTEw03UadOnV0/vx55efnKzY21qc4ShIHT3NcJO+ON295e9yU7PPnnntOl19+udM63sw/chV7ILcJ8AfJByqE5ORkFRcXa+/evba/OqULEwJPnjyp5ORkSVJKSoqkC/e9cPfG7erNouQvzpMnT9otL7myEkjNmzeXdOEGWc6+4eGL999/X8OHD9ctt9yirKwsj+Xnz5+viIgIDR482Oc+z549q759+2rPnj1auXKlLrvsMp/aadmypaQL33opfRUmJSVFy5cv12+//ebx6sfBgwclye4Y8UdycrJ2795dZvmuXbts6yXvj5uS4zMuLi5g+9xfycnJtisypTnbbsBbzPlAhVDy0YHjXUlfeOEFSVKfPn0kSddff71iY2OVmZlZ5k6Xpf/6u/jii5Wbm1umn5I3h3Xr1tmWFRUVafbs2f5vhIP69evr2muv1T//+U/9/PPPZdb/+uuvptpbt26dbrvtNnXv3l3z58/3eIfQwsJCLV68WNdcc43TjyC8UVRUpEGDBmnjxo1avHixUlNTfWpHkq2u49dn+/fvL8Mw9OSTT5ap4/gX/ZYtWxQREeFXHKXdeOON2rx5szZu3Ghbdvr0ac2ePVtNmza1JVreHjcdO3ZUSkqKpk+frlOnTpXpr/Q+P3PmjHbt2uXV/BV/3Hjjjdq0aZM2b95sF0fJXCDAF1z5QIXQvn17DRkyRLNnz9bJkyfVo0cPbd68WfPmzdPNN9+stLQ0SRf+onzxxRc1fPhwderUSYMHD1atWrX0zTff6MyZM7Y7fXbs2FFvvvmmxowZo06dOqlGjRrq27evWrdurS5dumjChAm2v7QXLVrkdsKeP7KysnTNNdeobdu2uvfee9W8eXPl5ORo48aN+vHHH/XNN9941c6hQ4f0xz/+URERERowYIAWL15st75du3Zl5nQsX75cx48f92ti4dixY/XBBx+ob9+++u233/R///d/duvvuOMOr9tq3ry52rRpo5UrV9pNnExLS9Odd96p//3f/9XevXt1ww03qLi4WOvXr1daWppGjRplK7tixQpdffXVLuc3mDV+/HgtXLhQGRkZevDBB1W7dm3NmzdPBw8e1DvvvGNL8Lw9biIjI/Xqq68qIyNDrVu31tChQ9WoUSP99NNPWrNmjeLi4vThhx9KkjZv3qy0tDRNmjRJkydPDsj2ODNu3Dj961//0g033KC//e1vtq/aJicnO70TLuCVIH3LBvBayVdtf/31V7vljl9fLCwsNJ588kmjWbNmRrVq1YykpCRjwoQJdl9TLfHBBx8YXbt2NapXr27ExcUZV111lbFw4ULb+lOnThmDBw82atasaUiy+zri/v37jfT0dCM6OtpISEgwHn30UWPFihVOv2rbunXrMn2XfNX2ueeeK7NOkjFp0iS7Zfv37zfuuusuo0GDBka1atWMRo0aGTfddJPx9ttvezF6F5R8BdPVj2OfhmEYt912m1GtWjXj+PHjXvfjqOTrxq5+zHrhhReMGjVqGGfOnLFbfv78eeO5554zWrZsaURFRRn16tUzMjIyjC1bttjKnDx50oiKijJeffVVu7quvmrbp08fp9vTo0cPu2X79+83BgwYYNSsWdOIiYkxrrrqKuOjjz4qU9fb48YwDGPr1q3GLbfcYtSpU8eIjo42kpOTjYEDBxqrVq2ylSnZp6X3XcmyxYsXO93GL7/80m65s3PL8au2hmEY3377rdGjRw8jJibGaNSokfH0008br732Gl+1hc/43y4AwkZubq6aN2+uadOmadiwYabqzpgxQ9OmTdP+/fu5QRYQZMz5ABA24uPjNW7cOD333HOmbu9dWFioF154QY8//jiJBxACuPIBhLmSW6S7Ur16ddt9HgLl1KlTTidEllavXj2v7uURyLYAhAcmnAJhrmHDhm7XDxkyRHPnzg1on9OnT3f67ZLSvP1X64FsC0B44MoHEOZWrlzpdn1iYqLP99Zw5cCBA3a3GXfmmmuuKXML+/JuC0B4IPkAAACWYsIpAACwVMjN+SguLtbRo0cVGxtb7v+nAwAABIZhGMrPz1diYqLHOyiHXPJx9OjRMv95EQAAhIcjR46ocePGbsuEXPJR8t8qjxw5ori4uCBHAwAAvJGXl6ekpCSv/ut0yCUfJR+1xMXFkXwAABBmvJkywYRTAABgKZIPAABgKZIPAABgKZIPAABgKZIPAABgKZIPAABgKZIPAABgKZIPAABgKZIPAABgKZIPAABgKZIPAABgKZIPAABgKZIPAAhxy156Xs8PuknLXno+2KHAQjvWr9FLQwdpx/o1wQ4l4Eg+ACDE7fzPm8/OCvgmBNdWvz5LBWdOa/Xrs4IdSsCRfABAiGvVLc3uEZVDz3vuV/RFF6vnPfcHO5SAizAMwwh2EKXl5eUpPj5eubm5iouLC3Y4AADAC2bev7nyAQAALFU12AEAAICysu5fbft95KyeQYwk8LjyAQAALEXyAQAALMXHLgAAhKCK9lFLaVz5AAAAluLKBxBgv8ycpeMvvaQ6o0ap/oiK9/38ymZny1a231vt2hnESP6rdEyOQiXGEv6MXzDG3tc+ne2TUNsXoYQrH0CAHX/pJamo6MIjAKAMkg8gwOqMGiVVqXLhEQBQBnc4BQAAfuMOpwAAIGSRfAAAAEvxbRdUOn9d8VetP7pe3RK76eVeLwc7HDv//OafmvnNTDW6qJEOnz7sd4xj1ozRisMr1KtJL72Q9kIAI4WV+r3bTwfyD6h5bHO9f8v7duv++c0/9dK2/05u3j5ku9XhSZK6L+yuE+dOqFZULa378zpJUtt5be3KmInNn7rlZcfxHRr00SDb85KYHGMtvX7BzgV6/qvnNfbKsRrcarDb9kvO/xHtR+gv7f9S5nlFwpUPVDrrj663ewwlM7+ZqSKjSIdPH5bkf4wrDq+we0R4OpB/wO6xtJnfzLQ6HKdOnDth91gRTf9yuuk6z3/1vM4Vn9PzXz3vsWzJ+V+yTx2fVyQkH6h0uiV2s3sMJSPaj1CViCpqcnETSf7H2KtJL7tHhKfmsc3tHksb0X6E1eE4VSuqlt1jRfRwp4dN1xl75VhFRUZp7JVjPZYtOf9L9qnj84qEb7sAAAC/8W0XAAAQskg+AMBfc/pKk+MvPALwiOQDAPx1aJ39IwC3SD4AwF/J3e0fAbjFfT4AwF9DPwx2BEBY4coHAACwFFc+4LP3tv6oie9/r6f6tdbNHRpb0mfT8Uvdrv9hah+ny4fO+UJrdh9T2qV1tWb3Madl0i6tqzlDO7vtw7F9T/GYidFdeyV1Sq//YWqfMs99aUOSMpft0Oz1B3Vft2aacONlXsXnbjv8UXpfzRna2W0MZt3SIVHvbj2qWzok6oVBHbyq40t/Ztr3pX93+9qxb1f7zNOx4+3+NTM+ztr0tr6n49ufGFzx9bXA1bnpTbve8vZ8D1Vc+YDPJr7/vfLOntfE978PdigelSQcrhIPT+squtnrD8owLjwGmzf7ylfvbj1q91heyrv9UO0b8Jbp5OOnn37SHXfcoTp16qh69epq27atvvrqK9t6wzA0ceJENWzYUNWrV1d6err27t0b0KARGp7q11pxMVX1VL/WwQ7Fo7RL69o9uitTGd3XrZkiIi48Bps3+8pXt3RItHssL+Xdfqj2DXjL1B1OT5w4oQ4dOigtLU0jRoxQvXr1tHfvXqWkpCglJUWS9OyzzyozM1Pz5s1Ts2bN9MQTT2j79u3asWOHYmJiPPbBHU4BAAg/Zt6/TSUf48eP14YNG7R+vfN/dmUYhhITEzV27Fg9/PCFe+Dn5uYqISFBc+fO1W233RbQ4AEAQGgw8/5tasLpBx98oN69e+vWW2/Vp59+qkaNGumvf/2r7r33XknSwYMHlZ2drfT0dFud+Ph4de7cWRs3bnSafBQUFKigoMAueABA+WqwZpvt9+y0y10uC2elt0cqu02e1ocKxzgdedouZ2WCzdScjwMHDmjmzJlq0aKFli9frhEjRujBBx/UvHnzJEnZ2dmSpISEBLt6CQkJtnWOMjMzFR8fb/tJSkryZTsAAECYMJV8FBcX64orrtAzzzyjDh066L777tO9996rWbNm+RzAhAkTlJuba/s5cuSIz20BAIDQZ+pjl4YNG+qyy+zvAdCqVSu98847kqQGDRpIknJyctSwYUNbmZycHF1++eVO24yOjlZ0dLSZMAAAfnJ2GT7ULs37y9P2hMv2mo0zHLbL1JWPq6++Wrt377ZbtmfPHiUnJ0uSmjVrpgYNGmjVqlW29Xl5efriiy+UmpoagHABAEC4M3Xl46GHHlLXrl31zDPPaODAgdq8ebNmz56t2bNnS5IiIiI0evRoTZkyRS1atLB91TYxMVE333xzecQfdr755q86dnx5meXX9dxfZtmq1SlO23BW1hNPbblaX7qcN/GULuNNnI7lndUvGbO6dXo7HTtv+3LWp7N2PK0PRBuuxsldvZiYFJ096347PfXtSos/TNT+A1OV0ny8mjQZUma9qzYTGw5Wq1ZPm+7Pvu3LJBXYLatbp7fat3/Zr3F2VceVPXum6siPr5iu9/XWe3TixKdllteq1UNXdHhdkn/nly9Kx7tz5xM6+vMCu33lbV9mz2HpwjFx9OcFXrdnNhZ3rzGObXmq46q8mbisFIjxCxWmrnx06tRJS5Ys0cKFC9WmTRs9/fTTmjFjhm6//XZbmXHjxumBBx7Qfffdp06dOunUqVP65JNPvLrHR2Xg6s0TrpWMWWUfO0+Jhz/2H5iq4uJz2n9gqql6rt5kzCkosyQY+/rIj6/6VM9Z4uFuudVK9lFg9pX3/QHumL7D6U033aTt27fr7Nmz2rlzp+1rtiUiIiL01FNPKTs7W2fPntXKlSt1ySWXBCzgcFe3Tu9ghxB2Ssasso9dTEz5/SWW0ny8IiOjlNJ8vKl6iQ0HB6D3snO+grGvkxoP96lerVo9TC23Wsk+Csy+8r4/wB1TNxmzAjcZAwAg/Jh5/+YfywEAAEuZmnAKAAgP77zzjrZv3664uDjl5eWpbdu26t+/vyRp8uTJXrXhbTn4pvT4uvrdbDvhgisfAFABbd++XdJ//2VFyXMgFJB8AEAF1LZtW0myffZe8hwIBUw4BQAAfmPCKQAACFlMOA2CH8evL7Os8dRuAWs/d/Uh5a88rNj0JorvmWy37pc53+rc7lxFXRqv+kPb2a079uZOnd16TDEd6qruoFZ2cXoT39EZX6o4+6zdMrPbdXprjk6+v181+6Xo4g7//e/IZmOxkmNszvZvaRH1omX8+t8ba5nZHm/GwV3/jvFZOZa+9Ovr9pbXdnnat55iKDnHSou9vux5asbxJXv0+xc5bvt19OPkz6Szni96u2vL8fXC1raLMfLleHXXRqCOY0/tmInPW+7i9fc8KV03lF83ufJRAeWvPCwV/+fRwbnduXaPpZW8KDq+OHrLMfHwxcn398s4W6ST74fWrYADqXTigcrF2bnl7Dw1o3Ti4X0g/n/a7u/rBSo3ko8KKDa9iRT5n0cHUZfG2z2WFtOhrt2jWZEN/L+Ffs1+KYqIqaKa/ULv/yoESkQ9/otzZeXs3HJ2nppRvXOC50JlAonwq0/J/9cLVG5MOAUAAH5jwikAAAhZTDj14PlBN3ldduybHwWsvbFvfuS2rLu+StfLGDVWl3VLK7PcWX1P/ZkZC8e6rniKyWw5qwRi33gq601/ZvejK57i8Hf8X77vTv2ee8KnNtz1HcjjIlDnprN4HOPc+M4ibXx7gVIHDFZq/9tcxmFmv3jqt/S6QL+uuYvHWTvLXnpeO9evUatuadq5fk3AYrHieKhSrZq6336Prsjo67GsO67i8/V11lO7oYYrHxXc6tdnBTsEwC7xgLTx7QUyiou18e3K+e/nSxIOM4lHqCgqLNS6+a8HO4ywR/JRwfW85/5ghwCoenytYIcQUlIHDFZEZKRSB1TOfz/f6j9XY0sew0nJlQ/4hwmnAADAb0w4BQAAIYsJpwiarPtX2z0fOatnmWXOlo+c1bPcYwMqKsdzydN5WHK+OTs3HcuEC3fbUiIUt8nTPgin7eLKBwAAsBTJBwAAsBQTTgEAgN+YcAoAAEJWpZtwevz/5uvXadNUb9w4/TJlyn9XRERIDheBWu3aqZ0tW8kZZ+ta7drpsX937Zmp6015s1zFVtKfu/WeeIrXzLb5E4c3PO13d3G4i93Z8eLLtpT04a5/T/G7OnZ9OaYl6eSHHynnqaeUMHGiavYte4dGx3Zj+/VT42enuo3VTP/ldWw6Oy59HaMf7vuLfl+3TtW7d1fT2f9025cvSsfxy8xZOv7SS1JRkcc4Hbex9GtknTtu97p/M/H7e+y768/sa6PZ89hT/1ZwjC8Q55DVKt2Vj1+nTZNx7px+nTbNfkVoffoEhJWcp55ScX6+cp56yqvy+e+/X84RhZ7f162zeyxPjomHGS5fI4EAqnTJR71x4xQRFaV648bZr4jw/19MA5VVwsSJioyNVcLEiV6Vj+3Xr5wjCj3Vu3e3eyxPdUaNkqpU8amuy9dIIICYcAoAAPzGhFMAABCyKt2EU1Qubee1tf2+fcj2IEaCyozj0H4MHFXWMfHE3ZiV5m78XLUR7DHnygcAALAUyQcAALAUE04BAIDfmHAKAABCFskHAACwVOX6tsvk+GBHEHiTcx2eO2xjy37SbW942VaAxmdybtm2HOOUpLXPSWunlF3uTGSMVHzW/9i8EVVTOnfS+brS2+FsvErW+zKWzsYtFHja5tJlXI2Ju7Hytm1JWj5R2vg/UpUoqeic65jNCvTYOzvenZ0T5bm/ncXgKh5n+89TfVdtmY3H3zEIxDlZuo1Ns6WVj0vnC7zve3JdSYWey0tSx2FS3xfMbbeZfemsrjevxxbjykdFtyuEb2O9LtP7slYlHpLrxAPBt+l/LzwGMvEASvM28bDjZeIhSVteM9l2xUTyUdG1DOHbWHef4H3ZyJjyi8NRVE3r+oI5XR688FglKrhxoOJKnyJVjTZZqZr3RTsOM9l2xcS3XQAAgN/4tgsAAAhZlWrCadPxS03X+WFqH1P1fpjax2Wf7tZ5ascVx/Yd2/S2HW/aLi9mYvZlHwZaIMfC2+1x1qeruu6O2ZJ2zI5j6f4DeYw54+9x5+t5Xh6cjZWr8Qvkse3N9jgbZ1/H3lPs0VUj9eiNLTXpgx1et+nIMZ5LH12qgmLP5bzhart92SeRkl4Y1F6j3/zGdF1/lOdrdHngygcAoFwVnC/WM8t2BbZNJ4lHKCiWNPH974MdRsgzlXxMnjxZERERdj8tW7a0rT979qxGjhypOnXqqEaNGurfv79ycnICHjQAIHyUXPkIaJsh+qdzpKSn+rUOdhghz9SE08mTJ+vtt9/WypUrbcuqVq2qunXrSpJGjBihpUuXau7cuYqPj9eoUaMUGRmpDRs2eB0QE04BAAg/Zt6/Tc/5qFq1qho0aFBmeW5url577TUtWLBAPXv2lCTNmTNHrVq10qZNm9SlSxezXQEAgArIdPKxd+9eJSYmKiYmRqmpqcrMzFSTJk20ZcsWFRYWKj093Va2ZcuWatKkiTZu3Ogy+SgoKFBBwX9v6JKXl+fDZiCcNVizze55dtrlQYkD4cfx2ClRnseQs+O1MhzDzsa6Im5nOHB13HsrFPabqU/NOnfurLlz5+qTTz7RzJkzdfDgQXXr1k35+fnKzs5WVFSUatasaVcnISFB2dnZLtvMzMxUfHy87ScpKcmnDQEAAOHB1JWPjIwM2+/t2rVT586dlZycrLfeekvVq1f3KYAJEyZozJgxtud5eXkkIAAAVGB+3eejZs2auuSSS7Rv3z716tVL586d08mTJ+2ufuTk5DidI1IiOjpa0dFmb2WLiiQULgEiPAXj2HHWZ2U4hivDNoaLirAv/Pqy0qlTp7R//341bNhQHTt2VLVq1bRq1Srb+t27d+vw4cNKTU31O1AAAFAxmLry8fDDD6tv375KTk7W0aNHNWnSJFWpUkV//vOfFR8fr2HDhmnMmDGqXbu24uLi9MADDyg1NbVCftNlz56pOvLjq0pqPFyXXDI+2OGEtVWrU2y/X9dzv9dl3bmu536vy5rhGJ8vfbjbRlftldRxHCuz/Tur4207ruoGmqfjoTz2a6C5O06u67lfm7+8Vfn5X7ss76yes/Y9rXdWxtWx5GqZJ572h9ltc9VGoPa7mWPWXZ9mXqsC8brhKgZvjoFQZCr5+PHHH/XnP/9Zx48fV7169XTNNddo06ZNqlevniTpxRdfVGRkpPr376+CggL17t1bL7/8crkEHmxHfnxVkqEjP75K8gHAlNKJB1AZmUo+Fi1a5HZ9TEyMsrKylJWV5VdQ4SCp8XDblQ8AMCM29goSEFRqpu5wagXucAoAQPgx8/4donfHBwAAFZVfX7UF/DV58mS3zwHYK32O+HO+OGsnUG2HCk+vL662MdS23VM8vryOBnsbufIBAAAsRfIBAAAsxYRTAADgNyacAgCAkMWEU4sde3Onzm49VmZ546ndyiz7cfx6p204K+uJp7ZcrfdG6XhKt+NqeYmoS+N1bneu7fnF3RN1et3RgMQWiO0qL42ndisTVyjHG0iOx66/x51V9d2dc6G4z9yde75uty/HrDevVZ5iKY9zw1Wbnl6zHMtave/NvE94UzeYuPJhMWeJR2VVOvGQpNPrj7ooCQCoSEg+LBbToW6wQwgZUZfG2z2/uFtikCIBAFiJCacAAMBvTDgFAAAhiwmnAGCB5wfdZPt97JsfuSz3P3cN0PmCs16V9aYvf/jSN7wXqP0kud9XrvoJ5v7lygcAhJDSiQdQUZF8AEAIqRodE+wQgHLHhFMAAOA3JpwCAICQxYTTAMq6f7XPdUfO6mmqPWflfY2jpC1f43dXf+Ssnvp2zWGtf3Of0zqOvInB3bZbzTHekbN6+jz+vvTlTTnHOt62Y7ZtM/zZ//60b9aeL37Wp4v2qsdtLbRizs6AtOmKr8eBL215O87+vDYEYnt8fZ3zp2/Huu7OF1frPI2Xt8e/N9sR6Pcdq3DlA+Xu83cOBDsEwCefLtqrc7+f16eL9gY7FKBCIflAuevav3mwQwB80uO2FoqqXlU9bmsR7FCACoUJpwAAwG9MOAUAACGLCace7GzZKtghONVql+vJb77E3GrXTsu31bFPM9vkrqwV3I1VeWyHq/6c1fd1//vSf3koHYuv/fpyfHjqy2xcgTinArV/Ax1Dac7iCUTcjm14c855u1+8YeZ4MFvXVf1A7NtgvzZ6iysfAADAUiQfAADAUkw4BQAAfmPCKQAACFlMOEXQtJ3X1u759iHbyyxzZvuQ7eUVElDhlT7HnJ1zjssq4nkZrtvjLm5v95NjnWDhygcAALAUyQcAALAUE04BAIDfmHAKAABCVuWacDo53mT5XPN1fK3vWHZy7n8e3dR3VsaXmP3dTn94s52ly3lb1lWZQG2rq3ZKx1lmnUN5f2Lxta634+2urt2yAI2l0+VetB3ImDyNqavzzau2A3x+eerXzNh52mZfXk98jclTG6bicHK+mYnFVfnSy6f+QTr7q+99+MpxfLw5bkMMVz4AAPBF6cQDppB8AADgi5h6wY4gbDHhFAAA+I0JpwAAIGSRfAAAAEtVrm+7AEAQNB2/1Pb7D1P7uFxWkZXeXkeB3n7HvkJxfL2J0d2Yearrbf1gjQ1XPgAAgKX8Sj6mTp2qiIgIjR492rbs7NmzGjlypOrUqaMaNWqof//+ysnJ8TdOAABQQfj8bZcvv/xSAwcOVFxcnNLS0jRjxgxJ0ogRI7R06VLNnTtX8fHxGjVqlCIjI7Vhwwav2uXbLgAAhJ9y/7bLqVOndPvtt+uVV15RrVq1bMtzc3P12muv6YUXXlDPnj3VsWNHzZkzR59//rk2bdrkS1cAAKCC8WnC6ciRI9WnTx+lp6drypQptuVbtmxRYWGh0tPTbctatmypJk2aaOPGjerSpUuZtgoKClRQUGB7npeX50tIXmmwZlu5tR1s2WmXS3K/jSVlSpTXeGSnXR7wtmMl5Qe0Rd+UHkNn2+jPtpe0/dqRX/TUgZ9VUBxSt+AJOMfj0ZHV56s351Cg+yvPvjyNrzPO4mldPUqrulzmVR3HbfImhuQ121TgZLmzuq7Gq7zH0hUzMQa6H3/69OXYCDTTyceiRYv09ddf68svvyyzLjs7W1FRUapZs6bd8oSEBGVnZzttLzMzU08++aTZMFDJhELiYZXKkHggfHz/+7lybd9Z4oGKz9THLkeOHNHf/vY3zZ8/XzExMQEJYMKECcrNzbX9HDlyJCDtomKJDXYAFprYvKGiIyOCHQYg6cKVj/IUXa6tI1SZmnD63nvv6U9/+pOqVKliW1ZUVKSIiAhFRkZq+fLlSk9P14kTJ+yufiQnJ2v06NF66KGHPPbBhFMAAMKPmfdvUx+7XHfdddq+fbvdsqFDh6ply5Z65JFHlJSUpGrVqmnVqlXq37+/JGn37t06fPiwUlNTTW4GAACoiEwlH7GxsWrTpo3dsosvvlh16tSxLR82bJjGjBmj2rVrKy4uTg888IBSU1OdTja12qrVKabrXNdzv0/1XLVlJp6S8t727yxWxz7NcNavP+1524+nPgK1P/wRqHEwsy3eHj/ujlmzx5Q3dcvjmHDG0zZ5KueJFce2u34DeVxbsU++3nqPTpz4VLVq9dAVHV73qo63+9Cftpy158/xbiaO8tiX3vIm3mCdu84E/PbqL774oiIjI9W/f38VFBSod+/eevnllwPdDQAgiE6c+NTuETDD7+Rj7dq1ds9jYmKUlZWlrKwsf5sGAISoWrV62K58AGb5fIfT8sKEUwAAwk+53+EUAADAVwGf8wGUmDx5stPf3ZXzVDZcmNle+MfK48ds2+URi7fnVXn0F4hyVqqIry1SYLcjWGPClQ8AAGApkg8AAGApJpwCAAC/MeEUAACELCaceuHH8esD0k7jqd1Mtd94ajef1nnbb6govR3exBqo/eGKv+PlKT7H9r3ZHmcxOatn5rhwbNvdseZsvaflvjB7LJQ4vTVHJ97c43O/pfsr7+PLU/+BEIhjwOxx6u/rlaf63sTgrVB4TQzEtngzZqGKKx8Awt7J94N3m2gA5pF8AAh7NfsF///9APAeE04BAIDfmHAKAABCFhNOEVTPD7rJ7vnYNz8KUiQAPCl9vobDuRrI15dgbrvjdjhyjMdTeVf1rMSVDwAAYCmSDwAAYCkmnAIAAL8x4RQAAIQsJpwGUNb9qz2WGTmrp1flzJYNtpGzerpd77gdpcsHYhsD2Z6rcfemD0/j4Eogjp2SvkPhmHEVi+P4mIm1vLfPzL5zjKHboD/o83cOqGv/5mqX1sRt2UAxe87520+gz9MSoXC8OuNqfEvH63hOBuMYNfN+Ekq48gEAfvr8nQMqOl+sz985EOxQgLBA8gEAfurav7mqVI1U1/7Ngx0KEBaYcAoAAPzGhFMAABCymHAKACFkZ8tWHsu02rWz3NuoyBzHp2QsSi93Nj6e1geaN/uxhLt43LUTrOOAKx8AAMBSJB8AAMBSTDgFAAB+Y8IpAAAIWUw4DQFt57V1unz7kO0+1XPVlpnyzvp3V7+krGMZV/3WiqqldX9e57S8YzuexiFYfN1vgerTVT/O4nK1f9y14027rpg9Hvxp011Zs3yNzZs4HPddOBzjJVyNS5WIKhrRfoRe2vaSxzbcbWN57NM7l96pbce2+Vxf8hxXoPebq9dDM3XMCOZxx5UPBMWJcyeCHQIAPxUZRZr5zcxgh+FU6cQDoYfkA0FRK6pWsEMA4KeSKx+h6PK6lwc7BLjBhFMAAOA3JpwCAICQxYTTcLDoLmnX+1LLftJtb9ivmxxftvzkXOfLzZqc62SZyXbdxeKsfaflXGxjMHkah/KIz1WfNzwndbnPczmP7buJOVD7PVDHZun2bL/HO1/uVTsmYnLcBm+Occf1ztooD87i6jhM2vKal/W9iCuQ+9NjXxad995uk6t4Ns2WVj4upU+xPzdL++Yt6eOHpYzpUvuB5vr1No4QxpWPcLDrfftHoLSVjwc7AoQTbxMP+G7l49L5Avfn5scPS2dzLzxWQiQf4aBlP/tHoLT0KcGOAOGk47BgR1DxpU+Rqka7Pzczpksx8RceKyEmnAIAAL8x4RQAAIQsJpwipDQdv9Tp8h+m9rE4EgAV1R/GL9X5Us9/mNqnzGtPKL/mOHuddLYNngRzG7nyAQCoVM57LoJyRvIBAKhUuOQffKYmnM6cOVMzZ87UDz/8IElq3bq1Jk6cqIyMDEnS2bNnNXbsWC1atEgFBQXq3bu3Xn75ZSUkJHgdEBNOAQAIP+U24bRx48aaOnWqtmzZoq+++ko9e/ZUv3799P3330uSHnroIX344YdavHixPv30Ux09elS33HKL71sCAAAqHL+/alu7dm0999xzGjBggOrVq6cFCxZowIABkqRdu3apVatW2rhxo7p06eJVe1z5AAAg/Jh5//b5o6+ioiItXrxYp0+fVmpqqrZs2aLCwkKlp6fbyrRs2VJNmjRxm3wUFBSooKDALniY02DNNrvn2WmXl1nmSnba5U7bKL3Olxi8ZaaPyq70GLsbN1f7IlBj7ex48zYOZ8emmfru6t369W6tz/1d3eKra/EVl7qt64q7Pv0ZP2f7zt3+9OZ88uUY8La+mTa9jcNTf2bKBou3x67Ztty9Djvj7TkTquMo+TDhdPv27apRo4aio6N1//33a8mSJbrsssuUnZ2tqKgo1axZ0658QkKCsrOzXbaXmZmp+Ph4209SUpLpjQCA9bm/2z0CCF2mk49LL71U27Zt0xdffKERI0ZoyJAh2rFjh88BTJgwQbm5ubafI0eO+NwWgMqrW3x1u0cAocvvOR/p6elKSUnRoEGDdN111+nEiRN2Vz+Sk5M1evRoPfTQQ161x5wPAADCj6W3Vy8uLlZBQYE6duyoatWqadWqVbZ1u3fv1uHDh5WamupvNwAAoIIwNeF0woQJysjIUJMmTZSfn68FCxZo7dq1Wr58ueLj4zVs2DCNGTNGtWvXVlxcnB544AGlpqZ6/U0XAAimr7feoxMnPlWtWj2Um/uNiotPKjKyptKu3RLs0ExbtTrF5brreu63MBL4y92+lFzvT0/13NUtb6aSj19++UV33XWXfv75Z8XHx6tdu3Zavny5evXqJUl68cUXFRkZqf79+9vdZAwAwsGJE5/aPUpScfHJIEUDVFymko/XXnvN7fqYmBhlZWUpKyvLr6AAIBhq1erh9MoHgMDye8JpoDHhFACA8GPphFMAAAAz+Od+FcTkyZPL/F56WSDb9aaOmbJz5szRoUOHlJycrEOHDpmKKVg8jcuiRYu0a9cut2X86dPbWMzsv5L133zzjT7++GNlZGSoffv2XtV11pazOmaODX+Udx//+te/tH//fqWkpOjOO+90ua3lbdOmTVq5cqXS09OdTuxfu3at1q1bp+7du+vaa6/1Ka7bb79dLVq0KNNmUlKSjhw5ouLiYq/b8nec/BlTd3V9PS69qeOqzJ/+9Ce788yb89vfWC666CKNGzfOq/bKG1c+EHQlCYc3iUe4KJ14hJuPP/5YZ8+e1ccffxzsUELW/v377R6DZeXKlTp//rxWrlzpdP26detUXFysdevW+dzH0qVLnbZ56NAhU4kH7AXjPDtz5oxlfXlC8oGgS05OtnusCFq2bBnsEHyWkZGhmJgYZWRkBDuUkJWSkmL3GCzp6emqWrWq3f/UKq179+6KjIxU9+7dfe6jT58+TttMTk5WZCRvIb4Kxnl20UUXWdaXJ0w4BQAAfmPCKQAACFlMOEWFlf/5T8pddlDxNzZTbNdGwQ4n4H4cv972e+Op3Szv0x0z8bhr06rtCkWO+/fX//tOBd+dUHSbWqp3R5uAtOuJt+Pv2Gbjqd2cLiuv+ma5OnfMLreKN/vMm7jKc0zN4soHKqzcZQel88aFRyDMFXx3wu4RCGckH6iw4m9sJlWNuPAIhLnoNrXsHoFwxoRTAADgNyacAgCAkMWEUwBBteLVLH274mO165WhXsNHBjscOPj64w+1bv7rqpOUrF8O7FOrbmm6cdTYYIcFB88PusmnemPf/CjAkXiHKx8AgurbFR/bPSK0rJv/uooKC/XLgX2SpJ3r1wQ5IlQEJB8Agqpdrwy7R4SW7rffoyrVqql+8z9Iklp1SwtyRKgImHAKAAD8xoRTAAAQsphwCqDSy7p/tddlR87qWY6RVFyexphxdc3Z2DmO14Z392jbih91ea/GuvqWS6wKzWdc+QAAIMxtW/GjZPznMQyQfAAAEOYu79VYivjPYxhgwikAAPAbE04BAEDIYsIpAAAV0M6Wrdyub7Vrp0WRlMWVDwAAYCmSDwAAYCk+dgEAoAIK5scqnnDlAwAAWIrkA0BYaTuvre0nkP75zT91+RuX65/f/DOg7QIoi+QDACTN/GamiowizfxmZrBDASo8kg8AkDSi/QhViaiiEe1HBDsUoMLjDqcAAMBv3OEUAACELL5qCwBAZTA53smyXOvjEFc+AACAxUg+AACApfjYBQCAyiBIH7E4w5UPAABgKZIPAABgKZIPAABgKZIPAABgKVPJR2Zmpjp16qTY2FjVr19fN998s3bv3m1X5uzZsxo5cqTq1KmjGjVqqH///srJyQlo0AAAIHyZSj4+/fRTjRw5Ups2bdKKFStUWFio66+/XqdPn7aVeeihh/Thhx9q8eLF+vTTT3X06FHdcsstAQ8cAACEJ7/+t8uvv/6q+vXr69NPP1X37t2Vm5urevXqacGCBRowYIAkadeuXWrVqpU2btyoLl26lGmjoKBABQUFtud5eXlKSkrif7sAABBGLPvfLrm5F74zXLt2bUnSli1bVFhYqPT0dFuZli1bqkmTJtq4caPTNjIzMxUfH2/7SUpK8ickAAAQ4nxOPoqLizV69GhdffXVatOmjSQpOztbUVFRqlmzpl3ZhIQEZWdnO21nwoQJys3Ntf0cOXLE15AAAEAY8PkOpyNHjtR3332nzz77zK8AoqOjFR0d7VcbAAAgfPh05WPUqFH66KOPtGbNGjVu3Ni2vEGDBjp37pxOnjxpVz4nJ0cNGjTwK1AAAFAxmEo+DMPQqFGjtGTJEq1evVrNmjWzW9+xY0dVq1ZNq1atsi3bvXu3Dh8+rNTU1MBEDAAAwpqpj11GjhypBQsW6P3331dsbKxtHkd8fLyqV6+u+Ph4DRs2TGPGjFHt2rUVFxenBx54QKmpqU6/6QIAACofU1+1jYiIcLp8zpw5uvvuuyVduMnY2LFjtXDhQhUUFKh37956+eWXvf7YxcxXdQAAQGgw8/7t130+ygPJBwAA4cey+3wAAACYRfIBAAAsRfIBAAAsRfIBAAAsRfIBAAAsRfIBAAAsRfIBAAAsRfIBAAAsRfIBAAAsRfIBAAAsRfIBAAAsRfIBAAAsVTXYAQCAWc8Pusn2+9g3PwpiJKhoOLaswZUPAABgKZIPAABgqQjDMIxgB1FaXl6e4uPjlZubq7i4uGCHAwAAvGDm/ZsrHwAAwFIkHwAAwFIkHwAAwFIkHwAAwFIkHwAAwFIkHwAAwFIkHwAAwFIkHwAAwFIkHwAAwFIkHwAAwFIkHwAAwFIkHwAAwFIkHwAAwFIkHwAAwFIkHwAAwFIkHwAAwFIkHwAAwFIkHwAAwFIkHwAAwFIkHwAAwFIkHwAAwFIkHwAAwFIkHwAAwFIkHwAAwFKmk49169apb9++SkxMVEREhN577z279YZhaOLEiWrYsKGqV6+u9PR07d27N1DxAgCAMGc6+Th9+rTat2+vrKwsp+unTZum//3f/9WsWbP0xRdf6OKLL1bv3r119uxZv4MFAADhr6rZChkZGcrIyHC6zjAMzZgxQ48//rj69esnSXrjjTeUkJCg9957T7fddluZOgUFBSooKLA9z8vLMxsSAAAIIwGd83Hw4EFlZ2crPT3dtiw+Pl6dO3fWxo0bndbJzMxUfHy87ScpKSmQIQEAgBAT0OQjOztbkpSQkGC3PCEhwbbO0YQJE5Sbm2v7OXLkSCBDAgAAIcb0xy6BFh0drejo6GCHAQAALBLQKx8NGjSQJOXk5Ngtz8nJsa0DAACVW0CTj2bNmqlBgwZatWqVbVleXp6++OILpaamBrIrAAAQpkx/7HLq1Cnt27fP9vzgwYPatm2bateurSZNmmj06NGaMmWKWrRooWbNmumJJ55QYmKibr755kDGDQAAwpTp5OOrr75SWlqa7fmYMWMkSUOGDNHcuXM1btw4nT59Wvfdd59Onjypa665Rp988oliYmICFzUAAAhbEYZhGMEOorS8vDzFx8crNzdXcXFxwQ4HAAB4wcz7N//bBQAAWIrkAwAAWIrkAwAAWIrkAwAAWIrkAwAAWIrkAwAAWIrkAwAAWIrkAwAAWIrkAwAAWIrkAwAAWIrkAwAAWIrkAwAAWIrkAwAAWIrkAwAAWIrkAwAAWIrkAwAAWIrkAwAAWIrkAwAAWIrkAwAAWIrkAwAAWIrkAwAAWIrkAwAAWIrkAwAAWIrkAwAAWIrkAwAAWIrkAwAAWIrkAwAAWIrkAwAAWIrkAwAAWIrkAwAAWIrkAwAAWIrkAwAAWIrkAwAAWIrkAwAAWIrkAwAAWIrkAwAAWIrkAwAAWIrkAwAAWIrkAwAAWIrkAwAAWKrcko+srCw1bdpUMTEx6ty5szZv3lxeXQEAgDBSLsnHm2++qTFjxmjSpEn6+uuv1b59e/Xu3Vu//PJLeXQHAADCSIRhGEagG+3cubM6deqkl156SZJUXFyspKQkPfDAAxo/frxd2YKCAhUUFNie5+XlKSkpSbm5uYqLiwtoXJMfmSxFB7RJAADCU4E0+dnJAWsuLy9P8fHxXr1/Vw1Yr/9x7tw5bdmyRRMmTLAti4yMVHp6ujZu3FimfGZmpp588slAh+FctKQIa7oCACCkBfGP8YAnH8eOHVNRUZESEhLslickJGjXrl1lyk+YMEFjxoyxPS+58lEuCsSVDwAApAvviUES8OTDrOjoaEVHW5MRBPLyEgAA8E3AJ5zWrVtXVapUUU5Ojt3ynJwcNWjQINDdAQCAMBPw5CMqKkodO3bUqlWrbMuKi4u1atUqpaamBro7AAAQZsrlY5cxY8ZoyJAhuvLKK3XVVVdpxowZOn36tIYOHVoe3QEAgDBSLsnHoEGD9Ouvv2rixInKzs7W5Zdfrk8++aTMJFQAAFD5lMt9Pvxh5nvCAAAgNJh5/+Z/uwAAAEuRfAAAAEuRfAAAAEuRfAAAAEuRfAAAAEuRfAAAAEuRfAAAAEuRfAAAAEsF/b/aOiq551leXl6QIwEAAN4qed/25t6lIZd85OfnS5KSkpKCHAkAADArPz9f8fHxbsuE3O3Vi4uLdfToUcXGxioiIiKgbefl5SkpKUlHjhzh1u0eMFbmMF7eY6zMYby8x1iZE+jxMgxD+fn5SkxMVGSk+1kdIXflIzIyUo0bNy7XPuLi4jgwvcRYmcN4eY+xMofx8h5jZU4gx8vTFY8STDgFAACWIvkAAACWqlTJR3R0tCZNmqTo6OhghxLyGCtzGC/vMVbmMF7eY6zMCeZ4hdyEUwAAULFVqisfAAAg+Eg+AACApUg+AACApUg+AACApUg+AACApSpc8pGVlaWmTZsqJiZGnTt31ubNm92WX7x4sVq2bKmYmBi1bdtWy5YtsyjS4DMzVq+88oq6deumWrVqqVatWkpPT/c4thWN2WOrxKJFixQREaGbb765fAMMIWbH6uTJkxo5cqQaNmyo6OhoXXLJJZyLbsyYMUOXXnqpqlevrqSkJD300EM6e/asRdEGz7p169S3b18lJiYqIiJC7733nsc6a9eu1RVXXKHo6Gj94Q9/0Ny5c8s9zlBhdrzeffdd9erVS/Xq1VNcXJxSU1O1fPny8gnOqEAWLVpkREVFGa+//rrx/fffG/fee69Rs2ZNIycnx2n5DRs2GFWqVDGmTZtm7Nixw3j88ceNatWqGdu3b7c4cuuZHavBgwcbWVlZxtatW42dO3cad999txEfH2/8+OOPFkceHGbHq8TBgweNRo0aGd26dTP69etnTbBBZnasCgoKjCuvvNK48cYbjc8++8w4ePCgsXbtWmPbtm0WRx4cZsdr/vz5RnR0tDF//nzj4MGDxvLly42GDRsaDz30kMWRW2/ZsmXGY489Zrz77ruGJGPJkiVuyx84cMC46KKLjDFjxhg7duww/vGPfxhVqlQxPvnkE2sCDjKz4/W3v/3NePbZZ43Nmzcbe/bsMSZMmGBUq1bN+PrrrwMeW4VKPq666ipj5MiRtudFRUVGYmKikZmZ6bT8wIEDjT59+tgt69y5s/GXv/ylXOMMBWbHytH58+eN2NhYY968eeUVYkjxZbzOnz9vdO3a1Xj11VeNIUOGVJrkw+xYzZw502jevLlx7tw5q0IMKWbHa+TIkUbPnj3tlo0ZM8a4+uqryzXOUOPNm+m4ceOM1q1b2y0bNGiQ0bt373KMLDR5M17OXHbZZcaTTz4Z8HgqzMcu586d05YtW5Senm5bFhkZqfT0dG3cuNFpnY0bN9qVl6TevXu7LF9R+DJWjs6cOaPCwkLVrl27vMIMGb6O11NPPaX69etr2LBhVoQZEnwZqw8++ECpqakaOXKkEhIS1KZNGz3zzDMqKiqyKuyg8WW8unbtqi1bttg+mjlw4ICWLVumG2+80ZKYw0llfY0PlOLiYuXn55fL63zI/VdbXx07dkxFRUVKSEiwW56QkKBdu3Y5rZOdne20fHZ2drnFGQp8GStHjzzyiBITE8uc2BWRL+P12Wef6bXXXtO2bdssiDB0+DJWBw4c0OrVq3X77bdr2bJl2rdvn/7617+qsLBQkyZNsiLsoPFlvAYPHqxjx47pmmuukWEYOn/+vO6//349+uijVoQcVly9xufl5en3339X9erVgxRZeJg+fbpOnTqlgQMHBrztCnPlA9aZOnWqFi1apCVLligmJibY4YSc/Px83XnnnXrllVdUt27dYIcT8oqLi1W/fn3Nnj1bHTt21KBBg/TYY49p1qxZwQ4tJK1du1bPPPOMXn75ZX399dd69913tXTpUj399NPBDg0VyIIFC/Tkk0/qrbfeUv369QPefoW58lG3bl1VqVJFOTk5dstzcnLUoEEDp3UaNGhgqnxF4ctYlZg+fbqmTp2qlStXql27duUZZsgwO1779+/XDz/8oL59+9qWFRcXS5KqVq2q3bt3KyUlpXyDDhJfjq2GDRuqWrVqqlKlim1Zq1atlJ2drXPnzikqKqpcYw4mX8briSee0J133qnhw4dLktq2bavTp0/rvvvu02OPPabISP6mLOHqNT4uLo6rHm4sWrRIw4cP1+LFi8vt6naFOUqjoqLUsWNHrVq1yrasuLhYq1atUmpqqtM6qampduUlacWKFS7LVxS+jJUkTZs2TU8//bQ++eQTXXnllVaEGhLMjlfLli21fft2bdu2zfbzxz/+UWlpadq2bZuSkpKsDN9SvhxbV199tfbt22dL0CRpz549atiwYYVOPCTfxuvMmTNlEoySxM3g/4Taqayv8f5YuHChhg4dqoULF6pPnz7l11HAp7AG0aJFi4zo6Ghj7ty5xo4dO4z77rvPqFmzppGdnW0YhmHceeedxvjx423lN2zYYFStWtWYPn26sXPnTmPSpEmV6qu2ZsZq6tSpRlRUlPH2228bP//8s+0nPz8/WJtgKbPj5agyfdvF7FgdPnzYiI2NNUaNGmXs3r3b+Oijj4z69esbU6ZMCdYmWMrseE2aNMmIjY01Fi5caBw4cMD497//baSkpBgDBw4M1iZYJj8/39i6dauxdetWQ5LxwgsvGFu3bjUOHTpkGIZhjB8/3rjzzjtt5Uu+avv//t//M3bu3GlkZWVVqq/amh2v+fPnG1WrVjWysrLsXudPnjwZ8NgqVPJhGIbxj3/8w2jSpIkRFRVlXHXVVcamTZts63r06GEMGTLErvxbb71lXHLJJUZUVJTRunVrY+nSpRZHHDxmxio5OdmQVOZn0qRJ1gceJGaPrdIqU/JhGObH6vPPPzc6d+5sREdHG82bNzf+/ve/G+fPn7c46uAxM16FhYXG5MmTjZSUFCMmJsZISkoy/vrXvxonTpywPnCLrVmzxunrUMn4DBkyxOjRo0eZOpdffrkRFRVlNG/e3JgzZ47lcQeL2fHq0aOH2/KBFGEYXKcDAADWqTBzPgAAQHgg+QAAAJYi+QAAAJYi+QAAAJYi+QAAAJYi+QAAAJYi+QAAAJYi+QAAoJJYt26d+vbtq8TEREVEROi9994z3YZhGJo+fbouueQSRUdHq1GjRvr73/9uqo0K84/lAACAe6dPn1b79u11zz336JZbbvGpjb/97W/697//renTp6tt27b67bff9Ntvv5lqgzucAgBQCUVERGjJkiW6+eabbcsKCgr02GOPaeHChTp58qTatGmjZ599Vtdee60kaefOnWrXrp2+++47XXrppT73zccuAABAkjRq1Cht3LhRixYt0rfffqtbb71VN9xwg/bu3StJ+vDDD9W8eXN99NFHatasmZo2barhw4ebvvJB8gEAAHT48GHNmTNHixcvVrdu3ZSSkqKHH35Y11xzjebMmSNJOnDggA4dOqTFixfrjTfe0Ny5c7VlyxYNGDDAVF/M+QAAANq+fbuKiop0ySWX2C0vKChQnTp1JEnFxcUqKCjQG2+8YSv32muvqWPHjtq9e7fXH8WQfAAAAJ06dUpVqlTRli1bVKVKFbt1NWrUkCQ1bNhQVatWtUtQWrVqJenClROSDwAA4LUOHTqoqKhIv/zyi7p16+a0zNVXX63z589r//79SklJkSTt2bNHkpScnOx1X3zbBQCASuLUqVPat2+fpAvJxgsvvKC0tDTVrl1bTZo00R133KENGzbo+eefV4cOHfTrr79q1apVateunfr06aPi4mJ16tRJNWrU0IwZM1RcXKyRI0cqLi5O//73v72Og+QDAIBKYu3atUpLSyuzfMiQIZo7d64KCws1ZcoUvfHGG/rpp59Ut25ddenSRU8++aTatm0rSTp69KgeeOAB/fvf/9bFF1+sjIwMPf/886pdu7bXcZB8AAAAS/FVWwAAYCmSDwAAYCmSDwAAYCmSDwAAYCmSDwAAYCmSDwAAYCmSDwAAYCmSDwAAYCmSDwAAYCmSDwAAYCmSDwAAYKn/D1S4cXlhc5heAAAAAElFTkSuQmCC",
      "text/plain": [
       "<Figure size 640x480 with 1 Axes>"
      ]
     },
     "metadata": {},
     "output_type": "display_data"
    }
   ],
   "source": [
    "result_array = mid2arry(mid)\n",
    "import matplotlib.pyplot as plt\n",
    "plt.plot(range(result_array.shape[0]), np.multiply(np.where(result_array>0, 1, 0), range(1, 89)), marker='.', markersize=1, linestyle='')\n",
    "plt.title(\"nocturne_27_2_(c)inoue.mid\")\n",
    "plt.show()"
   ]
  },
  {
   "cell_type": "code",
   "execution_count": null,
   "metadata": {},
   "outputs": [],
   "source": []
  }
 ],
 "metadata": {
  "kernelspec": {
   "display_name": "piano_transcription",
   "language": "python",
   "name": "python3"
  },
  "language_info": {
   "codemirror_mode": {
    "name": "ipython",
    "version": 3
   },
   "file_extension": ".py",
   "mimetype": "text/x-python",
   "name": "python",
   "nbconvert_exporter": "python",
   "pygments_lexer": "ipython3",
   "version": "3.9.6"
  }
 },
 "nbformat": 4,
 "nbformat_minor": 2
}
